G04 #@! TF.FileFunction,Legend,Top*
%FSLAX46Y46*%
G04 Gerber Fmt 4.6, Leading zero omitted, Abs format (unit mm)*
G04 Created by KiCad (PCBNEW 4.0.7) date Wed Apr 18 22:54:53 2018*
%MOMM*%
%LPD*%
G01*
G04 APERTURE LIST*
%ADD10C,0.100000*%
%ADD11C,0.120000*%
%ADD12C,0.150000*%
G04 APERTURE END LIST*
D10*
D11*
X108720000Y-157330000D02*
X111380000Y-157330000D01*
X108720000Y-154730000D02*
X108720000Y-157330000D01*
X111380000Y-154730000D02*
X111380000Y-157330000D01*
X108720000Y-154730000D02*
X111380000Y-154730000D01*
X108720000Y-153460000D02*
X108720000Y-152130000D01*
X108720000Y-152130000D02*
X110050000Y-152130000D01*
X135080000Y-141550000D02*
X135080000Y-142050000D01*
X136020000Y-142050000D02*
X136020000Y-141550000D01*
X134085858Y-135678356D02*
X135500072Y-137092570D01*
X136942570Y-135650072D02*
X135528356Y-134235858D01*
X136694974Y-134993502D02*
X136200000Y-134498528D01*
X137048528Y-133650000D02*
X137543502Y-134144974D01*
X140178356Y-128235858D02*
X138764142Y-126821644D01*
X137321644Y-128264142D02*
X138735858Y-129678356D01*
X136726777Y-128178249D02*
X137221751Y-128673223D01*
X136373223Y-129521751D02*
X135878249Y-129026777D01*
X138921644Y-126664142D02*
X140335858Y-128078356D01*
X141778356Y-126635858D02*
X140364142Y-125221644D01*
X141523223Y-126071751D02*
X141028249Y-125576777D01*
X141876777Y-124728249D02*
X142371751Y-125223223D01*
X121150000Y-104150000D02*
X122150000Y-104150000D01*
X122150000Y-102450000D02*
X121150000Y-102450000D01*
X122000000Y-105500000D02*
X121300000Y-105500000D01*
X121300000Y-104300000D02*
X122000000Y-104300000D01*
X112650000Y-107150000D02*
X112650000Y-108150000D01*
X114350000Y-108150000D02*
X114350000Y-107150000D01*
X114600000Y-107800000D02*
X114600000Y-107100000D01*
X115800000Y-107100000D02*
X115800000Y-107800000D01*
X123500000Y-109000000D02*
X123500000Y-109700000D01*
X122300000Y-109700000D02*
X122300000Y-109000000D01*
X114350000Y-112850000D02*
X114350000Y-111850000D01*
X112650000Y-111850000D02*
X112650000Y-112850000D01*
X115800000Y-110950000D02*
X115800000Y-111650000D01*
X114600000Y-111650000D02*
X114600000Y-110950000D01*
X125750000Y-109900000D02*
X125750000Y-108900000D01*
X124050000Y-108900000D02*
X124050000Y-109900000D01*
X131200000Y-121000000D02*
X131200000Y-121700000D01*
X130000000Y-121700000D02*
X130000000Y-121000000D01*
X124050000Y-104050000D02*
X124050000Y-105050000D01*
X125750000Y-105050000D02*
X125750000Y-104050000D01*
X117500000Y-102450000D02*
X116500000Y-102450000D01*
X116500000Y-104150000D02*
X117500000Y-104150000D01*
X116750000Y-104300000D02*
X117450000Y-104300000D01*
X117450000Y-105500000D02*
X116750000Y-105500000D01*
X109400000Y-117550000D02*
X110400000Y-117550000D01*
X110400000Y-115850000D02*
X109400000Y-115850000D01*
X110200000Y-119200000D02*
X109500000Y-119200000D01*
X109500000Y-118000000D02*
X110200000Y-118000000D01*
X119700000Y-112750000D02*
X118700000Y-112750000D01*
X118700000Y-114450000D02*
X119700000Y-114450000D01*
X119000000Y-111100000D02*
X119700000Y-111100000D01*
X119700000Y-112300000D02*
X119000000Y-112300000D01*
X126350000Y-115350000D02*
X126350000Y-116350000D01*
X128050000Y-116350000D02*
X128050000Y-115350000D01*
X124700000Y-116650000D02*
X124700000Y-115950000D01*
X125900000Y-115950000D02*
X125900000Y-116650000D01*
D12*
X131200000Y-127600000D02*
X130800000Y-127600000D01*
X131000000Y-127550000D02*
X131200000Y-127300000D01*
X130800000Y-127300000D02*
X131000000Y-127550000D01*
X131200000Y-127300000D02*
X130800000Y-127300000D01*
X130600000Y-127000000D02*
X130700000Y-127000000D01*
X130600000Y-127900000D02*
X130600000Y-127000000D01*
X130700000Y-127900000D02*
X130600000Y-127900000D01*
X131400000Y-127900000D02*
X131300000Y-127900000D01*
X131400000Y-127000000D02*
X131400000Y-127900000D01*
X131300000Y-127000000D02*
X131400000Y-127000000D01*
D11*
X114648077Y-138125363D02*
X114648077Y-139825363D01*
X114648077Y-139825363D02*
X117798077Y-139825363D01*
X114648077Y-138125363D02*
X117798077Y-138125363D01*
X114648077Y-140525363D02*
X114648077Y-142225363D01*
X114648077Y-142225363D02*
X117798077Y-142225363D01*
X114648077Y-140525363D02*
X117798077Y-140525363D01*
X108720000Y-157330000D02*
X111380000Y-157330000D01*
X108720000Y-154730000D02*
X108720000Y-157330000D01*
X111380000Y-154730000D02*
X111380000Y-157330000D01*
X108720000Y-154730000D02*
X111380000Y-154730000D01*
X108720000Y-153460000D02*
X108720000Y-152130000D01*
X108720000Y-152130000D02*
X110050000Y-152130000D01*
X130323900Y-149380900D02*
X127663900Y-149380900D01*
X130323900Y-154520900D02*
X130323900Y-149380900D01*
X127663900Y-154520900D02*
X127663900Y-149380900D01*
X130323900Y-154520900D02*
X127663900Y-154520900D01*
X130323900Y-155790900D02*
X130323900Y-157120900D01*
X130323900Y-157120900D02*
X128993900Y-157120900D01*
X126720000Y-111370000D02*
X129380000Y-111370000D01*
X126720000Y-106230000D02*
X126720000Y-111370000D01*
X129380000Y-106230000D02*
X129380000Y-111370000D01*
X126720000Y-106230000D02*
X129380000Y-106230000D01*
X126720000Y-104960000D02*
X126720000Y-103630000D01*
X126720000Y-103630000D02*
X128050000Y-103630000D01*
X102370000Y-163730000D02*
X105030000Y-163730000D01*
X102370000Y-161130000D02*
X102370000Y-163730000D01*
X105030000Y-161130000D02*
X105030000Y-163730000D01*
X102370000Y-161130000D02*
X105030000Y-161130000D01*
X102370000Y-159860000D02*
X102370000Y-158530000D01*
X102370000Y-158530000D02*
X103700000Y-158530000D01*
X125314400Y-134743500D02*
X127974400Y-134743500D01*
X125314400Y-129603500D02*
X125314400Y-134743500D01*
X127974400Y-129603500D02*
X127974400Y-134743500D01*
X125314400Y-129603500D02*
X127974400Y-129603500D01*
X125314400Y-128333500D02*
X125314400Y-127003500D01*
X125314400Y-127003500D02*
X126644400Y-127003500D01*
X142630000Y-147060000D02*
X147830000Y-147060000D01*
X142630000Y-141920000D02*
X142630000Y-147060000D01*
X147830000Y-139320000D02*
X147830000Y-147060000D01*
X142630000Y-141920000D02*
X145230000Y-141920000D01*
X145230000Y-141920000D02*
X145230000Y-139320000D01*
X145230000Y-139320000D02*
X147830000Y-139320000D01*
X142630000Y-140650000D02*
X142630000Y-139320000D01*
X142630000Y-139320000D02*
X143960000Y-139320000D01*
X105130000Y-145670000D02*
X102470000Y-145670000D01*
X105130000Y-148270000D02*
X105130000Y-145670000D01*
X102470000Y-148270000D02*
X102470000Y-145670000D01*
X105130000Y-148270000D02*
X102470000Y-148270000D01*
X105130000Y-149540000D02*
X105130000Y-150870000D01*
X105130000Y-150870000D02*
X103800000Y-150870000D01*
X134180000Y-120800000D02*
X134180000Y-121800000D01*
X132820000Y-121800000D02*
X132820000Y-120800000D01*
X136270000Y-142300000D02*
X136270000Y-141300000D01*
X137630000Y-141300000D02*
X137630000Y-142300000D01*
X110920000Y-110700000D02*
X110920000Y-109700000D01*
X112280000Y-109700000D02*
X112280000Y-110700000D01*
X132530000Y-121600000D02*
X132530000Y-121100000D01*
X131470000Y-121100000D02*
X131470000Y-121600000D01*
X114718077Y-145375363D02*
X114718077Y-144375363D01*
X116078077Y-144375363D02*
X116078077Y-145375363D01*
X115798077Y-147845363D02*
X115298077Y-147845363D01*
X115298077Y-148905363D02*
X115798077Y-148905363D01*
X117898077Y-147845363D02*
X117398077Y-147845363D01*
X117398077Y-148905363D02*
X117898077Y-148905363D01*
X116918077Y-145375363D02*
X116918077Y-144375363D01*
X118278077Y-144375363D02*
X118278077Y-145375363D01*
X112998077Y-141405363D02*
X113498077Y-141405363D01*
X113498077Y-140345363D02*
X112998077Y-140345363D01*
X111098077Y-141405363D02*
X111598077Y-141405363D01*
X111598077Y-140345363D02*
X111098077Y-140345363D01*
X111148077Y-148445363D02*
X110648077Y-148445363D01*
X110648077Y-149505363D02*
X111148077Y-149505363D01*
X112498077Y-149505363D02*
X112998077Y-149505363D01*
X112998077Y-148445363D02*
X112498077Y-148445363D01*
X122550000Y-114790000D02*
X120750000Y-114790000D01*
X120750000Y-118010000D02*
X123200000Y-118010000D01*
D12*
X113578355Y-142975363D02*
G75*
G03X113578355Y-142975363I-180278J0D01*
G01*
X113048077Y-143475363D02*
X112898077Y-142775363D01*
X109898077Y-142775363D02*
X109748077Y-142775363D01*
X109748077Y-142775363D02*
X109748077Y-143475363D01*
X109748077Y-146475363D02*
X109748077Y-147175363D01*
X109748077Y-147175363D02*
X109898077Y-147175363D01*
X112898077Y-147175363D02*
X113048077Y-147175363D01*
X113048077Y-147175363D02*
X113048077Y-146475363D01*
D11*
X104920000Y-113530000D02*
X107580000Y-113530000D01*
X104920000Y-105850000D02*
X104920000Y-113530000D01*
X107580000Y-105850000D02*
X107580000Y-113530000D01*
X104920000Y-105850000D02*
X107580000Y-105850000D01*
X104920000Y-104580000D02*
X104920000Y-103250000D01*
X104920000Y-103250000D02*
X106250000Y-103250000D01*
X103900000Y-120600000D02*
X104600000Y-120600000D01*
X104600000Y-121800000D02*
X103900000Y-121800000D01*
X104750000Y-121950000D02*
X103750000Y-121950000D01*
X103750000Y-123650000D02*
X104750000Y-123650000D01*
X105910000Y-118900000D02*
X105910000Y-117100000D01*
X102690000Y-117100000D02*
X102690000Y-119550000D01*
D12*
X108764286Y-150582381D02*
X108764286Y-151296667D01*
X108716666Y-151439524D01*
X108621428Y-151534762D01*
X108478571Y-151582381D01*
X108383333Y-151582381D01*
X109764286Y-151582381D02*
X109192857Y-151582381D01*
X109478571Y-151582381D02*
X109478571Y-150582381D01*
X109383333Y-150725238D01*
X109288095Y-150820476D01*
X109192857Y-150868095D01*
X110383333Y-150582381D02*
X110478572Y-150582381D01*
X110573810Y-150630000D01*
X110621429Y-150677619D01*
X110669048Y-150772857D01*
X110716667Y-150963333D01*
X110716667Y-151201429D01*
X110669048Y-151391905D01*
X110621429Y-151487143D01*
X110573810Y-151534762D01*
X110478572Y-151582381D01*
X110383333Y-151582381D01*
X110288095Y-151534762D01*
X110240476Y-151487143D01*
X110192857Y-151391905D01*
X110145238Y-151201429D01*
X110145238Y-150963333D01*
X110192857Y-150772857D01*
X110240476Y-150677619D01*
X110288095Y-150630000D01*
X110383333Y-150582381D01*
X111669048Y-151582381D02*
X111097619Y-151582381D01*
X111383333Y-151582381D02*
X111383333Y-150582381D01*
X111288095Y-150725238D01*
X111192857Y-150820476D01*
X111097619Y-150868095D01*
X134637143Y-142919047D02*
X134684762Y-142966666D01*
X134732381Y-143109523D01*
X134732381Y-143204761D01*
X134684762Y-143347619D01*
X134589524Y-143442857D01*
X134494286Y-143490476D01*
X134303810Y-143538095D01*
X134160952Y-143538095D01*
X133970476Y-143490476D01*
X133875238Y-143442857D01*
X133780000Y-143347619D01*
X133732381Y-143204761D01*
X133732381Y-143109523D01*
X133780000Y-142966666D01*
X133827619Y-142919047D01*
X133827619Y-142538095D02*
X133780000Y-142490476D01*
X133732381Y-142395238D01*
X133732381Y-142157142D01*
X133780000Y-142061904D01*
X133827619Y-142014285D01*
X133922857Y-141966666D01*
X134018095Y-141966666D01*
X134160952Y-142014285D01*
X134732381Y-142585714D01*
X134732381Y-141966666D01*
X133732381Y-141347619D02*
X133732381Y-141252380D01*
X133780000Y-141157142D01*
X133827619Y-141109523D01*
X133922857Y-141061904D01*
X134113333Y-141014285D01*
X134351429Y-141014285D01*
X134541905Y-141061904D01*
X134637143Y-141109523D01*
X134684762Y-141157142D01*
X134732381Y-141252380D01*
X134732381Y-141347619D01*
X134684762Y-141442857D01*
X134637143Y-141490476D01*
X134541905Y-141538095D01*
X134351429Y-141585714D01*
X134113333Y-141585714D01*
X133922857Y-141538095D01*
X133827619Y-141490476D01*
X133780000Y-141442857D01*
X133732381Y-141347619D01*
X133732381Y-140680952D02*
X133732381Y-140061904D01*
X134113333Y-140395238D01*
X134113333Y-140252380D01*
X134160952Y-140157142D01*
X134208571Y-140109523D01*
X134303810Y-140061904D01*
X134541905Y-140061904D01*
X134637143Y-140109523D01*
X134684762Y-140157142D01*
X134732381Y-140252380D01*
X134732381Y-140538095D01*
X134684762Y-140633333D01*
X134637143Y-140680952D01*
X133232953Y-136362904D02*
X133165610Y-136362904D01*
X133030923Y-136295560D01*
X132963579Y-136228217D01*
X132896235Y-136093529D01*
X132896235Y-135958842D01*
X132929907Y-135857827D01*
X133030922Y-135689468D01*
X133131938Y-135588453D01*
X133300296Y-135487437D01*
X133401312Y-135453766D01*
X133535999Y-135453766D01*
X133670686Y-135521110D01*
X133738030Y-135588453D01*
X133805373Y-135723140D01*
X133805373Y-135790484D01*
X134074747Y-136059857D02*
X134142090Y-136059857D01*
X134243105Y-136093529D01*
X134411465Y-136261888D01*
X134445136Y-136362904D01*
X134445136Y-136430247D01*
X134411465Y-136531262D01*
X134344121Y-136598606D01*
X134209434Y-136665949D01*
X133401312Y-136665949D01*
X133839045Y-137103682D01*
X134983884Y-136834308D02*
X135051228Y-136901652D01*
X135084900Y-137002667D01*
X135084900Y-137070010D01*
X135051228Y-137171025D01*
X134950213Y-137339384D01*
X134781853Y-137507743D01*
X134613495Y-137608758D01*
X134512480Y-137642430D01*
X134445136Y-137642430D01*
X134344121Y-137608758D01*
X134276777Y-137541414D01*
X134243105Y-137440399D01*
X134243105Y-137373056D01*
X134276777Y-137272041D01*
X134377792Y-137103682D01*
X134546151Y-136935323D01*
X134714510Y-136834308D01*
X134815525Y-136800636D01*
X134882869Y-136800636D01*
X134983884Y-136834308D01*
X135859350Y-137709774D02*
X135522632Y-137373056D01*
X135152243Y-137676101D01*
X135219587Y-137676101D01*
X135320602Y-137709773D01*
X135488961Y-137878132D01*
X135522633Y-137979147D01*
X135522633Y-138046491D01*
X135488960Y-138147507D01*
X135320602Y-138315865D01*
X135219587Y-138349537D01*
X135152243Y-138349537D01*
X135051228Y-138315865D01*
X134882869Y-138147506D01*
X134849197Y-138046491D01*
X134849197Y-137979147D01*
X134944044Y-134666887D02*
X134876701Y-134666887D01*
X134742014Y-134599543D01*
X134674670Y-134532200D01*
X134607326Y-134397512D01*
X134607326Y-134262825D01*
X134640998Y-134161810D01*
X134742013Y-133993451D01*
X134843029Y-133892436D01*
X135011387Y-133791420D01*
X135112403Y-133757749D01*
X135247090Y-133757749D01*
X135381777Y-133825093D01*
X135449121Y-133892436D01*
X135516464Y-134027123D01*
X135516464Y-134094467D01*
X135785838Y-134363840D02*
X135853181Y-134363840D01*
X135954196Y-134397512D01*
X136122556Y-134565871D01*
X136156227Y-134666887D01*
X136156227Y-134734230D01*
X136122556Y-134835245D01*
X136055212Y-134902589D01*
X135920525Y-134969932D01*
X135112403Y-134969932D01*
X135550136Y-135407665D01*
X136694975Y-135138291D02*
X136762319Y-135205635D01*
X136795991Y-135306650D01*
X136795991Y-135373993D01*
X136762319Y-135475008D01*
X136661304Y-135643367D01*
X136492944Y-135811726D01*
X136324586Y-135912741D01*
X136223571Y-135946413D01*
X136156227Y-135946413D01*
X136055212Y-135912741D01*
X135987868Y-135845397D01*
X135954196Y-135744382D01*
X135954196Y-135677039D01*
X135987868Y-135576024D01*
X136088883Y-135407665D01*
X136257242Y-135239306D01*
X136425601Y-135138291D01*
X136526616Y-135104619D01*
X136593960Y-135104619D01*
X136694975Y-135138291D01*
X137536769Y-135980085D02*
X137402082Y-135845397D01*
X137301066Y-135811726D01*
X137233723Y-135811726D01*
X137065364Y-135845397D01*
X136897006Y-135946412D01*
X136627631Y-136215787D01*
X136593960Y-136316802D01*
X136593960Y-136384146D01*
X136627631Y-136485161D01*
X136762319Y-136619848D01*
X136863334Y-136653520D01*
X136930678Y-136653520D01*
X137031693Y-136619848D01*
X137200051Y-136451490D01*
X137233724Y-136350474D01*
X137233724Y-136283130D01*
X137200052Y-136182115D01*
X137065364Y-136047428D01*
X136964349Y-136013756D01*
X136897006Y-136013756D01*
X136795990Y-136047428D01*
X138943613Y-126473816D02*
X138876270Y-126473816D01*
X138741583Y-126406472D01*
X138674239Y-126339129D01*
X138606895Y-126204441D01*
X138606895Y-126069754D01*
X138640567Y-125968739D01*
X138741582Y-125800380D01*
X138842598Y-125699365D01*
X139010956Y-125598349D01*
X139111972Y-125564678D01*
X139246659Y-125564678D01*
X139381346Y-125632022D01*
X139448690Y-125699365D01*
X139516033Y-125834052D01*
X139516033Y-125901396D01*
X139785407Y-126170769D02*
X139852750Y-126170769D01*
X139953765Y-126204441D01*
X140122125Y-126372800D01*
X140155796Y-126473816D01*
X140155796Y-126541159D01*
X140122125Y-126642174D01*
X140054781Y-126709518D01*
X139920094Y-126776861D01*
X139111972Y-126776861D01*
X139549705Y-127214594D01*
X140694544Y-126945220D02*
X140761888Y-127012564D01*
X140795560Y-127113579D01*
X140795560Y-127180922D01*
X140761888Y-127281937D01*
X140660873Y-127450296D01*
X140492513Y-127618655D01*
X140324155Y-127719670D01*
X140223140Y-127753342D01*
X140155796Y-127753342D01*
X140054781Y-127719670D01*
X139987437Y-127652326D01*
X139953765Y-127551311D01*
X139953765Y-127483968D01*
X139987437Y-127382953D01*
X140088452Y-127214594D01*
X140256811Y-127046235D01*
X140425170Y-126945220D01*
X140526185Y-126911548D01*
X140593529Y-126911548D01*
X140694544Y-126945220D01*
X141165949Y-127416624D02*
X141637353Y-127888029D01*
X140627200Y-128292090D01*
X136390059Y-127427370D02*
X136322716Y-127427370D01*
X136188029Y-127360026D01*
X136120685Y-127292683D01*
X136053341Y-127157995D01*
X136053341Y-127023308D01*
X136087013Y-126922293D01*
X136188028Y-126753934D01*
X136289044Y-126652919D01*
X136457402Y-126551903D01*
X136558418Y-126518232D01*
X136693105Y-126518232D01*
X136827792Y-126585576D01*
X136895136Y-126652919D01*
X136962479Y-126787606D01*
X136962479Y-126854950D01*
X137231853Y-127124323D02*
X137299196Y-127124323D01*
X137400211Y-127157995D01*
X137568571Y-127326354D01*
X137602242Y-127427370D01*
X137602242Y-127494713D01*
X137568571Y-127595728D01*
X137501227Y-127663072D01*
X137366540Y-127730415D01*
X136558418Y-127730415D01*
X136996151Y-128168148D01*
X138140990Y-127898774D02*
X138208334Y-127966118D01*
X138242006Y-128067133D01*
X138242006Y-128134476D01*
X138208334Y-128235491D01*
X138107319Y-128403850D01*
X137938959Y-128572209D01*
X137770601Y-128673224D01*
X137669586Y-128706896D01*
X137602242Y-128706896D01*
X137501227Y-128673224D01*
X137433883Y-128605880D01*
X137400211Y-128504865D01*
X137400211Y-128437522D01*
X137433883Y-128336507D01*
X137534898Y-128168148D01*
X137703257Y-127999789D01*
X137871616Y-127898774D01*
X137972631Y-127865102D01*
X138039975Y-127865102D01*
X138140990Y-127898774D01*
X138477708Y-128841582D02*
X138444036Y-128740567D01*
X138444036Y-128673224D01*
X138477708Y-128572209D01*
X138511379Y-128538537D01*
X138612395Y-128504865D01*
X138679738Y-128504865D01*
X138780753Y-128538537D01*
X138915441Y-128673224D01*
X138949112Y-128774240D01*
X138949112Y-128841583D01*
X138915441Y-128942598D01*
X138881769Y-128976270D01*
X138780754Y-129009942D01*
X138713410Y-129009942D01*
X138612395Y-128976270D01*
X138477708Y-128841582D01*
X138376693Y-128807911D01*
X138309349Y-128807911D01*
X138208333Y-128841583D01*
X138073646Y-128976270D01*
X138039975Y-129077285D01*
X138039975Y-129144629D01*
X138073646Y-129245644D01*
X138208334Y-129380331D01*
X138309349Y-129414003D01*
X138376693Y-129414003D01*
X138477708Y-129380331D01*
X138612395Y-129245644D01*
X138646067Y-129144629D01*
X138646067Y-129077285D01*
X138612395Y-128976270D01*
X138068739Y-127348690D02*
X138001396Y-127348690D01*
X137866709Y-127281346D01*
X137799365Y-127214003D01*
X137732021Y-127079315D01*
X137732021Y-126944628D01*
X137765693Y-126843613D01*
X137866708Y-126675254D01*
X137967724Y-126574239D01*
X138136082Y-126473223D01*
X138237098Y-126439552D01*
X138371785Y-126439552D01*
X138506472Y-126506896D01*
X138573816Y-126574239D01*
X138641159Y-126708926D01*
X138641159Y-126776270D01*
X138910533Y-127045643D02*
X138977876Y-127045643D01*
X139078891Y-127079315D01*
X139247251Y-127247674D01*
X139280922Y-127348690D01*
X139280922Y-127416033D01*
X139247251Y-127517048D01*
X139179907Y-127584392D01*
X139045220Y-127651735D01*
X138237098Y-127651735D01*
X138674831Y-128089468D01*
X139819670Y-127820094D02*
X139887014Y-127887438D01*
X139920686Y-127988453D01*
X139920686Y-128055796D01*
X139887014Y-128156811D01*
X139785999Y-128325170D01*
X139617639Y-128493529D01*
X139449281Y-128594544D01*
X139348266Y-128628216D01*
X139280922Y-128628216D01*
X139179907Y-128594544D01*
X139112563Y-128527200D01*
X139078891Y-128426185D01*
X139078891Y-128358842D01*
X139112563Y-128257827D01*
X139213578Y-128089468D01*
X139381937Y-127921109D01*
X139550296Y-127820094D01*
X139651311Y-127786422D01*
X139718655Y-127786422D01*
X139819670Y-127820094D01*
X139684983Y-129099620D02*
X139819670Y-129234307D01*
X139920686Y-129267980D01*
X139988029Y-129267980D01*
X140156388Y-129234308D01*
X140324746Y-129133293D01*
X140594121Y-128863918D01*
X140627792Y-128762903D01*
X140627792Y-128695560D01*
X140594121Y-128594544D01*
X140459433Y-128459857D01*
X140358418Y-128426185D01*
X140291075Y-128426185D01*
X140190059Y-128459857D01*
X140021701Y-128628215D01*
X139988029Y-128729231D01*
X139988028Y-128796575D01*
X140021700Y-128897590D01*
X140156388Y-129032278D01*
X140257403Y-129065949D01*
X140324747Y-129065949D01*
X140425762Y-129032277D01*
X139772293Y-125745136D02*
X139704950Y-125745136D01*
X139570263Y-125677792D01*
X139502919Y-125610449D01*
X139435575Y-125475761D01*
X139435575Y-125341074D01*
X139469247Y-125240059D01*
X139570262Y-125071700D01*
X139671278Y-124970685D01*
X139839636Y-124869669D01*
X139940652Y-124835998D01*
X140075339Y-124835998D01*
X140210026Y-124903342D01*
X140277370Y-124970685D01*
X140344713Y-125105372D01*
X140344713Y-125172716D01*
X140614087Y-125442089D02*
X140681430Y-125442089D01*
X140782445Y-125475761D01*
X140950805Y-125644120D01*
X140984476Y-125745136D01*
X140984476Y-125812479D01*
X140950805Y-125913494D01*
X140883461Y-125980838D01*
X140748774Y-126048181D01*
X139940652Y-126048181D01*
X140378385Y-126485914D01*
X141051820Y-127159349D02*
X140647758Y-126755288D01*
X140849789Y-126957318D02*
X141556895Y-126250211D01*
X141388537Y-126283883D01*
X141253850Y-126283883D01*
X141152835Y-126250211D01*
X142196659Y-126889975D02*
X142264003Y-126957319D01*
X142297675Y-127058334D01*
X142297675Y-127125677D01*
X142264003Y-127226693D01*
X142162988Y-127395051D01*
X141994629Y-127563410D01*
X141826270Y-127664426D01*
X141725255Y-127698097D01*
X141657911Y-127698097D01*
X141556896Y-127664426D01*
X141489552Y-127597081D01*
X141455880Y-127496066D01*
X141455880Y-127428723D01*
X141489552Y-127327708D01*
X141590567Y-127159349D01*
X141758927Y-126990990D01*
X141927285Y-126889975D01*
X142028300Y-126856303D01*
X142095644Y-126856303D01*
X142196659Y-126889975D01*
X120530953Y-105407143D02*
X120483334Y-105454762D01*
X120340477Y-105502381D01*
X120245239Y-105502381D01*
X120102381Y-105454762D01*
X120007143Y-105359524D01*
X119959524Y-105264286D01*
X119911905Y-105073810D01*
X119911905Y-104930952D01*
X119959524Y-104740476D01*
X120007143Y-104645238D01*
X120102381Y-104550000D01*
X120245239Y-104502381D01*
X120340477Y-104502381D01*
X120483334Y-104550000D01*
X120530953Y-104597619D01*
X120864286Y-104502381D02*
X121483334Y-104502381D01*
X121150000Y-104883333D01*
X121292858Y-104883333D01*
X121388096Y-104930952D01*
X121435715Y-104978571D01*
X121483334Y-105073810D01*
X121483334Y-105311905D01*
X121435715Y-105407143D01*
X121388096Y-105454762D01*
X121292858Y-105502381D01*
X121007143Y-105502381D01*
X120911905Y-105454762D01*
X120864286Y-105407143D01*
X122102381Y-104502381D02*
X122197620Y-104502381D01*
X122292858Y-104550000D01*
X122340477Y-104597619D01*
X122388096Y-104692857D01*
X122435715Y-104883333D01*
X122435715Y-105121429D01*
X122388096Y-105311905D01*
X122340477Y-105407143D01*
X122292858Y-105454762D01*
X122197620Y-105502381D01*
X122102381Y-105502381D01*
X122007143Y-105454762D01*
X121959524Y-105407143D01*
X121911905Y-105311905D01*
X121864286Y-105121429D01*
X121864286Y-104883333D01*
X121911905Y-104692857D01*
X121959524Y-104597619D01*
X122007143Y-104550000D01*
X122102381Y-104502381D01*
X123388096Y-105502381D02*
X122816667Y-105502381D01*
X123102381Y-105502381D02*
X123102381Y-104502381D01*
X123007143Y-104645238D01*
X122911905Y-104740476D01*
X122816667Y-104788095D01*
X120530953Y-106507143D02*
X120483334Y-106554762D01*
X120340477Y-106602381D01*
X120245239Y-106602381D01*
X120102381Y-106554762D01*
X120007143Y-106459524D01*
X119959524Y-106364286D01*
X119911905Y-106173810D01*
X119911905Y-106030952D01*
X119959524Y-105840476D01*
X120007143Y-105745238D01*
X120102381Y-105650000D01*
X120245239Y-105602381D01*
X120340477Y-105602381D01*
X120483334Y-105650000D01*
X120530953Y-105697619D01*
X120864286Y-105602381D02*
X121483334Y-105602381D01*
X121150000Y-105983333D01*
X121292858Y-105983333D01*
X121388096Y-106030952D01*
X121435715Y-106078571D01*
X121483334Y-106173810D01*
X121483334Y-106411905D01*
X121435715Y-106507143D01*
X121388096Y-106554762D01*
X121292858Y-106602381D01*
X121007143Y-106602381D01*
X120911905Y-106554762D01*
X120864286Y-106507143D01*
X122102381Y-105602381D02*
X122197620Y-105602381D01*
X122292858Y-105650000D01*
X122340477Y-105697619D01*
X122388096Y-105792857D01*
X122435715Y-105983333D01*
X122435715Y-106221429D01*
X122388096Y-106411905D01*
X122340477Y-106507143D01*
X122292858Y-106554762D01*
X122197620Y-106602381D01*
X122102381Y-106602381D01*
X122007143Y-106554762D01*
X121959524Y-106507143D01*
X121911905Y-106411905D01*
X121864286Y-106221429D01*
X121864286Y-105983333D01*
X121911905Y-105792857D01*
X121959524Y-105697619D01*
X122007143Y-105650000D01*
X122102381Y-105602381D01*
X122816667Y-105697619D02*
X122864286Y-105650000D01*
X122959524Y-105602381D01*
X123197620Y-105602381D01*
X123292858Y-105650000D01*
X123340477Y-105697619D01*
X123388096Y-105792857D01*
X123388096Y-105888095D01*
X123340477Y-106030952D01*
X122769048Y-106602381D01*
X123388096Y-106602381D01*
X112107143Y-108769047D02*
X112154762Y-108816666D01*
X112202381Y-108959523D01*
X112202381Y-109054761D01*
X112154762Y-109197619D01*
X112059524Y-109292857D01*
X111964286Y-109340476D01*
X111773810Y-109388095D01*
X111630952Y-109388095D01*
X111440476Y-109340476D01*
X111345238Y-109292857D01*
X111250000Y-109197619D01*
X111202381Y-109054761D01*
X111202381Y-108959523D01*
X111250000Y-108816666D01*
X111297619Y-108769047D01*
X111202381Y-108435714D02*
X111202381Y-107816666D01*
X111583333Y-108150000D01*
X111583333Y-108007142D01*
X111630952Y-107911904D01*
X111678571Y-107864285D01*
X111773810Y-107816666D01*
X112011905Y-107816666D01*
X112107143Y-107864285D01*
X112154762Y-107911904D01*
X112202381Y-108007142D01*
X112202381Y-108292857D01*
X112154762Y-108388095D01*
X112107143Y-108435714D01*
X111202381Y-107197619D02*
X111202381Y-107102380D01*
X111250000Y-107007142D01*
X111297619Y-106959523D01*
X111392857Y-106911904D01*
X111583333Y-106864285D01*
X111821429Y-106864285D01*
X112011905Y-106911904D01*
X112107143Y-106959523D01*
X112154762Y-107007142D01*
X112202381Y-107102380D01*
X112202381Y-107197619D01*
X112154762Y-107292857D01*
X112107143Y-107340476D01*
X112011905Y-107388095D01*
X111821429Y-107435714D01*
X111583333Y-107435714D01*
X111392857Y-107388095D01*
X111297619Y-107340476D01*
X111250000Y-107292857D01*
X111202381Y-107197619D01*
X111535714Y-106007142D02*
X112202381Y-106007142D01*
X111154762Y-106245238D02*
X111869048Y-106483333D01*
X111869048Y-105864285D01*
X114307143Y-108569047D02*
X114354762Y-108616666D01*
X114402381Y-108759523D01*
X114402381Y-108854761D01*
X114354762Y-108997619D01*
X114259524Y-109092857D01*
X114164286Y-109140476D01*
X113973810Y-109188095D01*
X113830952Y-109188095D01*
X113640476Y-109140476D01*
X113545238Y-109092857D01*
X113450000Y-108997619D01*
X113402381Y-108854761D01*
X113402381Y-108759523D01*
X113450000Y-108616666D01*
X113497619Y-108569047D01*
X113402381Y-108235714D02*
X113402381Y-107616666D01*
X113783333Y-107950000D01*
X113783333Y-107807142D01*
X113830952Y-107711904D01*
X113878571Y-107664285D01*
X113973810Y-107616666D01*
X114211905Y-107616666D01*
X114307143Y-107664285D01*
X114354762Y-107711904D01*
X114402381Y-107807142D01*
X114402381Y-108092857D01*
X114354762Y-108188095D01*
X114307143Y-108235714D01*
X113402381Y-106997619D02*
X113402381Y-106902380D01*
X113450000Y-106807142D01*
X113497619Y-106759523D01*
X113592857Y-106711904D01*
X113783333Y-106664285D01*
X114021429Y-106664285D01*
X114211905Y-106711904D01*
X114307143Y-106759523D01*
X114354762Y-106807142D01*
X114402381Y-106902380D01*
X114402381Y-106997619D01*
X114354762Y-107092857D01*
X114307143Y-107140476D01*
X114211905Y-107188095D01*
X114021429Y-107235714D01*
X113783333Y-107235714D01*
X113592857Y-107188095D01*
X113497619Y-107140476D01*
X113450000Y-107092857D01*
X113402381Y-106997619D01*
X113402381Y-105759523D02*
X113402381Y-106235714D01*
X113878571Y-106283333D01*
X113830952Y-106235714D01*
X113783333Y-106140476D01*
X113783333Y-105902380D01*
X113830952Y-105807142D01*
X113878571Y-105759523D01*
X113973810Y-105711904D01*
X114211905Y-105711904D01*
X114307143Y-105759523D01*
X114354762Y-105807142D01*
X114402381Y-105902380D01*
X114402381Y-106140476D01*
X114354762Y-106235714D01*
X114307143Y-106283333D01*
X124507143Y-110469047D02*
X124554762Y-110516666D01*
X124602381Y-110659523D01*
X124602381Y-110754761D01*
X124554762Y-110897619D01*
X124459524Y-110992857D01*
X124364286Y-111040476D01*
X124173810Y-111088095D01*
X124030952Y-111088095D01*
X123840476Y-111040476D01*
X123745238Y-110992857D01*
X123650000Y-110897619D01*
X123602381Y-110754761D01*
X123602381Y-110659523D01*
X123650000Y-110516666D01*
X123697619Y-110469047D01*
X123602381Y-110135714D02*
X123602381Y-109516666D01*
X123983333Y-109850000D01*
X123983333Y-109707142D01*
X124030952Y-109611904D01*
X124078571Y-109564285D01*
X124173810Y-109516666D01*
X124411905Y-109516666D01*
X124507143Y-109564285D01*
X124554762Y-109611904D01*
X124602381Y-109707142D01*
X124602381Y-109992857D01*
X124554762Y-110088095D01*
X124507143Y-110135714D01*
X123602381Y-108897619D02*
X123602381Y-108802380D01*
X123650000Y-108707142D01*
X123697619Y-108659523D01*
X123792857Y-108611904D01*
X123983333Y-108564285D01*
X124221429Y-108564285D01*
X124411905Y-108611904D01*
X124507143Y-108659523D01*
X124554762Y-108707142D01*
X124602381Y-108802380D01*
X124602381Y-108897619D01*
X124554762Y-108992857D01*
X124507143Y-109040476D01*
X124411905Y-109088095D01*
X124221429Y-109135714D01*
X123983333Y-109135714D01*
X123792857Y-109088095D01*
X123697619Y-109040476D01*
X123650000Y-108992857D01*
X123602381Y-108897619D01*
X123602381Y-107707142D02*
X123602381Y-107897619D01*
X123650000Y-107992857D01*
X123697619Y-108040476D01*
X123840476Y-108135714D01*
X124030952Y-108183333D01*
X124411905Y-108183333D01*
X124507143Y-108135714D01*
X124554762Y-108088095D01*
X124602381Y-107992857D01*
X124602381Y-107802380D01*
X124554762Y-107707142D01*
X124507143Y-107659523D01*
X124411905Y-107611904D01*
X124173810Y-107611904D01*
X124078571Y-107659523D01*
X124030952Y-107707142D01*
X123983333Y-107802380D01*
X123983333Y-107992857D01*
X124030952Y-108088095D01*
X124078571Y-108135714D01*
X124173810Y-108183333D01*
X115607143Y-113469047D02*
X115654762Y-113516666D01*
X115702381Y-113659523D01*
X115702381Y-113754761D01*
X115654762Y-113897619D01*
X115559524Y-113992857D01*
X115464286Y-114040476D01*
X115273810Y-114088095D01*
X115130952Y-114088095D01*
X114940476Y-114040476D01*
X114845238Y-113992857D01*
X114750000Y-113897619D01*
X114702381Y-113754761D01*
X114702381Y-113659523D01*
X114750000Y-113516666D01*
X114797619Y-113469047D01*
X114702381Y-113135714D02*
X114702381Y-112516666D01*
X115083333Y-112850000D01*
X115083333Y-112707142D01*
X115130952Y-112611904D01*
X115178571Y-112564285D01*
X115273810Y-112516666D01*
X115511905Y-112516666D01*
X115607143Y-112564285D01*
X115654762Y-112611904D01*
X115702381Y-112707142D01*
X115702381Y-112992857D01*
X115654762Y-113088095D01*
X115607143Y-113135714D01*
X114702381Y-111897619D02*
X114702381Y-111802380D01*
X114750000Y-111707142D01*
X114797619Y-111659523D01*
X114892857Y-111611904D01*
X115083333Y-111564285D01*
X115321429Y-111564285D01*
X115511905Y-111611904D01*
X115607143Y-111659523D01*
X115654762Y-111707142D01*
X115702381Y-111802380D01*
X115702381Y-111897619D01*
X115654762Y-111992857D01*
X115607143Y-112040476D01*
X115511905Y-112088095D01*
X115321429Y-112135714D01*
X115083333Y-112135714D01*
X114892857Y-112088095D01*
X114797619Y-112040476D01*
X114750000Y-111992857D01*
X114702381Y-111897619D01*
X114702381Y-111230952D02*
X114702381Y-110564285D01*
X115702381Y-110992857D01*
X116807143Y-112419047D02*
X116854762Y-112466666D01*
X116902381Y-112609523D01*
X116902381Y-112704761D01*
X116854762Y-112847619D01*
X116759524Y-112942857D01*
X116664286Y-112990476D01*
X116473810Y-113038095D01*
X116330952Y-113038095D01*
X116140476Y-112990476D01*
X116045238Y-112942857D01*
X115950000Y-112847619D01*
X115902381Y-112704761D01*
X115902381Y-112609523D01*
X115950000Y-112466666D01*
X115997619Y-112419047D01*
X115902381Y-112085714D02*
X115902381Y-111466666D01*
X116283333Y-111800000D01*
X116283333Y-111657142D01*
X116330952Y-111561904D01*
X116378571Y-111514285D01*
X116473810Y-111466666D01*
X116711905Y-111466666D01*
X116807143Y-111514285D01*
X116854762Y-111561904D01*
X116902381Y-111657142D01*
X116902381Y-111942857D01*
X116854762Y-112038095D01*
X116807143Y-112085714D01*
X115902381Y-110847619D02*
X115902381Y-110752380D01*
X115950000Y-110657142D01*
X115997619Y-110609523D01*
X116092857Y-110561904D01*
X116283333Y-110514285D01*
X116521429Y-110514285D01*
X116711905Y-110561904D01*
X116807143Y-110609523D01*
X116854762Y-110657142D01*
X116902381Y-110752380D01*
X116902381Y-110847619D01*
X116854762Y-110942857D01*
X116807143Y-110990476D01*
X116711905Y-111038095D01*
X116521429Y-111085714D01*
X116283333Y-111085714D01*
X116092857Y-111038095D01*
X115997619Y-110990476D01*
X115950000Y-110942857D01*
X115902381Y-110847619D01*
X116330952Y-109942857D02*
X116283333Y-110038095D01*
X116235714Y-110085714D01*
X116140476Y-110133333D01*
X116092857Y-110133333D01*
X115997619Y-110085714D01*
X115950000Y-110038095D01*
X115902381Y-109942857D01*
X115902381Y-109752380D01*
X115950000Y-109657142D01*
X115997619Y-109609523D01*
X116092857Y-109561904D01*
X116140476Y-109561904D01*
X116235714Y-109609523D01*
X116283333Y-109657142D01*
X116330952Y-109752380D01*
X116330952Y-109942857D01*
X116378571Y-110038095D01*
X116426190Y-110085714D01*
X116521429Y-110133333D01*
X116711905Y-110133333D01*
X116807143Y-110085714D01*
X116854762Y-110038095D01*
X116902381Y-109942857D01*
X116902381Y-109752380D01*
X116854762Y-109657142D01*
X116807143Y-109609523D01*
X116711905Y-109561904D01*
X116521429Y-109561904D01*
X116426190Y-109609523D01*
X116378571Y-109657142D01*
X116330952Y-109752380D01*
X127007143Y-110519047D02*
X127054762Y-110566666D01*
X127102381Y-110709523D01*
X127102381Y-110804761D01*
X127054762Y-110947619D01*
X126959524Y-111042857D01*
X126864286Y-111090476D01*
X126673810Y-111138095D01*
X126530952Y-111138095D01*
X126340476Y-111090476D01*
X126245238Y-111042857D01*
X126150000Y-110947619D01*
X126102381Y-110804761D01*
X126102381Y-110709523D01*
X126150000Y-110566666D01*
X126197619Y-110519047D01*
X126102381Y-110185714D02*
X126102381Y-109566666D01*
X126483333Y-109900000D01*
X126483333Y-109757142D01*
X126530952Y-109661904D01*
X126578571Y-109614285D01*
X126673810Y-109566666D01*
X126911905Y-109566666D01*
X127007143Y-109614285D01*
X127054762Y-109661904D01*
X127102381Y-109757142D01*
X127102381Y-110042857D01*
X127054762Y-110138095D01*
X127007143Y-110185714D01*
X126102381Y-108947619D02*
X126102381Y-108852380D01*
X126150000Y-108757142D01*
X126197619Y-108709523D01*
X126292857Y-108661904D01*
X126483333Y-108614285D01*
X126721429Y-108614285D01*
X126911905Y-108661904D01*
X127007143Y-108709523D01*
X127054762Y-108757142D01*
X127102381Y-108852380D01*
X127102381Y-108947619D01*
X127054762Y-109042857D01*
X127007143Y-109090476D01*
X126911905Y-109138095D01*
X126721429Y-109185714D01*
X126483333Y-109185714D01*
X126292857Y-109138095D01*
X126197619Y-109090476D01*
X126150000Y-109042857D01*
X126102381Y-108947619D01*
X127102381Y-108138095D02*
X127102381Y-107947619D01*
X127054762Y-107852380D01*
X127007143Y-107804761D01*
X126864286Y-107709523D01*
X126673810Y-107661904D01*
X126292857Y-107661904D01*
X126197619Y-107709523D01*
X126150000Y-107757142D01*
X126102381Y-107852380D01*
X126102381Y-108042857D01*
X126150000Y-108138095D01*
X126197619Y-108185714D01*
X126292857Y-108233333D01*
X126530952Y-108233333D01*
X126626190Y-108185714D01*
X126673810Y-108138095D01*
X126721429Y-108042857D01*
X126721429Y-107852380D01*
X126673810Y-107757142D01*
X126626190Y-107709523D01*
X126530952Y-107661904D01*
X132207143Y-122469047D02*
X132254762Y-122516666D01*
X132302381Y-122659523D01*
X132302381Y-122754761D01*
X132254762Y-122897619D01*
X132159524Y-122992857D01*
X132064286Y-123040476D01*
X131873810Y-123088095D01*
X131730952Y-123088095D01*
X131540476Y-123040476D01*
X131445238Y-122992857D01*
X131350000Y-122897619D01*
X131302381Y-122754761D01*
X131302381Y-122659523D01*
X131350000Y-122516666D01*
X131397619Y-122469047D01*
X131302381Y-122135714D02*
X131302381Y-121516666D01*
X131683333Y-121850000D01*
X131683333Y-121707142D01*
X131730952Y-121611904D01*
X131778571Y-121564285D01*
X131873810Y-121516666D01*
X132111905Y-121516666D01*
X132207143Y-121564285D01*
X132254762Y-121611904D01*
X132302381Y-121707142D01*
X132302381Y-121992857D01*
X132254762Y-122088095D01*
X132207143Y-122135714D01*
X132302381Y-120564285D02*
X132302381Y-121135714D01*
X132302381Y-120850000D02*
X131302381Y-120850000D01*
X131445238Y-120945238D01*
X131540476Y-121040476D01*
X131588095Y-121135714D01*
X132302381Y-119611904D02*
X132302381Y-120183333D01*
X132302381Y-119897619D02*
X131302381Y-119897619D01*
X131445238Y-119992857D01*
X131540476Y-120088095D01*
X131588095Y-120183333D01*
X123507143Y-105669047D02*
X123554762Y-105716666D01*
X123602381Y-105859523D01*
X123602381Y-105954761D01*
X123554762Y-106097619D01*
X123459524Y-106192857D01*
X123364286Y-106240476D01*
X123173810Y-106288095D01*
X123030952Y-106288095D01*
X122840476Y-106240476D01*
X122745238Y-106192857D01*
X122650000Y-106097619D01*
X122602381Y-105954761D01*
X122602381Y-105859523D01*
X122650000Y-105716666D01*
X122697619Y-105669047D01*
X122602381Y-105335714D02*
X122602381Y-104716666D01*
X122983333Y-105050000D01*
X122983333Y-104907142D01*
X123030952Y-104811904D01*
X123078571Y-104764285D01*
X123173810Y-104716666D01*
X123411905Y-104716666D01*
X123507143Y-104764285D01*
X123554762Y-104811904D01*
X123602381Y-104907142D01*
X123602381Y-105192857D01*
X123554762Y-105288095D01*
X123507143Y-105335714D01*
X123602381Y-103764285D02*
X123602381Y-104335714D01*
X123602381Y-104050000D02*
X122602381Y-104050000D01*
X122745238Y-104145238D01*
X122840476Y-104240476D01*
X122888095Y-104335714D01*
X122697619Y-103383333D02*
X122650000Y-103335714D01*
X122602381Y-103240476D01*
X122602381Y-103002380D01*
X122650000Y-102907142D01*
X122697619Y-102859523D01*
X122792857Y-102811904D01*
X122888095Y-102811904D01*
X123030952Y-102859523D01*
X123602381Y-103430952D01*
X123602381Y-102811904D01*
X115880953Y-101907143D02*
X115833334Y-101954762D01*
X115690477Y-102002381D01*
X115595239Y-102002381D01*
X115452381Y-101954762D01*
X115357143Y-101859524D01*
X115309524Y-101764286D01*
X115261905Y-101573810D01*
X115261905Y-101430952D01*
X115309524Y-101240476D01*
X115357143Y-101145238D01*
X115452381Y-101050000D01*
X115595239Y-101002381D01*
X115690477Y-101002381D01*
X115833334Y-101050000D01*
X115880953Y-101097619D01*
X116214286Y-101002381D02*
X116833334Y-101002381D01*
X116500000Y-101383333D01*
X116642858Y-101383333D01*
X116738096Y-101430952D01*
X116785715Y-101478571D01*
X116833334Y-101573810D01*
X116833334Y-101811905D01*
X116785715Y-101907143D01*
X116738096Y-101954762D01*
X116642858Y-102002381D01*
X116357143Y-102002381D01*
X116261905Y-101954762D01*
X116214286Y-101907143D01*
X117785715Y-102002381D02*
X117214286Y-102002381D01*
X117500000Y-102002381D02*
X117500000Y-101002381D01*
X117404762Y-101145238D01*
X117309524Y-101240476D01*
X117214286Y-101288095D01*
X118119048Y-101002381D02*
X118738096Y-101002381D01*
X118404762Y-101383333D01*
X118547620Y-101383333D01*
X118642858Y-101430952D01*
X118690477Y-101478571D01*
X118738096Y-101573810D01*
X118738096Y-101811905D01*
X118690477Y-101907143D01*
X118642858Y-101954762D01*
X118547620Y-102002381D01*
X118261905Y-102002381D01*
X118166667Y-101954762D01*
X118119048Y-101907143D01*
X115980953Y-104007143D02*
X115933334Y-104054762D01*
X115790477Y-104102381D01*
X115695239Y-104102381D01*
X115552381Y-104054762D01*
X115457143Y-103959524D01*
X115409524Y-103864286D01*
X115361905Y-103673810D01*
X115361905Y-103530952D01*
X115409524Y-103340476D01*
X115457143Y-103245238D01*
X115552381Y-103150000D01*
X115695239Y-103102381D01*
X115790477Y-103102381D01*
X115933334Y-103150000D01*
X115980953Y-103197619D01*
X116314286Y-103102381D02*
X116933334Y-103102381D01*
X116600000Y-103483333D01*
X116742858Y-103483333D01*
X116838096Y-103530952D01*
X116885715Y-103578571D01*
X116933334Y-103673810D01*
X116933334Y-103911905D01*
X116885715Y-104007143D01*
X116838096Y-104054762D01*
X116742858Y-104102381D01*
X116457143Y-104102381D01*
X116361905Y-104054762D01*
X116314286Y-104007143D01*
X117885715Y-104102381D02*
X117314286Y-104102381D01*
X117600000Y-104102381D02*
X117600000Y-103102381D01*
X117504762Y-103245238D01*
X117409524Y-103340476D01*
X117314286Y-103388095D01*
X118742858Y-103435714D02*
X118742858Y-104102381D01*
X118504762Y-103054762D02*
X118266667Y-103769048D01*
X118885715Y-103769048D01*
X108780953Y-118807143D02*
X108733334Y-118854762D01*
X108590477Y-118902381D01*
X108495239Y-118902381D01*
X108352381Y-118854762D01*
X108257143Y-118759524D01*
X108209524Y-118664286D01*
X108161905Y-118473810D01*
X108161905Y-118330952D01*
X108209524Y-118140476D01*
X108257143Y-118045238D01*
X108352381Y-117950000D01*
X108495239Y-117902381D01*
X108590477Y-117902381D01*
X108733334Y-117950000D01*
X108780953Y-117997619D01*
X109114286Y-117902381D02*
X109733334Y-117902381D01*
X109400000Y-118283333D01*
X109542858Y-118283333D01*
X109638096Y-118330952D01*
X109685715Y-118378571D01*
X109733334Y-118473810D01*
X109733334Y-118711905D01*
X109685715Y-118807143D01*
X109638096Y-118854762D01*
X109542858Y-118902381D01*
X109257143Y-118902381D01*
X109161905Y-118854762D01*
X109114286Y-118807143D01*
X110685715Y-118902381D02*
X110114286Y-118902381D01*
X110400000Y-118902381D02*
X110400000Y-117902381D01*
X110304762Y-118045238D01*
X110209524Y-118140476D01*
X110114286Y-118188095D01*
X111590477Y-117902381D02*
X111114286Y-117902381D01*
X111066667Y-118378571D01*
X111114286Y-118330952D01*
X111209524Y-118283333D01*
X111447620Y-118283333D01*
X111542858Y-118330952D01*
X111590477Y-118378571D01*
X111638096Y-118473810D01*
X111638096Y-118711905D01*
X111590477Y-118807143D01*
X111542858Y-118854762D01*
X111447620Y-118902381D01*
X111209524Y-118902381D01*
X111114286Y-118854762D01*
X111066667Y-118807143D01*
X108730953Y-120207143D02*
X108683334Y-120254762D01*
X108540477Y-120302381D01*
X108445239Y-120302381D01*
X108302381Y-120254762D01*
X108207143Y-120159524D01*
X108159524Y-120064286D01*
X108111905Y-119873810D01*
X108111905Y-119730952D01*
X108159524Y-119540476D01*
X108207143Y-119445238D01*
X108302381Y-119350000D01*
X108445239Y-119302381D01*
X108540477Y-119302381D01*
X108683334Y-119350000D01*
X108730953Y-119397619D01*
X109064286Y-119302381D02*
X109683334Y-119302381D01*
X109350000Y-119683333D01*
X109492858Y-119683333D01*
X109588096Y-119730952D01*
X109635715Y-119778571D01*
X109683334Y-119873810D01*
X109683334Y-120111905D01*
X109635715Y-120207143D01*
X109588096Y-120254762D01*
X109492858Y-120302381D01*
X109207143Y-120302381D01*
X109111905Y-120254762D01*
X109064286Y-120207143D01*
X110635715Y-120302381D02*
X110064286Y-120302381D01*
X110350000Y-120302381D02*
X110350000Y-119302381D01*
X110254762Y-119445238D01*
X110159524Y-119540476D01*
X110064286Y-119588095D01*
X111492858Y-119302381D02*
X111302381Y-119302381D01*
X111207143Y-119350000D01*
X111159524Y-119397619D01*
X111064286Y-119540476D01*
X111016667Y-119730952D01*
X111016667Y-120111905D01*
X111064286Y-120207143D01*
X111111905Y-120254762D01*
X111207143Y-120302381D01*
X111397620Y-120302381D01*
X111492858Y-120254762D01*
X111540477Y-120207143D01*
X111588096Y-120111905D01*
X111588096Y-119873810D01*
X111540477Y-119778571D01*
X111492858Y-119730952D01*
X111397620Y-119683333D01*
X111207143Y-119683333D01*
X111111905Y-119730952D01*
X111064286Y-119778571D01*
X111016667Y-119873810D01*
X118080953Y-112207143D02*
X118033334Y-112254762D01*
X117890477Y-112302381D01*
X117795239Y-112302381D01*
X117652381Y-112254762D01*
X117557143Y-112159524D01*
X117509524Y-112064286D01*
X117461905Y-111873810D01*
X117461905Y-111730952D01*
X117509524Y-111540476D01*
X117557143Y-111445238D01*
X117652381Y-111350000D01*
X117795239Y-111302381D01*
X117890477Y-111302381D01*
X118033334Y-111350000D01*
X118080953Y-111397619D01*
X118414286Y-111302381D02*
X119033334Y-111302381D01*
X118700000Y-111683333D01*
X118842858Y-111683333D01*
X118938096Y-111730952D01*
X118985715Y-111778571D01*
X119033334Y-111873810D01*
X119033334Y-112111905D01*
X118985715Y-112207143D01*
X118938096Y-112254762D01*
X118842858Y-112302381D01*
X118557143Y-112302381D01*
X118461905Y-112254762D01*
X118414286Y-112207143D01*
X119985715Y-112302381D02*
X119414286Y-112302381D01*
X119700000Y-112302381D02*
X119700000Y-111302381D01*
X119604762Y-111445238D01*
X119509524Y-111540476D01*
X119414286Y-111588095D01*
X120319048Y-111302381D02*
X120985715Y-111302381D01*
X120557143Y-112302381D01*
X118230953Y-110807143D02*
X118183334Y-110854762D01*
X118040477Y-110902381D01*
X117945239Y-110902381D01*
X117802381Y-110854762D01*
X117707143Y-110759524D01*
X117659524Y-110664286D01*
X117611905Y-110473810D01*
X117611905Y-110330952D01*
X117659524Y-110140476D01*
X117707143Y-110045238D01*
X117802381Y-109950000D01*
X117945239Y-109902381D01*
X118040477Y-109902381D01*
X118183334Y-109950000D01*
X118230953Y-109997619D01*
X118564286Y-109902381D02*
X119183334Y-109902381D01*
X118850000Y-110283333D01*
X118992858Y-110283333D01*
X119088096Y-110330952D01*
X119135715Y-110378571D01*
X119183334Y-110473810D01*
X119183334Y-110711905D01*
X119135715Y-110807143D01*
X119088096Y-110854762D01*
X118992858Y-110902381D01*
X118707143Y-110902381D01*
X118611905Y-110854762D01*
X118564286Y-110807143D01*
X120135715Y-110902381D02*
X119564286Y-110902381D01*
X119850000Y-110902381D02*
X119850000Y-109902381D01*
X119754762Y-110045238D01*
X119659524Y-110140476D01*
X119564286Y-110188095D01*
X120707143Y-110330952D02*
X120611905Y-110283333D01*
X120564286Y-110235714D01*
X120516667Y-110140476D01*
X120516667Y-110092857D01*
X120564286Y-109997619D01*
X120611905Y-109950000D01*
X120707143Y-109902381D01*
X120897620Y-109902381D01*
X120992858Y-109950000D01*
X121040477Y-109997619D01*
X121088096Y-110092857D01*
X121088096Y-110140476D01*
X121040477Y-110235714D01*
X120992858Y-110283333D01*
X120897620Y-110330952D01*
X120707143Y-110330952D01*
X120611905Y-110378571D01*
X120564286Y-110426190D01*
X120516667Y-110521429D01*
X120516667Y-110711905D01*
X120564286Y-110807143D01*
X120611905Y-110854762D01*
X120707143Y-110902381D01*
X120897620Y-110902381D01*
X120992858Y-110854762D01*
X121040477Y-110807143D01*
X121088096Y-110711905D01*
X121088096Y-110521429D01*
X121040477Y-110426190D01*
X120992858Y-110378571D01*
X120897620Y-110330952D01*
X125807143Y-116969047D02*
X125854762Y-117016666D01*
X125902381Y-117159523D01*
X125902381Y-117254761D01*
X125854762Y-117397619D01*
X125759524Y-117492857D01*
X125664286Y-117540476D01*
X125473810Y-117588095D01*
X125330952Y-117588095D01*
X125140476Y-117540476D01*
X125045238Y-117492857D01*
X124950000Y-117397619D01*
X124902381Y-117254761D01*
X124902381Y-117159523D01*
X124950000Y-117016666D01*
X124997619Y-116969047D01*
X124902381Y-116635714D02*
X124902381Y-116016666D01*
X125283333Y-116350000D01*
X125283333Y-116207142D01*
X125330952Y-116111904D01*
X125378571Y-116064285D01*
X125473810Y-116016666D01*
X125711905Y-116016666D01*
X125807143Y-116064285D01*
X125854762Y-116111904D01*
X125902381Y-116207142D01*
X125902381Y-116492857D01*
X125854762Y-116588095D01*
X125807143Y-116635714D01*
X125902381Y-115064285D02*
X125902381Y-115635714D01*
X125902381Y-115350000D02*
X124902381Y-115350000D01*
X125045238Y-115445238D01*
X125140476Y-115540476D01*
X125188095Y-115635714D01*
X125902381Y-114588095D02*
X125902381Y-114397619D01*
X125854762Y-114302380D01*
X125807143Y-114254761D01*
X125664286Y-114159523D01*
X125473810Y-114111904D01*
X125092857Y-114111904D01*
X124997619Y-114159523D01*
X124950000Y-114207142D01*
X124902381Y-114302380D01*
X124902381Y-114492857D01*
X124950000Y-114588095D01*
X124997619Y-114635714D01*
X125092857Y-114683333D01*
X125330952Y-114683333D01*
X125426190Y-114635714D01*
X125473810Y-114588095D01*
X125521429Y-114492857D01*
X125521429Y-114302380D01*
X125473810Y-114207142D01*
X125426190Y-114159523D01*
X125330952Y-114111904D01*
X124407143Y-117419047D02*
X124454762Y-117466666D01*
X124502381Y-117609523D01*
X124502381Y-117704761D01*
X124454762Y-117847619D01*
X124359524Y-117942857D01*
X124264286Y-117990476D01*
X124073810Y-118038095D01*
X123930952Y-118038095D01*
X123740476Y-117990476D01*
X123645238Y-117942857D01*
X123550000Y-117847619D01*
X123502381Y-117704761D01*
X123502381Y-117609523D01*
X123550000Y-117466666D01*
X123597619Y-117419047D01*
X123502381Y-117085714D02*
X123502381Y-116466666D01*
X123883333Y-116800000D01*
X123883333Y-116657142D01*
X123930952Y-116561904D01*
X123978571Y-116514285D01*
X124073810Y-116466666D01*
X124311905Y-116466666D01*
X124407143Y-116514285D01*
X124454762Y-116561904D01*
X124502381Y-116657142D01*
X124502381Y-116942857D01*
X124454762Y-117038095D01*
X124407143Y-117085714D01*
X123597619Y-116085714D02*
X123550000Y-116038095D01*
X123502381Y-115942857D01*
X123502381Y-115704761D01*
X123550000Y-115609523D01*
X123597619Y-115561904D01*
X123692857Y-115514285D01*
X123788095Y-115514285D01*
X123930952Y-115561904D01*
X124502381Y-116133333D01*
X124502381Y-115514285D01*
X123502381Y-114895238D02*
X123502381Y-114799999D01*
X123550000Y-114704761D01*
X123597619Y-114657142D01*
X123692857Y-114609523D01*
X123883333Y-114561904D01*
X124121429Y-114561904D01*
X124311905Y-114609523D01*
X124407143Y-114657142D01*
X124454762Y-114704761D01*
X124502381Y-114799999D01*
X124502381Y-114895238D01*
X124454762Y-114990476D01*
X124407143Y-115038095D01*
X124311905Y-115085714D01*
X124121429Y-115133333D01*
X123883333Y-115133333D01*
X123692857Y-115085714D01*
X123597619Y-115038095D01*
X123550000Y-114990476D01*
X123502381Y-114895238D01*
X130102381Y-129140476D02*
X129102381Y-129140476D01*
X129102381Y-128902381D01*
X129150000Y-128759523D01*
X129245238Y-128664285D01*
X129340476Y-128616666D01*
X129530952Y-128569047D01*
X129673810Y-128569047D01*
X129864286Y-128616666D01*
X129959524Y-128664285D01*
X130054762Y-128759523D01*
X130102381Y-128902381D01*
X130102381Y-129140476D01*
X129197619Y-128188095D02*
X129150000Y-128140476D01*
X129102381Y-128045238D01*
X129102381Y-127807142D01*
X129150000Y-127711904D01*
X129197619Y-127664285D01*
X129292857Y-127616666D01*
X129388095Y-127616666D01*
X129530952Y-127664285D01*
X130102381Y-128235714D01*
X130102381Y-127616666D01*
X129102381Y-126997619D02*
X129102381Y-126902380D01*
X129150000Y-126807142D01*
X129197619Y-126759523D01*
X129292857Y-126711904D01*
X129483333Y-126664285D01*
X129721429Y-126664285D01*
X129911905Y-126711904D01*
X130007143Y-126759523D01*
X130054762Y-126807142D01*
X130102381Y-126902380D01*
X130102381Y-126997619D01*
X130054762Y-127092857D01*
X130007143Y-127140476D01*
X129911905Y-127188095D01*
X129721429Y-127235714D01*
X129483333Y-127235714D01*
X129292857Y-127188095D01*
X129197619Y-127140476D01*
X129150000Y-127092857D01*
X129102381Y-126997619D01*
X130102381Y-125711904D02*
X130102381Y-126283333D01*
X130102381Y-125997619D02*
X129102381Y-125997619D01*
X129245238Y-126092857D01*
X129340476Y-126188095D01*
X129388095Y-126283333D01*
X114857601Y-137577744D02*
X114857601Y-136577744D01*
X115095696Y-136577744D01*
X115238554Y-136625363D01*
X115333792Y-136720601D01*
X115381411Y-136815839D01*
X115429030Y-137006315D01*
X115429030Y-137149173D01*
X115381411Y-137339649D01*
X115333792Y-137434887D01*
X115238554Y-137530125D01*
X115095696Y-137577744D01*
X114857601Y-137577744D01*
X116286173Y-136911077D02*
X116286173Y-137577744D01*
X116048077Y-136530125D02*
X115809982Y-137244411D01*
X116429030Y-137244411D01*
X117000458Y-136577744D02*
X117095697Y-136577744D01*
X117190935Y-136625363D01*
X117238554Y-136672982D01*
X117286173Y-136768220D01*
X117333792Y-136958696D01*
X117333792Y-137196792D01*
X117286173Y-137387268D01*
X117238554Y-137482506D01*
X117190935Y-137530125D01*
X117095697Y-137577744D01*
X117000458Y-137577744D01*
X116905220Y-137530125D01*
X116857601Y-137482506D01*
X116809982Y-137387268D01*
X116762363Y-137196792D01*
X116762363Y-136958696D01*
X116809982Y-136768220D01*
X116857601Y-136672982D01*
X116905220Y-136625363D01*
X117000458Y-136577744D01*
X118286173Y-137577744D02*
X117714744Y-137577744D01*
X118000458Y-137577744D02*
X118000458Y-136577744D01*
X117905220Y-136720601D01*
X117809982Y-136815839D01*
X117714744Y-136863458D01*
X114857601Y-139977744D02*
X114857601Y-138977744D01*
X115095696Y-138977744D01*
X115238554Y-139025363D01*
X115333792Y-139120601D01*
X115381411Y-139215839D01*
X115429030Y-139406315D01*
X115429030Y-139549173D01*
X115381411Y-139739649D01*
X115333792Y-139834887D01*
X115238554Y-139930125D01*
X115095696Y-139977744D01*
X114857601Y-139977744D01*
X116286173Y-139311077D02*
X116286173Y-139977744D01*
X116048077Y-138930125D02*
X115809982Y-139644411D01*
X116429030Y-139644411D01*
X117000458Y-138977744D02*
X117095697Y-138977744D01*
X117190935Y-139025363D01*
X117238554Y-139072982D01*
X117286173Y-139168220D01*
X117333792Y-139358696D01*
X117333792Y-139596792D01*
X117286173Y-139787268D01*
X117238554Y-139882506D01*
X117190935Y-139930125D01*
X117095697Y-139977744D01*
X117000458Y-139977744D01*
X116905220Y-139930125D01*
X116857601Y-139882506D01*
X116809982Y-139787268D01*
X116762363Y-139596792D01*
X116762363Y-139358696D01*
X116809982Y-139168220D01*
X116857601Y-139072982D01*
X116905220Y-139025363D01*
X117000458Y-138977744D01*
X117714744Y-139072982D02*
X117762363Y-139025363D01*
X117857601Y-138977744D01*
X118095697Y-138977744D01*
X118190935Y-139025363D01*
X118238554Y-139072982D01*
X118286173Y-139168220D01*
X118286173Y-139263458D01*
X118238554Y-139406315D01*
X117667125Y-139977744D01*
X118286173Y-139977744D01*
X108764286Y-150582381D02*
X108764286Y-151296667D01*
X108716666Y-151439524D01*
X108621428Y-151534762D01*
X108478571Y-151582381D01*
X108383333Y-151582381D01*
X109764286Y-151582381D02*
X109192857Y-151582381D01*
X109478571Y-151582381D02*
X109478571Y-150582381D01*
X109383333Y-150725238D01*
X109288095Y-150820476D01*
X109192857Y-150868095D01*
X110383333Y-150582381D02*
X110478572Y-150582381D01*
X110573810Y-150630000D01*
X110621429Y-150677619D01*
X110669048Y-150772857D01*
X110716667Y-150963333D01*
X110716667Y-151201429D01*
X110669048Y-151391905D01*
X110621429Y-151487143D01*
X110573810Y-151534762D01*
X110478572Y-151582381D01*
X110383333Y-151582381D01*
X110288095Y-151534762D01*
X110240476Y-151487143D01*
X110192857Y-151391905D01*
X110145238Y-151201429D01*
X110145238Y-150963333D01*
X110192857Y-150772857D01*
X110240476Y-150677619D01*
X110288095Y-150630000D01*
X110383333Y-150582381D01*
X111669048Y-151582381D02*
X111097619Y-151582381D01*
X111383333Y-151582381D02*
X111383333Y-150582381D01*
X111288095Y-150725238D01*
X111192857Y-150820476D01*
X111097619Y-150868095D01*
X127708186Y-157573281D02*
X127708186Y-158287567D01*
X127660566Y-158430424D01*
X127565328Y-158525662D01*
X127422471Y-158573281D01*
X127327233Y-158573281D01*
X128708186Y-158573281D02*
X128136757Y-158573281D01*
X128422471Y-158573281D02*
X128422471Y-157573281D01*
X128327233Y-157716138D01*
X128231995Y-157811376D01*
X128136757Y-157858995D01*
X129327233Y-157573281D02*
X129422472Y-157573281D01*
X129517710Y-157620900D01*
X129565329Y-157668519D01*
X129612948Y-157763757D01*
X129660567Y-157954233D01*
X129660567Y-158192329D01*
X129612948Y-158382805D01*
X129565329Y-158478043D01*
X129517710Y-158525662D01*
X129422472Y-158573281D01*
X129327233Y-158573281D01*
X129231995Y-158525662D01*
X129184376Y-158478043D01*
X129136757Y-158382805D01*
X129089138Y-158192329D01*
X129089138Y-157954233D01*
X129136757Y-157763757D01*
X129184376Y-157668519D01*
X129231995Y-157620900D01*
X129327233Y-157573281D01*
X130041519Y-157668519D02*
X130089138Y-157620900D01*
X130184376Y-157573281D01*
X130422472Y-157573281D01*
X130517710Y-157620900D01*
X130565329Y-157668519D01*
X130612948Y-157763757D01*
X130612948Y-157858995D01*
X130565329Y-158001852D01*
X129993900Y-158573281D01*
X130612948Y-158573281D01*
X126764286Y-102082381D02*
X126764286Y-102796667D01*
X126716666Y-102939524D01*
X126621428Y-103034762D01*
X126478571Y-103082381D01*
X126383333Y-103082381D01*
X127764286Y-103082381D02*
X127192857Y-103082381D01*
X127478571Y-103082381D02*
X127478571Y-102082381D01*
X127383333Y-102225238D01*
X127288095Y-102320476D01*
X127192857Y-102368095D01*
X128383333Y-102082381D02*
X128478572Y-102082381D01*
X128573810Y-102130000D01*
X128621429Y-102177619D01*
X128669048Y-102272857D01*
X128716667Y-102463333D01*
X128716667Y-102701429D01*
X128669048Y-102891905D01*
X128621429Y-102987143D01*
X128573810Y-103034762D01*
X128478572Y-103082381D01*
X128383333Y-103082381D01*
X128288095Y-103034762D01*
X128240476Y-102987143D01*
X128192857Y-102891905D01*
X128145238Y-102701429D01*
X128145238Y-102463333D01*
X128192857Y-102272857D01*
X128240476Y-102177619D01*
X128288095Y-102130000D01*
X128383333Y-102082381D01*
X129050000Y-102082381D02*
X129669048Y-102082381D01*
X129335714Y-102463333D01*
X129478572Y-102463333D01*
X129573810Y-102510952D01*
X129621429Y-102558571D01*
X129669048Y-102653810D01*
X129669048Y-102891905D01*
X129621429Y-102987143D01*
X129573810Y-103034762D01*
X129478572Y-103082381D01*
X129192857Y-103082381D01*
X129097619Y-103034762D01*
X129050000Y-102987143D01*
X102414286Y-156982381D02*
X102414286Y-157696667D01*
X102366666Y-157839524D01*
X102271428Y-157934762D01*
X102128571Y-157982381D01*
X102033333Y-157982381D01*
X103414286Y-157982381D02*
X102842857Y-157982381D01*
X103128571Y-157982381D02*
X103128571Y-156982381D01*
X103033333Y-157125238D01*
X102938095Y-157220476D01*
X102842857Y-157268095D01*
X104033333Y-156982381D02*
X104128572Y-156982381D01*
X104223810Y-157030000D01*
X104271429Y-157077619D01*
X104319048Y-157172857D01*
X104366667Y-157363333D01*
X104366667Y-157601429D01*
X104319048Y-157791905D01*
X104271429Y-157887143D01*
X104223810Y-157934762D01*
X104128572Y-157982381D01*
X104033333Y-157982381D01*
X103938095Y-157934762D01*
X103890476Y-157887143D01*
X103842857Y-157791905D01*
X103795238Y-157601429D01*
X103795238Y-157363333D01*
X103842857Y-157172857D01*
X103890476Y-157077619D01*
X103938095Y-157030000D01*
X104033333Y-156982381D01*
X105223810Y-157315714D02*
X105223810Y-157982381D01*
X104985714Y-156934762D02*
X104747619Y-157649048D01*
X105366667Y-157649048D01*
X125358686Y-125455881D02*
X125358686Y-126170167D01*
X125311066Y-126313024D01*
X125215828Y-126408262D01*
X125072971Y-126455881D01*
X124977733Y-126455881D01*
X126358686Y-126455881D02*
X125787257Y-126455881D01*
X126072971Y-126455881D02*
X126072971Y-125455881D01*
X125977733Y-125598738D01*
X125882495Y-125693976D01*
X125787257Y-125741595D01*
X126977733Y-125455881D02*
X127072972Y-125455881D01*
X127168210Y-125503500D01*
X127215829Y-125551119D01*
X127263448Y-125646357D01*
X127311067Y-125836833D01*
X127311067Y-126074929D01*
X127263448Y-126265405D01*
X127215829Y-126360643D01*
X127168210Y-126408262D01*
X127072972Y-126455881D01*
X126977733Y-126455881D01*
X126882495Y-126408262D01*
X126834876Y-126360643D01*
X126787257Y-126265405D01*
X126739638Y-126074929D01*
X126739638Y-125836833D01*
X126787257Y-125646357D01*
X126834876Y-125551119D01*
X126882495Y-125503500D01*
X126977733Y-125455881D01*
X127644400Y-125455881D02*
X128311067Y-125455881D01*
X127882495Y-126455881D01*
X143944286Y-137772381D02*
X143944286Y-138486667D01*
X143896666Y-138629524D01*
X143801428Y-138724762D01*
X143658571Y-138772381D01*
X143563333Y-138772381D01*
X144944286Y-138772381D02*
X144372857Y-138772381D01*
X144658571Y-138772381D02*
X144658571Y-137772381D01*
X144563333Y-137915238D01*
X144468095Y-138010476D01*
X144372857Y-138058095D01*
X145896667Y-138772381D02*
X145325238Y-138772381D01*
X145610952Y-138772381D02*
X145610952Y-137772381D01*
X145515714Y-137915238D01*
X145420476Y-138010476D01*
X145325238Y-138058095D01*
X146515714Y-137772381D02*
X146610953Y-137772381D01*
X146706191Y-137820000D01*
X146753810Y-137867619D01*
X146801429Y-137962857D01*
X146849048Y-138153333D01*
X146849048Y-138391429D01*
X146801429Y-138581905D01*
X146753810Y-138677143D01*
X146706191Y-138724762D01*
X146610953Y-138772381D01*
X146515714Y-138772381D01*
X146420476Y-138724762D01*
X146372857Y-138677143D01*
X146325238Y-138581905D01*
X146277619Y-138391429D01*
X146277619Y-138153333D01*
X146325238Y-137962857D01*
X146372857Y-137867619D01*
X146420476Y-137820000D01*
X146515714Y-137772381D01*
X102514286Y-151322381D02*
X102514286Y-152036667D01*
X102466666Y-152179524D01*
X102371428Y-152274762D01*
X102228571Y-152322381D01*
X102133333Y-152322381D01*
X103514286Y-152322381D02*
X102942857Y-152322381D01*
X103228571Y-152322381D02*
X103228571Y-151322381D01*
X103133333Y-151465238D01*
X103038095Y-151560476D01*
X102942857Y-151608095D01*
X104466667Y-152322381D02*
X103895238Y-152322381D01*
X104180952Y-152322381D02*
X104180952Y-151322381D01*
X104085714Y-151465238D01*
X103990476Y-151560476D01*
X103895238Y-151608095D01*
X105419048Y-152322381D02*
X104847619Y-152322381D01*
X105133333Y-152322381D02*
X105133333Y-151322381D01*
X105038095Y-151465238D01*
X104942857Y-151560476D01*
X104847619Y-151608095D01*
X132502381Y-122419047D02*
X132026190Y-122752381D01*
X132502381Y-122990476D02*
X131502381Y-122990476D01*
X131502381Y-122609523D01*
X131550000Y-122514285D01*
X131597619Y-122466666D01*
X131692857Y-122419047D01*
X131835714Y-122419047D01*
X131930952Y-122466666D01*
X131978571Y-122514285D01*
X132026190Y-122609523D01*
X132026190Y-122990476D01*
X132502381Y-121466666D02*
X132502381Y-122038095D01*
X132502381Y-121752381D02*
X131502381Y-121752381D01*
X131645238Y-121847619D01*
X131740476Y-121942857D01*
X131788095Y-122038095D01*
X131502381Y-120847619D02*
X131502381Y-120752380D01*
X131550000Y-120657142D01*
X131597619Y-120609523D01*
X131692857Y-120561904D01*
X131883333Y-120514285D01*
X132121429Y-120514285D01*
X132311905Y-120561904D01*
X132407143Y-120609523D01*
X132454762Y-120657142D01*
X132502381Y-120752380D01*
X132502381Y-120847619D01*
X132454762Y-120942857D01*
X132407143Y-120990476D01*
X132311905Y-121038095D01*
X132121429Y-121085714D01*
X131883333Y-121085714D01*
X131692857Y-121038095D01*
X131597619Y-120990476D01*
X131550000Y-120942857D01*
X131502381Y-120847619D01*
X132502381Y-119561904D02*
X132502381Y-120133333D01*
X132502381Y-119847619D02*
X131502381Y-119847619D01*
X131645238Y-119942857D01*
X131740476Y-120038095D01*
X131788095Y-120133333D01*
X138852381Y-142919047D02*
X138376190Y-143252381D01*
X138852381Y-143490476D02*
X137852381Y-143490476D01*
X137852381Y-143109523D01*
X137900000Y-143014285D01*
X137947619Y-142966666D01*
X138042857Y-142919047D01*
X138185714Y-142919047D01*
X138280952Y-142966666D01*
X138328571Y-143014285D01*
X138376190Y-143109523D01*
X138376190Y-143490476D01*
X137947619Y-142538095D02*
X137900000Y-142490476D01*
X137852381Y-142395238D01*
X137852381Y-142157142D01*
X137900000Y-142061904D01*
X137947619Y-142014285D01*
X138042857Y-141966666D01*
X138138095Y-141966666D01*
X138280952Y-142014285D01*
X138852381Y-142585714D01*
X138852381Y-141966666D01*
X137852381Y-141347619D02*
X137852381Y-141252380D01*
X137900000Y-141157142D01*
X137947619Y-141109523D01*
X138042857Y-141061904D01*
X138233333Y-141014285D01*
X138471429Y-141014285D01*
X138661905Y-141061904D01*
X138757143Y-141109523D01*
X138804762Y-141157142D01*
X138852381Y-141252380D01*
X138852381Y-141347619D01*
X138804762Y-141442857D01*
X138757143Y-141490476D01*
X138661905Y-141538095D01*
X138471429Y-141585714D01*
X138233333Y-141585714D01*
X138042857Y-141538095D01*
X137947619Y-141490476D01*
X137900000Y-141442857D01*
X137852381Y-141347619D01*
X138852381Y-140061904D02*
X138852381Y-140633333D01*
X138852381Y-140347619D02*
X137852381Y-140347619D01*
X137995238Y-140442857D01*
X138090476Y-140538095D01*
X138138095Y-140633333D01*
X113502381Y-111319047D02*
X113026190Y-111652381D01*
X113502381Y-111890476D02*
X112502381Y-111890476D01*
X112502381Y-111509523D01*
X112550000Y-111414285D01*
X112597619Y-111366666D01*
X112692857Y-111319047D01*
X112835714Y-111319047D01*
X112930952Y-111366666D01*
X112978571Y-111414285D01*
X113026190Y-111509523D01*
X113026190Y-111890476D01*
X112502381Y-110985714D02*
X112502381Y-110366666D01*
X112883333Y-110700000D01*
X112883333Y-110557142D01*
X112930952Y-110461904D01*
X112978571Y-110414285D01*
X113073810Y-110366666D01*
X113311905Y-110366666D01*
X113407143Y-110414285D01*
X113454762Y-110461904D01*
X113502381Y-110557142D01*
X113502381Y-110842857D01*
X113454762Y-110938095D01*
X113407143Y-110985714D01*
X112502381Y-109747619D02*
X112502381Y-109652380D01*
X112550000Y-109557142D01*
X112597619Y-109509523D01*
X112692857Y-109461904D01*
X112883333Y-109414285D01*
X113121429Y-109414285D01*
X113311905Y-109461904D01*
X113407143Y-109509523D01*
X113454762Y-109557142D01*
X113502381Y-109652380D01*
X113502381Y-109747619D01*
X113454762Y-109842857D01*
X113407143Y-109890476D01*
X113311905Y-109938095D01*
X113121429Y-109985714D01*
X112883333Y-109985714D01*
X112692857Y-109938095D01*
X112597619Y-109890476D01*
X112550000Y-109842857D01*
X112502381Y-109747619D01*
X112597619Y-109033333D02*
X112550000Y-108985714D01*
X112502381Y-108890476D01*
X112502381Y-108652380D01*
X112550000Y-108557142D01*
X112597619Y-108509523D01*
X112692857Y-108461904D01*
X112788095Y-108461904D01*
X112930952Y-108509523D01*
X113502381Y-109080952D01*
X113502381Y-108461904D01*
X133802381Y-122469047D02*
X133326190Y-122802381D01*
X133802381Y-123040476D02*
X132802381Y-123040476D01*
X132802381Y-122659523D01*
X132850000Y-122564285D01*
X132897619Y-122516666D01*
X132992857Y-122469047D01*
X133135714Y-122469047D01*
X133230952Y-122516666D01*
X133278571Y-122564285D01*
X133326190Y-122659523D01*
X133326190Y-123040476D01*
X132802381Y-122135714D02*
X132802381Y-121516666D01*
X133183333Y-121850000D01*
X133183333Y-121707142D01*
X133230952Y-121611904D01*
X133278571Y-121564285D01*
X133373810Y-121516666D01*
X133611905Y-121516666D01*
X133707143Y-121564285D01*
X133754762Y-121611904D01*
X133802381Y-121707142D01*
X133802381Y-121992857D01*
X133754762Y-122088095D01*
X133707143Y-122135714D01*
X132802381Y-120897619D02*
X132802381Y-120802380D01*
X132850000Y-120707142D01*
X132897619Y-120659523D01*
X132992857Y-120611904D01*
X133183333Y-120564285D01*
X133421429Y-120564285D01*
X133611905Y-120611904D01*
X133707143Y-120659523D01*
X133754762Y-120707142D01*
X133802381Y-120802380D01*
X133802381Y-120897619D01*
X133754762Y-120992857D01*
X133707143Y-121040476D01*
X133611905Y-121088095D01*
X133421429Y-121135714D01*
X133183333Y-121135714D01*
X132992857Y-121088095D01*
X132897619Y-121040476D01*
X132850000Y-120992857D01*
X132802381Y-120897619D01*
X132802381Y-120230952D02*
X132802381Y-119611904D01*
X133183333Y-119945238D01*
X133183333Y-119802380D01*
X133230952Y-119707142D01*
X133278571Y-119659523D01*
X133373810Y-119611904D01*
X133611905Y-119611904D01*
X133707143Y-119659523D01*
X133754762Y-119707142D01*
X133802381Y-119802380D01*
X133802381Y-120088095D01*
X133754762Y-120183333D01*
X133707143Y-120230952D01*
X117300458Y-145994410D02*
X116824267Y-146327744D01*
X117300458Y-146565839D02*
X116300458Y-146565839D01*
X116300458Y-146184886D01*
X116348077Y-146089648D01*
X116395696Y-146042029D01*
X116490934Y-145994410D01*
X116633791Y-145994410D01*
X116729029Y-146042029D01*
X116776648Y-146089648D01*
X116824267Y-146184886D01*
X116824267Y-146565839D01*
X116633791Y-145137267D02*
X117300458Y-145137267D01*
X116252839Y-145375363D02*
X116967125Y-145613458D01*
X116967125Y-144994410D01*
X116300458Y-144422982D02*
X116300458Y-144327743D01*
X116348077Y-144232505D01*
X116395696Y-144184886D01*
X116490934Y-144137267D01*
X116681410Y-144089648D01*
X116919506Y-144089648D01*
X117109982Y-144137267D01*
X117205220Y-144184886D01*
X117252839Y-144232505D01*
X117300458Y-144327743D01*
X117300458Y-144422982D01*
X117252839Y-144518220D01*
X117205220Y-144565839D01*
X117109982Y-144613458D01*
X116919506Y-144661077D01*
X116681410Y-144661077D01*
X116490934Y-144613458D01*
X116395696Y-144565839D01*
X116348077Y-144518220D01*
X116300458Y-144422982D01*
X117300458Y-143137267D02*
X117300458Y-143708696D01*
X117300458Y-143422982D02*
X116300458Y-143422982D01*
X116443315Y-143518220D01*
X116538553Y-143613458D01*
X116586172Y-143708696D01*
X114429030Y-147477744D02*
X114095696Y-147001553D01*
X113857601Y-147477744D02*
X113857601Y-146477744D01*
X114238554Y-146477744D01*
X114333792Y-146525363D01*
X114381411Y-146572982D01*
X114429030Y-146668220D01*
X114429030Y-146811077D01*
X114381411Y-146906315D01*
X114333792Y-146953934D01*
X114238554Y-147001553D01*
X113857601Y-147001553D01*
X115286173Y-146811077D02*
X115286173Y-147477744D01*
X115048077Y-146430125D02*
X114809982Y-147144411D01*
X115429030Y-147144411D01*
X116000458Y-146477744D02*
X116095697Y-146477744D01*
X116190935Y-146525363D01*
X116238554Y-146572982D01*
X116286173Y-146668220D01*
X116333792Y-146858696D01*
X116333792Y-147096792D01*
X116286173Y-147287268D01*
X116238554Y-147382506D01*
X116190935Y-147430125D01*
X116095697Y-147477744D01*
X116000458Y-147477744D01*
X115905220Y-147430125D01*
X115857601Y-147382506D01*
X115809982Y-147287268D01*
X115762363Y-147096792D01*
X115762363Y-146858696D01*
X115809982Y-146668220D01*
X115857601Y-146572982D01*
X115905220Y-146525363D01*
X116000458Y-146477744D01*
X116714744Y-146572982D02*
X116762363Y-146525363D01*
X116857601Y-146477744D01*
X117095697Y-146477744D01*
X117190935Y-146525363D01*
X117238554Y-146572982D01*
X117286173Y-146668220D01*
X117286173Y-146763458D01*
X117238554Y-146906315D01*
X116667125Y-147477744D01*
X117286173Y-147477744D01*
X116529030Y-147477744D02*
X116195696Y-147001553D01*
X115957601Y-147477744D02*
X115957601Y-146477744D01*
X116338554Y-146477744D01*
X116433792Y-146525363D01*
X116481411Y-146572982D01*
X116529030Y-146668220D01*
X116529030Y-146811077D01*
X116481411Y-146906315D01*
X116433792Y-146953934D01*
X116338554Y-147001553D01*
X115957601Y-147001553D01*
X117386173Y-146811077D02*
X117386173Y-147477744D01*
X117148077Y-146430125D02*
X116909982Y-147144411D01*
X117529030Y-147144411D01*
X118100458Y-146477744D02*
X118195697Y-146477744D01*
X118290935Y-146525363D01*
X118338554Y-146572982D01*
X118386173Y-146668220D01*
X118433792Y-146858696D01*
X118433792Y-147096792D01*
X118386173Y-147287268D01*
X118338554Y-147382506D01*
X118290935Y-147430125D01*
X118195697Y-147477744D01*
X118100458Y-147477744D01*
X118005220Y-147430125D01*
X117957601Y-147382506D01*
X117909982Y-147287268D01*
X117862363Y-147096792D01*
X117862363Y-146858696D01*
X117909982Y-146668220D01*
X117957601Y-146572982D01*
X118005220Y-146525363D01*
X118100458Y-146477744D01*
X119290935Y-146811077D02*
X119290935Y-147477744D01*
X119052839Y-146430125D02*
X118814744Y-147144411D01*
X119433792Y-147144411D01*
X119500458Y-145994410D02*
X119024267Y-146327744D01*
X119500458Y-146565839D02*
X118500458Y-146565839D01*
X118500458Y-146184886D01*
X118548077Y-146089648D01*
X118595696Y-146042029D01*
X118690934Y-145994410D01*
X118833791Y-145994410D01*
X118929029Y-146042029D01*
X118976648Y-146089648D01*
X119024267Y-146184886D01*
X119024267Y-146565839D01*
X118833791Y-145137267D02*
X119500458Y-145137267D01*
X118452839Y-145375363D02*
X119167125Y-145613458D01*
X119167125Y-144994410D01*
X118500458Y-144422982D02*
X118500458Y-144327743D01*
X118548077Y-144232505D01*
X118595696Y-144184886D01*
X118690934Y-144137267D01*
X118881410Y-144089648D01*
X119119506Y-144089648D01*
X119309982Y-144137267D01*
X119405220Y-144184886D01*
X119452839Y-144232505D01*
X119500458Y-144327743D01*
X119500458Y-144422982D01*
X119452839Y-144518220D01*
X119405220Y-144565839D01*
X119309982Y-144613458D01*
X119119506Y-144661077D01*
X118881410Y-144661077D01*
X118690934Y-144613458D01*
X118595696Y-144565839D01*
X118548077Y-144518220D01*
X118500458Y-144422982D01*
X118500458Y-143232505D02*
X118500458Y-143422982D01*
X118548077Y-143518220D01*
X118595696Y-143565839D01*
X118738553Y-143661077D01*
X118929029Y-143708696D01*
X119309982Y-143708696D01*
X119405220Y-143661077D01*
X119452839Y-143613458D01*
X119500458Y-143518220D01*
X119500458Y-143327743D01*
X119452839Y-143232505D01*
X119405220Y-143184886D01*
X119309982Y-143137267D01*
X119071887Y-143137267D01*
X118976648Y-143184886D01*
X118929029Y-143232505D01*
X118881410Y-143327743D01*
X118881410Y-143518220D01*
X118929029Y-143613458D01*
X118976648Y-143661077D01*
X119071887Y-143708696D01*
X112129030Y-142677744D02*
X111795696Y-142201553D01*
X111557601Y-142677744D02*
X111557601Y-141677744D01*
X111938554Y-141677744D01*
X112033792Y-141725363D01*
X112081411Y-141772982D01*
X112129030Y-141868220D01*
X112129030Y-142011077D01*
X112081411Y-142106315D01*
X112033792Y-142153934D01*
X111938554Y-142201553D01*
X111557601Y-142201553D01*
X112986173Y-142011077D02*
X112986173Y-142677744D01*
X112748077Y-141630125D02*
X112509982Y-142344411D01*
X113129030Y-142344411D01*
X113700458Y-141677744D02*
X113795697Y-141677744D01*
X113890935Y-141725363D01*
X113938554Y-141772982D01*
X113986173Y-141868220D01*
X114033792Y-142058696D01*
X114033792Y-142296792D01*
X113986173Y-142487268D01*
X113938554Y-142582506D01*
X113890935Y-142630125D01*
X113795697Y-142677744D01*
X113700458Y-142677744D01*
X113605220Y-142630125D01*
X113557601Y-142582506D01*
X113509982Y-142487268D01*
X113462363Y-142296792D01*
X113462363Y-142058696D01*
X113509982Y-141868220D01*
X113557601Y-141772982D01*
X113605220Y-141725363D01*
X113700458Y-141677744D01*
X114367125Y-141677744D02*
X115033792Y-141677744D01*
X114605220Y-142677744D01*
X110229030Y-142677744D02*
X109895696Y-142201553D01*
X109657601Y-142677744D02*
X109657601Y-141677744D01*
X110038554Y-141677744D01*
X110133792Y-141725363D01*
X110181411Y-141772982D01*
X110229030Y-141868220D01*
X110229030Y-142011077D01*
X110181411Y-142106315D01*
X110133792Y-142153934D01*
X110038554Y-142201553D01*
X109657601Y-142201553D01*
X111086173Y-142011077D02*
X111086173Y-142677744D01*
X110848077Y-141630125D02*
X110609982Y-142344411D01*
X111229030Y-142344411D01*
X111800458Y-141677744D02*
X111895697Y-141677744D01*
X111990935Y-141725363D01*
X112038554Y-141772982D01*
X112086173Y-141868220D01*
X112133792Y-142058696D01*
X112133792Y-142296792D01*
X112086173Y-142487268D01*
X112038554Y-142582506D01*
X111990935Y-142630125D01*
X111895697Y-142677744D01*
X111800458Y-142677744D01*
X111705220Y-142630125D01*
X111657601Y-142582506D01*
X111609982Y-142487268D01*
X111562363Y-142296792D01*
X111562363Y-142058696D01*
X111609982Y-141868220D01*
X111657601Y-141772982D01*
X111705220Y-141725363D01*
X111800458Y-141677744D01*
X112705220Y-142106315D02*
X112609982Y-142058696D01*
X112562363Y-142011077D01*
X112514744Y-141915839D01*
X112514744Y-141868220D01*
X112562363Y-141772982D01*
X112609982Y-141725363D01*
X112705220Y-141677744D01*
X112895697Y-141677744D01*
X112990935Y-141725363D01*
X113038554Y-141772982D01*
X113086173Y-141868220D01*
X113086173Y-141915839D01*
X113038554Y-142011077D01*
X112990935Y-142058696D01*
X112895697Y-142106315D01*
X112705220Y-142106315D01*
X112609982Y-142153934D01*
X112562363Y-142201553D01*
X112514744Y-142296792D01*
X112514744Y-142487268D01*
X112562363Y-142582506D01*
X112609982Y-142630125D01*
X112705220Y-142677744D01*
X112895697Y-142677744D01*
X112990935Y-142630125D01*
X113038554Y-142582506D01*
X113086173Y-142487268D01*
X113086173Y-142296792D01*
X113038554Y-142201553D01*
X112990935Y-142153934D01*
X112895697Y-142106315D01*
X109779030Y-148077744D02*
X109445696Y-147601553D01*
X109207601Y-148077744D02*
X109207601Y-147077744D01*
X109588554Y-147077744D01*
X109683792Y-147125363D01*
X109731411Y-147172982D01*
X109779030Y-147268220D01*
X109779030Y-147411077D01*
X109731411Y-147506315D01*
X109683792Y-147553934D01*
X109588554Y-147601553D01*
X109207601Y-147601553D01*
X110636173Y-147411077D02*
X110636173Y-148077744D01*
X110398077Y-147030125D02*
X110159982Y-147744411D01*
X110779030Y-147744411D01*
X111350458Y-147077744D02*
X111445697Y-147077744D01*
X111540935Y-147125363D01*
X111588554Y-147172982D01*
X111636173Y-147268220D01*
X111683792Y-147458696D01*
X111683792Y-147696792D01*
X111636173Y-147887268D01*
X111588554Y-147982506D01*
X111540935Y-148030125D01*
X111445697Y-148077744D01*
X111350458Y-148077744D01*
X111255220Y-148030125D01*
X111207601Y-147982506D01*
X111159982Y-147887268D01*
X111112363Y-147696792D01*
X111112363Y-147458696D01*
X111159982Y-147268220D01*
X111207601Y-147172982D01*
X111255220Y-147125363D01*
X111350458Y-147077744D01*
X112159982Y-148077744D02*
X112350458Y-148077744D01*
X112445697Y-148030125D01*
X112493316Y-147982506D01*
X112588554Y-147839649D01*
X112636173Y-147649173D01*
X112636173Y-147268220D01*
X112588554Y-147172982D01*
X112540935Y-147125363D01*
X112445697Y-147077744D01*
X112255220Y-147077744D01*
X112159982Y-147125363D01*
X112112363Y-147172982D01*
X112064744Y-147268220D01*
X112064744Y-147506315D01*
X112112363Y-147601553D01*
X112159982Y-147649173D01*
X112255220Y-147696792D01*
X112445697Y-147696792D01*
X112540935Y-147649173D01*
X112588554Y-147601553D01*
X112636173Y-147506315D01*
X111629030Y-150777744D02*
X111295696Y-150301553D01*
X111057601Y-150777744D02*
X111057601Y-149777744D01*
X111438554Y-149777744D01*
X111533792Y-149825363D01*
X111581411Y-149872982D01*
X111629030Y-149968220D01*
X111629030Y-150111077D01*
X111581411Y-150206315D01*
X111533792Y-150253934D01*
X111438554Y-150301553D01*
X111057601Y-150301553D01*
X112486173Y-150111077D02*
X112486173Y-150777744D01*
X112248077Y-149730125D02*
X112009982Y-150444411D01*
X112629030Y-150444411D01*
X113533792Y-150777744D02*
X112962363Y-150777744D01*
X113248077Y-150777744D02*
X113248077Y-149777744D01*
X113152839Y-149920601D01*
X113057601Y-150015839D01*
X112962363Y-150063458D01*
X114152839Y-149777744D02*
X114248078Y-149777744D01*
X114343316Y-149825363D01*
X114390935Y-149872982D01*
X114438554Y-149968220D01*
X114486173Y-150158696D01*
X114486173Y-150396792D01*
X114438554Y-150587268D01*
X114390935Y-150682506D01*
X114343316Y-150730125D01*
X114248078Y-150777744D01*
X114152839Y-150777744D01*
X114057601Y-150730125D01*
X114009982Y-150682506D01*
X113962363Y-150587268D01*
X113914744Y-150396792D01*
X113914744Y-150158696D01*
X113962363Y-149968220D01*
X114009982Y-149872982D01*
X114057601Y-149825363D01*
X114152839Y-149777744D01*
X119935714Y-118752381D02*
X119935714Y-119561905D01*
X119983333Y-119657143D01*
X120030952Y-119704762D01*
X120126190Y-119752381D01*
X120316667Y-119752381D01*
X120411905Y-119704762D01*
X120459524Y-119657143D01*
X120507143Y-119561905D01*
X120507143Y-118752381D01*
X120888095Y-118752381D02*
X121507143Y-118752381D01*
X121173809Y-119133333D01*
X121316667Y-119133333D01*
X121411905Y-119180952D01*
X121459524Y-119228571D01*
X121507143Y-119323810D01*
X121507143Y-119561905D01*
X121459524Y-119657143D01*
X121411905Y-119704762D01*
X121316667Y-119752381D01*
X121030952Y-119752381D01*
X120935714Y-119704762D01*
X120888095Y-119657143D01*
X122126190Y-118752381D02*
X122221429Y-118752381D01*
X122316667Y-118800000D01*
X122364286Y-118847619D01*
X122411905Y-118942857D01*
X122459524Y-119133333D01*
X122459524Y-119371429D01*
X122411905Y-119561905D01*
X122364286Y-119657143D01*
X122316667Y-119704762D01*
X122221429Y-119752381D01*
X122126190Y-119752381D01*
X122030952Y-119704762D01*
X121983333Y-119657143D01*
X121935714Y-119561905D01*
X121888095Y-119371429D01*
X121888095Y-119133333D01*
X121935714Y-118942857D01*
X121983333Y-118847619D01*
X122030952Y-118800000D01*
X122126190Y-118752381D01*
X123316667Y-119085714D02*
X123316667Y-119752381D01*
X123078571Y-118704762D02*
X122840476Y-119419048D01*
X123459524Y-119419048D01*
X109683791Y-140627744D02*
X109683791Y-141437268D01*
X109731410Y-141532506D01*
X109779029Y-141580125D01*
X109874267Y-141627744D01*
X110064744Y-141627744D01*
X110159982Y-141580125D01*
X110207601Y-141532506D01*
X110255220Y-141437268D01*
X110255220Y-140627744D01*
X111159982Y-140961077D02*
X111159982Y-141627744D01*
X110921886Y-140580125D02*
X110683791Y-141294411D01*
X111302839Y-141294411D01*
X111874267Y-140627744D02*
X111969506Y-140627744D01*
X112064744Y-140675363D01*
X112112363Y-140722982D01*
X112159982Y-140818220D01*
X112207601Y-141008696D01*
X112207601Y-141246792D01*
X112159982Y-141437268D01*
X112112363Y-141532506D01*
X112064744Y-141580125D01*
X111969506Y-141627744D01*
X111874267Y-141627744D01*
X111779029Y-141580125D01*
X111731410Y-141532506D01*
X111683791Y-141437268D01*
X111636172Y-141246792D01*
X111636172Y-141008696D01*
X111683791Y-140818220D01*
X111731410Y-140722982D01*
X111779029Y-140675363D01*
X111874267Y-140627744D01*
X112540934Y-140627744D02*
X113159982Y-140627744D01*
X112826648Y-141008696D01*
X112969506Y-141008696D01*
X113064744Y-141056315D01*
X113112363Y-141103934D01*
X113159982Y-141199173D01*
X113159982Y-141437268D01*
X113112363Y-141532506D01*
X113064744Y-141580125D01*
X112969506Y-141627744D01*
X112683791Y-141627744D01*
X112588553Y-141580125D01*
X112540934Y-141532506D01*
X104964286Y-101702381D02*
X104964286Y-102416667D01*
X104916666Y-102559524D01*
X104821428Y-102654762D01*
X104678571Y-102702381D01*
X104583333Y-102702381D01*
X105964286Y-102702381D02*
X105392857Y-102702381D01*
X105678571Y-102702381D02*
X105678571Y-101702381D01*
X105583333Y-101845238D01*
X105488095Y-101940476D01*
X105392857Y-101988095D01*
X106583333Y-101702381D02*
X106678572Y-101702381D01*
X106773810Y-101750000D01*
X106821429Y-101797619D01*
X106869048Y-101892857D01*
X106916667Y-102083333D01*
X106916667Y-102321429D01*
X106869048Y-102511905D01*
X106821429Y-102607143D01*
X106773810Y-102654762D01*
X106678572Y-102702381D01*
X106583333Y-102702381D01*
X106488095Y-102654762D01*
X106440476Y-102607143D01*
X106392857Y-102511905D01*
X106345238Y-102321429D01*
X106345238Y-102083333D01*
X106392857Y-101892857D01*
X106440476Y-101797619D01*
X106488095Y-101750000D01*
X106583333Y-101702381D01*
X107773810Y-101702381D02*
X107583333Y-101702381D01*
X107488095Y-101750000D01*
X107440476Y-101797619D01*
X107345238Y-101940476D01*
X107297619Y-102130952D01*
X107297619Y-102511905D01*
X107345238Y-102607143D01*
X107392857Y-102654762D01*
X107488095Y-102702381D01*
X107678572Y-102702381D01*
X107773810Y-102654762D01*
X107821429Y-102607143D01*
X107869048Y-102511905D01*
X107869048Y-102273810D01*
X107821429Y-102178571D01*
X107773810Y-102130952D01*
X107678572Y-102083333D01*
X107488095Y-102083333D01*
X107392857Y-102130952D01*
X107345238Y-102178571D01*
X107297619Y-102273810D01*
X133035714Y-106402381D02*
X133607143Y-106402381D01*
X133321428Y-107402381D02*
X133321428Y-106402381D01*
X133940476Y-107402381D02*
X133940476Y-106402381D01*
X134321429Y-106402381D01*
X134416667Y-106450000D01*
X134464286Y-106497619D01*
X134511905Y-106592857D01*
X134511905Y-106735714D01*
X134464286Y-106830952D01*
X134416667Y-106878571D01*
X134321429Y-106926190D01*
X133940476Y-106926190D01*
X134892857Y-106497619D02*
X134940476Y-106450000D01*
X135035714Y-106402381D01*
X135273810Y-106402381D01*
X135369048Y-106450000D01*
X135416667Y-106497619D01*
X135464286Y-106592857D01*
X135464286Y-106688095D01*
X135416667Y-106830952D01*
X134845238Y-107402381D01*
X135464286Y-107402381D01*
X136083333Y-106402381D02*
X136178572Y-106402381D01*
X136273810Y-106450000D01*
X136321429Y-106497619D01*
X136369048Y-106592857D01*
X136416667Y-106783333D01*
X136416667Y-107021429D01*
X136369048Y-107211905D01*
X136321429Y-107307143D01*
X136273810Y-107354762D01*
X136178572Y-107402381D01*
X136083333Y-107402381D01*
X135988095Y-107354762D01*
X135940476Y-107307143D01*
X135892857Y-107211905D01*
X135845238Y-107021429D01*
X135845238Y-106783333D01*
X135892857Y-106592857D01*
X135940476Y-106497619D01*
X135988095Y-106450000D01*
X136083333Y-106402381D01*
X136797619Y-106497619D02*
X136845238Y-106450000D01*
X136940476Y-106402381D01*
X137178572Y-106402381D01*
X137273810Y-106450000D01*
X137321429Y-106497619D01*
X137369048Y-106592857D01*
X137369048Y-106688095D01*
X137321429Y-106830952D01*
X136750000Y-107402381D01*
X137369048Y-107402381D01*
X127235714Y-123002381D02*
X127807143Y-123002381D01*
X127521428Y-124002381D02*
X127521428Y-123002381D01*
X128140476Y-124002381D02*
X128140476Y-123002381D01*
X128521429Y-123002381D01*
X128616667Y-123050000D01*
X128664286Y-123097619D01*
X128711905Y-123192857D01*
X128711905Y-123335714D01*
X128664286Y-123430952D01*
X128616667Y-123478571D01*
X128521429Y-123526190D01*
X128140476Y-123526190D01*
X129092857Y-123097619D02*
X129140476Y-123050000D01*
X129235714Y-123002381D01*
X129473810Y-123002381D01*
X129569048Y-123050000D01*
X129616667Y-123097619D01*
X129664286Y-123192857D01*
X129664286Y-123288095D01*
X129616667Y-123430952D01*
X129045238Y-124002381D01*
X129664286Y-124002381D01*
X130283333Y-123002381D02*
X130378572Y-123002381D01*
X130473810Y-123050000D01*
X130521429Y-123097619D01*
X130569048Y-123192857D01*
X130616667Y-123383333D01*
X130616667Y-123621429D01*
X130569048Y-123811905D01*
X130521429Y-123907143D01*
X130473810Y-123954762D01*
X130378572Y-124002381D01*
X130283333Y-124002381D01*
X130188095Y-123954762D01*
X130140476Y-123907143D01*
X130092857Y-123811905D01*
X130045238Y-123621429D01*
X130045238Y-123383333D01*
X130092857Y-123192857D01*
X130140476Y-123097619D01*
X130188095Y-123050000D01*
X130283333Y-123002381D01*
X130950000Y-123002381D02*
X131569048Y-123002381D01*
X131235714Y-123383333D01*
X131378572Y-123383333D01*
X131473810Y-123430952D01*
X131521429Y-123478571D01*
X131569048Y-123573810D01*
X131569048Y-123811905D01*
X131521429Y-123907143D01*
X131473810Y-123954762D01*
X131378572Y-124002381D01*
X131092857Y-124002381D01*
X130997619Y-123954762D01*
X130950000Y-123907143D01*
X131085714Y-107752381D02*
X131657143Y-107752381D01*
X131371428Y-108752381D02*
X131371428Y-107752381D01*
X131990476Y-108752381D02*
X131990476Y-107752381D01*
X132371429Y-107752381D01*
X132466667Y-107800000D01*
X132514286Y-107847619D01*
X132561905Y-107942857D01*
X132561905Y-108085714D01*
X132514286Y-108180952D01*
X132466667Y-108228571D01*
X132371429Y-108276190D01*
X131990476Y-108276190D01*
X132942857Y-107847619D02*
X132990476Y-107800000D01*
X133085714Y-107752381D01*
X133323810Y-107752381D01*
X133419048Y-107800000D01*
X133466667Y-107847619D01*
X133514286Y-107942857D01*
X133514286Y-108038095D01*
X133466667Y-108180952D01*
X132895238Y-108752381D01*
X133514286Y-108752381D01*
X134133333Y-107752381D02*
X134228572Y-107752381D01*
X134323810Y-107800000D01*
X134371429Y-107847619D01*
X134419048Y-107942857D01*
X134466667Y-108133333D01*
X134466667Y-108371429D01*
X134419048Y-108561905D01*
X134371429Y-108657143D01*
X134323810Y-108704762D01*
X134228572Y-108752381D01*
X134133333Y-108752381D01*
X134038095Y-108704762D01*
X133990476Y-108657143D01*
X133942857Y-108561905D01*
X133895238Y-108371429D01*
X133895238Y-108133333D01*
X133942857Y-107942857D01*
X133990476Y-107847619D01*
X134038095Y-107800000D01*
X134133333Y-107752381D01*
X135323810Y-108085714D02*
X135323810Y-108752381D01*
X135085714Y-107704762D02*
X134847619Y-108419048D01*
X135466667Y-108419048D01*
X128985714Y-106452381D02*
X129557143Y-106452381D01*
X129271428Y-107452381D02*
X129271428Y-106452381D01*
X129890476Y-107452381D02*
X129890476Y-106452381D01*
X130271429Y-106452381D01*
X130366667Y-106500000D01*
X130414286Y-106547619D01*
X130461905Y-106642857D01*
X130461905Y-106785714D01*
X130414286Y-106880952D01*
X130366667Y-106928571D01*
X130271429Y-106976190D01*
X129890476Y-106976190D01*
X130842857Y-106547619D02*
X130890476Y-106500000D01*
X130985714Y-106452381D01*
X131223810Y-106452381D01*
X131319048Y-106500000D01*
X131366667Y-106547619D01*
X131414286Y-106642857D01*
X131414286Y-106738095D01*
X131366667Y-106880952D01*
X130795238Y-107452381D01*
X131414286Y-107452381D01*
X132033333Y-106452381D02*
X132128572Y-106452381D01*
X132223810Y-106500000D01*
X132271429Y-106547619D01*
X132319048Y-106642857D01*
X132366667Y-106833333D01*
X132366667Y-107071429D01*
X132319048Y-107261905D01*
X132271429Y-107357143D01*
X132223810Y-107404762D01*
X132128572Y-107452381D01*
X132033333Y-107452381D01*
X131938095Y-107404762D01*
X131890476Y-107357143D01*
X131842857Y-107261905D01*
X131795238Y-107071429D01*
X131795238Y-106833333D01*
X131842857Y-106642857D01*
X131890476Y-106547619D01*
X131938095Y-106500000D01*
X132033333Y-106452381D01*
X133271429Y-106452381D02*
X132795238Y-106452381D01*
X132747619Y-106928571D01*
X132795238Y-106880952D01*
X132890476Y-106833333D01*
X133128572Y-106833333D01*
X133223810Y-106880952D01*
X133271429Y-106928571D01*
X133319048Y-107023810D01*
X133319048Y-107261905D01*
X133271429Y-107357143D01*
X133223810Y-107404762D01*
X133128572Y-107452381D01*
X132890476Y-107452381D01*
X132795238Y-107404762D01*
X132747619Y-107357143D01*
X103130953Y-120307143D02*
X103083334Y-120354762D01*
X102940477Y-120402381D01*
X102845239Y-120402381D01*
X102702381Y-120354762D01*
X102607143Y-120259524D01*
X102559524Y-120164286D01*
X102511905Y-119973810D01*
X102511905Y-119830952D01*
X102559524Y-119640476D01*
X102607143Y-119545238D01*
X102702381Y-119450000D01*
X102845239Y-119402381D01*
X102940477Y-119402381D01*
X103083334Y-119450000D01*
X103130953Y-119497619D01*
X103464286Y-119402381D02*
X104083334Y-119402381D01*
X103750000Y-119783333D01*
X103892858Y-119783333D01*
X103988096Y-119830952D01*
X104035715Y-119878571D01*
X104083334Y-119973810D01*
X104083334Y-120211905D01*
X104035715Y-120307143D01*
X103988096Y-120354762D01*
X103892858Y-120402381D01*
X103607143Y-120402381D01*
X103511905Y-120354762D01*
X103464286Y-120307143D01*
X104464286Y-119497619D02*
X104511905Y-119450000D01*
X104607143Y-119402381D01*
X104845239Y-119402381D01*
X104940477Y-119450000D01*
X104988096Y-119497619D01*
X105035715Y-119592857D01*
X105035715Y-119688095D01*
X104988096Y-119830952D01*
X104416667Y-120402381D01*
X105035715Y-120402381D01*
X105988096Y-120402381D02*
X105416667Y-120402381D01*
X105702381Y-120402381D02*
X105702381Y-119402381D01*
X105607143Y-119545238D01*
X105511905Y-119640476D01*
X105416667Y-119688095D01*
X103130953Y-121407143D02*
X103083334Y-121454762D01*
X102940477Y-121502381D01*
X102845239Y-121502381D01*
X102702381Y-121454762D01*
X102607143Y-121359524D01*
X102559524Y-121264286D01*
X102511905Y-121073810D01*
X102511905Y-120930952D01*
X102559524Y-120740476D01*
X102607143Y-120645238D01*
X102702381Y-120550000D01*
X102845239Y-120502381D01*
X102940477Y-120502381D01*
X103083334Y-120550000D01*
X103130953Y-120597619D01*
X103464286Y-120502381D02*
X104083334Y-120502381D01*
X103750000Y-120883333D01*
X103892858Y-120883333D01*
X103988096Y-120930952D01*
X104035715Y-120978571D01*
X104083334Y-121073810D01*
X104083334Y-121311905D01*
X104035715Y-121407143D01*
X103988096Y-121454762D01*
X103892858Y-121502381D01*
X103607143Y-121502381D01*
X103511905Y-121454762D01*
X103464286Y-121407143D01*
X104464286Y-120597619D02*
X104511905Y-120550000D01*
X104607143Y-120502381D01*
X104845239Y-120502381D01*
X104940477Y-120550000D01*
X104988096Y-120597619D01*
X105035715Y-120692857D01*
X105035715Y-120788095D01*
X104988096Y-120930952D01*
X104416667Y-121502381D01*
X105035715Y-121502381D01*
X105416667Y-120597619D02*
X105464286Y-120550000D01*
X105559524Y-120502381D01*
X105797620Y-120502381D01*
X105892858Y-120550000D01*
X105940477Y-120597619D01*
X105988096Y-120692857D01*
X105988096Y-120788095D01*
X105940477Y-120930952D01*
X105369048Y-121502381D01*
X105988096Y-121502381D01*
X100852381Y-119714286D02*
X101661905Y-119714286D01*
X101757143Y-119666667D01*
X101804762Y-119619048D01*
X101852381Y-119523810D01*
X101852381Y-119333333D01*
X101804762Y-119238095D01*
X101757143Y-119190476D01*
X101661905Y-119142857D01*
X100852381Y-119142857D01*
X100852381Y-118761905D02*
X100852381Y-118142857D01*
X101233333Y-118476191D01*
X101233333Y-118333333D01*
X101280952Y-118238095D01*
X101328571Y-118190476D01*
X101423810Y-118142857D01*
X101661905Y-118142857D01*
X101757143Y-118190476D01*
X101804762Y-118238095D01*
X101852381Y-118333333D01*
X101852381Y-118619048D01*
X101804762Y-118714286D01*
X101757143Y-118761905D01*
X100852381Y-117523810D02*
X100852381Y-117428571D01*
X100900000Y-117333333D01*
X100947619Y-117285714D01*
X101042857Y-117238095D01*
X101233333Y-117190476D01*
X101471429Y-117190476D01*
X101661905Y-117238095D01*
X101757143Y-117285714D01*
X101804762Y-117333333D01*
X101852381Y-117428571D01*
X101852381Y-117523810D01*
X101804762Y-117619048D01*
X101757143Y-117666667D01*
X101661905Y-117714286D01*
X101471429Y-117761905D01*
X101233333Y-117761905D01*
X101042857Y-117714286D01*
X100947619Y-117666667D01*
X100900000Y-117619048D01*
X100852381Y-117523810D01*
X100852381Y-116285714D02*
X100852381Y-116761905D01*
X101328571Y-116809524D01*
X101280952Y-116761905D01*
X101233333Y-116666667D01*
X101233333Y-116428571D01*
X101280952Y-116333333D01*
X101328571Y-116285714D01*
X101423810Y-116238095D01*
X101661905Y-116238095D01*
X101757143Y-116285714D01*
X101804762Y-116333333D01*
X101852381Y-116428571D01*
X101852381Y-116666667D01*
X101804762Y-116761905D01*
X101757143Y-116809524D01*
M02*
