%FSLAX45Y45*%
G04 Gerber Fmt 4.5, Leading zero omitted, Abs format (unit mm)*
G04 Created by KiCad (PCBNEW 4.0.7) date Sat Apr 21 08:58:00 2018*
%MOMM*%
%LPD*%
G01*
G04 APERTURE LIST*
%ADD10C,0.127000*%
%ADD11C,0.150000*%
%ADD12C,0.200000*%
%ADD13C,0.300000*%
G04 APERTURE END LIST*
D10*
D11*
X10000000Y-16800000D02*
X10000000Y-10000000D01*
X15200000Y-16800000D02*
X10000000Y-16800000D01*
X15200000Y-10000000D02*
X15200000Y-16800000D01*
X10000000Y-10000000D02*
X15200000Y-10000000D01*
D12*
X10390000Y-12840000D02*
X10890000Y-13340000D01*
X10890000Y-12840000D02*
X10390000Y-13340000D01*
D13*
X10263929Y-17273214D02*
X10263929Y-16973214D01*
X10335357Y-16973214D01*
X10378214Y-16987500D01*
X10406786Y-17016072D01*
X10421071Y-17044643D01*
X10435357Y-17101786D01*
X10435357Y-17144643D01*
X10421071Y-17201786D01*
X10406786Y-17230357D01*
X10378214Y-17258929D01*
X10335357Y-17273214D01*
X10263929Y-17273214D01*
X10563929Y-17273214D02*
X10563929Y-17073214D01*
X10563929Y-17130357D02*
X10578214Y-17101786D01*
X10592500Y-17087500D01*
X10621071Y-17073214D01*
X10649643Y-17073214D01*
X10749643Y-17273214D02*
X10749643Y-17073214D01*
X10749643Y-16973214D02*
X10735357Y-16987500D01*
X10749643Y-17001786D01*
X10763929Y-16987500D01*
X10749643Y-16973214D01*
X10749643Y-17001786D01*
X10935357Y-17273214D02*
X10906786Y-17258929D01*
X10892500Y-17230357D01*
X10892500Y-16973214D01*
X11092500Y-17273214D02*
X11063929Y-17258929D01*
X11049643Y-17230357D01*
X11049643Y-16973214D01*
X11435357Y-17273214D02*
X11435357Y-16973214D01*
X11535357Y-17187500D01*
X11635357Y-16973214D01*
X11635357Y-17273214D01*
X11906786Y-17273214D02*
X11906786Y-17116072D01*
X11892500Y-17087500D01*
X11863928Y-17073214D01*
X11806786Y-17073214D01*
X11778214Y-17087500D01*
X11906786Y-17258929D02*
X11878214Y-17273214D01*
X11806786Y-17273214D01*
X11778214Y-17258929D01*
X11763928Y-17230357D01*
X11763928Y-17201786D01*
X11778214Y-17173214D01*
X11806786Y-17158929D01*
X11878214Y-17158929D01*
X11906786Y-17144643D01*
X12049643Y-17073214D02*
X12049643Y-17373214D01*
X12049643Y-17087500D02*
X12078214Y-17073214D01*
X12135357Y-17073214D01*
X12163928Y-17087500D01*
X12178214Y-17101786D01*
X12192500Y-17130357D01*
X12192500Y-17216072D01*
X12178214Y-17244643D01*
X12163928Y-17258929D01*
X12135357Y-17273214D01*
X12078214Y-17273214D01*
X12049643Y-17258929D01*
X12321071Y-17244643D02*
X12335357Y-17258929D01*
X12321071Y-17273214D01*
X12306786Y-17258929D01*
X12321071Y-17244643D01*
X12321071Y-17273214D01*
X12321071Y-17087500D02*
X12335357Y-17101786D01*
X12321071Y-17116072D01*
X12306786Y-17101786D01*
X12321071Y-17087500D01*
X12321071Y-17116072D01*
X9492500Y-17517500D02*
X9992500Y-18017500D01*
X9992500Y-17517500D02*
X9492500Y-18017500D01*
X10406786Y-17603214D02*
X10263929Y-17603214D01*
X10249643Y-17746072D01*
X10263929Y-17731786D01*
X10292500Y-17717500D01*
X10363929Y-17717500D01*
X10392500Y-17731786D01*
X10406786Y-17746072D01*
X10421071Y-17774643D01*
X10421071Y-17846072D01*
X10406786Y-17874643D01*
X10392500Y-17888929D01*
X10363929Y-17903214D01*
X10292500Y-17903214D01*
X10263929Y-17888929D01*
X10249643Y-17874643D01*
X10549643Y-17874643D02*
X10563929Y-17888929D01*
X10549643Y-17903214D01*
X10535357Y-17888929D01*
X10549643Y-17874643D01*
X10549643Y-17903214D01*
X10749643Y-17603214D02*
X10778214Y-17603214D01*
X10806786Y-17617500D01*
X10821071Y-17631786D01*
X10835357Y-17660357D01*
X10849643Y-17717500D01*
X10849643Y-17788929D01*
X10835357Y-17846072D01*
X10821071Y-17874643D01*
X10806786Y-17888929D01*
X10778214Y-17903214D01*
X10749643Y-17903214D01*
X10721071Y-17888929D01*
X10706786Y-17874643D01*
X10692500Y-17846072D01*
X10678214Y-17788929D01*
X10678214Y-17717500D01*
X10692500Y-17660357D01*
X10706786Y-17631786D01*
X10721071Y-17617500D01*
X10749643Y-17603214D01*
X11035357Y-17603214D02*
X11063929Y-17603214D01*
X11092500Y-17617500D01*
X11106786Y-17631786D01*
X11121071Y-17660357D01*
X11135357Y-17717500D01*
X11135357Y-17788929D01*
X11121071Y-17846072D01*
X11106786Y-17874643D01*
X11092500Y-17888929D01*
X11063929Y-17903214D01*
X11035357Y-17903214D01*
X11006786Y-17888929D01*
X10992500Y-17874643D01*
X10978214Y-17846072D01*
X10963929Y-17788929D01*
X10963929Y-17717500D01*
X10978214Y-17660357D01*
X10992500Y-17631786D01*
X11006786Y-17617500D01*
X11035357Y-17603214D01*
X11263928Y-17903214D02*
X11263928Y-17703214D01*
X11263928Y-17731786D02*
X11278214Y-17717500D01*
X11306786Y-17703214D01*
X11349643Y-17703214D01*
X11378214Y-17717500D01*
X11392500Y-17746072D01*
X11392500Y-17903214D01*
X11392500Y-17746072D02*
X11406786Y-17717500D01*
X11435357Y-17703214D01*
X11478214Y-17703214D01*
X11506786Y-17717500D01*
X11521071Y-17746072D01*
X11521071Y-17903214D01*
X11663928Y-17903214D02*
X11663928Y-17703214D01*
X11663928Y-17731786D02*
X11678214Y-17717500D01*
X11706786Y-17703214D01*
X11749643Y-17703214D01*
X11778214Y-17717500D01*
X11792500Y-17746072D01*
X11792500Y-17903214D01*
X11792500Y-17746072D02*
X11806786Y-17717500D01*
X11835357Y-17703214D01*
X11878214Y-17703214D01*
X11906786Y-17717500D01*
X11921071Y-17746072D01*
X11921071Y-17903214D01*
X12506786Y-17588929D02*
X12249643Y-17974643D01*
X12892500Y-17603214D02*
X12921071Y-17603214D01*
X12949643Y-17617500D01*
X12963928Y-17631786D01*
X12978214Y-17660357D01*
X12992500Y-17717500D01*
X12992500Y-17788929D01*
X12978214Y-17846072D01*
X12963928Y-17874643D01*
X12949643Y-17888929D01*
X12921071Y-17903214D01*
X12892500Y-17903214D01*
X12863928Y-17888929D01*
X12849643Y-17874643D01*
X12835357Y-17846072D01*
X12821071Y-17788929D01*
X12821071Y-17717500D01*
X12835357Y-17660357D01*
X12849643Y-17631786D01*
X12863928Y-17617500D01*
X12892500Y-17603214D01*
X13121071Y-17874643D02*
X13135357Y-17888929D01*
X13121071Y-17903214D01*
X13106786Y-17888929D01*
X13121071Y-17874643D01*
X13121071Y-17903214D01*
X13421071Y-17903214D02*
X13249643Y-17903214D01*
X13335357Y-17903214D02*
X13335357Y-17603214D01*
X13306785Y-17646072D01*
X13278214Y-17674643D01*
X13249643Y-17688929D01*
X13563928Y-17903214D02*
X13621071Y-17903214D01*
X13649643Y-17888929D01*
X13663928Y-17874643D01*
X13692500Y-17831786D01*
X13706785Y-17774643D01*
X13706785Y-17660357D01*
X13692500Y-17631786D01*
X13678214Y-17617500D01*
X13649643Y-17603214D01*
X13592500Y-17603214D01*
X13563928Y-17617500D01*
X13549643Y-17631786D01*
X13535357Y-17660357D01*
X13535357Y-17731786D01*
X13549643Y-17760357D01*
X13563928Y-17774643D01*
X13592500Y-17788929D01*
X13649643Y-17788929D01*
X13678214Y-17774643D01*
X13692500Y-17760357D01*
X13706785Y-17731786D01*
X13806785Y-17603214D02*
X14006785Y-17603214D01*
X13878214Y-17903214D01*
X14106786Y-17603214D02*
X14106786Y-17660357D01*
X14221071Y-17603214D02*
X14221071Y-17660357D01*
X14663928Y-18017500D02*
X14649643Y-18003214D01*
X14621071Y-17960357D01*
X14606785Y-17931786D01*
X14592500Y-17888929D01*
X14578214Y-17817500D01*
X14578214Y-17760357D01*
X14592500Y-17688929D01*
X14606785Y-17646072D01*
X14621071Y-17617500D01*
X14649643Y-17574643D01*
X14663928Y-17560357D01*
X14935357Y-17903214D02*
X14763928Y-17903214D01*
X14849643Y-17903214D02*
X14849643Y-17603214D01*
X14821071Y-17646072D01*
X14792500Y-17674643D01*
X14763928Y-17688929D01*
X15292500Y-17903214D02*
X15292500Y-17603214D01*
X15421071Y-17903214D02*
X15421071Y-17746072D01*
X15406785Y-17717500D01*
X15378214Y-17703214D01*
X15335357Y-17703214D01*
X15306785Y-17717500D01*
X15292500Y-17731786D01*
X15606785Y-17903214D02*
X15578214Y-17888929D01*
X15563928Y-17874643D01*
X15549643Y-17846072D01*
X15549643Y-17760357D01*
X15563928Y-17731786D01*
X15578214Y-17717500D01*
X15606785Y-17703214D01*
X15649643Y-17703214D01*
X15678214Y-17717500D01*
X15692500Y-17731786D01*
X15706785Y-17760357D01*
X15706785Y-17846072D01*
X15692500Y-17874643D01*
X15678214Y-17888929D01*
X15649643Y-17903214D01*
X15606785Y-17903214D01*
X15878214Y-17903214D02*
X15849643Y-17888929D01*
X15835357Y-17860357D01*
X15835357Y-17603214D01*
X16106786Y-17888929D02*
X16078214Y-17903214D01*
X16021071Y-17903214D01*
X15992500Y-17888929D01*
X15978214Y-17860357D01*
X15978214Y-17746072D01*
X15992500Y-17717500D01*
X16021071Y-17703214D01*
X16078214Y-17703214D01*
X16106786Y-17717500D01*
X16121071Y-17746072D01*
X16121071Y-17774643D01*
X15978214Y-17803214D01*
X16221071Y-18017500D02*
X16235357Y-18003214D01*
X16263928Y-17960357D01*
X16278214Y-17931786D01*
X16292500Y-17888929D01*
X16306786Y-17817500D01*
X16306786Y-17760357D01*
X16292500Y-17688929D01*
X16278214Y-17646072D01*
X16263928Y-17617500D01*
X16235357Y-17574643D01*
X16221071Y-17560357D01*
X16763928Y-18017500D02*
X16749643Y-18003214D01*
X16721071Y-17960357D01*
X16706786Y-17931786D01*
X16692500Y-17888929D01*
X16678214Y-17817500D01*
X16678214Y-17760357D01*
X16692500Y-17688929D01*
X16706786Y-17646072D01*
X16721071Y-17617500D01*
X16749643Y-17574643D01*
X16763928Y-17560357D01*
X16878214Y-17703214D02*
X16878214Y-17903214D01*
X16878214Y-17731786D02*
X16892500Y-17717500D01*
X16921071Y-17703214D01*
X16963929Y-17703214D01*
X16992500Y-17717500D01*
X17006786Y-17746072D01*
X17006786Y-17903214D01*
X17192500Y-17903214D02*
X17163929Y-17888929D01*
X17149643Y-17874643D01*
X17135357Y-17846072D01*
X17135357Y-17760357D01*
X17149643Y-17731786D01*
X17163929Y-17717500D01*
X17192500Y-17703214D01*
X17235357Y-17703214D01*
X17263929Y-17717500D01*
X17278214Y-17731786D01*
X17292500Y-17760357D01*
X17292500Y-17846072D01*
X17278214Y-17874643D01*
X17263929Y-17888929D01*
X17235357Y-17903214D01*
X17192500Y-17903214D01*
X17378214Y-17703214D02*
X17492500Y-17703214D01*
X17421071Y-17603214D02*
X17421071Y-17860357D01*
X17435357Y-17888929D01*
X17463929Y-17903214D01*
X17492500Y-17903214D01*
X17821071Y-17703214D02*
X17821071Y-18003214D01*
X17821071Y-17717500D02*
X17849643Y-17703214D01*
X17906786Y-17703214D01*
X17935357Y-17717500D01*
X17949643Y-17731786D01*
X17963929Y-17760357D01*
X17963929Y-17846072D01*
X17949643Y-17874643D01*
X17935357Y-17888929D01*
X17906786Y-17903214D01*
X17849643Y-17903214D01*
X17821071Y-17888929D01*
X18135357Y-17903214D02*
X18106786Y-17888929D01*
X18092500Y-17860357D01*
X18092500Y-17603214D01*
X18378214Y-17903214D02*
X18378214Y-17746072D01*
X18363929Y-17717500D01*
X18335357Y-17703214D01*
X18278214Y-17703214D01*
X18249643Y-17717500D01*
X18378214Y-17888929D02*
X18349643Y-17903214D01*
X18278214Y-17903214D01*
X18249643Y-17888929D01*
X18235357Y-17860357D01*
X18235357Y-17831786D01*
X18249643Y-17803214D01*
X18278214Y-17788929D01*
X18349643Y-17788929D01*
X18378214Y-17774643D01*
X18478214Y-17703214D02*
X18592500Y-17703214D01*
X18521072Y-17603214D02*
X18521072Y-17860357D01*
X18535357Y-17888929D01*
X18563929Y-17903214D01*
X18592500Y-17903214D01*
X18806786Y-17888929D02*
X18778214Y-17903214D01*
X18721072Y-17903214D01*
X18692500Y-17888929D01*
X18678214Y-17860357D01*
X18678214Y-17746072D01*
X18692500Y-17717500D01*
X18721072Y-17703214D01*
X18778214Y-17703214D01*
X18806786Y-17717500D01*
X18821072Y-17746072D01*
X18821072Y-17774643D01*
X18678214Y-17803214D01*
X19078214Y-17903214D02*
X19078214Y-17603214D01*
X19078214Y-17888929D02*
X19049643Y-17903214D01*
X18992500Y-17903214D01*
X18963929Y-17888929D01*
X18949643Y-17874643D01*
X18935357Y-17846072D01*
X18935357Y-17760357D01*
X18949643Y-17731786D01*
X18963929Y-17717500D01*
X18992500Y-17703214D01*
X19049643Y-17703214D01*
X19078214Y-17717500D01*
X19192500Y-18017500D02*
X19206786Y-18003214D01*
X19235357Y-17960357D01*
X19249643Y-17931786D01*
X19263929Y-17888929D01*
X19278214Y-17817500D01*
X19278214Y-17760357D01*
X19263929Y-17688929D01*
X19249643Y-17646072D01*
X19235357Y-17617500D01*
X19206786Y-17574643D01*
X19192500Y-17560357D01*
M02*
