G04 #@! TF.FileFunction,Legend,Bot*
%FSLAX46Y46*%
G04 Gerber Fmt 4.6, Leading zero omitted, Abs format (unit mm)*
G04 Created by KiCad (PCBNEW 4.0.7) date Wed Apr 18 22:54:53 2018*
%MOMM*%
%LPD*%
G01*
G04 APERTURE LIST*
%ADD10C,0.100000*%
%ADD11C,0.120000*%
%ADD12C,0.150000*%
G04 APERTURE END LIST*
D10*
D11*
X141000000Y-163200000D02*
X141000000Y-164200000D01*
X139300000Y-164200000D02*
X139300000Y-163200000D01*
X138550000Y-163900000D02*
X138550000Y-163200000D01*
X137350000Y-163200000D02*
X137350000Y-163900000D01*
X120800000Y-158500000D02*
X120100000Y-158500000D01*
X120100000Y-159700000D02*
X120800000Y-159700000D01*
X126380000Y-162400000D02*
X126380000Y-164400000D01*
X123420000Y-164400000D02*
X123420000Y-162400000D01*
X130280000Y-162400000D02*
X130280000Y-164400000D01*
X127320000Y-164400000D02*
X127320000Y-162400000D01*
X106920000Y-163800000D02*
X106920000Y-161800000D01*
X109880000Y-161800000D02*
X109880000Y-163800000D01*
X110920000Y-163800000D02*
X110920000Y-161800000D01*
X113880000Y-161800000D02*
X113880000Y-163800000D01*
X114924637Y-155998077D02*
X114924637Y-156698077D01*
X116124637Y-156698077D02*
X116124637Y-155998077D01*
X133471644Y-118785858D02*
X134885858Y-117371644D01*
X136328356Y-118814142D02*
X134914142Y-120228356D01*
X136023223Y-119628249D02*
X135528249Y-120123223D01*
X136376777Y-120971751D02*
X136871751Y-120476777D01*
X136250000Y-135250000D02*
X136250000Y-134550000D01*
X135050000Y-134550000D02*
X135050000Y-135250000D01*
X144478356Y-135314142D02*
X143064142Y-136728356D01*
X141621644Y-135285858D02*
X143035858Y-133871644D01*
X141755026Y-134543502D02*
X142250000Y-134048528D01*
X141401472Y-133200000D02*
X140906498Y-133694974D01*
X111350000Y-108100000D02*
X112050000Y-108100000D01*
X112050000Y-106900000D02*
X111350000Y-106900000D01*
X116400000Y-130220000D02*
X114400000Y-130220000D01*
X114400000Y-128180000D02*
X116400000Y-128180000D01*
X113800000Y-132200000D02*
X114500000Y-132200000D01*
X114500000Y-131000000D02*
X113800000Y-131000000D01*
X121917644Y-144579574D02*
X122917644Y-144579574D01*
X122917644Y-146279574D02*
X121917644Y-146279574D01*
X122767644Y-142829574D02*
X122067644Y-142829574D01*
X122067644Y-144029574D02*
X122767644Y-144029574D01*
X119920000Y-132700000D02*
X119920000Y-134700000D01*
X117880000Y-134700000D02*
X117880000Y-132700000D01*
X117400000Y-134000000D02*
X117400000Y-133300000D01*
X116200000Y-133300000D02*
X116200000Y-134000000D01*
X111248077Y-144425363D02*
X111248077Y-145425363D01*
X109548077Y-145425363D02*
X109548077Y-144425363D01*
X112798077Y-145325363D02*
X112798077Y-144625363D01*
X111598077Y-144625363D02*
X111598077Y-145325363D01*
X114400000Y-135300000D02*
X113700000Y-135300000D01*
X113700000Y-136500000D02*
X114400000Y-136500000D01*
D12*
X135020000Y-165900000D02*
X134020000Y-165900000D01*
X135020000Y-166700000D02*
X134020000Y-166700000D01*
X134470000Y-166300000D02*
X134620000Y-166400000D01*
X134620000Y-166200000D02*
X134470000Y-166300000D01*
X134620000Y-166400000D02*
X134620000Y-166200000D01*
X145120000Y-120000000D02*
X144120000Y-120000000D01*
X145120000Y-120800000D02*
X144120000Y-120800000D01*
X144570000Y-120400000D02*
X144720000Y-120500000D01*
X144720000Y-120300000D02*
X144570000Y-120400000D01*
X144720000Y-120500000D02*
X144720000Y-120300000D01*
D11*
X123870000Y-129650000D02*
X122730000Y-129650000D01*
X122730000Y-129650000D02*
X122730000Y-127550000D01*
X123870000Y-129650000D02*
X123870000Y-127550000D01*
X141929024Y-114315654D02*
X143069024Y-114315654D01*
X143069024Y-114315654D02*
X143069024Y-116415654D01*
X141929024Y-114315654D02*
X141929024Y-116415654D01*
X131800000Y-148570000D02*
X131800000Y-147430000D01*
X131800000Y-147430000D02*
X133900000Y-147430000D01*
X131800000Y-148570000D02*
X133900000Y-148570000D01*
X134350000Y-155130000D02*
X134350000Y-156270000D01*
X134350000Y-156270000D02*
X132250000Y-156270000D01*
X134350000Y-155130000D02*
X132250000Y-155130000D01*
X142820000Y-156030000D02*
X142820000Y-150830000D01*
X145420000Y-156030000D02*
X142820000Y-156030000D01*
X148020000Y-150830000D02*
X142820000Y-150830000D01*
X145420000Y-156030000D02*
X145420000Y-153430000D01*
X145420000Y-153430000D02*
X148020000Y-153430000D01*
X148020000Y-153430000D02*
X148020000Y-150830000D01*
X146690000Y-156030000D02*
X148020000Y-156030000D01*
X148020000Y-156030000D02*
X148020000Y-154700000D01*
D12*
X147700000Y-118150000D02*
X147700000Y-125650000D01*
X149850000Y-118150000D02*
X147700000Y-118150000D01*
X149850000Y-125650000D02*
X147700000Y-125650000D01*
D11*
X126930000Y-119030000D02*
X126930000Y-124230000D01*
X119250000Y-119030000D02*
X126930000Y-119030000D01*
X116650000Y-124230000D02*
X126930000Y-124230000D01*
X119250000Y-119030000D02*
X119250000Y-121630000D01*
X119250000Y-121630000D02*
X116650000Y-121630000D01*
X116650000Y-121630000D02*
X116650000Y-124230000D01*
X117980000Y-119030000D02*
X116650000Y-119030000D01*
X116650000Y-119030000D02*
X116650000Y-120360000D01*
D12*
X120400000Y-160700000D02*
X117400000Y-160700000D01*
X117400000Y-166300000D02*
X120400000Y-166300000D01*
D11*
X105430000Y-155360000D02*
X104500000Y-155360000D01*
X102270000Y-155360000D02*
X103200000Y-155360000D01*
X102270000Y-155360000D02*
X102270000Y-153200000D01*
X105430000Y-155360000D02*
X105430000Y-153900000D01*
X133600000Y-152570000D02*
X132600000Y-152570000D01*
X132600000Y-153930000D02*
X133600000Y-153930000D01*
X133600000Y-150020000D02*
X132600000Y-150020000D01*
X132600000Y-151380000D02*
X133600000Y-151380000D01*
X132900000Y-104320000D02*
X131900000Y-104320000D01*
X131900000Y-105680000D02*
X132900000Y-105680000D01*
X133000000Y-106320000D02*
X132000000Y-106320000D01*
X132000000Y-107680000D02*
X133000000Y-107680000D01*
X123054637Y-155498077D02*
X123054637Y-155998077D01*
X121994637Y-155998077D02*
X121994637Y-155498077D01*
X125980000Y-157800000D02*
X125980000Y-156800000D01*
X124620000Y-156800000D02*
X124620000Y-157800000D01*
X123980000Y-132750000D02*
X123980000Y-131750000D01*
X122620000Y-131750000D02*
X122620000Y-132750000D01*
X141719024Y-111265654D02*
X141719024Y-112265654D01*
X143079024Y-112265654D02*
X143079024Y-111265654D01*
X133600000Y-145120000D02*
X132600000Y-145120000D01*
X132600000Y-146480000D02*
X133600000Y-146480000D01*
X132500000Y-158580000D02*
X133500000Y-158580000D01*
X133500000Y-157220000D02*
X132500000Y-157220000D01*
X129120000Y-126700000D02*
X129120000Y-127700000D01*
X130480000Y-127700000D02*
X130480000Y-126700000D01*
X131400000Y-130120000D02*
X130400000Y-130120000D01*
X130400000Y-131480000D02*
X131400000Y-131480000D01*
X145800000Y-148220000D02*
X144800000Y-148220000D01*
X144800000Y-149580000D02*
X145800000Y-149580000D01*
X130770000Y-113450000D02*
X130770000Y-114450000D01*
X132130000Y-114450000D02*
X132130000Y-113450000D01*
X120900000Y-125020000D02*
X119900000Y-125020000D01*
X119900000Y-126380000D02*
X120900000Y-126380000D01*
X120900000Y-126620000D02*
X119900000Y-126620000D01*
X119900000Y-127980000D02*
X120900000Y-127980000D01*
X114020000Y-119100000D02*
X114020000Y-120100000D01*
X115380000Y-120100000D02*
X115380000Y-119100000D01*
X104320000Y-119200000D02*
X104320000Y-120200000D01*
X105680000Y-120200000D02*
X105680000Y-119200000D01*
X128970000Y-113400000D02*
X128970000Y-114400000D01*
X130330000Y-114400000D02*
X130330000Y-113400000D01*
X113998077Y-147095363D02*
X112998077Y-147095363D01*
X112998077Y-148455363D02*
X113998077Y-148455363D01*
X112998077Y-150255363D02*
X113998077Y-150255363D01*
X113998077Y-148895363D02*
X112998077Y-148895363D01*
D12*
X107750000Y-137150000D02*
X105050000Y-137150000D01*
X102650000Y-124600000D02*
X102650000Y-134900000D01*
X104800000Y-124600000D02*
X102650000Y-124600000D01*
X110150000Y-124600000D02*
X110150000Y-134900000D01*
X108000000Y-124600000D02*
X110150000Y-124600000D01*
X135500000Y-163050000D02*
X135500000Y-164150000D01*
X135500000Y-162000000D02*
X135500000Y-162250000D01*
X133700000Y-162000000D02*
X135500000Y-162000000D01*
X133700000Y-162250000D02*
X133700000Y-162000000D01*
X135500000Y-165200000D02*
X135500000Y-164950000D01*
X133700000Y-165200000D02*
X135500000Y-165200000D01*
X133700000Y-164950000D02*
X133700000Y-165200000D01*
X118685058Y-157948077D02*
G75*
G03X118685058Y-157948077I-141421J0D01*
G01*
X118743637Y-154748077D02*
X118743637Y-154948077D01*
X120343637Y-154748077D02*
X118743637Y-154748077D01*
X120343637Y-154948077D02*
X120343637Y-154748077D01*
X120343637Y-157548077D02*
X120343637Y-157748077D01*
X118743637Y-157748077D02*
X118743637Y-157548077D01*
X120343637Y-157748077D02*
X118743637Y-157748077D01*
X139642462Y-132667946D02*
X138157538Y-132667946D01*
X133632054Y-128142462D02*
X132889592Y-127400000D01*
X132889592Y-127400000D02*
X133632054Y-126657538D01*
X138157538Y-122132054D02*
X138900000Y-121389592D01*
X138900000Y-121389592D02*
X139642462Y-122132054D01*
X144167946Y-126657538D02*
X144910408Y-127400000D01*
X144910408Y-127400000D02*
X144167946Y-128142462D01*
D11*
X133450000Y-132320000D02*
X133450000Y-132050000D01*
X133450000Y-132050000D02*
X129850000Y-132050000D01*
X129850000Y-132050000D02*
X129850000Y-132320000D01*
X133450000Y-135020000D02*
X133450000Y-134480000D01*
X128850000Y-137180000D02*
X129850000Y-137180000D01*
X129850000Y-137180000D02*
X129850000Y-137450000D01*
X129850000Y-137450000D02*
X133450000Y-137450000D01*
X133450000Y-137450000D02*
X133450000Y-137180000D01*
X129850000Y-134480000D02*
X129850000Y-135020000D01*
X129850000Y-135020000D02*
X128850000Y-135020000D01*
D12*
X122900000Y-105100000D02*
X123350000Y-105550000D01*
X123350000Y-111650000D02*
X123350000Y-112100000D01*
X123350000Y-112100000D02*
X122900000Y-112100000D01*
X116800000Y-112100000D02*
X116350000Y-112100000D01*
X116350000Y-112100000D02*
X116350000Y-111650000D01*
X116350000Y-105550000D02*
X116350000Y-105100000D01*
X116350000Y-105100000D02*
X116800000Y-105100000D01*
D11*
X108950000Y-106700000D02*
X108950000Y-102200000D01*
X108950000Y-102200000D02*
X114350000Y-102200000D01*
D12*
X107825000Y-120575000D02*
X107825000Y-120525000D01*
X111975000Y-120575000D02*
X111975000Y-120430000D01*
X111975000Y-115425000D02*
X111975000Y-115570000D01*
X107825000Y-115425000D02*
X107825000Y-115570000D01*
X107825000Y-120575000D02*
X111975000Y-120575000D01*
X107825000Y-115425000D02*
X111975000Y-115425000D01*
X107825000Y-120525000D02*
X106425000Y-120525000D01*
X113287500Y-132950000D02*
X113287500Y-133050000D01*
X113387500Y-132950000D02*
X113287500Y-132950000D01*
X114987500Y-132950000D02*
X114887500Y-132950000D01*
X114987500Y-133050000D02*
X114987500Y-132950000D01*
X114987500Y-134650000D02*
X114887500Y-134650000D01*
X114987500Y-134550000D02*
X114987500Y-134650000D01*
X113437500Y-134650000D02*
G75*
G03X113437500Y-134650000I-50000J0D01*
G01*
X121967644Y-139279574D02*
X123067644Y-139279574D01*
X120917644Y-139279574D02*
X121167644Y-139279574D01*
X120917644Y-141079574D02*
X120917644Y-139279574D01*
X121167644Y-141079574D02*
X120917644Y-141079574D01*
X124117644Y-139279574D02*
X123867644Y-139279574D01*
X124117644Y-141079574D02*
X124117644Y-139279574D01*
X123867644Y-141079574D02*
X124117644Y-141079574D01*
X142257143Y-162580953D02*
X142304762Y-162533334D01*
X142352381Y-162390477D01*
X142352381Y-162295239D01*
X142304762Y-162152381D01*
X142209524Y-162057143D01*
X142114286Y-162009524D01*
X141923810Y-161961905D01*
X141780952Y-161961905D01*
X141590476Y-162009524D01*
X141495238Y-162057143D01*
X141400000Y-162152381D01*
X141352381Y-162295239D01*
X141352381Y-162390477D01*
X141400000Y-162533334D01*
X141447619Y-162580953D01*
X142352381Y-163533334D02*
X142352381Y-162961905D01*
X142352381Y-163247619D02*
X141352381Y-163247619D01*
X141495238Y-163152381D01*
X141590476Y-163057143D01*
X141638095Y-162961905D01*
X141352381Y-164152381D02*
X141352381Y-164247620D01*
X141400000Y-164342858D01*
X141447619Y-164390477D01*
X141542857Y-164438096D01*
X141733333Y-164485715D01*
X141971429Y-164485715D01*
X142161905Y-164438096D01*
X142257143Y-164390477D01*
X142304762Y-164342858D01*
X142352381Y-164247620D01*
X142352381Y-164152381D01*
X142304762Y-164057143D01*
X142257143Y-164009524D01*
X142161905Y-163961905D01*
X141971429Y-163914286D01*
X141733333Y-163914286D01*
X141542857Y-163961905D01*
X141447619Y-164009524D01*
X141400000Y-164057143D01*
X141352381Y-164152381D01*
X142352381Y-165438096D02*
X142352381Y-164866667D01*
X142352381Y-165152381D02*
X141352381Y-165152381D01*
X141495238Y-165057143D01*
X141590476Y-164961905D01*
X141638095Y-164866667D01*
X139557143Y-162430953D02*
X139604762Y-162383334D01*
X139652381Y-162240477D01*
X139652381Y-162145239D01*
X139604762Y-162002381D01*
X139509524Y-161907143D01*
X139414286Y-161859524D01*
X139223810Y-161811905D01*
X139080952Y-161811905D01*
X138890476Y-161859524D01*
X138795238Y-161907143D01*
X138700000Y-162002381D01*
X138652381Y-162145239D01*
X138652381Y-162240477D01*
X138700000Y-162383334D01*
X138747619Y-162430953D01*
X139652381Y-163383334D02*
X139652381Y-162811905D01*
X139652381Y-163097619D02*
X138652381Y-163097619D01*
X138795238Y-163002381D01*
X138890476Y-162907143D01*
X138938095Y-162811905D01*
X138652381Y-164002381D02*
X138652381Y-164097620D01*
X138700000Y-164192858D01*
X138747619Y-164240477D01*
X138842857Y-164288096D01*
X139033333Y-164335715D01*
X139271429Y-164335715D01*
X139461905Y-164288096D01*
X139557143Y-164240477D01*
X139604762Y-164192858D01*
X139652381Y-164097620D01*
X139652381Y-164002381D01*
X139604762Y-163907143D01*
X139557143Y-163859524D01*
X139461905Y-163811905D01*
X139271429Y-163764286D01*
X139033333Y-163764286D01*
X138842857Y-163811905D01*
X138747619Y-163859524D01*
X138700000Y-163907143D01*
X138652381Y-164002381D01*
X138747619Y-164716667D02*
X138700000Y-164764286D01*
X138652381Y-164859524D01*
X138652381Y-165097620D01*
X138700000Y-165192858D01*
X138747619Y-165240477D01*
X138842857Y-165288096D01*
X138938095Y-165288096D01*
X139080952Y-165240477D01*
X139652381Y-164669048D01*
X139652381Y-165288096D01*
X121569047Y-158207143D02*
X121616666Y-158254762D01*
X121759523Y-158302381D01*
X121854761Y-158302381D01*
X121997619Y-158254762D01*
X122092857Y-158159524D01*
X122140476Y-158064286D01*
X122188095Y-157873810D01*
X122188095Y-157730952D01*
X122140476Y-157540476D01*
X122092857Y-157445238D01*
X121997619Y-157350000D01*
X121854761Y-157302381D01*
X121759523Y-157302381D01*
X121616666Y-157350000D01*
X121569047Y-157397619D01*
X120616666Y-158302381D02*
X121188095Y-158302381D01*
X120902381Y-158302381D02*
X120902381Y-157302381D01*
X120997619Y-157445238D01*
X121092857Y-157540476D01*
X121188095Y-157588095D01*
X119997619Y-157302381D02*
X119902380Y-157302381D01*
X119807142Y-157350000D01*
X119759523Y-157397619D01*
X119711904Y-157492857D01*
X119664285Y-157683333D01*
X119664285Y-157921429D01*
X119711904Y-158111905D01*
X119759523Y-158207143D01*
X119807142Y-158254762D01*
X119902380Y-158302381D01*
X119997619Y-158302381D01*
X120092857Y-158254762D01*
X120140476Y-158207143D01*
X120188095Y-158111905D01*
X120235714Y-157921429D01*
X120235714Y-157683333D01*
X120188095Y-157492857D01*
X120140476Y-157397619D01*
X120092857Y-157350000D01*
X119997619Y-157302381D01*
X119330952Y-157302381D02*
X118711904Y-157302381D01*
X119045238Y-157683333D01*
X118902380Y-157683333D01*
X118807142Y-157730952D01*
X118759523Y-157778571D01*
X118711904Y-157873810D01*
X118711904Y-158111905D01*
X118759523Y-158207143D01*
X118807142Y-158254762D01*
X118902380Y-158302381D01*
X119188095Y-158302381D01*
X119283333Y-158254762D01*
X119330952Y-158207143D01*
X127507143Y-162280953D02*
X127554762Y-162233334D01*
X127602381Y-162090477D01*
X127602381Y-161995239D01*
X127554762Y-161852381D01*
X127459524Y-161757143D01*
X127364286Y-161709524D01*
X127173810Y-161661905D01*
X127030952Y-161661905D01*
X126840476Y-161709524D01*
X126745238Y-161757143D01*
X126650000Y-161852381D01*
X126602381Y-161995239D01*
X126602381Y-162090477D01*
X126650000Y-162233334D01*
X126697619Y-162280953D01*
X127602381Y-163233334D02*
X127602381Y-162661905D01*
X127602381Y-162947619D02*
X126602381Y-162947619D01*
X126745238Y-162852381D01*
X126840476Y-162757143D01*
X126888095Y-162661905D01*
X126602381Y-163852381D02*
X126602381Y-163947620D01*
X126650000Y-164042858D01*
X126697619Y-164090477D01*
X126792857Y-164138096D01*
X126983333Y-164185715D01*
X127221429Y-164185715D01*
X127411905Y-164138096D01*
X127507143Y-164090477D01*
X127554762Y-164042858D01*
X127602381Y-163947620D01*
X127602381Y-163852381D01*
X127554762Y-163757143D01*
X127507143Y-163709524D01*
X127411905Y-163661905D01*
X127221429Y-163614286D01*
X126983333Y-163614286D01*
X126792857Y-163661905D01*
X126697619Y-163709524D01*
X126650000Y-163757143D01*
X126602381Y-163852381D01*
X126935714Y-165042858D02*
X127602381Y-165042858D01*
X126554762Y-164804762D02*
X127269048Y-164566667D01*
X127269048Y-165185715D01*
X131407143Y-162280953D02*
X131454762Y-162233334D01*
X131502381Y-162090477D01*
X131502381Y-161995239D01*
X131454762Y-161852381D01*
X131359524Y-161757143D01*
X131264286Y-161709524D01*
X131073810Y-161661905D01*
X130930952Y-161661905D01*
X130740476Y-161709524D01*
X130645238Y-161757143D01*
X130550000Y-161852381D01*
X130502381Y-161995239D01*
X130502381Y-162090477D01*
X130550000Y-162233334D01*
X130597619Y-162280953D01*
X131502381Y-163233334D02*
X131502381Y-162661905D01*
X131502381Y-162947619D02*
X130502381Y-162947619D01*
X130645238Y-162852381D01*
X130740476Y-162757143D01*
X130788095Y-162661905D01*
X130502381Y-163852381D02*
X130502381Y-163947620D01*
X130550000Y-164042858D01*
X130597619Y-164090477D01*
X130692857Y-164138096D01*
X130883333Y-164185715D01*
X131121429Y-164185715D01*
X131311905Y-164138096D01*
X131407143Y-164090477D01*
X131454762Y-164042858D01*
X131502381Y-163947620D01*
X131502381Y-163852381D01*
X131454762Y-163757143D01*
X131407143Y-163709524D01*
X131311905Y-163661905D01*
X131121429Y-163614286D01*
X130883333Y-163614286D01*
X130692857Y-163661905D01*
X130597619Y-163709524D01*
X130550000Y-163757143D01*
X130502381Y-163852381D01*
X130502381Y-165090477D02*
X130502381Y-164614286D01*
X130978571Y-164566667D01*
X130930952Y-164614286D01*
X130883333Y-164709524D01*
X130883333Y-164947620D01*
X130930952Y-165042858D01*
X130978571Y-165090477D01*
X131073810Y-165138096D01*
X131311905Y-165138096D01*
X131407143Y-165090477D01*
X131454762Y-165042858D01*
X131502381Y-164947620D01*
X131502381Y-164709524D01*
X131454762Y-164614286D01*
X131407143Y-164566667D01*
X106507143Y-161680953D02*
X106554762Y-161633334D01*
X106602381Y-161490477D01*
X106602381Y-161395239D01*
X106554762Y-161252381D01*
X106459524Y-161157143D01*
X106364286Y-161109524D01*
X106173810Y-161061905D01*
X106030952Y-161061905D01*
X105840476Y-161109524D01*
X105745238Y-161157143D01*
X105650000Y-161252381D01*
X105602381Y-161395239D01*
X105602381Y-161490477D01*
X105650000Y-161633334D01*
X105697619Y-161680953D01*
X106602381Y-162633334D02*
X106602381Y-162061905D01*
X106602381Y-162347619D02*
X105602381Y-162347619D01*
X105745238Y-162252381D01*
X105840476Y-162157143D01*
X105888095Y-162061905D01*
X105602381Y-163252381D02*
X105602381Y-163347620D01*
X105650000Y-163442858D01*
X105697619Y-163490477D01*
X105792857Y-163538096D01*
X105983333Y-163585715D01*
X106221429Y-163585715D01*
X106411905Y-163538096D01*
X106507143Y-163490477D01*
X106554762Y-163442858D01*
X106602381Y-163347620D01*
X106602381Y-163252381D01*
X106554762Y-163157143D01*
X106507143Y-163109524D01*
X106411905Y-163061905D01*
X106221429Y-163014286D01*
X105983333Y-163014286D01*
X105792857Y-163061905D01*
X105697619Y-163109524D01*
X105650000Y-163157143D01*
X105602381Y-163252381D01*
X105602381Y-164442858D02*
X105602381Y-164252381D01*
X105650000Y-164157143D01*
X105697619Y-164109524D01*
X105840476Y-164014286D01*
X106030952Y-163966667D01*
X106411905Y-163966667D01*
X106507143Y-164014286D01*
X106554762Y-164061905D01*
X106602381Y-164157143D01*
X106602381Y-164347620D01*
X106554762Y-164442858D01*
X106507143Y-164490477D01*
X106411905Y-164538096D01*
X106173810Y-164538096D01*
X106078571Y-164490477D01*
X106030952Y-164442858D01*
X105983333Y-164347620D01*
X105983333Y-164157143D01*
X106030952Y-164061905D01*
X106078571Y-164014286D01*
X106173810Y-163966667D01*
X110507143Y-161680953D02*
X110554762Y-161633334D01*
X110602381Y-161490477D01*
X110602381Y-161395239D01*
X110554762Y-161252381D01*
X110459524Y-161157143D01*
X110364286Y-161109524D01*
X110173810Y-161061905D01*
X110030952Y-161061905D01*
X109840476Y-161109524D01*
X109745238Y-161157143D01*
X109650000Y-161252381D01*
X109602381Y-161395239D01*
X109602381Y-161490477D01*
X109650000Y-161633334D01*
X109697619Y-161680953D01*
X110602381Y-162633334D02*
X110602381Y-162061905D01*
X110602381Y-162347619D02*
X109602381Y-162347619D01*
X109745238Y-162252381D01*
X109840476Y-162157143D01*
X109888095Y-162061905D01*
X109602381Y-163252381D02*
X109602381Y-163347620D01*
X109650000Y-163442858D01*
X109697619Y-163490477D01*
X109792857Y-163538096D01*
X109983333Y-163585715D01*
X110221429Y-163585715D01*
X110411905Y-163538096D01*
X110507143Y-163490477D01*
X110554762Y-163442858D01*
X110602381Y-163347620D01*
X110602381Y-163252381D01*
X110554762Y-163157143D01*
X110507143Y-163109524D01*
X110411905Y-163061905D01*
X110221429Y-163014286D01*
X109983333Y-163014286D01*
X109792857Y-163061905D01*
X109697619Y-163109524D01*
X109650000Y-163157143D01*
X109602381Y-163252381D01*
X109602381Y-163919048D02*
X109602381Y-164585715D01*
X110602381Y-164157143D01*
X114631780Y-155229030D02*
X114679399Y-155181411D01*
X114727018Y-155038554D01*
X114727018Y-154943316D01*
X114679399Y-154800458D01*
X114584161Y-154705220D01*
X114488923Y-154657601D01*
X114298447Y-154609982D01*
X114155589Y-154609982D01*
X113965113Y-154657601D01*
X113869875Y-154705220D01*
X113774637Y-154800458D01*
X113727018Y-154943316D01*
X113727018Y-155038554D01*
X113774637Y-155181411D01*
X113822256Y-155229030D01*
X114727018Y-156181411D02*
X114727018Y-155609982D01*
X114727018Y-155895696D02*
X113727018Y-155895696D01*
X113869875Y-155800458D01*
X113965113Y-155705220D01*
X114012732Y-155609982D01*
X113727018Y-156800458D02*
X113727018Y-156895697D01*
X113774637Y-156990935D01*
X113822256Y-157038554D01*
X113917494Y-157086173D01*
X114107970Y-157133792D01*
X114346066Y-157133792D01*
X114536542Y-157086173D01*
X114631780Y-157038554D01*
X114679399Y-156990935D01*
X114727018Y-156895697D01*
X114727018Y-156800458D01*
X114679399Y-156705220D01*
X114631780Y-156657601D01*
X114536542Y-156609982D01*
X114346066Y-156562363D01*
X114107970Y-156562363D01*
X113917494Y-156609982D01*
X113822256Y-156657601D01*
X113774637Y-156705220D01*
X113727018Y-156800458D01*
X114155589Y-157705220D02*
X114107970Y-157609982D01*
X114060351Y-157562363D01*
X113965113Y-157514744D01*
X113917494Y-157514744D01*
X113822256Y-157562363D01*
X113774637Y-157609982D01*
X113727018Y-157705220D01*
X113727018Y-157895697D01*
X113774637Y-157990935D01*
X113822256Y-158038554D01*
X113917494Y-158086173D01*
X113965113Y-158086173D01*
X114060351Y-158038554D01*
X114107970Y-157990935D01*
X114155589Y-157895697D01*
X114155589Y-157705220D01*
X114203208Y-157609982D01*
X114250827Y-157562363D01*
X114346066Y-157514744D01*
X114536542Y-157514744D01*
X114631780Y-157562363D01*
X114679399Y-157609982D01*
X114727018Y-157705220D01*
X114727018Y-157895697D01*
X114679399Y-157990935D01*
X114631780Y-158038554D01*
X114536542Y-158086173D01*
X114346066Y-158086173D01*
X114250827Y-158038554D01*
X114203208Y-157990935D01*
X114155589Y-157895697D01*
X134706387Y-117023816D02*
X134773730Y-117023816D01*
X134908417Y-116956472D01*
X134975761Y-116889129D01*
X135043105Y-116754441D01*
X135043105Y-116619754D01*
X135009433Y-116518739D01*
X134908418Y-116350380D01*
X134807402Y-116249365D01*
X134639044Y-116148349D01*
X134538028Y-116114678D01*
X134403341Y-116114678D01*
X134268654Y-116182022D01*
X134201310Y-116249365D01*
X134133967Y-116384052D01*
X134133967Y-116451396D01*
X133864593Y-116720769D02*
X133797250Y-116720769D01*
X133696235Y-116754441D01*
X133527875Y-116922800D01*
X133494204Y-117023816D01*
X133494204Y-117091159D01*
X133527875Y-117192174D01*
X133595219Y-117259518D01*
X133729906Y-117326861D01*
X134538028Y-117326861D01*
X134100295Y-117764594D01*
X132955456Y-117495220D02*
X132888112Y-117562564D01*
X132854440Y-117663579D01*
X132854440Y-117730922D01*
X132888112Y-117831937D01*
X132989127Y-118000296D01*
X133157487Y-118168655D01*
X133325845Y-118269670D01*
X133426860Y-118303342D01*
X133494204Y-118303342D01*
X133595219Y-118269670D01*
X133662563Y-118202326D01*
X133696235Y-118101311D01*
X133696235Y-118033968D01*
X133662563Y-117932953D01*
X133561548Y-117764594D01*
X133393189Y-117596235D01*
X133224830Y-117495220D01*
X133123815Y-117461548D01*
X133056471Y-117461548D01*
X132955456Y-117495220D01*
X132753425Y-119111464D02*
X133157487Y-118707403D01*
X132955456Y-118909433D02*
X132248349Y-118202326D01*
X132416708Y-118235998D01*
X132551395Y-118235998D01*
X132652410Y-118202326D01*
X136359941Y-118877370D02*
X136427284Y-118877370D01*
X136561971Y-118810026D01*
X136629315Y-118742683D01*
X136696659Y-118607995D01*
X136696659Y-118473308D01*
X136662987Y-118372293D01*
X136561972Y-118203934D01*
X136460956Y-118102919D01*
X136292598Y-118001903D01*
X136191582Y-117968232D01*
X136056895Y-117968232D01*
X135922208Y-118035576D01*
X135854864Y-118102919D01*
X135787521Y-118237606D01*
X135787521Y-118304950D01*
X135518147Y-118574323D02*
X135450804Y-118574323D01*
X135349789Y-118607995D01*
X135181429Y-118776354D01*
X135147758Y-118877370D01*
X135147758Y-118944713D01*
X135181429Y-119045728D01*
X135248773Y-119113072D01*
X135383460Y-119180415D01*
X136191582Y-119180415D01*
X135753849Y-119618148D01*
X134609010Y-119348774D02*
X134541666Y-119416118D01*
X134507994Y-119517133D01*
X134507994Y-119584476D01*
X134541666Y-119685491D01*
X134642681Y-119853850D01*
X134811041Y-120022209D01*
X134979399Y-120123224D01*
X135080414Y-120156896D01*
X135147758Y-120156896D01*
X135248773Y-120123224D01*
X135316117Y-120055880D01*
X135349789Y-119954865D01*
X135349789Y-119887522D01*
X135316117Y-119786507D01*
X135215102Y-119618148D01*
X135046743Y-119449789D01*
X134878384Y-119348774D01*
X134777369Y-119315102D01*
X134710025Y-119315102D01*
X134609010Y-119348774D01*
X134171277Y-119921193D02*
X134103934Y-119921193D01*
X134002919Y-119954865D01*
X133834559Y-120123224D01*
X133800888Y-120224240D01*
X133800888Y-120291583D01*
X133834559Y-120392598D01*
X133901903Y-120459942D01*
X134036590Y-120527285D01*
X134844712Y-120527285D01*
X134406979Y-120965018D01*
X137257143Y-133780953D02*
X137304762Y-133733334D01*
X137352381Y-133590477D01*
X137352381Y-133495239D01*
X137304762Y-133352381D01*
X137209524Y-133257143D01*
X137114286Y-133209524D01*
X136923810Y-133161905D01*
X136780952Y-133161905D01*
X136590476Y-133209524D01*
X136495238Y-133257143D01*
X136400000Y-133352381D01*
X136352381Y-133495239D01*
X136352381Y-133590477D01*
X136400000Y-133733334D01*
X136447619Y-133780953D01*
X136447619Y-134161905D02*
X136400000Y-134209524D01*
X136352381Y-134304762D01*
X136352381Y-134542858D01*
X136400000Y-134638096D01*
X136447619Y-134685715D01*
X136542857Y-134733334D01*
X136638095Y-134733334D01*
X136780952Y-134685715D01*
X137352381Y-134114286D01*
X137352381Y-134733334D01*
X136352381Y-135352381D02*
X136352381Y-135447620D01*
X136400000Y-135542858D01*
X136447619Y-135590477D01*
X136542857Y-135638096D01*
X136733333Y-135685715D01*
X136971429Y-135685715D01*
X137161905Y-135638096D01*
X137257143Y-135590477D01*
X137304762Y-135542858D01*
X137352381Y-135447620D01*
X137352381Y-135352381D01*
X137304762Y-135257143D01*
X137257143Y-135209524D01*
X137161905Y-135161905D01*
X136971429Y-135114286D01*
X136733333Y-135114286D01*
X136542857Y-135161905D01*
X136447619Y-135209524D01*
X136400000Y-135257143D01*
X136352381Y-135352381D01*
X136685714Y-136542858D02*
X137352381Y-136542858D01*
X136304762Y-136304762D02*
X137019048Y-136066667D01*
X137019048Y-136685715D01*
X145331261Y-135998690D02*
X145398604Y-135998690D01*
X145533291Y-135931346D01*
X145600635Y-135864003D01*
X145667979Y-135729315D01*
X145667979Y-135594628D01*
X145634307Y-135493613D01*
X145533292Y-135325254D01*
X145432276Y-135224239D01*
X145263918Y-135123223D01*
X145162902Y-135089552D01*
X145028215Y-135089552D01*
X144893528Y-135156896D01*
X144826184Y-135224239D01*
X144758841Y-135358926D01*
X144758841Y-135426270D01*
X144489467Y-135695643D02*
X144422124Y-135695643D01*
X144321109Y-135729315D01*
X144152749Y-135897674D01*
X144119078Y-135998690D01*
X144119078Y-136066033D01*
X144152749Y-136167048D01*
X144220093Y-136234392D01*
X144354780Y-136301735D01*
X145162902Y-136301735D01*
X144725169Y-136739468D01*
X144051734Y-137412903D02*
X144455796Y-137008842D01*
X144253765Y-137210872D02*
X143546659Y-136503765D01*
X143715017Y-136537437D01*
X143849704Y-136537437D01*
X143950719Y-136503765D01*
X143378299Y-138086338D02*
X143782361Y-137682277D01*
X143580330Y-137884307D02*
X142873223Y-137177200D01*
X143041582Y-137210872D01*
X143176269Y-137210872D01*
X143277284Y-137177200D01*
X143505956Y-134216887D02*
X143573299Y-134216887D01*
X143707986Y-134149543D01*
X143775330Y-134082200D01*
X143842674Y-133947512D01*
X143842674Y-133812825D01*
X143809002Y-133711810D01*
X143707987Y-133543451D01*
X143606971Y-133442436D01*
X143438613Y-133341420D01*
X143337597Y-133307749D01*
X143202910Y-133307749D01*
X143068223Y-133375093D01*
X143000879Y-133442436D01*
X142933536Y-133577123D01*
X142933536Y-133644467D01*
X142664162Y-133913840D02*
X142596819Y-133913840D01*
X142495804Y-133947512D01*
X142327444Y-134115871D01*
X142293773Y-134216887D01*
X142293773Y-134284230D01*
X142327444Y-134385245D01*
X142394788Y-134452589D01*
X142529475Y-134519932D01*
X143337597Y-134519932D01*
X142899864Y-134957665D01*
X142226429Y-135631100D02*
X142630491Y-135227039D01*
X142428460Y-135429069D02*
X141721354Y-134721962D01*
X141889712Y-134755634D01*
X142024399Y-134755634D01*
X142125414Y-134721962D01*
X141317292Y-135260710D02*
X141249949Y-135260710D01*
X141148934Y-135294382D01*
X140980574Y-135462741D01*
X140946903Y-135563757D01*
X140946903Y-135631100D01*
X140980574Y-135732115D01*
X141047918Y-135799459D01*
X141182605Y-135866802D01*
X141990727Y-135866802D01*
X141552994Y-136304535D01*
X112819047Y-109107143D02*
X112866666Y-109154762D01*
X113009523Y-109202381D01*
X113104761Y-109202381D01*
X113247619Y-109154762D01*
X113342857Y-109059524D01*
X113390476Y-108964286D01*
X113438095Y-108773810D01*
X113438095Y-108630952D01*
X113390476Y-108440476D01*
X113342857Y-108345238D01*
X113247619Y-108250000D01*
X113104761Y-108202381D01*
X113009523Y-108202381D01*
X112866666Y-108250000D01*
X112819047Y-108297619D01*
X112485714Y-108202381D02*
X111866666Y-108202381D01*
X112200000Y-108583333D01*
X112057142Y-108583333D01*
X111961904Y-108630952D01*
X111914285Y-108678571D01*
X111866666Y-108773810D01*
X111866666Y-109011905D01*
X111914285Y-109107143D01*
X111961904Y-109154762D01*
X112057142Y-109202381D01*
X112342857Y-109202381D01*
X112438095Y-109154762D01*
X112485714Y-109107143D01*
X110914285Y-109202381D02*
X111485714Y-109202381D01*
X111200000Y-109202381D02*
X111200000Y-108202381D01*
X111295238Y-108345238D01*
X111390476Y-108440476D01*
X111485714Y-108488095D01*
X110295238Y-108202381D02*
X110199999Y-108202381D01*
X110104761Y-108250000D01*
X110057142Y-108297619D01*
X110009523Y-108392857D01*
X109961904Y-108583333D01*
X109961904Y-108821429D01*
X110009523Y-109011905D01*
X110057142Y-109107143D01*
X110104761Y-109154762D01*
X110199999Y-109202381D01*
X110295238Y-109202381D01*
X110390476Y-109154762D01*
X110438095Y-109107143D01*
X110485714Y-109011905D01*
X110533333Y-108821429D01*
X110533333Y-108583333D01*
X110485714Y-108392857D01*
X110438095Y-108297619D01*
X110390476Y-108250000D01*
X110295238Y-108202381D01*
X116519047Y-131307143D02*
X116566666Y-131354762D01*
X116709523Y-131402381D01*
X116804761Y-131402381D01*
X116947619Y-131354762D01*
X117042857Y-131259524D01*
X117090476Y-131164286D01*
X117138095Y-130973810D01*
X117138095Y-130830952D01*
X117090476Y-130640476D01*
X117042857Y-130545238D01*
X116947619Y-130450000D01*
X116804761Y-130402381D01*
X116709523Y-130402381D01*
X116566666Y-130450000D01*
X116519047Y-130497619D01*
X115661904Y-130735714D02*
X115661904Y-131402381D01*
X115900000Y-130354762D02*
X116138095Y-131069048D01*
X115519047Y-131069048D01*
X114947619Y-130402381D02*
X114852380Y-130402381D01*
X114757142Y-130450000D01*
X114709523Y-130497619D01*
X114661904Y-130592857D01*
X114614285Y-130783333D01*
X114614285Y-131021429D01*
X114661904Y-131211905D01*
X114709523Y-131307143D01*
X114757142Y-131354762D01*
X114852380Y-131402381D01*
X114947619Y-131402381D01*
X115042857Y-131354762D01*
X115090476Y-131307143D01*
X115138095Y-131211905D01*
X115185714Y-131021429D01*
X115185714Y-130783333D01*
X115138095Y-130592857D01*
X115090476Y-130497619D01*
X115042857Y-130450000D01*
X114947619Y-130402381D01*
X113661904Y-131402381D02*
X114233333Y-131402381D01*
X113947619Y-131402381D02*
X113947619Y-130402381D01*
X114042857Y-130545238D01*
X114138095Y-130640476D01*
X114233333Y-130688095D01*
X115269047Y-133207143D02*
X115316666Y-133254762D01*
X115459523Y-133302381D01*
X115554761Y-133302381D01*
X115697619Y-133254762D01*
X115792857Y-133159524D01*
X115840476Y-133064286D01*
X115888095Y-132873810D01*
X115888095Y-132730952D01*
X115840476Y-132540476D01*
X115792857Y-132445238D01*
X115697619Y-132350000D01*
X115554761Y-132302381D01*
X115459523Y-132302381D01*
X115316666Y-132350000D01*
X115269047Y-132397619D01*
X114411904Y-132635714D02*
X114411904Y-133302381D01*
X114650000Y-132254762D02*
X114888095Y-132969048D01*
X114269047Y-132969048D01*
X113697619Y-132302381D02*
X113602380Y-132302381D01*
X113507142Y-132350000D01*
X113459523Y-132397619D01*
X113411904Y-132492857D01*
X113364285Y-132683333D01*
X113364285Y-132921429D01*
X113411904Y-133111905D01*
X113459523Y-133207143D01*
X113507142Y-133254762D01*
X113602380Y-133302381D01*
X113697619Y-133302381D01*
X113792857Y-133254762D01*
X113840476Y-133207143D01*
X113888095Y-133111905D01*
X113935714Y-132921429D01*
X113935714Y-132683333D01*
X113888095Y-132492857D01*
X113840476Y-132397619D01*
X113792857Y-132350000D01*
X113697619Y-132302381D01*
X112983333Y-132397619D02*
X112935714Y-132350000D01*
X112840476Y-132302381D01*
X112602380Y-132302381D01*
X112507142Y-132350000D01*
X112459523Y-132397619D01*
X112411904Y-132492857D01*
X112411904Y-132588095D01*
X112459523Y-132730952D01*
X113030952Y-133302381D01*
X112411904Y-133302381D01*
X123536691Y-144036717D02*
X123584310Y-144084336D01*
X123727167Y-144131955D01*
X123822405Y-144131955D01*
X123965263Y-144084336D01*
X124060501Y-143989098D01*
X124108120Y-143893860D01*
X124155739Y-143703384D01*
X124155739Y-143560526D01*
X124108120Y-143370050D01*
X124060501Y-143274812D01*
X123965263Y-143179574D01*
X123822405Y-143131955D01*
X123727167Y-143131955D01*
X123584310Y-143179574D01*
X123536691Y-143227193D01*
X122679548Y-143465288D02*
X122679548Y-144131955D01*
X122917644Y-143084336D02*
X123155739Y-143798622D01*
X122536691Y-143798622D01*
X121965263Y-143131955D02*
X121870024Y-143131955D01*
X121774786Y-143179574D01*
X121727167Y-143227193D01*
X121679548Y-143322431D01*
X121631929Y-143512907D01*
X121631929Y-143751003D01*
X121679548Y-143941479D01*
X121727167Y-144036717D01*
X121774786Y-144084336D01*
X121870024Y-144131955D01*
X121965263Y-144131955D01*
X122060501Y-144084336D01*
X122108120Y-144036717D01*
X122155739Y-143941479D01*
X122203358Y-143751003D01*
X122203358Y-143512907D01*
X122155739Y-143322431D01*
X122108120Y-143227193D01*
X122060501Y-143179574D01*
X121965263Y-143131955D01*
X121298596Y-143131955D02*
X120679548Y-143131955D01*
X121012882Y-143512907D01*
X120870024Y-143512907D01*
X120774786Y-143560526D01*
X120727167Y-143608145D01*
X120679548Y-143703384D01*
X120679548Y-143941479D01*
X120727167Y-144036717D01*
X120774786Y-144084336D01*
X120870024Y-144131955D01*
X121155739Y-144131955D01*
X121250977Y-144084336D01*
X121298596Y-144036717D01*
X123536691Y-142536717D02*
X123584310Y-142584336D01*
X123727167Y-142631955D01*
X123822405Y-142631955D01*
X123965263Y-142584336D01*
X124060501Y-142489098D01*
X124108120Y-142393860D01*
X124155739Y-142203384D01*
X124155739Y-142060526D01*
X124108120Y-141870050D01*
X124060501Y-141774812D01*
X123965263Y-141679574D01*
X123822405Y-141631955D01*
X123727167Y-141631955D01*
X123584310Y-141679574D01*
X123536691Y-141727193D01*
X122679548Y-141965288D02*
X122679548Y-142631955D01*
X122917644Y-141584336D02*
X123155739Y-142298622D01*
X122536691Y-142298622D01*
X121965263Y-141631955D02*
X121870024Y-141631955D01*
X121774786Y-141679574D01*
X121727167Y-141727193D01*
X121679548Y-141822431D01*
X121631929Y-142012907D01*
X121631929Y-142251003D01*
X121679548Y-142441479D01*
X121727167Y-142536717D01*
X121774786Y-142584336D01*
X121870024Y-142631955D01*
X121965263Y-142631955D01*
X122060501Y-142584336D01*
X122108120Y-142536717D01*
X122155739Y-142441479D01*
X122203358Y-142251003D01*
X122203358Y-142012907D01*
X122155739Y-141822431D01*
X122108120Y-141727193D01*
X122060501Y-141679574D01*
X121965263Y-141631955D01*
X120774786Y-141965288D02*
X120774786Y-142631955D01*
X121012882Y-141584336D02*
X121250977Y-142298622D01*
X120631929Y-142298622D01*
X121007143Y-132580953D02*
X121054762Y-132533334D01*
X121102381Y-132390477D01*
X121102381Y-132295239D01*
X121054762Y-132152381D01*
X120959524Y-132057143D01*
X120864286Y-132009524D01*
X120673810Y-131961905D01*
X120530952Y-131961905D01*
X120340476Y-132009524D01*
X120245238Y-132057143D01*
X120150000Y-132152381D01*
X120102381Y-132295239D01*
X120102381Y-132390477D01*
X120150000Y-132533334D01*
X120197619Y-132580953D01*
X120435714Y-133438096D02*
X121102381Y-133438096D01*
X120054762Y-133200000D02*
X120769048Y-132961905D01*
X120769048Y-133580953D01*
X120102381Y-134152381D02*
X120102381Y-134247620D01*
X120150000Y-134342858D01*
X120197619Y-134390477D01*
X120292857Y-134438096D01*
X120483333Y-134485715D01*
X120721429Y-134485715D01*
X120911905Y-134438096D01*
X121007143Y-134390477D01*
X121054762Y-134342858D01*
X121102381Y-134247620D01*
X121102381Y-134152381D01*
X121054762Y-134057143D01*
X121007143Y-134009524D01*
X120911905Y-133961905D01*
X120721429Y-133914286D01*
X120483333Y-133914286D01*
X120292857Y-133961905D01*
X120197619Y-134009524D01*
X120150000Y-134057143D01*
X120102381Y-134152381D01*
X120102381Y-135390477D02*
X120102381Y-134914286D01*
X120578571Y-134866667D01*
X120530952Y-134914286D01*
X120483333Y-135009524D01*
X120483333Y-135247620D01*
X120530952Y-135342858D01*
X120578571Y-135390477D01*
X120673810Y-135438096D01*
X120911905Y-135438096D01*
X121007143Y-135390477D01*
X121054762Y-135342858D01*
X121102381Y-135247620D01*
X121102381Y-135009524D01*
X121054762Y-134914286D01*
X121007143Y-134866667D01*
X118407143Y-132530953D02*
X118454762Y-132483334D01*
X118502381Y-132340477D01*
X118502381Y-132245239D01*
X118454762Y-132102381D01*
X118359524Y-132007143D01*
X118264286Y-131959524D01*
X118073810Y-131911905D01*
X117930952Y-131911905D01*
X117740476Y-131959524D01*
X117645238Y-132007143D01*
X117550000Y-132102381D01*
X117502381Y-132245239D01*
X117502381Y-132340477D01*
X117550000Y-132483334D01*
X117597619Y-132530953D01*
X117835714Y-133388096D02*
X118502381Y-133388096D01*
X117454762Y-133150000D02*
X118169048Y-132911905D01*
X118169048Y-133530953D01*
X117502381Y-134102381D02*
X117502381Y-134197620D01*
X117550000Y-134292858D01*
X117597619Y-134340477D01*
X117692857Y-134388096D01*
X117883333Y-134435715D01*
X118121429Y-134435715D01*
X118311905Y-134388096D01*
X118407143Y-134340477D01*
X118454762Y-134292858D01*
X118502381Y-134197620D01*
X118502381Y-134102381D01*
X118454762Y-134007143D01*
X118407143Y-133959524D01*
X118311905Y-133911905D01*
X118121429Y-133864286D01*
X117883333Y-133864286D01*
X117692857Y-133911905D01*
X117597619Y-133959524D01*
X117550000Y-134007143D01*
X117502381Y-134102381D01*
X117502381Y-135292858D02*
X117502381Y-135102381D01*
X117550000Y-135007143D01*
X117597619Y-134959524D01*
X117740476Y-134864286D01*
X117930952Y-134816667D01*
X118311905Y-134816667D01*
X118407143Y-134864286D01*
X118454762Y-134911905D01*
X118502381Y-135007143D01*
X118502381Y-135197620D01*
X118454762Y-135292858D01*
X118407143Y-135340477D01*
X118311905Y-135388096D01*
X118073810Y-135388096D01*
X117978571Y-135340477D01*
X117930952Y-135292858D01*
X117883333Y-135197620D01*
X117883333Y-135007143D01*
X117930952Y-134911905D01*
X117978571Y-134864286D01*
X118073810Y-134816667D01*
X112505220Y-143806316D02*
X112552839Y-143758697D01*
X112600458Y-143615840D01*
X112600458Y-143520602D01*
X112552839Y-143377744D01*
X112457601Y-143282506D01*
X112362363Y-143234887D01*
X112171887Y-143187268D01*
X112029029Y-143187268D01*
X111838553Y-143234887D01*
X111743315Y-143282506D01*
X111648077Y-143377744D01*
X111600458Y-143520602D01*
X111600458Y-143615840D01*
X111648077Y-143758697D01*
X111695696Y-143806316D01*
X111933791Y-144663459D02*
X112600458Y-144663459D01*
X111552839Y-144425363D02*
X112267125Y-144187268D01*
X112267125Y-144806316D01*
X111600458Y-145377744D02*
X111600458Y-145472983D01*
X111648077Y-145568221D01*
X111695696Y-145615840D01*
X111790934Y-145663459D01*
X111981410Y-145711078D01*
X112219506Y-145711078D01*
X112409982Y-145663459D01*
X112505220Y-145615840D01*
X112552839Y-145568221D01*
X112600458Y-145472983D01*
X112600458Y-145377744D01*
X112552839Y-145282506D01*
X112505220Y-145234887D01*
X112409982Y-145187268D01*
X112219506Y-145139649D01*
X111981410Y-145139649D01*
X111790934Y-145187268D01*
X111695696Y-145234887D01*
X111648077Y-145282506D01*
X111600458Y-145377744D01*
X111600458Y-146044411D02*
X111600458Y-146711078D01*
X112600458Y-146282506D01*
X113805220Y-143856316D02*
X113852839Y-143808697D01*
X113900458Y-143665840D01*
X113900458Y-143570602D01*
X113852839Y-143427744D01*
X113757601Y-143332506D01*
X113662363Y-143284887D01*
X113471887Y-143237268D01*
X113329029Y-143237268D01*
X113138553Y-143284887D01*
X113043315Y-143332506D01*
X112948077Y-143427744D01*
X112900458Y-143570602D01*
X112900458Y-143665840D01*
X112948077Y-143808697D01*
X112995696Y-143856316D01*
X113233791Y-144713459D02*
X113900458Y-144713459D01*
X112852839Y-144475363D02*
X113567125Y-144237268D01*
X113567125Y-144856316D01*
X112900458Y-145427744D02*
X112900458Y-145522983D01*
X112948077Y-145618221D01*
X112995696Y-145665840D01*
X113090934Y-145713459D01*
X113281410Y-145761078D01*
X113519506Y-145761078D01*
X113709982Y-145713459D01*
X113805220Y-145665840D01*
X113852839Y-145618221D01*
X113900458Y-145522983D01*
X113900458Y-145427744D01*
X113852839Y-145332506D01*
X113805220Y-145284887D01*
X113709982Y-145237268D01*
X113519506Y-145189649D01*
X113281410Y-145189649D01*
X113090934Y-145237268D01*
X112995696Y-145284887D01*
X112948077Y-145332506D01*
X112900458Y-145427744D01*
X113329029Y-146332506D02*
X113281410Y-146237268D01*
X113233791Y-146189649D01*
X113138553Y-146142030D01*
X113090934Y-146142030D01*
X112995696Y-146189649D01*
X112948077Y-146237268D01*
X112900458Y-146332506D01*
X112900458Y-146522983D01*
X112948077Y-146618221D01*
X112995696Y-146665840D01*
X113090934Y-146713459D01*
X113138553Y-146713459D01*
X113233791Y-146665840D01*
X113281410Y-146618221D01*
X113329029Y-146522983D01*
X113329029Y-146332506D01*
X113376648Y-146237268D01*
X113424267Y-146189649D01*
X113519506Y-146142030D01*
X113709982Y-146142030D01*
X113805220Y-146189649D01*
X113852839Y-146237268D01*
X113900458Y-146332506D01*
X113900458Y-146522983D01*
X113852839Y-146618221D01*
X113805220Y-146665840D01*
X113709982Y-146713459D01*
X113519506Y-146713459D01*
X113424267Y-146665840D01*
X113376648Y-146618221D01*
X113329029Y-146522983D01*
X115169047Y-135007143D02*
X115216666Y-135054762D01*
X115359523Y-135102381D01*
X115454761Y-135102381D01*
X115597619Y-135054762D01*
X115692857Y-134959524D01*
X115740476Y-134864286D01*
X115788095Y-134673810D01*
X115788095Y-134530952D01*
X115740476Y-134340476D01*
X115692857Y-134245238D01*
X115597619Y-134150000D01*
X115454761Y-134102381D01*
X115359523Y-134102381D01*
X115216666Y-134150000D01*
X115169047Y-134197619D01*
X114311904Y-134435714D02*
X114311904Y-135102381D01*
X114550000Y-134054762D02*
X114788095Y-134769048D01*
X114169047Y-134769048D01*
X113264285Y-135102381D02*
X113835714Y-135102381D01*
X113550000Y-135102381D02*
X113550000Y-134102381D01*
X113645238Y-134245238D01*
X113740476Y-134340476D01*
X113835714Y-134388095D01*
X112645238Y-134102381D02*
X112549999Y-134102381D01*
X112454761Y-134150000D01*
X112407142Y-134197619D01*
X112359523Y-134292857D01*
X112311904Y-134483333D01*
X112311904Y-134721429D01*
X112359523Y-134911905D01*
X112407142Y-135007143D01*
X112454761Y-135054762D01*
X112549999Y-135102381D01*
X112645238Y-135102381D01*
X112740476Y-135054762D01*
X112788095Y-135007143D01*
X112835714Y-134911905D01*
X112883333Y-134721429D01*
X112883333Y-134483333D01*
X112835714Y-134292857D01*
X112788095Y-134197619D01*
X112740476Y-134150000D01*
X112645238Y-134102381D01*
X132672381Y-164609524D02*
X131672381Y-164609524D01*
X131672381Y-164847619D01*
X131720000Y-164990477D01*
X131815238Y-165085715D01*
X131910476Y-165133334D01*
X132100952Y-165180953D01*
X132243810Y-165180953D01*
X132434286Y-165133334D01*
X132529524Y-165085715D01*
X132624762Y-164990477D01*
X132672381Y-164847619D01*
X132672381Y-164609524D01*
X132672381Y-166133334D02*
X132672381Y-165561905D01*
X132672381Y-165847619D02*
X131672381Y-165847619D01*
X131815238Y-165752381D01*
X131910476Y-165657143D01*
X131958095Y-165561905D01*
X131672381Y-166752381D02*
X131672381Y-166847620D01*
X131720000Y-166942858D01*
X131767619Y-166990477D01*
X131862857Y-167038096D01*
X132053333Y-167085715D01*
X132291429Y-167085715D01*
X132481905Y-167038096D01*
X132577143Y-166990477D01*
X132624762Y-166942858D01*
X132672381Y-166847620D01*
X132672381Y-166752381D01*
X132624762Y-166657143D01*
X132577143Y-166609524D01*
X132481905Y-166561905D01*
X132291429Y-166514286D01*
X132053333Y-166514286D01*
X131862857Y-166561905D01*
X131767619Y-166609524D01*
X131720000Y-166657143D01*
X131672381Y-166752381D01*
X132672381Y-168038096D02*
X132672381Y-167466667D01*
X132672381Y-167752381D02*
X131672381Y-167752381D01*
X131815238Y-167657143D01*
X131910476Y-167561905D01*
X131958095Y-167466667D01*
X142772381Y-118709524D02*
X141772381Y-118709524D01*
X141772381Y-118947619D01*
X141820000Y-119090477D01*
X141915238Y-119185715D01*
X142010476Y-119233334D01*
X142200952Y-119280953D01*
X142343810Y-119280953D01*
X142534286Y-119233334D01*
X142629524Y-119185715D01*
X142724762Y-119090477D01*
X142772381Y-118947619D01*
X142772381Y-118709524D01*
X142772381Y-120233334D02*
X142772381Y-119661905D01*
X142772381Y-119947619D02*
X141772381Y-119947619D01*
X141915238Y-119852381D01*
X142010476Y-119757143D01*
X142058095Y-119661905D01*
X141772381Y-120852381D02*
X141772381Y-120947620D01*
X141820000Y-121042858D01*
X141867619Y-121090477D01*
X141962857Y-121138096D01*
X142153333Y-121185715D01*
X142391429Y-121185715D01*
X142581905Y-121138096D01*
X142677143Y-121090477D01*
X142724762Y-121042858D01*
X142772381Y-120947620D01*
X142772381Y-120852381D01*
X142724762Y-120757143D01*
X142677143Y-120709524D01*
X142581905Y-120661905D01*
X142391429Y-120614286D01*
X142153333Y-120614286D01*
X141962857Y-120661905D01*
X141867619Y-120709524D01*
X141820000Y-120757143D01*
X141772381Y-120852381D01*
X141867619Y-121566667D02*
X141820000Y-121614286D01*
X141772381Y-121709524D01*
X141772381Y-121947620D01*
X141820000Y-122042858D01*
X141867619Y-122090477D01*
X141962857Y-122138096D01*
X142058095Y-122138096D01*
X142200952Y-122090477D01*
X142772381Y-121519048D01*
X142772381Y-122138096D01*
X125152381Y-126659524D02*
X124152381Y-126659524D01*
X124152381Y-126897619D01*
X124200000Y-127040477D01*
X124295238Y-127135715D01*
X124390476Y-127183334D01*
X124580952Y-127230953D01*
X124723810Y-127230953D01*
X124914286Y-127183334D01*
X125009524Y-127135715D01*
X125104762Y-127040477D01*
X125152381Y-126897619D01*
X125152381Y-126659524D01*
X125152381Y-128183334D02*
X125152381Y-127611905D01*
X125152381Y-127897619D02*
X124152381Y-127897619D01*
X124295238Y-127802381D01*
X124390476Y-127707143D01*
X124438095Y-127611905D01*
X124152381Y-128802381D02*
X124152381Y-128897620D01*
X124200000Y-128992858D01*
X124247619Y-129040477D01*
X124342857Y-129088096D01*
X124533333Y-129135715D01*
X124771429Y-129135715D01*
X124961905Y-129088096D01*
X125057143Y-129040477D01*
X125104762Y-128992858D01*
X125152381Y-128897620D01*
X125152381Y-128802381D01*
X125104762Y-128707143D01*
X125057143Y-128659524D01*
X124961905Y-128611905D01*
X124771429Y-128564286D01*
X124533333Y-128564286D01*
X124342857Y-128611905D01*
X124247619Y-128659524D01*
X124200000Y-128707143D01*
X124152381Y-128802381D01*
X124152381Y-129469048D02*
X124152381Y-130088096D01*
X124533333Y-129754762D01*
X124533333Y-129897620D01*
X124580952Y-129992858D01*
X124628571Y-130040477D01*
X124723810Y-130088096D01*
X124961905Y-130088096D01*
X125057143Y-130040477D01*
X125104762Y-129992858D01*
X125152381Y-129897620D01*
X125152381Y-129611905D01*
X125104762Y-129516667D01*
X125057143Y-129469048D01*
X141551405Y-113925178D02*
X140551405Y-113925178D01*
X140551405Y-114163273D01*
X140599024Y-114306131D01*
X140694262Y-114401369D01*
X140789500Y-114448988D01*
X140979976Y-114496607D01*
X141122834Y-114496607D01*
X141313310Y-114448988D01*
X141408548Y-114401369D01*
X141503786Y-114306131D01*
X141551405Y-114163273D01*
X141551405Y-113925178D01*
X141551405Y-115448988D02*
X141551405Y-114877559D01*
X141551405Y-115163273D02*
X140551405Y-115163273D01*
X140694262Y-115068035D01*
X140789500Y-114972797D01*
X140837119Y-114877559D01*
X140551405Y-116068035D02*
X140551405Y-116163274D01*
X140599024Y-116258512D01*
X140646643Y-116306131D01*
X140741881Y-116353750D01*
X140932357Y-116401369D01*
X141170453Y-116401369D01*
X141360929Y-116353750D01*
X141456167Y-116306131D01*
X141503786Y-116258512D01*
X141551405Y-116163274D01*
X141551405Y-116068035D01*
X141503786Y-115972797D01*
X141456167Y-115925178D01*
X141360929Y-115877559D01*
X141170453Y-115829940D01*
X140932357Y-115829940D01*
X140741881Y-115877559D01*
X140646643Y-115925178D01*
X140599024Y-115972797D01*
X140551405Y-116068035D01*
X140884738Y-117258512D02*
X141551405Y-117258512D01*
X140503786Y-117020416D02*
X141218072Y-116782321D01*
X141218072Y-117401369D01*
X134790476Y-149852381D02*
X134790476Y-148852381D01*
X134552381Y-148852381D01*
X134409523Y-148900000D01*
X134314285Y-148995238D01*
X134266666Y-149090476D01*
X134219047Y-149280952D01*
X134219047Y-149423810D01*
X134266666Y-149614286D01*
X134314285Y-149709524D01*
X134409523Y-149804762D01*
X134552381Y-149852381D01*
X134790476Y-149852381D01*
X133266666Y-149852381D02*
X133838095Y-149852381D01*
X133552381Y-149852381D02*
X133552381Y-148852381D01*
X133647619Y-148995238D01*
X133742857Y-149090476D01*
X133838095Y-149138095D01*
X132647619Y-148852381D02*
X132552380Y-148852381D01*
X132457142Y-148900000D01*
X132409523Y-148947619D01*
X132361904Y-149042857D01*
X132314285Y-149233333D01*
X132314285Y-149471429D01*
X132361904Y-149661905D01*
X132409523Y-149757143D01*
X132457142Y-149804762D01*
X132552380Y-149852381D01*
X132647619Y-149852381D01*
X132742857Y-149804762D01*
X132790476Y-149757143D01*
X132838095Y-149661905D01*
X132885714Y-149471429D01*
X132885714Y-149233333D01*
X132838095Y-149042857D01*
X132790476Y-148947619D01*
X132742857Y-148900000D01*
X132647619Y-148852381D01*
X131409523Y-148852381D02*
X131885714Y-148852381D01*
X131933333Y-149328571D01*
X131885714Y-149280952D01*
X131790476Y-149233333D01*
X131552380Y-149233333D01*
X131457142Y-149280952D01*
X131409523Y-149328571D01*
X131361904Y-149423810D01*
X131361904Y-149661905D01*
X131409523Y-149757143D01*
X131457142Y-149804762D01*
X131552380Y-149852381D01*
X131790476Y-149852381D01*
X131885714Y-149804762D01*
X131933333Y-149757143D01*
X134740476Y-154752381D02*
X134740476Y-153752381D01*
X134502381Y-153752381D01*
X134359523Y-153800000D01*
X134264285Y-153895238D01*
X134216666Y-153990476D01*
X134169047Y-154180952D01*
X134169047Y-154323810D01*
X134216666Y-154514286D01*
X134264285Y-154609524D01*
X134359523Y-154704762D01*
X134502381Y-154752381D01*
X134740476Y-154752381D01*
X133216666Y-154752381D02*
X133788095Y-154752381D01*
X133502381Y-154752381D02*
X133502381Y-153752381D01*
X133597619Y-153895238D01*
X133692857Y-153990476D01*
X133788095Y-154038095D01*
X132597619Y-153752381D02*
X132502380Y-153752381D01*
X132407142Y-153800000D01*
X132359523Y-153847619D01*
X132311904Y-153942857D01*
X132264285Y-154133333D01*
X132264285Y-154371429D01*
X132311904Y-154561905D01*
X132359523Y-154657143D01*
X132407142Y-154704762D01*
X132502380Y-154752381D01*
X132597619Y-154752381D01*
X132692857Y-154704762D01*
X132740476Y-154657143D01*
X132788095Y-154561905D01*
X132835714Y-154371429D01*
X132835714Y-154133333D01*
X132788095Y-153942857D01*
X132740476Y-153847619D01*
X132692857Y-153800000D01*
X132597619Y-153752381D01*
X131407142Y-153752381D02*
X131597619Y-153752381D01*
X131692857Y-153800000D01*
X131740476Y-153847619D01*
X131835714Y-153990476D01*
X131883333Y-154180952D01*
X131883333Y-154561905D01*
X131835714Y-154657143D01*
X131788095Y-154704762D01*
X131692857Y-154752381D01*
X131502380Y-154752381D01*
X131407142Y-154704762D01*
X131359523Y-154657143D01*
X131311904Y-154561905D01*
X131311904Y-154323810D01*
X131359523Y-154228571D01*
X131407142Y-154180952D01*
X131502380Y-154133333D01*
X131692857Y-154133333D01*
X131788095Y-154180952D01*
X131835714Y-154228571D01*
X131883333Y-154323810D01*
X148472381Y-152144286D02*
X149186667Y-152144286D01*
X149329524Y-152096666D01*
X149424762Y-152001428D01*
X149472381Y-151858571D01*
X149472381Y-151763333D01*
X149472381Y-153144286D02*
X149472381Y-152572857D01*
X149472381Y-152858571D02*
X148472381Y-152858571D01*
X148615238Y-152763333D01*
X148710476Y-152668095D01*
X148758095Y-152572857D01*
X148472381Y-153763333D02*
X148472381Y-153858572D01*
X148520000Y-153953810D01*
X148567619Y-154001429D01*
X148662857Y-154049048D01*
X148853333Y-154096667D01*
X149091429Y-154096667D01*
X149281905Y-154049048D01*
X149377143Y-154001429D01*
X149424762Y-153953810D01*
X149472381Y-153858572D01*
X149472381Y-153763333D01*
X149424762Y-153668095D01*
X149377143Y-153620476D01*
X149281905Y-153572857D01*
X149091429Y-153525238D01*
X148853333Y-153525238D01*
X148662857Y-153572857D01*
X148567619Y-153620476D01*
X148520000Y-153668095D01*
X148472381Y-153763333D01*
X148472381Y-155001429D02*
X148472381Y-154525238D01*
X148948571Y-154477619D01*
X148900952Y-154525238D01*
X148853333Y-154620476D01*
X148853333Y-154858572D01*
X148900952Y-154953810D01*
X148948571Y-155001429D01*
X149043810Y-155049048D01*
X149281905Y-155049048D01*
X149377143Y-155001429D01*
X149424762Y-154953810D01*
X149472381Y-154858572D01*
X149472381Y-154620476D01*
X149424762Y-154525238D01*
X149377143Y-154477619D01*
X144852381Y-120614286D02*
X145566667Y-120614286D01*
X145709524Y-120566666D01*
X145804762Y-120471428D01*
X145852381Y-120328571D01*
X145852381Y-120233333D01*
X145852381Y-121614286D02*
X145852381Y-121042857D01*
X145852381Y-121328571D02*
X144852381Y-121328571D01*
X144995238Y-121233333D01*
X145090476Y-121138095D01*
X145138095Y-121042857D01*
X144852381Y-122233333D02*
X144852381Y-122328572D01*
X144900000Y-122423810D01*
X144947619Y-122471429D01*
X145042857Y-122519048D01*
X145233333Y-122566667D01*
X145471429Y-122566667D01*
X145661905Y-122519048D01*
X145757143Y-122471429D01*
X145804762Y-122423810D01*
X145852381Y-122328572D01*
X145852381Y-122233333D01*
X145804762Y-122138095D01*
X145757143Y-122090476D01*
X145661905Y-122042857D01*
X145471429Y-121995238D01*
X145233333Y-121995238D01*
X145042857Y-122042857D01*
X144947619Y-122090476D01*
X144900000Y-122138095D01*
X144852381Y-122233333D01*
X145280952Y-123138095D02*
X145233333Y-123042857D01*
X145185714Y-122995238D01*
X145090476Y-122947619D01*
X145042857Y-122947619D01*
X144947619Y-122995238D01*
X144900000Y-123042857D01*
X144852381Y-123138095D01*
X144852381Y-123328572D01*
X144900000Y-123423810D01*
X144947619Y-123471429D01*
X145042857Y-123519048D01*
X145090476Y-123519048D01*
X145185714Y-123471429D01*
X145233333Y-123423810D01*
X145280952Y-123328572D01*
X145280952Y-123138095D01*
X145328571Y-123042857D01*
X145376190Y-122995238D01*
X145471429Y-122947619D01*
X145661905Y-122947619D01*
X145757143Y-122995238D01*
X145804762Y-123042857D01*
X145852381Y-123138095D01*
X145852381Y-123328572D01*
X145804762Y-123423810D01*
X145757143Y-123471429D01*
X145661905Y-123519048D01*
X145471429Y-123519048D01*
X145376190Y-123471429D01*
X145328571Y-123423810D01*
X145280952Y-123328572D01*
X115102381Y-120344286D02*
X115816667Y-120344286D01*
X115959524Y-120296666D01*
X116054762Y-120201428D01*
X116102381Y-120058571D01*
X116102381Y-119963333D01*
X116102381Y-121344286D02*
X116102381Y-120772857D01*
X116102381Y-121058571D02*
X115102381Y-121058571D01*
X115245238Y-120963333D01*
X115340476Y-120868095D01*
X115388095Y-120772857D01*
X115102381Y-121963333D02*
X115102381Y-122058572D01*
X115150000Y-122153810D01*
X115197619Y-122201429D01*
X115292857Y-122249048D01*
X115483333Y-122296667D01*
X115721429Y-122296667D01*
X115911905Y-122249048D01*
X116007143Y-122201429D01*
X116054762Y-122153810D01*
X116102381Y-122058572D01*
X116102381Y-121963333D01*
X116054762Y-121868095D01*
X116007143Y-121820476D01*
X115911905Y-121772857D01*
X115721429Y-121725238D01*
X115483333Y-121725238D01*
X115292857Y-121772857D01*
X115197619Y-121820476D01*
X115150000Y-121868095D01*
X115102381Y-121963333D01*
X116102381Y-122772857D02*
X116102381Y-122963333D01*
X116054762Y-123058572D01*
X116007143Y-123106191D01*
X115864286Y-123201429D01*
X115673810Y-123249048D01*
X115292857Y-123249048D01*
X115197619Y-123201429D01*
X115150000Y-123153810D01*
X115102381Y-123058572D01*
X115102381Y-122868095D01*
X115150000Y-122772857D01*
X115197619Y-122725238D01*
X115292857Y-122677619D01*
X115530952Y-122677619D01*
X115626190Y-122725238D01*
X115673810Y-122772857D01*
X115721429Y-122868095D01*
X115721429Y-123058572D01*
X115673810Y-123153810D01*
X115626190Y-123201429D01*
X115530952Y-123249048D01*
X120019047Y-159552381D02*
X120495238Y-159552381D01*
X120495238Y-158552381D01*
X119161904Y-159552381D02*
X119733333Y-159552381D01*
X119447619Y-159552381D02*
X119447619Y-158552381D01*
X119542857Y-158695238D01*
X119638095Y-158790476D01*
X119733333Y-158838095D01*
X118542857Y-158552381D02*
X118447618Y-158552381D01*
X118352380Y-158600000D01*
X118304761Y-158647619D01*
X118257142Y-158742857D01*
X118209523Y-158933333D01*
X118209523Y-159171429D01*
X118257142Y-159361905D01*
X118304761Y-159457143D01*
X118352380Y-159504762D01*
X118447618Y-159552381D01*
X118542857Y-159552381D01*
X118638095Y-159504762D01*
X118685714Y-159457143D01*
X118733333Y-159361905D01*
X118780952Y-159171429D01*
X118780952Y-158933333D01*
X118733333Y-158742857D01*
X118685714Y-158647619D01*
X118638095Y-158600000D01*
X118542857Y-158552381D01*
X117257142Y-159552381D02*
X117828571Y-159552381D01*
X117542857Y-159552381D02*
X117542857Y-158552381D01*
X117638095Y-158695238D01*
X117733333Y-158790476D01*
X117828571Y-158838095D01*
X101897619Y-153552381D02*
X101850000Y-153457143D01*
X101754762Y-153361905D01*
X101611905Y-153219048D01*
X101564286Y-153123809D01*
X101564286Y-153028571D01*
X101802381Y-153076190D02*
X101754762Y-152980952D01*
X101659524Y-152885714D01*
X101469048Y-152838095D01*
X101135714Y-152838095D01*
X100945238Y-152885714D01*
X100850000Y-152980952D01*
X100802381Y-153076190D01*
X100802381Y-153266667D01*
X100850000Y-153361905D01*
X100945238Y-153457143D01*
X101135714Y-153504762D01*
X101469048Y-153504762D01*
X101659524Y-153457143D01*
X101754762Y-153361905D01*
X101802381Y-153266667D01*
X101802381Y-153076190D01*
X101802381Y-154457143D02*
X101802381Y-153885714D01*
X101802381Y-154171428D02*
X100802381Y-154171428D01*
X100945238Y-154076190D01*
X101040476Y-153980952D01*
X101088095Y-153885714D01*
X100802381Y-155076190D02*
X100802381Y-155171429D01*
X100850000Y-155266667D01*
X100897619Y-155314286D01*
X100992857Y-155361905D01*
X101183333Y-155409524D01*
X101421429Y-155409524D01*
X101611905Y-155361905D01*
X101707143Y-155314286D01*
X101754762Y-155266667D01*
X101802381Y-155171429D01*
X101802381Y-155076190D01*
X101754762Y-154980952D01*
X101707143Y-154933333D01*
X101611905Y-154885714D01*
X101421429Y-154838095D01*
X101183333Y-154838095D01*
X100992857Y-154885714D01*
X100897619Y-154933333D01*
X100850000Y-154980952D01*
X100802381Y-155076190D01*
X101802381Y-156361905D02*
X101802381Y-155790476D01*
X101802381Y-156076190D02*
X100802381Y-156076190D01*
X100945238Y-155980952D01*
X101040476Y-155885714D01*
X101088095Y-155790476D01*
X134219047Y-155152381D02*
X134552381Y-154676190D01*
X134790476Y-155152381D02*
X134790476Y-154152381D01*
X134409523Y-154152381D01*
X134314285Y-154200000D01*
X134266666Y-154247619D01*
X134219047Y-154342857D01*
X134219047Y-154485714D01*
X134266666Y-154580952D01*
X134314285Y-154628571D01*
X134409523Y-154676190D01*
X134790476Y-154676190D01*
X133266666Y-155152381D02*
X133838095Y-155152381D01*
X133552381Y-155152381D02*
X133552381Y-154152381D01*
X133647619Y-154295238D01*
X133742857Y-154390476D01*
X133838095Y-154438095D01*
X132647619Y-154152381D02*
X132552380Y-154152381D01*
X132457142Y-154200000D01*
X132409523Y-154247619D01*
X132361904Y-154342857D01*
X132314285Y-154533333D01*
X132314285Y-154771429D01*
X132361904Y-154961905D01*
X132409523Y-155057143D01*
X132457142Y-155104762D01*
X132552380Y-155152381D01*
X132647619Y-155152381D01*
X132742857Y-155104762D01*
X132790476Y-155057143D01*
X132838095Y-154961905D01*
X132885714Y-154771429D01*
X132885714Y-154533333D01*
X132838095Y-154342857D01*
X132790476Y-154247619D01*
X132742857Y-154200000D01*
X132647619Y-154152381D01*
X131933333Y-154247619D02*
X131885714Y-154200000D01*
X131790476Y-154152381D01*
X131552380Y-154152381D01*
X131457142Y-154200000D01*
X131409523Y-154247619D01*
X131361904Y-154342857D01*
X131361904Y-154438095D01*
X131409523Y-154580952D01*
X131980952Y-155152381D01*
X131361904Y-155152381D01*
X134219047Y-152602381D02*
X134552381Y-152126190D01*
X134790476Y-152602381D02*
X134790476Y-151602381D01*
X134409523Y-151602381D01*
X134314285Y-151650000D01*
X134266666Y-151697619D01*
X134219047Y-151792857D01*
X134219047Y-151935714D01*
X134266666Y-152030952D01*
X134314285Y-152078571D01*
X134409523Y-152126190D01*
X134790476Y-152126190D01*
X133266666Y-152602381D02*
X133838095Y-152602381D01*
X133552381Y-152602381D02*
X133552381Y-151602381D01*
X133647619Y-151745238D01*
X133742857Y-151840476D01*
X133838095Y-151888095D01*
X132647619Y-151602381D02*
X132552380Y-151602381D01*
X132457142Y-151650000D01*
X132409523Y-151697619D01*
X132361904Y-151792857D01*
X132314285Y-151983333D01*
X132314285Y-152221429D01*
X132361904Y-152411905D01*
X132409523Y-152507143D01*
X132457142Y-152554762D01*
X132552380Y-152602381D01*
X132647619Y-152602381D01*
X132742857Y-152554762D01*
X132790476Y-152507143D01*
X132838095Y-152411905D01*
X132885714Y-152221429D01*
X132885714Y-151983333D01*
X132838095Y-151792857D01*
X132790476Y-151697619D01*
X132742857Y-151650000D01*
X132647619Y-151602381D01*
X131980952Y-151602381D02*
X131361904Y-151602381D01*
X131695238Y-151983333D01*
X131552380Y-151983333D01*
X131457142Y-152030952D01*
X131409523Y-152078571D01*
X131361904Y-152173810D01*
X131361904Y-152411905D01*
X131409523Y-152507143D01*
X131457142Y-152554762D01*
X131552380Y-152602381D01*
X131838095Y-152602381D01*
X131933333Y-152554762D01*
X131980952Y-152507143D01*
X133519047Y-106902381D02*
X133852381Y-106426190D01*
X134090476Y-106902381D02*
X134090476Y-105902381D01*
X133709523Y-105902381D01*
X133614285Y-105950000D01*
X133566666Y-105997619D01*
X133519047Y-106092857D01*
X133519047Y-106235714D01*
X133566666Y-106330952D01*
X133614285Y-106378571D01*
X133709523Y-106426190D01*
X134090476Y-106426190D01*
X132566666Y-106902381D02*
X133138095Y-106902381D01*
X132852381Y-106902381D02*
X132852381Y-105902381D01*
X132947619Y-106045238D01*
X133042857Y-106140476D01*
X133138095Y-106188095D01*
X131947619Y-105902381D02*
X131852380Y-105902381D01*
X131757142Y-105950000D01*
X131709523Y-105997619D01*
X131661904Y-106092857D01*
X131614285Y-106283333D01*
X131614285Y-106521429D01*
X131661904Y-106711905D01*
X131709523Y-106807143D01*
X131757142Y-106854762D01*
X131852380Y-106902381D01*
X131947619Y-106902381D01*
X132042857Y-106854762D01*
X132090476Y-106807143D01*
X132138095Y-106711905D01*
X132185714Y-106521429D01*
X132185714Y-106283333D01*
X132138095Y-106092857D01*
X132090476Y-105997619D01*
X132042857Y-105950000D01*
X131947619Y-105902381D01*
X130757142Y-106235714D02*
X130757142Y-106902381D01*
X130995238Y-105854762D02*
X131233333Y-106569048D01*
X130614285Y-106569048D01*
X133619047Y-108902381D02*
X133952381Y-108426190D01*
X134190476Y-108902381D02*
X134190476Y-107902381D01*
X133809523Y-107902381D01*
X133714285Y-107950000D01*
X133666666Y-107997619D01*
X133619047Y-108092857D01*
X133619047Y-108235714D01*
X133666666Y-108330952D01*
X133714285Y-108378571D01*
X133809523Y-108426190D01*
X134190476Y-108426190D01*
X132666666Y-108902381D02*
X133238095Y-108902381D01*
X132952381Y-108902381D02*
X132952381Y-107902381D01*
X133047619Y-108045238D01*
X133142857Y-108140476D01*
X133238095Y-108188095D01*
X132047619Y-107902381D02*
X131952380Y-107902381D01*
X131857142Y-107950000D01*
X131809523Y-107997619D01*
X131761904Y-108092857D01*
X131714285Y-108283333D01*
X131714285Y-108521429D01*
X131761904Y-108711905D01*
X131809523Y-108807143D01*
X131857142Y-108854762D01*
X131952380Y-108902381D01*
X132047619Y-108902381D01*
X132142857Y-108854762D01*
X132190476Y-108807143D01*
X132238095Y-108711905D01*
X132285714Y-108521429D01*
X132285714Y-108283333D01*
X132238095Y-108092857D01*
X132190476Y-107997619D01*
X132142857Y-107950000D01*
X132047619Y-107902381D01*
X130809523Y-107902381D02*
X131285714Y-107902381D01*
X131333333Y-108378571D01*
X131285714Y-108330952D01*
X131190476Y-108283333D01*
X130952380Y-108283333D01*
X130857142Y-108330952D01*
X130809523Y-108378571D01*
X130761904Y-108473810D01*
X130761904Y-108711905D01*
X130809523Y-108807143D01*
X130857142Y-108854762D01*
X130952380Y-108902381D01*
X131190476Y-108902381D01*
X131285714Y-108854762D01*
X131333333Y-108807143D01*
X124327018Y-154629030D02*
X123850827Y-154295696D01*
X124327018Y-154057601D02*
X123327018Y-154057601D01*
X123327018Y-154438554D01*
X123374637Y-154533792D01*
X123422256Y-154581411D01*
X123517494Y-154629030D01*
X123660351Y-154629030D01*
X123755589Y-154581411D01*
X123803208Y-154533792D01*
X123850827Y-154438554D01*
X123850827Y-154057601D01*
X124327018Y-155581411D02*
X124327018Y-155009982D01*
X124327018Y-155295696D02*
X123327018Y-155295696D01*
X123469875Y-155200458D01*
X123565113Y-155105220D01*
X123612732Y-155009982D01*
X123327018Y-156200458D02*
X123327018Y-156295697D01*
X123374637Y-156390935D01*
X123422256Y-156438554D01*
X123517494Y-156486173D01*
X123707970Y-156533792D01*
X123946066Y-156533792D01*
X124136542Y-156486173D01*
X124231780Y-156438554D01*
X124279399Y-156390935D01*
X124327018Y-156295697D01*
X124327018Y-156200458D01*
X124279399Y-156105220D01*
X124231780Y-156057601D01*
X124136542Y-156009982D01*
X123946066Y-155962363D01*
X123707970Y-155962363D01*
X123517494Y-156009982D01*
X123422256Y-156057601D01*
X123374637Y-156105220D01*
X123327018Y-156200458D01*
X123327018Y-157390935D02*
X123327018Y-157200458D01*
X123374637Y-157105220D01*
X123422256Y-157057601D01*
X123565113Y-156962363D01*
X123755589Y-156914744D01*
X124136542Y-156914744D01*
X124231780Y-156962363D01*
X124279399Y-157009982D01*
X124327018Y-157105220D01*
X124327018Y-157295697D01*
X124279399Y-157390935D01*
X124231780Y-157438554D01*
X124136542Y-157486173D01*
X123898447Y-157486173D01*
X123803208Y-157438554D01*
X123755589Y-157390935D01*
X123707970Y-157295697D01*
X123707970Y-157105220D01*
X123755589Y-157009982D01*
X123803208Y-156962363D01*
X123898447Y-156914744D01*
X124302381Y-156180953D02*
X123826190Y-155847619D01*
X124302381Y-155609524D02*
X123302381Y-155609524D01*
X123302381Y-155990477D01*
X123350000Y-156085715D01*
X123397619Y-156133334D01*
X123492857Y-156180953D01*
X123635714Y-156180953D01*
X123730952Y-156133334D01*
X123778571Y-156085715D01*
X123826190Y-155990477D01*
X123826190Y-155609524D01*
X124302381Y-157133334D02*
X124302381Y-156561905D01*
X124302381Y-156847619D02*
X123302381Y-156847619D01*
X123445238Y-156752381D01*
X123540476Y-156657143D01*
X123588095Y-156561905D01*
X123302381Y-157752381D02*
X123302381Y-157847620D01*
X123350000Y-157942858D01*
X123397619Y-157990477D01*
X123492857Y-158038096D01*
X123683333Y-158085715D01*
X123921429Y-158085715D01*
X124111905Y-158038096D01*
X124207143Y-157990477D01*
X124254762Y-157942858D01*
X124302381Y-157847620D01*
X124302381Y-157752381D01*
X124254762Y-157657143D01*
X124207143Y-157609524D01*
X124111905Y-157561905D01*
X123921429Y-157514286D01*
X123683333Y-157514286D01*
X123492857Y-157561905D01*
X123397619Y-157609524D01*
X123350000Y-157657143D01*
X123302381Y-157752381D01*
X123302381Y-158419048D02*
X123302381Y-159085715D01*
X124302381Y-158657143D01*
X122302381Y-131130953D02*
X121826190Y-130797619D01*
X122302381Y-130559524D02*
X121302381Y-130559524D01*
X121302381Y-130940477D01*
X121350000Y-131035715D01*
X121397619Y-131083334D01*
X121492857Y-131130953D01*
X121635714Y-131130953D01*
X121730952Y-131083334D01*
X121778571Y-131035715D01*
X121826190Y-130940477D01*
X121826190Y-130559524D01*
X122302381Y-132083334D02*
X122302381Y-131511905D01*
X122302381Y-131797619D02*
X121302381Y-131797619D01*
X121445238Y-131702381D01*
X121540476Y-131607143D01*
X121588095Y-131511905D01*
X121302381Y-132702381D02*
X121302381Y-132797620D01*
X121350000Y-132892858D01*
X121397619Y-132940477D01*
X121492857Y-132988096D01*
X121683333Y-133035715D01*
X121921429Y-133035715D01*
X122111905Y-132988096D01*
X122207143Y-132940477D01*
X122254762Y-132892858D01*
X122302381Y-132797620D01*
X122302381Y-132702381D01*
X122254762Y-132607143D01*
X122207143Y-132559524D01*
X122111905Y-132511905D01*
X121921429Y-132464286D01*
X121683333Y-132464286D01*
X121492857Y-132511905D01*
X121397619Y-132559524D01*
X121350000Y-132607143D01*
X121302381Y-132702381D01*
X121730952Y-133607143D02*
X121683333Y-133511905D01*
X121635714Y-133464286D01*
X121540476Y-133416667D01*
X121492857Y-133416667D01*
X121397619Y-133464286D01*
X121350000Y-133511905D01*
X121302381Y-133607143D01*
X121302381Y-133797620D01*
X121350000Y-133892858D01*
X121397619Y-133940477D01*
X121492857Y-133988096D01*
X121540476Y-133988096D01*
X121635714Y-133940477D01*
X121683333Y-133892858D01*
X121730952Y-133797620D01*
X121730952Y-133607143D01*
X121778571Y-133511905D01*
X121826190Y-133464286D01*
X121921429Y-133416667D01*
X122111905Y-133416667D01*
X122207143Y-133464286D01*
X122254762Y-133511905D01*
X122302381Y-133607143D01*
X122302381Y-133797620D01*
X122254762Y-133892858D01*
X122207143Y-133940477D01*
X122111905Y-133988096D01*
X121921429Y-133988096D01*
X121826190Y-133940477D01*
X121778571Y-133892858D01*
X121730952Y-133797620D01*
X144301405Y-110646607D02*
X143825214Y-110313273D01*
X144301405Y-110075178D02*
X143301405Y-110075178D01*
X143301405Y-110456131D01*
X143349024Y-110551369D01*
X143396643Y-110598988D01*
X143491881Y-110646607D01*
X143634738Y-110646607D01*
X143729976Y-110598988D01*
X143777595Y-110551369D01*
X143825214Y-110456131D01*
X143825214Y-110075178D01*
X144301405Y-111598988D02*
X144301405Y-111027559D01*
X144301405Y-111313273D02*
X143301405Y-111313273D01*
X143444262Y-111218035D01*
X143539500Y-111122797D01*
X143587119Y-111027559D01*
X143301405Y-112218035D02*
X143301405Y-112313274D01*
X143349024Y-112408512D01*
X143396643Y-112456131D01*
X143491881Y-112503750D01*
X143682357Y-112551369D01*
X143920453Y-112551369D01*
X144110929Y-112503750D01*
X144206167Y-112456131D01*
X144253786Y-112408512D01*
X144301405Y-112313274D01*
X144301405Y-112218035D01*
X144253786Y-112122797D01*
X144206167Y-112075178D01*
X144110929Y-112027559D01*
X143920453Y-111979940D01*
X143682357Y-111979940D01*
X143491881Y-112027559D01*
X143396643Y-112075178D01*
X143349024Y-112122797D01*
X143301405Y-112218035D01*
X144301405Y-113027559D02*
X144301405Y-113218035D01*
X144253786Y-113313274D01*
X144206167Y-113360893D01*
X144063310Y-113456131D01*
X143872834Y-113503750D01*
X143491881Y-113503750D01*
X143396643Y-113456131D01*
X143349024Y-113408512D01*
X143301405Y-113313274D01*
X143301405Y-113122797D01*
X143349024Y-113027559D01*
X143396643Y-112979940D01*
X143491881Y-112932321D01*
X143729976Y-112932321D01*
X143825214Y-112979940D01*
X143872834Y-113027559D01*
X143920453Y-113122797D01*
X143920453Y-113313274D01*
X143872834Y-113408512D01*
X143825214Y-113456131D01*
X143729976Y-113503750D01*
X134219047Y-147702381D02*
X134552381Y-147226190D01*
X134790476Y-147702381D02*
X134790476Y-146702381D01*
X134409523Y-146702381D01*
X134314285Y-146750000D01*
X134266666Y-146797619D01*
X134219047Y-146892857D01*
X134219047Y-147035714D01*
X134266666Y-147130952D01*
X134314285Y-147178571D01*
X134409523Y-147226190D01*
X134790476Y-147226190D01*
X133266666Y-147702381D02*
X133838095Y-147702381D01*
X133552381Y-147702381D02*
X133552381Y-146702381D01*
X133647619Y-146845238D01*
X133742857Y-146940476D01*
X133838095Y-146988095D01*
X132314285Y-147702381D02*
X132885714Y-147702381D01*
X132600000Y-147702381D02*
X132600000Y-146702381D01*
X132695238Y-146845238D01*
X132790476Y-146940476D01*
X132885714Y-146988095D01*
X131695238Y-146702381D02*
X131599999Y-146702381D01*
X131504761Y-146750000D01*
X131457142Y-146797619D01*
X131409523Y-146892857D01*
X131361904Y-147083333D01*
X131361904Y-147321429D01*
X131409523Y-147511905D01*
X131457142Y-147607143D01*
X131504761Y-147654762D01*
X131599999Y-147702381D01*
X131695238Y-147702381D01*
X131790476Y-147654762D01*
X131838095Y-147607143D01*
X131885714Y-147511905D01*
X131933333Y-147321429D01*
X131933333Y-147083333D01*
X131885714Y-146892857D01*
X131838095Y-146797619D01*
X131790476Y-146750000D01*
X131695238Y-146702381D01*
X134119047Y-156902381D02*
X134452381Y-156426190D01*
X134690476Y-156902381D02*
X134690476Y-155902381D01*
X134309523Y-155902381D01*
X134214285Y-155950000D01*
X134166666Y-155997619D01*
X134119047Y-156092857D01*
X134119047Y-156235714D01*
X134166666Y-156330952D01*
X134214285Y-156378571D01*
X134309523Y-156426190D01*
X134690476Y-156426190D01*
X133166666Y-156902381D02*
X133738095Y-156902381D01*
X133452381Y-156902381D02*
X133452381Y-155902381D01*
X133547619Y-156045238D01*
X133642857Y-156140476D01*
X133738095Y-156188095D01*
X132214285Y-156902381D02*
X132785714Y-156902381D01*
X132500000Y-156902381D02*
X132500000Y-155902381D01*
X132595238Y-156045238D01*
X132690476Y-156140476D01*
X132785714Y-156188095D01*
X131261904Y-156902381D02*
X131833333Y-156902381D01*
X131547619Y-156902381D02*
X131547619Y-155902381D01*
X131642857Y-156045238D01*
X131738095Y-156140476D01*
X131833333Y-156188095D01*
X131702381Y-126080953D02*
X131226190Y-125747619D01*
X131702381Y-125509524D02*
X130702381Y-125509524D01*
X130702381Y-125890477D01*
X130750000Y-125985715D01*
X130797619Y-126033334D01*
X130892857Y-126080953D01*
X131035714Y-126080953D01*
X131130952Y-126033334D01*
X131178571Y-125985715D01*
X131226190Y-125890477D01*
X131226190Y-125509524D01*
X131702381Y-127033334D02*
X131702381Y-126461905D01*
X131702381Y-126747619D02*
X130702381Y-126747619D01*
X130845238Y-126652381D01*
X130940476Y-126557143D01*
X130988095Y-126461905D01*
X131702381Y-127985715D02*
X131702381Y-127414286D01*
X131702381Y-127700000D02*
X130702381Y-127700000D01*
X130845238Y-127604762D01*
X130940476Y-127509524D01*
X130988095Y-127414286D01*
X130797619Y-128366667D02*
X130750000Y-128414286D01*
X130702381Y-128509524D01*
X130702381Y-128747620D01*
X130750000Y-128842858D01*
X130797619Y-128890477D01*
X130892857Y-128938096D01*
X130988095Y-128938096D01*
X131130952Y-128890477D01*
X131702381Y-128319048D01*
X131702381Y-128938096D01*
X132019047Y-132702381D02*
X132352381Y-132226190D01*
X132590476Y-132702381D02*
X132590476Y-131702381D01*
X132209523Y-131702381D01*
X132114285Y-131750000D01*
X132066666Y-131797619D01*
X132019047Y-131892857D01*
X132019047Y-132035714D01*
X132066666Y-132130952D01*
X132114285Y-132178571D01*
X132209523Y-132226190D01*
X132590476Y-132226190D01*
X131638095Y-131797619D02*
X131590476Y-131750000D01*
X131495238Y-131702381D01*
X131257142Y-131702381D01*
X131161904Y-131750000D01*
X131114285Y-131797619D01*
X131066666Y-131892857D01*
X131066666Y-131988095D01*
X131114285Y-132130952D01*
X131685714Y-132702381D01*
X131066666Y-132702381D01*
X130447619Y-131702381D02*
X130352380Y-131702381D01*
X130257142Y-131750000D01*
X130209523Y-131797619D01*
X130161904Y-131892857D01*
X130114285Y-132083333D01*
X130114285Y-132321429D01*
X130161904Y-132511905D01*
X130209523Y-132607143D01*
X130257142Y-132654762D01*
X130352380Y-132702381D01*
X130447619Y-132702381D01*
X130542857Y-132654762D01*
X130590476Y-132607143D01*
X130638095Y-132511905D01*
X130685714Y-132321429D01*
X130685714Y-132083333D01*
X130638095Y-131892857D01*
X130590476Y-131797619D01*
X130542857Y-131750000D01*
X130447619Y-131702381D01*
X129257142Y-131702381D02*
X129447619Y-131702381D01*
X129542857Y-131750000D01*
X129590476Y-131797619D01*
X129685714Y-131940476D01*
X129733333Y-132130952D01*
X129733333Y-132511905D01*
X129685714Y-132607143D01*
X129638095Y-132654762D01*
X129542857Y-132702381D01*
X129352380Y-132702381D01*
X129257142Y-132654762D01*
X129209523Y-132607143D01*
X129161904Y-132511905D01*
X129161904Y-132273810D01*
X129209523Y-132178571D01*
X129257142Y-132130952D01*
X129352380Y-132083333D01*
X129542857Y-132083333D01*
X129638095Y-132130952D01*
X129685714Y-132178571D01*
X129733333Y-132273810D01*
X146419047Y-150802381D02*
X146752381Y-150326190D01*
X146990476Y-150802381D02*
X146990476Y-149802381D01*
X146609523Y-149802381D01*
X146514285Y-149850000D01*
X146466666Y-149897619D01*
X146419047Y-149992857D01*
X146419047Y-150135714D01*
X146466666Y-150230952D01*
X146514285Y-150278571D01*
X146609523Y-150326190D01*
X146990476Y-150326190D01*
X146038095Y-149897619D02*
X145990476Y-149850000D01*
X145895238Y-149802381D01*
X145657142Y-149802381D01*
X145561904Y-149850000D01*
X145514285Y-149897619D01*
X145466666Y-149992857D01*
X145466666Y-150088095D01*
X145514285Y-150230952D01*
X146085714Y-150802381D01*
X145466666Y-150802381D01*
X144847619Y-149802381D02*
X144752380Y-149802381D01*
X144657142Y-149850000D01*
X144609523Y-149897619D01*
X144561904Y-149992857D01*
X144514285Y-150183333D01*
X144514285Y-150421429D01*
X144561904Y-150611905D01*
X144609523Y-150707143D01*
X144657142Y-150754762D01*
X144752380Y-150802381D01*
X144847619Y-150802381D01*
X144942857Y-150754762D01*
X144990476Y-150707143D01*
X145038095Y-150611905D01*
X145085714Y-150421429D01*
X145085714Y-150183333D01*
X145038095Y-149992857D01*
X144990476Y-149897619D01*
X144942857Y-149850000D01*
X144847619Y-149802381D01*
X144180952Y-149802381D02*
X143514285Y-149802381D01*
X143942857Y-150802381D01*
X133352381Y-112830953D02*
X132876190Y-112497619D01*
X133352381Y-112259524D02*
X132352381Y-112259524D01*
X132352381Y-112640477D01*
X132400000Y-112735715D01*
X132447619Y-112783334D01*
X132542857Y-112830953D01*
X132685714Y-112830953D01*
X132780952Y-112783334D01*
X132828571Y-112735715D01*
X132876190Y-112640477D01*
X132876190Y-112259524D01*
X132352381Y-113164286D02*
X132352381Y-113783334D01*
X132733333Y-113450000D01*
X132733333Y-113592858D01*
X132780952Y-113688096D01*
X132828571Y-113735715D01*
X132923810Y-113783334D01*
X133161905Y-113783334D01*
X133257143Y-113735715D01*
X133304762Y-113688096D01*
X133352381Y-113592858D01*
X133352381Y-113307143D01*
X133304762Y-113211905D01*
X133257143Y-113164286D01*
X132352381Y-114402381D02*
X132352381Y-114497620D01*
X132400000Y-114592858D01*
X132447619Y-114640477D01*
X132542857Y-114688096D01*
X132733333Y-114735715D01*
X132971429Y-114735715D01*
X133161905Y-114688096D01*
X133257143Y-114640477D01*
X133304762Y-114592858D01*
X133352381Y-114497620D01*
X133352381Y-114402381D01*
X133304762Y-114307143D01*
X133257143Y-114259524D01*
X133161905Y-114211905D01*
X132971429Y-114164286D01*
X132733333Y-114164286D01*
X132542857Y-114211905D01*
X132447619Y-114259524D01*
X132400000Y-114307143D01*
X132352381Y-114402381D01*
X133352381Y-115688096D02*
X133352381Y-115116667D01*
X133352381Y-115402381D02*
X132352381Y-115402381D01*
X132495238Y-115307143D01*
X132590476Y-115211905D01*
X132638095Y-115116667D01*
X121519047Y-127602381D02*
X121852381Y-127126190D01*
X122090476Y-127602381D02*
X122090476Y-126602381D01*
X121709523Y-126602381D01*
X121614285Y-126650000D01*
X121566666Y-126697619D01*
X121519047Y-126792857D01*
X121519047Y-126935714D01*
X121566666Y-127030952D01*
X121614285Y-127078571D01*
X121709523Y-127126190D01*
X122090476Y-127126190D01*
X121185714Y-126602381D02*
X120566666Y-126602381D01*
X120900000Y-126983333D01*
X120757142Y-126983333D01*
X120661904Y-127030952D01*
X120614285Y-127078571D01*
X120566666Y-127173810D01*
X120566666Y-127411905D01*
X120614285Y-127507143D01*
X120661904Y-127554762D01*
X120757142Y-127602381D01*
X121042857Y-127602381D01*
X121138095Y-127554762D01*
X121185714Y-127507143D01*
X119947619Y-126602381D02*
X119852380Y-126602381D01*
X119757142Y-126650000D01*
X119709523Y-126697619D01*
X119661904Y-126792857D01*
X119614285Y-126983333D01*
X119614285Y-127221429D01*
X119661904Y-127411905D01*
X119709523Y-127507143D01*
X119757142Y-127554762D01*
X119852380Y-127602381D01*
X119947619Y-127602381D01*
X120042857Y-127554762D01*
X120090476Y-127507143D01*
X120138095Y-127411905D01*
X120185714Y-127221429D01*
X120185714Y-126983333D01*
X120138095Y-126792857D01*
X120090476Y-126697619D01*
X120042857Y-126650000D01*
X119947619Y-126602381D01*
X118757142Y-126935714D02*
X118757142Y-127602381D01*
X118995238Y-126554762D02*
X119233333Y-127269048D01*
X118614285Y-127269048D01*
X121519047Y-129202381D02*
X121852381Y-128726190D01*
X122090476Y-129202381D02*
X122090476Y-128202381D01*
X121709523Y-128202381D01*
X121614285Y-128250000D01*
X121566666Y-128297619D01*
X121519047Y-128392857D01*
X121519047Y-128535714D01*
X121566666Y-128630952D01*
X121614285Y-128678571D01*
X121709523Y-128726190D01*
X122090476Y-128726190D01*
X121185714Y-128202381D02*
X120566666Y-128202381D01*
X120900000Y-128583333D01*
X120757142Y-128583333D01*
X120661904Y-128630952D01*
X120614285Y-128678571D01*
X120566666Y-128773810D01*
X120566666Y-129011905D01*
X120614285Y-129107143D01*
X120661904Y-129154762D01*
X120757142Y-129202381D01*
X121042857Y-129202381D01*
X121138095Y-129154762D01*
X121185714Y-129107143D01*
X119947619Y-128202381D02*
X119852380Y-128202381D01*
X119757142Y-128250000D01*
X119709523Y-128297619D01*
X119661904Y-128392857D01*
X119614285Y-128583333D01*
X119614285Y-128821429D01*
X119661904Y-129011905D01*
X119709523Y-129107143D01*
X119757142Y-129154762D01*
X119852380Y-129202381D01*
X119947619Y-129202381D01*
X120042857Y-129154762D01*
X120090476Y-129107143D01*
X120138095Y-129011905D01*
X120185714Y-128821429D01*
X120185714Y-128583333D01*
X120138095Y-128392857D01*
X120090476Y-128297619D01*
X120042857Y-128250000D01*
X119947619Y-128202381D01*
X118709523Y-128202381D02*
X119185714Y-128202381D01*
X119233333Y-128678571D01*
X119185714Y-128630952D01*
X119090476Y-128583333D01*
X118852380Y-128583333D01*
X118757142Y-128630952D01*
X118709523Y-128678571D01*
X118661904Y-128773810D01*
X118661904Y-129011905D01*
X118709523Y-129107143D01*
X118757142Y-129154762D01*
X118852380Y-129202381D01*
X119090476Y-129202381D01*
X119185714Y-129154762D01*
X119233333Y-129107143D01*
X116602381Y-118480953D02*
X116126190Y-118147619D01*
X116602381Y-117909524D02*
X115602381Y-117909524D01*
X115602381Y-118290477D01*
X115650000Y-118385715D01*
X115697619Y-118433334D01*
X115792857Y-118480953D01*
X115935714Y-118480953D01*
X116030952Y-118433334D01*
X116078571Y-118385715D01*
X116126190Y-118290477D01*
X116126190Y-117909524D01*
X115602381Y-118814286D02*
X115602381Y-119433334D01*
X115983333Y-119100000D01*
X115983333Y-119242858D01*
X116030952Y-119338096D01*
X116078571Y-119385715D01*
X116173810Y-119433334D01*
X116411905Y-119433334D01*
X116507143Y-119385715D01*
X116554762Y-119338096D01*
X116602381Y-119242858D01*
X116602381Y-118957143D01*
X116554762Y-118861905D01*
X116507143Y-118814286D01*
X115602381Y-120052381D02*
X115602381Y-120147620D01*
X115650000Y-120242858D01*
X115697619Y-120290477D01*
X115792857Y-120338096D01*
X115983333Y-120385715D01*
X116221429Y-120385715D01*
X116411905Y-120338096D01*
X116507143Y-120290477D01*
X116554762Y-120242858D01*
X116602381Y-120147620D01*
X116602381Y-120052381D01*
X116554762Y-119957143D01*
X116507143Y-119909524D01*
X116411905Y-119861905D01*
X116221429Y-119814286D01*
X115983333Y-119814286D01*
X115792857Y-119861905D01*
X115697619Y-119909524D01*
X115650000Y-119957143D01*
X115602381Y-120052381D01*
X115602381Y-121242858D02*
X115602381Y-121052381D01*
X115650000Y-120957143D01*
X115697619Y-120909524D01*
X115840476Y-120814286D01*
X116030952Y-120766667D01*
X116411905Y-120766667D01*
X116507143Y-120814286D01*
X116554762Y-120861905D01*
X116602381Y-120957143D01*
X116602381Y-121147620D01*
X116554762Y-121242858D01*
X116507143Y-121290477D01*
X116411905Y-121338096D01*
X116173810Y-121338096D01*
X116078571Y-121290477D01*
X116030952Y-121242858D01*
X115983333Y-121147620D01*
X115983333Y-120957143D01*
X116030952Y-120861905D01*
X116078571Y-120814286D01*
X116173810Y-120766667D01*
X106902381Y-118580953D02*
X106426190Y-118247619D01*
X106902381Y-118009524D02*
X105902381Y-118009524D01*
X105902381Y-118390477D01*
X105950000Y-118485715D01*
X105997619Y-118533334D01*
X106092857Y-118580953D01*
X106235714Y-118580953D01*
X106330952Y-118533334D01*
X106378571Y-118485715D01*
X106426190Y-118390477D01*
X106426190Y-118009524D01*
X105902381Y-118914286D02*
X105902381Y-119533334D01*
X106283333Y-119200000D01*
X106283333Y-119342858D01*
X106330952Y-119438096D01*
X106378571Y-119485715D01*
X106473810Y-119533334D01*
X106711905Y-119533334D01*
X106807143Y-119485715D01*
X106854762Y-119438096D01*
X106902381Y-119342858D01*
X106902381Y-119057143D01*
X106854762Y-118961905D01*
X106807143Y-118914286D01*
X105902381Y-120152381D02*
X105902381Y-120247620D01*
X105950000Y-120342858D01*
X105997619Y-120390477D01*
X106092857Y-120438096D01*
X106283333Y-120485715D01*
X106521429Y-120485715D01*
X106711905Y-120438096D01*
X106807143Y-120390477D01*
X106854762Y-120342858D01*
X106902381Y-120247620D01*
X106902381Y-120152381D01*
X106854762Y-120057143D01*
X106807143Y-120009524D01*
X106711905Y-119961905D01*
X106521429Y-119914286D01*
X106283333Y-119914286D01*
X106092857Y-119961905D01*
X105997619Y-120009524D01*
X105950000Y-120057143D01*
X105902381Y-120152381D01*
X105902381Y-120819048D02*
X105902381Y-121485715D01*
X106902381Y-121057143D01*
X131552381Y-112780953D02*
X131076190Y-112447619D01*
X131552381Y-112209524D02*
X130552381Y-112209524D01*
X130552381Y-112590477D01*
X130600000Y-112685715D01*
X130647619Y-112733334D01*
X130742857Y-112780953D01*
X130885714Y-112780953D01*
X130980952Y-112733334D01*
X131028571Y-112685715D01*
X131076190Y-112590477D01*
X131076190Y-112209524D01*
X130552381Y-113114286D02*
X130552381Y-113733334D01*
X130933333Y-113400000D01*
X130933333Y-113542858D01*
X130980952Y-113638096D01*
X131028571Y-113685715D01*
X131123810Y-113733334D01*
X131361905Y-113733334D01*
X131457143Y-113685715D01*
X131504762Y-113638096D01*
X131552381Y-113542858D01*
X131552381Y-113257143D01*
X131504762Y-113161905D01*
X131457143Y-113114286D01*
X130552381Y-114352381D02*
X130552381Y-114447620D01*
X130600000Y-114542858D01*
X130647619Y-114590477D01*
X130742857Y-114638096D01*
X130933333Y-114685715D01*
X131171429Y-114685715D01*
X131361905Y-114638096D01*
X131457143Y-114590477D01*
X131504762Y-114542858D01*
X131552381Y-114447620D01*
X131552381Y-114352381D01*
X131504762Y-114257143D01*
X131457143Y-114209524D01*
X131361905Y-114161905D01*
X131171429Y-114114286D01*
X130933333Y-114114286D01*
X130742857Y-114161905D01*
X130647619Y-114209524D01*
X130600000Y-114257143D01*
X130552381Y-114352381D01*
X130980952Y-115257143D02*
X130933333Y-115161905D01*
X130885714Y-115114286D01*
X130790476Y-115066667D01*
X130742857Y-115066667D01*
X130647619Y-115114286D01*
X130600000Y-115161905D01*
X130552381Y-115257143D01*
X130552381Y-115447620D01*
X130600000Y-115542858D01*
X130647619Y-115590477D01*
X130742857Y-115638096D01*
X130790476Y-115638096D01*
X130885714Y-115590477D01*
X130933333Y-115542858D01*
X130980952Y-115447620D01*
X130980952Y-115257143D01*
X131028571Y-115161905D01*
X131076190Y-115114286D01*
X131171429Y-115066667D01*
X131361905Y-115066667D01*
X131457143Y-115114286D01*
X131504762Y-115161905D01*
X131552381Y-115257143D01*
X131552381Y-115447620D01*
X131504762Y-115542858D01*
X131457143Y-115590477D01*
X131361905Y-115638096D01*
X131171429Y-115638096D01*
X131076190Y-115590477D01*
X131028571Y-115542858D01*
X130980952Y-115447620D01*
X114617124Y-149677744D02*
X114950458Y-149201553D01*
X115188553Y-149677744D02*
X115188553Y-148677744D01*
X114807600Y-148677744D01*
X114712362Y-148725363D01*
X114664743Y-148772982D01*
X114617124Y-148868220D01*
X114617124Y-149011077D01*
X114664743Y-149106315D01*
X114712362Y-149153934D01*
X114807600Y-149201553D01*
X115188553Y-149201553D01*
X113759981Y-149011077D02*
X113759981Y-149677744D01*
X113998077Y-148630125D02*
X114236172Y-149344411D01*
X113617124Y-149344411D01*
X113045696Y-148677744D02*
X112950457Y-148677744D01*
X112855219Y-148725363D01*
X112807600Y-148772982D01*
X112759981Y-148868220D01*
X112712362Y-149058696D01*
X112712362Y-149296792D01*
X112759981Y-149487268D01*
X112807600Y-149582506D01*
X112855219Y-149630125D01*
X112950457Y-149677744D01*
X113045696Y-149677744D01*
X113140934Y-149630125D01*
X113188553Y-149582506D01*
X113236172Y-149487268D01*
X113283791Y-149296792D01*
X113283791Y-149058696D01*
X113236172Y-148868220D01*
X113188553Y-148772982D01*
X113140934Y-148725363D01*
X113045696Y-148677744D01*
X112379029Y-148677744D02*
X111759981Y-148677744D01*
X112093315Y-149058696D01*
X111950457Y-149058696D01*
X111855219Y-149106315D01*
X111807600Y-149153934D01*
X111759981Y-149249173D01*
X111759981Y-149487268D01*
X111807600Y-149582506D01*
X111855219Y-149630125D01*
X111950457Y-149677744D01*
X112236172Y-149677744D01*
X112331410Y-149630125D01*
X112379029Y-149582506D01*
X114617124Y-148577744D02*
X114950458Y-148101553D01*
X115188553Y-148577744D02*
X115188553Y-147577744D01*
X114807600Y-147577744D01*
X114712362Y-147625363D01*
X114664743Y-147672982D01*
X114617124Y-147768220D01*
X114617124Y-147911077D01*
X114664743Y-148006315D01*
X114712362Y-148053934D01*
X114807600Y-148101553D01*
X115188553Y-148101553D01*
X113759981Y-147911077D02*
X113759981Y-148577744D01*
X113998077Y-147530125D02*
X114236172Y-148244411D01*
X113617124Y-148244411D01*
X113045696Y-147577744D02*
X112950457Y-147577744D01*
X112855219Y-147625363D01*
X112807600Y-147672982D01*
X112759981Y-147768220D01*
X112712362Y-147958696D01*
X112712362Y-148196792D01*
X112759981Y-148387268D01*
X112807600Y-148482506D01*
X112855219Y-148530125D01*
X112950457Y-148577744D01*
X113045696Y-148577744D01*
X113140934Y-148530125D01*
X113188553Y-148482506D01*
X113236172Y-148387268D01*
X113283791Y-148196792D01*
X113283791Y-147958696D01*
X113236172Y-147768220D01*
X113188553Y-147672982D01*
X113140934Y-147625363D01*
X113045696Y-147577744D01*
X111807600Y-147577744D02*
X112283791Y-147577744D01*
X112331410Y-148053934D01*
X112283791Y-148006315D01*
X112188553Y-147958696D01*
X111950457Y-147958696D01*
X111855219Y-148006315D01*
X111807600Y-148053934D01*
X111759981Y-148149173D01*
X111759981Y-148387268D01*
X111807600Y-148482506D01*
X111855219Y-148530125D01*
X111950457Y-148577744D01*
X112188553Y-148577744D01*
X112283791Y-148530125D01*
X112331410Y-148482506D01*
X107897619Y-139002381D02*
X108230953Y-138526190D01*
X108469048Y-139002381D02*
X108469048Y-138002381D01*
X108088095Y-138002381D01*
X107992857Y-138050000D01*
X107945238Y-138097619D01*
X107897619Y-138192857D01*
X107897619Y-138335714D01*
X107945238Y-138430952D01*
X107992857Y-138478571D01*
X108088095Y-138526190D01*
X108469048Y-138526190D01*
X107611905Y-138002381D02*
X107278572Y-139002381D01*
X106945238Y-138002381D01*
X106183333Y-138335714D02*
X106183333Y-139002381D01*
X106421429Y-137954762D02*
X106659524Y-138669048D01*
X106040476Y-138669048D01*
X105469048Y-138002381D02*
X105373809Y-138002381D01*
X105278571Y-138050000D01*
X105230952Y-138097619D01*
X105183333Y-138192857D01*
X105135714Y-138383333D01*
X105135714Y-138621429D01*
X105183333Y-138811905D01*
X105230952Y-138907143D01*
X105278571Y-138954762D01*
X105373809Y-139002381D01*
X105469048Y-139002381D01*
X105564286Y-138954762D01*
X105611905Y-138907143D01*
X105659524Y-138811905D01*
X105707143Y-138621429D01*
X105707143Y-138383333D01*
X105659524Y-138192857D01*
X105611905Y-138097619D01*
X105564286Y-138050000D01*
X105469048Y-138002381D01*
X104183333Y-139002381D02*
X104754762Y-139002381D01*
X104469048Y-139002381D02*
X104469048Y-138002381D01*
X104564286Y-138145238D01*
X104659524Y-138240476D01*
X104754762Y-138288095D01*
X136314286Y-160552381D02*
X136314286Y-161361905D01*
X136266667Y-161457143D01*
X136219048Y-161504762D01*
X136123810Y-161552381D01*
X135933333Y-161552381D01*
X135838095Y-161504762D01*
X135790476Y-161457143D01*
X135742857Y-161361905D01*
X135742857Y-160552381D01*
X134742857Y-161552381D02*
X135314286Y-161552381D01*
X135028572Y-161552381D02*
X135028572Y-160552381D01*
X135123810Y-160695238D01*
X135219048Y-160790476D01*
X135314286Y-160838095D01*
X134123810Y-160552381D02*
X134028571Y-160552381D01*
X133933333Y-160600000D01*
X133885714Y-160647619D01*
X133838095Y-160742857D01*
X133790476Y-160933333D01*
X133790476Y-161171429D01*
X133838095Y-161361905D01*
X133885714Y-161457143D01*
X133933333Y-161504762D01*
X134028571Y-161552381D01*
X134123810Y-161552381D01*
X134219048Y-161504762D01*
X134266667Y-161457143D01*
X134314286Y-161361905D01*
X134361905Y-161171429D01*
X134361905Y-160933333D01*
X134314286Y-160742857D01*
X134266667Y-160647619D01*
X134219048Y-160600000D01*
X134123810Y-160552381D01*
X132838095Y-161552381D02*
X133409524Y-161552381D01*
X133123810Y-161552381D02*
X133123810Y-160552381D01*
X133219048Y-160695238D01*
X133314286Y-160790476D01*
X133409524Y-160838095D01*
X123296018Y-154533791D02*
X124105542Y-154533791D01*
X124200780Y-154581410D01*
X124248399Y-154629029D01*
X124296018Y-154724267D01*
X124296018Y-154914744D01*
X124248399Y-155009982D01*
X124200780Y-155057601D01*
X124105542Y-155105220D01*
X123296018Y-155105220D01*
X124296018Y-156105220D02*
X124296018Y-155533791D01*
X124296018Y-155819505D02*
X123296018Y-155819505D01*
X123438875Y-155724267D01*
X123534113Y-155629029D01*
X123581732Y-155533791D01*
X123296018Y-156724267D02*
X123296018Y-156819506D01*
X123343637Y-156914744D01*
X123391256Y-156962363D01*
X123486494Y-157009982D01*
X123676970Y-157057601D01*
X123915066Y-157057601D01*
X124105542Y-157009982D01*
X124200780Y-156962363D01*
X124248399Y-156914744D01*
X124296018Y-156819506D01*
X124296018Y-156724267D01*
X124248399Y-156629029D01*
X124200780Y-156581410D01*
X124105542Y-156533791D01*
X123915066Y-156486172D01*
X123676970Y-156486172D01*
X123486494Y-156533791D01*
X123391256Y-156581410D01*
X123343637Y-156629029D01*
X123296018Y-156724267D01*
X123391256Y-157438553D02*
X123343637Y-157486172D01*
X123296018Y-157581410D01*
X123296018Y-157819506D01*
X123343637Y-157914744D01*
X123391256Y-157962363D01*
X123486494Y-158009982D01*
X123581732Y-158009982D01*
X123724589Y-157962363D01*
X124296018Y-157390934D01*
X124296018Y-158009982D01*
X136362833Y-132361533D02*
X135790413Y-132933953D01*
X135689398Y-132967625D01*
X135622055Y-132967625D01*
X135521040Y-132933953D01*
X135386352Y-132799265D01*
X135352680Y-132698250D01*
X135352680Y-132630907D01*
X135386352Y-132529892D01*
X135958772Y-131957472D01*
X135588383Y-131721770D02*
X135588383Y-131654426D01*
X135554711Y-131553411D01*
X135386352Y-131385052D01*
X135285337Y-131351380D01*
X135217994Y-131351380D01*
X135116978Y-131385052D01*
X135049635Y-131452395D01*
X134982292Y-131587082D01*
X134982292Y-132395205D01*
X134544558Y-131957472D01*
X134813933Y-130812633D02*
X134746589Y-130745289D01*
X134645574Y-130711617D01*
X134578230Y-130711617D01*
X134477215Y-130745289D01*
X134308856Y-130846304D01*
X134140497Y-131014663D01*
X134039482Y-131183022D01*
X134005810Y-131284037D01*
X134005810Y-131351380D01*
X134039482Y-131452395D01*
X134106826Y-131519739D01*
X134207841Y-131553411D01*
X134275185Y-131553411D01*
X134376200Y-131519739D01*
X134544558Y-131418724D01*
X134712918Y-131250365D01*
X134813933Y-131082006D01*
X134847605Y-130980991D01*
X134847605Y-130913648D01*
X134813933Y-130812633D01*
X133197688Y-130610602D02*
X133601750Y-131014663D01*
X133399719Y-130812633D02*
X134106826Y-130105526D01*
X134073154Y-130273885D01*
X134073154Y-130408571D01*
X134106826Y-130509587D01*
X134702381Y-133035714D02*
X135511905Y-133035714D01*
X135607143Y-133083333D01*
X135654762Y-133130952D01*
X135702381Y-133226190D01*
X135702381Y-133416667D01*
X135654762Y-133511905D01*
X135607143Y-133559524D01*
X135511905Y-133607143D01*
X134702381Y-133607143D01*
X134797619Y-134035714D02*
X134750000Y-134083333D01*
X134702381Y-134178571D01*
X134702381Y-134416667D01*
X134750000Y-134511905D01*
X134797619Y-134559524D01*
X134892857Y-134607143D01*
X134988095Y-134607143D01*
X135130952Y-134559524D01*
X135702381Y-133988095D01*
X135702381Y-134607143D01*
X134702381Y-135226190D02*
X134702381Y-135321429D01*
X134750000Y-135416667D01*
X134797619Y-135464286D01*
X134892857Y-135511905D01*
X135083333Y-135559524D01*
X135321429Y-135559524D01*
X135511905Y-135511905D01*
X135607143Y-135464286D01*
X135654762Y-135416667D01*
X135702381Y-135321429D01*
X135702381Y-135226190D01*
X135654762Y-135130952D01*
X135607143Y-135083333D01*
X135511905Y-135035714D01*
X135321429Y-134988095D01*
X135083333Y-134988095D01*
X134892857Y-135035714D01*
X134797619Y-135083333D01*
X134750000Y-135130952D01*
X134702381Y-135226190D01*
X134797619Y-135940476D02*
X134750000Y-135988095D01*
X134702381Y-136083333D01*
X134702381Y-136321429D01*
X134750000Y-136416667D01*
X134797619Y-136464286D01*
X134892857Y-136511905D01*
X134988095Y-136511905D01*
X135130952Y-136464286D01*
X135702381Y-135892857D01*
X135702381Y-136511905D01*
X121564286Y-112752381D02*
X121564286Y-113561905D01*
X121516667Y-113657143D01*
X121469048Y-113704762D01*
X121373810Y-113752381D01*
X121183333Y-113752381D01*
X121088095Y-113704762D01*
X121040476Y-113657143D01*
X120992857Y-113561905D01*
X120992857Y-112752381D01*
X120611905Y-112752381D02*
X119992857Y-112752381D01*
X120326191Y-113133333D01*
X120183333Y-113133333D01*
X120088095Y-113180952D01*
X120040476Y-113228571D01*
X119992857Y-113323810D01*
X119992857Y-113561905D01*
X120040476Y-113657143D01*
X120088095Y-113704762D01*
X120183333Y-113752381D01*
X120469048Y-113752381D01*
X120564286Y-113704762D01*
X120611905Y-113657143D01*
X119373810Y-112752381D02*
X119278571Y-112752381D01*
X119183333Y-112800000D01*
X119135714Y-112847619D01*
X119088095Y-112942857D01*
X119040476Y-113133333D01*
X119040476Y-113371429D01*
X119088095Y-113561905D01*
X119135714Y-113657143D01*
X119183333Y-113704762D01*
X119278571Y-113752381D01*
X119373810Y-113752381D01*
X119469048Y-113704762D01*
X119516667Y-113657143D01*
X119564286Y-113561905D01*
X119611905Y-113371429D01*
X119611905Y-113133333D01*
X119564286Y-112942857D01*
X119516667Y-112847619D01*
X119469048Y-112800000D01*
X119373810Y-112752381D01*
X118088095Y-113752381D02*
X118659524Y-113752381D01*
X118373810Y-113752381D02*
X118373810Y-112752381D01*
X118469048Y-112895238D01*
X118564286Y-112990476D01*
X118659524Y-113038095D01*
X113364286Y-106952381D02*
X113364286Y-107761905D01*
X113316667Y-107857143D01*
X113269048Y-107904762D01*
X113173810Y-107952381D01*
X112983333Y-107952381D01*
X112888095Y-107904762D01*
X112840476Y-107857143D01*
X112792857Y-107761905D01*
X112792857Y-106952381D01*
X112411905Y-106952381D02*
X111792857Y-106952381D01*
X112126191Y-107333333D01*
X111983333Y-107333333D01*
X111888095Y-107380952D01*
X111840476Y-107428571D01*
X111792857Y-107523810D01*
X111792857Y-107761905D01*
X111840476Y-107857143D01*
X111888095Y-107904762D01*
X111983333Y-107952381D01*
X112269048Y-107952381D01*
X112364286Y-107904762D01*
X112411905Y-107857143D01*
X111173810Y-106952381D02*
X111078571Y-106952381D01*
X110983333Y-107000000D01*
X110935714Y-107047619D01*
X110888095Y-107142857D01*
X110840476Y-107333333D01*
X110840476Y-107571429D01*
X110888095Y-107761905D01*
X110935714Y-107857143D01*
X110983333Y-107904762D01*
X111078571Y-107952381D01*
X111173810Y-107952381D01*
X111269048Y-107904762D01*
X111316667Y-107857143D01*
X111364286Y-107761905D01*
X111411905Y-107571429D01*
X111411905Y-107333333D01*
X111364286Y-107142857D01*
X111316667Y-107047619D01*
X111269048Y-107000000D01*
X111173810Y-106952381D01*
X110459524Y-107047619D02*
X110411905Y-107000000D01*
X110316667Y-106952381D01*
X110078571Y-106952381D01*
X109983333Y-107000000D01*
X109935714Y-107047619D01*
X109888095Y-107142857D01*
X109888095Y-107238095D01*
X109935714Y-107380952D01*
X110507143Y-107952381D01*
X109888095Y-107952381D01*
X111614286Y-120952381D02*
X111614286Y-121761905D01*
X111566667Y-121857143D01*
X111519048Y-121904762D01*
X111423810Y-121952381D01*
X111233333Y-121952381D01*
X111138095Y-121904762D01*
X111090476Y-121857143D01*
X111042857Y-121761905D01*
X111042857Y-120952381D01*
X110661905Y-120952381D02*
X110042857Y-120952381D01*
X110376191Y-121333333D01*
X110233333Y-121333333D01*
X110138095Y-121380952D01*
X110090476Y-121428571D01*
X110042857Y-121523810D01*
X110042857Y-121761905D01*
X110090476Y-121857143D01*
X110138095Y-121904762D01*
X110233333Y-121952381D01*
X110519048Y-121952381D01*
X110614286Y-121904762D01*
X110661905Y-121857143D01*
X109423810Y-120952381D02*
X109328571Y-120952381D01*
X109233333Y-121000000D01*
X109185714Y-121047619D01*
X109138095Y-121142857D01*
X109090476Y-121333333D01*
X109090476Y-121571429D01*
X109138095Y-121761905D01*
X109185714Y-121857143D01*
X109233333Y-121904762D01*
X109328571Y-121952381D01*
X109423810Y-121952381D01*
X109519048Y-121904762D01*
X109566667Y-121857143D01*
X109614286Y-121761905D01*
X109661905Y-121571429D01*
X109661905Y-121333333D01*
X109614286Y-121142857D01*
X109566667Y-121047619D01*
X109519048Y-121000000D01*
X109423810Y-120952381D01*
X108757143Y-120952381D02*
X108138095Y-120952381D01*
X108471429Y-121333333D01*
X108328571Y-121333333D01*
X108233333Y-121380952D01*
X108185714Y-121428571D01*
X108138095Y-121523810D01*
X108138095Y-121761905D01*
X108185714Y-121857143D01*
X108233333Y-121904762D01*
X108328571Y-121952381D01*
X108614286Y-121952381D01*
X108709524Y-121904762D01*
X108757143Y-121857143D01*
X111539881Y-132085714D02*
X112349405Y-132085714D01*
X112444643Y-132133333D01*
X112492262Y-132180952D01*
X112539881Y-132276190D01*
X112539881Y-132466667D01*
X112492262Y-132561905D01*
X112444643Y-132609524D01*
X112349405Y-132657143D01*
X111539881Y-132657143D01*
X111873214Y-133561905D02*
X112539881Y-133561905D01*
X111492262Y-133323809D02*
X112206548Y-133085714D01*
X112206548Y-133704762D01*
X111539881Y-134276190D02*
X111539881Y-134371429D01*
X111587500Y-134466667D01*
X111635119Y-134514286D01*
X111730357Y-134561905D01*
X111920833Y-134609524D01*
X112158929Y-134609524D01*
X112349405Y-134561905D01*
X112444643Y-134514286D01*
X112492262Y-134466667D01*
X112539881Y-134371429D01*
X112539881Y-134276190D01*
X112492262Y-134180952D01*
X112444643Y-134133333D01*
X112349405Y-134085714D01*
X112158929Y-134038095D01*
X111920833Y-134038095D01*
X111730357Y-134085714D01*
X111635119Y-134133333D01*
X111587500Y-134180952D01*
X111539881Y-134276190D01*
X112539881Y-135561905D02*
X112539881Y-134990476D01*
X112539881Y-135276190D02*
X111539881Y-135276190D01*
X111682738Y-135180952D01*
X111777976Y-135085714D01*
X111825595Y-134990476D01*
X119470025Y-138465288D02*
X120279549Y-138465288D01*
X120374787Y-138512907D01*
X120422406Y-138560526D01*
X120470025Y-138655764D01*
X120470025Y-138846241D01*
X120422406Y-138941479D01*
X120374787Y-138989098D01*
X120279549Y-139036717D01*
X119470025Y-139036717D01*
X119803358Y-139941479D02*
X120470025Y-139941479D01*
X119422406Y-139703383D02*
X120136692Y-139465288D01*
X120136692Y-140084336D01*
X119470025Y-140655764D02*
X119470025Y-140751003D01*
X119517644Y-140846241D01*
X119565263Y-140893860D01*
X119660501Y-140941479D01*
X119850977Y-140989098D01*
X120089073Y-140989098D01*
X120279549Y-140941479D01*
X120374787Y-140893860D01*
X120422406Y-140846241D01*
X120470025Y-140751003D01*
X120470025Y-140655764D01*
X120422406Y-140560526D01*
X120374787Y-140512907D01*
X120279549Y-140465288D01*
X120089073Y-140417669D01*
X119850977Y-140417669D01*
X119660501Y-140465288D01*
X119565263Y-140512907D01*
X119517644Y-140560526D01*
X119470025Y-140655764D01*
X119565263Y-141370050D02*
X119517644Y-141417669D01*
X119470025Y-141512907D01*
X119470025Y-141751003D01*
X119517644Y-141846241D01*
X119565263Y-141893860D01*
X119660501Y-141941479D01*
X119755739Y-141941479D01*
X119898596Y-141893860D01*
X120470025Y-141322431D01*
X120470025Y-141941479D01*
X134364286Y-119302381D02*
X133792857Y-119302381D01*
X134078572Y-120302381D02*
X134078572Y-119302381D01*
X133459524Y-120302381D02*
X133459524Y-119302381D01*
X133078571Y-119302381D01*
X132983333Y-119350000D01*
X132935714Y-119397619D01*
X132888095Y-119492857D01*
X132888095Y-119635714D01*
X132935714Y-119730952D01*
X132983333Y-119778571D01*
X133078571Y-119826190D01*
X133459524Y-119826190D01*
X131935714Y-120302381D02*
X132507143Y-120302381D01*
X132221429Y-120302381D02*
X132221429Y-119302381D01*
X132316667Y-119445238D01*
X132411905Y-119540476D01*
X132507143Y-119588095D01*
X131316667Y-119302381D02*
X131221428Y-119302381D01*
X131126190Y-119350000D01*
X131078571Y-119397619D01*
X131030952Y-119492857D01*
X130983333Y-119683333D01*
X130983333Y-119921429D01*
X131030952Y-120111905D01*
X131078571Y-120207143D01*
X131126190Y-120254762D01*
X131221428Y-120302381D01*
X131316667Y-120302381D01*
X131411905Y-120254762D01*
X131459524Y-120207143D01*
X131507143Y-120111905D01*
X131554762Y-119921429D01*
X131554762Y-119683333D01*
X131507143Y-119492857D01*
X131459524Y-119397619D01*
X131411905Y-119350000D01*
X131316667Y-119302381D01*
X130030952Y-120302381D02*
X130602381Y-120302381D01*
X130316667Y-120302381D02*
X130316667Y-119302381D01*
X130411905Y-119445238D01*
X130507143Y-119540476D01*
X130602381Y-119588095D01*
X135814286Y-116452381D02*
X135242857Y-116452381D01*
X135528572Y-117452381D02*
X135528572Y-116452381D01*
X134909524Y-117452381D02*
X134909524Y-116452381D01*
X134528571Y-116452381D01*
X134433333Y-116500000D01*
X134385714Y-116547619D01*
X134338095Y-116642857D01*
X134338095Y-116785714D01*
X134385714Y-116880952D01*
X134433333Y-116928571D01*
X134528571Y-116976190D01*
X134909524Y-116976190D01*
X133385714Y-117452381D02*
X133957143Y-117452381D01*
X133671429Y-117452381D02*
X133671429Y-116452381D01*
X133766667Y-116595238D01*
X133861905Y-116690476D01*
X133957143Y-116738095D01*
X132766667Y-116452381D02*
X132671428Y-116452381D01*
X132576190Y-116500000D01*
X132528571Y-116547619D01*
X132480952Y-116642857D01*
X132433333Y-116833333D01*
X132433333Y-117071429D01*
X132480952Y-117261905D01*
X132528571Y-117357143D01*
X132576190Y-117404762D01*
X132671428Y-117452381D01*
X132766667Y-117452381D01*
X132861905Y-117404762D01*
X132909524Y-117357143D01*
X132957143Y-117261905D01*
X133004762Y-117071429D01*
X133004762Y-116833333D01*
X132957143Y-116642857D01*
X132909524Y-116547619D01*
X132861905Y-116500000D01*
X132766667Y-116452381D01*
X132052381Y-116547619D02*
X132004762Y-116500000D01*
X131909524Y-116452381D01*
X131671428Y-116452381D01*
X131576190Y-116500000D01*
X131528571Y-116547619D01*
X131480952Y-116642857D01*
X131480952Y-116738095D01*
X131528571Y-116880952D01*
X132100000Y-117452381D01*
X131480952Y-117452381D01*
X120264286Y-118852381D02*
X119692857Y-118852381D01*
X119978572Y-119852381D02*
X119978572Y-118852381D01*
X119359524Y-119852381D02*
X119359524Y-118852381D01*
X118978571Y-118852381D01*
X118883333Y-118900000D01*
X118835714Y-118947619D01*
X118788095Y-119042857D01*
X118788095Y-119185714D01*
X118835714Y-119280952D01*
X118883333Y-119328571D01*
X118978571Y-119376190D01*
X119359524Y-119376190D01*
X117835714Y-119852381D02*
X118407143Y-119852381D01*
X118121429Y-119852381D02*
X118121429Y-118852381D01*
X118216667Y-118995238D01*
X118311905Y-119090476D01*
X118407143Y-119138095D01*
X117216667Y-118852381D02*
X117121428Y-118852381D01*
X117026190Y-118900000D01*
X116978571Y-118947619D01*
X116930952Y-119042857D01*
X116883333Y-119233333D01*
X116883333Y-119471429D01*
X116930952Y-119661905D01*
X116978571Y-119757143D01*
X117026190Y-119804762D01*
X117121428Y-119852381D01*
X117216667Y-119852381D01*
X117311905Y-119804762D01*
X117359524Y-119757143D01*
X117407143Y-119661905D01*
X117454762Y-119471429D01*
X117454762Y-119233333D01*
X117407143Y-119042857D01*
X117359524Y-118947619D01*
X117311905Y-118900000D01*
X117216667Y-118852381D01*
X116550000Y-118852381D02*
X115930952Y-118852381D01*
X116264286Y-119233333D01*
X116121428Y-119233333D01*
X116026190Y-119280952D01*
X115978571Y-119328571D01*
X115930952Y-119423810D01*
X115930952Y-119661905D01*
X115978571Y-119757143D01*
X116026190Y-119804762D01*
X116121428Y-119852381D01*
X116407143Y-119852381D01*
X116502381Y-119804762D01*
X116550000Y-119757143D01*
X118164286Y-116502381D02*
X117592857Y-116502381D01*
X117878572Y-117502381D02*
X117878572Y-116502381D01*
X117259524Y-117502381D02*
X117259524Y-116502381D01*
X116878571Y-116502381D01*
X116783333Y-116550000D01*
X116735714Y-116597619D01*
X116688095Y-116692857D01*
X116688095Y-116835714D01*
X116735714Y-116930952D01*
X116783333Y-116978571D01*
X116878571Y-117026190D01*
X117259524Y-117026190D01*
X115735714Y-117502381D02*
X116307143Y-117502381D01*
X116021429Y-117502381D02*
X116021429Y-116502381D01*
X116116667Y-116645238D01*
X116211905Y-116740476D01*
X116307143Y-116788095D01*
X115116667Y-116502381D02*
X115021428Y-116502381D01*
X114926190Y-116550000D01*
X114878571Y-116597619D01*
X114830952Y-116692857D01*
X114783333Y-116883333D01*
X114783333Y-117121429D01*
X114830952Y-117311905D01*
X114878571Y-117407143D01*
X114926190Y-117454762D01*
X115021428Y-117502381D01*
X115116667Y-117502381D01*
X115211905Y-117454762D01*
X115259524Y-117407143D01*
X115307143Y-117311905D01*
X115354762Y-117121429D01*
X115354762Y-116883333D01*
X115307143Y-116692857D01*
X115259524Y-116597619D01*
X115211905Y-116550000D01*
X115116667Y-116502381D01*
X113926190Y-116835714D02*
X113926190Y-117502381D01*
X114164286Y-116454762D02*
X114402381Y-117169048D01*
X113783333Y-117169048D01*
X114914286Y-123552381D02*
X114342857Y-123552381D01*
X114628572Y-124552381D02*
X114628572Y-123552381D01*
X114009524Y-124552381D02*
X114009524Y-123552381D01*
X113628571Y-123552381D01*
X113533333Y-123600000D01*
X113485714Y-123647619D01*
X113438095Y-123742857D01*
X113438095Y-123885714D01*
X113485714Y-123980952D01*
X113533333Y-124028571D01*
X113628571Y-124076190D01*
X114009524Y-124076190D01*
X112485714Y-124552381D02*
X113057143Y-124552381D01*
X112771429Y-124552381D02*
X112771429Y-123552381D01*
X112866667Y-123695238D01*
X112961905Y-123790476D01*
X113057143Y-123838095D01*
X111866667Y-123552381D02*
X111771428Y-123552381D01*
X111676190Y-123600000D01*
X111628571Y-123647619D01*
X111580952Y-123742857D01*
X111533333Y-123933333D01*
X111533333Y-124171429D01*
X111580952Y-124361905D01*
X111628571Y-124457143D01*
X111676190Y-124504762D01*
X111771428Y-124552381D01*
X111866667Y-124552381D01*
X111961905Y-124504762D01*
X112009524Y-124457143D01*
X112057143Y-124361905D01*
X112104762Y-124171429D01*
X112104762Y-123933333D01*
X112057143Y-123742857D01*
X112009524Y-123647619D01*
X111961905Y-123600000D01*
X111866667Y-123552381D01*
X110628571Y-123552381D02*
X111104762Y-123552381D01*
X111152381Y-124028571D01*
X111104762Y-123980952D01*
X111009524Y-123933333D01*
X110771428Y-123933333D01*
X110676190Y-123980952D01*
X110628571Y-124028571D01*
X110580952Y-124123810D01*
X110580952Y-124361905D01*
X110628571Y-124457143D01*
X110676190Y-124504762D01*
X110771428Y-124552381D01*
X111009524Y-124552381D01*
X111104762Y-124504762D01*
X111152381Y-124457143D01*
X126814286Y-118652381D02*
X126242857Y-118652381D01*
X126528572Y-119652381D02*
X126528572Y-118652381D01*
X125909524Y-119652381D02*
X125909524Y-118652381D01*
X125528571Y-118652381D01*
X125433333Y-118700000D01*
X125385714Y-118747619D01*
X125338095Y-118842857D01*
X125338095Y-118985714D01*
X125385714Y-119080952D01*
X125433333Y-119128571D01*
X125528571Y-119176190D01*
X125909524Y-119176190D01*
X124957143Y-118747619D02*
X124909524Y-118700000D01*
X124814286Y-118652381D01*
X124576190Y-118652381D01*
X124480952Y-118700000D01*
X124433333Y-118747619D01*
X124385714Y-118842857D01*
X124385714Y-118938095D01*
X124433333Y-119080952D01*
X125004762Y-119652381D01*
X124385714Y-119652381D01*
X123766667Y-118652381D02*
X123671428Y-118652381D01*
X123576190Y-118700000D01*
X123528571Y-118747619D01*
X123480952Y-118842857D01*
X123433333Y-119033333D01*
X123433333Y-119271429D01*
X123480952Y-119461905D01*
X123528571Y-119557143D01*
X123576190Y-119604762D01*
X123671428Y-119652381D01*
X123766667Y-119652381D01*
X123861905Y-119604762D01*
X123909524Y-119557143D01*
X123957143Y-119461905D01*
X124004762Y-119271429D01*
X124004762Y-119033333D01*
X123957143Y-118842857D01*
X123909524Y-118747619D01*
X123861905Y-118700000D01*
X123766667Y-118652381D01*
X122480952Y-119652381D02*
X123052381Y-119652381D01*
X122766667Y-119652381D02*
X122766667Y-118652381D01*
X122861905Y-118795238D01*
X122957143Y-118890476D01*
X123052381Y-118938095D01*
M02*
