G04 #@! TF.FileFunction,Copper,L1,Top,Signal*
%FSLAX46Y46*%
G04 Gerber Fmt 4.6, Leading zero omitted, Abs format (unit mm)*
G04 Created by KiCad (PCBNEW 4.0.7) date Thu Apr 19 11:38:54 2018*
%MOMM*%
%LPD*%
G01*
G04 APERTURE LIST*
%ADD10C,0.100000*%
%ADD11R,1.700000X1.700000*%
%ADD12O,1.700000X1.700000*%
%ADD13R,0.500000X0.600000*%
%ADD14R,1.500000X1.250000*%
%ADD15R,1.200000X0.750000*%
%ADD16R,1.250000X1.500000*%
%ADD17R,0.750000X1.200000*%
%ADD18R,0.400000X0.300000*%
%ADD19R,1.000000X1.000000*%
%ADD20O,0.950000X1.250000*%
%ADD21O,1.550000X1.000000*%
%ADD22R,0.900000X1.200000*%
%ADD23R,0.600000X0.400000*%
%ADD24R,0.400000X0.600000*%
%ADD25C,2.600000*%
%ADD26R,1.560000X0.650000*%
%ADD27R,0.450000X1.450000*%
%ADD28C,1.500000*%
%ADD29R,0.650000X1.560000*%
%ADD30C,0.685800*%
%ADD31C,0.800000*%
%ADD32C,0.300000*%
%ADD33C,0.500000*%
%ADD34C,0.400000*%
%ADD35C,0.254000*%
G04 APERTURE END LIST*
D10*
D11*
X110050000Y-153460000D03*
D12*
X110050000Y-156000000D03*
D13*
X135550000Y-142350000D03*
X135550000Y-141250000D03*
D10*
G36*
X138201220Y-137219849D02*
X137069849Y-138351220D01*
X135655636Y-136937007D01*
X136787007Y-135805636D01*
X138201220Y-137219849D01*
X138201220Y-137219849D01*
G37*
G36*
X135372792Y-134391421D02*
X134241421Y-135522792D01*
X132827208Y-134108579D01*
X133958579Y-132977208D01*
X135372792Y-134391421D01*
X135372792Y-134391421D01*
G37*
G36*
X138232931Y-135152601D02*
X137702601Y-135682931D01*
X136854073Y-134834403D01*
X137384403Y-134304073D01*
X138232931Y-135152601D01*
X138232931Y-135152601D01*
G37*
G36*
X136889429Y-133809099D02*
X136359099Y-134339429D01*
X135510571Y-133490901D01*
X136040901Y-132960571D01*
X136889429Y-133809099D01*
X136889429Y-133809099D01*
G37*
G36*
X136062994Y-126694365D02*
X137194365Y-125562994D01*
X138608578Y-126977207D01*
X137477207Y-128108578D01*
X136062994Y-126694365D01*
X136062994Y-126694365D01*
G37*
G36*
X138891422Y-129522793D02*
X140022793Y-128391422D01*
X141437006Y-129805635D01*
X140305635Y-130937006D01*
X138891422Y-129522793D01*
X138891422Y-129522793D01*
G37*
G36*
X135188820Y-128019150D02*
X135719150Y-127488820D01*
X136567678Y-128337348D01*
X136037348Y-128867678D01*
X135188820Y-128019150D01*
X135188820Y-128019150D01*
G37*
G36*
X136532322Y-129362652D02*
X137062652Y-128832322D01*
X137911180Y-129680850D01*
X137380850Y-130211180D01*
X136532322Y-129362652D01*
X136532322Y-129362652D01*
G37*
G36*
X143037006Y-128205635D02*
X141905635Y-129337006D01*
X140491422Y-127922793D01*
X141622793Y-126791422D01*
X143037006Y-128205635D01*
X143037006Y-128205635D01*
G37*
G36*
X140208578Y-125377207D02*
X139077207Y-126508578D01*
X137662994Y-125094365D01*
X138794365Y-123962994D01*
X140208578Y-125377207D01*
X140208578Y-125377207D01*
G37*
G36*
X143061180Y-126230850D02*
X142530850Y-126761180D01*
X141682322Y-125912652D01*
X142212652Y-125382322D01*
X143061180Y-126230850D01*
X143061180Y-126230850D01*
G37*
G36*
X141717678Y-124887348D02*
X141187348Y-125417678D01*
X140338820Y-124569150D01*
X140869150Y-124038820D01*
X141717678Y-124887348D01*
X141717678Y-124887348D01*
G37*
D14*
X122900000Y-103300000D03*
X120400000Y-103300000D03*
D15*
X122600000Y-104900000D03*
X120700000Y-104900000D03*
D16*
X113500000Y-108900000D03*
X113500000Y-106400000D03*
D17*
X115200000Y-108400000D03*
X115200000Y-106500000D03*
X122900000Y-108400000D03*
X122900000Y-110300000D03*
D16*
X113500000Y-111100000D03*
X113500000Y-113600000D03*
D17*
X115200000Y-110350000D03*
X115200000Y-112250000D03*
D16*
X124900000Y-108150000D03*
X124900000Y-110650000D03*
D17*
X130600000Y-120400000D03*
X130600000Y-122300000D03*
D16*
X124900000Y-105800000D03*
X124900000Y-103300000D03*
D14*
X115750000Y-103300000D03*
X118250000Y-103300000D03*
D15*
X116150000Y-104900000D03*
X118050000Y-104900000D03*
D14*
X111150000Y-116700000D03*
X108650000Y-116700000D03*
D15*
X110800000Y-118600000D03*
X108900000Y-118600000D03*
D14*
X117950000Y-113600000D03*
X120450000Y-113600000D03*
D15*
X118400000Y-111700000D03*
X120300000Y-111700000D03*
D16*
X127200000Y-117100000D03*
X127200000Y-114600000D03*
D17*
X125300000Y-117250000D03*
X125300000Y-115350000D03*
D18*
X131000000Y-127900000D03*
X131000000Y-127000000D03*
D19*
X115298077Y-138975363D03*
X117798077Y-138975363D03*
X115298077Y-141375363D03*
X117798077Y-141375363D03*
D11*
X110050000Y-153460000D03*
D12*
X110050000Y-156000000D03*
D11*
X128993900Y-155790900D03*
D12*
X128993900Y-153250900D03*
X128993900Y-150710900D03*
D11*
X128050000Y-104960000D03*
D12*
X128050000Y-107500000D03*
X128050000Y-110040000D03*
D11*
X103700000Y-159860000D03*
D12*
X103700000Y-162400000D03*
D11*
X146690000Y-154700000D03*
D12*
X146690000Y-152160000D03*
X144150000Y-154700000D03*
X144150000Y-152160000D03*
D11*
X126644400Y-128333500D03*
D12*
X126644400Y-130873500D03*
X126644400Y-133413500D03*
D20*
X147900000Y-124400000D03*
X147900000Y-119400000D03*
D21*
X150600000Y-125400000D03*
X150600000Y-118400000D03*
D11*
X117980000Y-120360000D03*
D12*
X117980000Y-122900000D03*
X120520000Y-120360000D03*
X120520000Y-122900000D03*
X123060000Y-120360000D03*
X123060000Y-122900000D03*
X125600000Y-120360000D03*
X125600000Y-122900000D03*
D11*
X143960000Y-140650000D03*
D12*
X146500000Y-140650000D03*
X143960000Y-143190000D03*
X146500000Y-143190000D03*
X143960000Y-145730000D03*
X146500000Y-145730000D03*
D11*
X103800000Y-149540000D03*
D12*
X103800000Y-147000000D03*
D22*
X133500000Y-122400000D03*
X133500000Y-120200000D03*
X136950000Y-140700000D03*
X136950000Y-142900000D03*
X111600000Y-109100000D03*
X111600000Y-111300000D03*
D23*
X132000000Y-120900000D03*
X132000000Y-121800000D03*
D22*
X115398077Y-143775363D03*
X115398077Y-145975363D03*
D24*
X115098077Y-148375363D03*
X115998077Y-148375363D03*
X117198077Y-148375363D03*
X118098077Y-148375363D03*
D22*
X117598077Y-143775363D03*
X117598077Y-145975363D03*
D24*
X113698077Y-140875363D03*
X112798077Y-140875363D03*
X111798077Y-140875363D03*
X110898077Y-140875363D03*
X110448077Y-148975363D03*
X111348077Y-148975363D03*
X113198077Y-148975363D03*
X112298077Y-148975363D03*
D25*
X103900000Y-135900000D03*
X108900000Y-135900000D03*
X106400000Y-125900000D03*
D26*
X123000000Y-117350000D03*
X123000000Y-116400000D03*
X123000000Y-115450000D03*
X120300000Y-115450000D03*
X120300000Y-117350000D03*
D27*
X112373077Y-142775363D03*
X111723077Y-142775363D03*
X111073077Y-142775363D03*
X110423077Y-142775363D03*
X110423077Y-147175363D03*
X111073077Y-147175363D03*
X111723077Y-147175363D03*
X112373077Y-147175363D03*
D11*
X106250000Y-104580000D03*
D12*
X106250000Y-107120000D03*
X106250000Y-109660000D03*
X106250000Y-112200000D03*
D28*
X135250000Y-108950000D03*
X129450000Y-125550000D03*
X133300000Y-110300000D03*
X131200000Y-109000000D03*
D15*
X103300000Y-121200000D03*
X105200000Y-121200000D03*
D14*
X103000000Y-122800000D03*
X105500000Y-122800000D03*
D29*
X103350000Y-119350000D03*
X104300000Y-119350000D03*
X105250000Y-119350000D03*
X105250000Y-116650000D03*
X103350000Y-116650000D03*
D30*
X129650000Y-115495310D03*
X138200000Y-118500000D03*
X137850000Y-139000000D03*
X140750000Y-143250000D03*
X138700000Y-107950000D03*
X130000000Y-116500000D03*
X141635786Y-136714214D03*
X136928428Y-137078428D03*
X143182534Y-127172133D03*
X135878249Y-128178249D03*
X137543502Y-134993502D03*
X116700000Y-124754812D03*
X111400000Y-123300000D03*
X122320527Y-105956449D03*
X103000000Y-122800000D03*
X111458080Y-115158080D03*
X122900000Y-103300000D03*
X115750000Y-103300000D03*
X110200000Y-105600000D03*
X111300000Y-119900000D03*
X117205931Y-106071946D03*
X134050000Y-112450000D03*
X138150000Y-112050000D03*
X123050000Y-135950000D03*
X115171521Y-112157100D03*
X141400000Y-155700000D03*
X131250000Y-124600000D03*
X129095310Y-122287454D03*
X144464214Y-133885786D03*
X133650000Y-118700000D03*
X130175000Y-133400000D03*
X135600000Y-132750000D03*
X140164214Y-129664214D03*
X138935786Y-125235786D03*
X140950000Y-125700000D03*
X137221751Y-129521751D03*
X115700000Y-126042899D03*
X124500000Y-125700000D03*
X117800000Y-159000000D03*
X112400000Y-164800000D03*
X128800000Y-161400000D03*
X113100000Y-103300000D03*
X108650000Y-116700000D03*
X118500000Y-108600000D03*
X118500000Y-109900000D03*
X119900000Y-109900000D03*
X121200000Y-109900000D03*
X121200000Y-108600000D03*
X121200000Y-107300000D03*
X119800000Y-107300000D03*
X118600000Y-107300000D03*
X119850000Y-108600000D03*
X121167644Y-145429574D03*
X118900000Y-131700000D03*
X109600000Y-140700000D03*
X110386454Y-143679883D03*
X116550000Y-161600000D03*
X116800000Y-156800000D03*
X116550000Y-163500000D03*
X116800000Y-156000000D03*
X143550000Y-120400000D03*
X123667644Y-145429574D03*
X128800000Y-165400000D03*
X124300000Y-159600000D03*
X140250000Y-144350000D03*
X137200000Y-144350000D03*
X133650000Y-142700000D03*
X131200000Y-140400000D03*
X135242401Y-144342401D03*
X128450000Y-137550000D03*
X134850000Y-131000000D03*
X122445302Y-108400000D03*
X115200000Y-108400000D03*
X117243071Y-109796411D03*
X132100000Y-118700000D03*
X129318125Y-120798034D03*
X123200000Y-112800000D03*
X122091508Y-111196435D03*
X117218086Y-111164575D03*
X112400000Y-139800000D03*
X115700000Y-134700000D03*
X112198077Y-145925363D03*
X113900000Y-139900000D03*
X113700000Y-145900000D03*
X131600000Y-129600000D03*
X146550000Y-132450000D03*
X146700000Y-133600000D03*
X114100000Y-117100000D03*
X109544682Y-120257289D03*
X114200000Y-116100000D03*
X108700000Y-119900000D03*
X145700000Y-126100000D03*
X144400000Y-124850000D03*
X139800000Y-142450000D03*
X141950000Y-131950000D03*
X134652157Y-123596406D03*
X116600000Y-147700000D03*
X114450000Y-122300000D03*
X115904812Y-122448954D03*
X126252411Y-112950000D03*
X125400000Y-112850000D03*
X126547873Y-111504690D03*
D31*
X137335786Y-126835786D02*
X136557970Y-126057970D01*
X136557970Y-126057970D02*
X136557970Y-120142030D01*
X136557970Y-120142030D02*
X137857101Y-118842899D01*
X137857101Y-118842899D02*
X138200000Y-118500000D01*
D32*
X129650000Y-115575000D02*
X129650000Y-115495310D01*
D31*
X130947589Y-115552411D02*
X130342899Y-116157101D01*
X132294501Y-115552411D02*
X130947589Y-115552411D01*
X138700000Y-109146912D02*
X132294501Y-115552411D01*
X138700000Y-107950000D02*
X138700000Y-109146912D01*
D32*
X128125000Y-117100000D02*
X129650000Y-115575000D01*
X127200000Y-117100000D02*
X128125000Y-117100000D01*
D31*
X130342899Y-116157101D02*
X130000000Y-116500000D01*
X142542030Y-128842030D02*
X141764214Y-128064214D01*
X142845301Y-129145301D02*
X142542030Y-128842030D01*
X141635786Y-136714214D02*
X142845301Y-135504699D01*
X142845301Y-135504699D02*
X142845301Y-129145301D01*
X140750000Y-143250000D02*
X140750000Y-137600000D01*
X140750000Y-137600000D02*
X141271572Y-137078428D01*
X137850000Y-139000000D02*
X137850000Y-138000000D01*
X137850000Y-138000000D02*
X136928428Y-137078428D01*
D32*
X136950000Y-140700000D02*
X136950000Y-137100000D01*
X136950000Y-137100000D02*
X136928428Y-137078428D01*
D31*
X143960000Y-140650000D02*
X143960000Y-139038428D01*
X143960000Y-139038428D02*
X141635786Y-136714214D01*
X130000000Y-116500000D02*
X127800000Y-116500000D01*
X127800000Y-116500000D02*
X127200000Y-117100000D01*
X124550687Y-124302401D02*
X126273153Y-124302401D01*
X116700000Y-124754812D02*
X124098276Y-124754812D01*
X126997589Y-122222035D02*
X126997589Y-120505499D01*
X124098276Y-124754812D02*
X124550687Y-124302401D01*
X127200000Y-118650000D02*
X127200000Y-117100000D01*
X127002401Y-122226847D02*
X126997589Y-122222035D01*
X126997589Y-120505499D02*
X127200000Y-120303088D01*
X127200000Y-120303088D02*
X127200000Y-118650000D01*
X126273153Y-124302401D02*
X127002401Y-123573153D01*
X127002401Y-123573153D02*
X127002401Y-122226847D01*
X141271572Y-137078428D02*
X141635786Y-136714214D01*
X137543502Y-134993502D02*
X137543502Y-136463354D01*
X137543502Y-136463354D02*
X136928428Y-137078428D01*
X137335786Y-126835786D02*
X137220712Y-126835786D01*
X137220712Y-126835786D02*
X135878249Y-128178249D01*
X141764214Y-128064214D02*
X140986398Y-127286398D01*
X140986398Y-127286398D02*
X137786398Y-127286398D01*
X137786398Y-127286398D02*
X137335786Y-126835786D01*
X142371751Y-126071751D02*
X142371751Y-127456677D01*
X142371751Y-127456677D02*
X141764214Y-128064214D01*
D32*
X143182534Y-127172133D02*
X143182534Y-126882534D01*
X143182534Y-126882534D02*
X142371751Y-126071751D01*
D31*
X112854812Y-124754812D02*
X116700000Y-124754812D01*
X111400000Y-123300000D02*
X112854812Y-124754812D01*
X117980000Y-120360000D02*
X111760000Y-120360000D01*
X111760000Y-120360000D02*
X111300000Y-119900000D01*
D33*
X122600000Y-104900000D02*
X122600000Y-105676976D01*
X122600000Y-105676976D02*
X122320527Y-105956449D01*
D31*
X102100000Y-115800678D02*
X102100000Y-117645000D01*
X102100000Y-117645000D02*
X103350000Y-118895000D01*
X103350000Y-118895000D02*
X103350000Y-119350000D01*
X110200000Y-107300000D02*
X107652401Y-109847599D01*
X110200000Y-105600000D02*
X110200000Y-107300000D01*
X107652401Y-109847599D02*
X107652401Y-112873153D01*
X107652401Y-112873153D02*
X106923153Y-113602401D01*
X106923153Y-113602401D02*
X104298277Y-113602401D01*
X104298277Y-113602401D02*
X102100000Y-115800678D01*
D32*
X111150000Y-115466160D02*
X111458080Y-115158080D01*
X111150000Y-116700000D02*
X111150000Y-115466160D01*
D31*
X115750000Y-103300000D02*
X115875000Y-103300000D01*
X122775000Y-103300000D02*
X122900000Y-103300000D01*
D33*
X103350000Y-119350000D02*
X103350000Y-118470678D01*
X103350000Y-118470678D02*
X103653079Y-118167599D01*
X103653079Y-118167599D02*
X104946921Y-118167599D01*
X104946921Y-118167599D02*
X105250000Y-118470678D01*
X105250000Y-118470678D02*
X105250000Y-119350000D01*
X103300000Y-121200000D02*
X103300000Y-119400000D01*
X103300000Y-119400000D02*
X103350000Y-119350000D01*
D31*
X103000000Y-122800000D02*
X103000000Y-121500000D01*
X103000000Y-121500000D02*
X103300000Y-121200000D01*
X125300000Y-117250000D02*
X127050000Y-117250000D01*
X127050000Y-117250000D02*
X127200000Y-117100000D01*
D33*
X123000000Y-117350000D02*
X125200000Y-117350000D01*
X125200000Y-117350000D02*
X125300000Y-117250000D01*
X123000000Y-115450000D02*
X122120678Y-115450000D01*
X122120678Y-115450000D02*
X121817599Y-115753079D01*
X121817599Y-115753079D02*
X121817599Y-117046921D01*
X121817599Y-117046921D02*
X122120678Y-117350000D01*
X122120678Y-117350000D02*
X123000000Y-117350000D01*
D34*
X110800000Y-118600000D02*
X110800000Y-119400000D01*
X110800000Y-119400000D02*
X111300000Y-119900000D01*
D31*
X111150000Y-116700000D02*
X111150000Y-118250000D01*
X111150000Y-118250000D02*
X110800000Y-118600000D01*
X122600000Y-104900000D02*
X122600000Y-103600000D01*
X122600000Y-103600000D02*
X122900000Y-103300000D01*
X115750000Y-103300000D02*
X115750000Y-104500000D01*
X115750000Y-104500000D02*
X116150000Y-104900000D01*
D32*
X117205931Y-106071946D02*
X117205931Y-105955931D01*
X117205931Y-105955931D02*
X116150000Y-104900000D01*
D31*
X135605559Y-120170626D02*
X135605559Y-125424274D01*
X135605559Y-125424274D02*
X135029833Y-126000000D01*
X134134933Y-118700000D02*
X135605559Y-120170626D01*
X133650000Y-118700000D02*
X134134933Y-118700000D01*
X127200000Y-114600000D02*
X131900000Y-114600000D01*
X131900000Y-114600000D02*
X134050000Y-112450000D01*
X138150000Y-112050000D02*
X144502409Y-118402409D01*
X144502409Y-118402409D02*
X144502409Y-120794501D01*
X144502409Y-120794501D02*
X141028249Y-124268661D01*
X141028249Y-124268661D02*
X141028249Y-124728249D01*
X119100000Y-133700000D02*
X119100000Y-138700000D01*
X119100000Y-138700000D02*
X119100000Y-143361930D01*
X123050000Y-135950000D02*
X122707101Y-136292899D01*
X122707101Y-136292899D02*
X121507101Y-136292899D01*
X121507101Y-136292899D02*
X119100000Y-138700000D01*
X137221751Y-129521751D02*
X137221751Y-132628249D01*
X137221751Y-132628249D02*
X136200000Y-133650000D01*
D32*
X121200000Y-107300000D02*
X121898249Y-106601751D01*
X121898249Y-106601751D02*
X122630273Y-106601751D01*
X123502401Y-104822599D02*
X124900000Y-103425000D01*
X122630273Y-106601751D02*
X123502401Y-105729623D01*
X123502401Y-105729623D02*
X123502401Y-104822599D01*
X124900000Y-103425000D02*
X124900000Y-103300000D01*
D31*
X115171521Y-113353479D02*
X115171521Y-112642033D01*
X114925000Y-113600000D02*
X115171521Y-113353479D01*
X113500000Y-113600000D02*
X114925000Y-113600000D01*
X115171521Y-112642033D02*
X115171521Y-112157100D01*
D32*
X115514420Y-111814201D02*
X115171521Y-112157100D01*
X116828621Y-110500000D02*
X115514420Y-111814201D01*
X117900000Y-110500000D02*
X116828621Y-110500000D01*
X118500000Y-109900000D02*
X117900000Y-110500000D01*
D31*
X144150000Y-152160000D02*
X144150000Y-148080000D01*
X144150000Y-148080000D02*
X146500000Y-145730000D01*
X141400000Y-155700000D02*
X141400000Y-154910000D01*
X141400000Y-154910000D02*
X144150000Y-152160000D01*
X135029833Y-126000000D02*
X134636410Y-126393423D01*
X131250000Y-124600000D02*
X132650000Y-126000000D01*
X132650000Y-126000000D02*
X135029833Y-126000000D01*
D32*
X131000000Y-127000000D02*
X131500000Y-127000000D01*
X131500000Y-127000000D02*
X132106577Y-126393423D01*
X132106577Y-126393423D02*
X134636410Y-126393423D01*
X135550000Y-141250000D02*
X135550000Y-140650000D01*
X135550000Y-140650000D02*
X134100000Y-139200000D01*
X134100000Y-139200000D02*
X134100000Y-135481371D01*
X134100000Y-135481371D02*
X134100000Y-134250000D01*
D31*
X146500000Y-145730000D02*
X147902401Y-144327599D01*
X147902401Y-144327599D02*
X147902401Y-137323973D01*
X147902401Y-137323973D02*
X145100609Y-134522181D01*
X145100609Y-134522181D02*
X144464214Y-133885786D01*
D32*
X130600000Y-122300000D02*
X129107856Y-122300000D01*
X129107856Y-122300000D02*
X129095310Y-122287454D01*
D31*
X134636410Y-126393423D02*
X134636410Y-128286410D01*
X134636410Y-128286410D02*
X135871751Y-129521751D01*
X137221751Y-129521751D02*
X135871751Y-129521751D01*
X137221751Y-129521751D02*
X140021751Y-129521751D01*
X140021751Y-129521751D02*
X140164214Y-129664214D01*
D32*
X135600000Y-132750000D02*
X130825000Y-132750000D01*
X130825000Y-132750000D02*
X130175000Y-133400000D01*
X135600000Y-132750000D02*
X135600000Y-133050000D01*
X135600000Y-133050000D02*
X136200000Y-133650000D01*
D31*
X136200000Y-133650000D02*
X134700000Y-133650000D01*
X134700000Y-133650000D02*
X134100000Y-134250000D01*
X141028249Y-124728249D02*
X139443323Y-124728249D01*
X139443323Y-124728249D02*
X138935786Y-125235786D01*
D32*
X140950000Y-125700000D02*
X140950000Y-124806498D01*
X140950000Y-124806498D02*
X141028249Y-124728249D01*
D31*
X107250000Y-119050000D02*
X107250000Y-120750000D01*
X107250000Y-120750000D02*
X109300000Y-122800000D01*
X107700000Y-118600000D02*
X107250000Y-119050000D01*
X108900000Y-118600000D02*
X107700000Y-118600000D01*
X124157101Y-126042899D02*
X115700000Y-126042899D01*
X115700000Y-126042899D02*
X112542899Y-126042899D01*
D32*
X130600000Y-122300000D02*
X131500000Y-122300000D01*
X131500000Y-122300000D02*
X132000000Y-121800000D01*
D31*
X112542899Y-126042899D02*
X109300000Y-122800000D01*
X109300000Y-122800000D02*
X105500000Y-122800000D01*
X124500000Y-125700000D02*
X124157101Y-126042899D01*
D33*
X124900000Y-110650000D02*
X127440000Y-110650000D01*
X127440000Y-110650000D02*
X128050000Y-110040000D01*
D31*
X123500000Y-158300000D02*
X120400000Y-161400000D01*
X120200000Y-161400000D02*
X120400000Y-161400000D01*
X120400000Y-161400000D02*
X117000000Y-164800000D01*
X117800000Y-159000000D02*
X120200000Y-161400000D01*
X117000000Y-164800000D02*
X112400000Y-164800000D01*
X127500000Y-158300000D02*
X123500000Y-158300000D01*
X128800000Y-161400000D02*
X128800000Y-159600000D01*
X128800000Y-159600000D02*
X127500000Y-158300000D01*
X128993900Y-155790900D02*
X128993900Y-161206100D01*
X128993900Y-161206100D02*
X128800000Y-161400000D01*
X111750000Y-113600000D02*
X108650000Y-116700000D01*
X113500000Y-113600000D02*
X111750000Y-113600000D01*
D33*
X105200000Y-121200000D02*
X104300000Y-120300000D01*
X104300000Y-120300000D02*
X104300000Y-119350000D01*
X105500000Y-122800000D02*
X105500000Y-121500000D01*
X105500000Y-121500000D02*
X105200000Y-121200000D01*
D31*
X113100000Y-103300000D02*
X113100000Y-106000000D01*
X113100000Y-106000000D02*
X113500000Y-106400000D01*
D33*
X125300000Y-115350000D02*
X125300000Y-115125000D01*
X125300000Y-115125000D02*
X123775000Y-113600000D01*
X123775000Y-113600000D02*
X121700000Y-113600000D01*
X121700000Y-113600000D02*
X120450000Y-113600000D01*
D31*
X125300000Y-115350000D02*
X126450000Y-115350000D01*
X126450000Y-115350000D02*
X127200000Y-114600000D01*
D33*
X123000000Y-116400000D02*
X124250000Y-116400000D01*
X124250000Y-116400000D02*
X125300000Y-115350000D01*
D31*
X108900000Y-118600000D02*
X108900000Y-116950000D01*
X108900000Y-116950000D02*
X108650000Y-116700000D01*
D32*
X120300000Y-111700000D02*
X120300000Y-110300000D01*
X120300000Y-110300000D02*
X119900000Y-109900000D01*
X122900000Y-110300000D02*
X121600000Y-110300000D01*
X121600000Y-110300000D02*
X121200000Y-109900000D01*
X120700000Y-104900000D02*
X120700000Y-106800000D01*
X120700000Y-106800000D02*
X121200000Y-107300000D01*
X118050000Y-104900000D02*
X118050000Y-105575000D01*
X118050000Y-105575000D02*
X119775000Y-107300000D01*
X119775000Y-107300000D02*
X119800000Y-107300000D01*
X118600000Y-107300000D02*
X116000000Y-107300000D01*
X116000000Y-107300000D02*
X115900000Y-107400000D01*
X115900000Y-107400000D02*
X115875000Y-107400000D01*
X115875000Y-107400000D02*
X115200000Y-106725000D01*
X115200000Y-106725000D02*
X115200000Y-106500000D01*
X119850000Y-108600000D02*
X118500000Y-108600000D01*
X119850000Y-108600000D02*
X119800000Y-108600000D01*
X119800000Y-108600000D02*
X118500000Y-109900000D01*
X119850000Y-108600000D02*
X119850000Y-109850000D01*
X119850000Y-109850000D02*
X119900000Y-109900000D01*
X119850000Y-108600000D02*
X119900000Y-108600000D01*
X119900000Y-108600000D02*
X121200000Y-109900000D01*
X119850000Y-108600000D02*
X121200000Y-108600000D01*
X119900000Y-108600000D02*
X121200000Y-107300000D01*
X119850000Y-108600000D02*
X119850000Y-107350000D01*
X119850000Y-107350000D02*
X119800000Y-107300000D01*
X118600000Y-107300000D02*
X118600000Y-107350000D01*
X118600000Y-107350000D02*
X119850000Y-108600000D01*
D31*
X113500000Y-106400000D02*
X115100000Y-106400000D01*
X115100000Y-106400000D02*
X115200000Y-106500000D01*
X120300000Y-111700000D02*
X120300000Y-113450000D01*
X120300000Y-113450000D02*
X120450000Y-113600000D01*
X122900000Y-110300000D02*
X124550000Y-110300000D01*
X124550000Y-110300000D02*
X124900000Y-110650000D01*
X120400000Y-103300000D02*
X120400000Y-104600000D01*
X120400000Y-104600000D02*
X120700000Y-104900000D01*
X118250000Y-103300000D02*
X118250000Y-104700000D01*
X118250000Y-104700000D02*
X118050000Y-104900000D01*
X119100000Y-143361930D02*
X121167644Y-145429574D01*
X118900000Y-131700000D02*
X118900000Y-133500000D01*
X118900000Y-133500000D02*
X119100000Y-133700000D01*
D34*
X110423077Y-142775363D02*
X110423077Y-141523077D01*
X110423077Y-141523077D02*
X109600000Y-140700000D01*
X110423077Y-142775363D02*
X110423077Y-143643260D01*
X110423077Y-143643260D02*
X110386454Y-143679883D01*
D31*
X116800000Y-156800000D02*
X116800000Y-163250000D01*
X116800000Y-163250000D02*
X116550000Y-163500000D01*
D34*
X116800000Y-156000000D02*
X116800000Y-156800000D01*
D31*
X131949999Y-116900000D02*
X140050000Y-116900000D01*
X127954811Y-124328767D02*
X127954811Y-120895188D01*
X127954811Y-120895188D02*
X131949999Y-116900000D01*
X125000000Y-127283578D02*
X127954811Y-124328767D01*
X125000000Y-137450000D02*
X125000000Y-127283578D01*
X143550000Y-120400000D02*
X140050000Y-116900000D01*
X125850000Y-137450000D02*
X125000000Y-137450000D01*
X125000000Y-137450000D02*
X124400000Y-137450000D01*
X124400000Y-137450000D02*
X123667644Y-138182356D01*
X123667644Y-138182356D02*
X123667644Y-145429574D01*
X127808554Y-139408554D02*
X125850000Y-137450000D01*
X127808554Y-147450000D02*
X127808554Y-139408554D01*
X128800000Y-165400000D02*
X129050000Y-165400000D01*
X129050000Y-165400000D02*
X130396301Y-164053699D01*
X130396301Y-164053699D02*
X130396301Y-150037747D01*
X130396301Y-150037747D02*
X127808554Y-147450000D01*
D32*
X124300000Y-159600000D02*
X128800000Y-164100000D01*
X128800000Y-164100000D02*
X128800000Y-165400000D01*
D34*
X140250000Y-144350000D02*
X140734933Y-144350000D01*
X140734933Y-144350000D02*
X140777334Y-144392401D01*
X140777334Y-144392401D02*
X145297599Y-144392401D01*
X145297599Y-144392401D02*
X145347599Y-144342401D01*
X136950000Y-142900000D02*
X136950000Y-144100000D01*
X136950000Y-144100000D02*
X137200000Y-144350000D01*
D32*
X131200000Y-140400000D02*
X133500000Y-142700000D01*
X133500000Y-142700000D02*
X133650000Y-142700000D01*
X135550000Y-142350000D02*
X136400000Y-142350000D01*
X136400000Y-142350000D02*
X136950000Y-142900000D01*
X135242401Y-144342401D02*
X135400000Y-144342401D01*
X136950000Y-142900000D02*
X136950000Y-143050000D01*
X136950000Y-143050000D02*
X135657599Y-144342401D01*
X135657599Y-144342401D02*
X135400000Y-144342401D01*
X134850000Y-131000000D02*
X129750000Y-131000000D01*
X129750000Y-131000000D02*
X128450000Y-132300000D01*
X128450000Y-132300000D02*
X128450000Y-137550000D01*
X145347599Y-144342401D02*
X145650001Y-144039999D01*
X145650001Y-144039999D02*
X146500000Y-143190000D01*
X122445302Y-108400000D02*
X122900000Y-108400000D01*
D31*
X108752411Y-112097589D02*
X111600000Y-109250000D01*
X108752411Y-113294501D02*
X108752411Y-112097589D01*
X111600000Y-109250000D02*
X111600000Y-109100000D01*
X103350000Y-116195000D02*
X104990188Y-114554812D01*
X103350000Y-116650000D02*
X103350000Y-116195000D01*
X104990188Y-114554812D02*
X107492100Y-114554812D01*
X107492100Y-114554812D02*
X108752411Y-113294501D01*
X124900000Y-105800000D02*
X124900000Y-108150000D01*
X113153089Y-101900000D02*
X125869322Y-101900000D01*
X125869322Y-101900000D02*
X126325000Y-102355678D01*
X126325000Y-102355678D02*
X126325000Y-104250000D01*
X126325000Y-104250000D02*
X124900000Y-105675000D01*
X124900000Y-105675000D02*
X124900000Y-105800000D01*
X111600000Y-109100000D02*
X111600000Y-103453089D01*
X111600000Y-103453089D02*
X113153089Y-101900000D01*
X113500000Y-108900000D02*
X114700000Y-108900000D01*
X114700000Y-108900000D02*
X115200000Y-108400000D01*
X111600000Y-109100000D02*
X113300000Y-109100000D01*
X113300000Y-109100000D02*
X113500000Y-108900000D01*
X122900000Y-108400000D02*
X124650000Y-108400000D01*
X124650000Y-108400000D02*
X124900000Y-108150000D01*
D32*
X117243071Y-109796411D02*
X115753589Y-109796411D01*
X115753589Y-109796411D02*
X115200000Y-110350000D01*
D31*
X113500000Y-111100000D02*
X111800000Y-111100000D01*
X111800000Y-111100000D02*
X111600000Y-111300000D01*
X115200000Y-110350000D02*
X114250000Y-110350000D01*
X114250000Y-110350000D02*
X113500000Y-111100000D01*
D32*
X133500000Y-120200000D02*
X133500000Y-120100000D01*
X133500000Y-120100000D02*
X132100000Y-118700000D01*
X129661024Y-120455135D02*
X129318125Y-120798034D01*
X129716159Y-120400000D02*
X129661024Y-120455135D01*
X130600000Y-120400000D02*
X129716159Y-120400000D01*
X133500000Y-120200000D02*
X132700000Y-120200000D01*
X132700000Y-120200000D02*
X132000000Y-120900000D01*
X130600000Y-120400000D02*
X131500000Y-120400000D01*
X131500000Y-120400000D02*
X132000000Y-120900000D01*
X122091508Y-111196435D02*
X122091508Y-111691508D01*
X122091508Y-111691508D02*
X123200000Y-112800000D01*
D33*
X120300000Y-117350000D02*
X119020000Y-117350000D01*
X119020000Y-117350000D02*
X117950000Y-116280000D01*
X117950000Y-116280000D02*
X117950000Y-114725000D01*
X117950000Y-114725000D02*
X117950000Y-113600000D01*
D32*
X118400000Y-111700000D02*
X117753511Y-111700000D01*
X117753511Y-111700000D02*
X117218086Y-111164575D01*
D31*
X118400000Y-111700000D02*
X118400000Y-113150000D01*
X118400000Y-113150000D02*
X117950000Y-113600000D01*
X115700000Y-134700000D02*
X115700000Y-136500000D01*
X115700000Y-136500000D02*
X112400000Y-139800000D01*
D34*
X112373077Y-147175363D02*
X112373077Y-146100363D01*
X112373077Y-146100363D02*
X112198077Y-145925363D01*
X113698077Y-140875363D02*
X113698077Y-140101923D01*
X113698077Y-140101923D02*
X113900000Y-139900000D01*
X113198077Y-148975363D02*
X113198077Y-146401923D01*
X113198077Y-146401923D02*
X113700000Y-145900000D01*
D32*
X131600000Y-129600000D02*
X131600000Y-128500000D01*
X131600000Y-128500000D02*
X131000000Y-127900000D01*
D34*
X115298077Y-138975363D02*
X115298077Y-141375363D01*
X111081756Y-142784042D02*
X111073077Y-142775363D01*
X111081756Y-143718364D02*
X111081756Y-142784042D01*
X111216156Y-143852764D02*
X111081756Y-143718364D01*
X114470676Y-143852764D02*
X111216156Y-143852764D01*
X114548077Y-143775363D02*
X114470676Y-143852764D01*
X115398077Y-143775363D02*
X114548077Y-143775363D01*
X115398077Y-143775363D02*
X115398077Y-142775363D01*
X117798077Y-139875363D02*
X117798077Y-138975363D01*
X115398077Y-142775363D02*
X116945676Y-141227764D01*
X116945676Y-141227764D02*
X116945676Y-140727764D01*
X116945676Y-140727764D02*
X117798077Y-139875363D01*
X117598077Y-143775363D02*
X117598077Y-143925363D01*
X117598077Y-143925363D02*
X116500478Y-145022962D01*
X116500478Y-145022962D02*
X111450478Y-145022962D01*
X111450478Y-145022962D02*
X110423077Y-146050363D01*
X110423077Y-146050363D02*
X110423077Y-147175363D01*
X117598077Y-143775363D02*
X117598077Y-141575363D01*
X117598077Y-141575363D02*
X117798077Y-141375363D01*
X115098077Y-148375363D02*
X115098077Y-146275363D01*
X115098077Y-146275363D02*
X115398077Y-145975363D01*
X110050000Y-153460000D02*
X111300000Y-153460000D01*
X111300000Y-153460000D02*
X115098077Y-149661923D01*
X115098077Y-149661923D02*
X115098077Y-149075363D01*
X115098077Y-149075363D02*
X115098077Y-148375363D01*
X118098077Y-148375363D02*
X118098077Y-146475363D01*
X118098077Y-146475363D02*
X117598077Y-145975363D01*
X110050000Y-156000000D02*
X110899999Y-155150001D01*
X110899999Y-155150001D02*
X111423439Y-155150001D01*
X111423439Y-155150001D02*
X118098077Y-148475363D01*
X118098077Y-148475363D02*
X118098077Y-148375363D01*
D32*
X149350000Y-149500000D02*
X149350000Y-135250000D01*
X149350000Y-135250000D02*
X146550000Y-132450000D01*
X146690000Y-152160000D02*
X149350000Y-149500000D01*
X146700000Y-133600000D02*
X148604812Y-135504812D01*
X148604812Y-135504812D02*
X148604812Y-148539634D01*
X148604812Y-148539634D02*
X145302401Y-151842045D01*
X145302401Y-151842045D02*
X145302401Y-153547599D01*
X144999999Y-153850001D02*
X144150000Y-154700000D01*
X145302401Y-153547599D02*
X144999999Y-153850001D01*
X118000000Y-119000000D02*
X120865554Y-119000000D01*
X120865554Y-119000000D02*
X121907599Y-120042045D01*
X121907599Y-120042045D02*
X121907599Y-121747599D01*
X121907599Y-121747599D02*
X122210001Y-122050001D01*
X122210001Y-122050001D02*
X123060000Y-122900000D01*
X116442899Y-117442899D02*
X118000000Y-119000000D01*
X114100000Y-117100000D02*
X114442899Y-117442899D01*
X114442899Y-117442899D02*
X116442899Y-117442899D01*
X109887581Y-120600188D02*
X109544682Y-120257289D01*
X119367599Y-124052401D02*
X113339794Y-124052401D01*
X120520000Y-122900000D02*
X119367599Y-124052401D01*
X113339794Y-124052401D02*
X109887581Y-120600188D01*
X118700000Y-118300000D02*
X121000000Y-118300000D01*
X121000000Y-118300000D02*
X123060000Y-120360000D01*
X116842899Y-116442899D02*
X118700000Y-118300000D01*
X114200000Y-116100000D02*
X114542899Y-116442899D01*
X114542899Y-116442899D02*
X116842899Y-116442899D01*
X109757101Y-119557101D02*
X111712401Y-121512401D01*
X111712401Y-121512401D02*
X119367599Y-121512401D01*
X119367599Y-121512401D02*
X119670001Y-121209999D01*
X119670001Y-121209999D02*
X120520000Y-120360000D01*
X109042899Y-119557101D02*
X109757101Y-119557101D01*
X108700000Y-119900000D02*
X109042899Y-119557101D01*
X144400000Y-124850000D02*
X144450000Y-124850000D01*
X144450000Y-124850000D02*
X145700000Y-126100000D01*
X140047590Y-138502410D02*
X140047590Y-142202410D01*
X140047590Y-142202410D02*
X139800000Y-142450000D01*
X140047590Y-137309053D02*
X140047590Y-138502410D01*
X141950000Y-131950000D02*
X141950000Y-135406644D01*
X141950000Y-135406644D02*
X140047590Y-137309053D01*
X133500000Y-122400000D02*
X132750000Y-122400000D01*
X130959052Y-123897592D02*
X130547592Y-124309052D01*
X132750000Y-122400000D02*
X131252408Y-123897592D01*
X131252408Y-123897592D02*
X130959052Y-123897592D01*
X130547592Y-124309052D02*
X130547592Y-124602408D01*
X130547592Y-124602408D02*
X129600000Y-125550000D01*
X129600000Y-125550000D02*
X129450000Y-125550000D01*
X134652157Y-123596406D02*
X134652157Y-123552157D01*
X134652157Y-123552157D02*
X133500000Y-122400000D01*
X133500000Y-122400000D02*
X133500000Y-122550000D01*
D34*
X116600000Y-148375363D02*
X117198077Y-148375363D01*
X116600000Y-148375363D02*
X116600000Y-147700000D01*
X115998077Y-148375363D02*
X116600000Y-148375363D01*
X112373077Y-141450363D02*
X112373077Y-141300363D01*
X112373077Y-141300363D02*
X112798077Y-140875363D01*
X111798077Y-140875363D02*
X112373077Y-141450363D01*
X112373077Y-141450363D02*
X112373077Y-142775363D01*
D31*
X106400000Y-125900000D02*
X110199999Y-129699999D01*
X110199999Y-129699999D02*
X110199999Y-134600001D01*
X110199999Y-134600001D02*
X108900000Y-135900000D01*
X110500000Y-139777286D02*
X110500000Y-137500000D01*
X110500000Y-137500000D02*
X108900000Y-135900000D01*
D34*
X110898077Y-140875363D02*
X110898077Y-140175363D01*
X110898077Y-140175363D02*
X110500000Y-139777286D01*
X110898077Y-140875363D02*
X110898077Y-140975363D01*
X110898077Y-140975363D02*
X111723077Y-141800363D01*
X111723077Y-141800363D02*
X111723077Y-142775363D01*
D31*
X108500000Y-138400000D02*
X108500000Y-146927286D01*
X108500000Y-146927286D02*
X109572714Y-148000000D01*
X106000000Y-135900000D02*
X108500000Y-138400000D01*
X103900000Y-135900000D02*
X106000000Y-135900000D01*
D34*
X109572714Y-148000000D02*
X110448077Y-148875363D01*
X110448077Y-148875363D02*
X110448077Y-148975363D01*
X111073077Y-147175363D02*
X111073077Y-148250363D01*
X111073077Y-148250363D02*
X110448077Y-148875363D01*
X111723077Y-148600363D02*
X111923077Y-148600363D01*
X111923077Y-148600363D02*
X112298077Y-148975363D01*
X111348077Y-148975363D02*
X111723077Y-148600363D01*
X111723077Y-148600363D02*
X111723077Y-147175363D01*
D32*
X115904812Y-122448954D02*
X114598954Y-122448954D01*
X114598954Y-122448954D02*
X114450000Y-122300000D01*
X127187344Y-112500000D02*
X132657554Y-112500000D01*
X132657554Y-112500000D02*
X134500001Y-110657553D01*
X134500001Y-110657553D02*
X134500001Y-109699999D01*
X134500001Y-109699999D02*
X135250000Y-108950000D01*
X126252411Y-112950000D02*
X126737344Y-112950000D01*
X126737344Y-112950000D02*
X127187344Y-112500000D01*
X131552411Y-112047589D02*
X132550001Y-111049999D01*
X126999950Y-112047589D02*
X131552411Y-112047589D01*
X126849950Y-112197589D02*
X126999950Y-112047589D01*
X126052411Y-112197589D02*
X126849950Y-112197589D01*
X132550001Y-111049999D02*
X133300000Y-110300000D01*
X125400000Y-112850000D02*
X126052411Y-112197589D01*
X128695310Y-111504690D02*
X127032806Y-111504690D01*
X131200000Y-109000000D02*
X128695310Y-111504690D01*
X127032806Y-111504690D02*
X126547873Y-111504690D01*
D35*
G36*
X151290000Y-117356550D02*
X151002000Y-117265000D01*
X150727000Y-117265000D01*
X150727000Y-118273000D01*
X150747000Y-118273000D01*
X150747000Y-118527000D01*
X150727000Y-118527000D01*
X150727000Y-119535000D01*
X151002000Y-119535000D01*
X151290000Y-119443450D01*
X151290000Y-124356550D01*
X151002000Y-124265000D01*
X150727000Y-124265000D01*
X150727000Y-125273000D01*
X150747000Y-125273000D01*
X150747000Y-125527000D01*
X150727000Y-125527000D01*
X150727000Y-126535000D01*
X151002000Y-126535000D01*
X151290000Y-126443450D01*
X151290000Y-167290000D01*
X100710000Y-167290000D01*
X100710000Y-162756890D01*
X102258524Y-162756890D01*
X102428355Y-163166924D01*
X102818642Y-163595183D01*
X103343108Y-163841486D01*
X103573000Y-163720819D01*
X103573000Y-162527000D01*
X103827000Y-162527000D01*
X103827000Y-163720819D01*
X104056892Y-163841486D01*
X104581358Y-163595183D01*
X104668101Y-163500000D01*
X115514999Y-163500000D01*
X115593785Y-163896077D01*
X115818144Y-164231856D01*
X116153923Y-164456215D01*
X116550000Y-164535001D01*
X116946077Y-164456215D01*
X117281856Y-164231856D01*
X117531853Y-163981858D01*
X117531856Y-163981856D01*
X117666349Y-163780571D01*
X117756215Y-163646078D01*
X117835000Y-163250000D01*
X117835000Y-156800000D01*
X117756215Y-156403923D01*
X117716076Y-156343850D01*
X117777730Y-156195370D01*
X117777833Y-156076650D01*
X127508900Y-156076650D01*
X127508900Y-156767210D01*
X127605573Y-157000599D01*
X127784202Y-157179227D01*
X128017591Y-157275900D01*
X128708150Y-157275900D01*
X128866900Y-157117150D01*
X128866900Y-155917900D01*
X127667650Y-155917900D01*
X127508900Y-156076650D01*
X117777833Y-156076650D01*
X117778069Y-155806337D01*
X117629507Y-155446788D01*
X117354659Y-155171460D01*
X116995370Y-155022270D01*
X116606337Y-155021931D01*
X116246788Y-155170493D01*
X115971460Y-155445341D01*
X115822270Y-155804630D01*
X115821931Y-156193663D01*
X115883963Y-156343792D01*
X115843785Y-156403923D01*
X115765000Y-156800000D01*
X115765000Y-161001877D01*
X115721460Y-161045341D01*
X115572270Y-161404630D01*
X115571931Y-161793663D01*
X115720493Y-162153212D01*
X115765000Y-162197797D01*
X115765000Y-162847680D01*
X115593785Y-163103923D01*
X115514999Y-163500000D01*
X104668101Y-163500000D01*
X104971645Y-163166924D01*
X105141476Y-162756890D01*
X105020155Y-162527000D01*
X103827000Y-162527000D01*
X103573000Y-162527000D01*
X102379845Y-162527000D01*
X102258524Y-162756890D01*
X100710000Y-162756890D01*
X100710000Y-159010000D01*
X102202560Y-159010000D01*
X102202560Y-160710000D01*
X102246838Y-160945317D01*
X102385910Y-161161441D01*
X102598110Y-161306431D01*
X102706107Y-161328301D01*
X102428355Y-161633076D01*
X102258524Y-162043110D01*
X102379845Y-162273000D01*
X103573000Y-162273000D01*
X103573000Y-162253000D01*
X103827000Y-162253000D01*
X103827000Y-162273000D01*
X105020155Y-162273000D01*
X105141476Y-162043110D01*
X104971645Y-161633076D01*
X104695499Y-161330063D01*
X104785317Y-161313162D01*
X105001441Y-161174090D01*
X105146431Y-160961890D01*
X105197440Y-160710000D01*
X105197440Y-159010000D01*
X105153162Y-158774683D01*
X105014090Y-158558559D01*
X104801890Y-158413569D01*
X104550000Y-158362560D01*
X102850000Y-158362560D01*
X102614683Y-158406838D01*
X102398559Y-158545910D01*
X102253569Y-158758110D01*
X102202560Y-159010000D01*
X100710000Y-159010000D01*
X100710000Y-148690000D01*
X102302560Y-148690000D01*
X102302560Y-150390000D01*
X102346838Y-150625317D01*
X102485910Y-150841441D01*
X102698110Y-150986431D01*
X102950000Y-151037440D01*
X104650000Y-151037440D01*
X104885317Y-150993162D01*
X105101441Y-150854090D01*
X105246431Y-150641890D01*
X105297440Y-150390000D01*
X105297440Y-148690000D01*
X105253162Y-148454683D01*
X105114090Y-148238559D01*
X104901890Y-148093569D01*
X104793893Y-148071699D01*
X105071645Y-147766924D01*
X105241476Y-147356890D01*
X105120155Y-147127000D01*
X103927000Y-147127000D01*
X103927000Y-147147000D01*
X103673000Y-147147000D01*
X103673000Y-147127000D01*
X102479845Y-147127000D01*
X102358524Y-147356890D01*
X102528355Y-147766924D01*
X102804501Y-148069937D01*
X102714683Y-148086838D01*
X102498559Y-148225910D01*
X102353569Y-148438110D01*
X102302560Y-148690000D01*
X100710000Y-148690000D01*
X100710000Y-146643110D01*
X102358524Y-146643110D01*
X102479845Y-146873000D01*
X103673000Y-146873000D01*
X103673000Y-145679181D01*
X103927000Y-145679181D01*
X103927000Y-146873000D01*
X105120155Y-146873000D01*
X105241476Y-146643110D01*
X105071645Y-146233076D01*
X104681358Y-145804817D01*
X104156892Y-145558514D01*
X103927000Y-145679181D01*
X103673000Y-145679181D01*
X103443108Y-145558514D01*
X102918642Y-145804817D01*
X102528355Y-146233076D01*
X102358524Y-146643110D01*
X100710000Y-146643110D01*
X100710000Y-115800678D01*
X101064999Y-115800678D01*
X101065000Y-115800683D01*
X101065000Y-117644995D01*
X101064999Y-117645000D01*
X101143785Y-118041077D01*
X101368144Y-118376856D01*
X102315000Y-119323711D01*
X102315000Y-119350000D01*
X102377560Y-119664509D01*
X102377560Y-120130000D01*
X102402384Y-120261926D01*
X102248559Y-120360910D01*
X102103569Y-120573110D01*
X102052560Y-120825000D01*
X102052560Y-121090790D01*
X102043785Y-121103923D01*
X101964999Y-121500000D01*
X101965000Y-121500005D01*
X101965000Y-121603808D01*
X101798559Y-121710910D01*
X101653569Y-121923110D01*
X101602560Y-122175000D01*
X101602560Y-123425000D01*
X101646838Y-123660317D01*
X101785910Y-123876441D01*
X101998110Y-124021431D01*
X102250000Y-124072440D01*
X103750000Y-124072440D01*
X103985317Y-124028162D01*
X104201441Y-123889090D01*
X104247969Y-123820994D01*
X104390302Y-123963327D01*
X104623691Y-124060000D01*
X105214250Y-124060000D01*
X105373000Y-123901250D01*
X105373000Y-122927000D01*
X105353000Y-122927000D01*
X105353000Y-122673000D01*
X105373000Y-122673000D01*
X105373000Y-122653000D01*
X105627000Y-122653000D01*
X105627000Y-122673000D01*
X106726250Y-122673000D01*
X106885000Y-122514250D01*
X106885000Y-122048690D01*
X106788327Y-121815301D01*
X106609698Y-121636673D01*
X106435000Y-121564311D01*
X106435000Y-121485750D01*
X106276250Y-121327000D01*
X105327000Y-121327000D01*
X105327000Y-121347000D01*
X105073000Y-121347000D01*
X105073000Y-121327000D01*
X105053000Y-121327000D01*
X105053000Y-121073000D01*
X105073000Y-121073000D01*
X105073000Y-121053000D01*
X105327000Y-121053000D01*
X105327000Y-121073000D01*
X106276250Y-121073000D01*
X106435000Y-120914250D01*
X106435000Y-120698690D01*
X106338327Y-120465301D01*
X106185490Y-120312465D01*
X106222440Y-120130000D01*
X106222440Y-118570000D01*
X106178162Y-118334683D01*
X106076533Y-118176748D01*
X106067633Y-118132003D01*
X105944078Y-117947089D01*
X106026441Y-117894090D01*
X106171431Y-117681890D01*
X106222440Y-117430000D01*
X106222440Y-115870000D01*
X106178162Y-115634683D01*
X106149288Y-115589812D01*
X107487163Y-115589812D01*
X107361673Y-115715301D01*
X107265000Y-115948690D01*
X107265000Y-116414250D01*
X107423750Y-116573000D01*
X108523000Y-116573000D01*
X108523000Y-115598750D01*
X108364250Y-115440000D01*
X107994477Y-115440000D01*
X108223956Y-115286668D01*
X109484264Y-114026359D01*
X109484267Y-114026357D01*
X109578217Y-113885750D01*
X112240000Y-113885750D01*
X112240000Y-114476309D01*
X112336673Y-114709698D01*
X112515301Y-114888327D01*
X112748690Y-114985000D01*
X113214250Y-114985000D01*
X113373000Y-114826250D01*
X113373000Y-113727000D01*
X113627000Y-113727000D01*
X113627000Y-114826250D01*
X113785750Y-114985000D01*
X114251310Y-114985000D01*
X114484699Y-114888327D01*
X114663327Y-114709698D01*
X114760000Y-114476309D01*
X114760000Y-113885750D01*
X114601250Y-113727000D01*
X113627000Y-113727000D01*
X113373000Y-113727000D01*
X112398750Y-113727000D01*
X112240000Y-113885750D01*
X109578217Y-113885750D01*
X109708626Y-113690578D01*
X109729627Y-113585000D01*
X109787412Y-113294501D01*
X109787411Y-113294496D01*
X109787411Y-112526301D01*
X110502560Y-111811152D01*
X110502560Y-111900000D01*
X110546838Y-112135317D01*
X110685910Y-112351441D01*
X110898110Y-112496431D01*
X111150000Y-112547440D01*
X112050000Y-112547440D01*
X112285317Y-112503162D01*
X112393294Y-112433681D01*
X112336673Y-112490302D01*
X112240000Y-112723691D01*
X112240000Y-113314250D01*
X112398750Y-113473000D01*
X113373000Y-113473000D01*
X113373000Y-113453000D01*
X113627000Y-113453000D01*
X113627000Y-113473000D01*
X114601250Y-113473000D01*
X114621304Y-113452946D01*
X114698690Y-113485000D01*
X114914250Y-113485000D01*
X115073000Y-113326250D01*
X115073000Y-112377000D01*
X115327000Y-112377000D01*
X115327000Y-113326250D01*
X115485750Y-113485000D01*
X115701310Y-113485000D01*
X115934699Y-113388327D01*
X116113327Y-113209698D01*
X116210000Y-112976309D01*
X116210000Y-112535750D01*
X116051250Y-112377000D01*
X115327000Y-112377000D01*
X115073000Y-112377000D01*
X115053000Y-112377000D01*
X115053000Y-112123000D01*
X115073000Y-112123000D01*
X115073000Y-112103000D01*
X115327000Y-112103000D01*
X115327000Y-112123000D01*
X116051250Y-112123000D01*
X116210000Y-111964250D01*
X116210000Y-111523691D01*
X116113327Y-111290302D01*
X116111957Y-111288932D01*
X116171431Y-111201890D01*
X116222440Y-110950000D01*
X116222440Y-110581411D01*
X116418101Y-110581411D01*
X116389546Y-110609916D01*
X116240356Y-110969205D01*
X116240017Y-111358238D01*
X116388579Y-111717787D01*
X116663427Y-111993115D01*
X117022716Y-112142305D01*
X117085713Y-112142360D01*
X117183666Y-112240313D01*
X117196838Y-112310317D01*
X117207934Y-112327560D01*
X117200000Y-112327560D01*
X116964683Y-112371838D01*
X116748559Y-112510910D01*
X116603569Y-112723110D01*
X116552560Y-112975000D01*
X116552560Y-114225000D01*
X116596838Y-114460317D01*
X116735910Y-114676441D01*
X116948110Y-114821431D01*
X117065000Y-114845102D01*
X117065000Y-115702078D01*
X116842899Y-115657899D01*
X115075417Y-115657899D01*
X115029507Y-115546788D01*
X114754659Y-115271460D01*
X114395370Y-115122270D01*
X114006337Y-115121931D01*
X113646788Y-115270493D01*
X113371460Y-115545341D01*
X113222270Y-115904630D01*
X113221931Y-116293663D01*
X113310018Y-116506850D01*
X113271460Y-116545341D01*
X113122270Y-116904630D01*
X113121931Y-117293663D01*
X113270493Y-117653212D01*
X113545341Y-117928540D01*
X113904630Y-118077730D01*
X114007312Y-118077819D01*
X114142493Y-118168144D01*
X114442899Y-118227899D01*
X116117741Y-118227899D01*
X116835052Y-118945210D01*
X116678559Y-119045910D01*
X116533569Y-119258110D01*
X116520023Y-119325000D01*
X112188712Y-119325000D01*
X112031856Y-119168144D01*
X112011132Y-119154296D01*
X112047440Y-118975000D01*
X112047440Y-118734041D01*
X112106215Y-118646077D01*
X112121348Y-118570000D01*
X112185001Y-118250000D01*
X112185000Y-118249995D01*
X112185000Y-117896192D01*
X112351441Y-117789090D01*
X112496431Y-117576890D01*
X112547440Y-117325000D01*
X112547440Y-116075000D01*
X112503162Y-115839683D01*
X112364090Y-115623559D01*
X112332588Y-115602035D01*
X112435810Y-115353450D01*
X112436149Y-114964417D01*
X112287587Y-114604868D01*
X112012739Y-114329540D01*
X111653450Y-114180350D01*
X111264417Y-114180011D01*
X110904868Y-114328573D01*
X110629540Y-114603421D01*
X110480350Y-114962710D01*
X110480245Y-115082706D01*
X110424755Y-115165753D01*
X110373139Y-115425245D01*
X110371616Y-115432901D01*
X110164683Y-115471838D01*
X109948559Y-115610910D01*
X109902031Y-115679006D01*
X109759698Y-115536673D01*
X109526309Y-115440000D01*
X108935750Y-115440000D01*
X108777000Y-115598750D01*
X108777000Y-116573000D01*
X108797000Y-116573000D01*
X108797000Y-116827000D01*
X108777000Y-116827000D01*
X108777000Y-116847000D01*
X108523000Y-116847000D01*
X108523000Y-116827000D01*
X107423750Y-116827000D01*
X107265000Y-116985750D01*
X107265000Y-117451310D01*
X107361673Y-117684699D01*
X107540302Y-117863327D01*
X107729952Y-117941883D01*
X107665000Y-118098690D01*
X107665000Y-118314250D01*
X107823750Y-118473000D01*
X108773000Y-118473000D01*
X108773000Y-118453000D01*
X109027000Y-118453000D01*
X109027000Y-118473000D01*
X109047000Y-118473000D01*
X109047000Y-118727000D01*
X109027000Y-118727000D01*
X109027000Y-118747000D01*
X108773000Y-118747000D01*
X108773000Y-118727000D01*
X107823750Y-118727000D01*
X107665000Y-118885750D01*
X107665000Y-119101310D01*
X107761673Y-119334699D01*
X107842371Y-119415396D01*
X107722270Y-119704630D01*
X107721931Y-120093663D01*
X107870493Y-120453212D01*
X108145341Y-120728540D01*
X108504630Y-120877730D01*
X108782529Y-120877972D01*
X108990023Y-121085829D01*
X109349312Y-121235019D01*
X109412309Y-121235074D01*
X110714443Y-122537208D01*
X110668144Y-122568144D01*
X110443785Y-122903923D01*
X110364999Y-123300000D01*
X110443785Y-123696077D01*
X110668144Y-124031856D01*
X112122954Y-125486665D01*
X112122956Y-125486668D01*
X112458735Y-125711027D01*
X112854812Y-125789813D01*
X112854817Y-125789812D01*
X124098271Y-125789812D01*
X124098276Y-125789813D01*
X124494353Y-125711027D01*
X124830132Y-125486668D01*
X124979399Y-125337401D01*
X125482465Y-125337401D01*
X124268144Y-126551722D01*
X124043785Y-126887501D01*
X123964999Y-127283578D01*
X123965000Y-127283583D01*
X123965000Y-136519792D01*
X123668144Y-136718144D01*
X123668142Y-136718147D01*
X122935788Y-137450500D01*
X122711429Y-137786279D01*
X122632643Y-138182356D01*
X122632644Y-138182361D01*
X122632644Y-145429574D01*
X122711429Y-145825651D01*
X122935788Y-146161430D01*
X123271567Y-146385789D01*
X123667644Y-146464574D01*
X124063721Y-146385789D01*
X124399500Y-146161430D01*
X124623859Y-145825651D01*
X124702644Y-145429574D01*
X124702644Y-138611068D01*
X124828711Y-138485000D01*
X125073000Y-138485000D01*
X125073000Y-146773000D01*
X120500000Y-146773000D01*
X120452211Y-146782334D01*
X120410197Y-146810197D01*
X118945517Y-148274877D01*
X118945517Y-148075363D01*
X118933077Y-148009250D01*
X118933077Y-146475363D01*
X118897854Y-146298285D01*
X118869517Y-146155823D01*
X118695517Y-145895414D01*
X118695517Y-145375363D01*
X118651239Y-145140046D01*
X118512167Y-144923922D01*
X118442366Y-144876229D01*
X118499518Y-144839453D01*
X118644508Y-144627253D01*
X118695517Y-144375363D01*
X118695517Y-143175363D01*
X118651239Y-142940046D01*
X118512167Y-142723922D01*
X118433077Y-142669882D01*
X118433077Y-142497401D01*
X118533394Y-142478525D01*
X118749518Y-142339453D01*
X118894508Y-142127253D01*
X118945517Y-141875363D01*
X118945517Y-140875363D01*
X118901239Y-140640046D01*
X118762167Y-140423922D01*
X118549967Y-140278932D01*
X118517732Y-140272404D01*
X118569516Y-140194904D01*
X118601366Y-140034787D01*
X118749518Y-139939453D01*
X118894508Y-139727253D01*
X118945517Y-139475363D01*
X118945517Y-138475363D01*
X118901239Y-138240046D01*
X118762167Y-138023922D01*
X118549967Y-137878932D01*
X118298077Y-137827923D01*
X117298077Y-137827923D01*
X117062760Y-137872201D01*
X116846636Y-138011273D01*
X116701646Y-138223473D01*
X116650637Y-138475363D01*
X116650637Y-139475363D01*
X116694915Y-139710680D01*
X116728970Y-139763602D01*
X116355242Y-140137330D01*
X116194596Y-140377753D01*
X116133077Y-140335719D01*
X116133077Y-140014381D01*
X116249518Y-139939453D01*
X116394508Y-139727253D01*
X116445517Y-139475363D01*
X116445517Y-138475363D01*
X116401239Y-138240046D01*
X116262167Y-138023922D01*
X116049967Y-137878932D01*
X115829438Y-137834274D01*
X116431853Y-137231858D01*
X116431856Y-137231856D01*
X116656215Y-136896077D01*
X116679698Y-136778021D01*
X116735001Y-136500000D01*
X116735000Y-136499995D01*
X116735000Y-134700000D01*
X116656215Y-134303923D01*
X116431856Y-133968144D01*
X116096077Y-133743785D01*
X115700000Y-133665000D01*
X115303923Y-133743785D01*
X114968144Y-133968144D01*
X114743785Y-134303923D01*
X114665000Y-134700000D01*
X114665000Y-136071289D01*
X111668144Y-139068144D01*
X111535000Y-139267409D01*
X111535000Y-137500005D01*
X111535001Y-137500000D01*
X111456215Y-137103923D01*
X111363390Y-136965000D01*
X111231856Y-136768144D01*
X111231853Y-136768142D01*
X110809909Y-136346198D01*
X110834663Y-136286584D01*
X110835335Y-135516793D01*
X110809484Y-135454228D01*
X110931852Y-135331859D01*
X110931855Y-135331857D01*
X111111738Y-135062642D01*
X111156214Y-134996079D01*
X111235000Y-134600001D01*
X111234999Y-134599996D01*
X111234999Y-129700004D01*
X111235000Y-129699999D01*
X111156214Y-129303922D01*
X111062116Y-129163094D01*
X110931855Y-128968143D01*
X110931852Y-128968141D01*
X108309909Y-126346198D01*
X108334663Y-126286584D01*
X108335335Y-125516793D01*
X108041370Y-124805342D01*
X107497521Y-124260543D01*
X106786584Y-123965337D01*
X106605228Y-123965179D01*
X106609698Y-123963327D01*
X106788327Y-123784699D01*
X106885000Y-123551310D01*
X106885000Y-123085750D01*
X106726250Y-122927000D01*
X105627000Y-122927000D01*
X105627000Y-123901250D01*
X105785750Y-124060000D01*
X105786064Y-124060000D01*
X105305342Y-124258630D01*
X104760543Y-124802479D01*
X104465337Y-125513416D01*
X104464665Y-126283207D01*
X104758630Y-126994658D01*
X105302479Y-127539457D01*
X105844478Y-127764514D01*
X105779146Y-127764457D01*
X104626485Y-128240727D01*
X103743826Y-129121847D01*
X103265546Y-130273674D01*
X103264457Y-131520854D01*
X103740727Y-132673515D01*
X104621847Y-133556174D01*
X105773674Y-134034454D01*
X107020854Y-134035543D01*
X108173515Y-133559273D01*
X109056174Y-132678153D01*
X109164999Y-132416073D01*
X109164999Y-133965231D01*
X108516793Y-133964665D01*
X107805342Y-134258630D01*
X107260543Y-134802479D01*
X106998137Y-135434425D01*
X106731856Y-135168144D01*
X106396077Y-134943785D01*
X106000000Y-134864999D01*
X105999995Y-134865000D01*
X105566020Y-134865000D01*
X105541370Y-134805342D01*
X104997521Y-134260543D01*
X104286584Y-133965337D01*
X103516793Y-133964665D01*
X102805342Y-134258630D01*
X102260543Y-134802479D01*
X101965337Y-135513416D01*
X101964665Y-136283207D01*
X102258630Y-136994658D01*
X102802479Y-137539457D01*
X103513416Y-137834663D01*
X104283207Y-137835335D01*
X104994658Y-137541370D01*
X105539457Y-136997521D01*
X105565418Y-136935000D01*
X105571288Y-136935000D01*
X107465000Y-138828711D01*
X107465000Y-146927281D01*
X107464999Y-146927286D01*
X107543785Y-147323363D01*
X107768144Y-147659142D01*
X108840859Y-148731856D01*
X109176637Y-148956215D01*
X109390627Y-148998781D01*
X109600637Y-149208791D01*
X109600637Y-149275363D01*
X109644915Y-149510680D01*
X109783987Y-149726804D01*
X109996187Y-149871794D01*
X110248077Y-149922803D01*
X110648077Y-149922803D01*
X110883394Y-149878525D01*
X110895056Y-149871021D01*
X110896187Y-149871794D01*
X111148077Y-149922803D01*
X111548077Y-149922803D01*
X111783394Y-149878525D01*
X111820805Y-149854451D01*
X111846187Y-149871794D01*
X112098077Y-149922803D01*
X112498077Y-149922803D01*
X112733394Y-149878525D01*
X112745056Y-149871021D01*
X112746187Y-149871794D01*
X112998077Y-149922803D01*
X113398077Y-149922803D01*
X113633394Y-149878525D01*
X113821920Y-149757212D01*
X111386205Y-152192927D01*
X111364090Y-152158559D01*
X111151890Y-152013569D01*
X110900000Y-151962560D01*
X109200000Y-151962560D01*
X108964683Y-152006838D01*
X108748559Y-152145910D01*
X108603569Y-152358110D01*
X108552560Y-152610000D01*
X108552560Y-154310000D01*
X108596838Y-154545317D01*
X108735910Y-154761441D01*
X108948110Y-154906431D01*
X109015541Y-154920086D01*
X108970853Y-154949946D01*
X108648946Y-155431715D01*
X108535907Y-156000000D01*
X108648946Y-156568285D01*
X108970853Y-157050054D01*
X109452622Y-157371961D01*
X110020907Y-157485000D01*
X110079093Y-157485000D01*
X110647378Y-157371961D01*
X111129147Y-157050054D01*
X111451054Y-156568285D01*
X111564093Y-156000000D01*
X111555870Y-155958659D01*
X111723000Y-155925414D01*
X111723000Y-157673000D01*
X107127000Y-157673000D01*
X107127000Y-140500000D01*
X107118315Y-140453841D01*
X107091035Y-140411447D01*
X107049410Y-140383006D01*
X107000000Y-140373000D01*
X106350000Y-140373000D01*
X106303841Y-140381685D01*
X106261447Y-140408965D01*
X106233006Y-140450590D01*
X106223000Y-140500000D01*
X106223000Y-158100000D01*
X106231685Y-158146159D01*
X106258965Y-158188553D01*
X106300590Y-158216994D01*
X106350000Y-158227000D01*
X112200000Y-158227000D01*
X112246159Y-158218315D01*
X112288553Y-158191035D01*
X112316994Y-158149410D01*
X112327000Y-158100000D01*
X112327000Y-156002382D01*
X120552828Y-147727000D01*
X125700000Y-147727000D01*
X125746159Y-147718315D01*
X125788553Y-147691035D01*
X125816994Y-147649410D01*
X125827000Y-147600000D01*
X125827000Y-138890712D01*
X126773554Y-139837265D01*
X126773554Y-147449995D01*
X126773553Y-147450000D01*
X126852339Y-147846077D01*
X127076698Y-148181856D01*
X128298966Y-149404124D01*
X127914753Y-149660846D01*
X127592846Y-150142615D01*
X127479807Y-150710900D01*
X127592846Y-151279185D01*
X127914753Y-151760954D01*
X128243926Y-151980900D01*
X127914753Y-152200846D01*
X127592846Y-152682615D01*
X127479807Y-153250900D01*
X127592846Y-153819185D01*
X127914753Y-154300954D01*
X127958677Y-154330303D01*
X127784202Y-154402573D01*
X127605573Y-154581201D01*
X127508900Y-154814590D01*
X127508900Y-155505150D01*
X127667650Y-155663900D01*
X128866900Y-155663900D01*
X128866900Y-155643900D01*
X129120900Y-155643900D01*
X129120900Y-155663900D01*
X129140900Y-155663900D01*
X129140900Y-155917900D01*
X129120900Y-155917900D01*
X129120900Y-157117150D01*
X129279650Y-157275900D01*
X129361301Y-157275900D01*
X129361301Y-163554233D01*
X129355079Y-163544921D01*
X125278015Y-159467857D01*
X125278069Y-159406337D01*
X125129507Y-159046788D01*
X124854659Y-158771460D01*
X124495370Y-158622270D01*
X124106337Y-158621931D01*
X123746788Y-158770493D01*
X123471460Y-159045341D01*
X123322270Y-159404630D01*
X123321931Y-159793663D01*
X123470493Y-160153212D01*
X123745341Y-160428540D01*
X124104630Y-160577730D01*
X124167627Y-160577785D01*
X128015000Y-164425158D01*
X128015000Y-164747680D01*
X127843785Y-165003923D01*
X127765000Y-165400000D01*
X127843785Y-165796077D01*
X128068144Y-166131856D01*
X128403923Y-166356215D01*
X128800000Y-166435000D01*
X129049995Y-166435000D01*
X129050000Y-166435001D01*
X129446077Y-166356215D01*
X129781856Y-166131856D01*
X131128154Y-164785557D01*
X131128157Y-164785555D01*
X131352516Y-164449776D01*
X131376439Y-164329507D01*
X131431302Y-164053699D01*
X131431301Y-164053694D01*
X131431301Y-151803108D01*
X142708514Y-151803108D01*
X142829181Y-152033000D01*
X144023000Y-152033000D01*
X144023000Y-150839845D01*
X143793110Y-150718524D01*
X143383076Y-150888355D01*
X142954817Y-151278642D01*
X142708514Y-151803108D01*
X131431301Y-151803108D01*
X131431301Y-150037752D01*
X131431302Y-150037747D01*
X131352516Y-149641670D01*
X131128157Y-149305891D01*
X131128154Y-149305889D01*
X128843554Y-147021288D01*
X128843554Y-140593663D01*
X130221931Y-140593663D01*
X130370493Y-140953212D01*
X130645341Y-141228540D01*
X131004630Y-141377730D01*
X131067627Y-141377785D01*
X132734194Y-143044352D01*
X132820493Y-143253212D01*
X133095341Y-143528540D01*
X133454630Y-143677730D01*
X133843663Y-143678069D01*
X134203212Y-143529507D01*
X134478540Y-143254659D01*
X134627730Y-142895370D01*
X134628069Y-142506337D01*
X134479507Y-142146788D01*
X134204659Y-141871460D01*
X133845370Y-141722270D01*
X133632242Y-141722084D01*
X132733849Y-140823691D01*
X134665000Y-140823691D01*
X134665000Y-140964250D01*
X134823750Y-141123000D01*
X135425000Y-141123000D01*
X135425000Y-140473750D01*
X135266250Y-140315000D01*
X135173690Y-140315000D01*
X134940301Y-140411673D01*
X134761673Y-140590302D01*
X134665000Y-140823691D01*
X132733849Y-140823691D01*
X132178015Y-140267857D01*
X132178069Y-140206337D01*
X132029507Y-139846788D01*
X131754659Y-139571460D01*
X131395370Y-139422270D01*
X131006337Y-139421931D01*
X130646788Y-139570493D01*
X130371460Y-139845341D01*
X130222270Y-140204630D01*
X130221931Y-140593663D01*
X128843554Y-140593663D01*
X128843554Y-139408559D01*
X128843555Y-139408554D01*
X128764769Y-139012477D01*
X128723741Y-138951074D01*
X128540410Y-138676698D01*
X128540407Y-138676696D01*
X128391560Y-138527849D01*
X128643663Y-138528069D01*
X129003212Y-138379507D01*
X129278540Y-138104659D01*
X129427730Y-137745370D01*
X129428069Y-137356337D01*
X129279507Y-136996788D01*
X129235000Y-136952203D01*
X129235000Y-135242248D01*
X133287358Y-135242248D01*
X133287358Y-135466754D01*
X133881723Y-136061119D01*
X134115112Y-136157792D01*
X134367730Y-136157792D01*
X134601120Y-136061120D01*
X134779748Y-135882491D01*
X135054064Y-135608175D01*
X135054064Y-135383669D01*
X134100000Y-134429605D01*
X133287358Y-135242248D01*
X129235000Y-135242248D01*
X129235000Y-133982270D01*
X132192208Y-133982270D01*
X132192208Y-134234888D01*
X132288881Y-134468277D01*
X132883246Y-135062642D01*
X133107752Y-135062642D01*
X133920395Y-134250000D01*
X132966331Y-133295936D01*
X132741825Y-133295936D01*
X132467509Y-133570252D01*
X132288880Y-133748880D01*
X132192208Y-133982270D01*
X129235000Y-133982270D01*
X129235000Y-132891825D01*
X133145936Y-132891825D01*
X133145936Y-133116331D01*
X134100000Y-134070395D01*
X134114142Y-134056252D01*
X134293748Y-134235858D01*
X134279605Y-134250000D01*
X135233669Y-135204064D01*
X135458175Y-135204064D01*
X135732491Y-134929748D01*
X135891942Y-134770298D01*
X135999400Y-134877756D01*
X136232789Y-134974429D01*
X136234725Y-134974429D01*
X136254219Y-135078030D01*
X136396264Y-135292212D01*
X136402960Y-135298908D01*
X136329198Y-135347827D01*
X135197827Y-136479198D01*
X135062742Y-136676901D01*
X135008258Y-136928063D01*
X135055782Y-137180634D01*
X135197827Y-137394816D01*
X136165000Y-138361989D01*
X136165000Y-139560982D01*
X136048559Y-139635910D01*
X135903569Y-139848110D01*
X135852560Y-140100000D01*
X135852560Y-140315000D01*
X135833750Y-140315000D01*
X135675000Y-140473750D01*
X135675000Y-141123000D01*
X135697000Y-141123000D01*
X135697000Y-141377000D01*
X135675000Y-141377000D01*
X135675000Y-141397000D01*
X135425000Y-141397000D01*
X135425000Y-141377000D01*
X134823750Y-141377000D01*
X134665000Y-141535750D01*
X134665000Y-141676309D01*
X134710967Y-141787283D01*
X134703569Y-141798110D01*
X134652560Y-142050000D01*
X134652560Y-142650000D01*
X134696838Y-142885317D01*
X134835910Y-143101441D01*
X135048110Y-143246431D01*
X135300000Y-143297440D01*
X135592402Y-143297440D01*
X135499527Y-143390315D01*
X135437771Y-143364671D01*
X135048738Y-143364332D01*
X134689189Y-143512894D01*
X134413861Y-143787742D01*
X134264671Y-144147031D01*
X134264332Y-144536064D01*
X134412894Y-144895613D01*
X134687742Y-145170941D01*
X135047031Y-145320131D01*
X135436064Y-145320470D01*
X135795613Y-145171908D01*
X135885637Y-145082041D01*
X135958006Y-145067646D01*
X136212678Y-144897480D01*
X136322675Y-144787483D01*
X136370493Y-144903212D01*
X136645341Y-145178540D01*
X137004630Y-145327730D01*
X137393663Y-145328069D01*
X137753212Y-145179507D01*
X138028540Y-144904659D01*
X138177730Y-144545370D01*
X138178069Y-144156337D01*
X138029507Y-143796788D01*
X137991659Y-143758874D01*
X137996431Y-143751890D01*
X138047440Y-143500000D01*
X138047440Y-142300000D01*
X138003162Y-142064683D01*
X137864090Y-141848559D01*
X137794289Y-141800866D01*
X137851441Y-141764090D01*
X137996431Y-141551890D01*
X138047440Y-141300000D01*
X138047440Y-140100000D01*
X138028527Y-139999489D01*
X138246077Y-139956215D01*
X138581856Y-139731856D01*
X138806215Y-139396077D01*
X138885000Y-139000000D01*
X138885000Y-138000005D01*
X138885001Y-138000000D01*
X138806215Y-137603923D01*
X138770185Y-137550000D01*
X138758353Y-137532292D01*
X138794114Y-137479955D01*
X138848598Y-137228793D01*
X138801074Y-136976222D01*
X138659029Y-136762040D01*
X138542307Y-136645318D01*
X138578503Y-136463354D01*
X138578502Y-136463349D01*
X138578502Y-135722648D01*
X138690740Y-135610410D01*
X138825825Y-135412707D01*
X138880309Y-135161545D01*
X138832785Y-134908974D01*
X138690740Y-134694792D01*
X138311128Y-134315180D01*
X138275358Y-134261646D01*
X138221824Y-134225876D01*
X137842212Y-133846264D01*
X137644509Y-133711179D01*
X137524429Y-133685130D01*
X137524429Y-133682789D01*
X137427756Y-133449400D01*
X137116234Y-133137878D01*
X136891727Y-133137878D01*
X136379605Y-133650000D01*
X136393748Y-133664143D01*
X136214143Y-133843748D01*
X136200000Y-133829605D01*
X136185858Y-133843748D01*
X136006253Y-133664143D01*
X136020395Y-133650000D01*
X135349174Y-132978779D01*
X135124667Y-132978779D01*
X134972243Y-133131203D01*
X134924906Y-133245486D01*
X134912642Y-133257750D01*
X134912642Y-133033246D01*
X134454063Y-132574667D01*
X135528779Y-132574667D01*
X135528779Y-132799174D01*
X136200000Y-133470395D01*
X136712122Y-132958273D01*
X136712122Y-132733766D01*
X136400600Y-132422244D01*
X136167211Y-132325571D01*
X135914592Y-132325571D01*
X135681203Y-132422243D01*
X135528779Y-132574667D01*
X134454063Y-132574667D01*
X134318277Y-132438881D01*
X134084888Y-132342208D01*
X133832270Y-132342208D01*
X133598880Y-132438880D01*
X133420252Y-132617509D01*
X133145936Y-132891825D01*
X129235000Y-132891825D01*
X129235000Y-132625158D01*
X130075158Y-131785000D01*
X134251877Y-131785000D01*
X134295341Y-131828540D01*
X134654630Y-131977730D01*
X135043663Y-131978069D01*
X135403212Y-131829507D01*
X135678540Y-131554659D01*
X135827730Y-131195370D01*
X135828069Y-130806337D01*
X135679507Y-130446788D01*
X135446604Y-130213478D01*
X136709629Y-130213478D01*
X136709629Y-130437985D01*
X137021151Y-130749507D01*
X137254540Y-130846180D01*
X137507159Y-130846180D01*
X137740548Y-130749508D01*
X137833594Y-130656462D01*
X139351572Y-130656462D01*
X139351572Y-130880968D01*
X139945937Y-131475333D01*
X140179326Y-131572006D01*
X140431944Y-131572006D01*
X140665334Y-131475334D01*
X140843962Y-131296705D01*
X141118278Y-131022389D01*
X141118278Y-130797883D01*
X140164214Y-129843819D01*
X139351572Y-130656462D01*
X137833594Y-130656462D01*
X137892972Y-130597084D01*
X137892972Y-130372577D01*
X137221751Y-129701356D01*
X136709629Y-130213478D01*
X135446604Y-130213478D01*
X135404659Y-130171460D01*
X135045370Y-130022270D01*
X134656337Y-130021931D01*
X134296788Y-130170493D01*
X134252203Y-130215000D01*
X132368094Y-130215000D01*
X132428540Y-130154659D01*
X132577730Y-129795370D01*
X132578069Y-129406337D01*
X132429507Y-129046788D01*
X132385000Y-129002203D01*
X132385000Y-128500000D01*
X132359861Y-128373619D01*
X132325245Y-128199593D01*
X132155079Y-127944921D01*
X131821315Y-127611157D01*
X131803162Y-127514683D01*
X131762461Y-127451432D01*
X131835000Y-127276309D01*
X131835000Y-127233750D01*
X131676250Y-127075000D01*
X131100000Y-127075000D01*
X131100000Y-127102560D01*
X130900000Y-127102560D01*
X130900000Y-127075000D01*
X130323750Y-127075000D01*
X130165000Y-127233750D01*
X130165000Y-127276309D01*
X130236755Y-127449541D01*
X130203569Y-127498110D01*
X130152560Y-127750000D01*
X130152560Y-128050000D01*
X130196838Y-128285317D01*
X130335910Y-128501441D01*
X130548110Y-128646431D01*
X130658660Y-128668818D01*
X130815000Y-128825158D01*
X130815000Y-129001877D01*
X130771460Y-129045341D01*
X130622270Y-129404630D01*
X130621931Y-129793663D01*
X130770493Y-130153212D01*
X130832173Y-130215000D01*
X129750005Y-130215000D01*
X129750000Y-130214999D01*
X129449594Y-130274755D01*
X129194921Y-130444921D01*
X127894921Y-131744921D01*
X127724755Y-131999593D01*
X127724755Y-131999594D01*
X127665000Y-132300000D01*
X127665000Y-132371106D01*
X127525758Y-132218317D01*
X127382847Y-132151202D01*
X127723547Y-131923554D01*
X128045454Y-131441785D01*
X128158493Y-130873500D01*
X128045454Y-130305215D01*
X127723547Y-129823446D01*
X127681948Y-129795650D01*
X127729717Y-129786662D01*
X127945841Y-129647590D01*
X128090831Y-129435390D01*
X128141840Y-129183500D01*
X128141840Y-127483500D01*
X128097562Y-127248183D01*
X127958490Y-127032059D01*
X127746290Y-126887069D01*
X127494400Y-126836060D01*
X126911230Y-126836060D01*
X128064884Y-125682405D01*
X128064760Y-125824285D01*
X128275169Y-126333515D01*
X128664436Y-126723461D01*
X129173298Y-126934759D01*
X129724285Y-126935240D01*
X130165000Y-126753141D01*
X130165000Y-126766250D01*
X130323750Y-126925000D01*
X130900000Y-126925000D01*
X130900000Y-126373750D01*
X131100000Y-126373750D01*
X131100000Y-126925000D01*
X131676250Y-126925000D01*
X131835000Y-126766250D01*
X131835000Y-126723691D01*
X131738327Y-126490302D01*
X131559699Y-126311673D01*
X131326310Y-126215000D01*
X131258750Y-126215000D01*
X131100000Y-126373750D01*
X130900000Y-126373750D01*
X130741250Y-126215000D01*
X130673690Y-126215000D01*
X130673489Y-126215083D01*
X130834759Y-125826702D01*
X130835110Y-125425048D01*
X131102668Y-125157489D01*
X131102671Y-125157487D01*
X131272837Y-124902814D01*
X131319289Y-124669289D01*
X131552815Y-124622837D01*
X131807487Y-124452671D01*
X132718276Y-123541882D01*
X132798110Y-123596431D01*
X133050000Y-123647440D01*
X133637282Y-123647440D01*
X133674180Y-123684338D01*
X133674088Y-123790069D01*
X133822650Y-124149618D01*
X134097498Y-124424946D01*
X134456787Y-124574136D01*
X134845820Y-124574475D01*
X135205369Y-124425913D01*
X135480697Y-124151065D01*
X135522970Y-124049260D01*
X135522970Y-126057965D01*
X135522969Y-126057970D01*
X135569021Y-126289484D01*
X135470100Y-126434259D01*
X135415616Y-126685421D01*
X135456312Y-126901706D01*
X135261341Y-127031011D01*
X134731011Y-127561341D01*
X134595926Y-127759044D01*
X134541442Y-128010206D01*
X134588966Y-128262777D01*
X134731011Y-128476959D01*
X135110623Y-128856571D01*
X135146393Y-128910105D01*
X135199927Y-128945875D01*
X135579539Y-129325487D01*
X135777242Y-129460572D01*
X135897322Y-129486621D01*
X135897322Y-129488962D01*
X135993995Y-129722351D01*
X136305517Y-130033873D01*
X136530024Y-130033873D01*
X137042146Y-129521751D01*
X137401356Y-129521751D01*
X138072577Y-130192972D01*
X138297084Y-130192972D01*
X138449508Y-130040548D01*
X138467563Y-129996959D01*
X138947460Y-130476856D01*
X139171966Y-130476856D01*
X139984609Y-129664214D01*
X139030545Y-128710150D01*
X138806039Y-128710150D01*
X138531723Y-128984466D01*
X138353094Y-129163094D01*
X138335039Y-129206683D01*
X138137985Y-129009629D01*
X137913478Y-129009629D01*
X137401356Y-129521751D01*
X137042146Y-129521751D01*
X137028004Y-129507609D01*
X137207609Y-129328004D01*
X137221751Y-129342146D01*
X137733873Y-128830024D01*
X137733873Y-128699785D01*
X137935016Y-128566387D01*
X138180005Y-128321398D01*
X139210150Y-128321398D01*
X139210150Y-128530545D01*
X140164214Y-129484609D01*
X140178357Y-129470467D01*
X140357962Y-129650072D01*
X140343819Y-129664214D01*
X141297883Y-130618278D01*
X141522389Y-130618278D01*
X141810301Y-130330366D01*
X141810301Y-130971978D01*
X141756337Y-130971931D01*
X141396788Y-131120493D01*
X141121460Y-131395341D01*
X140972270Y-131754630D01*
X140971931Y-132143663D01*
X141120493Y-132503212D01*
X141165000Y-132547797D01*
X141165000Y-135081486D01*
X139492511Y-136753974D01*
X139322345Y-137008646D01*
X139302126Y-137110292D01*
X139262590Y-137309053D01*
X139262590Y-141613964D01*
X139246788Y-141620493D01*
X138971460Y-141895341D01*
X138822270Y-142254630D01*
X138821931Y-142643663D01*
X138970493Y-143003212D01*
X139245341Y-143278540D01*
X139604630Y-143427730D01*
X139750378Y-143427857D01*
X139763335Y-143492996D01*
X139696788Y-143520493D01*
X139421460Y-143795341D01*
X139272270Y-144154630D01*
X139271931Y-144543663D01*
X139420493Y-144903212D01*
X139695341Y-145178540D01*
X140054630Y-145327730D01*
X140443663Y-145328069D01*
X140716558Y-145215312D01*
X140777334Y-145227401D01*
X142545880Y-145227401D01*
X142445907Y-145730000D01*
X142558946Y-146298285D01*
X142880853Y-146780054D01*
X143362622Y-147101961D01*
X143930907Y-147215000D01*
X143989093Y-147215000D01*
X144557378Y-147101961D01*
X145039147Y-146780054D01*
X145228345Y-146496899D01*
X145228355Y-146496924D01*
X145618642Y-146925183D01*
X146143108Y-147171486D01*
X146373000Y-147050819D01*
X146373000Y-145857000D01*
X146353000Y-145857000D01*
X146353000Y-145603000D01*
X146373000Y-145603000D01*
X146373000Y-145583000D01*
X146627000Y-145583000D01*
X146627000Y-145603000D01*
X146647000Y-145603000D01*
X146647000Y-145857000D01*
X146627000Y-145857000D01*
X146627000Y-147050819D01*
X146856892Y-147171486D01*
X147381358Y-146925183D01*
X147771645Y-146496924D01*
X147819812Y-146380631D01*
X147819812Y-148214476D01*
X145036740Y-150997548D01*
X144916924Y-150888355D01*
X144506890Y-150718524D01*
X144277000Y-150839845D01*
X144277000Y-152033000D01*
X144297000Y-152033000D01*
X144297000Y-152287000D01*
X144277000Y-152287000D01*
X144277000Y-152307000D01*
X144023000Y-152307000D01*
X144023000Y-152287000D01*
X142829181Y-152287000D01*
X142708514Y-152516892D01*
X142954817Y-153041358D01*
X143383076Y-153431645D01*
X143383101Y-153431655D01*
X143099946Y-153620853D01*
X142778039Y-154102622D01*
X142665000Y-154670907D01*
X142665000Y-154729093D01*
X142778039Y-155297378D01*
X143099946Y-155779147D01*
X143581715Y-156101054D01*
X144150000Y-156214093D01*
X144718285Y-156101054D01*
X145200054Y-155779147D01*
X145227850Y-155737548D01*
X145236838Y-155785317D01*
X145375910Y-156001441D01*
X145588110Y-156146431D01*
X145840000Y-156197440D01*
X147540000Y-156197440D01*
X147775317Y-156153162D01*
X147991441Y-156014090D01*
X148136431Y-155801890D01*
X148187440Y-155550000D01*
X148187440Y-153850000D01*
X148143162Y-153614683D01*
X148004090Y-153398559D01*
X147791890Y-153253569D01*
X147735546Y-153242159D01*
X147740054Y-153239147D01*
X148061961Y-152757378D01*
X148175000Y-152189093D01*
X148175000Y-152130907D01*
X148117637Y-151842521D01*
X149905079Y-150055079D01*
X150075245Y-149800407D01*
X150135000Y-149500000D01*
X150135000Y-135250000D01*
X150075245Y-134949594D01*
X150075245Y-134949593D01*
X149905079Y-134694921D01*
X147528015Y-132317857D01*
X147528069Y-132256337D01*
X147379507Y-131896788D01*
X147104659Y-131621460D01*
X146745370Y-131472270D01*
X146356337Y-131471931D01*
X145996788Y-131620493D01*
X145721460Y-131895341D01*
X145572270Y-132254630D01*
X145571931Y-132643663D01*
X145720493Y-133003212D01*
X145839465Y-133122392D01*
X145722270Y-133404630D01*
X145721931Y-133793663D01*
X145870493Y-134153212D01*
X146145341Y-134428540D01*
X146504630Y-134577730D01*
X146567627Y-134577785D01*
X147819812Y-135829970D01*
X147819812Y-139960127D01*
X147579147Y-139599946D01*
X147097378Y-139278039D01*
X146529093Y-139165000D01*
X146470907Y-139165000D01*
X145902622Y-139278039D01*
X145420853Y-139599946D01*
X145420029Y-139601179D01*
X145413162Y-139564683D01*
X145274090Y-139348559D01*
X145061890Y-139203569D01*
X144995000Y-139190023D01*
X144995000Y-139038433D01*
X144995001Y-139038428D01*
X144916215Y-138642351D01*
X144911304Y-138635001D01*
X144691856Y-138306572D01*
X144691853Y-138306570D01*
X143099498Y-136714214D01*
X143577154Y-136236557D01*
X143577157Y-136236555D01*
X143801516Y-135900776D01*
X143820524Y-135805219D01*
X143880302Y-135504699D01*
X143880301Y-135504694D01*
X143880301Y-129145306D01*
X143880302Y-129145301D01*
X143801516Y-128749224D01*
X143749894Y-128671966D01*
X143620901Y-128478912D01*
X143629900Y-128465741D01*
X143684384Y-128214579D01*
X143650913Y-128036692D01*
X143735746Y-128001640D01*
X144011074Y-127726792D01*
X144160264Y-127367503D01*
X144160603Y-126978470D01*
X144012041Y-126618921D01*
X143771074Y-126377533D01*
X143737613Y-126327455D01*
X143698111Y-126287953D01*
X143708558Y-126239794D01*
X143661034Y-125987223D01*
X143518989Y-125773041D01*
X143139377Y-125393429D01*
X143103607Y-125339895D01*
X143050073Y-125304125D01*
X142789611Y-125043663D01*
X143421931Y-125043663D01*
X143570493Y-125403212D01*
X143845341Y-125678540D01*
X144204630Y-125827730D01*
X144317671Y-125827829D01*
X144721985Y-126232143D01*
X144721931Y-126293663D01*
X144870493Y-126653212D01*
X145145341Y-126928540D01*
X145504630Y-127077730D01*
X145893663Y-127078069D01*
X146253212Y-126929507D01*
X146528540Y-126654659D01*
X146677730Y-126295370D01*
X146678069Y-125906337D01*
X146593587Y-125701874D01*
X149230881Y-125701874D01*
X149432632Y-126112763D01*
X149773322Y-126400002D01*
X150198000Y-126535000D01*
X150473000Y-126535000D01*
X150473000Y-125527000D01*
X149357046Y-125527000D01*
X149230881Y-125701874D01*
X146593587Y-125701874D01*
X146529507Y-125546788D01*
X146254659Y-125271460D01*
X145895370Y-125122270D01*
X145832373Y-125122215D01*
X145411289Y-124701131D01*
X146798771Y-124701131D01*
X146940432Y-125111049D01*
X147228179Y-125435552D01*
X147602062Y-125619268D01*
X147773000Y-125492734D01*
X147773000Y-124527000D01*
X148027000Y-124527000D01*
X148027000Y-125492734D01*
X148197938Y-125619268D01*
X148571821Y-125435552D01*
X148859568Y-125111049D01*
X148864033Y-125098126D01*
X149230881Y-125098126D01*
X149357046Y-125273000D01*
X150473000Y-125273000D01*
X150473000Y-124265000D01*
X150198000Y-124265000D01*
X149773322Y-124399998D01*
X149432632Y-124687237D01*
X149230881Y-125098126D01*
X148864033Y-125098126D01*
X149001229Y-124701131D01*
X148852563Y-124527000D01*
X148027000Y-124527000D01*
X147773000Y-124527000D01*
X146947437Y-124527000D01*
X146798771Y-124701131D01*
X145411289Y-124701131D01*
X145378059Y-124667901D01*
X145378069Y-124656337D01*
X145229507Y-124296788D01*
X145031934Y-124098869D01*
X146798771Y-124098869D01*
X146947437Y-124273000D01*
X147773000Y-124273000D01*
X147773000Y-123307266D01*
X148027000Y-123307266D01*
X148027000Y-124273000D01*
X148852563Y-124273000D01*
X149001229Y-124098869D01*
X148859568Y-123688951D01*
X148571821Y-123364448D01*
X148197938Y-123180732D01*
X148027000Y-123307266D01*
X147773000Y-123307266D01*
X147602062Y-123180732D01*
X147228179Y-123364448D01*
X146940432Y-123688951D01*
X146798771Y-124098869D01*
X145031934Y-124098869D01*
X144954659Y-124021460D01*
X144595370Y-123872270D01*
X144206337Y-123871931D01*
X143846788Y-124020493D01*
X143571460Y-124295341D01*
X143422270Y-124654630D01*
X143421931Y-125043663D01*
X142789611Y-125043663D01*
X142670461Y-124924513D01*
X142472758Y-124789428D01*
X142352678Y-124763379D01*
X142352678Y-124761038D01*
X142256005Y-124527649D01*
X141944483Y-124216127D01*
X141719976Y-124216127D01*
X141207854Y-124728249D01*
X141221997Y-124742392D01*
X141042392Y-124921997D01*
X141028249Y-124907854D01*
X141014107Y-124921997D01*
X140834502Y-124742392D01*
X140848644Y-124728249D01*
X140177423Y-124057028D01*
X139952916Y-124057028D01*
X139869670Y-124140274D01*
X139860680Y-124131284D01*
X139748428Y-124243536D01*
X139748428Y-124019032D01*
X139382312Y-123652916D01*
X140357028Y-123652916D01*
X140357028Y-123877423D01*
X141028249Y-124548644D01*
X141540371Y-124036522D01*
X141540371Y-123812015D01*
X141228849Y-123500493D01*
X140995460Y-123403820D01*
X140742841Y-123403820D01*
X140509452Y-123500492D01*
X140357028Y-123652916D01*
X139382312Y-123652916D01*
X139154063Y-123424667D01*
X138920674Y-123327994D01*
X138668056Y-123327994D01*
X138434666Y-123424666D01*
X138256038Y-123603295D01*
X137981722Y-123877611D01*
X137981722Y-124102117D01*
X138935786Y-125056181D01*
X138949928Y-125042038D01*
X139129534Y-125221644D01*
X139115391Y-125235786D01*
X139129534Y-125249929D01*
X138949929Y-125429534D01*
X138935786Y-125415391D01*
X138921644Y-125429534D01*
X138742039Y-125249929D01*
X138756181Y-125235786D01*
X137802117Y-124281722D01*
X137592970Y-124281722D01*
X137592970Y-120570742D01*
X138588954Y-119574757D01*
X138588957Y-119574755D01*
X138931855Y-119231856D01*
X139156215Y-118896078D01*
X139235000Y-118500000D01*
X139156215Y-118103923D01*
X139043344Y-117935000D01*
X139621288Y-117935000D01*
X142818144Y-121131855D01*
X143153922Y-121356215D01*
X143550000Y-121435000D01*
X143946077Y-121356215D01*
X144281855Y-121131855D01*
X144506215Y-120796077D01*
X144585000Y-120400000D01*
X144506215Y-120003922D01*
X144303897Y-119701131D01*
X146798771Y-119701131D01*
X146940432Y-120111049D01*
X147228179Y-120435552D01*
X147602062Y-120619268D01*
X147773000Y-120492734D01*
X147773000Y-119527000D01*
X148027000Y-119527000D01*
X148027000Y-120492734D01*
X148197938Y-120619268D01*
X148571821Y-120435552D01*
X148859568Y-120111049D01*
X149001229Y-119701131D01*
X148852563Y-119527000D01*
X148027000Y-119527000D01*
X147773000Y-119527000D01*
X146947437Y-119527000D01*
X146798771Y-119701131D01*
X144303897Y-119701131D01*
X144281855Y-119668144D01*
X143712581Y-119098869D01*
X146798771Y-119098869D01*
X146947437Y-119273000D01*
X147773000Y-119273000D01*
X147773000Y-118307266D01*
X148027000Y-118307266D01*
X148027000Y-119273000D01*
X148852563Y-119273000D01*
X149001229Y-119098869D01*
X148864034Y-118701874D01*
X149230881Y-118701874D01*
X149432632Y-119112763D01*
X149773322Y-119400002D01*
X150198000Y-119535000D01*
X150473000Y-119535000D01*
X150473000Y-118527000D01*
X149357046Y-118527000D01*
X149230881Y-118701874D01*
X148864034Y-118701874D01*
X148859568Y-118688951D01*
X148571821Y-118364448D01*
X148197938Y-118180732D01*
X148027000Y-118307266D01*
X147773000Y-118307266D01*
X147602062Y-118180732D01*
X147228179Y-118364448D01*
X146940432Y-118688951D01*
X146798771Y-119098869D01*
X143712581Y-119098869D01*
X142711838Y-118098126D01*
X149230881Y-118098126D01*
X149357046Y-118273000D01*
X150473000Y-118273000D01*
X150473000Y-117265000D01*
X150198000Y-117265000D01*
X149773322Y-117399998D01*
X149432632Y-117687237D01*
X149230881Y-118098126D01*
X142711838Y-118098126D01*
X140781856Y-116168144D01*
X140315232Y-115701520D01*
X139979453Y-115477161D01*
X139583376Y-115398375D01*
X139187299Y-115477161D01*
X138851520Y-115701520D01*
X138742287Y-115865000D01*
X133445624Y-115865000D01*
X139431853Y-109878770D01*
X139431856Y-109878768D01*
X139656215Y-109542989D01*
X139661782Y-109515000D01*
X139735001Y-109146912D01*
X139735000Y-109146907D01*
X139735000Y-107950000D01*
X139656215Y-107553923D01*
X139431856Y-107218144D01*
X139096077Y-106993785D01*
X138700000Y-106915000D01*
X138303923Y-106993785D01*
X137968144Y-107218144D01*
X137743785Y-107553923D01*
X137665000Y-107950000D01*
X137665000Y-108718201D01*
X131865789Y-114517411D01*
X130947594Y-114517411D01*
X130947589Y-114517410D01*
X130551512Y-114596196D01*
X130301181Y-114763461D01*
X130204659Y-114666770D01*
X129845370Y-114517580D01*
X129456337Y-114517241D01*
X129096788Y-114665803D01*
X128821460Y-114940651D01*
X128672270Y-115299940D01*
X128672146Y-115442696D01*
X128649842Y-115465000D01*
X128460000Y-115465000D01*
X128460000Y-114885750D01*
X128301250Y-114727000D01*
X127327000Y-114727000D01*
X127327000Y-114747000D01*
X127073000Y-114747000D01*
X127073000Y-114727000D01*
X127053000Y-114727000D01*
X127053000Y-114473000D01*
X127073000Y-114473000D01*
X127073000Y-114453000D01*
X127327000Y-114453000D01*
X127327000Y-114473000D01*
X128301250Y-114473000D01*
X128460000Y-114314250D01*
X128460000Y-113723691D01*
X128363327Y-113490302D01*
X128184699Y-113311673D01*
X128120305Y-113285000D01*
X132657554Y-113285000D01*
X132957961Y-113225245D01*
X133212633Y-113055079D01*
X135055077Y-111212634D01*
X135055080Y-111212632D01*
X135225246Y-110957959D01*
X135233791Y-110915000D01*
X135285002Y-110657553D01*
X135285001Y-110657548D01*
X135285001Y-110335031D01*
X135524285Y-110335240D01*
X136033515Y-110124831D01*
X136423461Y-109735564D01*
X136634759Y-109226702D01*
X136635240Y-108675715D01*
X136424831Y-108166485D01*
X136035564Y-107776539D01*
X135526702Y-107565241D01*
X134975715Y-107564760D01*
X134466485Y-107775169D01*
X134076539Y-108164436D01*
X133865241Y-108673298D01*
X133864925Y-109034922D01*
X133576702Y-108915241D01*
X133025715Y-108914760D01*
X132584916Y-109096894D01*
X132585240Y-108725715D01*
X132374831Y-108216485D01*
X131985564Y-107826539D01*
X131476702Y-107615241D01*
X130925715Y-107614760D01*
X130416485Y-107825169D01*
X130026539Y-108214436D01*
X129815241Y-108723298D01*
X129814760Y-109274285D01*
X129814993Y-109274849D01*
X129466656Y-109623186D01*
X129321645Y-109273076D01*
X128931358Y-108844817D01*
X128788447Y-108777702D01*
X129129147Y-108550054D01*
X129451054Y-108068285D01*
X129564093Y-107500000D01*
X129451054Y-106931715D01*
X129129147Y-106449946D01*
X129087548Y-106422150D01*
X129135317Y-106413162D01*
X129351441Y-106274090D01*
X129496431Y-106061890D01*
X129547440Y-105810000D01*
X129547440Y-104110000D01*
X129503162Y-103874683D01*
X129364090Y-103658559D01*
X129151890Y-103513569D01*
X128900000Y-103462560D01*
X127360000Y-103462560D01*
X127360000Y-102355683D01*
X127360001Y-102355678D01*
X127281215Y-101959601D01*
X127056856Y-101623822D01*
X126601178Y-101168144D01*
X126265399Y-100943785D01*
X125869322Y-100864999D01*
X125869317Y-100865000D01*
X113153094Y-100865000D01*
X113153089Y-100864999D01*
X112757012Y-100943785D01*
X112421233Y-101168144D01*
X112421231Y-101168147D01*
X110868144Y-102721233D01*
X110643785Y-103057012D01*
X110564999Y-103453089D01*
X110565000Y-103453094D01*
X110565000Y-104637603D01*
X110200000Y-104565000D01*
X109803923Y-104643785D01*
X109468144Y-104868144D01*
X109243785Y-105203923D01*
X109165000Y-105600000D01*
X109165000Y-106871289D01*
X107368078Y-108668210D01*
X107329147Y-108609946D01*
X106999974Y-108390000D01*
X107329147Y-108170054D01*
X107651054Y-107688285D01*
X107764093Y-107120000D01*
X107651054Y-106551715D01*
X107329147Y-106069946D01*
X107287548Y-106042150D01*
X107335317Y-106033162D01*
X107551441Y-105894090D01*
X107696431Y-105681890D01*
X107747440Y-105430000D01*
X107747440Y-103730000D01*
X107703162Y-103494683D01*
X107564090Y-103278559D01*
X107351890Y-103133569D01*
X107100000Y-103082560D01*
X105400000Y-103082560D01*
X105164683Y-103126838D01*
X104948559Y-103265910D01*
X104803569Y-103478110D01*
X104752560Y-103730000D01*
X104752560Y-105430000D01*
X104796838Y-105665317D01*
X104935910Y-105881441D01*
X105148110Y-106026431D01*
X105215541Y-106040086D01*
X105170853Y-106069946D01*
X104848946Y-106551715D01*
X104735907Y-107120000D01*
X104848946Y-107688285D01*
X105170853Y-108170054D01*
X105500026Y-108390000D01*
X105170853Y-108609946D01*
X104848946Y-109091715D01*
X104735907Y-109660000D01*
X104848946Y-110228285D01*
X105170853Y-110710054D01*
X105511553Y-110937702D01*
X105368642Y-111004817D01*
X104978355Y-111433076D01*
X104808524Y-111843110D01*
X104929845Y-112073000D01*
X106123000Y-112073000D01*
X106123000Y-112053000D01*
X106377000Y-112053000D01*
X106377000Y-112073000D01*
X106397000Y-112073000D01*
X106397000Y-112327000D01*
X106377000Y-112327000D01*
X106377000Y-112347000D01*
X106123000Y-112347000D01*
X106123000Y-112327000D01*
X104929845Y-112327000D01*
X104808524Y-112556890D01*
X104812878Y-112567401D01*
X104298282Y-112567401D01*
X104298277Y-112567400D01*
X103902200Y-112646186D01*
X103566421Y-112870545D01*
X103566419Y-112870548D01*
X101368144Y-115068822D01*
X101143785Y-115404601D01*
X101064999Y-115800678D01*
X100710000Y-115800678D01*
X100710000Y-100710000D01*
X151290000Y-100710000D01*
X151290000Y-117356550D01*
X151290000Y-117356550D01*
G37*
X151290000Y-117356550D02*
X151002000Y-117265000D01*
X150727000Y-117265000D01*
X150727000Y-118273000D01*
X150747000Y-118273000D01*
X150747000Y-118527000D01*
X150727000Y-118527000D01*
X150727000Y-119535000D01*
X151002000Y-119535000D01*
X151290000Y-119443450D01*
X151290000Y-124356550D01*
X151002000Y-124265000D01*
X150727000Y-124265000D01*
X150727000Y-125273000D01*
X150747000Y-125273000D01*
X150747000Y-125527000D01*
X150727000Y-125527000D01*
X150727000Y-126535000D01*
X151002000Y-126535000D01*
X151290000Y-126443450D01*
X151290000Y-167290000D01*
X100710000Y-167290000D01*
X100710000Y-162756890D01*
X102258524Y-162756890D01*
X102428355Y-163166924D01*
X102818642Y-163595183D01*
X103343108Y-163841486D01*
X103573000Y-163720819D01*
X103573000Y-162527000D01*
X103827000Y-162527000D01*
X103827000Y-163720819D01*
X104056892Y-163841486D01*
X104581358Y-163595183D01*
X104668101Y-163500000D01*
X115514999Y-163500000D01*
X115593785Y-163896077D01*
X115818144Y-164231856D01*
X116153923Y-164456215D01*
X116550000Y-164535001D01*
X116946077Y-164456215D01*
X117281856Y-164231856D01*
X117531853Y-163981858D01*
X117531856Y-163981856D01*
X117666349Y-163780571D01*
X117756215Y-163646078D01*
X117835000Y-163250000D01*
X117835000Y-156800000D01*
X117756215Y-156403923D01*
X117716076Y-156343850D01*
X117777730Y-156195370D01*
X117777833Y-156076650D01*
X127508900Y-156076650D01*
X127508900Y-156767210D01*
X127605573Y-157000599D01*
X127784202Y-157179227D01*
X128017591Y-157275900D01*
X128708150Y-157275900D01*
X128866900Y-157117150D01*
X128866900Y-155917900D01*
X127667650Y-155917900D01*
X127508900Y-156076650D01*
X117777833Y-156076650D01*
X117778069Y-155806337D01*
X117629507Y-155446788D01*
X117354659Y-155171460D01*
X116995370Y-155022270D01*
X116606337Y-155021931D01*
X116246788Y-155170493D01*
X115971460Y-155445341D01*
X115822270Y-155804630D01*
X115821931Y-156193663D01*
X115883963Y-156343792D01*
X115843785Y-156403923D01*
X115765000Y-156800000D01*
X115765000Y-161001877D01*
X115721460Y-161045341D01*
X115572270Y-161404630D01*
X115571931Y-161793663D01*
X115720493Y-162153212D01*
X115765000Y-162197797D01*
X115765000Y-162847680D01*
X115593785Y-163103923D01*
X115514999Y-163500000D01*
X104668101Y-163500000D01*
X104971645Y-163166924D01*
X105141476Y-162756890D01*
X105020155Y-162527000D01*
X103827000Y-162527000D01*
X103573000Y-162527000D01*
X102379845Y-162527000D01*
X102258524Y-162756890D01*
X100710000Y-162756890D01*
X100710000Y-159010000D01*
X102202560Y-159010000D01*
X102202560Y-160710000D01*
X102246838Y-160945317D01*
X102385910Y-161161441D01*
X102598110Y-161306431D01*
X102706107Y-161328301D01*
X102428355Y-161633076D01*
X102258524Y-162043110D01*
X102379845Y-162273000D01*
X103573000Y-162273000D01*
X103573000Y-162253000D01*
X103827000Y-162253000D01*
X103827000Y-162273000D01*
X105020155Y-162273000D01*
X105141476Y-162043110D01*
X104971645Y-161633076D01*
X104695499Y-161330063D01*
X104785317Y-161313162D01*
X105001441Y-161174090D01*
X105146431Y-160961890D01*
X105197440Y-160710000D01*
X105197440Y-159010000D01*
X105153162Y-158774683D01*
X105014090Y-158558559D01*
X104801890Y-158413569D01*
X104550000Y-158362560D01*
X102850000Y-158362560D01*
X102614683Y-158406838D01*
X102398559Y-158545910D01*
X102253569Y-158758110D01*
X102202560Y-159010000D01*
X100710000Y-159010000D01*
X100710000Y-148690000D01*
X102302560Y-148690000D01*
X102302560Y-150390000D01*
X102346838Y-150625317D01*
X102485910Y-150841441D01*
X102698110Y-150986431D01*
X102950000Y-151037440D01*
X104650000Y-151037440D01*
X104885317Y-150993162D01*
X105101441Y-150854090D01*
X105246431Y-150641890D01*
X105297440Y-150390000D01*
X105297440Y-148690000D01*
X105253162Y-148454683D01*
X105114090Y-148238559D01*
X104901890Y-148093569D01*
X104793893Y-148071699D01*
X105071645Y-147766924D01*
X105241476Y-147356890D01*
X105120155Y-147127000D01*
X103927000Y-147127000D01*
X103927000Y-147147000D01*
X103673000Y-147147000D01*
X103673000Y-147127000D01*
X102479845Y-147127000D01*
X102358524Y-147356890D01*
X102528355Y-147766924D01*
X102804501Y-148069937D01*
X102714683Y-148086838D01*
X102498559Y-148225910D01*
X102353569Y-148438110D01*
X102302560Y-148690000D01*
X100710000Y-148690000D01*
X100710000Y-146643110D01*
X102358524Y-146643110D01*
X102479845Y-146873000D01*
X103673000Y-146873000D01*
X103673000Y-145679181D01*
X103927000Y-145679181D01*
X103927000Y-146873000D01*
X105120155Y-146873000D01*
X105241476Y-146643110D01*
X105071645Y-146233076D01*
X104681358Y-145804817D01*
X104156892Y-145558514D01*
X103927000Y-145679181D01*
X103673000Y-145679181D01*
X103443108Y-145558514D01*
X102918642Y-145804817D01*
X102528355Y-146233076D01*
X102358524Y-146643110D01*
X100710000Y-146643110D01*
X100710000Y-115800678D01*
X101064999Y-115800678D01*
X101065000Y-115800683D01*
X101065000Y-117644995D01*
X101064999Y-117645000D01*
X101143785Y-118041077D01*
X101368144Y-118376856D01*
X102315000Y-119323711D01*
X102315000Y-119350000D01*
X102377560Y-119664509D01*
X102377560Y-120130000D01*
X102402384Y-120261926D01*
X102248559Y-120360910D01*
X102103569Y-120573110D01*
X102052560Y-120825000D01*
X102052560Y-121090790D01*
X102043785Y-121103923D01*
X101964999Y-121500000D01*
X101965000Y-121500005D01*
X101965000Y-121603808D01*
X101798559Y-121710910D01*
X101653569Y-121923110D01*
X101602560Y-122175000D01*
X101602560Y-123425000D01*
X101646838Y-123660317D01*
X101785910Y-123876441D01*
X101998110Y-124021431D01*
X102250000Y-124072440D01*
X103750000Y-124072440D01*
X103985317Y-124028162D01*
X104201441Y-123889090D01*
X104247969Y-123820994D01*
X104390302Y-123963327D01*
X104623691Y-124060000D01*
X105214250Y-124060000D01*
X105373000Y-123901250D01*
X105373000Y-122927000D01*
X105353000Y-122927000D01*
X105353000Y-122673000D01*
X105373000Y-122673000D01*
X105373000Y-122653000D01*
X105627000Y-122653000D01*
X105627000Y-122673000D01*
X106726250Y-122673000D01*
X106885000Y-122514250D01*
X106885000Y-122048690D01*
X106788327Y-121815301D01*
X106609698Y-121636673D01*
X106435000Y-121564311D01*
X106435000Y-121485750D01*
X106276250Y-121327000D01*
X105327000Y-121327000D01*
X105327000Y-121347000D01*
X105073000Y-121347000D01*
X105073000Y-121327000D01*
X105053000Y-121327000D01*
X105053000Y-121073000D01*
X105073000Y-121073000D01*
X105073000Y-121053000D01*
X105327000Y-121053000D01*
X105327000Y-121073000D01*
X106276250Y-121073000D01*
X106435000Y-120914250D01*
X106435000Y-120698690D01*
X106338327Y-120465301D01*
X106185490Y-120312465D01*
X106222440Y-120130000D01*
X106222440Y-118570000D01*
X106178162Y-118334683D01*
X106076533Y-118176748D01*
X106067633Y-118132003D01*
X105944078Y-117947089D01*
X106026441Y-117894090D01*
X106171431Y-117681890D01*
X106222440Y-117430000D01*
X106222440Y-115870000D01*
X106178162Y-115634683D01*
X106149288Y-115589812D01*
X107487163Y-115589812D01*
X107361673Y-115715301D01*
X107265000Y-115948690D01*
X107265000Y-116414250D01*
X107423750Y-116573000D01*
X108523000Y-116573000D01*
X108523000Y-115598750D01*
X108364250Y-115440000D01*
X107994477Y-115440000D01*
X108223956Y-115286668D01*
X109484264Y-114026359D01*
X109484267Y-114026357D01*
X109578217Y-113885750D01*
X112240000Y-113885750D01*
X112240000Y-114476309D01*
X112336673Y-114709698D01*
X112515301Y-114888327D01*
X112748690Y-114985000D01*
X113214250Y-114985000D01*
X113373000Y-114826250D01*
X113373000Y-113727000D01*
X113627000Y-113727000D01*
X113627000Y-114826250D01*
X113785750Y-114985000D01*
X114251310Y-114985000D01*
X114484699Y-114888327D01*
X114663327Y-114709698D01*
X114760000Y-114476309D01*
X114760000Y-113885750D01*
X114601250Y-113727000D01*
X113627000Y-113727000D01*
X113373000Y-113727000D01*
X112398750Y-113727000D01*
X112240000Y-113885750D01*
X109578217Y-113885750D01*
X109708626Y-113690578D01*
X109729627Y-113585000D01*
X109787412Y-113294501D01*
X109787411Y-113294496D01*
X109787411Y-112526301D01*
X110502560Y-111811152D01*
X110502560Y-111900000D01*
X110546838Y-112135317D01*
X110685910Y-112351441D01*
X110898110Y-112496431D01*
X111150000Y-112547440D01*
X112050000Y-112547440D01*
X112285317Y-112503162D01*
X112393294Y-112433681D01*
X112336673Y-112490302D01*
X112240000Y-112723691D01*
X112240000Y-113314250D01*
X112398750Y-113473000D01*
X113373000Y-113473000D01*
X113373000Y-113453000D01*
X113627000Y-113453000D01*
X113627000Y-113473000D01*
X114601250Y-113473000D01*
X114621304Y-113452946D01*
X114698690Y-113485000D01*
X114914250Y-113485000D01*
X115073000Y-113326250D01*
X115073000Y-112377000D01*
X115327000Y-112377000D01*
X115327000Y-113326250D01*
X115485750Y-113485000D01*
X115701310Y-113485000D01*
X115934699Y-113388327D01*
X116113327Y-113209698D01*
X116210000Y-112976309D01*
X116210000Y-112535750D01*
X116051250Y-112377000D01*
X115327000Y-112377000D01*
X115073000Y-112377000D01*
X115053000Y-112377000D01*
X115053000Y-112123000D01*
X115073000Y-112123000D01*
X115073000Y-112103000D01*
X115327000Y-112103000D01*
X115327000Y-112123000D01*
X116051250Y-112123000D01*
X116210000Y-111964250D01*
X116210000Y-111523691D01*
X116113327Y-111290302D01*
X116111957Y-111288932D01*
X116171431Y-111201890D01*
X116222440Y-110950000D01*
X116222440Y-110581411D01*
X116418101Y-110581411D01*
X116389546Y-110609916D01*
X116240356Y-110969205D01*
X116240017Y-111358238D01*
X116388579Y-111717787D01*
X116663427Y-111993115D01*
X117022716Y-112142305D01*
X117085713Y-112142360D01*
X117183666Y-112240313D01*
X117196838Y-112310317D01*
X117207934Y-112327560D01*
X117200000Y-112327560D01*
X116964683Y-112371838D01*
X116748559Y-112510910D01*
X116603569Y-112723110D01*
X116552560Y-112975000D01*
X116552560Y-114225000D01*
X116596838Y-114460317D01*
X116735910Y-114676441D01*
X116948110Y-114821431D01*
X117065000Y-114845102D01*
X117065000Y-115702078D01*
X116842899Y-115657899D01*
X115075417Y-115657899D01*
X115029507Y-115546788D01*
X114754659Y-115271460D01*
X114395370Y-115122270D01*
X114006337Y-115121931D01*
X113646788Y-115270493D01*
X113371460Y-115545341D01*
X113222270Y-115904630D01*
X113221931Y-116293663D01*
X113310018Y-116506850D01*
X113271460Y-116545341D01*
X113122270Y-116904630D01*
X113121931Y-117293663D01*
X113270493Y-117653212D01*
X113545341Y-117928540D01*
X113904630Y-118077730D01*
X114007312Y-118077819D01*
X114142493Y-118168144D01*
X114442899Y-118227899D01*
X116117741Y-118227899D01*
X116835052Y-118945210D01*
X116678559Y-119045910D01*
X116533569Y-119258110D01*
X116520023Y-119325000D01*
X112188712Y-119325000D01*
X112031856Y-119168144D01*
X112011132Y-119154296D01*
X112047440Y-118975000D01*
X112047440Y-118734041D01*
X112106215Y-118646077D01*
X112121348Y-118570000D01*
X112185001Y-118250000D01*
X112185000Y-118249995D01*
X112185000Y-117896192D01*
X112351441Y-117789090D01*
X112496431Y-117576890D01*
X112547440Y-117325000D01*
X112547440Y-116075000D01*
X112503162Y-115839683D01*
X112364090Y-115623559D01*
X112332588Y-115602035D01*
X112435810Y-115353450D01*
X112436149Y-114964417D01*
X112287587Y-114604868D01*
X112012739Y-114329540D01*
X111653450Y-114180350D01*
X111264417Y-114180011D01*
X110904868Y-114328573D01*
X110629540Y-114603421D01*
X110480350Y-114962710D01*
X110480245Y-115082706D01*
X110424755Y-115165753D01*
X110373139Y-115425245D01*
X110371616Y-115432901D01*
X110164683Y-115471838D01*
X109948559Y-115610910D01*
X109902031Y-115679006D01*
X109759698Y-115536673D01*
X109526309Y-115440000D01*
X108935750Y-115440000D01*
X108777000Y-115598750D01*
X108777000Y-116573000D01*
X108797000Y-116573000D01*
X108797000Y-116827000D01*
X108777000Y-116827000D01*
X108777000Y-116847000D01*
X108523000Y-116847000D01*
X108523000Y-116827000D01*
X107423750Y-116827000D01*
X107265000Y-116985750D01*
X107265000Y-117451310D01*
X107361673Y-117684699D01*
X107540302Y-117863327D01*
X107729952Y-117941883D01*
X107665000Y-118098690D01*
X107665000Y-118314250D01*
X107823750Y-118473000D01*
X108773000Y-118473000D01*
X108773000Y-118453000D01*
X109027000Y-118453000D01*
X109027000Y-118473000D01*
X109047000Y-118473000D01*
X109047000Y-118727000D01*
X109027000Y-118727000D01*
X109027000Y-118747000D01*
X108773000Y-118747000D01*
X108773000Y-118727000D01*
X107823750Y-118727000D01*
X107665000Y-118885750D01*
X107665000Y-119101310D01*
X107761673Y-119334699D01*
X107842371Y-119415396D01*
X107722270Y-119704630D01*
X107721931Y-120093663D01*
X107870493Y-120453212D01*
X108145341Y-120728540D01*
X108504630Y-120877730D01*
X108782529Y-120877972D01*
X108990023Y-121085829D01*
X109349312Y-121235019D01*
X109412309Y-121235074D01*
X110714443Y-122537208D01*
X110668144Y-122568144D01*
X110443785Y-122903923D01*
X110364999Y-123300000D01*
X110443785Y-123696077D01*
X110668144Y-124031856D01*
X112122954Y-125486665D01*
X112122956Y-125486668D01*
X112458735Y-125711027D01*
X112854812Y-125789813D01*
X112854817Y-125789812D01*
X124098271Y-125789812D01*
X124098276Y-125789813D01*
X124494353Y-125711027D01*
X124830132Y-125486668D01*
X124979399Y-125337401D01*
X125482465Y-125337401D01*
X124268144Y-126551722D01*
X124043785Y-126887501D01*
X123964999Y-127283578D01*
X123965000Y-127283583D01*
X123965000Y-136519792D01*
X123668144Y-136718144D01*
X123668142Y-136718147D01*
X122935788Y-137450500D01*
X122711429Y-137786279D01*
X122632643Y-138182356D01*
X122632644Y-138182361D01*
X122632644Y-145429574D01*
X122711429Y-145825651D01*
X122935788Y-146161430D01*
X123271567Y-146385789D01*
X123667644Y-146464574D01*
X124063721Y-146385789D01*
X124399500Y-146161430D01*
X124623859Y-145825651D01*
X124702644Y-145429574D01*
X124702644Y-138611068D01*
X124828711Y-138485000D01*
X125073000Y-138485000D01*
X125073000Y-146773000D01*
X120500000Y-146773000D01*
X120452211Y-146782334D01*
X120410197Y-146810197D01*
X118945517Y-148274877D01*
X118945517Y-148075363D01*
X118933077Y-148009250D01*
X118933077Y-146475363D01*
X118897854Y-146298285D01*
X118869517Y-146155823D01*
X118695517Y-145895414D01*
X118695517Y-145375363D01*
X118651239Y-145140046D01*
X118512167Y-144923922D01*
X118442366Y-144876229D01*
X118499518Y-144839453D01*
X118644508Y-144627253D01*
X118695517Y-144375363D01*
X118695517Y-143175363D01*
X118651239Y-142940046D01*
X118512167Y-142723922D01*
X118433077Y-142669882D01*
X118433077Y-142497401D01*
X118533394Y-142478525D01*
X118749518Y-142339453D01*
X118894508Y-142127253D01*
X118945517Y-141875363D01*
X118945517Y-140875363D01*
X118901239Y-140640046D01*
X118762167Y-140423922D01*
X118549967Y-140278932D01*
X118517732Y-140272404D01*
X118569516Y-140194904D01*
X118601366Y-140034787D01*
X118749518Y-139939453D01*
X118894508Y-139727253D01*
X118945517Y-139475363D01*
X118945517Y-138475363D01*
X118901239Y-138240046D01*
X118762167Y-138023922D01*
X118549967Y-137878932D01*
X118298077Y-137827923D01*
X117298077Y-137827923D01*
X117062760Y-137872201D01*
X116846636Y-138011273D01*
X116701646Y-138223473D01*
X116650637Y-138475363D01*
X116650637Y-139475363D01*
X116694915Y-139710680D01*
X116728970Y-139763602D01*
X116355242Y-140137330D01*
X116194596Y-140377753D01*
X116133077Y-140335719D01*
X116133077Y-140014381D01*
X116249518Y-139939453D01*
X116394508Y-139727253D01*
X116445517Y-139475363D01*
X116445517Y-138475363D01*
X116401239Y-138240046D01*
X116262167Y-138023922D01*
X116049967Y-137878932D01*
X115829438Y-137834274D01*
X116431853Y-137231858D01*
X116431856Y-137231856D01*
X116656215Y-136896077D01*
X116679698Y-136778021D01*
X116735001Y-136500000D01*
X116735000Y-136499995D01*
X116735000Y-134700000D01*
X116656215Y-134303923D01*
X116431856Y-133968144D01*
X116096077Y-133743785D01*
X115700000Y-133665000D01*
X115303923Y-133743785D01*
X114968144Y-133968144D01*
X114743785Y-134303923D01*
X114665000Y-134700000D01*
X114665000Y-136071289D01*
X111668144Y-139068144D01*
X111535000Y-139267409D01*
X111535000Y-137500005D01*
X111535001Y-137500000D01*
X111456215Y-137103923D01*
X111363390Y-136965000D01*
X111231856Y-136768144D01*
X111231853Y-136768142D01*
X110809909Y-136346198D01*
X110834663Y-136286584D01*
X110835335Y-135516793D01*
X110809484Y-135454228D01*
X110931852Y-135331859D01*
X110931855Y-135331857D01*
X111111738Y-135062642D01*
X111156214Y-134996079D01*
X111235000Y-134600001D01*
X111234999Y-134599996D01*
X111234999Y-129700004D01*
X111235000Y-129699999D01*
X111156214Y-129303922D01*
X111062116Y-129163094D01*
X110931855Y-128968143D01*
X110931852Y-128968141D01*
X108309909Y-126346198D01*
X108334663Y-126286584D01*
X108335335Y-125516793D01*
X108041370Y-124805342D01*
X107497521Y-124260543D01*
X106786584Y-123965337D01*
X106605228Y-123965179D01*
X106609698Y-123963327D01*
X106788327Y-123784699D01*
X106885000Y-123551310D01*
X106885000Y-123085750D01*
X106726250Y-122927000D01*
X105627000Y-122927000D01*
X105627000Y-123901250D01*
X105785750Y-124060000D01*
X105786064Y-124060000D01*
X105305342Y-124258630D01*
X104760543Y-124802479D01*
X104465337Y-125513416D01*
X104464665Y-126283207D01*
X104758630Y-126994658D01*
X105302479Y-127539457D01*
X105844478Y-127764514D01*
X105779146Y-127764457D01*
X104626485Y-128240727D01*
X103743826Y-129121847D01*
X103265546Y-130273674D01*
X103264457Y-131520854D01*
X103740727Y-132673515D01*
X104621847Y-133556174D01*
X105773674Y-134034454D01*
X107020854Y-134035543D01*
X108173515Y-133559273D01*
X109056174Y-132678153D01*
X109164999Y-132416073D01*
X109164999Y-133965231D01*
X108516793Y-133964665D01*
X107805342Y-134258630D01*
X107260543Y-134802479D01*
X106998137Y-135434425D01*
X106731856Y-135168144D01*
X106396077Y-134943785D01*
X106000000Y-134864999D01*
X105999995Y-134865000D01*
X105566020Y-134865000D01*
X105541370Y-134805342D01*
X104997521Y-134260543D01*
X104286584Y-133965337D01*
X103516793Y-133964665D01*
X102805342Y-134258630D01*
X102260543Y-134802479D01*
X101965337Y-135513416D01*
X101964665Y-136283207D01*
X102258630Y-136994658D01*
X102802479Y-137539457D01*
X103513416Y-137834663D01*
X104283207Y-137835335D01*
X104994658Y-137541370D01*
X105539457Y-136997521D01*
X105565418Y-136935000D01*
X105571288Y-136935000D01*
X107465000Y-138828711D01*
X107465000Y-146927281D01*
X107464999Y-146927286D01*
X107543785Y-147323363D01*
X107768144Y-147659142D01*
X108840859Y-148731856D01*
X109176637Y-148956215D01*
X109390627Y-148998781D01*
X109600637Y-149208791D01*
X109600637Y-149275363D01*
X109644915Y-149510680D01*
X109783987Y-149726804D01*
X109996187Y-149871794D01*
X110248077Y-149922803D01*
X110648077Y-149922803D01*
X110883394Y-149878525D01*
X110895056Y-149871021D01*
X110896187Y-149871794D01*
X111148077Y-149922803D01*
X111548077Y-149922803D01*
X111783394Y-149878525D01*
X111820805Y-149854451D01*
X111846187Y-149871794D01*
X112098077Y-149922803D01*
X112498077Y-149922803D01*
X112733394Y-149878525D01*
X112745056Y-149871021D01*
X112746187Y-149871794D01*
X112998077Y-149922803D01*
X113398077Y-149922803D01*
X113633394Y-149878525D01*
X113821920Y-149757212D01*
X111386205Y-152192927D01*
X111364090Y-152158559D01*
X111151890Y-152013569D01*
X110900000Y-151962560D01*
X109200000Y-151962560D01*
X108964683Y-152006838D01*
X108748559Y-152145910D01*
X108603569Y-152358110D01*
X108552560Y-152610000D01*
X108552560Y-154310000D01*
X108596838Y-154545317D01*
X108735910Y-154761441D01*
X108948110Y-154906431D01*
X109015541Y-154920086D01*
X108970853Y-154949946D01*
X108648946Y-155431715D01*
X108535907Y-156000000D01*
X108648946Y-156568285D01*
X108970853Y-157050054D01*
X109452622Y-157371961D01*
X110020907Y-157485000D01*
X110079093Y-157485000D01*
X110647378Y-157371961D01*
X111129147Y-157050054D01*
X111451054Y-156568285D01*
X111564093Y-156000000D01*
X111555870Y-155958659D01*
X111723000Y-155925414D01*
X111723000Y-157673000D01*
X107127000Y-157673000D01*
X107127000Y-140500000D01*
X107118315Y-140453841D01*
X107091035Y-140411447D01*
X107049410Y-140383006D01*
X107000000Y-140373000D01*
X106350000Y-140373000D01*
X106303841Y-140381685D01*
X106261447Y-140408965D01*
X106233006Y-140450590D01*
X106223000Y-140500000D01*
X106223000Y-158100000D01*
X106231685Y-158146159D01*
X106258965Y-158188553D01*
X106300590Y-158216994D01*
X106350000Y-158227000D01*
X112200000Y-158227000D01*
X112246159Y-158218315D01*
X112288553Y-158191035D01*
X112316994Y-158149410D01*
X112327000Y-158100000D01*
X112327000Y-156002382D01*
X120552828Y-147727000D01*
X125700000Y-147727000D01*
X125746159Y-147718315D01*
X125788553Y-147691035D01*
X125816994Y-147649410D01*
X125827000Y-147600000D01*
X125827000Y-138890712D01*
X126773554Y-139837265D01*
X126773554Y-147449995D01*
X126773553Y-147450000D01*
X126852339Y-147846077D01*
X127076698Y-148181856D01*
X128298966Y-149404124D01*
X127914753Y-149660846D01*
X127592846Y-150142615D01*
X127479807Y-150710900D01*
X127592846Y-151279185D01*
X127914753Y-151760954D01*
X128243926Y-151980900D01*
X127914753Y-152200846D01*
X127592846Y-152682615D01*
X127479807Y-153250900D01*
X127592846Y-153819185D01*
X127914753Y-154300954D01*
X127958677Y-154330303D01*
X127784202Y-154402573D01*
X127605573Y-154581201D01*
X127508900Y-154814590D01*
X127508900Y-155505150D01*
X127667650Y-155663900D01*
X128866900Y-155663900D01*
X128866900Y-155643900D01*
X129120900Y-155643900D01*
X129120900Y-155663900D01*
X129140900Y-155663900D01*
X129140900Y-155917900D01*
X129120900Y-155917900D01*
X129120900Y-157117150D01*
X129279650Y-157275900D01*
X129361301Y-157275900D01*
X129361301Y-163554233D01*
X129355079Y-163544921D01*
X125278015Y-159467857D01*
X125278069Y-159406337D01*
X125129507Y-159046788D01*
X124854659Y-158771460D01*
X124495370Y-158622270D01*
X124106337Y-158621931D01*
X123746788Y-158770493D01*
X123471460Y-159045341D01*
X123322270Y-159404630D01*
X123321931Y-159793663D01*
X123470493Y-160153212D01*
X123745341Y-160428540D01*
X124104630Y-160577730D01*
X124167627Y-160577785D01*
X128015000Y-164425158D01*
X128015000Y-164747680D01*
X127843785Y-165003923D01*
X127765000Y-165400000D01*
X127843785Y-165796077D01*
X128068144Y-166131856D01*
X128403923Y-166356215D01*
X128800000Y-166435000D01*
X129049995Y-166435000D01*
X129050000Y-166435001D01*
X129446077Y-166356215D01*
X129781856Y-166131856D01*
X131128154Y-164785557D01*
X131128157Y-164785555D01*
X131352516Y-164449776D01*
X131376439Y-164329507D01*
X131431302Y-164053699D01*
X131431301Y-164053694D01*
X131431301Y-151803108D01*
X142708514Y-151803108D01*
X142829181Y-152033000D01*
X144023000Y-152033000D01*
X144023000Y-150839845D01*
X143793110Y-150718524D01*
X143383076Y-150888355D01*
X142954817Y-151278642D01*
X142708514Y-151803108D01*
X131431301Y-151803108D01*
X131431301Y-150037752D01*
X131431302Y-150037747D01*
X131352516Y-149641670D01*
X131128157Y-149305891D01*
X131128154Y-149305889D01*
X128843554Y-147021288D01*
X128843554Y-140593663D01*
X130221931Y-140593663D01*
X130370493Y-140953212D01*
X130645341Y-141228540D01*
X131004630Y-141377730D01*
X131067627Y-141377785D01*
X132734194Y-143044352D01*
X132820493Y-143253212D01*
X133095341Y-143528540D01*
X133454630Y-143677730D01*
X133843663Y-143678069D01*
X134203212Y-143529507D01*
X134478540Y-143254659D01*
X134627730Y-142895370D01*
X134628069Y-142506337D01*
X134479507Y-142146788D01*
X134204659Y-141871460D01*
X133845370Y-141722270D01*
X133632242Y-141722084D01*
X132733849Y-140823691D01*
X134665000Y-140823691D01*
X134665000Y-140964250D01*
X134823750Y-141123000D01*
X135425000Y-141123000D01*
X135425000Y-140473750D01*
X135266250Y-140315000D01*
X135173690Y-140315000D01*
X134940301Y-140411673D01*
X134761673Y-140590302D01*
X134665000Y-140823691D01*
X132733849Y-140823691D01*
X132178015Y-140267857D01*
X132178069Y-140206337D01*
X132029507Y-139846788D01*
X131754659Y-139571460D01*
X131395370Y-139422270D01*
X131006337Y-139421931D01*
X130646788Y-139570493D01*
X130371460Y-139845341D01*
X130222270Y-140204630D01*
X130221931Y-140593663D01*
X128843554Y-140593663D01*
X128843554Y-139408559D01*
X128843555Y-139408554D01*
X128764769Y-139012477D01*
X128723741Y-138951074D01*
X128540410Y-138676698D01*
X128540407Y-138676696D01*
X128391560Y-138527849D01*
X128643663Y-138528069D01*
X129003212Y-138379507D01*
X129278540Y-138104659D01*
X129427730Y-137745370D01*
X129428069Y-137356337D01*
X129279507Y-136996788D01*
X129235000Y-136952203D01*
X129235000Y-135242248D01*
X133287358Y-135242248D01*
X133287358Y-135466754D01*
X133881723Y-136061119D01*
X134115112Y-136157792D01*
X134367730Y-136157792D01*
X134601120Y-136061120D01*
X134779748Y-135882491D01*
X135054064Y-135608175D01*
X135054064Y-135383669D01*
X134100000Y-134429605D01*
X133287358Y-135242248D01*
X129235000Y-135242248D01*
X129235000Y-133982270D01*
X132192208Y-133982270D01*
X132192208Y-134234888D01*
X132288881Y-134468277D01*
X132883246Y-135062642D01*
X133107752Y-135062642D01*
X133920395Y-134250000D01*
X132966331Y-133295936D01*
X132741825Y-133295936D01*
X132467509Y-133570252D01*
X132288880Y-133748880D01*
X132192208Y-133982270D01*
X129235000Y-133982270D01*
X129235000Y-132891825D01*
X133145936Y-132891825D01*
X133145936Y-133116331D01*
X134100000Y-134070395D01*
X134114142Y-134056252D01*
X134293748Y-134235858D01*
X134279605Y-134250000D01*
X135233669Y-135204064D01*
X135458175Y-135204064D01*
X135732491Y-134929748D01*
X135891942Y-134770298D01*
X135999400Y-134877756D01*
X136232789Y-134974429D01*
X136234725Y-134974429D01*
X136254219Y-135078030D01*
X136396264Y-135292212D01*
X136402960Y-135298908D01*
X136329198Y-135347827D01*
X135197827Y-136479198D01*
X135062742Y-136676901D01*
X135008258Y-136928063D01*
X135055782Y-137180634D01*
X135197827Y-137394816D01*
X136165000Y-138361989D01*
X136165000Y-139560982D01*
X136048559Y-139635910D01*
X135903569Y-139848110D01*
X135852560Y-140100000D01*
X135852560Y-140315000D01*
X135833750Y-140315000D01*
X135675000Y-140473750D01*
X135675000Y-141123000D01*
X135697000Y-141123000D01*
X135697000Y-141377000D01*
X135675000Y-141377000D01*
X135675000Y-141397000D01*
X135425000Y-141397000D01*
X135425000Y-141377000D01*
X134823750Y-141377000D01*
X134665000Y-141535750D01*
X134665000Y-141676309D01*
X134710967Y-141787283D01*
X134703569Y-141798110D01*
X134652560Y-142050000D01*
X134652560Y-142650000D01*
X134696838Y-142885317D01*
X134835910Y-143101441D01*
X135048110Y-143246431D01*
X135300000Y-143297440D01*
X135592402Y-143297440D01*
X135499527Y-143390315D01*
X135437771Y-143364671D01*
X135048738Y-143364332D01*
X134689189Y-143512894D01*
X134413861Y-143787742D01*
X134264671Y-144147031D01*
X134264332Y-144536064D01*
X134412894Y-144895613D01*
X134687742Y-145170941D01*
X135047031Y-145320131D01*
X135436064Y-145320470D01*
X135795613Y-145171908D01*
X135885637Y-145082041D01*
X135958006Y-145067646D01*
X136212678Y-144897480D01*
X136322675Y-144787483D01*
X136370493Y-144903212D01*
X136645341Y-145178540D01*
X137004630Y-145327730D01*
X137393663Y-145328069D01*
X137753212Y-145179507D01*
X138028540Y-144904659D01*
X138177730Y-144545370D01*
X138178069Y-144156337D01*
X138029507Y-143796788D01*
X137991659Y-143758874D01*
X137996431Y-143751890D01*
X138047440Y-143500000D01*
X138047440Y-142300000D01*
X138003162Y-142064683D01*
X137864090Y-141848559D01*
X137794289Y-141800866D01*
X137851441Y-141764090D01*
X137996431Y-141551890D01*
X138047440Y-141300000D01*
X138047440Y-140100000D01*
X138028527Y-139999489D01*
X138246077Y-139956215D01*
X138581856Y-139731856D01*
X138806215Y-139396077D01*
X138885000Y-139000000D01*
X138885000Y-138000005D01*
X138885001Y-138000000D01*
X138806215Y-137603923D01*
X138770185Y-137550000D01*
X138758353Y-137532292D01*
X138794114Y-137479955D01*
X138848598Y-137228793D01*
X138801074Y-136976222D01*
X138659029Y-136762040D01*
X138542307Y-136645318D01*
X138578503Y-136463354D01*
X138578502Y-136463349D01*
X138578502Y-135722648D01*
X138690740Y-135610410D01*
X138825825Y-135412707D01*
X138880309Y-135161545D01*
X138832785Y-134908974D01*
X138690740Y-134694792D01*
X138311128Y-134315180D01*
X138275358Y-134261646D01*
X138221824Y-134225876D01*
X137842212Y-133846264D01*
X137644509Y-133711179D01*
X137524429Y-133685130D01*
X137524429Y-133682789D01*
X137427756Y-133449400D01*
X137116234Y-133137878D01*
X136891727Y-133137878D01*
X136379605Y-133650000D01*
X136393748Y-133664143D01*
X136214143Y-133843748D01*
X136200000Y-133829605D01*
X136185858Y-133843748D01*
X136006253Y-133664143D01*
X136020395Y-133650000D01*
X135349174Y-132978779D01*
X135124667Y-132978779D01*
X134972243Y-133131203D01*
X134924906Y-133245486D01*
X134912642Y-133257750D01*
X134912642Y-133033246D01*
X134454063Y-132574667D01*
X135528779Y-132574667D01*
X135528779Y-132799174D01*
X136200000Y-133470395D01*
X136712122Y-132958273D01*
X136712122Y-132733766D01*
X136400600Y-132422244D01*
X136167211Y-132325571D01*
X135914592Y-132325571D01*
X135681203Y-132422243D01*
X135528779Y-132574667D01*
X134454063Y-132574667D01*
X134318277Y-132438881D01*
X134084888Y-132342208D01*
X133832270Y-132342208D01*
X133598880Y-132438880D01*
X133420252Y-132617509D01*
X133145936Y-132891825D01*
X129235000Y-132891825D01*
X129235000Y-132625158D01*
X130075158Y-131785000D01*
X134251877Y-131785000D01*
X134295341Y-131828540D01*
X134654630Y-131977730D01*
X135043663Y-131978069D01*
X135403212Y-131829507D01*
X135678540Y-131554659D01*
X135827730Y-131195370D01*
X135828069Y-130806337D01*
X135679507Y-130446788D01*
X135446604Y-130213478D01*
X136709629Y-130213478D01*
X136709629Y-130437985D01*
X137021151Y-130749507D01*
X137254540Y-130846180D01*
X137507159Y-130846180D01*
X137740548Y-130749508D01*
X137833594Y-130656462D01*
X139351572Y-130656462D01*
X139351572Y-130880968D01*
X139945937Y-131475333D01*
X140179326Y-131572006D01*
X140431944Y-131572006D01*
X140665334Y-131475334D01*
X140843962Y-131296705D01*
X141118278Y-131022389D01*
X141118278Y-130797883D01*
X140164214Y-129843819D01*
X139351572Y-130656462D01*
X137833594Y-130656462D01*
X137892972Y-130597084D01*
X137892972Y-130372577D01*
X137221751Y-129701356D01*
X136709629Y-130213478D01*
X135446604Y-130213478D01*
X135404659Y-130171460D01*
X135045370Y-130022270D01*
X134656337Y-130021931D01*
X134296788Y-130170493D01*
X134252203Y-130215000D01*
X132368094Y-130215000D01*
X132428540Y-130154659D01*
X132577730Y-129795370D01*
X132578069Y-129406337D01*
X132429507Y-129046788D01*
X132385000Y-129002203D01*
X132385000Y-128500000D01*
X132359861Y-128373619D01*
X132325245Y-128199593D01*
X132155079Y-127944921D01*
X131821315Y-127611157D01*
X131803162Y-127514683D01*
X131762461Y-127451432D01*
X131835000Y-127276309D01*
X131835000Y-127233750D01*
X131676250Y-127075000D01*
X131100000Y-127075000D01*
X131100000Y-127102560D01*
X130900000Y-127102560D01*
X130900000Y-127075000D01*
X130323750Y-127075000D01*
X130165000Y-127233750D01*
X130165000Y-127276309D01*
X130236755Y-127449541D01*
X130203569Y-127498110D01*
X130152560Y-127750000D01*
X130152560Y-128050000D01*
X130196838Y-128285317D01*
X130335910Y-128501441D01*
X130548110Y-128646431D01*
X130658660Y-128668818D01*
X130815000Y-128825158D01*
X130815000Y-129001877D01*
X130771460Y-129045341D01*
X130622270Y-129404630D01*
X130621931Y-129793663D01*
X130770493Y-130153212D01*
X130832173Y-130215000D01*
X129750005Y-130215000D01*
X129750000Y-130214999D01*
X129449594Y-130274755D01*
X129194921Y-130444921D01*
X127894921Y-131744921D01*
X127724755Y-131999593D01*
X127724755Y-131999594D01*
X127665000Y-132300000D01*
X127665000Y-132371106D01*
X127525758Y-132218317D01*
X127382847Y-132151202D01*
X127723547Y-131923554D01*
X128045454Y-131441785D01*
X128158493Y-130873500D01*
X128045454Y-130305215D01*
X127723547Y-129823446D01*
X127681948Y-129795650D01*
X127729717Y-129786662D01*
X127945841Y-129647590D01*
X128090831Y-129435390D01*
X128141840Y-129183500D01*
X128141840Y-127483500D01*
X128097562Y-127248183D01*
X127958490Y-127032059D01*
X127746290Y-126887069D01*
X127494400Y-126836060D01*
X126911230Y-126836060D01*
X128064884Y-125682405D01*
X128064760Y-125824285D01*
X128275169Y-126333515D01*
X128664436Y-126723461D01*
X129173298Y-126934759D01*
X129724285Y-126935240D01*
X130165000Y-126753141D01*
X130165000Y-126766250D01*
X130323750Y-126925000D01*
X130900000Y-126925000D01*
X130900000Y-126373750D01*
X131100000Y-126373750D01*
X131100000Y-126925000D01*
X131676250Y-126925000D01*
X131835000Y-126766250D01*
X131835000Y-126723691D01*
X131738327Y-126490302D01*
X131559699Y-126311673D01*
X131326310Y-126215000D01*
X131258750Y-126215000D01*
X131100000Y-126373750D01*
X130900000Y-126373750D01*
X130741250Y-126215000D01*
X130673690Y-126215000D01*
X130673489Y-126215083D01*
X130834759Y-125826702D01*
X130835110Y-125425048D01*
X131102668Y-125157489D01*
X131102671Y-125157487D01*
X131272837Y-124902814D01*
X131319289Y-124669289D01*
X131552815Y-124622837D01*
X131807487Y-124452671D01*
X132718276Y-123541882D01*
X132798110Y-123596431D01*
X133050000Y-123647440D01*
X133637282Y-123647440D01*
X133674180Y-123684338D01*
X133674088Y-123790069D01*
X133822650Y-124149618D01*
X134097498Y-124424946D01*
X134456787Y-124574136D01*
X134845820Y-124574475D01*
X135205369Y-124425913D01*
X135480697Y-124151065D01*
X135522970Y-124049260D01*
X135522970Y-126057965D01*
X135522969Y-126057970D01*
X135569021Y-126289484D01*
X135470100Y-126434259D01*
X135415616Y-126685421D01*
X135456312Y-126901706D01*
X135261341Y-127031011D01*
X134731011Y-127561341D01*
X134595926Y-127759044D01*
X134541442Y-128010206D01*
X134588966Y-128262777D01*
X134731011Y-128476959D01*
X135110623Y-128856571D01*
X135146393Y-128910105D01*
X135199927Y-128945875D01*
X135579539Y-129325487D01*
X135777242Y-129460572D01*
X135897322Y-129486621D01*
X135897322Y-129488962D01*
X135993995Y-129722351D01*
X136305517Y-130033873D01*
X136530024Y-130033873D01*
X137042146Y-129521751D01*
X137401356Y-129521751D01*
X138072577Y-130192972D01*
X138297084Y-130192972D01*
X138449508Y-130040548D01*
X138467563Y-129996959D01*
X138947460Y-130476856D01*
X139171966Y-130476856D01*
X139984609Y-129664214D01*
X139030545Y-128710150D01*
X138806039Y-128710150D01*
X138531723Y-128984466D01*
X138353094Y-129163094D01*
X138335039Y-129206683D01*
X138137985Y-129009629D01*
X137913478Y-129009629D01*
X137401356Y-129521751D01*
X137042146Y-129521751D01*
X137028004Y-129507609D01*
X137207609Y-129328004D01*
X137221751Y-129342146D01*
X137733873Y-128830024D01*
X137733873Y-128699785D01*
X137935016Y-128566387D01*
X138180005Y-128321398D01*
X139210150Y-128321398D01*
X139210150Y-128530545D01*
X140164214Y-129484609D01*
X140178357Y-129470467D01*
X140357962Y-129650072D01*
X140343819Y-129664214D01*
X141297883Y-130618278D01*
X141522389Y-130618278D01*
X141810301Y-130330366D01*
X141810301Y-130971978D01*
X141756337Y-130971931D01*
X141396788Y-131120493D01*
X141121460Y-131395341D01*
X140972270Y-131754630D01*
X140971931Y-132143663D01*
X141120493Y-132503212D01*
X141165000Y-132547797D01*
X141165000Y-135081486D01*
X139492511Y-136753974D01*
X139322345Y-137008646D01*
X139302126Y-137110292D01*
X139262590Y-137309053D01*
X139262590Y-141613964D01*
X139246788Y-141620493D01*
X138971460Y-141895341D01*
X138822270Y-142254630D01*
X138821931Y-142643663D01*
X138970493Y-143003212D01*
X139245341Y-143278540D01*
X139604630Y-143427730D01*
X139750378Y-143427857D01*
X139763335Y-143492996D01*
X139696788Y-143520493D01*
X139421460Y-143795341D01*
X139272270Y-144154630D01*
X139271931Y-144543663D01*
X139420493Y-144903212D01*
X139695341Y-145178540D01*
X140054630Y-145327730D01*
X140443663Y-145328069D01*
X140716558Y-145215312D01*
X140777334Y-145227401D01*
X142545880Y-145227401D01*
X142445907Y-145730000D01*
X142558946Y-146298285D01*
X142880853Y-146780054D01*
X143362622Y-147101961D01*
X143930907Y-147215000D01*
X143989093Y-147215000D01*
X144557378Y-147101961D01*
X145039147Y-146780054D01*
X145228345Y-146496899D01*
X145228355Y-146496924D01*
X145618642Y-146925183D01*
X146143108Y-147171486D01*
X146373000Y-147050819D01*
X146373000Y-145857000D01*
X146353000Y-145857000D01*
X146353000Y-145603000D01*
X146373000Y-145603000D01*
X146373000Y-145583000D01*
X146627000Y-145583000D01*
X146627000Y-145603000D01*
X146647000Y-145603000D01*
X146647000Y-145857000D01*
X146627000Y-145857000D01*
X146627000Y-147050819D01*
X146856892Y-147171486D01*
X147381358Y-146925183D01*
X147771645Y-146496924D01*
X147819812Y-146380631D01*
X147819812Y-148214476D01*
X145036740Y-150997548D01*
X144916924Y-150888355D01*
X144506890Y-150718524D01*
X144277000Y-150839845D01*
X144277000Y-152033000D01*
X144297000Y-152033000D01*
X144297000Y-152287000D01*
X144277000Y-152287000D01*
X144277000Y-152307000D01*
X144023000Y-152307000D01*
X144023000Y-152287000D01*
X142829181Y-152287000D01*
X142708514Y-152516892D01*
X142954817Y-153041358D01*
X143383076Y-153431645D01*
X143383101Y-153431655D01*
X143099946Y-153620853D01*
X142778039Y-154102622D01*
X142665000Y-154670907D01*
X142665000Y-154729093D01*
X142778039Y-155297378D01*
X143099946Y-155779147D01*
X143581715Y-156101054D01*
X144150000Y-156214093D01*
X144718285Y-156101054D01*
X145200054Y-155779147D01*
X145227850Y-155737548D01*
X145236838Y-155785317D01*
X145375910Y-156001441D01*
X145588110Y-156146431D01*
X145840000Y-156197440D01*
X147540000Y-156197440D01*
X147775317Y-156153162D01*
X147991441Y-156014090D01*
X148136431Y-155801890D01*
X148187440Y-155550000D01*
X148187440Y-153850000D01*
X148143162Y-153614683D01*
X148004090Y-153398559D01*
X147791890Y-153253569D01*
X147735546Y-153242159D01*
X147740054Y-153239147D01*
X148061961Y-152757378D01*
X148175000Y-152189093D01*
X148175000Y-152130907D01*
X148117637Y-151842521D01*
X149905079Y-150055079D01*
X150075245Y-149800407D01*
X150135000Y-149500000D01*
X150135000Y-135250000D01*
X150075245Y-134949594D01*
X150075245Y-134949593D01*
X149905079Y-134694921D01*
X147528015Y-132317857D01*
X147528069Y-132256337D01*
X147379507Y-131896788D01*
X147104659Y-131621460D01*
X146745370Y-131472270D01*
X146356337Y-131471931D01*
X145996788Y-131620493D01*
X145721460Y-131895341D01*
X145572270Y-132254630D01*
X145571931Y-132643663D01*
X145720493Y-133003212D01*
X145839465Y-133122392D01*
X145722270Y-133404630D01*
X145721931Y-133793663D01*
X145870493Y-134153212D01*
X146145341Y-134428540D01*
X146504630Y-134577730D01*
X146567627Y-134577785D01*
X147819812Y-135829970D01*
X147819812Y-139960127D01*
X147579147Y-139599946D01*
X147097378Y-139278039D01*
X146529093Y-139165000D01*
X146470907Y-139165000D01*
X145902622Y-139278039D01*
X145420853Y-139599946D01*
X145420029Y-139601179D01*
X145413162Y-139564683D01*
X145274090Y-139348559D01*
X145061890Y-139203569D01*
X144995000Y-139190023D01*
X144995000Y-139038433D01*
X144995001Y-139038428D01*
X144916215Y-138642351D01*
X144911304Y-138635001D01*
X144691856Y-138306572D01*
X144691853Y-138306570D01*
X143099498Y-136714214D01*
X143577154Y-136236557D01*
X143577157Y-136236555D01*
X143801516Y-135900776D01*
X143820524Y-135805219D01*
X143880302Y-135504699D01*
X143880301Y-135504694D01*
X143880301Y-129145306D01*
X143880302Y-129145301D01*
X143801516Y-128749224D01*
X143749894Y-128671966D01*
X143620901Y-128478912D01*
X143629900Y-128465741D01*
X143684384Y-128214579D01*
X143650913Y-128036692D01*
X143735746Y-128001640D01*
X144011074Y-127726792D01*
X144160264Y-127367503D01*
X144160603Y-126978470D01*
X144012041Y-126618921D01*
X143771074Y-126377533D01*
X143737613Y-126327455D01*
X143698111Y-126287953D01*
X143708558Y-126239794D01*
X143661034Y-125987223D01*
X143518989Y-125773041D01*
X143139377Y-125393429D01*
X143103607Y-125339895D01*
X143050073Y-125304125D01*
X142789611Y-125043663D01*
X143421931Y-125043663D01*
X143570493Y-125403212D01*
X143845341Y-125678540D01*
X144204630Y-125827730D01*
X144317671Y-125827829D01*
X144721985Y-126232143D01*
X144721931Y-126293663D01*
X144870493Y-126653212D01*
X145145341Y-126928540D01*
X145504630Y-127077730D01*
X145893663Y-127078069D01*
X146253212Y-126929507D01*
X146528540Y-126654659D01*
X146677730Y-126295370D01*
X146678069Y-125906337D01*
X146593587Y-125701874D01*
X149230881Y-125701874D01*
X149432632Y-126112763D01*
X149773322Y-126400002D01*
X150198000Y-126535000D01*
X150473000Y-126535000D01*
X150473000Y-125527000D01*
X149357046Y-125527000D01*
X149230881Y-125701874D01*
X146593587Y-125701874D01*
X146529507Y-125546788D01*
X146254659Y-125271460D01*
X145895370Y-125122270D01*
X145832373Y-125122215D01*
X145411289Y-124701131D01*
X146798771Y-124701131D01*
X146940432Y-125111049D01*
X147228179Y-125435552D01*
X147602062Y-125619268D01*
X147773000Y-125492734D01*
X147773000Y-124527000D01*
X148027000Y-124527000D01*
X148027000Y-125492734D01*
X148197938Y-125619268D01*
X148571821Y-125435552D01*
X148859568Y-125111049D01*
X148864033Y-125098126D01*
X149230881Y-125098126D01*
X149357046Y-125273000D01*
X150473000Y-125273000D01*
X150473000Y-124265000D01*
X150198000Y-124265000D01*
X149773322Y-124399998D01*
X149432632Y-124687237D01*
X149230881Y-125098126D01*
X148864033Y-125098126D01*
X149001229Y-124701131D01*
X148852563Y-124527000D01*
X148027000Y-124527000D01*
X147773000Y-124527000D01*
X146947437Y-124527000D01*
X146798771Y-124701131D01*
X145411289Y-124701131D01*
X145378059Y-124667901D01*
X145378069Y-124656337D01*
X145229507Y-124296788D01*
X145031934Y-124098869D01*
X146798771Y-124098869D01*
X146947437Y-124273000D01*
X147773000Y-124273000D01*
X147773000Y-123307266D01*
X148027000Y-123307266D01*
X148027000Y-124273000D01*
X148852563Y-124273000D01*
X149001229Y-124098869D01*
X148859568Y-123688951D01*
X148571821Y-123364448D01*
X148197938Y-123180732D01*
X148027000Y-123307266D01*
X147773000Y-123307266D01*
X147602062Y-123180732D01*
X147228179Y-123364448D01*
X146940432Y-123688951D01*
X146798771Y-124098869D01*
X145031934Y-124098869D01*
X144954659Y-124021460D01*
X144595370Y-123872270D01*
X144206337Y-123871931D01*
X143846788Y-124020493D01*
X143571460Y-124295341D01*
X143422270Y-124654630D01*
X143421931Y-125043663D01*
X142789611Y-125043663D01*
X142670461Y-124924513D01*
X142472758Y-124789428D01*
X142352678Y-124763379D01*
X142352678Y-124761038D01*
X142256005Y-124527649D01*
X141944483Y-124216127D01*
X141719976Y-124216127D01*
X141207854Y-124728249D01*
X141221997Y-124742392D01*
X141042392Y-124921997D01*
X141028249Y-124907854D01*
X141014107Y-124921997D01*
X140834502Y-124742392D01*
X140848644Y-124728249D01*
X140177423Y-124057028D01*
X139952916Y-124057028D01*
X139869670Y-124140274D01*
X139860680Y-124131284D01*
X139748428Y-124243536D01*
X139748428Y-124019032D01*
X139382312Y-123652916D01*
X140357028Y-123652916D01*
X140357028Y-123877423D01*
X141028249Y-124548644D01*
X141540371Y-124036522D01*
X141540371Y-123812015D01*
X141228849Y-123500493D01*
X140995460Y-123403820D01*
X140742841Y-123403820D01*
X140509452Y-123500492D01*
X140357028Y-123652916D01*
X139382312Y-123652916D01*
X139154063Y-123424667D01*
X138920674Y-123327994D01*
X138668056Y-123327994D01*
X138434666Y-123424666D01*
X138256038Y-123603295D01*
X137981722Y-123877611D01*
X137981722Y-124102117D01*
X138935786Y-125056181D01*
X138949928Y-125042038D01*
X139129534Y-125221644D01*
X139115391Y-125235786D01*
X139129534Y-125249929D01*
X138949929Y-125429534D01*
X138935786Y-125415391D01*
X138921644Y-125429534D01*
X138742039Y-125249929D01*
X138756181Y-125235786D01*
X137802117Y-124281722D01*
X137592970Y-124281722D01*
X137592970Y-120570742D01*
X138588954Y-119574757D01*
X138588957Y-119574755D01*
X138931855Y-119231856D01*
X139156215Y-118896078D01*
X139235000Y-118500000D01*
X139156215Y-118103923D01*
X139043344Y-117935000D01*
X139621288Y-117935000D01*
X142818144Y-121131855D01*
X143153922Y-121356215D01*
X143550000Y-121435000D01*
X143946077Y-121356215D01*
X144281855Y-121131855D01*
X144506215Y-120796077D01*
X144585000Y-120400000D01*
X144506215Y-120003922D01*
X144303897Y-119701131D01*
X146798771Y-119701131D01*
X146940432Y-120111049D01*
X147228179Y-120435552D01*
X147602062Y-120619268D01*
X147773000Y-120492734D01*
X147773000Y-119527000D01*
X148027000Y-119527000D01*
X148027000Y-120492734D01*
X148197938Y-120619268D01*
X148571821Y-120435552D01*
X148859568Y-120111049D01*
X149001229Y-119701131D01*
X148852563Y-119527000D01*
X148027000Y-119527000D01*
X147773000Y-119527000D01*
X146947437Y-119527000D01*
X146798771Y-119701131D01*
X144303897Y-119701131D01*
X144281855Y-119668144D01*
X143712581Y-119098869D01*
X146798771Y-119098869D01*
X146947437Y-119273000D01*
X147773000Y-119273000D01*
X147773000Y-118307266D01*
X148027000Y-118307266D01*
X148027000Y-119273000D01*
X148852563Y-119273000D01*
X149001229Y-119098869D01*
X148864034Y-118701874D01*
X149230881Y-118701874D01*
X149432632Y-119112763D01*
X149773322Y-119400002D01*
X150198000Y-119535000D01*
X150473000Y-119535000D01*
X150473000Y-118527000D01*
X149357046Y-118527000D01*
X149230881Y-118701874D01*
X148864034Y-118701874D01*
X148859568Y-118688951D01*
X148571821Y-118364448D01*
X148197938Y-118180732D01*
X148027000Y-118307266D01*
X147773000Y-118307266D01*
X147602062Y-118180732D01*
X147228179Y-118364448D01*
X146940432Y-118688951D01*
X146798771Y-119098869D01*
X143712581Y-119098869D01*
X142711838Y-118098126D01*
X149230881Y-118098126D01*
X149357046Y-118273000D01*
X150473000Y-118273000D01*
X150473000Y-117265000D01*
X150198000Y-117265000D01*
X149773322Y-117399998D01*
X149432632Y-117687237D01*
X149230881Y-118098126D01*
X142711838Y-118098126D01*
X140781856Y-116168144D01*
X140315232Y-115701520D01*
X139979453Y-115477161D01*
X139583376Y-115398375D01*
X139187299Y-115477161D01*
X138851520Y-115701520D01*
X138742287Y-115865000D01*
X133445624Y-115865000D01*
X139431853Y-109878770D01*
X139431856Y-109878768D01*
X139656215Y-109542989D01*
X139661782Y-109515000D01*
X139735001Y-109146912D01*
X139735000Y-109146907D01*
X139735000Y-107950000D01*
X139656215Y-107553923D01*
X139431856Y-107218144D01*
X139096077Y-106993785D01*
X138700000Y-106915000D01*
X138303923Y-106993785D01*
X137968144Y-107218144D01*
X137743785Y-107553923D01*
X137665000Y-107950000D01*
X137665000Y-108718201D01*
X131865789Y-114517411D01*
X130947594Y-114517411D01*
X130947589Y-114517410D01*
X130551512Y-114596196D01*
X130301181Y-114763461D01*
X130204659Y-114666770D01*
X129845370Y-114517580D01*
X129456337Y-114517241D01*
X129096788Y-114665803D01*
X128821460Y-114940651D01*
X128672270Y-115299940D01*
X128672146Y-115442696D01*
X128649842Y-115465000D01*
X128460000Y-115465000D01*
X128460000Y-114885750D01*
X128301250Y-114727000D01*
X127327000Y-114727000D01*
X127327000Y-114747000D01*
X127073000Y-114747000D01*
X127073000Y-114727000D01*
X127053000Y-114727000D01*
X127053000Y-114473000D01*
X127073000Y-114473000D01*
X127073000Y-114453000D01*
X127327000Y-114453000D01*
X127327000Y-114473000D01*
X128301250Y-114473000D01*
X128460000Y-114314250D01*
X128460000Y-113723691D01*
X128363327Y-113490302D01*
X128184699Y-113311673D01*
X128120305Y-113285000D01*
X132657554Y-113285000D01*
X132957961Y-113225245D01*
X133212633Y-113055079D01*
X135055077Y-111212634D01*
X135055080Y-111212632D01*
X135225246Y-110957959D01*
X135233791Y-110915000D01*
X135285002Y-110657553D01*
X135285001Y-110657548D01*
X135285001Y-110335031D01*
X135524285Y-110335240D01*
X136033515Y-110124831D01*
X136423461Y-109735564D01*
X136634759Y-109226702D01*
X136635240Y-108675715D01*
X136424831Y-108166485D01*
X136035564Y-107776539D01*
X135526702Y-107565241D01*
X134975715Y-107564760D01*
X134466485Y-107775169D01*
X134076539Y-108164436D01*
X133865241Y-108673298D01*
X133864925Y-109034922D01*
X133576702Y-108915241D01*
X133025715Y-108914760D01*
X132584916Y-109096894D01*
X132585240Y-108725715D01*
X132374831Y-108216485D01*
X131985564Y-107826539D01*
X131476702Y-107615241D01*
X130925715Y-107614760D01*
X130416485Y-107825169D01*
X130026539Y-108214436D01*
X129815241Y-108723298D01*
X129814760Y-109274285D01*
X129814993Y-109274849D01*
X129466656Y-109623186D01*
X129321645Y-109273076D01*
X128931358Y-108844817D01*
X128788447Y-108777702D01*
X129129147Y-108550054D01*
X129451054Y-108068285D01*
X129564093Y-107500000D01*
X129451054Y-106931715D01*
X129129147Y-106449946D01*
X129087548Y-106422150D01*
X129135317Y-106413162D01*
X129351441Y-106274090D01*
X129496431Y-106061890D01*
X129547440Y-105810000D01*
X129547440Y-104110000D01*
X129503162Y-103874683D01*
X129364090Y-103658559D01*
X129151890Y-103513569D01*
X128900000Y-103462560D01*
X127360000Y-103462560D01*
X127360000Y-102355683D01*
X127360001Y-102355678D01*
X127281215Y-101959601D01*
X127056856Y-101623822D01*
X126601178Y-101168144D01*
X126265399Y-100943785D01*
X125869322Y-100864999D01*
X125869317Y-100865000D01*
X113153094Y-100865000D01*
X113153089Y-100864999D01*
X112757012Y-100943785D01*
X112421233Y-101168144D01*
X112421231Y-101168147D01*
X110868144Y-102721233D01*
X110643785Y-103057012D01*
X110564999Y-103453089D01*
X110565000Y-103453094D01*
X110565000Y-104637603D01*
X110200000Y-104565000D01*
X109803923Y-104643785D01*
X109468144Y-104868144D01*
X109243785Y-105203923D01*
X109165000Y-105600000D01*
X109165000Y-106871289D01*
X107368078Y-108668210D01*
X107329147Y-108609946D01*
X106999974Y-108390000D01*
X107329147Y-108170054D01*
X107651054Y-107688285D01*
X107764093Y-107120000D01*
X107651054Y-106551715D01*
X107329147Y-106069946D01*
X107287548Y-106042150D01*
X107335317Y-106033162D01*
X107551441Y-105894090D01*
X107696431Y-105681890D01*
X107747440Y-105430000D01*
X107747440Y-103730000D01*
X107703162Y-103494683D01*
X107564090Y-103278559D01*
X107351890Y-103133569D01*
X107100000Y-103082560D01*
X105400000Y-103082560D01*
X105164683Y-103126838D01*
X104948559Y-103265910D01*
X104803569Y-103478110D01*
X104752560Y-103730000D01*
X104752560Y-105430000D01*
X104796838Y-105665317D01*
X104935910Y-105881441D01*
X105148110Y-106026431D01*
X105215541Y-106040086D01*
X105170853Y-106069946D01*
X104848946Y-106551715D01*
X104735907Y-107120000D01*
X104848946Y-107688285D01*
X105170853Y-108170054D01*
X105500026Y-108390000D01*
X105170853Y-108609946D01*
X104848946Y-109091715D01*
X104735907Y-109660000D01*
X104848946Y-110228285D01*
X105170853Y-110710054D01*
X105511553Y-110937702D01*
X105368642Y-111004817D01*
X104978355Y-111433076D01*
X104808524Y-111843110D01*
X104929845Y-112073000D01*
X106123000Y-112073000D01*
X106123000Y-112053000D01*
X106377000Y-112053000D01*
X106377000Y-112073000D01*
X106397000Y-112073000D01*
X106397000Y-112327000D01*
X106377000Y-112327000D01*
X106377000Y-112347000D01*
X106123000Y-112347000D01*
X106123000Y-112327000D01*
X104929845Y-112327000D01*
X104808524Y-112556890D01*
X104812878Y-112567401D01*
X104298282Y-112567401D01*
X104298277Y-112567400D01*
X103902200Y-112646186D01*
X103566421Y-112870545D01*
X103566419Y-112870548D01*
X101368144Y-115068822D01*
X101143785Y-115404601D01*
X101064999Y-115800678D01*
X100710000Y-115800678D01*
X100710000Y-100710000D01*
X151290000Y-100710000D01*
X151290000Y-117356550D01*
G36*
X109543785Y-140173363D02*
X109768144Y-140509142D01*
X110050637Y-140697897D01*
X110050637Y-141175363D01*
X110094915Y-141410680D01*
X110097928Y-141415363D01*
X110071768Y-141415363D01*
X109838379Y-141512036D01*
X109659750Y-141690664D01*
X109563077Y-141924053D01*
X109563077Y-142489613D01*
X109721827Y-142648363D01*
X110200637Y-142648363D01*
X110200637Y-142902363D01*
X109721827Y-142902363D01*
X109563077Y-143061113D01*
X109563077Y-143626673D01*
X109659750Y-143860062D01*
X109838379Y-144038690D01*
X110071768Y-144135363D01*
X110151827Y-144135363D01*
X110296075Y-143991115D01*
X110296075Y-144135363D01*
X110375437Y-144135363D01*
X110448694Y-144245000D01*
X110491322Y-144308798D01*
X110625722Y-144443198D01*
X110759792Y-144532780D01*
X109832643Y-145459929D01*
X109651638Y-145730822D01*
X109588077Y-146050363D01*
X109588077Y-146265479D01*
X109550637Y-146450363D01*
X109550637Y-146514211D01*
X109535000Y-146498574D01*
X109535000Y-140129198D01*
X109543785Y-140173363D01*
X109543785Y-140173363D01*
G37*
X109543785Y-140173363D02*
X109768144Y-140509142D01*
X110050637Y-140697897D01*
X110050637Y-141175363D01*
X110094915Y-141410680D01*
X110097928Y-141415363D01*
X110071768Y-141415363D01*
X109838379Y-141512036D01*
X109659750Y-141690664D01*
X109563077Y-141924053D01*
X109563077Y-142489613D01*
X109721827Y-142648363D01*
X110200637Y-142648363D01*
X110200637Y-142902363D01*
X109721827Y-142902363D01*
X109563077Y-143061113D01*
X109563077Y-143626673D01*
X109659750Y-143860062D01*
X109838379Y-144038690D01*
X110071768Y-144135363D01*
X110151827Y-144135363D01*
X110296075Y-143991115D01*
X110296075Y-144135363D01*
X110375437Y-144135363D01*
X110448694Y-144245000D01*
X110491322Y-144308798D01*
X110625722Y-144443198D01*
X110759792Y-144532780D01*
X109832643Y-145459929D01*
X109651638Y-145730822D01*
X109588077Y-146050363D01*
X109588077Y-146265479D01*
X109550637Y-146450363D01*
X109550637Y-146514211D01*
X109535000Y-146498574D01*
X109535000Y-140129198D01*
X109543785Y-140173363D01*
G36*
X126771400Y-133286500D02*
X126791400Y-133286500D01*
X126791400Y-133540500D01*
X126771400Y-133540500D01*
X126771400Y-134734319D01*
X127001292Y-134854986D01*
X127525758Y-134608683D01*
X127665000Y-134455894D01*
X127665000Y-136951877D01*
X127621460Y-136995341D01*
X127472270Y-137354630D01*
X127472049Y-137608337D01*
X126581856Y-136718144D01*
X126246077Y-136493785D01*
X126035000Y-136451798D01*
X126035000Y-134736402D01*
X126287508Y-134854986D01*
X126517400Y-134734319D01*
X126517400Y-133540500D01*
X126497400Y-133540500D01*
X126497400Y-133286500D01*
X126517400Y-133286500D01*
X126517400Y-133266500D01*
X126771400Y-133266500D01*
X126771400Y-133286500D01*
X126771400Y-133286500D01*
G37*
X126771400Y-133286500D02*
X126791400Y-133286500D01*
X126791400Y-133540500D01*
X126771400Y-133540500D01*
X126771400Y-134734319D01*
X127001292Y-134854986D01*
X127525758Y-134608683D01*
X127665000Y-134455894D01*
X127665000Y-136951877D01*
X127621460Y-136995341D01*
X127472270Y-137354630D01*
X127472049Y-137608337D01*
X126581856Y-136718144D01*
X126246077Y-136493785D01*
X126035000Y-136451798D01*
X126035000Y-134736402D01*
X126287508Y-134854986D01*
X126517400Y-134734319D01*
X126517400Y-133540500D01*
X126497400Y-133540500D01*
X126497400Y-133286500D01*
X126517400Y-133286500D01*
X126517400Y-133266500D01*
X126771400Y-133266500D01*
X126771400Y-133286500D01*
G36*
X129122755Y-121775764D02*
X129511788Y-121776103D01*
X129590000Y-121743787D01*
X129590000Y-122014250D01*
X129748750Y-122173000D01*
X130473000Y-122173000D01*
X130473000Y-122153000D01*
X130727000Y-122153000D01*
X130727000Y-122173000D01*
X130747000Y-122173000D01*
X130747000Y-122427000D01*
X130727000Y-122427000D01*
X130727000Y-122447000D01*
X130473000Y-122447000D01*
X130473000Y-122427000D01*
X129748750Y-122427000D01*
X129590000Y-122585750D01*
X129590000Y-123026309D01*
X129686673Y-123259698D01*
X129865301Y-123438327D01*
X130098690Y-123535000D01*
X130211486Y-123535000D01*
X129992513Y-123753973D01*
X129822347Y-124008645D01*
X129786277Y-124189979D01*
X129726702Y-124165241D01*
X129175715Y-124164760D01*
X128989811Y-124241574D01*
X128989811Y-121720561D01*
X129122755Y-121775764D01*
X129122755Y-121775764D01*
G37*
X129122755Y-121775764D02*
X129511788Y-121776103D01*
X129590000Y-121743787D01*
X129590000Y-122014250D01*
X129748750Y-122173000D01*
X130473000Y-122173000D01*
X130473000Y-122153000D01*
X130727000Y-122153000D01*
X130727000Y-122173000D01*
X130747000Y-122173000D01*
X130747000Y-122427000D01*
X130727000Y-122427000D01*
X130727000Y-122447000D01*
X130473000Y-122447000D01*
X130473000Y-122427000D01*
X129748750Y-122427000D01*
X129590000Y-122585750D01*
X129590000Y-123026309D01*
X129686673Y-123259698D01*
X129865301Y-123438327D01*
X130098690Y-123535000D01*
X130211486Y-123535000D01*
X129992513Y-123753973D01*
X129822347Y-124008645D01*
X129786277Y-124189979D01*
X129726702Y-124165241D01*
X129175715Y-124164760D01*
X128989811Y-124241574D01*
X128989811Y-121720561D01*
X129122755Y-121775764D01*
G36*
X137125245Y-118111043D02*
X137125243Y-118111046D01*
X135826114Y-119410174D01*
X135601755Y-119745953D01*
X135522969Y-120142030D01*
X135522970Y-120142035D01*
X135522970Y-123143163D01*
X135481664Y-123043194D01*
X135206816Y-122767866D01*
X134847527Y-122618676D01*
X134828818Y-122618660D01*
X134597440Y-122387282D01*
X134597440Y-121800000D01*
X134553162Y-121564683D01*
X134414090Y-121348559D01*
X134344289Y-121300866D01*
X134401441Y-121264090D01*
X134546431Y-121051890D01*
X134597440Y-120800000D01*
X134597440Y-119600000D01*
X134553162Y-119364683D01*
X134414090Y-119148559D01*
X134201890Y-119003569D01*
X133950000Y-118952560D01*
X133462718Y-118952560D01*
X133078015Y-118567857D01*
X133078069Y-118506337D01*
X132929507Y-118146788D01*
X132718088Y-117935000D01*
X137301289Y-117935000D01*
X137125245Y-118111043D01*
X137125245Y-118111043D01*
G37*
X137125245Y-118111043D02*
X137125243Y-118111046D01*
X135826114Y-119410174D01*
X135601755Y-119745953D01*
X135522969Y-120142030D01*
X135522970Y-120142035D01*
X135522970Y-123143163D01*
X135481664Y-123043194D01*
X135206816Y-122767866D01*
X134847527Y-122618676D01*
X134828818Y-122618660D01*
X134597440Y-122387282D01*
X134597440Y-121800000D01*
X134553162Y-121564683D01*
X134414090Y-121348559D01*
X134344289Y-121300866D01*
X134401441Y-121264090D01*
X134546431Y-121051890D01*
X134597440Y-120800000D01*
X134597440Y-119600000D01*
X134553162Y-119364683D01*
X134414090Y-119148559D01*
X134201890Y-119003569D01*
X133950000Y-118952560D01*
X133462718Y-118952560D01*
X133078015Y-118567857D01*
X133078069Y-118506337D01*
X132929507Y-118146788D01*
X132718088Y-117935000D01*
X137301289Y-117935000D01*
X137125245Y-118111043D01*
G36*
X125727000Y-122773000D02*
X125747000Y-122773000D01*
X125747000Y-123027000D01*
X125727000Y-123027000D01*
X125727000Y-123047000D01*
X125473000Y-123047000D01*
X125473000Y-123027000D01*
X125453000Y-123027000D01*
X125453000Y-122773000D01*
X125473000Y-122773000D01*
X125473000Y-122753000D01*
X125727000Y-122753000D01*
X125727000Y-122773000D01*
X125727000Y-122773000D01*
G37*
X125727000Y-122773000D02*
X125747000Y-122773000D01*
X125747000Y-123027000D01*
X125727000Y-123027000D01*
X125727000Y-123047000D01*
X125473000Y-123047000D01*
X125473000Y-123027000D01*
X125453000Y-123027000D01*
X125453000Y-122773000D01*
X125473000Y-122773000D01*
X125473000Y-122753000D01*
X125727000Y-122753000D01*
X125727000Y-122773000D01*
G36*
X132147000Y-121892842D02*
X132139842Y-121900000D01*
X132127000Y-121900000D01*
X132127000Y-121912842D01*
X132092842Y-121947000D01*
X131873000Y-121947000D01*
X131873000Y-121900000D01*
X131853000Y-121900000D01*
X131853000Y-121747440D01*
X132147000Y-121747440D01*
X132147000Y-121892842D01*
X132147000Y-121892842D01*
G37*
X132147000Y-121892842D02*
X132139842Y-121900000D01*
X132127000Y-121900000D01*
X132127000Y-121912842D01*
X132092842Y-121947000D01*
X131873000Y-121947000D01*
X131873000Y-121900000D01*
X131853000Y-121900000D01*
X131853000Y-121747440D01*
X132147000Y-121747440D01*
X132147000Y-121892842D01*
G36*
X123185750Y-111535000D02*
X123401310Y-111535000D01*
X123634699Y-111438327D01*
X123640000Y-111433026D01*
X123640000Y-111526309D01*
X123736673Y-111759698D01*
X123915301Y-111938327D01*
X124148690Y-112035000D01*
X124614250Y-112035000D01*
X124772998Y-111876252D01*
X124772998Y-112035000D01*
X124832256Y-112035000D01*
X124571460Y-112295341D01*
X124422270Y-112654630D01*
X124421931Y-113043663D01*
X124570493Y-113403212D01*
X124845341Y-113678540D01*
X125204630Y-113827730D01*
X125593663Y-113828069D01*
X125705623Y-113781808D01*
X125940000Y-113879130D01*
X125940000Y-114172447D01*
X125801310Y-114115000D01*
X125585750Y-114115000D01*
X125427000Y-114273750D01*
X125427000Y-115223000D01*
X125447000Y-115223000D01*
X125447000Y-115477000D01*
X125427000Y-115477000D01*
X125427000Y-115497000D01*
X125173000Y-115497000D01*
X125173000Y-115477000D01*
X125153000Y-115477000D01*
X125153000Y-115223000D01*
X125173000Y-115223000D01*
X125173000Y-114273750D01*
X125014250Y-114115000D01*
X124798690Y-114115000D01*
X124565301Y-114211673D01*
X124386673Y-114390302D01*
X124290000Y-114623691D01*
X124290000Y-114744905D01*
X124244090Y-114673559D01*
X124031890Y-114528569D01*
X123780000Y-114477560D01*
X122220000Y-114477560D01*
X121984683Y-114521838D01*
X121826748Y-114623467D01*
X121782003Y-114632367D01*
X121597089Y-114755922D01*
X121585349Y-114737677D01*
X121738327Y-114584699D01*
X121835000Y-114351310D01*
X121835000Y-113885750D01*
X121676250Y-113727000D01*
X120577000Y-113727000D01*
X120577000Y-113747000D01*
X120323000Y-113747000D01*
X120323000Y-113727000D01*
X120303000Y-113727000D01*
X120303000Y-113473000D01*
X120323000Y-113473000D01*
X120323000Y-113453000D01*
X120577000Y-113453000D01*
X120577000Y-113473000D01*
X121676250Y-113473000D01*
X121835000Y-113314250D01*
X121835000Y-112848690D01*
X121738327Y-112615301D01*
X121559698Y-112436673D01*
X121455403Y-112393473D01*
X121523969Y-112227940D01*
X121536429Y-112246587D01*
X122221985Y-112932143D01*
X122221931Y-112993663D01*
X122370493Y-113353212D01*
X122645341Y-113628540D01*
X123004630Y-113777730D01*
X123393663Y-113778069D01*
X123753212Y-113629507D01*
X124028540Y-113354659D01*
X124177730Y-112995370D01*
X124178069Y-112606337D01*
X124029507Y-112246788D01*
X123754659Y-111971460D01*
X123395370Y-111822270D01*
X123332373Y-111822215D01*
X123027002Y-111516844D01*
X123027002Y-111493521D01*
X123061409Y-111410659D01*
X123185750Y-111535000D01*
X123185750Y-111535000D01*
G37*
X123185750Y-111535000D02*
X123401310Y-111535000D01*
X123634699Y-111438327D01*
X123640000Y-111433026D01*
X123640000Y-111526309D01*
X123736673Y-111759698D01*
X123915301Y-111938327D01*
X124148690Y-112035000D01*
X124614250Y-112035000D01*
X124772998Y-111876252D01*
X124772998Y-112035000D01*
X124832256Y-112035000D01*
X124571460Y-112295341D01*
X124422270Y-112654630D01*
X124421931Y-113043663D01*
X124570493Y-113403212D01*
X124845341Y-113678540D01*
X125204630Y-113827730D01*
X125593663Y-113828069D01*
X125705623Y-113781808D01*
X125940000Y-113879130D01*
X125940000Y-114172447D01*
X125801310Y-114115000D01*
X125585750Y-114115000D01*
X125427000Y-114273750D01*
X125427000Y-115223000D01*
X125447000Y-115223000D01*
X125447000Y-115477000D01*
X125427000Y-115477000D01*
X125427000Y-115497000D01*
X125173000Y-115497000D01*
X125173000Y-115477000D01*
X125153000Y-115477000D01*
X125153000Y-115223000D01*
X125173000Y-115223000D01*
X125173000Y-114273750D01*
X125014250Y-114115000D01*
X124798690Y-114115000D01*
X124565301Y-114211673D01*
X124386673Y-114390302D01*
X124290000Y-114623691D01*
X124290000Y-114744905D01*
X124244090Y-114673559D01*
X124031890Y-114528569D01*
X123780000Y-114477560D01*
X122220000Y-114477560D01*
X121984683Y-114521838D01*
X121826748Y-114623467D01*
X121782003Y-114632367D01*
X121597089Y-114755922D01*
X121585349Y-114737677D01*
X121738327Y-114584699D01*
X121835000Y-114351310D01*
X121835000Y-113885750D01*
X121676250Y-113727000D01*
X120577000Y-113727000D01*
X120577000Y-113747000D01*
X120323000Y-113747000D01*
X120323000Y-113727000D01*
X120303000Y-113727000D01*
X120303000Y-113473000D01*
X120323000Y-113473000D01*
X120323000Y-113453000D01*
X120577000Y-113453000D01*
X120577000Y-113473000D01*
X121676250Y-113473000D01*
X121835000Y-113314250D01*
X121835000Y-112848690D01*
X121738327Y-112615301D01*
X121559698Y-112436673D01*
X121455403Y-112393473D01*
X121523969Y-112227940D01*
X121536429Y-112246587D01*
X122221985Y-112932143D01*
X122221931Y-112993663D01*
X122370493Y-113353212D01*
X122645341Y-113628540D01*
X123004630Y-113777730D01*
X123393663Y-113778069D01*
X123753212Y-113629507D01*
X124028540Y-113354659D01*
X124177730Y-112995370D01*
X124178069Y-112606337D01*
X124029507Y-112246788D01*
X123754659Y-111971460D01*
X123395370Y-111822270D01*
X123332373Y-111822215D01*
X123027002Y-111516844D01*
X123027002Y-111493521D01*
X123061409Y-111410659D01*
X123185750Y-111535000D01*
G36*
X114352560Y-103925000D02*
X114396838Y-104160317D01*
X114535910Y-104376441D01*
X114715000Y-104498808D01*
X114715000Y-104499995D01*
X114714999Y-104500000D01*
X114793785Y-104896077D01*
X114902560Y-105058871D01*
X114902560Y-105265000D01*
X114698690Y-105265000D01*
X114655793Y-105282768D01*
X114484699Y-105111673D01*
X114251310Y-105015000D01*
X113785750Y-105015000D01*
X113627000Y-105173750D01*
X113627000Y-106273000D01*
X114248750Y-106273000D01*
X114348750Y-106373000D01*
X115073000Y-106373000D01*
X115073000Y-106353000D01*
X115327000Y-106353000D01*
X115327000Y-106373000D01*
X116051250Y-106373000D01*
X116210000Y-106214250D01*
X116210000Y-106070158D01*
X116228017Y-106088175D01*
X116227862Y-106265609D01*
X116376424Y-106625158D01*
X116651272Y-106900486D01*
X117010561Y-107049676D01*
X117399594Y-107050015D01*
X117759143Y-106901453D01*
X118034471Y-106626605D01*
X118183661Y-106267316D01*
X118184000Y-105878283D01*
X118177002Y-105861346D01*
X118177002Y-105751252D01*
X118335750Y-105910000D01*
X118776309Y-105910000D01*
X119009698Y-105813327D01*
X119188327Y-105634699D01*
X119285000Y-105401310D01*
X119285000Y-105185750D01*
X119465000Y-105185750D01*
X119465000Y-105401310D01*
X119561673Y-105634699D01*
X119740302Y-105813327D01*
X119973691Y-105910000D01*
X120414250Y-105910000D01*
X120573000Y-105751250D01*
X120573000Y-105027000D01*
X119623750Y-105027000D01*
X119465000Y-105185750D01*
X119285000Y-105185750D01*
X119126250Y-105027000D01*
X118177000Y-105027000D01*
X118177000Y-105047000D01*
X117923000Y-105047000D01*
X117923000Y-105027000D01*
X117903000Y-105027000D01*
X117903000Y-104773000D01*
X117923000Y-104773000D01*
X117923000Y-104753000D01*
X118177000Y-104753000D01*
X118177000Y-104773000D01*
X119126250Y-104773000D01*
X119285000Y-104614250D01*
X119285000Y-104494268D01*
X119325000Y-104477699D01*
X119465000Y-104535689D01*
X119465000Y-104614250D01*
X119623750Y-104773000D01*
X120573000Y-104773000D01*
X120573000Y-104753000D01*
X120827000Y-104753000D01*
X120827000Y-104773000D01*
X120847000Y-104773000D01*
X120847000Y-105027000D01*
X120827000Y-105027000D01*
X120827000Y-105751250D01*
X120985750Y-105910000D01*
X121342667Y-105910000D01*
X121342458Y-106150112D01*
X121491020Y-106509661D01*
X121765868Y-106784989D01*
X122125157Y-106934179D01*
X122514190Y-106934518D01*
X122873739Y-106785956D01*
X123149067Y-106511108D01*
X123251647Y-106264068D01*
X123380599Y-106071077D01*
X123417634Y-106015650D01*
X123446401Y-105871030D01*
X123627560Y-105754457D01*
X123627560Y-106550000D01*
X123671838Y-106785317D01*
X123795329Y-106977227D01*
X123678569Y-107148110D01*
X123650267Y-107287869D01*
X123526890Y-107203569D01*
X123275000Y-107152560D01*
X122525000Y-107152560D01*
X122289683Y-107196838D01*
X122073559Y-107335910D01*
X121928569Y-107548110D01*
X121926953Y-107556088D01*
X121892090Y-107570493D01*
X121616762Y-107845341D01*
X121467572Y-108204630D01*
X121467233Y-108593663D01*
X121615795Y-108953212D01*
X121890643Y-109228540D01*
X121927261Y-109243745D01*
X121988329Y-109338646D01*
X121986673Y-109340302D01*
X121890000Y-109573691D01*
X121890000Y-110014250D01*
X122048748Y-110172998D01*
X121890000Y-110172998D01*
X121890000Y-110221607D01*
X121538296Y-110366928D01*
X121262968Y-110641776D01*
X121211151Y-110766564D01*
X121026309Y-110690000D01*
X120585750Y-110690000D01*
X120427000Y-110848750D01*
X120427000Y-111573000D01*
X120447000Y-111573000D01*
X120447000Y-111827000D01*
X120427000Y-111827000D01*
X120427000Y-111847000D01*
X120173000Y-111847000D01*
X120173000Y-111827000D01*
X120153000Y-111827000D01*
X120153000Y-111573000D01*
X120173000Y-111573000D01*
X120173000Y-110848750D01*
X120014250Y-110690000D01*
X119573691Y-110690000D01*
X119340302Y-110786673D01*
X119338932Y-110788043D01*
X119251890Y-110728569D01*
X119000000Y-110677560D01*
X118463143Y-110677560D01*
X118400000Y-110665000D01*
X118336857Y-110677560D01*
X118074945Y-110677560D01*
X118047593Y-110611363D01*
X117929435Y-110492998D01*
X118071611Y-110351070D01*
X118220801Y-109991781D01*
X118221140Y-109602748D01*
X118072578Y-109243199D01*
X117797730Y-108967871D01*
X117438441Y-108818681D01*
X117049408Y-108818342D01*
X116689859Y-108966904D01*
X116645274Y-109011411D01*
X116220129Y-109011411D01*
X116222440Y-109000000D01*
X116222440Y-108463147D01*
X116235001Y-108400000D01*
X116222440Y-108336853D01*
X116222440Y-107800000D01*
X116178162Y-107564683D01*
X116111671Y-107461354D01*
X116113327Y-107459698D01*
X116210000Y-107226309D01*
X116210000Y-106785750D01*
X116051250Y-106627000D01*
X115327000Y-106627000D01*
X115327000Y-106647000D01*
X115073000Y-106647000D01*
X115073000Y-106627000D01*
X114701250Y-106627000D01*
X114601250Y-106527000D01*
X113627000Y-106527000D01*
X113627000Y-106547000D01*
X113373000Y-106547000D01*
X113373000Y-106527000D01*
X113353000Y-106527000D01*
X113353000Y-106273000D01*
X113373000Y-106273000D01*
X113373000Y-105173750D01*
X113214250Y-105015000D01*
X112748690Y-105015000D01*
X112635000Y-105062092D01*
X112635000Y-103881801D01*
X113581800Y-102935000D01*
X114352560Y-102935000D01*
X114352560Y-103925000D01*
X114352560Y-103925000D01*
G37*
X114352560Y-103925000D02*
X114396838Y-104160317D01*
X114535910Y-104376441D01*
X114715000Y-104498808D01*
X114715000Y-104499995D01*
X114714999Y-104500000D01*
X114793785Y-104896077D01*
X114902560Y-105058871D01*
X114902560Y-105265000D01*
X114698690Y-105265000D01*
X114655793Y-105282768D01*
X114484699Y-105111673D01*
X114251310Y-105015000D01*
X113785750Y-105015000D01*
X113627000Y-105173750D01*
X113627000Y-106273000D01*
X114248750Y-106273000D01*
X114348750Y-106373000D01*
X115073000Y-106373000D01*
X115073000Y-106353000D01*
X115327000Y-106353000D01*
X115327000Y-106373000D01*
X116051250Y-106373000D01*
X116210000Y-106214250D01*
X116210000Y-106070158D01*
X116228017Y-106088175D01*
X116227862Y-106265609D01*
X116376424Y-106625158D01*
X116651272Y-106900486D01*
X117010561Y-107049676D01*
X117399594Y-107050015D01*
X117759143Y-106901453D01*
X118034471Y-106626605D01*
X118183661Y-106267316D01*
X118184000Y-105878283D01*
X118177002Y-105861346D01*
X118177002Y-105751252D01*
X118335750Y-105910000D01*
X118776309Y-105910000D01*
X119009698Y-105813327D01*
X119188327Y-105634699D01*
X119285000Y-105401310D01*
X119285000Y-105185750D01*
X119465000Y-105185750D01*
X119465000Y-105401310D01*
X119561673Y-105634699D01*
X119740302Y-105813327D01*
X119973691Y-105910000D01*
X120414250Y-105910000D01*
X120573000Y-105751250D01*
X120573000Y-105027000D01*
X119623750Y-105027000D01*
X119465000Y-105185750D01*
X119285000Y-105185750D01*
X119126250Y-105027000D01*
X118177000Y-105027000D01*
X118177000Y-105047000D01*
X117923000Y-105047000D01*
X117923000Y-105027000D01*
X117903000Y-105027000D01*
X117903000Y-104773000D01*
X117923000Y-104773000D01*
X117923000Y-104753000D01*
X118177000Y-104753000D01*
X118177000Y-104773000D01*
X119126250Y-104773000D01*
X119285000Y-104614250D01*
X119285000Y-104494268D01*
X119325000Y-104477699D01*
X119465000Y-104535689D01*
X119465000Y-104614250D01*
X119623750Y-104773000D01*
X120573000Y-104773000D01*
X120573000Y-104753000D01*
X120827000Y-104753000D01*
X120827000Y-104773000D01*
X120847000Y-104773000D01*
X120847000Y-105027000D01*
X120827000Y-105027000D01*
X120827000Y-105751250D01*
X120985750Y-105910000D01*
X121342667Y-105910000D01*
X121342458Y-106150112D01*
X121491020Y-106509661D01*
X121765868Y-106784989D01*
X122125157Y-106934179D01*
X122514190Y-106934518D01*
X122873739Y-106785956D01*
X123149067Y-106511108D01*
X123251647Y-106264068D01*
X123380599Y-106071077D01*
X123417634Y-106015650D01*
X123446401Y-105871030D01*
X123627560Y-105754457D01*
X123627560Y-106550000D01*
X123671838Y-106785317D01*
X123795329Y-106977227D01*
X123678569Y-107148110D01*
X123650267Y-107287869D01*
X123526890Y-107203569D01*
X123275000Y-107152560D01*
X122525000Y-107152560D01*
X122289683Y-107196838D01*
X122073559Y-107335910D01*
X121928569Y-107548110D01*
X121926953Y-107556088D01*
X121892090Y-107570493D01*
X121616762Y-107845341D01*
X121467572Y-108204630D01*
X121467233Y-108593663D01*
X121615795Y-108953212D01*
X121890643Y-109228540D01*
X121927261Y-109243745D01*
X121988329Y-109338646D01*
X121986673Y-109340302D01*
X121890000Y-109573691D01*
X121890000Y-110014250D01*
X122048748Y-110172998D01*
X121890000Y-110172998D01*
X121890000Y-110221607D01*
X121538296Y-110366928D01*
X121262968Y-110641776D01*
X121211151Y-110766564D01*
X121026309Y-110690000D01*
X120585750Y-110690000D01*
X120427000Y-110848750D01*
X120427000Y-111573000D01*
X120447000Y-111573000D01*
X120447000Y-111827000D01*
X120427000Y-111827000D01*
X120427000Y-111847000D01*
X120173000Y-111847000D01*
X120173000Y-111827000D01*
X120153000Y-111827000D01*
X120153000Y-111573000D01*
X120173000Y-111573000D01*
X120173000Y-110848750D01*
X120014250Y-110690000D01*
X119573691Y-110690000D01*
X119340302Y-110786673D01*
X119338932Y-110788043D01*
X119251890Y-110728569D01*
X119000000Y-110677560D01*
X118463143Y-110677560D01*
X118400000Y-110665000D01*
X118336857Y-110677560D01*
X118074945Y-110677560D01*
X118047593Y-110611363D01*
X117929435Y-110492998D01*
X118071611Y-110351070D01*
X118220801Y-109991781D01*
X118221140Y-109602748D01*
X118072578Y-109243199D01*
X117797730Y-108967871D01*
X117438441Y-108818681D01*
X117049408Y-108818342D01*
X116689859Y-108966904D01*
X116645274Y-109011411D01*
X116220129Y-109011411D01*
X116222440Y-109000000D01*
X116222440Y-108463147D01*
X116235001Y-108400000D01*
X116222440Y-108336853D01*
X116222440Y-107800000D01*
X116178162Y-107564683D01*
X116111671Y-107461354D01*
X116113327Y-107459698D01*
X116210000Y-107226309D01*
X116210000Y-106785750D01*
X116051250Y-106627000D01*
X115327000Y-106627000D01*
X115327000Y-106647000D01*
X115073000Y-106647000D01*
X115073000Y-106627000D01*
X114701250Y-106627000D01*
X114601250Y-106527000D01*
X113627000Y-106527000D01*
X113627000Y-106547000D01*
X113373000Y-106547000D01*
X113373000Y-106527000D01*
X113353000Y-106527000D01*
X113353000Y-106273000D01*
X113373000Y-106273000D01*
X113373000Y-105173750D01*
X113214250Y-105015000D01*
X112748690Y-105015000D01*
X112635000Y-105062092D01*
X112635000Y-103881801D01*
X113581800Y-102935000D01*
X114352560Y-102935000D01*
X114352560Y-103925000D01*
G36*
X125027000Y-110523000D02*
X125047000Y-110523000D01*
X125047000Y-110777000D01*
X125027000Y-110777000D01*
X125027000Y-110797000D01*
X124773000Y-110797000D01*
X124773000Y-110777000D01*
X124753000Y-110777000D01*
X124753000Y-110523000D01*
X124773000Y-110523000D01*
X124773000Y-110503000D01*
X125027000Y-110503000D01*
X125027000Y-110523000D01*
X125027000Y-110523000D01*
G37*
X125027000Y-110523000D02*
X125047000Y-110523000D01*
X125047000Y-110777000D01*
X125027000Y-110777000D01*
X125027000Y-110797000D01*
X124773000Y-110797000D01*
X124773000Y-110777000D01*
X124753000Y-110777000D01*
X124753000Y-110523000D01*
X124773000Y-110523000D01*
X124773000Y-110503000D01*
X125027000Y-110503000D01*
X125027000Y-110523000D01*
G36*
X126552560Y-105810000D02*
X126596838Y-106045317D01*
X126735910Y-106261441D01*
X126948110Y-106406431D01*
X127015541Y-106420086D01*
X126970853Y-106449946D01*
X126648946Y-106931715D01*
X126535907Y-107500000D01*
X126648946Y-108068285D01*
X126970853Y-108550054D01*
X127311553Y-108777702D01*
X127168642Y-108844817D01*
X126778355Y-109273076D01*
X126608524Y-109683110D01*
X126729845Y-109913000D01*
X127923000Y-109913000D01*
X127923000Y-109893000D01*
X128177000Y-109893000D01*
X128177000Y-109913000D01*
X128197000Y-109913000D01*
X128197000Y-110167000D01*
X128177000Y-110167000D01*
X128177000Y-110187000D01*
X127923000Y-110187000D01*
X127923000Y-110167000D01*
X126729845Y-110167000D01*
X126608524Y-110396890D01*
X126662368Y-110526890D01*
X126354210Y-110526621D01*
X126160000Y-110606867D01*
X126160000Y-110522998D01*
X126001252Y-110522998D01*
X126160000Y-110364250D01*
X126160000Y-109773691D01*
X126063327Y-109540302D01*
X125922090Y-109399064D01*
X125976441Y-109364090D01*
X126121431Y-109151890D01*
X126172440Y-108900000D01*
X126172440Y-107400000D01*
X126128162Y-107164683D01*
X126004671Y-106972773D01*
X126121431Y-106801890D01*
X126172440Y-106550000D01*
X126172440Y-105866272D01*
X126552560Y-105486151D01*
X126552560Y-105810000D01*
X126552560Y-105810000D01*
G37*
X126552560Y-105810000D02*
X126596838Y-106045317D01*
X126735910Y-106261441D01*
X126948110Y-106406431D01*
X127015541Y-106420086D01*
X126970853Y-106449946D01*
X126648946Y-106931715D01*
X126535907Y-107500000D01*
X126648946Y-108068285D01*
X126970853Y-108550054D01*
X127311553Y-108777702D01*
X127168642Y-108844817D01*
X126778355Y-109273076D01*
X126608524Y-109683110D01*
X126729845Y-109913000D01*
X127923000Y-109913000D01*
X127923000Y-109893000D01*
X128177000Y-109893000D01*
X128177000Y-109913000D01*
X128197000Y-109913000D01*
X128197000Y-110167000D01*
X128177000Y-110167000D01*
X128177000Y-110187000D01*
X127923000Y-110187000D01*
X127923000Y-110167000D01*
X126729845Y-110167000D01*
X126608524Y-110396890D01*
X126662368Y-110526890D01*
X126354210Y-110526621D01*
X126160000Y-110606867D01*
X126160000Y-110522998D01*
X126001252Y-110522998D01*
X126160000Y-110364250D01*
X126160000Y-109773691D01*
X126063327Y-109540302D01*
X125922090Y-109399064D01*
X125976441Y-109364090D01*
X126121431Y-109151890D01*
X126172440Y-108900000D01*
X126172440Y-107400000D01*
X126128162Y-107164683D01*
X126004671Y-106972773D01*
X126121431Y-106801890D01*
X126172440Y-106550000D01*
X126172440Y-105866272D01*
X126552560Y-105486151D01*
X126552560Y-105810000D01*
G36*
X123027000Y-110173000D02*
X123047000Y-110173000D01*
X123047000Y-110427000D01*
X123027000Y-110427000D01*
X123027000Y-110447000D01*
X122773000Y-110447000D01*
X122773000Y-110427000D01*
X122753000Y-110427000D01*
X122753000Y-110173000D01*
X122773000Y-110173000D01*
X122773000Y-110153000D01*
X123027000Y-110153000D01*
X123027000Y-110173000D01*
X123027000Y-110173000D01*
G37*
X123027000Y-110173000D02*
X123047000Y-110173000D01*
X123047000Y-110427000D01*
X123027000Y-110427000D01*
X123027000Y-110447000D01*
X122773000Y-110447000D01*
X122773000Y-110427000D01*
X122753000Y-110427000D01*
X122753000Y-110173000D01*
X122773000Y-110173000D01*
X122773000Y-110153000D01*
X123027000Y-110153000D01*
X123027000Y-110173000D01*
G36*
X125027000Y-103173000D02*
X125047000Y-103173000D01*
X125047000Y-103427000D01*
X125027000Y-103427000D01*
X125027000Y-103447000D01*
X124773000Y-103447000D01*
X124773000Y-103427000D01*
X124753000Y-103427000D01*
X124753000Y-103173000D01*
X124773000Y-103173000D01*
X124773000Y-103153000D01*
X125027000Y-103153000D01*
X125027000Y-103173000D01*
X125027000Y-103173000D01*
G37*
X125027000Y-103173000D02*
X125047000Y-103173000D01*
X125047000Y-103427000D01*
X125027000Y-103427000D01*
X125027000Y-103447000D01*
X124773000Y-103447000D01*
X124773000Y-103427000D01*
X124753000Y-103427000D01*
X124753000Y-103173000D01*
X124773000Y-103173000D01*
X124773000Y-103153000D01*
X125027000Y-103153000D01*
X125027000Y-103173000D01*
G36*
X118377000Y-103173000D02*
X120273000Y-103173000D01*
X120273000Y-103153000D01*
X120527000Y-103153000D01*
X120527000Y-103173000D01*
X120547000Y-103173000D01*
X120547000Y-103427000D01*
X120527000Y-103427000D01*
X120527000Y-103447000D01*
X120273000Y-103447000D01*
X120273000Y-103427000D01*
X118377000Y-103427000D01*
X118377000Y-103447000D01*
X118123000Y-103447000D01*
X118123000Y-103427000D01*
X118103000Y-103427000D01*
X118103000Y-103173000D01*
X118123000Y-103173000D01*
X118123000Y-103153000D01*
X118377000Y-103153000D01*
X118377000Y-103173000D01*
X118377000Y-103173000D01*
G37*
X118377000Y-103173000D02*
X120273000Y-103173000D01*
X120273000Y-103153000D01*
X120527000Y-103153000D01*
X120527000Y-103173000D01*
X120547000Y-103173000D01*
X120547000Y-103427000D01*
X120527000Y-103427000D01*
X120527000Y-103447000D01*
X120273000Y-103447000D01*
X120273000Y-103427000D01*
X118377000Y-103427000D01*
X118377000Y-103447000D01*
X118123000Y-103447000D01*
X118123000Y-103427000D01*
X118103000Y-103427000D01*
X118103000Y-103173000D01*
X118123000Y-103173000D01*
X118123000Y-103153000D01*
X118377000Y-103153000D01*
X118377000Y-103173000D01*
M02*
