M48
;DRILL file {KiCad 4.0.7} date Wed Apr 18 22:54:55 2018
;FORMAT={-:-/ absolute / inch / decimal}
FMAT,2
INCH,TZ
T1C0.013
T2C0.020
T3C0.022
T4C0.039
T5C0.055
%
G90
G05
M72
T1
X4.0551Y-4.8346
X4.2776Y-4.5945
X4.2795Y-4.7205
X4.3128Y-4.7345
X4.315Y-5.5394
X4.3386Y-4.1575
X4.3459Y-5.6567
X4.3819Y-4.7205
X4.3858Y-4.8543
X4.3881Y-4.5338
X4.4172Y-5.7451
X4.4252Y-5.5039
X4.4252Y-6.4882
X4.4528Y-4.0669
X4.4764Y-5.7441
X4.4843Y-5.5079
X4.4921Y-4.6102
X4.4961Y-4.5709
X4.5059Y-4.815
X4.5343Y-4.4156
X4.5354Y-4.2677
X4.5551Y-4.9623
X4.5551Y-5.3031
X4.5571Y-4.0669
X4.5632Y-4.8208
X4.5886Y-6.3622
X4.5886Y-6.437
X4.5906Y-5.815
X4.5945Y-4.9116
X4.5984Y-6.1417
X4.5984Y-6.1732
X4.6144Y-4.1761
X4.6149Y-4.3766
X4.6159Y-4.3227
X4.6378Y-6.2598
X4.6654Y-4.2756
X4.6654Y-4.3268
X4.6693Y-4.2244
X4.6811Y-5.185
X4.7165Y-4.2244
X4.7185Y-4.2756
X4.7205Y-4.3268
X4.7704Y-5.7256
X4.7717Y-4.2244
X4.7717Y-4.2756
X4.7717Y-4.3268
X4.8068Y-4.3778
X4.8158Y-4.1715
X4.8207Y-4.2677
X4.8386Y-4.0669
X4.8445Y-5.3524
X4.8504Y-4.4409
X4.8688Y-5.7256
X4.8937Y-6.2835
X4.9016Y-4.9488
X4.937Y-4.4429
X4.9706Y-4.4469
X4.9822Y-4.3899
X5.0571Y-5.4154
X5.0709Y-6.3543
X5.0709Y-6.5118
X5.0825Y-4.8145
X5.0913Y-4.7558
X5.1043Y-4.5471
X5.1181Y-4.5866
X5.125Y-5.252
X5.1654Y-5.5276
X5.1673Y-4.9055
X5.1811Y-5.1024
X5.2008Y-4.6732
X5.2618Y-4.6732
X5.2618Y-5.6181
X5.2776Y-4.4272
X5.3013Y-4.866
X5.3091Y-5.1575
X5.3245Y-5.6828
X5.3386Y-5.2264
X5.3495Y-5.0464
X5.3909Y-5.3968
X5.4016Y-5.6831
X5.4024Y-5.0993
X5.4151Y-5.3147
X5.4272Y-5.4724
X5.439Y-4.4114
X5.4409Y-4.6654
X5.4606Y-4.25
X5.4699Y-4.9305
X5.5039Y-5.6083
X5.5183Y-5.1049
X5.5217Y-5.6831
X5.5413Y-5.6398
X5.5492Y-4.9488
X5.5669Y-6.1299
X5.5762Y-5.3824
X5.5886Y-5.1949
X5.6371Y-5.0068
X5.6516Y-4.7402
X5.685Y-4.9154
X5.6876Y-5.2711
X5.7362Y-4.9646
X5.7697Y-5.2146
X5.7756Y-5.2598
T4
X4.0827Y-6.2937
X4.0827Y-6.3937
X4.0866Y-5.7874
X4.0866Y-5.8874
X4.1831Y-4.1173
X4.1831Y-4.2173
X4.1831Y-4.3173
X4.1831Y-4.4173
X4.3327Y-6.0417
X4.3327Y-6.0417
X4.3327Y-6.1417
X4.3327Y-6.1417
X4.6449Y-4.7386
X4.6449Y-4.8386
X4.7449Y-4.7386
X4.7449Y-4.8386
X4.8449Y-4.7386
X4.8449Y-4.8386
X4.9449Y-4.7386
X4.9449Y-4.8386
X4.986Y-5.0525
X4.986Y-5.1525
X4.986Y-5.2525
X5.0413Y-4.1323
X5.0413Y-4.2323
X5.0413Y-4.3323
X5.0785Y-5.9335
X5.0785Y-6.0335
X5.0785Y-6.1335
X5.6677Y-5.5374
X5.6677Y-5.6374
X5.6677Y-5.7374
X5.6752Y-5.9906
X5.6752Y-6.0906
X5.7677Y-5.5374
X5.7677Y-5.6374
X5.7677Y-5.7374
X5.7752Y-5.9906
X5.7752Y-6.0906
T5
X4.0906Y-5.3504
X4.189Y-4.9567
X4.2874Y-5.3504
T2
X5.9163Y-4.6614G85X5.9419Y-4.6614
G05
X5.9419Y-4.937G85X5.9163Y-4.937
G05
T3
X5.8228Y-4.6949G85X5.8228Y-4.7067
G05
X5.8228Y-4.8917G85X5.8228Y-4.9035
G05
T0
M30
