G04 #@! TF.FileFunction,Copper,L3,Inr,Plane*
%FSLAX46Y46*%
G04 Gerber Fmt 4.6, Leading zero omitted, Abs format (unit mm)*
G04 Created by KiCad (PCBNEW 4.0.7) date Wed Apr 18 22:53:30 2018*
%MOMM*%
%LPD*%
G01*
G04 APERTURE LIST*
%ADD10C,0.100000*%
%ADD11R,1.600000X1.600000*%
%ADD12C,1.600000*%
%ADD13R,1.700000X1.700000*%
%ADD14O,1.700000X1.700000*%
%ADD15C,2.200000*%
%ADD16R,3.300000X3.000000*%
%ADD17C,0.685800*%
%ADD18C,0.762000*%
%ADD19C,0.381000*%
%ADD20C,0.250000*%
%ADD21C,0.152400*%
%ADD22C,0.254000*%
G04 APERTURE END LIST*
D10*
D11*
X108950000Y-160150000D03*
D12*
X108950000Y-162150000D03*
D13*
X106250000Y-104580000D03*
D14*
X106250000Y-107120000D03*
X106250000Y-109660000D03*
X106250000Y-112200000D03*
D13*
X110050000Y-153460000D03*
D14*
X110050000Y-156000000D03*
D13*
X103700000Y-159860000D03*
D14*
X103700000Y-162400000D03*
D15*
X120550000Y-151900000D03*
X118050000Y-151900000D03*
X123050000Y-151900000D03*
D16*
X124950000Y-158900000D03*
X116150000Y-158900000D03*
D13*
X128050000Y-104960000D03*
D14*
X128050000Y-107500000D03*
X128050000Y-110040000D03*
D13*
X126644400Y-128333500D03*
D14*
X126644400Y-130873500D03*
X126644400Y-133413500D03*
D13*
X128993900Y-155790900D03*
D14*
X128993900Y-153250900D03*
X128993900Y-150710900D03*
D17*
X116600000Y-118800000D03*
X129300000Y-161400000D03*
X129950000Y-166250000D03*
X132800000Y-164600000D03*
X135950000Y-165950000D03*
X134500000Y-153150000D03*
X134700000Y-155050000D03*
X134900000Y-156950000D03*
X135300000Y-160350000D03*
X135450000Y-163500000D03*
X122050000Y-107250000D03*
X119600000Y-109900000D03*
X116750000Y-109897711D03*
X114400000Y-109950000D03*
X131300000Y-103650000D03*
X109250000Y-114150000D03*
X102300000Y-115200000D03*
X103250000Y-101300000D03*
X101600000Y-105650000D03*
X103700000Y-108850000D03*
X101600000Y-112950000D03*
X106250000Y-115950000D03*
X114600000Y-117900000D03*
X115400000Y-121900000D03*
X134950000Y-106900000D03*
X137750000Y-113700000D03*
X127300000Y-122800000D03*
X127200000Y-118500000D03*
X117150000Y-101100000D03*
X122350000Y-101900000D03*
X129050000Y-115600000D03*
X125800000Y-115150000D03*
X125800000Y-112550000D03*
X125350000Y-108800000D03*
X124650000Y-105150000D03*
X127950000Y-101650000D03*
X131950000Y-106550000D03*
X133050000Y-103250000D03*
X136700000Y-102500000D03*
X137150000Y-106500000D03*
X138750000Y-109250000D03*
X137900000Y-157050000D03*
X137650000Y-160650000D03*
X137800000Y-124650000D03*
X136400000Y-121300000D03*
X147900000Y-132000000D03*
X148350000Y-129400000D03*
X148500000Y-126500000D03*
X146850000Y-122850000D03*
X150750000Y-120850000D03*
X148200000Y-118000000D03*
X150450000Y-115250000D03*
X148900000Y-111300000D03*
X150400000Y-108950000D03*
X147900000Y-102450000D03*
X148100000Y-105750000D03*
X146550000Y-108900000D03*
X146300000Y-112350000D03*
X146050000Y-115050000D03*
X143450000Y-116700000D03*
X143600000Y-113800000D03*
X143600000Y-110650000D03*
X143600000Y-107200000D03*
X141400000Y-107250000D03*
X141400000Y-110650000D03*
X141500000Y-113650000D03*
X141550000Y-116400000D03*
X138750000Y-116250000D03*
X136500000Y-116250000D03*
X136550000Y-118450000D03*
X138750000Y-118450000D03*
X141750000Y-118350000D03*
X140250000Y-120500000D03*
X145550000Y-127900000D03*
X145450000Y-130550000D03*
X139050000Y-131400000D03*
X141450000Y-131900000D03*
X144150000Y-131950000D03*
X142650000Y-142200000D03*
X148100000Y-139400000D03*
X150000000Y-146350000D03*
X144750000Y-148500000D03*
X147100000Y-149250000D03*
X150250000Y-149800000D03*
X149050000Y-152200000D03*
X150250000Y-154150000D03*
X149450000Y-157200000D03*
X150350000Y-159950000D03*
X149150000Y-162100000D03*
X149850000Y-165250000D03*
X147050000Y-166400000D03*
X147500000Y-163750000D03*
X146400000Y-161450000D03*
X147100000Y-159250000D03*
X147000000Y-157450000D03*
X145750000Y-155100000D03*
X142800000Y-155150000D03*
X144100000Y-156450000D03*
X144700000Y-159950000D03*
X142650000Y-158950000D03*
X142650000Y-160900000D03*
X137800000Y-139900000D03*
X137300000Y-142400000D03*
X134500000Y-143400000D03*
X134500000Y-146500000D03*
X138200000Y-144950000D03*
X136800000Y-147350000D03*
X137650000Y-149600000D03*
X140300000Y-149500000D03*
X139500000Y-151600000D03*
X140450000Y-158950000D03*
X140550000Y-160950000D03*
X107199231Y-138779051D03*
X113300000Y-131400000D03*
X143306800Y-153009600D03*
X147750000Y-151900000D03*
X134099300Y-129946400D03*
X133261100Y-131203700D03*
X112464190Y-144194645D03*
X109893090Y-133900000D03*
X132337381Y-119552611D03*
X131500000Y-119350000D03*
X131622800Y-121424700D03*
X131102100Y-120878600D03*
X145300000Y-104600000D03*
X145300000Y-103700000D03*
X145300000Y-102700000D03*
X145300000Y-101700000D03*
X139700000Y-103700000D03*
X139700000Y-104600000D03*
X139700000Y-101700000D03*
X139730000Y-102700000D03*
X115600000Y-135000000D03*
X128780473Y-133456934D03*
X128744645Y-136044645D03*
X130450000Y-134250000D03*
X125645302Y-136400000D03*
X113100000Y-134900000D03*
X107550000Y-155950000D03*
X107450000Y-155250000D03*
X144300000Y-166400000D03*
X144300000Y-164400000D03*
X138800000Y-166400000D03*
X138800000Y-165400000D03*
X144300000Y-163400000D03*
X138800000Y-163400000D03*
X144320000Y-165400000D03*
X138780000Y-164300000D03*
X118650000Y-142700000D03*
X118650000Y-143750000D03*
X128600000Y-139700000D03*
X128700000Y-137600000D03*
X128700000Y-136800000D03*
X142650000Y-145950000D03*
X142600000Y-152550000D03*
X141750000Y-151950000D03*
X141100000Y-151950000D03*
X131950000Y-147200000D03*
X130750000Y-152250000D03*
X132300000Y-159600000D03*
X132000000Y-161700000D03*
X146250000Y-138150000D03*
X141850000Y-145400000D03*
X141150000Y-145400000D03*
X139550000Y-147950000D03*
X139600000Y-147300000D03*
X140350000Y-147550000D03*
X139322721Y-134600000D03*
X139322721Y-135300000D03*
X139522721Y-128500000D03*
X139522721Y-129250000D03*
X142450000Y-156550000D03*
X140650000Y-156550000D03*
X139450000Y-154700000D03*
X139450000Y-154000000D03*
X143450000Y-156900000D03*
X143400000Y-156050000D03*
X139600000Y-156950000D03*
X139700000Y-156200000D03*
X124715984Y-121265869D03*
X146315380Y-144676310D03*
X118750000Y-118150000D03*
X118896719Y-107927539D03*
X103100000Y-126250000D03*
X104250000Y-121900000D03*
X104250000Y-121000000D03*
X105500000Y-121400000D03*
X105900000Y-123100000D03*
X108210000Y-126250000D03*
X104250000Y-126250000D03*
X122500000Y-142250000D03*
X122600000Y-142850000D03*
X129719645Y-135069645D03*
X133900000Y-128350000D03*
X133311900Y-129946400D03*
X134099300Y-131229100D03*
X134800000Y-139100000D03*
X133850000Y-139100000D03*
X132850000Y-139000000D03*
X129800000Y-140200000D03*
X129600000Y-139200000D03*
X117950000Y-134450000D03*
X118450000Y-133900000D03*
X117950000Y-133262000D03*
X107500000Y-157600000D03*
X107500000Y-156750000D03*
X124950000Y-118750000D03*
X129050000Y-114000000D03*
X129550000Y-111850000D03*
X136150000Y-111950000D03*
X135550000Y-114450000D03*
X118050000Y-118150000D03*
X118350000Y-117450000D03*
X135621751Y-113178249D03*
X135883883Y-110466117D03*
X133809941Y-115959941D03*
X140500000Y-123900000D03*
X140850000Y-124450000D03*
X140854698Y-123350000D03*
X144650000Y-124650000D03*
X144950000Y-124000000D03*
X144645302Y-123400000D03*
X145800000Y-118150000D03*
X145800000Y-117450000D03*
X145100000Y-117700000D03*
X130000000Y-137650000D03*
X130000000Y-136950000D03*
X131550000Y-137400000D03*
X141450000Y-130350000D03*
X142200000Y-130300000D03*
X144400000Y-129300000D03*
X144450000Y-128550000D03*
X143650000Y-133600000D03*
X147000000Y-146100000D03*
X147750000Y-152600000D03*
X119400000Y-113750000D03*
X119000000Y-112050000D03*
X144200000Y-122250000D03*
X143350000Y-122250000D03*
X148000000Y-146500000D03*
X147950000Y-145850000D03*
X147100000Y-144600000D03*
X150050000Y-144750000D03*
X149550000Y-145250000D03*
X148664214Y-143864214D03*
X148150000Y-135150000D03*
X144400000Y-135350000D03*
X144400000Y-134650000D03*
X145400000Y-137000000D03*
X145350000Y-136350000D03*
X146250000Y-137500000D03*
X145150000Y-137900000D03*
X142450000Y-140600000D03*
X142500000Y-139950000D03*
X138650000Y-140300000D03*
X138650000Y-139650000D03*
X118850000Y-108550000D03*
X117457717Y-103144661D03*
X114455920Y-103021359D03*
X110750000Y-110200000D03*
X115750000Y-112450000D03*
X115050000Y-112500000D03*
X118150000Y-103100000D03*
X119300000Y-103500000D03*
X117600000Y-104250000D03*
X113800000Y-103000000D03*
X124700000Y-120550000D03*
X124700000Y-119550000D03*
X112650000Y-103500000D03*
X114350000Y-104250000D03*
X129700000Y-113100000D03*
X130766058Y-111552120D03*
X133322791Y-118802303D03*
X133850000Y-118300000D03*
X120450000Y-146200000D03*
X132350000Y-117750000D03*
X131550000Y-117750000D03*
X132400000Y-116900000D03*
X129800000Y-126350000D03*
X133900000Y-116400000D03*
X131550000Y-116900000D03*
X110100000Y-116850000D03*
X105500000Y-119800000D03*
X123200000Y-110250000D03*
X123050000Y-113300000D03*
X116000000Y-116650000D03*
X122550000Y-126020302D03*
X121850000Y-126000000D03*
X119850000Y-121000000D03*
X120150000Y-120200000D03*
X130750000Y-156950000D03*
X145618200Y-150482300D03*
X145050000Y-150400000D03*
X144830800Y-145223690D03*
X145465800Y-145173700D03*
X109300000Y-120850000D03*
X127850000Y-124750000D03*
X131940000Y-157950000D03*
X131940000Y-156050000D03*
X123150000Y-118750000D03*
X123850000Y-118750000D03*
X123850000Y-121400000D03*
X108000000Y-121400000D03*
X109250000Y-121750000D03*
X133150000Y-124600000D03*
X118000000Y-112450000D03*
X117250000Y-112400000D03*
X121100000Y-113300000D03*
X117567909Y-107202247D03*
X119300000Y-106000000D03*
X117600000Y-106150000D03*
X118200000Y-107104698D03*
X112650000Y-106000000D03*
X114350000Y-106150000D03*
X113700000Y-107200000D03*
X114350000Y-107200000D03*
X136410700Y-131229100D03*
X136410700Y-129971800D03*
X128917700Y-120434100D03*
X128498600Y-119862600D03*
X119450000Y-144500000D03*
X120500000Y-144600000D03*
X119600000Y-142850000D03*
X120700000Y-142850000D03*
X134200000Y-134250000D03*
X134278249Y-114521751D03*
X130789796Y-114656388D03*
X134116117Y-112233883D03*
X132200000Y-113600000D03*
X137200000Y-126400000D03*
X136000000Y-126400000D03*
X135572500Y-129946400D03*
X135572500Y-131254500D03*
X132350000Y-133550000D03*
X132350000Y-134250000D03*
X133450000Y-113850000D03*
X133450000Y-113350000D03*
X105665117Y-138239490D03*
X106031223Y-136868873D03*
X112250000Y-138900000D03*
X104813100Y-138925300D03*
X110200000Y-128000000D03*
X110100000Y-127200000D03*
X113650000Y-126200000D03*
X113050000Y-126200000D03*
X130150000Y-131300000D03*
X130150000Y-130450000D03*
X130250000Y-129750000D03*
X123300000Y-134900000D03*
X124100000Y-134950000D03*
X124850000Y-135050000D03*
X114200000Y-144500000D03*
X102200000Y-154800000D03*
X102200000Y-155700000D03*
X114550000Y-133800000D03*
X114500000Y-133100000D03*
X115250000Y-133750000D03*
X115200000Y-133050000D03*
X102150000Y-157650000D03*
X102200000Y-156600000D03*
X125250000Y-125550000D03*
X130067198Y-117602000D03*
X128244600Y-123456700D03*
X134750000Y-152250000D03*
X134750000Y-148350000D03*
X142700000Y-133550000D03*
X137500000Y-134400000D03*
X137450000Y-133650000D03*
X142050000Y-133500000D03*
X136400000Y-134250000D03*
X130800000Y-146900000D03*
X139809330Y-127640670D03*
X130900000Y-143800000D03*
X139800000Y-126750000D03*
X110750000Y-144600000D03*
X103650000Y-151300000D03*
X102950000Y-144100000D03*
D18*
X115950000Y-132300000D02*
X115950000Y-130949700D01*
X115950000Y-130949700D02*
X115950000Y-130450000D01*
X107187700Y-130949700D02*
X115950000Y-130949700D01*
X104250000Y-126250000D02*
X104250000Y-128012000D01*
X104250000Y-128012000D02*
X107187700Y-130949700D01*
X104250000Y-126250000D02*
X108210000Y-126250000D01*
X103100000Y-126250000D02*
X104250000Y-126250000D01*
X124650000Y-136300000D02*
X125545302Y-136300000D01*
X125545302Y-136300000D02*
X125645302Y-136400000D01*
X118650000Y-143750000D02*
X118650000Y-142700000D01*
X118650000Y-142700000D02*
X118650000Y-141800000D01*
X116700000Y-140650000D02*
X119800000Y-140650000D01*
X119800000Y-140650000D02*
X120300000Y-140650000D01*
X118650000Y-141800000D02*
X119800000Y-140650000D01*
X116500000Y-134800000D02*
X116500000Y-140450000D01*
X116500000Y-133700000D02*
X116500000Y-134800000D01*
X117950000Y-133262000D02*
X118962000Y-133262000D01*
X118962000Y-133262000D02*
X119350000Y-132874000D01*
X116912000Y-133262000D02*
X115950000Y-132300000D01*
X116938000Y-133262000D02*
X116912000Y-133262000D01*
X118450000Y-134700000D02*
X120050000Y-136300000D01*
X120050000Y-136300000D02*
X124650000Y-136300000D01*
X118450000Y-133900000D02*
X118450000Y-134700000D01*
X120300000Y-140650000D02*
X124650000Y-136300000D01*
X116500000Y-140450000D02*
X116700000Y-140650000D01*
X116938000Y-133262000D02*
X116500000Y-133700000D01*
X116300000Y-110750000D02*
X116326301Y-110776301D01*
X117250000Y-110750000D02*
X117426301Y-110926301D01*
X117426301Y-110926301D02*
X119211234Y-110926301D01*
X116326301Y-110776301D02*
X117223699Y-110776301D01*
X117857101Y-110142899D02*
X117857101Y-107447597D01*
X117857101Y-107447597D02*
X118200000Y-107104698D01*
X117250000Y-110750000D02*
X117857101Y-110142899D01*
X119211234Y-110926301D02*
X121100000Y-112815067D01*
X117223699Y-110776301D02*
X117250000Y-110750000D01*
X121100000Y-112815067D02*
X121100000Y-113300000D01*
X149376301Y-126920625D02*
X149350000Y-126946926D01*
X149376301Y-126079375D02*
X149376301Y-126920625D01*
X149350000Y-126053074D02*
X149376301Y-126079375D01*
X149350000Y-113003074D02*
X149350000Y-126053074D01*
X149350000Y-126946926D02*
X149350000Y-137200000D01*
X134050000Y-108200000D02*
X144546926Y-108200000D01*
X132150000Y-110100000D02*
X134050000Y-108200000D01*
X144546926Y-108200000D02*
X149350000Y-113003074D01*
X142179375Y-143076301D02*
X139903074Y-145352602D01*
X143070625Y-143076301D02*
X142179375Y-143076301D01*
X148946926Y-137200000D02*
X143070625Y-143076301D01*
X139903074Y-145352602D02*
X139903074Y-145700000D01*
X149350000Y-137200000D02*
X148946926Y-137200000D01*
X145050000Y-150400000D02*
X145535900Y-150400000D01*
X145535900Y-150400000D02*
X145618200Y-150482300D01*
X141250000Y-147150000D02*
X141800000Y-147150000D01*
X141800000Y-147150000D02*
X145050000Y-150400000D01*
X145465800Y-145173700D02*
X145122901Y-144830801D01*
X145122901Y-144830801D02*
X145092401Y-144830801D01*
X145092401Y-144830801D02*
X144830800Y-144569200D01*
X145600000Y-143800000D02*
X144830800Y-144569200D01*
X144830800Y-144569200D02*
X144830800Y-145223690D01*
D19*
X122779200Y-117200000D02*
X129879200Y-110100000D01*
X129879200Y-110100000D02*
X132150000Y-110100000D01*
X122300000Y-117200000D02*
X122779200Y-117200000D01*
D18*
X109300000Y-120850000D02*
X112400000Y-120850000D01*
X120350000Y-118350000D02*
X122150000Y-118350000D01*
X122150000Y-118350000D02*
X122750000Y-118350000D01*
X122150000Y-118350000D02*
X122150000Y-119700000D01*
X122300000Y-117200000D02*
X123850000Y-118750000D01*
X120350000Y-118350000D02*
X121500000Y-117200000D01*
X121500000Y-117200000D02*
X122300000Y-117200000D01*
X117500000Y-121200000D02*
X120350000Y-118350000D01*
X117500000Y-122300000D02*
X119550000Y-124350000D01*
X116050000Y-120850000D02*
X117500000Y-122300000D01*
X117500000Y-122300000D02*
X117500000Y-121200000D01*
X112400000Y-120850000D02*
X116050000Y-120850000D01*
D20*
X119550000Y-124350000D02*
X127450000Y-124350000D01*
X127450000Y-124350000D02*
X127850000Y-124750000D01*
D18*
X149350000Y-137200000D02*
X149350000Y-139700000D01*
X149350000Y-139700000D02*
X149350000Y-140800000D01*
X149050000Y-139700000D02*
X149350000Y-139700000D01*
X146350000Y-143800000D02*
X149350000Y-140800000D01*
X112400000Y-120850000D02*
X112400000Y-113500000D01*
X144950000Y-143800000D02*
X149050000Y-139700000D01*
X112400000Y-113500000D02*
X115150000Y-110750000D01*
X141250000Y-147150000D02*
X141250000Y-147046926D01*
X141250000Y-147046926D02*
X139903074Y-145700000D01*
X141250000Y-147150000D02*
X140950000Y-146850000D01*
X131940000Y-154988000D02*
X131940000Y-156050000D01*
X131940000Y-153663074D02*
X131940000Y-154988000D01*
X139903074Y-145700000D02*
X131940000Y-153663074D01*
X122150000Y-119700000D02*
X123850000Y-121400000D01*
X122750000Y-118350000D02*
X123150000Y-118750000D01*
X131940000Y-156050000D02*
X131940000Y-157950000D01*
X145600000Y-143800000D02*
X146350000Y-143800000D01*
X119254698Y-106050000D02*
X119254698Y-106045302D01*
X119254698Y-106045302D02*
X119300000Y-106000000D01*
X118200000Y-107104698D02*
X119254698Y-106050000D01*
X117567909Y-107202247D02*
X117567909Y-106182091D01*
X117567909Y-106182091D02*
X117600000Y-106150000D01*
X113700000Y-107050000D02*
X112650000Y-106000000D01*
X113700000Y-107200000D02*
X113700000Y-107050000D01*
X114350000Y-107200000D02*
X114350000Y-106150000D01*
X115600000Y-110750000D02*
X115600000Y-108450000D01*
X115600000Y-108450000D02*
X114350000Y-107200000D01*
X114350000Y-107200000D02*
X114184933Y-107200000D01*
X114184933Y-107200000D02*
X113700000Y-107200000D01*
X115600000Y-110750000D02*
X116300000Y-110750000D01*
X116300000Y-110750000D02*
X118000000Y-112450000D01*
X115150000Y-110750000D02*
X115600000Y-110750000D01*
X115600000Y-110750000D02*
X117250000Y-112400000D01*
X128917700Y-120434100D02*
X128917700Y-120281700D01*
X128917700Y-120281700D02*
X128498600Y-119862600D01*
X129350000Y-123100000D02*
X129350000Y-120866400D01*
X129350000Y-120866400D02*
X128917700Y-120434100D01*
X129573699Y-133829375D02*
X129573699Y-133976301D01*
X121039301Y-141373699D02*
X120700000Y-141713000D01*
X122176301Y-141373699D02*
X121039301Y-141373699D01*
X129573699Y-133976301D02*
X122176301Y-141373699D01*
X132200000Y-131203074D02*
X129573699Y-133829375D01*
X120700000Y-141713000D02*
X120700000Y-142850000D01*
X132200000Y-123100000D02*
X132200000Y-131203074D01*
X120500000Y-143450000D02*
X119450000Y-144500000D01*
X120700000Y-143450000D02*
X120700000Y-144400000D01*
X120700000Y-142850000D02*
X120700000Y-143450000D01*
X120700000Y-143450000D02*
X120500000Y-143450000D01*
X120700000Y-144400000D02*
X120500000Y-144600000D01*
X120700000Y-142850000D02*
X119600000Y-142850000D01*
X132200000Y-123100000D02*
X129350000Y-123100000D01*
X134087000Y-123100000D02*
X132200000Y-123100000D01*
X134100000Y-133550000D02*
X134100000Y-133862000D01*
X134100000Y-133862000D02*
X133712000Y-134250000D01*
X133712000Y-134250000D02*
X132350000Y-134250000D01*
X135950000Y-131700000D02*
X134100000Y-133550000D01*
X134100000Y-133550000D02*
X132350000Y-133550000D01*
X135950000Y-131700000D02*
X135950000Y-132500000D01*
X135950000Y-132500000D02*
X134200000Y-134250000D01*
X133450000Y-113350000D02*
X133792899Y-113692899D01*
X133792899Y-114192899D02*
X135200000Y-115600000D01*
X133792899Y-113692899D02*
X133792899Y-114192899D01*
X135200000Y-119350000D02*
X135200000Y-115600000D01*
X135200000Y-115600000D02*
X133450000Y-113850000D01*
X134087000Y-120463000D02*
X135200000Y-119350000D01*
X134087000Y-123100000D02*
X134087000Y-120463000D01*
X136000000Y-126400000D02*
X136000000Y-125013000D01*
X136000000Y-125013000D02*
X134087000Y-123100000D01*
X136000000Y-126400000D02*
X137200000Y-126400000D01*
X135800000Y-128350000D02*
X135800000Y-126600000D01*
X135800000Y-126600000D02*
X136000000Y-126400000D01*
X136000000Y-129400000D02*
X136000000Y-128550000D01*
X136000000Y-128550000D02*
X135800000Y-128350000D01*
X136000000Y-130600000D02*
X136000000Y-129400000D01*
X135950000Y-131700000D02*
X135950000Y-130650000D01*
X135950000Y-130650000D02*
X136000000Y-130600000D01*
D19*
X128422400Y-129526401D02*
X129541468Y-129526401D01*
X125972199Y-129526401D02*
X128422400Y-129526401D01*
X128422400Y-129526401D02*
X129226401Y-129526401D01*
X129226401Y-129526401D02*
X130150000Y-130450000D01*
X123807164Y-131691436D02*
X125972199Y-129526401D01*
X129765067Y-129750000D02*
X130250000Y-129750000D01*
X129541468Y-129526401D02*
X129765067Y-129750000D01*
X121615200Y-131691436D02*
X116123764Y-126200000D01*
X122643900Y-132720136D02*
X121615200Y-131691436D01*
X121615200Y-131691436D02*
X123807164Y-131691436D01*
X123300000Y-133376236D02*
X122643900Y-132720136D01*
X122643900Y-132720136D02*
X123143437Y-132220599D01*
X123143437Y-132220599D02*
X128496623Y-132220599D01*
X128496623Y-132220599D02*
X129417222Y-131300000D01*
D18*
X110100000Y-127200000D02*
X112050000Y-127200000D01*
X112050000Y-127200000D02*
X113050000Y-126200000D01*
D19*
X114134933Y-126200000D02*
X113650000Y-126200000D01*
X116123764Y-126200000D02*
X114134933Y-126200000D01*
X123300000Y-134900000D02*
X123300000Y-133376236D01*
X124850000Y-134565067D02*
X116484933Y-126200000D01*
X124850000Y-135050000D02*
X124850000Y-134565067D01*
X116484933Y-126200000D02*
X113534933Y-126200000D01*
X113534933Y-126200000D02*
X113050000Y-126200000D01*
X129417222Y-131300000D02*
X129665067Y-131300000D01*
X129665067Y-131300000D02*
X130150000Y-131300000D01*
X111400000Y-126800000D02*
X113050000Y-126800000D01*
X113050000Y-126800000D02*
X113650000Y-126200000D01*
X110200000Y-128000000D02*
X111400000Y-126800000D01*
D18*
X115200000Y-133050000D02*
X115200000Y-133150000D01*
X115200000Y-133150000D02*
X114550000Y-133800000D01*
X103700000Y-154357101D02*
X102642899Y-154357101D01*
X104342899Y-154357101D02*
X103700000Y-154357101D01*
X103700000Y-154357101D02*
X103542899Y-154357101D01*
X103542899Y-154357101D02*
X102200000Y-155700000D01*
X102642899Y-154357101D02*
X102200000Y-154800000D01*
D19*
X104500000Y-154200000D02*
X114200000Y-144500000D01*
X114200000Y-144500000D02*
X114550000Y-144150000D01*
X115250000Y-133750000D02*
X115250000Y-133100000D01*
X115250000Y-133100000D02*
X115200000Y-133050000D01*
X114550000Y-133800000D02*
X114550000Y-133150000D01*
X114550000Y-133150000D02*
X114500000Y-133100000D01*
X114807101Y-144992899D02*
X103250000Y-156550000D01*
X102200000Y-156600000D02*
X103200000Y-156600000D01*
X103250000Y-156550000D02*
X102150000Y-157650000D01*
X103200000Y-156600000D02*
X103250000Y-156550000D01*
X104342899Y-154357101D02*
X104500000Y-154200000D01*
X114550000Y-144150000D02*
X114550000Y-133800000D01*
X114907101Y-144992899D02*
X114807101Y-144992899D01*
X115250000Y-133750000D02*
X114907101Y-134092899D01*
X114907101Y-134092899D02*
X114907101Y-144992899D01*
D18*
X142050000Y-133500000D02*
X142650000Y-133500000D01*
X142650000Y-133500000D02*
X142700000Y-133550000D01*
X138307101Y-133307101D02*
X138500000Y-133500000D01*
X138500000Y-133500000D02*
X142050000Y-133500000D01*
X137450000Y-133650000D02*
X137792899Y-133307101D01*
X137792899Y-133307101D02*
X138307101Y-133307101D01*
D21*
X137300000Y-133500000D02*
X138500000Y-133500000D01*
D18*
X137500000Y-134400000D02*
X137842899Y-134057101D01*
X137842899Y-134057101D02*
X137942899Y-134057101D01*
X137942899Y-134057101D02*
X138500000Y-133500000D01*
X136400000Y-134250000D02*
X136850000Y-134250000D01*
X136850000Y-134250000D02*
X137450000Y-133650000D01*
D21*
X142700000Y-133550000D02*
X138350000Y-133550000D01*
X138350000Y-133550000D02*
X137500000Y-134400000D01*
X136400000Y-134250000D02*
X136550000Y-134250000D01*
X136550000Y-134250000D02*
X137300000Y-133500000D01*
D22*
G36*
X106073000Y-125800000D02*
X106083006Y-125849410D01*
X106111447Y-125891035D01*
X106153841Y-125918315D01*
X106200000Y-125927000D01*
X108673000Y-125927000D01*
X108673000Y-130000000D01*
X108683006Y-130049410D01*
X108711447Y-130091035D01*
X108753841Y-130118315D01*
X108800000Y-130127000D01*
X118883331Y-130127000D01*
X119873000Y-131116669D01*
X119873000Y-135400000D01*
X119883006Y-135449410D01*
X119911447Y-135491035D01*
X119953841Y-135518315D01*
X120000000Y-135527000D01*
X122544152Y-135527000D01*
X122745341Y-135728540D01*
X123104630Y-135877730D01*
X123493663Y-135878069D01*
X123639708Y-135817725D01*
X123904630Y-135927730D01*
X124293663Y-135928069D01*
X124354291Y-135903018D01*
X124654630Y-136027730D01*
X125043663Y-136028069D01*
X125403212Y-135879507D01*
X125673000Y-135610189D01*
X125673000Y-136440159D01*
X121755461Y-140357699D01*
X121039301Y-140357699D01*
X120715001Y-140422206D01*
X120650494Y-140435037D01*
X120320880Y-140655279D01*
X119981580Y-140994580D01*
X119761338Y-141324193D01*
X119761338Y-141324194D01*
X119727852Y-141492542D01*
X119333355Y-141887039D01*
X119211194Y-141911338D01*
X119049526Y-142019362D01*
X119046788Y-142020493D01*
X119044673Y-142022604D01*
X118881580Y-142131580D01*
X118773556Y-142293249D01*
X118771460Y-142295341D01*
X118770314Y-142298100D01*
X118661338Y-142461194D01*
X118623405Y-142651896D01*
X118622270Y-142654630D01*
X118622267Y-142657616D01*
X118584000Y-142850000D01*
X118621934Y-143040706D01*
X118621931Y-143043663D01*
X118623070Y-143046420D01*
X118661338Y-143238806D01*
X118769362Y-143400474D01*
X118770493Y-143403212D01*
X118772604Y-143405327D01*
X118869721Y-143550673D01*
X118147394Y-144273000D01*
X116127000Y-144273000D01*
X116127000Y-134187954D01*
X116227730Y-133945370D01*
X116228069Y-133556337D01*
X116165362Y-133404574D01*
X116170999Y-133376236D01*
X116216000Y-133150000D01*
X116216000Y-133050000D01*
X116178066Y-132859294D01*
X116178069Y-132856337D01*
X116176930Y-132853580D01*
X116138662Y-132661194D01*
X116127000Y-132643741D01*
X116127000Y-132400000D01*
X116116994Y-132350590D01*
X116089803Y-132310197D01*
X115689803Y-131910197D01*
X115647789Y-131882334D01*
X115600000Y-131873000D01*
X102027000Y-131873000D01*
X102027000Y-124827000D01*
X106073000Y-124827000D01*
X106073000Y-125800000D01*
X106073000Y-125800000D01*
G37*
X106073000Y-125800000D02*
X106083006Y-125849410D01*
X106111447Y-125891035D01*
X106153841Y-125918315D01*
X106200000Y-125927000D01*
X108673000Y-125927000D01*
X108673000Y-130000000D01*
X108683006Y-130049410D01*
X108711447Y-130091035D01*
X108753841Y-130118315D01*
X108800000Y-130127000D01*
X118883331Y-130127000D01*
X119873000Y-131116669D01*
X119873000Y-135400000D01*
X119883006Y-135449410D01*
X119911447Y-135491035D01*
X119953841Y-135518315D01*
X120000000Y-135527000D01*
X122544152Y-135527000D01*
X122745341Y-135728540D01*
X123104630Y-135877730D01*
X123493663Y-135878069D01*
X123639708Y-135817725D01*
X123904630Y-135927730D01*
X124293663Y-135928069D01*
X124354291Y-135903018D01*
X124654630Y-136027730D01*
X125043663Y-136028069D01*
X125403212Y-135879507D01*
X125673000Y-135610189D01*
X125673000Y-136440159D01*
X121755461Y-140357699D01*
X121039301Y-140357699D01*
X120715001Y-140422206D01*
X120650494Y-140435037D01*
X120320880Y-140655279D01*
X119981580Y-140994580D01*
X119761338Y-141324193D01*
X119761338Y-141324194D01*
X119727852Y-141492542D01*
X119333355Y-141887039D01*
X119211194Y-141911338D01*
X119049526Y-142019362D01*
X119046788Y-142020493D01*
X119044673Y-142022604D01*
X118881580Y-142131580D01*
X118773556Y-142293249D01*
X118771460Y-142295341D01*
X118770314Y-142298100D01*
X118661338Y-142461194D01*
X118623405Y-142651896D01*
X118622270Y-142654630D01*
X118622267Y-142657616D01*
X118584000Y-142850000D01*
X118621934Y-143040706D01*
X118621931Y-143043663D01*
X118623070Y-143046420D01*
X118661338Y-143238806D01*
X118769362Y-143400474D01*
X118770493Y-143403212D01*
X118772604Y-143405327D01*
X118869721Y-143550673D01*
X118147394Y-144273000D01*
X116127000Y-144273000D01*
X116127000Y-134187954D01*
X116227730Y-133945370D01*
X116228069Y-133556337D01*
X116165362Y-133404574D01*
X116170999Y-133376236D01*
X116216000Y-133150000D01*
X116216000Y-133050000D01*
X116178066Y-132859294D01*
X116178069Y-132856337D01*
X116176930Y-132853580D01*
X116138662Y-132661194D01*
X116127000Y-132643741D01*
X116127000Y-132400000D01*
X116116994Y-132350590D01*
X116089803Y-132310197D01*
X115689803Y-131910197D01*
X115647789Y-131882334D01*
X115600000Y-131873000D01*
X102027000Y-131873000D01*
X102027000Y-124827000D01*
X106073000Y-124827000D01*
X106073000Y-125800000D01*
G36*
X120871931Y-126193663D02*
X121020493Y-126553212D01*
X121295341Y-126828540D01*
X121654630Y-126977730D01*
X122043663Y-126978069D01*
X122175433Y-126923623D01*
X122354630Y-126998032D01*
X122743663Y-126998371D01*
X123103212Y-126849809D01*
X123378540Y-126574961D01*
X123527730Y-126215672D01*
X123527982Y-125927000D01*
X124347684Y-125927000D01*
X124420493Y-126103212D01*
X124695341Y-126378540D01*
X125054630Y-126527730D01*
X125443663Y-126528069D01*
X125803212Y-126379507D01*
X126078540Y-126104659D01*
X126152311Y-125927000D01*
X128916790Y-125927000D01*
X128822270Y-126154630D01*
X128821931Y-126543663D01*
X128970493Y-126903212D01*
X129245341Y-127178540D01*
X129604630Y-127327730D01*
X129873000Y-127327964D01*
X129873000Y-129400000D01*
X129883006Y-129449410D01*
X129911447Y-129491035D01*
X129953841Y-129518315D01*
X130000000Y-129527000D01*
X130073000Y-129527000D01*
X130073000Y-131473000D01*
X129600000Y-131473000D01*
X129550590Y-131483006D01*
X129510197Y-131510197D01*
X128509645Y-132510749D01*
X128227261Y-132627427D01*
X128030905Y-132823441D01*
X127723547Y-132363446D01*
X127394374Y-132143500D01*
X127723547Y-131923554D01*
X128045454Y-131441785D01*
X128158493Y-130873500D01*
X128045454Y-130305215D01*
X127723547Y-129823446D01*
X127681948Y-129795650D01*
X127729717Y-129786662D01*
X127945841Y-129647590D01*
X128090831Y-129435390D01*
X128141840Y-129183500D01*
X128141840Y-127483500D01*
X128097562Y-127248183D01*
X127958490Y-127032059D01*
X127746290Y-126887069D01*
X127494400Y-126836060D01*
X125794400Y-126836060D01*
X125559083Y-126880338D01*
X125342959Y-127019410D01*
X125197969Y-127231610D01*
X125146960Y-127483500D01*
X125146960Y-129183500D01*
X125191238Y-129418817D01*
X125330310Y-129634941D01*
X125542510Y-129779931D01*
X125609941Y-129793586D01*
X125565253Y-129823446D01*
X125243346Y-130305215D01*
X125130307Y-130873500D01*
X125243346Y-131441785D01*
X125565253Y-131923554D01*
X125894426Y-132143500D01*
X125565253Y-132363446D01*
X125243346Y-132845215D01*
X125130307Y-133413500D01*
X125243346Y-133981785D01*
X125565253Y-134463554D01*
X125878712Y-134673000D01*
X120727000Y-134673000D01*
X120727000Y-130600000D01*
X120716994Y-130550590D01*
X120689803Y-130510197D01*
X118489803Y-128310197D01*
X118447789Y-128282334D01*
X118400000Y-128273000D01*
X111400000Y-128273000D01*
X111350590Y-128283006D01*
X111310197Y-128310197D01*
X110547394Y-129073000D01*
X109527000Y-129073000D01*
X109527000Y-126652606D01*
X110252606Y-125927000D01*
X120872163Y-125927000D01*
X120871931Y-126193663D01*
X120871931Y-126193663D01*
G37*
X120871931Y-126193663D02*
X121020493Y-126553212D01*
X121295341Y-126828540D01*
X121654630Y-126977730D01*
X122043663Y-126978069D01*
X122175433Y-126923623D01*
X122354630Y-126998032D01*
X122743663Y-126998371D01*
X123103212Y-126849809D01*
X123378540Y-126574961D01*
X123527730Y-126215672D01*
X123527982Y-125927000D01*
X124347684Y-125927000D01*
X124420493Y-126103212D01*
X124695341Y-126378540D01*
X125054630Y-126527730D01*
X125443663Y-126528069D01*
X125803212Y-126379507D01*
X126078540Y-126104659D01*
X126152311Y-125927000D01*
X128916790Y-125927000D01*
X128822270Y-126154630D01*
X128821931Y-126543663D01*
X128970493Y-126903212D01*
X129245341Y-127178540D01*
X129604630Y-127327730D01*
X129873000Y-127327964D01*
X129873000Y-129400000D01*
X129883006Y-129449410D01*
X129911447Y-129491035D01*
X129953841Y-129518315D01*
X130000000Y-129527000D01*
X130073000Y-129527000D01*
X130073000Y-131473000D01*
X129600000Y-131473000D01*
X129550590Y-131483006D01*
X129510197Y-131510197D01*
X128509645Y-132510749D01*
X128227261Y-132627427D01*
X128030905Y-132823441D01*
X127723547Y-132363446D01*
X127394374Y-132143500D01*
X127723547Y-131923554D01*
X128045454Y-131441785D01*
X128158493Y-130873500D01*
X128045454Y-130305215D01*
X127723547Y-129823446D01*
X127681948Y-129795650D01*
X127729717Y-129786662D01*
X127945841Y-129647590D01*
X128090831Y-129435390D01*
X128141840Y-129183500D01*
X128141840Y-127483500D01*
X128097562Y-127248183D01*
X127958490Y-127032059D01*
X127746290Y-126887069D01*
X127494400Y-126836060D01*
X125794400Y-126836060D01*
X125559083Y-126880338D01*
X125342959Y-127019410D01*
X125197969Y-127231610D01*
X125146960Y-127483500D01*
X125146960Y-129183500D01*
X125191238Y-129418817D01*
X125330310Y-129634941D01*
X125542510Y-129779931D01*
X125609941Y-129793586D01*
X125565253Y-129823446D01*
X125243346Y-130305215D01*
X125130307Y-130873500D01*
X125243346Y-131441785D01*
X125565253Y-131923554D01*
X125894426Y-132143500D01*
X125565253Y-132363446D01*
X125243346Y-132845215D01*
X125130307Y-133413500D01*
X125243346Y-133981785D01*
X125565253Y-134463554D01*
X125878712Y-134673000D01*
X120727000Y-134673000D01*
X120727000Y-130600000D01*
X120716994Y-130550590D01*
X120689803Y-130510197D01*
X118489803Y-128310197D01*
X118447789Y-128282334D01*
X118400000Y-128273000D01*
X111400000Y-128273000D01*
X111350590Y-128283006D01*
X111310197Y-128310197D01*
X110547394Y-129073000D01*
X109527000Y-129073000D01*
X109527000Y-126652606D01*
X110252606Y-125927000D01*
X120872163Y-125927000D01*
X120871931Y-126193663D01*
G36*
X128585103Y-134434664D02*
X128971230Y-134435000D01*
X128891105Y-134514986D01*
X128741915Y-134874275D01*
X128741747Y-135066742D01*
X128550982Y-135066576D01*
X128191433Y-135215138D01*
X127916105Y-135489986D01*
X127766915Y-135849275D01*
X127766576Y-136238308D01*
X127820345Y-136368439D01*
X127722270Y-136604630D01*
X127721931Y-136993663D01*
X127807214Y-137200063D01*
X127722270Y-137404630D01*
X127721931Y-137793663D01*
X127870493Y-138153212D01*
X128145341Y-138428540D01*
X128504630Y-138577730D01*
X128673000Y-138577877D01*
X128673000Y-138722163D01*
X128406337Y-138721931D01*
X128046788Y-138870493D01*
X127771460Y-139145341D01*
X127622270Y-139504630D01*
X127621931Y-139893663D01*
X127770493Y-140253212D01*
X128045341Y-140528540D01*
X128297938Y-140633428D01*
X124338274Y-145673000D01*
X121290338Y-145673000D01*
X121279507Y-145646788D01*
X121004659Y-145371460D01*
X120645370Y-145222270D01*
X120256337Y-145221931D01*
X119896788Y-145370493D01*
X119621460Y-145645341D01*
X119609975Y-145673000D01*
X119127000Y-145673000D01*
X119127000Y-144652606D01*
X119195935Y-144583671D01*
X119200474Y-144580638D01*
X119203212Y-144579507D01*
X119205327Y-144577396D01*
X119368420Y-144468420D01*
X119476444Y-144306751D01*
X119478540Y-144304659D01*
X119479686Y-144301900D01*
X119483673Y-144295933D01*
X119689803Y-144089803D01*
X119717666Y-144047789D01*
X119727000Y-144000000D01*
X119727000Y-142652606D01*
X120652606Y-141727000D01*
X121658314Y-141727000D01*
X121522270Y-142054630D01*
X121521931Y-142443663D01*
X121622242Y-142686436D01*
X121621931Y-143043663D01*
X121770493Y-143403212D01*
X122045341Y-143678540D01*
X122404630Y-143827730D01*
X122793663Y-143828069D01*
X123153212Y-143679507D01*
X123428540Y-143404659D01*
X123577730Y-143045370D01*
X123578069Y-142656337D01*
X123477758Y-142413564D01*
X123478069Y-142056337D01*
X123329507Y-141696788D01*
X123054659Y-141421460D01*
X122695370Y-141272270D01*
X122507500Y-141272106D01*
X127289803Y-136489803D01*
X127317666Y-136447789D01*
X127327000Y-136400000D01*
X127327000Y-135652606D01*
X128556725Y-134422881D01*
X128585103Y-134434664D01*
X128585103Y-134434664D01*
G37*
X128585103Y-134434664D02*
X128971230Y-134435000D01*
X128891105Y-134514986D01*
X128741915Y-134874275D01*
X128741747Y-135066742D01*
X128550982Y-135066576D01*
X128191433Y-135215138D01*
X127916105Y-135489986D01*
X127766915Y-135849275D01*
X127766576Y-136238308D01*
X127820345Y-136368439D01*
X127722270Y-136604630D01*
X127721931Y-136993663D01*
X127807214Y-137200063D01*
X127722270Y-137404630D01*
X127721931Y-137793663D01*
X127870493Y-138153212D01*
X128145341Y-138428540D01*
X128504630Y-138577730D01*
X128673000Y-138577877D01*
X128673000Y-138722163D01*
X128406337Y-138721931D01*
X128046788Y-138870493D01*
X127771460Y-139145341D01*
X127622270Y-139504630D01*
X127621931Y-139893663D01*
X127770493Y-140253212D01*
X128045341Y-140528540D01*
X128297938Y-140633428D01*
X124338274Y-145673000D01*
X121290338Y-145673000D01*
X121279507Y-145646788D01*
X121004659Y-145371460D01*
X120645370Y-145222270D01*
X120256337Y-145221931D01*
X119896788Y-145370493D01*
X119621460Y-145645341D01*
X119609975Y-145673000D01*
X119127000Y-145673000D01*
X119127000Y-144652606D01*
X119195935Y-144583671D01*
X119200474Y-144580638D01*
X119203212Y-144579507D01*
X119205327Y-144577396D01*
X119368420Y-144468420D01*
X119476444Y-144306751D01*
X119478540Y-144304659D01*
X119479686Y-144301900D01*
X119483673Y-144295933D01*
X119689803Y-144089803D01*
X119717666Y-144047789D01*
X119727000Y-144000000D01*
X119727000Y-142652606D01*
X120652606Y-141727000D01*
X121658314Y-141727000D01*
X121522270Y-142054630D01*
X121521931Y-142443663D01*
X121622242Y-142686436D01*
X121621931Y-143043663D01*
X121770493Y-143403212D01*
X122045341Y-143678540D01*
X122404630Y-143827730D01*
X122793663Y-143828069D01*
X123153212Y-143679507D01*
X123428540Y-143404659D01*
X123577730Y-143045370D01*
X123578069Y-142656337D01*
X123477758Y-142413564D01*
X123478069Y-142056337D01*
X123329507Y-141696788D01*
X123054659Y-141421460D01*
X122695370Y-141272270D01*
X122507500Y-141272106D01*
X127289803Y-136489803D01*
X127317666Y-136447789D01*
X127327000Y-136400000D01*
X127327000Y-135652606D01*
X128556725Y-134422881D01*
X128585103Y-134434664D01*
G36*
X135177475Y-112157081D02*
X135229233Y-112282345D01*
X135068539Y-112348742D01*
X134793211Y-112623590D01*
X134644021Y-112982879D01*
X134643682Y-113371912D01*
X134792244Y-113731461D01*
X134838854Y-113778152D01*
X134721460Y-113895341D01*
X134572270Y-114254630D01*
X134571931Y-114643663D01*
X134720493Y-115003212D01*
X134995341Y-115278540D01*
X135354630Y-115427730D01*
X135743663Y-115428069D01*
X136103212Y-115279507D01*
X136378540Y-115004659D01*
X136527730Y-114645370D01*
X136528069Y-114256337D01*
X136379507Y-113896788D01*
X136332897Y-113850097D01*
X136450291Y-113732908D01*
X136539196Y-113518802D01*
X136772055Y-113751661D01*
X136771931Y-113893663D01*
X136920493Y-114253212D01*
X137195341Y-114528540D01*
X137554630Y-114677730D01*
X137698249Y-114677855D01*
X138273000Y-115252606D01*
X138273000Y-115389003D01*
X138196788Y-115420493D01*
X137921460Y-115695341D01*
X137772270Y-116054630D01*
X137771931Y-116443663D01*
X137920493Y-116803212D01*
X138195341Y-117078540D01*
X138273000Y-117110787D01*
X138273000Y-117589003D01*
X138196788Y-117620493D01*
X137921460Y-117895341D01*
X137772270Y-118254630D01*
X137771931Y-118643663D01*
X137920493Y-119003212D01*
X138195341Y-119278540D01*
X138273000Y-119310787D01*
X138273000Y-123787552D01*
X137995370Y-123672270D01*
X137606337Y-123671931D01*
X137246788Y-123820493D01*
X136971460Y-124095341D01*
X136822270Y-124454630D01*
X136821931Y-124843663D01*
X136970493Y-125203212D01*
X137245341Y-125478540D01*
X137604630Y-125627730D01*
X137993663Y-125628069D01*
X138273000Y-125512650D01*
X138273000Y-130793891D01*
X138221460Y-130845341D01*
X138112395Y-131107999D01*
X135703381Y-133517013D01*
X135681580Y-133531580D01*
X135667013Y-133553381D01*
X134947394Y-134273000D01*
X131427880Y-134273000D01*
X131428069Y-134056337D01*
X131279507Y-133696788D01*
X131004659Y-133421460D01*
X130645370Y-133272270D01*
X130256337Y-133271931D01*
X129896788Y-133420493D01*
X129758285Y-133558755D01*
X129758542Y-133263271D01*
X129746201Y-133233405D01*
X131582243Y-131397363D01*
X132283031Y-131397363D01*
X132431593Y-131756912D01*
X132706441Y-132032240D01*
X133065730Y-132181430D01*
X133454763Y-132181769D01*
X133649650Y-132101244D01*
X133903930Y-132206830D01*
X134292963Y-132207169D01*
X134652512Y-132058607D01*
X134927840Y-131783759D01*
X135077030Y-131424470D01*
X135077369Y-131035437D01*
X134928807Y-130675888D01*
X134840910Y-130587837D01*
X134927840Y-130501059D01*
X135077030Y-130141770D01*
X135077369Y-129752737D01*
X134928807Y-129393188D01*
X134653959Y-129117860D01*
X134555798Y-129077100D01*
X134728540Y-128904659D01*
X134877730Y-128545370D01*
X134878069Y-128156337D01*
X134729507Y-127796788D01*
X134454659Y-127521460D01*
X134095370Y-127372270D01*
X133706337Y-127371931D01*
X133346788Y-127520493D01*
X133071460Y-127795341D01*
X132922270Y-128154630D01*
X132921931Y-128543663D01*
X133070493Y-128903212D01*
X133135514Y-128968346D01*
X133118237Y-128968331D01*
X132758688Y-129116893D01*
X132483360Y-129391741D01*
X132334170Y-129751030D01*
X132333831Y-130140063D01*
X132482393Y-130499612D01*
X132532234Y-130549540D01*
X132432560Y-130649041D01*
X132283370Y-131008330D01*
X132283031Y-131397363D01*
X131582243Y-131397363D01*
X131689803Y-131289803D01*
X131717666Y-131247789D01*
X131727000Y-131200000D01*
X131727000Y-126000000D01*
X131716994Y-125950590D01*
X131689803Y-125910197D01*
X130573269Y-124793663D01*
X132171931Y-124793663D01*
X132320493Y-125153212D01*
X132595341Y-125428540D01*
X132954630Y-125577730D01*
X133343663Y-125578069D01*
X133703212Y-125429507D01*
X133978540Y-125154659D01*
X134127730Y-124795370D01*
X134128069Y-124406337D01*
X133979507Y-124046788D01*
X133704659Y-123771460D01*
X133345370Y-123622270D01*
X132956337Y-123621931D01*
X132596788Y-123770493D01*
X132321460Y-124045341D01*
X132172270Y-124404630D01*
X132171931Y-124793663D01*
X130573269Y-124793663D01*
X129222512Y-123442906D01*
X129222669Y-123263037D01*
X129074107Y-122903488D01*
X128799259Y-122628160D01*
X128439970Y-122478970D01*
X128258418Y-122478812D01*
X128202112Y-122422506D01*
X128129507Y-122246788D01*
X127854659Y-121971460D01*
X127727000Y-121918451D01*
X127727000Y-119340338D01*
X127753212Y-119329507D01*
X128028540Y-119054659D01*
X128177730Y-118695370D01*
X128178069Y-118306337D01*
X128029507Y-117946788D01*
X127878646Y-117795663D01*
X129089129Y-117795663D01*
X129237691Y-118155212D01*
X129512539Y-118430540D01*
X129871828Y-118579730D01*
X130260861Y-118580069D01*
X130620410Y-118431507D01*
X130734686Y-118317430D01*
X130942083Y-118525189D01*
X130671460Y-118795341D01*
X130522270Y-119154630D01*
X130521931Y-119543663D01*
X130670493Y-119903212D01*
X130738083Y-119970920D01*
X130548888Y-120049093D01*
X130273560Y-120323941D01*
X130124370Y-120683230D01*
X130124031Y-121072263D01*
X130272593Y-121431812D01*
X130547441Y-121707140D01*
X130709159Y-121774291D01*
X130793293Y-121977912D01*
X131068141Y-122253240D01*
X131427430Y-122402430D01*
X131816463Y-122402769D01*
X132176012Y-122254207D01*
X132451340Y-121979359D01*
X132600530Y-121620070D01*
X132600640Y-121493663D01*
X135421931Y-121493663D01*
X135570493Y-121853212D01*
X135845341Y-122128540D01*
X136204630Y-122277730D01*
X136593663Y-122278069D01*
X136953212Y-122129507D01*
X137228540Y-121854659D01*
X137377730Y-121495370D01*
X137378069Y-121106337D01*
X137229507Y-120746788D01*
X136954659Y-120471460D01*
X136595370Y-120322270D01*
X136206337Y-120321931D01*
X135846788Y-120470493D01*
X135571460Y-120745341D01*
X135422270Y-121104630D01*
X135421931Y-121493663D01*
X132600640Y-121493663D01*
X132600869Y-121231037D01*
X132452307Y-120871488D01*
X132177459Y-120596160D01*
X132015741Y-120529009D01*
X131990254Y-120467326D01*
X132142011Y-120530341D01*
X132531044Y-120530680D01*
X132890593Y-120382118D01*
X133165921Y-120107270D01*
X133301739Y-119780185D01*
X133516454Y-119780372D01*
X133876003Y-119631810D01*
X134151331Y-119356962D01*
X134213173Y-119208029D01*
X134403212Y-119129507D01*
X134678540Y-118854659D01*
X134766153Y-118643663D01*
X135571931Y-118643663D01*
X135720493Y-119003212D01*
X135995341Y-119278540D01*
X136354630Y-119427730D01*
X136743663Y-119428069D01*
X137103212Y-119279507D01*
X137378540Y-119004659D01*
X137527730Y-118645370D01*
X137528069Y-118256337D01*
X137379507Y-117896788D01*
X137104659Y-117621460D01*
X136745370Y-117472270D01*
X136356337Y-117471931D01*
X135996788Y-117620493D01*
X135721460Y-117895341D01*
X135572270Y-118254630D01*
X135571931Y-118643663D01*
X134766153Y-118643663D01*
X134827730Y-118495370D01*
X134828069Y-118106337D01*
X134679507Y-117746788D01*
X134404659Y-117471460D01*
X134136812Y-117360240D01*
X134453212Y-117229507D01*
X134728540Y-116954659D01*
X134877730Y-116595370D01*
X134877862Y-116443663D01*
X135521931Y-116443663D01*
X135670493Y-116803212D01*
X135945341Y-117078540D01*
X136304630Y-117227730D01*
X136693663Y-117228069D01*
X137053212Y-117079507D01*
X137328540Y-116804659D01*
X137477730Y-116445370D01*
X137478069Y-116056337D01*
X137329507Y-115696788D01*
X137054659Y-115421460D01*
X136695370Y-115272270D01*
X136306337Y-115271931D01*
X135946788Y-115420493D01*
X135671460Y-115695341D01*
X135522270Y-116054630D01*
X135521931Y-116443663D01*
X134877862Y-116443663D01*
X134878069Y-116206337D01*
X134787817Y-115987909D01*
X134788010Y-115766278D01*
X134639448Y-115406729D01*
X134364600Y-115131401D01*
X134005311Y-114982211D01*
X133616278Y-114981872D01*
X133256729Y-115130434D01*
X132981401Y-115405282D01*
X132832211Y-115764571D01*
X132831988Y-116020522D01*
X132595370Y-115922270D01*
X132206337Y-115921931D01*
X131974875Y-116017569D01*
X131745370Y-115922270D01*
X131356337Y-115921931D01*
X130996788Y-116070493D01*
X130721460Y-116345341D01*
X130572270Y-116704630D01*
X130572228Y-116752852D01*
X130262568Y-116624270D01*
X129873535Y-116623931D01*
X129513986Y-116772493D01*
X129238658Y-117047341D01*
X129089468Y-117406630D01*
X129089129Y-117795663D01*
X127878646Y-117795663D01*
X127754659Y-117671460D01*
X127727000Y-117659975D01*
X127727000Y-115852606D01*
X128072180Y-115507426D01*
X128071931Y-115793663D01*
X128220493Y-116153212D01*
X128495341Y-116428540D01*
X128854630Y-116577730D01*
X129243663Y-116578069D01*
X129603212Y-116429507D01*
X129878540Y-116154659D01*
X130027730Y-115795370D01*
X130028069Y-115406337D01*
X129879507Y-115046788D01*
X129632960Y-114799811D01*
X129878540Y-114554659D01*
X130027730Y-114195370D01*
X130027881Y-114022612D01*
X130253212Y-113929507D01*
X130528540Y-113654659D01*
X130677730Y-113295370D01*
X130678069Y-112906337D01*
X130676666Y-112902940D01*
X131112575Y-112467031D01*
X131319270Y-112381627D01*
X131594598Y-112106779D01*
X131681067Y-111898539D01*
X132052606Y-111527000D01*
X134547394Y-111527000D01*
X135177475Y-112157081D01*
X135177475Y-112157081D01*
G37*
X135177475Y-112157081D02*
X135229233Y-112282345D01*
X135068539Y-112348742D01*
X134793211Y-112623590D01*
X134644021Y-112982879D01*
X134643682Y-113371912D01*
X134792244Y-113731461D01*
X134838854Y-113778152D01*
X134721460Y-113895341D01*
X134572270Y-114254630D01*
X134571931Y-114643663D01*
X134720493Y-115003212D01*
X134995341Y-115278540D01*
X135354630Y-115427730D01*
X135743663Y-115428069D01*
X136103212Y-115279507D01*
X136378540Y-115004659D01*
X136527730Y-114645370D01*
X136528069Y-114256337D01*
X136379507Y-113896788D01*
X136332897Y-113850097D01*
X136450291Y-113732908D01*
X136539196Y-113518802D01*
X136772055Y-113751661D01*
X136771931Y-113893663D01*
X136920493Y-114253212D01*
X137195341Y-114528540D01*
X137554630Y-114677730D01*
X137698249Y-114677855D01*
X138273000Y-115252606D01*
X138273000Y-115389003D01*
X138196788Y-115420493D01*
X137921460Y-115695341D01*
X137772270Y-116054630D01*
X137771931Y-116443663D01*
X137920493Y-116803212D01*
X138195341Y-117078540D01*
X138273000Y-117110787D01*
X138273000Y-117589003D01*
X138196788Y-117620493D01*
X137921460Y-117895341D01*
X137772270Y-118254630D01*
X137771931Y-118643663D01*
X137920493Y-119003212D01*
X138195341Y-119278540D01*
X138273000Y-119310787D01*
X138273000Y-123787552D01*
X137995370Y-123672270D01*
X137606337Y-123671931D01*
X137246788Y-123820493D01*
X136971460Y-124095341D01*
X136822270Y-124454630D01*
X136821931Y-124843663D01*
X136970493Y-125203212D01*
X137245341Y-125478540D01*
X137604630Y-125627730D01*
X137993663Y-125628069D01*
X138273000Y-125512650D01*
X138273000Y-130793891D01*
X138221460Y-130845341D01*
X138112395Y-131107999D01*
X135703381Y-133517013D01*
X135681580Y-133531580D01*
X135667013Y-133553381D01*
X134947394Y-134273000D01*
X131427880Y-134273000D01*
X131428069Y-134056337D01*
X131279507Y-133696788D01*
X131004659Y-133421460D01*
X130645370Y-133272270D01*
X130256337Y-133271931D01*
X129896788Y-133420493D01*
X129758285Y-133558755D01*
X129758542Y-133263271D01*
X129746201Y-133233405D01*
X131582243Y-131397363D01*
X132283031Y-131397363D01*
X132431593Y-131756912D01*
X132706441Y-132032240D01*
X133065730Y-132181430D01*
X133454763Y-132181769D01*
X133649650Y-132101244D01*
X133903930Y-132206830D01*
X134292963Y-132207169D01*
X134652512Y-132058607D01*
X134927840Y-131783759D01*
X135077030Y-131424470D01*
X135077369Y-131035437D01*
X134928807Y-130675888D01*
X134840910Y-130587837D01*
X134927840Y-130501059D01*
X135077030Y-130141770D01*
X135077369Y-129752737D01*
X134928807Y-129393188D01*
X134653959Y-129117860D01*
X134555798Y-129077100D01*
X134728540Y-128904659D01*
X134877730Y-128545370D01*
X134878069Y-128156337D01*
X134729507Y-127796788D01*
X134454659Y-127521460D01*
X134095370Y-127372270D01*
X133706337Y-127371931D01*
X133346788Y-127520493D01*
X133071460Y-127795341D01*
X132922270Y-128154630D01*
X132921931Y-128543663D01*
X133070493Y-128903212D01*
X133135514Y-128968346D01*
X133118237Y-128968331D01*
X132758688Y-129116893D01*
X132483360Y-129391741D01*
X132334170Y-129751030D01*
X132333831Y-130140063D01*
X132482393Y-130499612D01*
X132532234Y-130549540D01*
X132432560Y-130649041D01*
X132283370Y-131008330D01*
X132283031Y-131397363D01*
X131582243Y-131397363D01*
X131689803Y-131289803D01*
X131717666Y-131247789D01*
X131727000Y-131200000D01*
X131727000Y-126000000D01*
X131716994Y-125950590D01*
X131689803Y-125910197D01*
X130573269Y-124793663D01*
X132171931Y-124793663D01*
X132320493Y-125153212D01*
X132595341Y-125428540D01*
X132954630Y-125577730D01*
X133343663Y-125578069D01*
X133703212Y-125429507D01*
X133978540Y-125154659D01*
X134127730Y-124795370D01*
X134128069Y-124406337D01*
X133979507Y-124046788D01*
X133704659Y-123771460D01*
X133345370Y-123622270D01*
X132956337Y-123621931D01*
X132596788Y-123770493D01*
X132321460Y-124045341D01*
X132172270Y-124404630D01*
X132171931Y-124793663D01*
X130573269Y-124793663D01*
X129222512Y-123442906D01*
X129222669Y-123263037D01*
X129074107Y-122903488D01*
X128799259Y-122628160D01*
X128439970Y-122478970D01*
X128258418Y-122478812D01*
X128202112Y-122422506D01*
X128129507Y-122246788D01*
X127854659Y-121971460D01*
X127727000Y-121918451D01*
X127727000Y-119340338D01*
X127753212Y-119329507D01*
X128028540Y-119054659D01*
X128177730Y-118695370D01*
X128178069Y-118306337D01*
X128029507Y-117946788D01*
X127878646Y-117795663D01*
X129089129Y-117795663D01*
X129237691Y-118155212D01*
X129512539Y-118430540D01*
X129871828Y-118579730D01*
X130260861Y-118580069D01*
X130620410Y-118431507D01*
X130734686Y-118317430D01*
X130942083Y-118525189D01*
X130671460Y-118795341D01*
X130522270Y-119154630D01*
X130521931Y-119543663D01*
X130670493Y-119903212D01*
X130738083Y-119970920D01*
X130548888Y-120049093D01*
X130273560Y-120323941D01*
X130124370Y-120683230D01*
X130124031Y-121072263D01*
X130272593Y-121431812D01*
X130547441Y-121707140D01*
X130709159Y-121774291D01*
X130793293Y-121977912D01*
X131068141Y-122253240D01*
X131427430Y-122402430D01*
X131816463Y-122402769D01*
X132176012Y-122254207D01*
X132451340Y-121979359D01*
X132600530Y-121620070D01*
X132600640Y-121493663D01*
X135421931Y-121493663D01*
X135570493Y-121853212D01*
X135845341Y-122128540D01*
X136204630Y-122277730D01*
X136593663Y-122278069D01*
X136953212Y-122129507D01*
X137228540Y-121854659D01*
X137377730Y-121495370D01*
X137378069Y-121106337D01*
X137229507Y-120746788D01*
X136954659Y-120471460D01*
X136595370Y-120322270D01*
X136206337Y-120321931D01*
X135846788Y-120470493D01*
X135571460Y-120745341D01*
X135422270Y-121104630D01*
X135421931Y-121493663D01*
X132600640Y-121493663D01*
X132600869Y-121231037D01*
X132452307Y-120871488D01*
X132177459Y-120596160D01*
X132015741Y-120529009D01*
X131990254Y-120467326D01*
X132142011Y-120530341D01*
X132531044Y-120530680D01*
X132890593Y-120382118D01*
X133165921Y-120107270D01*
X133301739Y-119780185D01*
X133516454Y-119780372D01*
X133876003Y-119631810D01*
X134151331Y-119356962D01*
X134213173Y-119208029D01*
X134403212Y-119129507D01*
X134678540Y-118854659D01*
X134766153Y-118643663D01*
X135571931Y-118643663D01*
X135720493Y-119003212D01*
X135995341Y-119278540D01*
X136354630Y-119427730D01*
X136743663Y-119428069D01*
X137103212Y-119279507D01*
X137378540Y-119004659D01*
X137527730Y-118645370D01*
X137528069Y-118256337D01*
X137379507Y-117896788D01*
X137104659Y-117621460D01*
X136745370Y-117472270D01*
X136356337Y-117471931D01*
X135996788Y-117620493D01*
X135721460Y-117895341D01*
X135572270Y-118254630D01*
X135571931Y-118643663D01*
X134766153Y-118643663D01*
X134827730Y-118495370D01*
X134828069Y-118106337D01*
X134679507Y-117746788D01*
X134404659Y-117471460D01*
X134136812Y-117360240D01*
X134453212Y-117229507D01*
X134728540Y-116954659D01*
X134877730Y-116595370D01*
X134877862Y-116443663D01*
X135521931Y-116443663D01*
X135670493Y-116803212D01*
X135945341Y-117078540D01*
X136304630Y-117227730D01*
X136693663Y-117228069D01*
X137053212Y-117079507D01*
X137328540Y-116804659D01*
X137477730Y-116445370D01*
X137478069Y-116056337D01*
X137329507Y-115696788D01*
X137054659Y-115421460D01*
X136695370Y-115272270D01*
X136306337Y-115271931D01*
X135946788Y-115420493D01*
X135671460Y-115695341D01*
X135522270Y-116054630D01*
X135521931Y-116443663D01*
X134877862Y-116443663D01*
X134878069Y-116206337D01*
X134787817Y-115987909D01*
X134788010Y-115766278D01*
X134639448Y-115406729D01*
X134364600Y-115131401D01*
X134005311Y-114982211D01*
X133616278Y-114981872D01*
X133256729Y-115130434D01*
X132981401Y-115405282D01*
X132832211Y-115764571D01*
X132831988Y-116020522D01*
X132595370Y-115922270D01*
X132206337Y-115921931D01*
X131974875Y-116017569D01*
X131745370Y-115922270D01*
X131356337Y-115921931D01*
X130996788Y-116070493D01*
X130721460Y-116345341D01*
X130572270Y-116704630D01*
X130572228Y-116752852D01*
X130262568Y-116624270D01*
X129873535Y-116623931D01*
X129513986Y-116772493D01*
X129238658Y-117047341D01*
X129089468Y-117406630D01*
X129089129Y-117795663D01*
X127878646Y-117795663D01*
X127754659Y-117671460D01*
X127727000Y-117659975D01*
X127727000Y-115852606D01*
X128072180Y-115507426D01*
X128071931Y-115793663D01*
X128220493Y-116153212D01*
X128495341Y-116428540D01*
X128854630Y-116577730D01*
X129243663Y-116578069D01*
X129603212Y-116429507D01*
X129878540Y-116154659D01*
X130027730Y-115795370D01*
X130028069Y-115406337D01*
X129879507Y-115046788D01*
X129632960Y-114799811D01*
X129878540Y-114554659D01*
X130027730Y-114195370D01*
X130027881Y-114022612D01*
X130253212Y-113929507D01*
X130528540Y-113654659D01*
X130677730Y-113295370D01*
X130678069Y-112906337D01*
X130676666Y-112902940D01*
X131112575Y-112467031D01*
X131319270Y-112381627D01*
X131594598Y-112106779D01*
X131681067Y-111898539D01*
X132052606Y-111527000D01*
X134547394Y-111527000D01*
X135177475Y-112157081D01*
G36*
X135797888Y-102877494D02*
X135870493Y-103053212D01*
X136145341Y-103328540D01*
X136322495Y-103402101D01*
X139610197Y-106689803D01*
X139652211Y-106717666D01*
X139700000Y-106727000D01*
X140558314Y-106727000D01*
X140422270Y-107054630D01*
X140421931Y-107443663D01*
X140570493Y-107803212D01*
X140845341Y-108078540D01*
X141204630Y-108227730D01*
X141593663Y-108228069D01*
X141953212Y-108079507D01*
X142228540Y-107804659D01*
X142377730Y-107445370D01*
X142378069Y-107056337D01*
X142241990Y-106727000D01*
X142737552Y-106727000D01*
X142622270Y-107004630D01*
X142621931Y-107393663D01*
X142770493Y-107753212D01*
X143045341Y-108028540D01*
X143404630Y-108177730D01*
X143793663Y-108178069D01*
X144153212Y-108029507D01*
X144428540Y-107754659D01*
X144577730Y-107395370D01*
X144578069Y-107006337D01*
X144462650Y-106727000D01*
X147902872Y-106727000D01*
X147904630Y-106727730D01*
X148293663Y-106728069D01*
X148296250Y-106727000D01*
X151290000Y-106727000D01*
X151290000Y-108543193D01*
X151229507Y-108396788D01*
X150954659Y-108121460D01*
X150595370Y-107972270D01*
X150206337Y-107971931D01*
X149846788Y-108120493D01*
X149571460Y-108395341D01*
X149422270Y-108754630D01*
X149421931Y-109143663D01*
X149570493Y-109503212D01*
X149845341Y-109778540D01*
X150204630Y-109927730D01*
X150593663Y-109928069D01*
X150953212Y-109779507D01*
X151228540Y-109504659D01*
X151290000Y-109356647D01*
X151290000Y-114722183D01*
X151279507Y-114696788D01*
X151004659Y-114421460D01*
X150645370Y-114272270D01*
X150256337Y-114271931D01*
X149896788Y-114420493D01*
X149621460Y-114695341D01*
X149472270Y-115054630D01*
X149471931Y-115443663D01*
X149620493Y-115803212D01*
X149895341Y-116078540D01*
X150254630Y-116227730D01*
X150643663Y-116228069D01*
X151003212Y-116079507D01*
X151278540Y-115804659D01*
X151290000Y-115777060D01*
X151290000Y-120015373D01*
X150945370Y-119872270D01*
X150556337Y-119871931D01*
X150196788Y-120020493D01*
X149921460Y-120295341D01*
X149772270Y-120654630D01*
X149771931Y-121043663D01*
X149920493Y-121403212D01*
X150195341Y-121678540D01*
X150554630Y-121827730D01*
X150943663Y-121828069D01*
X151290000Y-121684966D01*
X151290000Y-150768230D01*
X150474942Y-150765145D01*
X150803212Y-150629507D01*
X151078540Y-150354659D01*
X151227730Y-149995370D01*
X151228069Y-149606337D01*
X151079507Y-149246788D01*
X150804659Y-148971460D01*
X150445370Y-148822270D01*
X150056337Y-148821931D01*
X149696788Y-148970493D01*
X149421460Y-149245341D01*
X149272270Y-149604630D01*
X149271931Y-149993663D01*
X149420493Y-150353212D01*
X149695341Y-150628540D01*
X150020176Y-150763423D01*
X139943447Y-150725281D01*
X139695370Y-150622270D01*
X139306337Y-150621931D01*
X139064264Y-150721953D01*
X136144481Y-150710901D01*
X136095033Y-150720720D01*
X136053955Y-150748340D01*
X135344632Y-151461503D01*
X135304659Y-151421460D01*
X134945370Y-151272270D01*
X134556337Y-151271931D01*
X134196788Y-151420493D01*
X133921460Y-151695341D01*
X133772270Y-152054630D01*
X133771931Y-152443663D01*
X133786962Y-152480041D01*
X133671460Y-152595341D01*
X133522270Y-152954630D01*
X133521974Y-153294026D01*
X132709955Y-154110440D01*
X132682206Y-154152529D01*
X132673000Y-154200000D01*
X132673000Y-158273000D01*
X130127000Y-158273000D01*
X130127000Y-157710080D01*
X130195341Y-157778540D01*
X130554630Y-157927730D01*
X130943663Y-157928069D01*
X131303212Y-157779507D01*
X131578540Y-157504659D01*
X131727730Y-157145370D01*
X131728069Y-156756337D01*
X131579507Y-156396788D01*
X131304659Y-156121460D01*
X130945370Y-155972270D01*
X130556337Y-155971931D01*
X130491340Y-155998787D01*
X130491340Y-154940900D01*
X130447062Y-154705583D01*
X130307990Y-154489459D01*
X130127000Y-154365794D01*
X130127000Y-154220207D01*
X130394954Y-153819185D01*
X130507993Y-153250900D01*
X130498770Y-153204535D01*
X130554630Y-153227730D01*
X130943663Y-153228069D01*
X131303212Y-153079507D01*
X131578540Y-152804659D01*
X131727730Y-152445370D01*
X131728069Y-152056337D01*
X131609713Y-151769893D01*
X133585943Y-149793663D01*
X136671931Y-149793663D01*
X136820493Y-150153212D01*
X137095341Y-150428540D01*
X137454630Y-150577730D01*
X137843663Y-150578069D01*
X138203212Y-150429507D01*
X138478540Y-150154659D01*
X138627730Y-149795370D01*
X138628069Y-149406337D01*
X138479507Y-149046788D01*
X138204659Y-148771460D01*
X137845370Y-148622270D01*
X137456337Y-148621931D01*
X137096788Y-148770493D01*
X136821460Y-149045341D01*
X136672270Y-149404630D01*
X136671931Y-149793663D01*
X133585943Y-149793663D01*
X134199386Y-149180220D01*
X134554630Y-149327730D01*
X134943663Y-149328069D01*
X135303212Y-149179507D01*
X135578540Y-148904659D01*
X135727730Y-148545370D01*
X135728069Y-148156337D01*
X135580475Y-147799131D01*
X135826028Y-147553578D01*
X135970493Y-147903212D01*
X136245341Y-148178540D01*
X136604630Y-148327730D01*
X136993663Y-148328069D01*
X137353212Y-148179507D01*
X137389118Y-148143663D01*
X138571931Y-148143663D01*
X138720493Y-148503212D01*
X138995341Y-148778540D01*
X139354630Y-148927730D01*
X139488984Y-148927847D01*
X139471460Y-148945341D01*
X139322270Y-149304630D01*
X139321931Y-149693663D01*
X139470493Y-150053212D01*
X139745341Y-150328540D01*
X140104630Y-150477730D01*
X140493663Y-150478069D01*
X140853212Y-150329507D01*
X141128540Y-150054659D01*
X141277730Y-149695370D01*
X141278069Y-149306337D01*
X141129507Y-148946788D01*
X140876824Y-148693663D01*
X143771931Y-148693663D01*
X143920493Y-149053212D01*
X144195341Y-149328540D01*
X144554630Y-149477730D01*
X144943663Y-149478069D01*
X145026932Y-149443663D01*
X146121931Y-149443663D01*
X146270493Y-149803212D01*
X146545341Y-150078540D01*
X146904630Y-150227730D01*
X147293663Y-150228069D01*
X147653212Y-150079507D01*
X147928540Y-149804659D01*
X148077730Y-149445370D01*
X148078069Y-149056337D01*
X147929507Y-148696788D01*
X147654659Y-148421460D01*
X147295370Y-148272270D01*
X146906337Y-148271931D01*
X146546788Y-148420493D01*
X146271460Y-148695341D01*
X146122270Y-149054630D01*
X146121931Y-149443663D01*
X145026932Y-149443663D01*
X145303212Y-149329507D01*
X145578540Y-149054659D01*
X145727730Y-148695370D01*
X145728069Y-148306337D01*
X145579507Y-147946788D01*
X145304659Y-147671460D01*
X144945370Y-147522270D01*
X144556337Y-147521931D01*
X144196788Y-147670493D01*
X143921460Y-147945341D01*
X143772270Y-148304630D01*
X143771931Y-148693663D01*
X140876824Y-148693663D01*
X140854659Y-148671460D01*
X140509263Y-148528039D01*
X140543663Y-148528069D01*
X140903212Y-148379507D01*
X141178540Y-148104659D01*
X141327730Y-147745370D01*
X141328069Y-147356337D01*
X141179507Y-146996788D01*
X140904659Y-146721460D01*
X140545370Y-146572270D01*
X140255041Y-146572017D01*
X140154659Y-146471460D01*
X139795370Y-146322270D01*
X139406337Y-146321931D01*
X139046788Y-146470493D01*
X138771460Y-146745341D01*
X138622270Y-147104630D01*
X138621931Y-147493663D01*
X138651210Y-147564523D01*
X138572270Y-147754630D01*
X138571931Y-148143663D01*
X137389118Y-148143663D01*
X137628540Y-147904659D01*
X137777730Y-147545370D01*
X137778069Y-147156337D01*
X137629507Y-146796788D01*
X137354659Y-146521460D01*
X137003825Y-146375781D01*
X137623223Y-145756383D01*
X137645341Y-145778540D01*
X138004630Y-145927730D01*
X138393663Y-145928069D01*
X138753212Y-145779507D01*
X138939380Y-145593663D01*
X140171931Y-145593663D01*
X140320493Y-145953212D01*
X140595341Y-146228540D01*
X140954630Y-146377730D01*
X141343663Y-146378069D01*
X141499940Y-146313497D01*
X141654630Y-146377730D01*
X141768686Y-146377829D01*
X141820493Y-146503212D01*
X142095341Y-146778540D01*
X142454630Y-146927730D01*
X142843663Y-146928069D01*
X143203212Y-146779507D01*
X143478540Y-146504659D01*
X143627730Y-146145370D01*
X143628069Y-145756337D01*
X143479507Y-145396788D01*
X143204659Y-145121460D01*
X142845370Y-144972270D01*
X142731314Y-144972171D01*
X142689087Y-144869973D01*
X145337311Y-144869973D01*
X145485873Y-145229522D01*
X145760721Y-145504850D01*
X146120010Y-145654040D01*
X146126322Y-145654046D01*
X146022270Y-145904630D01*
X146021931Y-146293663D01*
X146170493Y-146653212D01*
X146445341Y-146928540D01*
X146804630Y-147077730D01*
X147193663Y-147078069D01*
X147194827Y-147077588D01*
X147445341Y-147328540D01*
X147804630Y-147477730D01*
X148193663Y-147478069D01*
X148553212Y-147329507D01*
X148828540Y-147054659D01*
X148977730Y-146695370D01*
X148978069Y-146306337D01*
X148898914Y-146114767D01*
X148927730Y-146045370D01*
X148927760Y-146010841D01*
X148995341Y-146078540D01*
X149045259Y-146099268D01*
X149022270Y-146154630D01*
X149021931Y-146543663D01*
X149170493Y-146903212D01*
X149445341Y-147178540D01*
X149804630Y-147327730D01*
X150193663Y-147328069D01*
X150553212Y-147179507D01*
X150828540Y-146904659D01*
X150977730Y-146545370D01*
X150978069Y-146156337D01*
X150829507Y-145796788D01*
X150607917Y-145574811D01*
X150878540Y-145304659D01*
X151027730Y-144945370D01*
X151028069Y-144556337D01*
X150879507Y-144196788D01*
X150604659Y-143921460D01*
X150245370Y-143772270D01*
X149856337Y-143771931D01*
X149642118Y-143860444D01*
X149642283Y-143670551D01*
X149493721Y-143311002D01*
X149218873Y-143035674D01*
X148859584Y-142886484D01*
X148470551Y-142886145D01*
X148111002Y-143034707D01*
X147835674Y-143309555D01*
X147686484Y-143668844D01*
X147686367Y-143803223D01*
X147654659Y-143771460D01*
X147295370Y-143622270D01*
X146906337Y-143621931D01*
X146615531Y-143742089D01*
X146510750Y-143698580D01*
X146121717Y-143698241D01*
X145762168Y-143846803D01*
X145486840Y-144121651D01*
X145337650Y-144480940D01*
X145337311Y-144869973D01*
X142689087Y-144869973D01*
X142679507Y-144846788D01*
X142404659Y-144571460D01*
X142045370Y-144422270D01*
X141656337Y-144421931D01*
X141500060Y-144486503D01*
X141345370Y-144422270D01*
X140956337Y-144421931D01*
X140596788Y-144570493D01*
X140321460Y-144845341D01*
X140172270Y-145204630D01*
X140171931Y-145593663D01*
X138939380Y-145593663D01*
X139028540Y-145504659D01*
X139177730Y-145145370D01*
X139178069Y-144756337D01*
X139029507Y-144396788D01*
X138754659Y-144121460D01*
X138395370Y-143972270D01*
X138327000Y-143972210D01*
X138327000Y-142127000D01*
X141672163Y-142127000D01*
X141671931Y-142393663D01*
X141820493Y-142753212D01*
X142095341Y-143028540D01*
X142454630Y-143177730D01*
X142843663Y-143178069D01*
X143203212Y-143029507D01*
X143478540Y-142754659D01*
X143627730Y-142395370D01*
X143628069Y-142006337D01*
X143479507Y-141646788D01*
X143406226Y-141573380D01*
X144389803Y-140589803D01*
X144417666Y-140547789D01*
X144427000Y-140500000D01*
X144427000Y-139593663D01*
X147121931Y-139593663D01*
X147270493Y-139953212D01*
X147545341Y-140228540D01*
X147904630Y-140377730D01*
X148293663Y-140378069D01*
X148653212Y-140229507D01*
X148928540Y-139954659D01*
X149077730Y-139595370D01*
X149078069Y-139206337D01*
X148929507Y-138846788D01*
X148654659Y-138571460D01*
X148295370Y-138422270D01*
X147906337Y-138421931D01*
X147546788Y-138570493D01*
X147271460Y-138845341D01*
X147122270Y-139204630D01*
X147121931Y-139593663D01*
X144427000Y-139593663D01*
X144427000Y-138559905D01*
X144595341Y-138728540D01*
X144954630Y-138877730D01*
X145343663Y-138878069D01*
X145521637Y-138804532D01*
X145695341Y-138978540D01*
X146054630Y-139127730D01*
X146443663Y-139128069D01*
X146803212Y-138979507D01*
X147078540Y-138704659D01*
X147227730Y-138345370D01*
X147228069Y-137956337D01*
X147173852Y-137825122D01*
X147227730Y-137695370D01*
X147228069Y-137306337D01*
X147079507Y-136946788D01*
X146804659Y-136671460D01*
X146445370Y-136522270D01*
X146327750Y-136522168D01*
X146328069Y-136156337D01*
X146179507Y-135796788D01*
X145904659Y-135521460D01*
X145545370Y-135372270D01*
X145377881Y-135372124D01*
X145377905Y-135343663D01*
X147171931Y-135343663D01*
X147320493Y-135703212D01*
X147595341Y-135978540D01*
X147954630Y-136127730D01*
X148343663Y-136128069D01*
X148703212Y-135979507D01*
X148978540Y-135704659D01*
X149127730Y-135345370D01*
X149128069Y-134956337D01*
X148979507Y-134596788D01*
X148704659Y-134321460D01*
X148345370Y-134172270D01*
X147956337Y-134171931D01*
X147596788Y-134320493D01*
X147321460Y-134595341D01*
X147172270Y-134954630D01*
X147171931Y-135343663D01*
X145377905Y-135343663D01*
X145378069Y-135156337D01*
X145313497Y-135000060D01*
X145377730Y-134845370D01*
X145378069Y-134456337D01*
X145229507Y-134096788D01*
X144954659Y-133821460D01*
X144627826Y-133685747D01*
X144628069Y-133406337D01*
X144479507Y-133046788D01*
X144427000Y-132994189D01*
X144427000Y-132893635D01*
X144703212Y-132779507D01*
X144978540Y-132504659D01*
X145107676Y-132193663D01*
X146921931Y-132193663D01*
X147070493Y-132553212D01*
X147345341Y-132828540D01*
X147704630Y-132977730D01*
X148093663Y-132978069D01*
X148453212Y-132829507D01*
X148728540Y-132554659D01*
X148877730Y-132195370D01*
X148878069Y-131806337D01*
X148729507Y-131446788D01*
X148454659Y-131171460D01*
X148095370Y-131022270D01*
X147706337Y-131021931D01*
X147346788Y-131170493D01*
X147071460Y-131445341D01*
X146922270Y-131804630D01*
X146921931Y-132193663D01*
X145107676Y-132193663D01*
X145127730Y-132145370D01*
X145128069Y-131756337D01*
X144987837Y-131416948D01*
X145254630Y-131527730D01*
X145643663Y-131528069D01*
X146003212Y-131379507D01*
X146278540Y-131104659D01*
X146427730Y-130745370D01*
X146428069Y-130356337D01*
X146279507Y-129996788D01*
X146004659Y-129721460D01*
X145696891Y-129593663D01*
X147371931Y-129593663D01*
X147520493Y-129953212D01*
X147795341Y-130228540D01*
X148154630Y-130377730D01*
X148543663Y-130378069D01*
X148903212Y-130229507D01*
X149178540Y-129954659D01*
X149327730Y-129595370D01*
X149328069Y-129206337D01*
X149179507Y-128846788D01*
X148904659Y-128571460D01*
X148545370Y-128422270D01*
X148156337Y-128421931D01*
X147796788Y-128570493D01*
X147521460Y-128845341D01*
X147372270Y-129204630D01*
X147371931Y-129593663D01*
X145696891Y-129593663D01*
X145645370Y-129572270D01*
X145345907Y-129572009D01*
X145377730Y-129495370D01*
X145378069Y-129106337D01*
X145328080Y-128985354D01*
X145372763Y-128877746D01*
X145743663Y-128878069D01*
X146103212Y-128729507D01*
X146378540Y-128454659D01*
X146527730Y-128095370D01*
X146528069Y-127706337D01*
X146379507Y-127346788D01*
X146104659Y-127071460D01*
X145745370Y-126922270D01*
X145356337Y-126921931D01*
X144996788Y-127070493D01*
X144721460Y-127345341D01*
X144627237Y-127572254D01*
X144427000Y-127572080D01*
X144427000Y-126693663D01*
X147521931Y-126693663D01*
X147670493Y-127053212D01*
X147945341Y-127328540D01*
X148304630Y-127477730D01*
X148693663Y-127478069D01*
X149053212Y-127329507D01*
X149328540Y-127054659D01*
X149477730Y-126695370D01*
X149478069Y-126306337D01*
X149329507Y-125946788D01*
X149054659Y-125671460D01*
X148695370Y-125522270D01*
X148306337Y-125521931D01*
X147946788Y-125670493D01*
X147671460Y-125945341D01*
X147522270Y-126304630D01*
X147521931Y-126693663D01*
X144427000Y-126693663D01*
X144427000Y-125616257D01*
X144454630Y-125627730D01*
X144843663Y-125628069D01*
X145203212Y-125479507D01*
X145478540Y-125204659D01*
X145627730Y-124845370D01*
X145627852Y-124705084D01*
X145778540Y-124554659D01*
X145927730Y-124195370D01*
X145928069Y-123806337D01*
X145779507Y-123446788D01*
X145623298Y-123290306D01*
X145623371Y-123206337D01*
X145556156Y-123043663D01*
X145871931Y-123043663D01*
X146020493Y-123403212D01*
X146295341Y-123678540D01*
X146654630Y-123827730D01*
X147043663Y-123828069D01*
X147403212Y-123679507D01*
X147678540Y-123404659D01*
X147827730Y-123045370D01*
X147828069Y-122656337D01*
X147679507Y-122296788D01*
X147404659Y-122021460D01*
X147045370Y-121872270D01*
X146656337Y-121871931D01*
X146296788Y-122020493D01*
X146021460Y-122295341D01*
X145872270Y-122654630D01*
X145871931Y-123043663D01*
X145556156Y-123043663D01*
X145474809Y-122846788D01*
X145199961Y-122571460D01*
X145136342Y-122545043D01*
X145177730Y-122445370D01*
X145178069Y-122056337D01*
X145029507Y-121696788D01*
X144754659Y-121421460D01*
X144427000Y-121285404D01*
X144427000Y-118409992D01*
X144545341Y-118528540D01*
X144904630Y-118677730D01*
X144959984Y-118677778D01*
X144970493Y-118703212D01*
X145245341Y-118978540D01*
X145604630Y-119127730D01*
X145993663Y-119128069D01*
X146353212Y-118979507D01*
X146628540Y-118704659D01*
X146777730Y-118345370D01*
X146777862Y-118193663D01*
X147221931Y-118193663D01*
X147370493Y-118553212D01*
X147645341Y-118828540D01*
X148004630Y-118977730D01*
X148393663Y-118978069D01*
X148753212Y-118829507D01*
X149028540Y-118554659D01*
X149177730Y-118195370D01*
X149178069Y-117806337D01*
X149029507Y-117446788D01*
X148754659Y-117171460D01*
X148395370Y-117022270D01*
X148006337Y-117021931D01*
X147646788Y-117170493D01*
X147371460Y-117445341D01*
X147222270Y-117804630D01*
X147221931Y-118193663D01*
X146777862Y-118193663D01*
X146778069Y-117956337D01*
X146713497Y-117800060D01*
X146777730Y-117645370D01*
X146778069Y-117256337D01*
X146629507Y-116896788D01*
X146354659Y-116621460D01*
X145995370Y-116472270D01*
X145606337Y-116471931D01*
X145246788Y-116620493D01*
X145144965Y-116722139D01*
X144906337Y-116721931D01*
X144546788Y-116870493D01*
X144427000Y-116990073D01*
X144427000Y-116897128D01*
X144427730Y-116895370D01*
X144428069Y-116506337D01*
X144427000Y-116503750D01*
X144427000Y-115243663D01*
X145071931Y-115243663D01*
X145220493Y-115603212D01*
X145495341Y-115878540D01*
X145854630Y-116027730D01*
X146243663Y-116028069D01*
X146603212Y-115879507D01*
X146878540Y-115604659D01*
X147027730Y-115245370D01*
X147028069Y-114856337D01*
X146879507Y-114496788D01*
X146604659Y-114221460D01*
X146245370Y-114072270D01*
X145856337Y-114071931D01*
X145496788Y-114220493D01*
X145221460Y-114495341D01*
X145072270Y-114854630D01*
X145071931Y-115243663D01*
X144427000Y-115243663D01*
X144427000Y-114356196D01*
X144428540Y-114354659D01*
X144577730Y-113995370D01*
X144578069Y-113606337D01*
X144429507Y-113246788D01*
X144154659Y-112971460D01*
X143795370Y-112822270D01*
X143406337Y-112821931D01*
X143046788Y-112970493D01*
X142771460Y-113245341D01*
X142622270Y-113604630D01*
X142622036Y-113873000D01*
X142466257Y-113873000D01*
X142477730Y-113845370D01*
X142478069Y-113456337D01*
X142329507Y-113096788D01*
X142054659Y-112821460D01*
X141695370Y-112672270D01*
X141306337Y-112671931D01*
X140946788Y-112820493D01*
X140671460Y-113095341D01*
X140522270Y-113454630D01*
X140521931Y-113843663D01*
X140534053Y-113873000D01*
X138852606Y-113873000D01*
X138727858Y-113748252D01*
X138728069Y-113506337D01*
X138579507Y-113146788D01*
X138304659Y-112871460D01*
X137945370Y-112722270D01*
X137701664Y-112722058D01*
X137523269Y-112543663D01*
X145321931Y-112543663D01*
X145470493Y-112903212D01*
X145745341Y-113178540D01*
X146104630Y-113327730D01*
X146493663Y-113328069D01*
X146853212Y-113179507D01*
X147128540Y-112904659D01*
X147277730Y-112545370D01*
X147278069Y-112156337D01*
X147129507Y-111796788D01*
X146854659Y-111521460D01*
X146787717Y-111493663D01*
X147921931Y-111493663D01*
X148070493Y-111853212D01*
X148345341Y-112128540D01*
X148704630Y-112277730D01*
X149093663Y-112278069D01*
X149453212Y-112129507D01*
X149728540Y-111854659D01*
X149877730Y-111495370D01*
X149878069Y-111106337D01*
X149729507Y-110746788D01*
X149454659Y-110471460D01*
X149095370Y-110322270D01*
X148706337Y-110321931D01*
X148346788Y-110470493D01*
X148071460Y-110745341D01*
X147922270Y-111104630D01*
X147921931Y-111493663D01*
X146787717Y-111493663D01*
X146495370Y-111372270D01*
X146106337Y-111371931D01*
X145746788Y-111520493D01*
X145471460Y-111795341D01*
X145322270Y-112154630D01*
X145321931Y-112543663D01*
X137523269Y-112543663D01*
X137126922Y-112147316D01*
X137127730Y-112145370D01*
X137128069Y-111756337D01*
X136979507Y-111396788D01*
X136704659Y-111121460D01*
X136638912Y-111094159D01*
X136712423Y-111020776D01*
X136785966Y-110843663D01*
X140421931Y-110843663D01*
X140570493Y-111203212D01*
X140845341Y-111478540D01*
X141204630Y-111627730D01*
X141593663Y-111628069D01*
X141953212Y-111479507D01*
X142228540Y-111204659D01*
X142377730Y-110845370D01*
X142377731Y-110843663D01*
X142621931Y-110843663D01*
X142770493Y-111203212D01*
X143045341Y-111478540D01*
X143404630Y-111627730D01*
X143793663Y-111628069D01*
X144153212Y-111479507D01*
X144428540Y-111204659D01*
X144577730Y-110845370D01*
X144578069Y-110456337D01*
X144429507Y-110096788D01*
X144154659Y-109821460D01*
X143795370Y-109672270D01*
X143406337Y-109671931D01*
X143046788Y-109820493D01*
X142771460Y-110095341D01*
X142622270Y-110454630D01*
X142621931Y-110843663D01*
X142377731Y-110843663D01*
X142378069Y-110456337D01*
X142229507Y-110096788D01*
X141954659Y-109821460D01*
X141595370Y-109672270D01*
X141206337Y-109671931D01*
X140846788Y-109820493D01*
X140571460Y-110095341D01*
X140422270Y-110454630D01*
X140421931Y-110843663D01*
X136785966Y-110843663D01*
X136861613Y-110661487D01*
X136861952Y-110272454D01*
X136713390Y-109912905D01*
X136438542Y-109637577D01*
X136079253Y-109488387D01*
X135690220Y-109488048D01*
X135330671Y-109636610D01*
X135055343Y-109911458D01*
X134906153Y-110270747D01*
X134906151Y-110273000D01*
X130400000Y-110273000D01*
X130350590Y-110283006D01*
X130310197Y-110310197D01*
X129747316Y-110873078D01*
X129745370Y-110872270D01*
X129356337Y-110871931D01*
X129243831Y-110918418D01*
X129451054Y-110608285D01*
X129564093Y-110040000D01*
X129451054Y-109471715D01*
X129432311Y-109443663D01*
X137771931Y-109443663D01*
X137920493Y-109803212D01*
X138195341Y-110078540D01*
X138554630Y-110227730D01*
X138943663Y-110228069D01*
X139303212Y-110079507D01*
X139578540Y-109804659D01*
X139727730Y-109445370D01*
X139728036Y-109093663D01*
X145571931Y-109093663D01*
X145720493Y-109453212D01*
X145995341Y-109728540D01*
X146354630Y-109877730D01*
X146743663Y-109878069D01*
X147103212Y-109729507D01*
X147378540Y-109454659D01*
X147527730Y-109095370D01*
X147528069Y-108706337D01*
X147379507Y-108346788D01*
X147104659Y-108071460D01*
X146745370Y-107922270D01*
X146356337Y-107921931D01*
X145996788Y-108070493D01*
X145721460Y-108345341D01*
X145572270Y-108704630D01*
X145571931Y-109093663D01*
X139728036Y-109093663D01*
X139728069Y-109056337D01*
X139579507Y-108696788D01*
X139304659Y-108421460D01*
X138945370Y-108272270D01*
X138556337Y-108271931D01*
X138196788Y-108420493D01*
X137921460Y-108695341D01*
X137772270Y-109054630D01*
X137771931Y-109443663D01*
X129432311Y-109443663D01*
X129129147Y-108989946D01*
X128799974Y-108770000D01*
X129129147Y-108550054D01*
X129451054Y-108068285D01*
X129564093Y-107500000D01*
X129451054Y-106931715D01*
X129325402Y-106743663D01*
X130971931Y-106743663D01*
X131120493Y-107103212D01*
X131395341Y-107378540D01*
X131754630Y-107527730D01*
X132143663Y-107528069D01*
X132503212Y-107379507D01*
X132778540Y-107104659D01*
X132783105Y-107093663D01*
X133971931Y-107093663D01*
X134120493Y-107453212D01*
X134395341Y-107728540D01*
X134754630Y-107877730D01*
X135143663Y-107878069D01*
X135503212Y-107729507D01*
X135778540Y-107454659D01*
X135927730Y-107095370D01*
X135928069Y-106706337D01*
X135922833Y-106693663D01*
X136171931Y-106693663D01*
X136320493Y-107053212D01*
X136595341Y-107328540D01*
X136954630Y-107477730D01*
X137343663Y-107478069D01*
X137703212Y-107329507D01*
X137978540Y-107054659D01*
X138127730Y-106695370D01*
X138128069Y-106306337D01*
X137979507Y-105946788D01*
X137704659Y-105671460D01*
X137345370Y-105522270D01*
X136956337Y-105521931D01*
X136596788Y-105670493D01*
X136321460Y-105945341D01*
X136172270Y-106304630D01*
X136171931Y-106693663D01*
X135922833Y-106693663D01*
X135779507Y-106346788D01*
X135504659Y-106071460D01*
X135145370Y-105922270D01*
X134756337Y-105921931D01*
X134396788Y-106070493D01*
X134121460Y-106345341D01*
X133972270Y-106704630D01*
X133971931Y-107093663D01*
X132783105Y-107093663D01*
X132927730Y-106745370D01*
X132928069Y-106356337D01*
X132779507Y-105996788D01*
X132504659Y-105721460D01*
X132145370Y-105572270D01*
X131756337Y-105571931D01*
X131396788Y-105720493D01*
X131121460Y-105995341D01*
X130972270Y-106354630D01*
X130971931Y-106743663D01*
X129325402Y-106743663D01*
X129129147Y-106449946D01*
X129087548Y-106422150D01*
X129135317Y-106413162D01*
X129351441Y-106274090D01*
X129496431Y-106061890D01*
X129547440Y-105810000D01*
X129547440Y-104110000D01*
X129503162Y-103874683D01*
X129483202Y-103843663D01*
X130321931Y-103843663D01*
X130470493Y-104203212D01*
X130745341Y-104478540D01*
X131104630Y-104627730D01*
X131493663Y-104628069D01*
X131853212Y-104479507D01*
X132128540Y-104204659D01*
X132273279Y-103856090D01*
X132495341Y-104078540D01*
X132854630Y-104227730D01*
X133243663Y-104228069D01*
X133603212Y-104079507D01*
X133878540Y-103804659D01*
X134027730Y-103445370D01*
X134028069Y-103056337D01*
X133879507Y-102696788D01*
X133604659Y-102421460D01*
X133245370Y-102272270D01*
X132856337Y-102271931D01*
X132496788Y-102420493D01*
X132221460Y-102695341D01*
X132076721Y-103043910D01*
X131854659Y-102821460D01*
X131495370Y-102672270D01*
X131106337Y-102671931D01*
X130746788Y-102820493D01*
X130471460Y-103095341D01*
X130322270Y-103454630D01*
X130321931Y-103843663D01*
X129483202Y-103843663D01*
X129364090Y-103658559D01*
X129151890Y-103513569D01*
X128900000Y-103462560D01*
X127200000Y-103462560D01*
X126964683Y-103506838D01*
X126748559Y-103645910D01*
X126603569Y-103858110D01*
X126552560Y-104110000D01*
X126552560Y-105810000D01*
X126596838Y-106045317D01*
X126735910Y-106261441D01*
X126948110Y-106406431D01*
X127015541Y-106420086D01*
X126970853Y-106449946D01*
X126648946Y-106931715D01*
X126535907Y-107500000D01*
X126648946Y-108068285D01*
X126970853Y-108550054D01*
X127300026Y-108770000D01*
X126970853Y-108989946D01*
X126648946Y-109471715D01*
X126535907Y-110040000D01*
X126648946Y-110608285D01*
X126970853Y-111090054D01*
X127452622Y-111411961D01*
X128020907Y-111525000D01*
X128079093Y-111525000D01*
X128647378Y-111411961D01*
X128682887Y-111388235D01*
X128572270Y-111654630D01*
X128571931Y-112043663D01*
X128573334Y-112047060D01*
X126510197Y-114110197D01*
X126482334Y-114152211D01*
X126473000Y-114200000D01*
X126473000Y-114440008D01*
X126354659Y-114321460D01*
X125995370Y-114172270D01*
X125606337Y-114171931D01*
X125246788Y-114320493D01*
X124971460Y-114595341D01*
X124822270Y-114954630D01*
X124821931Y-115343663D01*
X124970493Y-115703212D01*
X125245341Y-115978540D01*
X125604630Y-116127730D01*
X125993663Y-116128069D01*
X126353212Y-115979507D01*
X126473000Y-115859928D01*
X126473000Y-117843978D01*
X126371460Y-117945341D01*
X126222270Y-118304630D01*
X126221931Y-118693663D01*
X126370493Y-119053212D01*
X126473000Y-119155898D01*
X126473000Y-122243804D01*
X126471460Y-122245341D01*
X126322270Y-122604630D01*
X126321931Y-122993663D01*
X126470493Y-123353212D01*
X126473000Y-123355723D01*
X126473000Y-124600000D01*
X126483006Y-124649410D01*
X126511447Y-124691035D01*
X126553841Y-124718315D01*
X126600000Y-124727000D01*
X127873000Y-124727000D01*
X127873000Y-124873000D01*
X125955935Y-124873000D01*
X125804659Y-124721460D01*
X125445370Y-124572270D01*
X125056337Y-124571931D01*
X124696788Y-124720493D01*
X124544015Y-124873000D01*
X106927000Y-124873000D01*
X106927000Y-122093663D01*
X114421931Y-122093663D01*
X114570493Y-122453212D01*
X114845341Y-122728540D01*
X115204630Y-122877730D01*
X115593663Y-122878069D01*
X115953212Y-122729507D01*
X116228540Y-122454659D01*
X116377730Y-122095370D01*
X116378069Y-121706337D01*
X116229507Y-121346788D01*
X116076649Y-121193663D01*
X118871931Y-121193663D01*
X119020493Y-121553212D01*
X119295341Y-121828540D01*
X119654630Y-121977730D01*
X120043663Y-121978069D01*
X120403212Y-121829507D01*
X120678540Y-121554659D01*
X120827730Y-121195370D01*
X120827983Y-120904953D01*
X120978540Y-120754659D01*
X121127730Y-120395370D01*
X121128069Y-120006337D01*
X121019535Y-119743663D01*
X123721931Y-119743663D01*
X123848635Y-120050311D01*
X123722270Y-120354630D01*
X123721931Y-120743663D01*
X123797762Y-120927188D01*
X123738254Y-121070499D01*
X123737915Y-121459532D01*
X123886477Y-121819081D01*
X124161325Y-122094409D01*
X124520614Y-122243599D01*
X124909647Y-122243938D01*
X125269196Y-122095376D01*
X125544524Y-121820528D01*
X125693714Y-121461239D01*
X125694053Y-121072206D01*
X125618222Y-120888681D01*
X125677730Y-120745370D01*
X125678069Y-120356337D01*
X125551365Y-120049689D01*
X125677730Y-119745370D01*
X125678027Y-119404997D01*
X125778540Y-119304659D01*
X125927730Y-118945370D01*
X125928069Y-118556337D01*
X125779507Y-118196788D01*
X125504659Y-117921460D01*
X125145370Y-117772270D01*
X124756337Y-117771931D01*
X124396788Y-117920493D01*
X124121460Y-118195341D01*
X123972270Y-118554630D01*
X123971973Y-118895003D01*
X123871460Y-118995341D01*
X123722270Y-119354630D01*
X123721931Y-119743663D01*
X121019535Y-119743663D01*
X120979507Y-119646788D01*
X120704659Y-119371460D01*
X120345370Y-119222270D01*
X119956337Y-119221931D01*
X119596788Y-119370493D01*
X119321460Y-119645341D01*
X119172270Y-120004630D01*
X119172017Y-120295047D01*
X119021460Y-120445341D01*
X118872270Y-120804630D01*
X118871931Y-121193663D01*
X116076649Y-121193663D01*
X115954659Y-121071460D01*
X115595370Y-120922270D01*
X115206337Y-120921931D01*
X114846788Y-121070493D01*
X114571460Y-121345341D01*
X114422270Y-121704630D01*
X114421931Y-122093663D01*
X106927000Y-122093663D01*
X106927000Y-118993663D01*
X115621931Y-118993663D01*
X115770493Y-119353212D01*
X116045341Y-119628540D01*
X116404630Y-119777730D01*
X116793663Y-119778069D01*
X117153212Y-119629507D01*
X117428540Y-119354659D01*
X117571574Y-119010195D01*
X117854630Y-119127730D01*
X118243663Y-119128069D01*
X118399940Y-119063497D01*
X118554630Y-119127730D01*
X118943663Y-119128069D01*
X119303212Y-118979507D01*
X119578540Y-118704659D01*
X119727730Y-118345370D01*
X119728069Y-117956337D01*
X119579507Y-117596788D01*
X119327992Y-117344834D01*
X119328069Y-117256337D01*
X119179507Y-116896788D01*
X118904659Y-116621460D01*
X118545370Y-116472270D01*
X118156337Y-116471931D01*
X117796788Y-116620493D01*
X117521460Y-116895341D01*
X117372270Y-117254630D01*
X117372104Y-117444959D01*
X117221460Y-117595341D01*
X117078426Y-117939805D01*
X116795370Y-117822270D01*
X116406337Y-117821931D01*
X116046788Y-117970493D01*
X115771460Y-118245341D01*
X115622270Y-118604630D01*
X115621931Y-118993663D01*
X106927000Y-118993663D01*
X106927000Y-118093663D01*
X113621931Y-118093663D01*
X113770493Y-118453212D01*
X114045341Y-118728540D01*
X114404630Y-118877730D01*
X114793663Y-118878069D01*
X115153212Y-118729507D01*
X115428540Y-118454659D01*
X115577730Y-118095370D01*
X115578069Y-117706337D01*
X115491941Y-117497890D01*
X115804630Y-117627730D01*
X116193663Y-117628069D01*
X116553212Y-117479507D01*
X116828540Y-117204659D01*
X116977730Y-116845370D01*
X116978069Y-116456337D01*
X116829507Y-116096788D01*
X116554659Y-115821460D01*
X116195370Y-115672270D01*
X115806337Y-115671931D01*
X115446788Y-115820493D01*
X115171460Y-116095341D01*
X115022270Y-116454630D01*
X115021931Y-116843663D01*
X115108059Y-117052110D01*
X114795370Y-116922270D01*
X114406337Y-116921931D01*
X114046788Y-117070493D01*
X113771460Y-117345341D01*
X113622270Y-117704630D01*
X113621931Y-118093663D01*
X106927000Y-118093663D01*
X106927000Y-117452606D01*
X107335943Y-117043663D01*
X109121931Y-117043663D01*
X109270493Y-117403212D01*
X109545341Y-117678540D01*
X109904630Y-117827730D01*
X110293663Y-117828069D01*
X110653212Y-117679507D01*
X110928540Y-117404659D01*
X111077730Y-117045370D01*
X111078069Y-116656337D01*
X110929507Y-116296788D01*
X110654659Y-116021460D01*
X110295370Y-115872270D01*
X109906337Y-115871931D01*
X109546788Y-116020493D01*
X109271460Y-116295341D01*
X109122270Y-116654630D01*
X109121931Y-117043663D01*
X107335943Y-117043663D01*
X109251704Y-115127902D01*
X109443663Y-115128069D01*
X109803212Y-114979507D01*
X110078540Y-114704659D01*
X110227730Y-114345370D01*
X110227899Y-114151707D01*
X111685943Y-112693663D01*
X114071931Y-112693663D01*
X114220493Y-113053212D01*
X114495341Y-113328540D01*
X114854630Y-113477730D01*
X115243663Y-113478069D01*
X115460295Y-113388559D01*
X115554630Y-113427730D01*
X115943663Y-113428069D01*
X116303212Y-113279507D01*
X116578540Y-113004659D01*
X116727730Y-112645370D01*
X116728069Y-112256337D01*
X116722833Y-112243663D01*
X118021931Y-112243663D01*
X118170493Y-112603212D01*
X118445341Y-112878540D01*
X118758537Y-113008590D01*
X118571460Y-113195341D01*
X118422270Y-113554630D01*
X118421931Y-113943663D01*
X118570493Y-114303212D01*
X118845341Y-114578540D01*
X119204630Y-114727730D01*
X119593663Y-114728069D01*
X119953212Y-114579507D01*
X120228540Y-114304659D01*
X120377730Y-113945370D01*
X120378069Y-113556337D01*
X120352173Y-113493663D01*
X122071931Y-113493663D01*
X122220493Y-113853212D01*
X122495341Y-114128540D01*
X122854630Y-114277730D01*
X123243663Y-114278069D01*
X123603212Y-114129507D01*
X123878540Y-113854659D01*
X124027730Y-113495370D01*
X124028069Y-113106337D01*
X123879507Y-112746788D01*
X123876388Y-112743663D01*
X124821931Y-112743663D01*
X124970493Y-113103212D01*
X125245341Y-113378540D01*
X125604630Y-113527730D01*
X125993663Y-113528069D01*
X126353212Y-113379507D01*
X126628540Y-113104659D01*
X126777730Y-112745370D01*
X126778069Y-112356337D01*
X126629507Y-111996788D01*
X126354659Y-111721460D01*
X125995370Y-111572270D01*
X125606337Y-111571931D01*
X125246788Y-111720493D01*
X124971460Y-111995341D01*
X124822270Y-112354630D01*
X124821931Y-112743663D01*
X123876388Y-112743663D01*
X123604659Y-112471460D01*
X123245370Y-112322270D01*
X122856337Y-112321931D01*
X122496788Y-112470493D01*
X122221460Y-112745341D01*
X122072270Y-113104630D01*
X122071931Y-113493663D01*
X120352173Y-113493663D01*
X120229507Y-113196788D01*
X119954659Y-112921460D01*
X119641463Y-112791410D01*
X119828540Y-112604659D01*
X119977730Y-112245370D01*
X119978069Y-111856337D01*
X119829507Y-111496788D01*
X119554659Y-111221460D01*
X119195370Y-111072270D01*
X118806337Y-111071931D01*
X118446788Y-111220493D01*
X118171460Y-111495341D01*
X118022270Y-111854630D01*
X118021931Y-112243663D01*
X116722833Y-112243663D01*
X116579507Y-111896788D01*
X116304659Y-111621460D01*
X115945370Y-111472270D01*
X115556337Y-111471931D01*
X115339705Y-111561441D01*
X115245370Y-111522270D01*
X114856337Y-111521931D01*
X114496788Y-111670493D01*
X114221460Y-111945341D01*
X114072270Y-112304630D01*
X114071931Y-112693663D01*
X111685943Y-112693663D01*
X112089803Y-112289803D01*
X112117666Y-112247789D01*
X112127000Y-112200000D01*
X112127000Y-110143663D01*
X113421931Y-110143663D01*
X113570493Y-110503212D01*
X113845341Y-110778540D01*
X114204630Y-110927730D01*
X114593663Y-110928069D01*
X114953212Y-110779507D01*
X115228540Y-110504659D01*
X115377730Y-110145370D01*
X115377777Y-110091374D01*
X115771931Y-110091374D01*
X115920493Y-110450923D01*
X116195341Y-110726251D01*
X116554630Y-110875441D01*
X116943663Y-110875780D01*
X117303212Y-110727218D01*
X117578540Y-110452370D01*
X117727730Y-110093081D01*
X117728069Y-109704048D01*
X117579507Y-109344499D01*
X117304659Y-109069171D01*
X116945370Y-108919981D01*
X116556337Y-108919642D01*
X116196788Y-109068204D01*
X115921460Y-109343052D01*
X115772270Y-109702341D01*
X115771931Y-110091374D01*
X115377777Y-110091374D01*
X115378069Y-109756337D01*
X115229507Y-109396788D01*
X114954659Y-109121460D01*
X114595370Y-108972270D01*
X114206337Y-108971931D01*
X113846788Y-109120493D01*
X113571460Y-109395341D01*
X113422270Y-109754630D01*
X113421931Y-110143663D01*
X112127000Y-110143663D01*
X112127000Y-108743663D01*
X117871931Y-108743663D01*
X118020493Y-109103212D01*
X118295341Y-109378540D01*
X118654630Y-109527730D01*
X118695711Y-109527766D01*
X118622270Y-109704630D01*
X118621931Y-110093663D01*
X118770493Y-110453212D01*
X119045341Y-110728540D01*
X119404630Y-110877730D01*
X119793663Y-110878069D01*
X120153212Y-110729507D01*
X120428540Y-110454659D01*
X120433105Y-110443663D01*
X122221931Y-110443663D01*
X122370493Y-110803212D01*
X122645341Y-111078540D01*
X123004630Y-111227730D01*
X123393663Y-111228069D01*
X123753212Y-111079507D01*
X124028540Y-110804659D01*
X124177730Y-110445370D01*
X124178069Y-110056337D01*
X124029507Y-109696788D01*
X123754659Y-109421460D01*
X123395370Y-109272270D01*
X123006337Y-109271931D01*
X122646788Y-109420493D01*
X122371460Y-109695341D01*
X122222270Y-110054630D01*
X122221931Y-110443663D01*
X120433105Y-110443663D01*
X120577730Y-110095370D01*
X120578069Y-109706337D01*
X120429507Y-109346788D01*
X120154659Y-109071460D01*
X119967304Y-108993663D01*
X124371931Y-108993663D01*
X124520493Y-109353212D01*
X124795341Y-109628540D01*
X125154630Y-109777730D01*
X125543663Y-109778069D01*
X125903212Y-109629507D01*
X126178540Y-109354659D01*
X126327730Y-108995370D01*
X126328069Y-108606337D01*
X126179507Y-108246788D01*
X125904659Y-107971460D01*
X125545370Y-107822270D01*
X125156337Y-107821931D01*
X124796788Y-107970493D01*
X124521460Y-108245341D01*
X124372270Y-108604630D01*
X124371931Y-108993663D01*
X119967304Y-108993663D01*
X119795370Y-108922270D01*
X119754289Y-108922234D01*
X119827730Y-108745370D01*
X119828069Y-108356337D01*
X119802858Y-108295320D01*
X119874449Y-108122909D01*
X119874788Y-107733876D01*
X119754875Y-107443663D01*
X121071931Y-107443663D01*
X121220493Y-107803212D01*
X121495341Y-108078540D01*
X121854630Y-108227730D01*
X122243663Y-108228069D01*
X122603212Y-108079507D01*
X122878540Y-107804659D01*
X123027730Y-107445370D01*
X123028069Y-107056337D01*
X122879507Y-106696788D01*
X122604659Y-106421460D01*
X122245370Y-106272270D01*
X121856337Y-106271931D01*
X121496788Y-106420493D01*
X121221460Y-106695341D01*
X121072270Y-107054630D01*
X121071931Y-107443663D01*
X119754875Y-107443663D01*
X119726226Y-107374327D01*
X119451378Y-107098999D01*
X119092089Y-106949809D01*
X118703056Y-106949470D01*
X118343507Y-107098032D01*
X118068179Y-107372880D01*
X117918989Y-107732169D01*
X117918650Y-108121202D01*
X117943861Y-108182219D01*
X117872270Y-108354630D01*
X117871931Y-108743663D01*
X112127000Y-108743663D01*
X112127000Y-105327000D01*
X119997359Y-105327000D01*
X121076533Y-105371791D01*
X121126316Y-105363843D01*
X121157623Y-105343663D01*
X123671931Y-105343663D01*
X123820493Y-105703212D01*
X124095341Y-105978540D01*
X124454630Y-106127730D01*
X124843663Y-106128069D01*
X125203212Y-105979507D01*
X125478540Y-105704659D01*
X125627730Y-105345370D01*
X125628069Y-104956337D01*
X125479507Y-104596788D01*
X125204659Y-104321460D01*
X124845370Y-104172270D01*
X124456337Y-104171931D01*
X124096788Y-104320493D01*
X123821460Y-104595341D01*
X123672270Y-104954630D01*
X123671931Y-105343663D01*
X121157623Y-105343663D01*
X121171744Y-105334561D01*
X125160745Y-101332976D01*
X127027559Y-101321480D01*
X126972270Y-101454630D01*
X126971931Y-101843663D01*
X127120493Y-102203212D01*
X127395341Y-102478540D01*
X127754630Y-102627730D01*
X128143663Y-102628069D01*
X128503212Y-102479507D01*
X128778540Y-102204659D01*
X128927730Y-101845370D01*
X128928069Y-101456337D01*
X128867665Y-101310148D01*
X134197719Y-101277325D01*
X135797888Y-102877494D01*
X135797888Y-102877494D01*
G37*
X135797888Y-102877494D02*
X135870493Y-103053212D01*
X136145341Y-103328540D01*
X136322495Y-103402101D01*
X139610197Y-106689803D01*
X139652211Y-106717666D01*
X139700000Y-106727000D01*
X140558314Y-106727000D01*
X140422270Y-107054630D01*
X140421931Y-107443663D01*
X140570493Y-107803212D01*
X140845341Y-108078540D01*
X141204630Y-108227730D01*
X141593663Y-108228069D01*
X141953212Y-108079507D01*
X142228540Y-107804659D01*
X142377730Y-107445370D01*
X142378069Y-107056337D01*
X142241990Y-106727000D01*
X142737552Y-106727000D01*
X142622270Y-107004630D01*
X142621931Y-107393663D01*
X142770493Y-107753212D01*
X143045341Y-108028540D01*
X143404630Y-108177730D01*
X143793663Y-108178069D01*
X144153212Y-108029507D01*
X144428540Y-107754659D01*
X144577730Y-107395370D01*
X144578069Y-107006337D01*
X144462650Y-106727000D01*
X147902872Y-106727000D01*
X147904630Y-106727730D01*
X148293663Y-106728069D01*
X148296250Y-106727000D01*
X151290000Y-106727000D01*
X151290000Y-108543193D01*
X151229507Y-108396788D01*
X150954659Y-108121460D01*
X150595370Y-107972270D01*
X150206337Y-107971931D01*
X149846788Y-108120493D01*
X149571460Y-108395341D01*
X149422270Y-108754630D01*
X149421931Y-109143663D01*
X149570493Y-109503212D01*
X149845341Y-109778540D01*
X150204630Y-109927730D01*
X150593663Y-109928069D01*
X150953212Y-109779507D01*
X151228540Y-109504659D01*
X151290000Y-109356647D01*
X151290000Y-114722183D01*
X151279507Y-114696788D01*
X151004659Y-114421460D01*
X150645370Y-114272270D01*
X150256337Y-114271931D01*
X149896788Y-114420493D01*
X149621460Y-114695341D01*
X149472270Y-115054630D01*
X149471931Y-115443663D01*
X149620493Y-115803212D01*
X149895341Y-116078540D01*
X150254630Y-116227730D01*
X150643663Y-116228069D01*
X151003212Y-116079507D01*
X151278540Y-115804659D01*
X151290000Y-115777060D01*
X151290000Y-120015373D01*
X150945370Y-119872270D01*
X150556337Y-119871931D01*
X150196788Y-120020493D01*
X149921460Y-120295341D01*
X149772270Y-120654630D01*
X149771931Y-121043663D01*
X149920493Y-121403212D01*
X150195341Y-121678540D01*
X150554630Y-121827730D01*
X150943663Y-121828069D01*
X151290000Y-121684966D01*
X151290000Y-150768230D01*
X150474942Y-150765145D01*
X150803212Y-150629507D01*
X151078540Y-150354659D01*
X151227730Y-149995370D01*
X151228069Y-149606337D01*
X151079507Y-149246788D01*
X150804659Y-148971460D01*
X150445370Y-148822270D01*
X150056337Y-148821931D01*
X149696788Y-148970493D01*
X149421460Y-149245341D01*
X149272270Y-149604630D01*
X149271931Y-149993663D01*
X149420493Y-150353212D01*
X149695341Y-150628540D01*
X150020176Y-150763423D01*
X139943447Y-150725281D01*
X139695370Y-150622270D01*
X139306337Y-150621931D01*
X139064264Y-150721953D01*
X136144481Y-150710901D01*
X136095033Y-150720720D01*
X136053955Y-150748340D01*
X135344632Y-151461503D01*
X135304659Y-151421460D01*
X134945370Y-151272270D01*
X134556337Y-151271931D01*
X134196788Y-151420493D01*
X133921460Y-151695341D01*
X133772270Y-152054630D01*
X133771931Y-152443663D01*
X133786962Y-152480041D01*
X133671460Y-152595341D01*
X133522270Y-152954630D01*
X133521974Y-153294026D01*
X132709955Y-154110440D01*
X132682206Y-154152529D01*
X132673000Y-154200000D01*
X132673000Y-158273000D01*
X130127000Y-158273000D01*
X130127000Y-157710080D01*
X130195341Y-157778540D01*
X130554630Y-157927730D01*
X130943663Y-157928069D01*
X131303212Y-157779507D01*
X131578540Y-157504659D01*
X131727730Y-157145370D01*
X131728069Y-156756337D01*
X131579507Y-156396788D01*
X131304659Y-156121460D01*
X130945370Y-155972270D01*
X130556337Y-155971931D01*
X130491340Y-155998787D01*
X130491340Y-154940900D01*
X130447062Y-154705583D01*
X130307990Y-154489459D01*
X130127000Y-154365794D01*
X130127000Y-154220207D01*
X130394954Y-153819185D01*
X130507993Y-153250900D01*
X130498770Y-153204535D01*
X130554630Y-153227730D01*
X130943663Y-153228069D01*
X131303212Y-153079507D01*
X131578540Y-152804659D01*
X131727730Y-152445370D01*
X131728069Y-152056337D01*
X131609713Y-151769893D01*
X133585943Y-149793663D01*
X136671931Y-149793663D01*
X136820493Y-150153212D01*
X137095341Y-150428540D01*
X137454630Y-150577730D01*
X137843663Y-150578069D01*
X138203212Y-150429507D01*
X138478540Y-150154659D01*
X138627730Y-149795370D01*
X138628069Y-149406337D01*
X138479507Y-149046788D01*
X138204659Y-148771460D01*
X137845370Y-148622270D01*
X137456337Y-148621931D01*
X137096788Y-148770493D01*
X136821460Y-149045341D01*
X136672270Y-149404630D01*
X136671931Y-149793663D01*
X133585943Y-149793663D01*
X134199386Y-149180220D01*
X134554630Y-149327730D01*
X134943663Y-149328069D01*
X135303212Y-149179507D01*
X135578540Y-148904659D01*
X135727730Y-148545370D01*
X135728069Y-148156337D01*
X135580475Y-147799131D01*
X135826028Y-147553578D01*
X135970493Y-147903212D01*
X136245341Y-148178540D01*
X136604630Y-148327730D01*
X136993663Y-148328069D01*
X137353212Y-148179507D01*
X137389118Y-148143663D01*
X138571931Y-148143663D01*
X138720493Y-148503212D01*
X138995341Y-148778540D01*
X139354630Y-148927730D01*
X139488984Y-148927847D01*
X139471460Y-148945341D01*
X139322270Y-149304630D01*
X139321931Y-149693663D01*
X139470493Y-150053212D01*
X139745341Y-150328540D01*
X140104630Y-150477730D01*
X140493663Y-150478069D01*
X140853212Y-150329507D01*
X141128540Y-150054659D01*
X141277730Y-149695370D01*
X141278069Y-149306337D01*
X141129507Y-148946788D01*
X140876824Y-148693663D01*
X143771931Y-148693663D01*
X143920493Y-149053212D01*
X144195341Y-149328540D01*
X144554630Y-149477730D01*
X144943663Y-149478069D01*
X145026932Y-149443663D01*
X146121931Y-149443663D01*
X146270493Y-149803212D01*
X146545341Y-150078540D01*
X146904630Y-150227730D01*
X147293663Y-150228069D01*
X147653212Y-150079507D01*
X147928540Y-149804659D01*
X148077730Y-149445370D01*
X148078069Y-149056337D01*
X147929507Y-148696788D01*
X147654659Y-148421460D01*
X147295370Y-148272270D01*
X146906337Y-148271931D01*
X146546788Y-148420493D01*
X146271460Y-148695341D01*
X146122270Y-149054630D01*
X146121931Y-149443663D01*
X145026932Y-149443663D01*
X145303212Y-149329507D01*
X145578540Y-149054659D01*
X145727730Y-148695370D01*
X145728069Y-148306337D01*
X145579507Y-147946788D01*
X145304659Y-147671460D01*
X144945370Y-147522270D01*
X144556337Y-147521931D01*
X144196788Y-147670493D01*
X143921460Y-147945341D01*
X143772270Y-148304630D01*
X143771931Y-148693663D01*
X140876824Y-148693663D01*
X140854659Y-148671460D01*
X140509263Y-148528039D01*
X140543663Y-148528069D01*
X140903212Y-148379507D01*
X141178540Y-148104659D01*
X141327730Y-147745370D01*
X141328069Y-147356337D01*
X141179507Y-146996788D01*
X140904659Y-146721460D01*
X140545370Y-146572270D01*
X140255041Y-146572017D01*
X140154659Y-146471460D01*
X139795370Y-146322270D01*
X139406337Y-146321931D01*
X139046788Y-146470493D01*
X138771460Y-146745341D01*
X138622270Y-147104630D01*
X138621931Y-147493663D01*
X138651210Y-147564523D01*
X138572270Y-147754630D01*
X138571931Y-148143663D01*
X137389118Y-148143663D01*
X137628540Y-147904659D01*
X137777730Y-147545370D01*
X137778069Y-147156337D01*
X137629507Y-146796788D01*
X137354659Y-146521460D01*
X137003825Y-146375781D01*
X137623223Y-145756383D01*
X137645341Y-145778540D01*
X138004630Y-145927730D01*
X138393663Y-145928069D01*
X138753212Y-145779507D01*
X138939380Y-145593663D01*
X140171931Y-145593663D01*
X140320493Y-145953212D01*
X140595341Y-146228540D01*
X140954630Y-146377730D01*
X141343663Y-146378069D01*
X141499940Y-146313497D01*
X141654630Y-146377730D01*
X141768686Y-146377829D01*
X141820493Y-146503212D01*
X142095341Y-146778540D01*
X142454630Y-146927730D01*
X142843663Y-146928069D01*
X143203212Y-146779507D01*
X143478540Y-146504659D01*
X143627730Y-146145370D01*
X143628069Y-145756337D01*
X143479507Y-145396788D01*
X143204659Y-145121460D01*
X142845370Y-144972270D01*
X142731314Y-144972171D01*
X142689087Y-144869973D01*
X145337311Y-144869973D01*
X145485873Y-145229522D01*
X145760721Y-145504850D01*
X146120010Y-145654040D01*
X146126322Y-145654046D01*
X146022270Y-145904630D01*
X146021931Y-146293663D01*
X146170493Y-146653212D01*
X146445341Y-146928540D01*
X146804630Y-147077730D01*
X147193663Y-147078069D01*
X147194827Y-147077588D01*
X147445341Y-147328540D01*
X147804630Y-147477730D01*
X148193663Y-147478069D01*
X148553212Y-147329507D01*
X148828540Y-147054659D01*
X148977730Y-146695370D01*
X148978069Y-146306337D01*
X148898914Y-146114767D01*
X148927730Y-146045370D01*
X148927760Y-146010841D01*
X148995341Y-146078540D01*
X149045259Y-146099268D01*
X149022270Y-146154630D01*
X149021931Y-146543663D01*
X149170493Y-146903212D01*
X149445341Y-147178540D01*
X149804630Y-147327730D01*
X150193663Y-147328069D01*
X150553212Y-147179507D01*
X150828540Y-146904659D01*
X150977730Y-146545370D01*
X150978069Y-146156337D01*
X150829507Y-145796788D01*
X150607917Y-145574811D01*
X150878540Y-145304659D01*
X151027730Y-144945370D01*
X151028069Y-144556337D01*
X150879507Y-144196788D01*
X150604659Y-143921460D01*
X150245370Y-143772270D01*
X149856337Y-143771931D01*
X149642118Y-143860444D01*
X149642283Y-143670551D01*
X149493721Y-143311002D01*
X149218873Y-143035674D01*
X148859584Y-142886484D01*
X148470551Y-142886145D01*
X148111002Y-143034707D01*
X147835674Y-143309555D01*
X147686484Y-143668844D01*
X147686367Y-143803223D01*
X147654659Y-143771460D01*
X147295370Y-143622270D01*
X146906337Y-143621931D01*
X146615531Y-143742089D01*
X146510750Y-143698580D01*
X146121717Y-143698241D01*
X145762168Y-143846803D01*
X145486840Y-144121651D01*
X145337650Y-144480940D01*
X145337311Y-144869973D01*
X142689087Y-144869973D01*
X142679507Y-144846788D01*
X142404659Y-144571460D01*
X142045370Y-144422270D01*
X141656337Y-144421931D01*
X141500060Y-144486503D01*
X141345370Y-144422270D01*
X140956337Y-144421931D01*
X140596788Y-144570493D01*
X140321460Y-144845341D01*
X140172270Y-145204630D01*
X140171931Y-145593663D01*
X138939380Y-145593663D01*
X139028540Y-145504659D01*
X139177730Y-145145370D01*
X139178069Y-144756337D01*
X139029507Y-144396788D01*
X138754659Y-144121460D01*
X138395370Y-143972270D01*
X138327000Y-143972210D01*
X138327000Y-142127000D01*
X141672163Y-142127000D01*
X141671931Y-142393663D01*
X141820493Y-142753212D01*
X142095341Y-143028540D01*
X142454630Y-143177730D01*
X142843663Y-143178069D01*
X143203212Y-143029507D01*
X143478540Y-142754659D01*
X143627730Y-142395370D01*
X143628069Y-142006337D01*
X143479507Y-141646788D01*
X143406226Y-141573380D01*
X144389803Y-140589803D01*
X144417666Y-140547789D01*
X144427000Y-140500000D01*
X144427000Y-139593663D01*
X147121931Y-139593663D01*
X147270493Y-139953212D01*
X147545341Y-140228540D01*
X147904630Y-140377730D01*
X148293663Y-140378069D01*
X148653212Y-140229507D01*
X148928540Y-139954659D01*
X149077730Y-139595370D01*
X149078069Y-139206337D01*
X148929507Y-138846788D01*
X148654659Y-138571460D01*
X148295370Y-138422270D01*
X147906337Y-138421931D01*
X147546788Y-138570493D01*
X147271460Y-138845341D01*
X147122270Y-139204630D01*
X147121931Y-139593663D01*
X144427000Y-139593663D01*
X144427000Y-138559905D01*
X144595341Y-138728540D01*
X144954630Y-138877730D01*
X145343663Y-138878069D01*
X145521637Y-138804532D01*
X145695341Y-138978540D01*
X146054630Y-139127730D01*
X146443663Y-139128069D01*
X146803212Y-138979507D01*
X147078540Y-138704659D01*
X147227730Y-138345370D01*
X147228069Y-137956337D01*
X147173852Y-137825122D01*
X147227730Y-137695370D01*
X147228069Y-137306337D01*
X147079507Y-136946788D01*
X146804659Y-136671460D01*
X146445370Y-136522270D01*
X146327750Y-136522168D01*
X146328069Y-136156337D01*
X146179507Y-135796788D01*
X145904659Y-135521460D01*
X145545370Y-135372270D01*
X145377881Y-135372124D01*
X145377905Y-135343663D01*
X147171931Y-135343663D01*
X147320493Y-135703212D01*
X147595341Y-135978540D01*
X147954630Y-136127730D01*
X148343663Y-136128069D01*
X148703212Y-135979507D01*
X148978540Y-135704659D01*
X149127730Y-135345370D01*
X149128069Y-134956337D01*
X148979507Y-134596788D01*
X148704659Y-134321460D01*
X148345370Y-134172270D01*
X147956337Y-134171931D01*
X147596788Y-134320493D01*
X147321460Y-134595341D01*
X147172270Y-134954630D01*
X147171931Y-135343663D01*
X145377905Y-135343663D01*
X145378069Y-135156337D01*
X145313497Y-135000060D01*
X145377730Y-134845370D01*
X145378069Y-134456337D01*
X145229507Y-134096788D01*
X144954659Y-133821460D01*
X144627826Y-133685747D01*
X144628069Y-133406337D01*
X144479507Y-133046788D01*
X144427000Y-132994189D01*
X144427000Y-132893635D01*
X144703212Y-132779507D01*
X144978540Y-132504659D01*
X145107676Y-132193663D01*
X146921931Y-132193663D01*
X147070493Y-132553212D01*
X147345341Y-132828540D01*
X147704630Y-132977730D01*
X148093663Y-132978069D01*
X148453212Y-132829507D01*
X148728540Y-132554659D01*
X148877730Y-132195370D01*
X148878069Y-131806337D01*
X148729507Y-131446788D01*
X148454659Y-131171460D01*
X148095370Y-131022270D01*
X147706337Y-131021931D01*
X147346788Y-131170493D01*
X147071460Y-131445341D01*
X146922270Y-131804630D01*
X146921931Y-132193663D01*
X145107676Y-132193663D01*
X145127730Y-132145370D01*
X145128069Y-131756337D01*
X144987837Y-131416948D01*
X145254630Y-131527730D01*
X145643663Y-131528069D01*
X146003212Y-131379507D01*
X146278540Y-131104659D01*
X146427730Y-130745370D01*
X146428069Y-130356337D01*
X146279507Y-129996788D01*
X146004659Y-129721460D01*
X145696891Y-129593663D01*
X147371931Y-129593663D01*
X147520493Y-129953212D01*
X147795341Y-130228540D01*
X148154630Y-130377730D01*
X148543663Y-130378069D01*
X148903212Y-130229507D01*
X149178540Y-129954659D01*
X149327730Y-129595370D01*
X149328069Y-129206337D01*
X149179507Y-128846788D01*
X148904659Y-128571460D01*
X148545370Y-128422270D01*
X148156337Y-128421931D01*
X147796788Y-128570493D01*
X147521460Y-128845341D01*
X147372270Y-129204630D01*
X147371931Y-129593663D01*
X145696891Y-129593663D01*
X145645370Y-129572270D01*
X145345907Y-129572009D01*
X145377730Y-129495370D01*
X145378069Y-129106337D01*
X145328080Y-128985354D01*
X145372763Y-128877746D01*
X145743663Y-128878069D01*
X146103212Y-128729507D01*
X146378540Y-128454659D01*
X146527730Y-128095370D01*
X146528069Y-127706337D01*
X146379507Y-127346788D01*
X146104659Y-127071460D01*
X145745370Y-126922270D01*
X145356337Y-126921931D01*
X144996788Y-127070493D01*
X144721460Y-127345341D01*
X144627237Y-127572254D01*
X144427000Y-127572080D01*
X144427000Y-126693663D01*
X147521931Y-126693663D01*
X147670493Y-127053212D01*
X147945341Y-127328540D01*
X148304630Y-127477730D01*
X148693663Y-127478069D01*
X149053212Y-127329507D01*
X149328540Y-127054659D01*
X149477730Y-126695370D01*
X149478069Y-126306337D01*
X149329507Y-125946788D01*
X149054659Y-125671460D01*
X148695370Y-125522270D01*
X148306337Y-125521931D01*
X147946788Y-125670493D01*
X147671460Y-125945341D01*
X147522270Y-126304630D01*
X147521931Y-126693663D01*
X144427000Y-126693663D01*
X144427000Y-125616257D01*
X144454630Y-125627730D01*
X144843663Y-125628069D01*
X145203212Y-125479507D01*
X145478540Y-125204659D01*
X145627730Y-124845370D01*
X145627852Y-124705084D01*
X145778540Y-124554659D01*
X145927730Y-124195370D01*
X145928069Y-123806337D01*
X145779507Y-123446788D01*
X145623298Y-123290306D01*
X145623371Y-123206337D01*
X145556156Y-123043663D01*
X145871931Y-123043663D01*
X146020493Y-123403212D01*
X146295341Y-123678540D01*
X146654630Y-123827730D01*
X147043663Y-123828069D01*
X147403212Y-123679507D01*
X147678540Y-123404659D01*
X147827730Y-123045370D01*
X147828069Y-122656337D01*
X147679507Y-122296788D01*
X147404659Y-122021460D01*
X147045370Y-121872270D01*
X146656337Y-121871931D01*
X146296788Y-122020493D01*
X146021460Y-122295341D01*
X145872270Y-122654630D01*
X145871931Y-123043663D01*
X145556156Y-123043663D01*
X145474809Y-122846788D01*
X145199961Y-122571460D01*
X145136342Y-122545043D01*
X145177730Y-122445370D01*
X145178069Y-122056337D01*
X145029507Y-121696788D01*
X144754659Y-121421460D01*
X144427000Y-121285404D01*
X144427000Y-118409992D01*
X144545341Y-118528540D01*
X144904630Y-118677730D01*
X144959984Y-118677778D01*
X144970493Y-118703212D01*
X145245341Y-118978540D01*
X145604630Y-119127730D01*
X145993663Y-119128069D01*
X146353212Y-118979507D01*
X146628540Y-118704659D01*
X146777730Y-118345370D01*
X146777862Y-118193663D01*
X147221931Y-118193663D01*
X147370493Y-118553212D01*
X147645341Y-118828540D01*
X148004630Y-118977730D01*
X148393663Y-118978069D01*
X148753212Y-118829507D01*
X149028540Y-118554659D01*
X149177730Y-118195370D01*
X149178069Y-117806337D01*
X149029507Y-117446788D01*
X148754659Y-117171460D01*
X148395370Y-117022270D01*
X148006337Y-117021931D01*
X147646788Y-117170493D01*
X147371460Y-117445341D01*
X147222270Y-117804630D01*
X147221931Y-118193663D01*
X146777862Y-118193663D01*
X146778069Y-117956337D01*
X146713497Y-117800060D01*
X146777730Y-117645370D01*
X146778069Y-117256337D01*
X146629507Y-116896788D01*
X146354659Y-116621460D01*
X145995370Y-116472270D01*
X145606337Y-116471931D01*
X145246788Y-116620493D01*
X145144965Y-116722139D01*
X144906337Y-116721931D01*
X144546788Y-116870493D01*
X144427000Y-116990073D01*
X144427000Y-116897128D01*
X144427730Y-116895370D01*
X144428069Y-116506337D01*
X144427000Y-116503750D01*
X144427000Y-115243663D01*
X145071931Y-115243663D01*
X145220493Y-115603212D01*
X145495341Y-115878540D01*
X145854630Y-116027730D01*
X146243663Y-116028069D01*
X146603212Y-115879507D01*
X146878540Y-115604659D01*
X147027730Y-115245370D01*
X147028069Y-114856337D01*
X146879507Y-114496788D01*
X146604659Y-114221460D01*
X146245370Y-114072270D01*
X145856337Y-114071931D01*
X145496788Y-114220493D01*
X145221460Y-114495341D01*
X145072270Y-114854630D01*
X145071931Y-115243663D01*
X144427000Y-115243663D01*
X144427000Y-114356196D01*
X144428540Y-114354659D01*
X144577730Y-113995370D01*
X144578069Y-113606337D01*
X144429507Y-113246788D01*
X144154659Y-112971460D01*
X143795370Y-112822270D01*
X143406337Y-112821931D01*
X143046788Y-112970493D01*
X142771460Y-113245341D01*
X142622270Y-113604630D01*
X142622036Y-113873000D01*
X142466257Y-113873000D01*
X142477730Y-113845370D01*
X142478069Y-113456337D01*
X142329507Y-113096788D01*
X142054659Y-112821460D01*
X141695370Y-112672270D01*
X141306337Y-112671931D01*
X140946788Y-112820493D01*
X140671460Y-113095341D01*
X140522270Y-113454630D01*
X140521931Y-113843663D01*
X140534053Y-113873000D01*
X138852606Y-113873000D01*
X138727858Y-113748252D01*
X138728069Y-113506337D01*
X138579507Y-113146788D01*
X138304659Y-112871460D01*
X137945370Y-112722270D01*
X137701664Y-112722058D01*
X137523269Y-112543663D01*
X145321931Y-112543663D01*
X145470493Y-112903212D01*
X145745341Y-113178540D01*
X146104630Y-113327730D01*
X146493663Y-113328069D01*
X146853212Y-113179507D01*
X147128540Y-112904659D01*
X147277730Y-112545370D01*
X147278069Y-112156337D01*
X147129507Y-111796788D01*
X146854659Y-111521460D01*
X146787717Y-111493663D01*
X147921931Y-111493663D01*
X148070493Y-111853212D01*
X148345341Y-112128540D01*
X148704630Y-112277730D01*
X149093663Y-112278069D01*
X149453212Y-112129507D01*
X149728540Y-111854659D01*
X149877730Y-111495370D01*
X149878069Y-111106337D01*
X149729507Y-110746788D01*
X149454659Y-110471460D01*
X149095370Y-110322270D01*
X148706337Y-110321931D01*
X148346788Y-110470493D01*
X148071460Y-110745341D01*
X147922270Y-111104630D01*
X147921931Y-111493663D01*
X146787717Y-111493663D01*
X146495370Y-111372270D01*
X146106337Y-111371931D01*
X145746788Y-111520493D01*
X145471460Y-111795341D01*
X145322270Y-112154630D01*
X145321931Y-112543663D01*
X137523269Y-112543663D01*
X137126922Y-112147316D01*
X137127730Y-112145370D01*
X137128069Y-111756337D01*
X136979507Y-111396788D01*
X136704659Y-111121460D01*
X136638912Y-111094159D01*
X136712423Y-111020776D01*
X136785966Y-110843663D01*
X140421931Y-110843663D01*
X140570493Y-111203212D01*
X140845341Y-111478540D01*
X141204630Y-111627730D01*
X141593663Y-111628069D01*
X141953212Y-111479507D01*
X142228540Y-111204659D01*
X142377730Y-110845370D01*
X142377731Y-110843663D01*
X142621931Y-110843663D01*
X142770493Y-111203212D01*
X143045341Y-111478540D01*
X143404630Y-111627730D01*
X143793663Y-111628069D01*
X144153212Y-111479507D01*
X144428540Y-111204659D01*
X144577730Y-110845370D01*
X144578069Y-110456337D01*
X144429507Y-110096788D01*
X144154659Y-109821460D01*
X143795370Y-109672270D01*
X143406337Y-109671931D01*
X143046788Y-109820493D01*
X142771460Y-110095341D01*
X142622270Y-110454630D01*
X142621931Y-110843663D01*
X142377731Y-110843663D01*
X142378069Y-110456337D01*
X142229507Y-110096788D01*
X141954659Y-109821460D01*
X141595370Y-109672270D01*
X141206337Y-109671931D01*
X140846788Y-109820493D01*
X140571460Y-110095341D01*
X140422270Y-110454630D01*
X140421931Y-110843663D01*
X136785966Y-110843663D01*
X136861613Y-110661487D01*
X136861952Y-110272454D01*
X136713390Y-109912905D01*
X136438542Y-109637577D01*
X136079253Y-109488387D01*
X135690220Y-109488048D01*
X135330671Y-109636610D01*
X135055343Y-109911458D01*
X134906153Y-110270747D01*
X134906151Y-110273000D01*
X130400000Y-110273000D01*
X130350590Y-110283006D01*
X130310197Y-110310197D01*
X129747316Y-110873078D01*
X129745370Y-110872270D01*
X129356337Y-110871931D01*
X129243831Y-110918418D01*
X129451054Y-110608285D01*
X129564093Y-110040000D01*
X129451054Y-109471715D01*
X129432311Y-109443663D01*
X137771931Y-109443663D01*
X137920493Y-109803212D01*
X138195341Y-110078540D01*
X138554630Y-110227730D01*
X138943663Y-110228069D01*
X139303212Y-110079507D01*
X139578540Y-109804659D01*
X139727730Y-109445370D01*
X139728036Y-109093663D01*
X145571931Y-109093663D01*
X145720493Y-109453212D01*
X145995341Y-109728540D01*
X146354630Y-109877730D01*
X146743663Y-109878069D01*
X147103212Y-109729507D01*
X147378540Y-109454659D01*
X147527730Y-109095370D01*
X147528069Y-108706337D01*
X147379507Y-108346788D01*
X147104659Y-108071460D01*
X146745370Y-107922270D01*
X146356337Y-107921931D01*
X145996788Y-108070493D01*
X145721460Y-108345341D01*
X145572270Y-108704630D01*
X145571931Y-109093663D01*
X139728036Y-109093663D01*
X139728069Y-109056337D01*
X139579507Y-108696788D01*
X139304659Y-108421460D01*
X138945370Y-108272270D01*
X138556337Y-108271931D01*
X138196788Y-108420493D01*
X137921460Y-108695341D01*
X137772270Y-109054630D01*
X137771931Y-109443663D01*
X129432311Y-109443663D01*
X129129147Y-108989946D01*
X128799974Y-108770000D01*
X129129147Y-108550054D01*
X129451054Y-108068285D01*
X129564093Y-107500000D01*
X129451054Y-106931715D01*
X129325402Y-106743663D01*
X130971931Y-106743663D01*
X131120493Y-107103212D01*
X131395341Y-107378540D01*
X131754630Y-107527730D01*
X132143663Y-107528069D01*
X132503212Y-107379507D01*
X132778540Y-107104659D01*
X132783105Y-107093663D01*
X133971931Y-107093663D01*
X134120493Y-107453212D01*
X134395341Y-107728540D01*
X134754630Y-107877730D01*
X135143663Y-107878069D01*
X135503212Y-107729507D01*
X135778540Y-107454659D01*
X135927730Y-107095370D01*
X135928069Y-106706337D01*
X135922833Y-106693663D01*
X136171931Y-106693663D01*
X136320493Y-107053212D01*
X136595341Y-107328540D01*
X136954630Y-107477730D01*
X137343663Y-107478069D01*
X137703212Y-107329507D01*
X137978540Y-107054659D01*
X138127730Y-106695370D01*
X138128069Y-106306337D01*
X137979507Y-105946788D01*
X137704659Y-105671460D01*
X137345370Y-105522270D01*
X136956337Y-105521931D01*
X136596788Y-105670493D01*
X136321460Y-105945341D01*
X136172270Y-106304630D01*
X136171931Y-106693663D01*
X135922833Y-106693663D01*
X135779507Y-106346788D01*
X135504659Y-106071460D01*
X135145370Y-105922270D01*
X134756337Y-105921931D01*
X134396788Y-106070493D01*
X134121460Y-106345341D01*
X133972270Y-106704630D01*
X133971931Y-107093663D01*
X132783105Y-107093663D01*
X132927730Y-106745370D01*
X132928069Y-106356337D01*
X132779507Y-105996788D01*
X132504659Y-105721460D01*
X132145370Y-105572270D01*
X131756337Y-105571931D01*
X131396788Y-105720493D01*
X131121460Y-105995341D01*
X130972270Y-106354630D01*
X130971931Y-106743663D01*
X129325402Y-106743663D01*
X129129147Y-106449946D01*
X129087548Y-106422150D01*
X129135317Y-106413162D01*
X129351441Y-106274090D01*
X129496431Y-106061890D01*
X129547440Y-105810000D01*
X129547440Y-104110000D01*
X129503162Y-103874683D01*
X129483202Y-103843663D01*
X130321931Y-103843663D01*
X130470493Y-104203212D01*
X130745341Y-104478540D01*
X131104630Y-104627730D01*
X131493663Y-104628069D01*
X131853212Y-104479507D01*
X132128540Y-104204659D01*
X132273279Y-103856090D01*
X132495341Y-104078540D01*
X132854630Y-104227730D01*
X133243663Y-104228069D01*
X133603212Y-104079507D01*
X133878540Y-103804659D01*
X134027730Y-103445370D01*
X134028069Y-103056337D01*
X133879507Y-102696788D01*
X133604659Y-102421460D01*
X133245370Y-102272270D01*
X132856337Y-102271931D01*
X132496788Y-102420493D01*
X132221460Y-102695341D01*
X132076721Y-103043910D01*
X131854659Y-102821460D01*
X131495370Y-102672270D01*
X131106337Y-102671931D01*
X130746788Y-102820493D01*
X130471460Y-103095341D01*
X130322270Y-103454630D01*
X130321931Y-103843663D01*
X129483202Y-103843663D01*
X129364090Y-103658559D01*
X129151890Y-103513569D01*
X128900000Y-103462560D01*
X127200000Y-103462560D01*
X126964683Y-103506838D01*
X126748559Y-103645910D01*
X126603569Y-103858110D01*
X126552560Y-104110000D01*
X126552560Y-105810000D01*
X126596838Y-106045317D01*
X126735910Y-106261441D01*
X126948110Y-106406431D01*
X127015541Y-106420086D01*
X126970853Y-106449946D01*
X126648946Y-106931715D01*
X126535907Y-107500000D01*
X126648946Y-108068285D01*
X126970853Y-108550054D01*
X127300026Y-108770000D01*
X126970853Y-108989946D01*
X126648946Y-109471715D01*
X126535907Y-110040000D01*
X126648946Y-110608285D01*
X126970853Y-111090054D01*
X127452622Y-111411961D01*
X128020907Y-111525000D01*
X128079093Y-111525000D01*
X128647378Y-111411961D01*
X128682887Y-111388235D01*
X128572270Y-111654630D01*
X128571931Y-112043663D01*
X128573334Y-112047060D01*
X126510197Y-114110197D01*
X126482334Y-114152211D01*
X126473000Y-114200000D01*
X126473000Y-114440008D01*
X126354659Y-114321460D01*
X125995370Y-114172270D01*
X125606337Y-114171931D01*
X125246788Y-114320493D01*
X124971460Y-114595341D01*
X124822270Y-114954630D01*
X124821931Y-115343663D01*
X124970493Y-115703212D01*
X125245341Y-115978540D01*
X125604630Y-116127730D01*
X125993663Y-116128069D01*
X126353212Y-115979507D01*
X126473000Y-115859928D01*
X126473000Y-117843978D01*
X126371460Y-117945341D01*
X126222270Y-118304630D01*
X126221931Y-118693663D01*
X126370493Y-119053212D01*
X126473000Y-119155898D01*
X126473000Y-122243804D01*
X126471460Y-122245341D01*
X126322270Y-122604630D01*
X126321931Y-122993663D01*
X126470493Y-123353212D01*
X126473000Y-123355723D01*
X126473000Y-124600000D01*
X126483006Y-124649410D01*
X126511447Y-124691035D01*
X126553841Y-124718315D01*
X126600000Y-124727000D01*
X127873000Y-124727000D01*
X127873000Y-124873000D01*
X125955935Y-124873000D01*
X125804659Y-124721460D01*
X125445370Y-124572270D01*
X125056337Y-124571931D01*
X124696788Y-124720493D01*
X124544015Y-124873000D01*
X106927000Y-124873000D01*
X106927000Y-122093663D01*
X114421931Y-122093663D01*
X114570493Y-122453212D01*
X114845341Y-122728540D01*
X115204630Y-122877730D01*
X115593663Y-122878069D01*
X115953212Y-122729507D01*
X116228540Y-122454659D01*
X116377730Y-122095370D01*
X116378069Y-121706337D01*
X116229507Y-121346788D01*
X116076649Y-121193663D01*
X118871931Y-121193663D01*
X119020493Y-121553212D01*
X119295341Y-121828540D01*
X119654630Y-121977730D01*
X120043663Y-121978069D01*
X120403212Y-121829507D01*
X120678540Y-121554659D01*
X120827730Y-121195370D01*
X120827983Y-120904953D01*
X120978540Y-120754659D01*
X121127730Y-120395370D01*
X121128069Y-120006337D01*
X121019535Y-119743663D01*
X123721931Y-119743663D01*
X123848635Y-120050311D01*
X123722270Y-120354630D01*
X123721931Y-120743663D01*
X123797762Y-120927188D01*
X123738254Y-121070499D01*
X123737915Y-121459532D01*
X123886477Y-121819081D01*
X124161325Y-122094409D01*
X124520614Y-122243599D01*
X124909647Y-122243938D01*
X125269196Y-122095376D01*
X125544524Y-121820528D01*
X125693714Y-121461239D01*
X125694053Y-121072206D01*
X125618222Y-120888681D01*
X125677730Y-120745370D01*
X125678069Y-120356337D01*
X125551365Y-120049689D01*
X125677730Y-119745370D01*
X125678027Y-119404997D01*
X125778540Y-119304659D01*
X125927730Y-118945370D01*
X125928069Y-118556337D01*
X125779507Y-118196788D01*
X125504659Y-117921460D01*
X125145370Y-117772270D01*
X124756337Y-117771931D01*
X124396788Y-117920493D01*
X124121460Y-118195341D01*
X123972270Y-118554630D01*
X123971973Y-118895003D01*
X123871460Y-118995341D01*
X123722270Y-119354630D01*
X123721931Y-119743663D01*
X121019535Y-119743663D01*
X120979507Y-119646788D01*
X120704659Y-119371460D01*
X120345370Y-119222270D01*
X119956337Y-119221931D01*
X119596788Y-119370493D01*
X119321460Y-119645341D01*
X119172270Y-120004630D01*
X119172017Y-120295047D01*
X119021460Y-120445341D01*
X118872270Y-120804630D01*
X118871931Y-121193663D01*
X116076649Y-121193663D01*
X115954659Y-121071460D01*
X115595370Y-120922270D01*
X115206337Y-120921931D01*
X114846788Y-121070493D01*
X114571460Y-121345341D01*
X114422270Y-121704630D01*
X114421931Y-122093663D01*
X106927000Y-122093663D01*
X106927000Y-118993663D01*
X115621931Y-118993663D01*
X115770493Y-119353212D01*
X116045341Y-119628540D01*
X116404630Y-119777730D01*
X116793663Y-119778069D01*
X117153212Y-119629507D01*
X117428540Y-119354659D01*
X117571574Y-119010195D01*
X117854630Y-119127730D01*
X118243663Y-119128069D01*
X118399940Y-119063497D01*
X118554630Y-119127730D01*
X118943663Y-119128069D01*
X119303212Y-118979507D01*
X119578540Y-118704659D01*
X119727730Y-118345370D01*
X119728069Y-117956337D01*
X119579507Y-117596788D01*
X119327992Y-117344834D01*
X119328069Y-117256337D01*
X119179507Y-116896788D01*
X118904659Y-116621460D01*
X118545370Y-116472270D01*
X118156337Y-116471931D01*
X117796788Y-116620493D01*
X117521460Y-116895341D01*
X117372270Y-117254630D01*
X117372104Y-117444959D01*
X117221460Y-117595341D01*
X117078426Y-117939805D01*
X116795370Y-117822270D01*
X116406337Y-117821931D01*
X116046788Y-117970493D01*
X115771460Y-118245341D01*
X115622270Y-118604630D01*
X115621931Y-118993663D01*
X106927000Y-118993663D01*
X106927000Y-118093663D01*
X113621931Y-118093663D01*
X113770493Y-118453212D01*
X114045341Y-118728540D01*
X114404630Y-118877730D01*
X114793663Y-118878069D01*
X115153212Y-118729507D01*
X115428540Y-118454659D01*
X115577730Y-118095370D01*
X115578069Y-117706337D01*
X115491941Y-117497890D01*
X115804630Y-117627730D01*
X116193663Y-117628069D01*
X116553212Y-117479507D01*
X116828540Y-117204659D01*
X116977730Y-116845370D01*
X116978069Y-116456337D01*
X116829507Y-116096788D01*
X116554659Y-115821460D01*
X116195370Y-115672270D01*
X115806337Y-115671931D01*
X115446788Y-115820493D01*
X115171460Y-116095341D01*
X115022270Y-116454630D01*
X115021931Y-116843663D01*
X115108059Y-117052110D01*
X114795370Y-116922270D01*
X114406337Y-116921931D01*
X114046788Y-117070493D01*
X113771460Y-117345341D01*
X113622270Y-117704630D01*
X113621931Y-118093663D01*
X106927000Y-118093663D01*
X106927000Y-117452606D01*
X107335943Y-117043663D01*
X109121931Y-117043663D01*
X109270493Y-117403212D01*
X109545341Y-117678540D01*
X109904630Y-117827730D01*
X110293663Y-117828069D01*
X110653212Y-117679507D01*
X110928540Y-117404659D01*
X111077730Y-117045370D01*
X111078069Y-116656337D01*
X110929507Y-116296788D01*
X110654659Y-116021460D01*
X110295370Y-115872270D01*
X109906337Y-115871931D01*
X109546788Y-116020493D01*
X109271460Y-116295341D01*
X109122270Y-116654630D01*
X109121931Y-117043663D01*
X107335943Y-117043663D01*
X109251704Y-115127902D01*
X109443663Y-115128069D01*
X109803212Y-114979507D01*
X110078540Y-114704659D01*
X110227730Y-114345370D01*
X110227899Y-114151707D01*
X111685943Y-112693663D01*
X114071931Y-112693663D01*
X114220493Y-113053212D01*
X114495341Y-113328540D01*
X114854630Y-113477730D01*
X115243663Y-113478069D01*
X115460295Y-113388559D01*
X115554630Y-113427730D01*
X115943663Y-113428069D01*
X116303212Y-113279507D01*
X116578540Y-113004659D01*
X116727730Y-112645370D01*
X116728069Y-112256337D01*
X116722833Y-112243663D01*
X118021931Y-112243663D01*
X118170493Y-112603212D01*
X118445341Y-112878540D01*
X118758537Y-113008590D01*
X118571460Y-113195341D01*
X118422270Y-113554630D01*
X118421931Y-113943663D01*
X118570493Y-114303212D01*
X118845341Y-114578540D01*
X119204630Y-114727730D01*
X119593663Y-114728069D01*
X119953212Y-114579507D01*
X120228540Y-114304659D01*
X120377730Y-113945370D01*
X120378069Y-113556337D01*
X120352173Y-113493663D01*
X122071931Y-113493663D01*
X122220493Y-113853212D01*
X122495341Y-114128540D01*
X122854630Y-114277730D01*
X123243663Y-114278069D01*
X123603212Y-114129507D01*
X123878540Y-113854659D01*
X124027730Y-113495370D01*
X124028069Y-113106337D01*
X123879507Y-112746788D01*
X123876388Y-112743663D01*
X124821931Y-112743663D01*
X124970493Y-113103212D01*
X125245341Y-113378540D01*
X125604630Y-113527730D01*
X125993663Y-113528069D01*
X126353212Y-113379507D01*
X126628540Y-113104659D01*
X126777730Y-112745370D01*
X126778069Y-112356337D01*
X126629507Y-111996788D01*
X126354659Y-111721460D01*
X125995370Y-111572270D01*
X125606337Y-111571931D01*
X125246788Y-111720493D01*
X124971460Y-111995341D01*
X124822270Y-112354630D01*
X124821931Y-112743663D01*
X123876388Y-112743663D01*
X123604659Y-112471460D01*
X123245370Y-112322270D01*
X122856337Y-112321931D01*
X122496788Y-112470493D01*
X122221460Y-112745341D01*
X122072270Y-113104630D01*
X122071931Y-113493663D01*
X120352173Y-113493663D01*
X120229507Y-113196788D01*
X119954659Y-112921460D01*
X119641463Y-112791410D01*
X119828540Y-112604659D01*
X119977730Y-112245370D01*
X119978069Y-111856337D01*
X119829507Y-111496788D01*
X119554659Y-111221460D01*
X119195370Y-111072270D01*
X118806337Y-111071931D01*
X118446788Y-111220493D01*
X118171460Y-111495341D01*
X118022270Y-111854630D01*
X118021931Y-112243663D01*
X116722833Y-112243663D01*
X116579507Y-111896788D01*
X116304659Y-111621460D01*
X115945370Y-111472270D01*
X115556337Y-111471931D01*
X115339705Y-111561441D01*
X115245370Y-111522270D01*
X114856337Y-111521931D01*
X114496788Y-111670493D01*
X114221460Y-111945341D01*
X114072270Y-112304630D01*
X114071931Y-112693663D01*
X111685943Y-112693663D01*
X112089803Y-112289803D01*
X112117666Y-112247789D01*
X112127000Y-112200000D01*
X112127000Y-110143663D01*
X113421931Y-110143663D01*
X113570493Y-110503212D01*
X113845341Y-110778540D01*
X114204630Y-110927730D01*
X114593663Y-110928069D01*
X114953212Y-110779507D01*
X115228540Y-110504659D01*
X115377730Y-110145370D01*
X115377777Y-110091374D01*
X115771931Y-110091374D01*
X115920493Y-110450923D01*
X116195341Y-110726251D01*
X116554630Y-110875441D01*
X116943663Y-110875780D01*
X117303212Y-110727218D01*
X117578540Y-110452370D01*
X117727730Y-110093081D01*
X117728069Y-109704048D01*
X117579507Y-109344499D01*
X117304659Y-109069171D01*
X116945370Y-108919981D01*
X116556337Y-108919642D01*
X116196788Y-109068204D01*
X115921460Y-109343052D01*
X115772270Y-109702341D01*
X115771931Y-110091374D01*
X115377777Y-110091374D01*
X115378069Y-109756337D01*
X115229507Y-109396788D01*
X114954659Y-109121460D01*
X114595370Y-108972270D01*
X114206337Y-108971931D01*
X113846788Y-109120493D01*
X113571460Y-109395341D01*
X113422270Y-109754630D01*
X113421931Y-110143663D01*
X112127000Y-110143663D01*
X112127000Y-108743663D01*
X117871931Y-108743663D01*
X118020493Y-109103212D01*
X118295341Y-109378540D01*
X118654630Y-109527730D01*
X118695711Y-109527766D01*
X118622270Y-109704630D01*
X118621931Y-110093663D01*
X118770493Y-110453212D01*
X119045341Y-110728540D01*
X119404630Y-110877730D01*
X119793663Y-110878069D01*
X120153212Y-110729507D01*
X120428540Y-110454659D01*
X120433105Y-110443663D01*
X122221931Y-110443663D01*
X122370493Y-110803212D01*
X122645341Y-111078540D01*
X123004630Y-111227730D01*
X123393663Y-111228069D01*
X123753212Y-111079507D01*
X124028540Y-110804659D01*
X124177730Y-110445370D01*
X124178069Y-110056337D01*
X124029507Y-109696788D01*
X123754659Y-109421460D01*
X123395370Y-109272270D01*
X123006337Y-109271931D01*
X122646788Y-109420493D01*
X122371460Y-109695341D01*
X122222270Y-110054630D01*
X122221931Y-110443663D01*
X120433105Y-110443663D01*
X120577730Y-110095370D01*
X120578069Y-109706337D01*
X120429507Y-109346788D01*
X120154659Y-109071460D01*
X119967304Y-108993663D01*
X124371931Y-108993663D01*
X124520493Y-109353212D01*
X124795341Y-109628540D01*
X125154630Y-109777730D01*
X125543663Y-109778069D01*
X125903212Y-109629507D01*
X126178540Y-109354659D01*
X126327730Y-108995370D01*
X126328069Y-108606337D01*
X126179507Y-108246788D01*
X125904659Y-107971460D01*
X125545370Y-107822270D01*
X125156337Y-107821931D01*
X124796788Y-107970493D01*
X124521460Y-108245341D01*
X124372270Y-108604630D01*
X124371931Y-108993663D01*
X119967304Y-108993663D01*
X119795370Y-108922270D01*
X119754289Y-108922234D01*
X119827730Y-108745370D01*
X119828069Y-108356337D01*
X119802858Y-108295320D01*
X119874449Y-108122909D01*
X119874788Y-107733876D01*
X119754875Y-107443663D01*
X121071931Y-107443663D01*
X121220493Y-107803212D01*
X121495341Y-108078540D01*
X121854630Y-108227730D01*
X122243663Y-108228069D01*
X122603212Y-108079507D01*
X122878540Y-107804659D01*
X123027730Y-107445370D01*
X123028069Y-107056337D01*
X122879507Y-106696788D01*
X122604659Y-106421460D01*
X122245370Y-106272270D01*
X121856337Y-106271931D01*
X121496788Y-106420493D01*
X121221460Y-106695341D01*
X121072270Y-107054630D01*
X121071931Y-107443663D01*
X119754875Y-107443663D01*
X119726226Y-107374327D01*
X119451378Y-107098999D01*
X119092089Y-106949809D01*
X118703056Y-106949470D01*
X118343507Y-107098032D01*
X118068179Y-107372880D01*
X117918989Y-107732169D01*
X117918650Y-108121202D01*
X117943861Y-108182219D01*
X117872270Y-108354630D01*
X117871931Y-108743663D01*
X112127000Y-108743663D01*
X112127000Y-105327000D01*
X119997359Y-105327000D01*
X121076533Y-105371791D01*
X121126316Y-105363843D01*
X121157623Y-105343663D01*
X123671931Y-105343663D01*
X123820493Y-105703212D01*
X124095341Y-105978540D01*
X124454630Y-106127730D01*
X124843663Y-106128069D01*
X125203212Y-105979507D01*
X125478540Y-105704659D01*
X125627730Y-105345370D01*
X125628069Y-104956337D01*
X125479507Y-104596788D01*
X125204659Y-104321460D01*
X124845370Y-104172270D01*
X124456337Y-104171931D01*
X124096788Y-104320493D01*
X123821460Y-104595341D01*
X123672270Y-104954630D01*
X123671931Y-105343663D01*
X121157623Y-105343663D01*
X121171744Y-105334561D01*
X125160745Y-101332976D01*
X127027559Y-101321480D01*
X126972270Y-101454630D01*
X126971931Y-101843663D01*
X127120493Y-102203212D01*
X127395341Y-102478540D01*
X127754630Y-102627730D01*
X128143663Y-102628069D01*
X128503212Y-102479507D01*
X128778540Y-102204659D01*
X128927730Y-101845370D01*
X128928069Y-101456337D01*
X128867665Y-101310148D01*
X134197719Y-101277325D01*
X135797888Y-102877494D01*
G36*
X140620493Y-132453212D02*
X140895341Y-132728540D01*
X141254630Y-132877730D01*
X141643663Y-132878069D01*
X142003212Y-132729507D01*
X142278540Y-132454659D01*
X142414596Y-132127000D01*
X143073000Y-132127000D01*
X143073000Y-132794240D01*
X142821460Y-133045341D01*
X142672270Y-133404630D01*
X142671931Y-133793663D01*
X142704712Y-133873000D01*
X139978743Y-133873000D01*
X139877380Y-133771460D01*
X139518091Y-133622270D01*
X139129058Y-133621931D01*
X138769509Y-133770493D01*
X138494181Y-134045341D01*
X138344991Y-134404630D01*
X138344931Y-134473000D01*
X136927000Y-134473000D01*
X136927000Y-134052606D01*
X138676035Y-132303571D01*
X138854630Y-132377730D01*
X139243663Y-132378069D01*
X139603212Y-132229507D01*
X139705898Y-132127000D01*
X140485706Y-132127000D01*
X140620493Y-132453212D01*
X140620493Y-132453212D01*
G37*
X140620493Y-132453212D02*
X140895341Y-132728540D01*
X141254630Y-132877730D01*
X141643663Y-132878069D01*
X142003212Y-132729507D01*
X142278540Y-132454659D01*
X142414596Y-132127000D01*
X143073000Y-132127000D01*
X143073000Y-132794240D01*
X142821460Y-133045341D01*
X142672270Y-133404630D01*
X142671931Y-133793663D01*
X142704712Y-133873000D01*
X139978743Y-133873000D01*
X139877380Y-133771460D01*
X139518091Y-133622270D01*
X139129058Y-133621931D01*
X138769509Y-133770493D01*
X138494181Y-134045341D01*
X138344991Y-134404630D01*
X138344931Y-134473000D01*
X136927000Y-134473000D01*
X136927000Y-134052606D01*
X138676035Y-132303571D01*
X138854630Y-132377730D01*
X139243663Y-132378069D01*
X139603212Y-132229507D01*
X139705898Y-132127000D01*
X140485706Y-132127000D01*
X140620493Y-132453212D01*
G36*
X114873000Y-134343978D02*
X114771460Y-134445341D01*
X114622270Y-134804630D01*
X114621931Y-135193663D01*
X114770493Y-135553212D01*
X114873000Y-135655898D01*
X114873000Y-145199836D01*
X114858867Y-156145258D01*
X114138338Y-156878138D01*
X114048559Y-156935910D01*
X113973410Y-157045894D01*
X113909845Y-157110549D01*
X110385000Y-160635394D01*
X110385000Y-160435750D01*
X110226250Y-160277000D01*
X109077000Y-160277000D01*
X109077000Y-160297000D01*
X108823000Y-160297000D01*
X108823000Y-160277000D01*
X107673750Y-160277000D01*
X107515000Y-160435750D01*
X107515000Y-160873000D01*
X105169802Y-160873000D01*
X105185000Y-160836310D01*
X105185000Y-160145750D01*
X105026250Y-159987000D01*
X103827000Y-159987000D01*
X103827000Y-160007000D01*
X103573000Y-160007000D01*
X103573000Y-159987000D01*
X102373750Y-159987000D01*
X102215000Y-160145750D01*
X102215000Y-160836310D01*
X102230198Y-160873000D01*
X102127000Y-160873000D01*
X102127000Y-158883690D01*
X102215000Y-158883690D01*
X102215000Y-159574250D01*
X102373750Y-159733000D01*
X103573000Y-159733000D01*
X103573000Y-158533750D01*
X103827000Y-158533750D01*
X103827000Y-159733000D01*
X105026250Y-159733000D01*
X105185000Y-159574250D01*
X105185000Y-159223691D01*
X107515000Y-159223691D01*
X107515000Y-159864250D01*
X107673750Y-160023000D01*
X108823000Y-160023000D01*
X108823000Y-158873750D01*
X109077000Y-158873750D01*
X109077000Y-160023000D01*
X110226250Y-160023000D01*
X110385000Y-159864250D01*
X110385000Y-159223691D01*
X110288327Y-158990302D01*
X110109699Y-158811673D01*
X109876310Y-158715000D01*
X109235750Y-158715000D01*
X109077000Y-158873750D01*
X108823000Y-158873750D01*
X108664250Y-158715000D01*
X108023690Y-158715000D01*
X107790301Y-158811673D01*
X107611673Y-158990302D01*
X107515000Y-159223691D01*
X105185000Y-159223691D01*
X105185000Y-158883690D01*
X105088327Y-158650301D01*
X104909698Y-158471673D01*
X104676309Y-158375000D01*
X103985750Y-158375000D01*
X103827000Y-158533750D01*
X103573000Y-158533750D01*
X103414250Y-158375000D01*
X102723691Y-158375000D01*
X102490302Y-158471673D01*
X102311673Y-158650301D01*
X102215000Y-158883690D01*
X102127000Y-158883690D01*
X102127000Y-157800000D01*
X102126996Y-157799038D01*
X102109153Y-155443663D01*
X106471931Y-155443663D01*
X106586379Y-155720651D01*
X106572270Y-155754630D01*
X106571931Y-156143663D01*
X106632275Y-156289708D01*
X106522270Y-156554630D01*
X106521931Y-156943663D01*
X106617569Y-157175125D01*
X106522270Y-157404630D01*
X106521931Y-157793663D01*
X106670493Y-158153212D01*
X106945341Y-158428540D01*
X107304630Y-158577730D01*
X107693663Y-158578069D01*
X108053212Y-158429507D01*
X108328540Y-158154659D01*
X108477730Y-157795370D01*
X108478069Y-157406337D01*
X108382431Y-157174875D01*
X108477730Y-156945370D01*
X108478069Y-156556337D01*
X108417725Y-156410292D01*
X108527730Y-156145370D01*
X108527856Y-156000000D01*
X108535907Y-156000000D01*
X108648946Y-156568285D01*
X108970853Y-157050054D01*
X109452622Y-157371961D01*
X110020907Y-157485000D01*
X110079093Y-157485000D01*
X110647378Y-157371961D01*
X111129147Y-157050054D01*
X111451054Y-156568285D01*
X111564093Y-156000000D01*
X111451054Y-155431715D01*
X111129147Y-154949946D01*
X111087548Y-154922150D01*
X111135317Y-154913162D01*
X111351441Y-154774090D01*
X111496431Y-154561890D01*
X111547440Y-154310000D01*
X111547440Y-152610000D01*
X111503162Y-152374683D01*
X111364090Y-152158559D01*
X111151890Y-152013569D01*
X110900000Y-151962560D01*
X109200000Y-151962560D01*
X108964683Y-152006838D01*
X108748559Y-152145910D01*
X108603569Y-152358110D01*
X108552560Y-152610000D01*
X108552560Y-154310000D01*
X108596838Y-154545317D01*
X108735910Y-154761441D01*
X108948110Y-154906431D01*
X109015541Y-154920086D01*
X108970853Y-154949946D01*
X108648946Y-155431715D01*
X108535907Y-156000000D01*
X108527856Y-156000000D01*
X108528069Y-155756337D01*
X108413621Y-155479349D01*
X108427730Y-155445370D01*
X108428069Y-155056337D01*
X108279507Y-154696788D01*
X108004659Y-154421460D01*
X107645370Y-154272270D01*
X107256337Y-154271931D01*
X106896788Y-154420493D01*
X106621460Y-154695341D01*
X106472270Y-155054630D01*
X106471931Y-155443663D01*
X102109153Y-155443663D01*
X102079229Y-151493663D01*
X102671931Y-151493663D01*
X102820493Y-151853212D01*
X103095341Y-152128540D01*
X103454630Y-152277730D01*
X103843663Y-152278069D01*
X104203212Y-152129507D01*
X104478540Y-151854659D01*
X104627730Y-151495370D01*
X104628069Y-151106337D01*
X104479507Y-150746788D01*
X104204659Y-150471460D01*
X103845370Y-150322270D01*
X103456337Y-150321931D01*
X103096788Y-150470493D01*
X102821460Y-150745341D01*
X102672270Y-151104630D01*
X102671931Y-151493663D01*
X102079229Y-151493663D01*
X102077399Y-151252207D01*
X108439803Y-144889803D01*
X108467666Y-144847789D01*
X108476999Y-144800520D01*
X108477027Y-144793663D01*
X109771931Y-144793663D01*
X109920493Y-145153212D01*
X110195341Y-145428540D01*
X110554630Y-145577730D01*
X110943663Y-145578069D01*
X111303212Y-145429507D01*
X111578540Y-145154659D01*
X111714329Y-144827642D01*
X111909531Y-145023185D01*
X112268820Y-145172375D01*
X112657853Y-145172714D01*
X113017402Y-145024152D01*
X113292730Y-144749304D01*
X113441920Y-144390015D01*
X113442259Y-144000982D01*
X113293697Y-143641433D01*
X113018849Y-143366105D01*
X112659560Y-143216915D01*
X112270527Y-143216576D01*
X111910978Y-143365138D01*
X111635650Y-143639986D01*
X111499861Y-143967003D01*
X111304659Y-143771460D01*
X110945370Y-143622270D01*
X110556337Y-143621931D01*
X110196788Y-143770493D01*
X109921460Y-144045341D01*
X109772270Y-144404630D01*
X109771931Y-144793663D01*
X108477027Y-144793663D01*
X108500387Y-139093663D01*
X111271931Y-139093663D01*
X111420493Y-139453212D01*
X111695341Y-139728540D01*
X112054630Y-139877730D01*
X112443663Y-139878069D01*
X112803212Y-139729507D01*
X113078540Y-139454659D01*
X113227730Y-139095370D01*
X113228069Y-138706337D01*
X113079507Y-138346788D01*
X112804659Y-138071460D01*
X112445370Y-137922270D01*
X112056337Y-137921931D01*
X111696788Y-138070493D01*
X111421460Y-138345341D01*
X111272270Y-138704630D01*
X111271931Y-139093663D01*
X108500387Y-139093663D01*
X108516780Y-135093663D01*
X112121931Y-135093663D01*
X112270493Y-135453212D01*
X112545341Y-135728540D01*
X112904630Y-135877730D01*
X113293663Y-135878069D01*
X113653212Y-135729507D01*
X113928540Y-135454659D01*
X114077730Y-135095370D01*
X114078069Y-134706337D01*
X113929507Y-134346788D01*
X113654659Y-134071460D01*
X113295370Y-133922270D01*
X112906337Y-133921931D01*
X112546788Y-134070493D01*
X112271460Y-134345341D01*
X112122270Y-134704630D01*
X112121931Y-135093663D01*
X108516780Y-135093663D01*
X108520879Y-134093663D01*
X108915021Y-134093663D01*
X109063583Y-134453212D01*
X109338431Y-134728540D01*
X109697720Y-134877730D01*
X110086753Y-134878069D01*
X110446302Y-134729507D01*
X110721630Y-134454659D01*
X110870820Y-134095370D01*
X110871159Y-133706337D01*
X110722597Y-133346788D01*
X110447749Y-133071460D01*
X110088460Y-132922270D01*
X109699427Y-132921931D01*
X109339878Y-133070493D01*
X109064550Y-133345341D01*
X108915360Y-133704630D01*
X108915021Y-134093663D01*
X108520879Y-134093663D01*
X108526481Y-132727000D01*
X114873000Y-132727000D01*
X114873000Y-134343978D01*
X114873000Y-134343978D01*
G37*
X114873000Y-134343978D02*
X114771460Y-134445341D01*
X114622270Y-134804630D01*
X114621931Y-135193663D01*
X114770493Y-135553212D01*
X114873000Y-135655898D01*
X114873000Y-145199836D01*
X114858867Y-156145258D01*
X114138338Y-156878138D01*
X114048559Y-156935910D01*
X113973410Y-157045894D01*
X113909845Y-157110549D01*
X110385000Y-160635394D01*
X110385000Y-160435750D01*
X110226250Y-160277000D01*
X109077000Y-160277000D01*
X109077000Y-160297000D01*
X108823000Y-160297000D01*
X108823000Y-160277000D01*
X107673750Y-160277000D01*
X107515000Y-160435750D01*
X107515000Y-160873000D01*
X105169802Y-160873000D01*
X105185000Y-160836310D01*
X105185000Y-160145750D01*
X105026250Y-159987000D01*
X103827000Y-159987000D01*
X103827000Y-160007000D01*
X103573000Y-160007000D01*
X103573000Y-159987000D01*
X102373750Y-159987000D01*
X102215000Y-160145750D01*
X102215000Y-160836310D01*
X102230198Y-160873000D01*
X102127000Y-160873000D01*
X102127000Y-158883690D01*
X102215000Y-158883690D01*
X102215000Y-159574250D01*
X102373750Y-159733000D01*
X103573000Y-159733000D01*
X103573000Y-158533750D01*
X103827000Y-158533750D01*
X103827000Y-159733000D01*
X105026250Y-159733000D01*
X105185000Y-159574250D01*
X105185000Y-159223691D01*
X107515000Y-159223691D01*
X107515000Y-159864250D01*
X107673750Y-160023000D01*
X108823000Y-160023000D01*
X108823000Y-158873750D01*
X109077000Y-158873750D01*
X109077000Y-160023000D01*
X110226250Y-160023000D01*
X110385000Y-159864250D01*
X110385000Y-159223691D01*
X110288327Y-158990302D01*
X110109699Y-158811673D01*
X109876310Y-158715000D01*
X109235750Y-158715000D01*
X109077000Y-158873750D01*
X108823000Y-158873750D01*
X108664250Y-158715000D01*
X108023690Y-158715000D01*
X107790301Y-158811673D01*
X107611673Y-158990302D01*
X107515000Y-159223691D01*
X105185000Y-159223691D01*
X105185000Y-158883690D01*
X105088327Y-158650301D01*
X104909698Y-158471673D01*
X104676309Y-158375000D01*
X103985750Y-158375000D01*
X103827000Y-158533750D01*
X103573000Y-158533750D01*
X103414250Y-158375000D01*
X102723691Y-158375000D01*
X102490302Y-158471673D01*
X102311673Y-158650301D01*
X102215000Y-158883690D01*
X102127000Y-158883690D01*
X102127000Y-157800000D01*
X102126996Y-157799038D01*
X102109153Y-155443663D01*
X106471931Y-155443663D01*
X106586379Y-155720651D01*
X106572270Y-155754630D01*
X106571931Y-156143663D01*
X106632275Y-156289708D01*
X106522270Y-156554630D01*
X106521931Y-156943663D01*
X106617569Y-157175125D01*
X106522270Y-157404630D01*
X106521931Y-157793663D01*
X106670493Y-158153212D01*
X106945341Y-158428540D01*
X107304630Y-158577730D01*
X107693663Y-158578069D01*
X108053212Y-158429507D01*
X108328540Y-158154659D01*
X108477730Y-157795370D01*
X108478069Y-157406337D01*
X108382431Y-157174875D01*
X108477730Y-156945370D01*
X108478069Y-156556337D01*
X108417725Y-156410292D01*
X108527730Y-156145370D01*
X108527856Y-156000000D01*
X108535907Y-156000000D01*
X108648946Y-156568285D01*
X108970853Y-157050054D01*
X109452622Y-157371961D01*
X110020907Y-157485000D01*
X110079093Y-157485000D01*
X110647378Y-157371961D01*
X111129147Y-157050054D01*
X111451054Y-156568285D01*
X111564093Y-156000000D01*
X111451054Y-155431715D01*
X111129147Y-154949946D01*
X111087548Y-154922150D01*
X111135317Y-154913162D01*
X111351441Y-154774090D01*
X111496431Y-154561890D01*
X111547440Y-154310000D01*
X111547440Y-152610000D01*
X111503162Y-152374683D01*
X111364090Y-152158559D01*
X111151890Y-152013569D01*
X110900000Y-151962560D01*
X109200000Y-151962560D01*
X108964683Y-152006838D01*
X108748559Y-152145910D01*
X108603569Y-152358110D01*
X108552560Y-152610000D01*
X108552560Y-154310000D01*
X108596838Y-154545317D01*
X108735910Y-154761441D01*
X108948110Y-154906431D01*
X109015541Y-154920086D01*
X108970853Y-154949946D01*
X108648946Y-155431715D01*
X108535907Y-156000000D01*
X108527856Y-156000000D01*
X108528069Y-155756337D01*
X108413621Y-155479349D01*
X108427730Y-155445370D01*
X108428069Y-155056337D01*
X108279507Y-154696788D01*
X108004659Y-154421460D01*
X107645370Y-154272270D01*
X107256337Y-154271931D01*
X106896788Y-154420493D01*
X106621460Y-154695341D01*
X106472270Y-155054630D01*
X106471931Y-155443663D01*
X102109153Y-155443663D01*
X102079229Y-151493663D01*
X102671931Y-151493663D01*
X102820493Y-151853212D01*
X103095341Y-152128540D01*
X103454630Y-152277730D01*
X103843663Y-152278069D01*
X104203212Y-152129507D01*
X104478540Y-151854659D01*
X104627730Y-151495370D01*
X104628069Y-151106337D01*
X104479507Y-150746788D01*
X104204659Y-150471460D01*
X103845370Y-150322270D01*
X103456337Y-150321931D01*
X103096788Y-150470493D01*
X102821460Y-150745341D01*
X102672270Y-151104630D01*
X102671931Y-151493663D01*
X102079229Y-151493663D01*
X102077399Y-151252207D01*
X108439803Y-144889803D01*
X108467666Y-144847789D01*
X108476999Y-144800520D01*
X108477027Y-144793663D01*
X109771931Y-144793663D01*
X109920493Y-145153212D01*
X110195341Y-145428540D01*
X110554630Y-145577730D01*
X110943663Y-145578069D01*
X111303212Y-145429507D01*
X111578540Y-145154659D01*
X111714329Y-144827642D01*
X111909531Y-145023185D01*
X112268820Y-145172375D01*
X112657853Y-145172714D01*
X113017402Y-145024152D01*
X113292730Y-144749304D01*
X113441920Y-144390015D01*
X113442259Y-144000982D01*
X113293697Y-143641433D01*
X113018849Y-143366105D01*
X112659560Y-143216915D01*
X112270527Y-143216576D01*
X111910978Y-143365138D01*
X111635650Y-143639986D01*
X111499861Y-143967003D01*
X111304659Y-143771460D01*
X110945370Y-143622270D01*
X110556337Y-143621931D01*
X110196788Y-143770493D01*
X109921460Y-144045341D01*
X109772270Y-144404630D01*
X109771931Y-144793663D01*
X108477027Y-144793663D01*
X108500387Y-139093663D01*
X111271931Y-139093663D01*
X111420493Y-139453212D01*
X111695341Y-139728540D01*
X112054630Y-139877730D01*
X112443663Y-139878069D01*
X112803212Y-139729507D01*
X113078540Y-139454659D01*
X113227730Y-139095370D01*
X113228069Y-138706337D01*
X113079507Y-138346788D01*
X112804659Y-138071460D01*
X112445370Y-137922270D01*
X112056337Y-137921931D01*
X111696788Y-138070493D01*
X111421460Y-138345341D01*
X111272270Y-138704630D01*
X111271931Y-139093663D01*
X108500387Y-139093663D01*
X108516780Y-135093663D01*
X112121931Y-135093663D01*
X112270493Y-135453212D01*
X112545341Y-135728540D01*
X112904630Y-135877730D01*
X113293663Y-135878069D01*
X113653212Y-135729507D01*
X113928540Y-135454659D01*
X114077730Y-135095370D01*
X114078069Y-134706337D01*
X113929507Y-134346788D01*
X113654659Y-134071460D01*
X113295370Y-133922270D01*
X112906337Y-133921931D01*
X112546788Y-134070493D01*
X112271460Y-134345341D01*
X112122270Y-134704630D01*
X112121931Y-135093663D01*
X108516780Y-135093663D01*
X108520879Y-134093663D01*
X108915021Y-134093663D01*
X109063583Y-134453212D01*
X109338431Y-134728540D01*
X109697720Y-134877730D01*
X110086753Y-134878069D01*
X110446302Y-134729507D01*
X110721630Y-134454659D01*
X110870820Y-134095370D01*
X110871159Y-133706337D01*
X110722597Y-133346788D01*
X110447749Y-133071460D01*
X110088460Y-132922270D01*
X109699427Y-132921931D01*
X109339878Y-133070493D01*
X109064550Y-133345341D01*
X108915360Y-133704630D01*
X108915021Y-134093663D01*
X108520879Y-134093663D01*
X108526481Y-132727000D01*
X114873000Y-132727000D01*
X114873000Y-134343978D01*
M02*
