G04 #@! TF.FileFunction,Copper,L2,Inr,Plane*
%FSLAX46Y46*%
G04 Gerber Fmt 4.6, Leading zero omitted, Abs format (unit mm)*
G04 Created by KiCad (PCBNEW 4.0.7) date Sat Apr 21 08:35:35 2018*
%MOMM*%
%LPD*%
G01*
G04 APERTURE LIST*
%ADD10C,0.100000*%
%ADD11R,1.600000X1.600000*%
%ADD12C,1.600000*%
%ADD13R,1.700000X1.700000*%
%ADD14O,1.700000X1.700000*%
%ADD15C,2.200000*%
%ADD16R,3.300000X3.000000*%
%ADD17C,0.685800*%
%ADD18C,0.762000*%
%ADD19C,0.381000*%
%ADD20C,0.250000*%
%ADD21C,0.152400*%
%ADD22C,0.254000*%
G04 APERTURE END LIST*
D10*
D11*
X108950000Y-160150000D03*
D12*
X108950000Y-162150000D03*
D13*
X106250000Y-104580000D03*
D14*
X106250000Y-107120000D03*
X106250000Y-109660000D03*
X106250000Y-112200000D03*
D13*
X110050000Y-153460000D03*
D14*
X110050000Y-156000000D03*
D13*
X103700000Y-159860000D03*
D14*
X103700000Y-162400000D03*
D15*
X120550000Y-151900000D03*
X118050000Y-151900000D03*
X123050000Y-151900000D03*
D16*
X124950000Y-158900000D03*
X116150000Y-158900000D03*
D13*
X128050000Y-104960000D03*
D14*
X128050000Y-107500000D03*
X128050000Y-110040000D03*
D13*
X126644400Y-128333500D03*
D14*
X126644400Y-130873500D03*
X126644400Y-133413500D03*
D13*
X128993900Y-155790900D03*
D14*
X128993900Y-153250900D03*
X128993900Y-150710900D03*
D17*
X116600000Y-118800000D03*
X129300000Y-161400000D03*
X129950000Y-166250000D03*
X132800000Y-164600000D03*
X135950000Y-165950000D03*
X134500000Y-153150000D03*
X134700000Y-155050000D03*
X134900000Y-156950000D03*
X135300000Y-160350000D03*
X135450000Y-163500000D03*
X122050000Y-107250000D03*
X119600000Y-109900000D03*
X116750000Y-109897711D03*
X114400000Y-109950000D03*
X131300000Y-103650000D03*
X109250000Y-114150000D03*
X102300000Y-115200000D03*
X103250000Y-101300000D03*
X101600000Y-105650000D03*
X103700000Y-108850000D03*
X101600000Y-112950000D03*
X106250000Y-115950000D03*
X114600000Y-117900000D03*
X115400000Y-121900000D03*
X134950000Y-106900000D03*
X137750000Y-113700000D03*
X127300000Y-122800000D03*
X127200000Y-118500000D03*
X117150000Y-101100000D03*
X122350000Y-101900000D03*
X129050000Y-115600000D03*
X125800000Y-115150000D03*
X125800000Y-112550000D03*
X125350000Y-108800000D03*
X124650000Y-105150000D03*
X127950000Y-101650000D03*
X131950000Y-106550000D03*
X133050000Y-103250000D03*
X136700000Y-102500000D03*
X137150000Y-106500000D03*
X138750000Y-109250000D03*
X137900000Y-157050000D03*
X137650000Y-160650000D03*
X137800000Y-124650000D03*
X136400000Y-121300000D03*
X147900000Y-132000000D03*
X148350000Y-129400000D03*
X148500000Y-126500000D03*
X146850000Y-122850000D03*
X150750000Y-120850000D03*
X148200000Y-118000000D03*
X150450000Y-115250000D03*
X148900000Y-111300000D03*
X150400000Y-108950000D03*
X147900000Y-102450000D03*
X148100000Y-105750000D03*
X146550000Y-108900000D03*
X146300000Y-112350000D03*
X146050000Y-115050000D03*
X143450000Y-116700000D03*
X143600000Y-113800000D03*
X143600000Y-110650000D03*
X143600000Y-107200000D03*
X141400000Y-107250000D03*
X141400000Y-110650000D03*
X141500000Y-113650000D03*
X141550000Y-116400000D03*
X138750000Y-116250000D03*
X136500000Y-116250000D03*
X136550000Y-118450000D03*
X138750000Y-118450000D03*
X141750000Y-118350000D03*
X140250000Y-120500000D03*
X145550000Y-127900000D03*
X145450000Y-130550000D03*
X139050000Y-131400000D03*
X141450000Y-131900000D03*
X144150000Y-131950000D03*
X142650000Y-142200000D03*
X148100000Y-139400000D03*
X150000000Y-146350000D03*
X144750000Y-148500000D03*
X147100000Y-149250000D03*
X150250000Y-149800000D03*
X149050000Y-152200000D03*
X150250000Y-154150000D03*
X149450000Y-157200000D03*
X150350000Y-159950000D03*
X149150000Y-162100000D03*
X149850000Y-165250000D03*
X147050000Y-166400000D03*
X147500000Y-163750000D03*
X146400000Y-161450000D03*
X147100000Y-159250000D03*
X147000000Y-157450000D03*
X145750000Y-155100000D03*
X142800000Y-155150000D03*
X144100000Y-156450000D03*
X144700000Y-159950000D03*
X142650000Y-158950000D03*
X142650000Y-160900000D03*
X137800000Y-139900000D03*
X137300000Y-142400000D03*
X134500000Y-143400000D03*
X134500000Y-146500000D03*
X138200000Y-144950000D03*
X136800000Y-147350000D03*
X137650000Y-149600000D03*
X140300000Y-149500000D03*
X139500000Y-151600000D03*
X140450000Y-158950000D03*
X140550000Y-160950000D03*
X107199231Y-138779051D03*
X113300000Y-131400000D03*
X143306800Y-153009600D03*
X147750000Y-151900000D03*
X134099300Y-129946400D03*
X133261100Y-131203700D03*
X112464190Y-144194645D03*
X109893090Y-133900000D03*
X132337381Y-119552611D03*
X131500000Y-119350000D03*
X131622800Y-121424700D03*
X131102100Y-120878600D03*
X145300000Y-104600000D03*
X145300000Y-103700000D03*
X145300000Y-102700000D03*
X145300000Y-101700000D03*
X139700000Y-103700000D03*
X139700000Y-104600000D03*
X139700000Y-101700000D03*
X139730000Y-102700000D03*
X115600000Y-135000000D03*
X128780473Y-133456934D03*
X128744645Y-136044645D03*
X130450000Y-134250000D03*
X125645302Y-136400000D03*
X113100000Y-134900000D03*
X107550000Y-155950000D03*
X107450000Y-155250000D03*
X144300000Y-166400000D03*
X144300000Y-164400000D03*
X138800000Y-166400000D03*
X138800000Y-165400000D03*
X144300000Y-163400000D03*
X138800000Y-163400000D03*
X144320000Y-165400000D03*
X138780000Y-164300000D03*
X118650000Y-142700000D03*
X118650000Y-143750000D03*
X128600000Y-139700000D03*
X128700000Y-137600000D03*
X128700000Y-136800000D03*
X142650000Y-145950000D03*
X142600000Y-152550000D03*
X141750000Y-151950000D03*
X141100000Y-151950000D03*
X131950000Y-147200000D03*
X130750000Y-152250000D03*
X132300000Y-159600000D03*
X132000000Y-161700000D03*
X146250000Y-138150000D03*
X141850000Y-145400000D03*
X141150000Y-145400000D03*
X139550000Y-147950000D03*
X139600000Y-147300000D03*
X140350000Y-147550000D03*
X139322721Y-134600000D03*
X139322721Y-135300000D03*
X139522721Y-128500000D03*
X139522721Y-129250000D03*
X142450000Y-156550000D03*
X140650000Y-156550000D03*
X139450000Y-154700000D03*
X139450000Y-154000000D03*
X143450000Y-156900000D03*
X143400000Y-156050000D03*
X139600000Y-156950000D03*
X139700000Y-156200000D03*
X124715984Y-121265869D03*
X146315380Y-144676310D03*
X118750000Y-118150000D03*
X118896719Y-107927539D03*
X103100000Y-126250000D03*
X104250000Y-121900000D03*
X104250000Y-121000000D03*
X105500000Y-121400000D03*
X105900000Y-123100000D03*
X108210000Y-126250000D03*
X104250000Y-126250000D03*
X122500000Y-142250000D03*
X122600000Y-142850000D03*
X129719645Y-135069645D03*
X133900000Y-128350000D03*
X133311900Y-129946400D03*
X134099300Y-131229100D03*
X134800000Y-139100000D03*
X133850000Y-139100000D03*
X132850000Y-139000000D03*
X129800000Y-140200000D03*
X129600000Y-139200000D03*
X117950000Y-134450000D03*
X118450000Y-133900000D03*
X117950000Y-133262000D03*
X107500000Y-157600000D03*
X107500000Y-156750000D03*
X124950000Y-118750000D03*
X129050000Y-114000000D03*
X129550000Y-111850000D03*
X136150000Y-111950000D03*
X135550000Y-114450000D03*
X118050000Y-118150000D03*
X118350000Y-117450000D03*
X135621751Y-113178249D03*
X135883883Y-110466117D03*
X133809941Y-115959941D03*
X140500000Y-123900000D03*
X140850000Y-124450000D03*
X140854698Y-123350000D03*
X144650000Y-124650000D03*
X144950000Y-124000000D03*
X144645302Y-123400000D03*
X145800000Y-118150000D03*
X145800000Y-117450000D03*
X145100000Y-117700000D03*
X130000000Y-137650000D03*
X130000000Y-136950000D03*
X131550000Y-137400000D03*
X141450000Y-130350000D03*
X142200000Y-130300000D03*
X144400000Y-129300000D03*
X144450000Y-128550000D03*
X143650000Y-133600000D03*
X147000000Y-146100000D03*
X147750000Y-152600000D03*
X119400000Y-113750000D03*
X119000000Y-112050000D03*
X144200000Y-122250000D03*
X143350000Y-122250000D03*
X148000000Y-146500000D03*
X147950000Y-145850000D03*
X147100000Y-144600000D03*
X150050000Y-144750000D03*
X149550000Y-145250000D03*
X148664214Y-143864214D03*
X148150000Y-135150000D03*
X144400000Y-135350000D03*
X144400000Y-134650000D03*
X145400000Y-137000000D03*
X145350000Y-136350000D03*
X146250000Y-137500000D03*
X145150000Y-137900000D03*
X142450000Y-140600000D03*
X142500000Y-139950000D03*
X138650000Y-140300000D03*
X138650000Y-139650000D03*
X118850000Y-108550000D03*
X117457717Y-103144661D03*
X114455920Y-103021359D03*
X110750000Y-110200000D03*
X115750000Y-112450000D03*
X115050000Y-112500000D03*
X118150000Y-103100000D03*
X119300000Y-103500000D03*
X117600000Y-104250000D03*
X113800000Y-103000000D03*
X124700000Y-120550000D03*
X124700000Y-119550000D03*
X112650000Y-103500000D03*
X114350000Y-104250000D03*
X129700000Y-113100000D03*
X130766058Y-111552120D03*
X133322791Y-118802303D03*
X133850000Y-118300000D03*
X120450000Y-146200000D03*
X132350000Y-117750000D03*
X131550000Y-117750000D03*
X132400000Y-116900000D03*
X129800000Y-126350000D03*
X133900000Y-116400000D03*
X131550000Y-116900000D03*
X110100000Y-116850000D03*
X105500000Y-119800000D03*
X123200000Y-110250000D03*
X123050000Y-113300000D03*
X116000000Y-116650000D03*
X122550000Y-126020302D03*
X121850000Y-126000000D03*
X119850000Y-121000000D03*
X120150000Y-120200000D03*
X130750000Y-156950000D03*
X145618200Y-150482300D03*
X145050000Y-150400000D03*
X144830800Y-145223690D03*
X145465800Y-145173700D03*
X109300000Y-120850000D03*
X127850000Y-124750000D03*
X131940000Y-157950000D03*
X131940000Y-156050000D03*
X123150000Y-118750000D03*
X123850000Y-118750000D03*
X123850000Y-121400000D03*
X108000000Y-121400000D03*
X109250000Y-121750000D03*
X133150000Y-124600000D03*
X118000000Y-112450000D03*
X117250000Y-112400000D03*
X121100000Y-113300000D03*
X117567909Y-107202247D03*
X119300000Y-106000000D03*
X117600000Y-106150000D03*
X118200000Y-107104698D03*
X112650000Y-106000000D03*
X114350000Y-106150000D03*
X113700000Y-107200000D03*
X114350000Y-107200000D03*
X136410700Y-131229100D03*
X136410700Y-129971800D03*
X128917700Y-120434100D03*
X128498600Y-119862600D03*
X119450000Y-144500000D03*
X120500000Y-144600000D03*
X119600000Y-142850000D03*
X120700000Y-142850000D03*
X134200000Y-134250000D03*
X134278249Y-114521751D03*
X130789796Y-114656388D03*
X134116117Y-112233883D03*
X132200000Y-113600000D03*
X137200000Y-126400000D03*
X136000000Y-126400000D03*
X135572500Y-129946400D03*
X135572500Y-131254500D03*
X132350000Y-133550000D03*
X132350000Y-134250000D03*
X133450000Y-113850000D03*
X133450000Y-113350000D03*
X105665117Y-138239490D03*
X106031223Y-136868873D03*
X112250000Y-138900000D03*
X104813100Y-138925300D03*
X110200000Y-128000000D03*
X110100000Y-127200000D03*
X113650000Y-126200000D03*
X113050000Y-126200000D03*
X130150000Y-131300000D03*
X130150000Y-130450000D03*
X130250000Y-129750000D03*
X123300000Y-134900000D03*
X124100000Y-134950000D03*
X124850000Y-135050000D03*
X114200000Y-144500000D03*
X102200000Y-154800000D03*
X102200000Y-155700000D03*
X114550000Y-133800000D03*
X114500000Y-133100000D03*
X115250000Y-133750000D03*
X115200000Y-133050000D03*
X102150000Y-157650000D03*
X102200000Y-156600000D03*
X125250000Y-125550000D03*
X130067198Y-117602000D03*
X128244600Y-123456700D03*
X134750000Y-152250000D03*
X134750000Y-148350000D03*
X142700000Y-133550000D03*
X137500000Y-134400000D03*
X137450000Y-133650000D03*
X142050000Y-133500000D03*
X136400000Y-134250000D03*
X130800000Y-146900000D03*
X139809330Y-127640670D03*
X130900000Y-143800000D03*
X139800000Y-126750000D03*
X110750000Y-144600000D03*
X103650000Y-151300000D03*
X102950000Y-144100000D03*
D18*
X109060710Y-140600000D02*
X109020181Y-140600000D01*
X107542130Y-139121950D02*
X107199231Y-138779051D01*
X109020181Y-140600000D02*
X107542130Y-139121950D01*
X111250000Y-134900000D02*
X113350000Y-132800000D01*
X113350000Y-132800000D02*
X113338000Y-132800000D01*
X113338000Y-132800000D02*
X113300000Y-132762000D01*
X113300000Y-132762000D02*
X113300000Y-131400000D01*
X142600000Y-152550000D02*
X142847200Y-152550000D01*
X142847200Y-152550000D02*
X143306800Y-153009600D01*
X143395767Y-145415067D02*
X144080700Y-146100000D01*
X144080700Y-146100000D02*
X145638000Y-146100000D01*
X142600000Y-145415067D02*
X143395767Y-145415067D01*
X146315380Y-144676310D02*
X146265336Y-144676310D01*
X146265336Y-144676310D02*
X145886425Y-144297399D01*
X145886425Y-144297399D02*
X143717668Y-144297399D01*
X143717668Y-144297399D02*
X142600000Y-145415067D01*
D19*
X128050000Y-110040000D02*
X127200001Y-109190001D01*
X127200001Y-109190001D02*
X121909999Y-109190001D01*
X121909999Y-109190001D02*
X120400000Y-110700000D01*
D18*
X123500000Y-133480355D02*
X123500000Y-128817778D01*
X130426900Y-127673100D02*
X131000000Y-127100000D01*
X125367679Y-126950099D02*
X129703899Y-126950099D01*
X123500000Y-128817778D02*
X125367679Y-126950099D01*
X129703899Y-126950099D02*
X130426900Y-127673100D01*
D19*
X123523421Y-133456934D02*
X125209300Y-133456934D01*
D20*
X126644400Y-133413500D02*
X125442319Y-133413500D01*
D19*
X125209300Y-133456934D02*
X128295540Y-133456934D01*
D20*
X125442319Y-133413500D02*
X125398885Y-133456934D01*
X125398885Y-133456934D02*
X125209300Y-133456934D01*
D18*
X112121291Y-143851746D02*
X112464190Y-144194645D01*
X110300000Y-142030455D02*
X112121291Y-143851746D01*
X110300000Y-141839290D02*
X110300000Y-142030455D01*
X110235989Y-134242899D02*
X109893090Y-133900000D01*
X110893090Y-134900000D02*
X110235989Y-134242899D01*
X111250000Y-134900000D02*
X110893090Y-134900000D01*
X131000000Y-120889992D02*
X131994482Y-119895510D01*
X131994482Y-119895510D02*
X132337381Y-119552611D01*
X132350000Y-117750000D02*
X132350000Y-119539992D01*
X132350000Y-119539992D02*
X132337381Y-119552611D01*
X131000000Y-127100000D02*
X131000000Y-120889992D01*
D19*
X131622800Y-121424700D02*
X131622800Y-119472800D01*
X131622800Y-119472800D02*
X131500000Y-119350000D01*
D18*
X142600000Y-104600000D02*
X142600000Y-117650000D01*
X142600000Y-117650000D02*
X142900000Y-117950000D01*
X139700000Y-101700000D02*
X140184933Y-101700000D01*
X140184933Y-101700000D02*
X140700000Y-102215067D01*
X140700000Y-102215067D02*
X140700000Y-102700000D01*
X139730000Y-102700000D02*
X140700000Y-102700000D01*
X140700000Y-102700000D02*
X141700000Y-103700000D01*
X145300000Y-101700000D02*
X143500000Y-103500000D01*
X143500000Y-103500000D02*
X143500000Y-103700000D01*
X143500000Y-103700000D02*
X144300000Y-103700000D01*
X144300000Y-103700000D02*
X145300000Y-102700000D01*
X145300000Y-103700000D02*
X143500000Y-103700000D01*
X143500000Y-103700000D02*
X142600000Y-104600000D01*
X139700000Y-104600000D02*
X142600000Y-104600000D01*
X142600000Y-104600000D02*
X145300000Y-104600000D01*
X139700000Y-103700000D02*
X141700000Y-103700000D01*
X141700000Y-103700000D02*
X142600000Y-104600000D01*
D19*
X115000000Y-136500000D02*
X120200000Y-136500000D01*
X114500000Y-136500000D02*
X115000000Y-136500000D01*
D18*
X115000000Y-136500000D02*
X115000000Y-135600000D01*
X115000000Y-135600000D02*
X115600000Y-135000000D01*
D19*
X110400000Y-135750000D02*
X113500000Y-135750000D01*
D18*
X113100000Y-134900000D02*
X113100000Y-135384933D01*
D19*
X113500000Y-135750000D02*
X113750000Y-135750000D01*
D18*
X113100000Y-135384933D02*
X113465067Y-135750000D01*
X113465067Y-135750000D02*
X113500000Y-135750000D01*
X110400000Y-135750000D02*
X111250000Y-134900000D01*
X129265406Y-133456934D02*
X128780473Y-133456934D01*
D19*
X128295540Y-133456934D02*
X128780473Y-133456934D01*
X123500000Y-133480355D02*
X123523421Y-133456934D01*
D18*
X129656934Y-133456934D02*
X129265406Y-133456934D01*
X131100000Y-134900000D02*
X129656934Y-133456934D01*
X125645302Y-136400000D02*
X126500000Y-137254698D01*
X126500000Y-137254698D02*
X126500000Y-137700000D01*
X125645302Y-136400000D02*
X126130235Y-136400000D01*
X126130235Y-136400000D02*
X126460590Y-136069645D01*
X126460590Y-136069645D02*
X126669645Y-136069645D01*
D19*
X123219645Y-133480355D02*
X123500000Y-133480355D01*
D18*
X106750000Y-155950000D02*
X106750000Y-145389290D01*
X110300000Y-141839290D02*
X109060710Y-140600000D01*
X106750000Y-145389290D02*
X110300000Y-141839290D01*
X144300000Y-166400000D02*
X143957101Y-166057101D01*
X143357101Y-166057101D02*
X141700000Y-164400000D01*
X143957101Y-166057101D02*
X143357101Y-166057101D01*
X144320000Y-165400000D02*
X143320000Y-164400000D01*
X143320000Y-164400000D02*
X143300000Y-164400000D01*
X139700000Y-165400000D02*
X140300000Y-164800000D01*
X140300000Y-164800000D02*
X140700000Y-164400000D01*
X138800000Y-166400000D02*
X139142899Y-166057101D01*
X139142899Y-166057101D02*
X139142899Y-165957101D01*
X139142899Y-165957101D02*
X140300000Y-164800000D01*
X141700000Y-164400000D02*
X140700000Y-164400000D01*
X140700000Y-164400000D02*
X139800000Y-164400000D01*
X138800000Y-165400000D02*
X139700000Y-165400000D01*
X139800000Y-164400000D02*
X139600000Y-164200000D01*
X139600000Y-164200000D02*
X138800000Y-163400000D01*
X138780000Y-164300000D02*
X139500000Y-164300000D01*
X139500000Y-164300000D02*
X139600000Y-164200000D01*
X144300000Y-164400000D02*
X143957101Y-164057101D01*
X143957101Y-164057101D02*
X143642899Y-164057101D01*
X143642899Y-164057101D02*
X143300000Y-164400000D01*
X141700000Y-164400000D02*
X143300000Y-164400000D01*
X143300000Y-164400000D02*
X144300000Y-163400000D01*
X141700000Y-156550000D02*
X141700000Y-164400000D01*
D19*
X120200000Y-136500000D02*
X123219645Y-133480355D01*
X113750000Y-135750000D02*
X114500000Y-136500000D01*
D18*
X109060710Y-137089290D02*
X110400000Y-135750000D01*
X126112000Y-145000000D02*
X124800000Y-143688000D01*
X124800000Y-143688000D02*
X123962000Y-142850000D01*
X120450000Y-146200000D02*
X120792899Y-145857101D01*
X120792899Y-145857101D02*
X122630899Y-145857101D01*
X122630899Y-145857101D02*
X124800000Y-143688000D01*
X109060710Y-140600000D02*
X109060710Y-137089290D01*
X106200000Y-160531370D02*
X106200000Y-159200000D01*
X106200000Y-159200000D02*
X106200000Y-158000000D01*
X103700000Y-162400000D02*
X106200000Y-159900000D01*
X106200000Y-159900000D02*
X106200000Y-159200000D01*
X106200000Y-157600000D02*
X106200000Y-156800000D01*
X106200000Y-158000000D02*
X106200000Y-157600000D01*
X106200000Y-157600000D02*
X106650000Y-157600000D01*
X106650000Y-157600000D02*
X107500000Y-156750000D01*
X106200000Y-158000000D02*
X107100000Y-158000000D01*
X107100000Y-158000000D02*
X107500000Y-157600000D01*
X107550000Y-155950000D02*
X107050000Y-155950000D01*
X107050000Y-155950000D02*
X106200000Y-156800000D01*
X106350000Y-155950000D02*
X106750000Y-155950000D01*
X106750000Y-155950000D02*
X107107101Y-155592899D01*
X107107101Y-155592899D02*
X107450000Y-155250000D01*
X108950000Y-162150000D02*
X107818630Y-162150000D01*
X107818630Y-162150000D02*
X106200000Y-160531370D01*
X122500000Y-142250000D02*
X122984933Y-142250000D01*
X122984933Y-142250000D02*
X123584933Y-142850000D01*
X123584933Y-142850000D02*
X123962000Y-142850000D01*
X131000000Y-145000000D02*
X126112000Y-145000000D01*
X123962000Y-142850000D02*
X122600000Y-142850000D01*
X139000000Y-137000000D02*
X131000000Y-145000000D01*
X139200000Y-137000000D02*
X142250000Y-137000000D01*
X135250000Y-137000000D02*
X139200000Y-137000000D01*
X139200000Y-137000000D02*
X139000000Y-137000000D01*
X141600000Y-140600000D02*
X140950000Y-140600000D01*
X142450000Y-140600000D02*
X141600000Y-140600000D01*
D19*
X141600000Y-140600000D02*
X141850000Y-140850000D01*
X141850000Y-140850000D02*
X141850000Y-145400000D01*
D18*
X129800000Y-140200000D02*
X129100000Y-140200000D01*
X129100000Y-140200000D02*
X128600000Y-139700000D01*
X128000000Y-139200000D02*
X127450000Y-138650000D01*
X127450000Y-138650000D02*
X126300000Y-137500000D01*
X128600000Y-139700000D02*
X127550000Y-138650000D01*
X127550000Y-138650000D02*
X127450000Y-138650000D01*
X129600000Y-139200000D02*
X128000000Y-139200000D01*
X128750000Y-137700000D02*
X126500000Y-137700000D01*
X126500000Y-137700000D02*
X126300000Y-137500000D01*
X128719645Y-136069645D02*
X126669645Y-136069645D01*
X130930355Y-135069645D02*
X131100000Y-134900000D01*
X131100000Y-134900000D02*
X131700000Y-135500000D01*
X129719645Y-135069645D02*
X130930355Y-135069645D01*
X133712000Y-137000000D02*
X134200000Y-137000000D01*
X134200000Y-137000000D02*
X135250000Y-137000000D01*
X131700000Y-135500000D02*
X132700000Y-135500000D01*
X132700000Y-135500000D02*
X134200000Y-137000000D01*
X131950000Y-147200000D02*
X131950000Y-151800000D01*
X131950000Y-151800000D02*
X132400000Y-152250000D01*
X132400000Y-152250000D02*
X133450000Y-153300000D01*
X130750000Y-152250000D02*
X132400000Y-152250000D01*
X132000000Y-161700000D02*
X132000000Y-159900000D01*
D19*
X142865067Y-157000000D02*
X141850000Y-157000000D01*
X141850000Y-157000000D02*
X141400000Y-156550000D01*
X143450000Y-156900000D02*
X142965067Y-156900000D01*
X142965067Y-156900000D02*
X142865067Y-157000000D01*
X142450000Y-156550000D02*
X141700000Y-156550000D01*
X141700000Y-156550000D02*
X141400000Y-156550000D01*
X143400000Y-156050000D02*
X142200000Y-156050000D01*
X142200000Y-156050000D02*
X141700000Y-156550000D01*
X139600000Y-156950000D02*
X139942899Y-157292899D01*
X139942899Y-157292899D02*
X140657101Y-157292899D01*
X140657101Y-157292899D02*
X141400000Y-156550000D01*
X141400000Y-154100000D02*
X141400000Y-156150000D01*
X141400000Y-156150000D02*
X141400000Y-156550000D01*
X139700000Y-156200000D02*
X140184933Y-156200000D01*
X140184933Y-156200000D02*
X140234933Y-156150000D01*
X140234933Y-156150000D02*
X141400000Y-156150000D01*
X141400000Y-156550000D02*
X140650000Y-156550000D01*
X141300000Y-147550000D02*
X141300000Y-151500000D01*
X141300000Y-151500000D02*
X141750000Y-151950000D01*
D18*
X140034933Y-154100000D02*
X140400000Y-154100000D01*
X140400000Y-154100000D02*
X141400000Y-154100000D01*
X139450000Y-154700000D02*
X140050000Y-154100000D01*
X140050000Y-154100000D02*
X140400000Y-154100000D01*
X141400000Y-154100000D02*
X141750000Y-153750000D01*
X141750000Y-153750000D02*
X141750000Y-151950000D01*
X139450000Y-154000000D02*
X139934933Y-154000000D01*
X139934933Y-154000000D02*
X140034933Y-154100000D01*
X142600000Y-152550000D02*
X142350000Y-152550000D01*
X142350000Y-152550000D02*
X141750000Y-151950000D01*
X141100000Y-151950000D02*
X141750000Y-151950000D01*
X147750000Y-152600000D02*
X147265067Y-152115067D01*
X147265067Y-152115067D02*
X147265067Y-151900000D01*
X147750000Y-151900000D02*
X147265067Y-151900000D01*
X147265067Y-151900000D02*
X147215067Y-151950000D01*
X147215067Y-151950000D02*
X145500000Y-151950000D01*
X141750000Y-151950000D02*
X145500000Y-151950000D01*
X139550000Y-147950000D02*
X139950000Y-147950000D01*
X139950000Y-147950000D02*
X140350000Y-147550000D01*
X139600000Y-147300000D02*
X140100000Y-147300000D01*
X140100000Y-147300000D02*
X140350000Y-147550000D01*
X141300000Y-147550000D02*
X141850000Y-147000000D01*
X141850000Y-147000000D02*
X141850000Y-146100000D01*
X141850000Y-146100000D02*
X141492899Y-145742899D01*
X141492899Y-145742899D02*
X141150000Y-145400000D01*
X140350000Y-147550000D02*
X141300000Y-147550000D01*
X141850000Y-145400000D02*
X142600000Y-145400000D01*
X142650000Y-145950000D02*
X142650000Y-145465067D01*
X142650000Y-145465067D02*
X142600000Y-145415067D01*
X142600000Y-145415067D02*
X142600000Y-145400000D01*
X141150000Y-145400000D02*
X141850000Y-145400000D01*
X148000000Y-146500000D02*
X146038000Y-146500000D01*
X147950000Y-145850000D02*
X146041690Y-145850000D01*
X145638000Y-146100000D02*
X147000000Y-146100000D01*
X147100000Y-144600000D02*
X146391690Y-144600000D01*
X134042899Y-132442899D02*
X135250000Y-133650000D01*
X135250000Y-133650000D02*
X135250000Y-137000000D01*
X133700000Y-131600000D02*
X134042899Y-131942899D01*
X134042899Y-131942899D02*
X134042899Y-132442899D01*
X130000000Y-137650000D02*
X131300000Y-137650000D01*
X131300000Y-137650000D02*
X131550000Y-137400000D01*
X130000000Y-136950000D02*
X131100000Y-136950000D01*
X131100000Y-136950000D02*
X131550000Y-137400000D01*
X142250000Y-135100000D02*
X142250000Y-137000000D01*
X142250000Y-137000000D02*
X142250000Y-138300000D01*
X131550000Y-137400000D02*
X133312000Y-137400000D01*
X133312000Y-137400000D02*
X133712000Y-137000000D01*
X140250000Y-140300000D02*
X140450000Y-140100000D01*
X140450000Y-140100000D02*
X140900000Y-139650000D01*
X140950000Y-140600000D02*
X140450000Y-140100000D01*
X142500000Y-139950000D02*
X141200000Y-139950000D01*
X141200000Y-139950000D02*
X140900000Y-139650000D01*
X138650000Y-140300000D02*
X140250000Y-140300000D01*
X138650000Y-139650000D02*
X140900000Y-139650000D01*
X140900000Y-139650000D02*
X142250000Y-138300000D01*
X149164214Y-143864214D02*
X149164214Y-144864214D01*
X149164214Y-144864214D02*
X149550000Y-145250000D01*
X148664214Y-143864214D02*
X149164214Y-143864214D01*
X149164214Y-143864214D02*
X150050000Y-144750000D01*
X142250000Y-138300000D02*
X143100000Y-138300000D01*
X143100000Y-138300000D02*
X148664214Y-143864214D01*
X142250000Y-135100000D02*
X143500000Y-136350000D01*
X140850000Y-133700000D02*
X142250000Y-135100000D01*
X143000000Y-124450000D02*
X144450000Y-124450000D01*
D19*
X143000000Y-131334933D02*
X142950000Y-131384933D01*
D18*
X140850000Y-124450000D02*
X143000000Y-124450000D01*
X144057101Y-130277832D02*
X142950000Y-131384933D01*
X142950000Y-131384933D02*
X142434933Y-131900000D01*
D19*
X143000000Y-124450000D02*
X143000000Y-131334933D01*
X133900000Y-117400000D02*
X142350000Y-117400000D01*
X142350000Y-117400000D02*
X142900000Y-117950000D01*
X133400000Y-116900000D02*
X133900000Y-117400000D01*
D18*
X145800000Y-118150000D02*
X145550000Y-118150000D01*
X145550000Y-118150000D02*
X145100000Y-117700000D01*
X145800000Y-117450000D02*
X145350000Y-117450000D01*
X145350000Y-117450000D02*
X145100000Y-117700000D01*
X142900000Y-117950000D02*
X143150000Y-117700000D01*
X143150000Y-117700000D02*
X145100000Y-117700000D01*
X142900000Y-120838000D02*
X142900000Y-117950000D01*
X143350000Y-122250000D02*
X143350000Y-121288000D01*
X143350000Y-121288000D02*
X142900000Y-120838000D01*
X142850000Y-123350000D02*
X143750000Y-123350000D01*
X143750000Y-123350000D02*
X144595302Y-123350000D01*
X143857101Y-122592899D02*
X143857101Y-123242899D01*
X144200000Y-122250000D02*
X143857101Y-122592899D01*
X143857101Y-123242899D02*
X143750000Y-123350000D01*
X140854698Y-123350000D02*
X142850000Y-123350000D01*
X143212000Y-123350000D02*
X142850000Y-123350000D01*
X143350000Y-122250000D02*
X143350000Y-123212000D01*
X143350000Y-123212000D02*
X143212000Y-123350000D01*
X144450000Y-124450000D02*
X144650000Y-124650000D01*
X144595302Y-123350000D02*
X144645302Y-123400000D01*
X140500000Y-123900000D02*
X144850000Y-123900000D01*
X144850000Y-123900000D02*
X144950000Y-124000000D01*
X148150000Y-135150000D02*
X148150000Y-135600000D01*
X148150000Y-135600000D02*
X146250000Y-137500000D01*
X146250000Y-138150000D02*
X145400000Y-138150000D01*
X145400000Y-138150000D02*
X145150000Y-137900000D01*
X146250000Y-137500000D02*
X145550000Y-137500000D01*
X145550000Y-137500000D02*
X145150000Y-137900000D01*
X143500000Y-136350000D02*
X143500000Y-136475000D01*
X143500000Y-136475000D02*
X144925000Y-137900000D01*
X144925000Y-137900000D02*
X145150000Y-137900000D01*
X144400000Y-136350000D02*
X145350000Y-136350000D01*
X143500000Y-136350000D02*
X144400000Y-136350000D01*
X144400000Y-136350000D02*
X144750000Y-136350000D01*
X144750000Y-136350000D02*
X145400000Y-137000000D01*
X140850000Y-133072721D02*
X139322721Y-134600000D01*
X141450000Y-132472721D02*
X140850000Y-133072721D01*
X140850000Y-133072721D02*
X140850000Y-133700000D01*
X139322721Y-134600000D02*
X139322721Y-135300000D01*
X144400000Y-134650000D02*
X144400000Y-135350000D01*
X144400000Y-134650000D02*
X144400000Y-134350000D01*
X144400000Y-134350000D02*
X143650000Y-133600000D01*
X140350000Y-130800000D02*
X141450000Y-131900000D01*
X139522721Y-128500000D02*
X139522721Y-129972721D01*
X139522721Y-129972721D02*
X140350000Y-130800000D01*
X139522721Y-129250000D02*
X139522721Y-129972721D01*
X144450000Y-128550000D02*
X144450000Y-129884933D01*
X144450000Y-129884933D02*
X144057101Y-130277832D01*
X144400000Y-129300000D02*
X144057101Y-129642899D01*
X144057101Y-129642899D02*
X144057101Y-130277832D01*
X141450000Y-130350000D02*
X141450000Y-131350000D01*
X141450000Y-131350000D02*
X141450000Y-131900000D01*
X142200000Y-130300000D02*
X142200000Y-130784933D01*
X142200000Y-130784933D02*
X141634933Y-131350000D01*
X141634933Y-131350000D02*
X141450000Y-131350000D01*
X141450000Y-131900000D02*
X141450000Y-132472721D01*
X143650000Y-133600000D02*
X143650000Y-133115067D01*
X143650000Y-133115067D02*
X142434933Y-131900000D01*
X142434933Y-131900000D02*
X141450000Y-131900000D01*
X129800000Y-126350000D02*
X129800000Y-123150000D01*
X129800000Y-123150000D02*
X131000000Y-121950000D01*
X129700000Y-115050000D02*
X131250000Y-116600000D01*
D19*
X131200000Y-116650000D02*
X131250000Y-116600000D01*
D18*
X131250000Y-116600000D02*
X131550000Y-116900000D01*
D19*
X122100000Y-116650000D02*
X131200000Y-116650000D01*
D21*
X131965000Y-117450000D02*
X131165000Y-116650000D01*
X131165000Y-116650000D02*
X129700000Y-115185000D01*
D18*
X121550000Y-117200000D02*
X122100000Y-116650000D01*
X121000000Y-117200000D02*
X121450000Y-117650000D01*
X120700000Y-116900000D02*
X121000000Y-117200000D01*
X121000000Y-117200000D02*
X121550000Y-117200000D01*
D19*
X121450000Y-117650000D02*
X121450000Y-118900000D01*
X107150000Y-119875000D02*
X107150000Y-119800000D01*
X107150000Y-119800000D02*
X110100000Y-116850000D01*
D18*
X121450000Y-118900000D02*
X120150000Y-120200000D01*
X117800000Y-116900000D02*
X118350000Y-117450000D01*
X115750000Y-114850000D02*
X117800000Y-116900000D01*
X117800000Y-116900000D02*
X120700000Y-116900000D01*
X118350000Y-117450000D02*
X118350000Y-117750000D01*
X118350000Y-117750000D02*
X118750000Y-118150000D01*
X118350000Y-117450000D02*
X118350000Y-117850000D01*
X118350000Y-117850000D02*
X118050000Y-118150000D01*
X115750000Y-112450000D02*
X115750000Y-114850000D01*
X105625000Y-121400000D02*
X106275000Y-120750000D01*
X106275000Y-120750000D02*
X107150000Y-119875000D01*
X105900000Y-121963000D02*
X106275000Y-121588000D01*
X105900000Y-123100000D02*
X105900000Y-121963000D01*
X106275000Y-121588000D02*
X106275000Y-120750000D01*
X104250000Y-121900000D02*
X105000000Y-121900000D01*
X105000000Y-121900000D02*
X105500000Y-121400000D01*
X105500000Y-119800000D02*
X106100000Y-119800000D01*
X106100000Y-119800000D02*
X107150000Y-119800000D01*
X104250000Y-121000000D02*
X104592899Y-120657101D01*
X104592899Y-120657101D02*
X105242899Y-120657101D01*
X105242899Y-120657101D02*
X106100000Y-119800000D01*
X105500000Y-121400000D02*
X105625000Y-121400000D01*
X115750000Y-112450000D02*
X115750000Y-116400000D01*
X115750000Y-116400000D02*
X116000000Y-116650000D01*
X110100000Y-116850000D02*
X110700000Y-116850000D01*
X110700000Y-116850000D02*
X115050000Y-112500000D01*
X130766058Y-111552120D02*
X130766058Y-112283942D01*
X130766058Y-112283942D02*
X129050000Y-114000000D01*
X135883883Y-110466117D02*
X136396535Y-110978769D01*
X136396535Y-110978769D02*
X136396535Y-113603465D01*
X136396535Y-113603465D02*
X136150000Y-113850000D01*
X136150000Y-111950000D02*
X136150000Y-113850000D01*
X136150000Y-113850000D02*
X135550000Y-114450000D01*
X135621751Y-113178249D02*
X135621751Y-114378249D01*
X135621751Y-114378249D02*
X135550000Y-114450000D01*
X135400000Y-114900000D02*
X135400000Y-114600000D01*
X135400000Y-114600000D02*
X135550000Y-114450000D01*
X133900000Y-116400000D02*
X135400000Y-114900000D01*
X132869882Y-116900000D02*
X133400000Y-116900000D01*
X133400000Y-116900000D02*
X133900000Y-116400000D01*
X132400000Y-116900000D02*
X132869882Y-116900000D01*
X132869882Y-116900000D02*
X133809941Y-115959941D01*
X132350000Y-117750000D02*
X133300000Y-117750000D01*
X133300000Y-117750000D02*
X133850000Y-118300000D01*
X133322791Y-118802303D02*
X133322791Y-118722791D01*
X133322791Y-118722791D02*
X132350000Y-117750000D01*
X131000000Y-121950000D02*
X131000000Y-119400000D01*
X131000000Y-119400000D02*
X130900000Y-119300000D01*
X131550000Y-118650000D02*
X131500000Y-118700000D01*
X131500000Y-118700000D02*
X131500000Y-119350000D01*
X131550000Y-117750000D02*
X131550000Y-118650000D01*
X131550000Y-118650000D02*
X130900000Y-119300000D01*
X131550000Y-117750000D02*
X131550000Y-117842792D01*
X131550000Y-117842792D02*
X130512094Y-118880698D01*
X132350000Y-117750000D02*
X131550000Y-117750000D01*
X132400000Y-116900000D02*
X132400000Y-117700000D01*
X132400000Y-117700000D02*
X132350000Y-117750000D01*
X131550000Y-116900000D02*
X132400000Y-116900000D01*
X129700000Y-113100000D02*
X129700000Y-115050000D01*
X117114818Y-104085182D02*
X117435182Y-104085182D01*
X117435182Y-104085182D02*
X117600000Y-104250000D01*
X120550000Y-104875000D02*
X120550000Y-106274258D01*
X120550000Y-106274258D02*
X118896719Y-107927539D01*
X119300000Y-103500000D02*
X119300000Y-103625000D01*
X119300000Y-103625000D02*
X120550000Y-104875000D01*
X115300000Y-108150000D02*
X116300000Y-108150000D01*
X110300000Y-108150000D02*
X115300000Y-108150000D01*
X114000000Y-110700000D02*
X116000000Y-110700000D01*
X116000000Y-110700000D02*
X117650000Y-110700000D01*
X115300000Y-108150000D02*
X115300000Y-110000000D01*
X115300000Y-110000000D02*
X116000000Y-110700000D01*
X115226301Y-107076301D02*
X116300000Y-108150000D01*
X116300000Y-108150000D02*
X116700000Y-108550000D01*
X106250000Y-112200000D02*
X110300000Y-108150000D01*
X117457717Y-103144661D02*
X117114818Y-103487560D01*
X117114818Y-103487560D02*
X117114818Y-104085182D01*
X118150000Y-103100000D02*
X118150000Y-103700000D01*
X118150000Y-103700000D02*
X117600000Y-104250000D01*
X117600000Y-104250000D02*
X118550000Y-104250000D01*
X118550000Y-104250000D02*
X119300000Y-103500000D01*
X113600000Y-103500000D02*
X114000000Y-103900000D01*
X114000000Y-103900000D02*
X114350000Y-104250000D01*
X114455920Y-103021359D02*
X114000000Y-103477279D01*
X114000000Y-103477279D02*
X114000000Y-103900000D01*
X113800000Y-103000000D02*
X113457101Y-103342899D01*
X113457101Y-103342899D02*
X113457101Y-103357101D01*
X113457101Y-103357101D02*
X113600000Y-103500000D01*
X112650000Y-103500000D02*
X113600000Y-103500000D01*
X115226301Y-105486699D02*
X115226301Y-105729375D01*
X116700000Y-108550000D02*
X118150000Y-108550000D01*
X118150000Y-108550000D02*
X118850000Y-108550000D01*
X118896719Y-107927539D02*
X118274258Y-108550000D01*
X118274258Y-108550000D02*
X118150000Y-108550000D01*
X114350000Y-104250000D02*
X114350000Y-104853074D01*
X114350000Y-104853074D02*
X115226301Y-105729375D01*
X115226301Y-105729375D02*
X115226301Y-107076301D01*
X121350000Y-111650000D02*
X123000000Y-113300000D01*
X120700000Y-111000000D02*
X121350000Y-111650000D01*
X121350000Y-111650000D02*
X121700000Y-111650000D01*
X121700000Y-111650000D02*
X123100000Y-110250000D01*
X123100000Y-110250000D02*
X123200000Y-110250000D01*
X120400000Y-110700000D02*
X120700000Y-111000000D01*
X120700000Y-111000000D02*
X120700000Y-112450000D01*
X120700000Y-112450000D02*
X119400000Y-113750000D01*
X117650000Y-110700000D02*
X120400000Y-110700000D01*
X123000000Y-113300000D02*
X123050000Y-113300000D01*
X114000000Y-110700000D02*
X115750000Y-112450000D01*
X113500000Y-110200000D02*
X114000000Y-110700000D01*
X117650000Y-110700000D02*
X119000000Y-112050000D01*
X112750000Y-110200000D02*
X113500000Y-110200000D01*
X110750000Y-110200000D02*
X112750000Y-110200000D01*
X112750000Y-110200000D02*
X115050000Y-112500000D01*
X121850000Y-123000000D02*
X120450000Y-121600000D01*
X120450000Y-121600000D02*
X119850000Y-121000000D01*
X120150000Y-120200000D02*
X120150000Y-121300000D01*
X120150000Y-121300000D02*
X120450000Y-121600000D01*
X124715984Y-121265869D02*
X124715984Y-120565984D01*
X124715984Y-120565984D02*
X124700000Y-120550000D01*
X124950000Y-118750000D02*
X124950000Y-119300000D01*
X124950000Y-119300000D02*
X124700000Y-119550000D01*
X123950000Y-119850000D02*
X124250000Y-119550000D01*
X121850000Y-121950000D02*
X123950000Y-119850000D01*
X123950000Y-119850000D02*
X124000000Y-119850000D01*
X124000000Y-119850000D02*
X124700000Y-120550000D01*
X124250000Y-119550000D02*
X124700000Y-119550000D01*
X121850000Y-123000000D02*
X121850000Y-121950000D01*
X121850000Y-123000000D02*
X121850000Y-125320302D01*
X121850000Y-125320302D02*
X122550000Y-126020302D01*
X121850000Y-126000000D02*
X121850000Y-123000000D01*
D21*
X129700000Y-113853791D02*
X129700000Y-113100000D01*
X129700000Y-115185000D02*
X129700000Y-113853791D01*
D18*
X133900000Y-128350000D02*
X133900000Y-129400000D01*
X133900000Y-129400000D02*
X133700000Y-129600000D01*
X133700000Y-130600000D02*
X133700000Y-129600000D01*
X133700000Y-130600000D02*
X133700000Y-131600000D01*
D21*
X129700000Y-113100000D02*
X130766058Y-112033942D01*
X130766058Y-112033942D02*
X130766058Y-111552120D01*
X131965000Y-117450000D02*
X131965000Y-118352400D01*
X131965000Y-117450000D02*
X131922101Y-117407101D01*
X131922101Y-117407101D02*
X131892899Y-117407101D01*
X131892899Y-117407101D02*
X131550000Y-117750000D01*
X131436702Y-118880698D02*
X130512094Y-118880698D01*
X131965000Y-118352400D02*
X131436702Y-118880698D01*
D19*
X128727200Y-155829000D02*
X129629000Y-155829000D01*
X129629000Y-155829000D02*
X130750000Y-156950000D01*
D18*
X133450000Y-153300000D02*
X133450000Y-157350000D01*
X133450000Y-157350000D02*
X133050000Y-156950000D01*
X133050000Y-156950000D02*
X130750000Y-156950000D01*
X133450000Y-158675000D02*
X133450000Y-157350000D01*
X132300000Y-159600000D02*
X132525000Y-159600000D01*
X132525000Y-159600000D02*
X133450000Y-158675000D01*
X132000000Y-159900000D02*
X132300000Y-159600000D01*
D22*
G36*
X151290000Y-167290000D02*
X128723873Y-167290000D01*
X128672519Y-157275900D01*
X128708150Y-157275900D01*
X128866900Y-157117150D01*
X128866900Y-155917900D01*
X129120900Y-155917900D01*
X129120900Y-157117150D01*
X129279650Y-157275900D01*
X129970209Y-157275900D01*
X130203598Y-157179227D01*
X130382227Y-157000599D01*
X130478900Y-156767210D01*
X130478900Y-156243663D01*
X130961931Y-156243663D01*
X131110493Y-156603212D01*
X131385341Y-156878540D01*
X131678126Y-157000115D01*
X131386788Y-157120493D01*
X131111460Y-157395341D01*
X130962270Y-157754630D01*
X130961931Y-158143663D01*
X131110493Y-158503212D01*
X131385341Y-158778540D01*
X131744630Y-158927730D01*
X132133663Y-158928069D01*
X132493212Y-158779507D01*
X132768540Y-158504659D01*
X132917730Y-158145370D01*
X132918069Y-157756337D01*
X132769507Y-157396788D01*
X132494659Y-157121460D01*
X132201874Y-156999885D01*
X132493212Y-156879507D01*
X132768540Y-156604659D01*
X132917730Y-156245370D01*
X132918069Y-155856337D01*
X132769507Y-155496788D01*
X132494659Y-155221460D01*
X132135370Y-155072270D01*
X131746337Y-155071931D01*
X131386788Y-155220493D01*
X131111460Y-155495341D01*
X130962270Y-155854630D01*
X130961931Y-156243663D01*
X130478900Y-156243663D01*
X130478900Y-156076650D01*
X130320150Y-155917900D01*
X129120900Y-155917900D01*
X128866900Y-155917900D01*
X128846900Y-155917900D01*
X128846900Y-155663900D01*
X128866900Y-155663900D01*
X128866900Y-155643900D01*
X129120900Y-155643900D01*
X129120900Y-155663900D01*
X130320150Y-155663900D01*
X130478900Y-155505150D01*
X130478900Y-154814590D01*
X130382227Y-154581201D01*
X130203598Y-154402573D01*
X130029123Y-154330303D01*
X130073047Y-154300954D01*
X130394954Y-153819185D01*
X130507993Y-153250900D01*
X130394954Y-152682615D01*
X130235292Y-152443663D01*
X133771931Y-152443663D01*
X133920493Y-152803212D01*
X134195341Y-153078540D01*
X134554630Y-153227730D01*
X134943663Y-153228069D01*
X135303212Y-153079507D01*
X135578540Y-152804659D01*
X135727730Y-152445370D01*
X135728069Y-152056337D01*
X135579507Y-151696788D01*
X135304659Y-151421460D01*
X134945370Y-151272270D01*
X134556337Y-151271931D01*
X134196788Y-151420493D01*
X133921460Y-151695341D01*
X133772270Y-152054630D01*
X133771931Y-152443663D01*
X130235292Y-152443663D01*
X130073047Y-152200846D01*
X129743874Y-151980900D01*
X130073047Y-151760954D01*
X130394954Y-151279185D01*
X130507993Y-150710900D01*
X130484674Y-150593663D01*
X144071931Y-150593663D01*
X144220493Y-150953212D01*
X144495341Y-151228540D01*
X144854630Y-151377730D01*
X145225408Y-151378053D01*
X145422830Y-151460030D01*
X145811863Y-151460369D01*
X146171412Y-151311807D01*
X146446740Y-151036959D01*
X146595930Y-150677670D01*
X146596269Y-150288637D01*
X146447707Y-149929088D01*
X146172859Y-149653760D01*
X145813570Y-149504570D01*
X145442792Y-149504247D01*
X145245370Y-149422270D01*
X144856337Y-149421931D01*
X144496788Y-149570493D01*
X144221460Y-149845341D01*
X144072270Y-150204630D01*
X144071931Y-150593663D01*
X130484674Y-150593663D01*
X130394954Y-150142615D01*
X130073047Y-149660846D01*
X129591278Y-149338939D01*
X129022993Y-149225900D01*
X128964807Y-149225900D01*
X128631577Y-149292184D01*
X128627739Y-148543663D01*
X133771931Y-148543663D01*
X133920493Y-148903212D01*
X134195341Y-149178540D01*
X134554630Y-149327730D01*
X134943663Y-149328069D01*
X135303212Y-149179507D01*
X135578540Y-148904659D01*
X135727730Y-148545370D01*
X135728069Y-148156337D01*
X135579507Y-147796788D01*
X135304659Y-147521460D01*
X134945370Y-147372270D01*
X134556337Y-147371931D01*
X134196788Y-147520493D01*
X133921460Y-147795341D01*
X133772270Y-148154630D01*
X133771931Y-148543663D01*
X128627739Y-148543663D01*
X128626998Y-148399349D01*
X128616739Y-148349991D01*
X128588085Y-148308512D01*
X128545552Y-148281450D01*
X128501411Y-148273008D01*
X119627000Y-148174403D01*
X119627000Y-147093663D01*
X129821931Y-147093663D01*
X129970493Y-147453212D01*
X130245341Y-147728540D01*
X130604630Y-147877730D01*
X130993663Y-147878069D01*
X131353212Y-147729507D01*
X131628540Y-147454659D01*
X131777730Y-147095370D01*
X131778069Y-146706337D01*
X131629507Y-146346788D01*
X131354659Y-146071460D01*
X130995370Y-145922270D01*
X130606337Y-145921931D01*
X130246788Y-146070493D01*
X129971460Y-146345341D01*
X129822270Y-146704630D01*
X129821931Y-147093663D01*
X119627000Y-147093663D01*
X119627000Y-145478054D01*
X119643663Y-145478069D01*
X119892249Y-145375356D01*
X119945341Y-145428540D01*
X120304630Y-145577730D01*
X120693663Y-145578069D01*
X121053212Y-145429507D01*
X121065387Y-145417353D01*
X143852731Y-145417353D01*
X144001293Y-145776902D01*
X144276141Y-146052230D01*
X144635430Y-146201420D01*
X145024463Y-146201759D01*
X145208503Y-146125716D01*
X145270430Y-146151430D01*
X145659463Y-146151769D01*
X146019012Y-146003207D01*
X146294340Y-145728359D01*
X146443530Y-145369070D01*
X146443869Y-144980037D01*
X146295307Y-144620488D01*
X146020459Y-144345160D01*
X145661170Y-144195970D01*
X145272137Y-144195631D01*
X145088097Y-144271674D01*
X145026170Y-144245960D01*
X144637137Y-144245621D01*
X144277588Y-144394183D01*
X144002260Y-144669031D01*
X143853070Y-145028320D01*
X143852731Y-145417353D01*
X121065387Y-145417353D01*
X121328540Y-145154659D01*
X121477730Y-144795370D01*
X121478069Y-144406337D01*
X121329507Y-144046788D01*
X121276475Y-143993663D01*
X129921931Y-143993663D01*
X130070493Y-144353212D01*
X130345341Y-144628540D01*
X130704630Y-144777730D01*
X131093663Y-144778069D01*
X131453212Y-144629507D01*
X131728540Y-144354659D01*
X131877730Y-143995370D01*
X131878069Y-143606337D01*
X131729507Y-143246788D01*
X131454659Y-142971460D01*
X131095370Y-142822270D01*
X130706337Y-142821931D01*
X130346788Y-142970493D01*
X130071460Y-143245341D01*
X129922270Y-143604630D01*
X129921931Y-143993663D01*
X121276475Y-143993663D01*
X121054659Y-143771460D01*
X121042693Y-143766491D01*
X121253212Y-143679507D01*
X121528540Y-143404659D01*
X121677730Y-143045370D01*
X121678069Y-142656337D01*
X121529507Y-142296788D01*
X121254659Y-142021460D01*
X120895370Y-141872270D01*
X120506337Y-141871931D01*
X120149566Y-142019345D01*
X119795370Y-141872270D01*
X119627000Y-141872123D01*
X119627000Y-140827000D01*
X126647394Y-140827000D01*
X128310197Y-142489803D01*
X128352211Y-142517666D01*
X128400000Y-142527000D01*
X131100000Y-142527000D01*
X131149410Y-142516994D01*
X131191035Y-142488553D01*
X131218315Y-142446159D01*
X131227000Y-142400000D01*
X131227000Y-134700000D01*
X131216994Y-134650590D01*
X131188553Y-134608965D01*
X131146159Y-134581685D01*
X131100000Y-134573000D01*
X127558277Y-134573000D01*
X127916045Y-134180424D01*
X128085876Y-133770390D01*
X128071772Y-133743663D01*
X131371931Y-133743663D01*
X131436503Y-133899940D01*
X131372270Y-134054630D01*
X131371931Y-134443663D01*
X131520493Y-134803212D01*
X131795341Y-135078540D01*
X132154630Y-135227730D01*
X132543663Y-135228069D01*
X132903212Y-135079507D01*
X133178540Y-134804659D01*
X133275053Y-134572229D01*
X133370493Y-134803212D01*
X133645341Y-135078540D01*
X134004630Y-135227730D01*
X134393663Y-135228069D01*
X134753212Y-135079507D01*
X135028540Y-134804659D01*
X135177730Y-134445370D01*
X135177731Y-134443663D01*
X135421931Y-134443663D01*
X135570493Y-134803212D01*
X135845341Y-135078540D01*
X136204630Y-135227730D01*
X136593663Y-135228069D01*
X136842311Y-135125330D01*
X136945341Y-135228540D01*
X137304630Y-135377730D01*
X137693663Y-135378069D01*
X138053212Y-135229507D01*
X138328540Y-134954659D01*
X138477730Y-134595370D01*
X138478069Y-134206337D01*
X138378203Y-133964643D01*
X138427730Y-133845370D01*
X138427862Y-133693663D01*
X141071931Y-133693663D01*
X141220493Y-134053212D01*
X141495341Y-134328540D01*
X141854630Y-134477730D01*
X142243663Y-134478069D01*
X142314523Y-134448790D01*
X142504630Y-134527730D01*
X142893663Y-134528069D01*
X143253212Y-134379507D01*
X143528540Y-134104659D01*
X143677730Y-133745370D01*
X143678069Y-133356337D01*
X143529507Y-132996788D01*
X143254659Y-132721460D01*
X142895370Y-132572270D01*
X142506337Y-132571931D01*
X142435477Y-132601210D01*
X142245370Y-132522270D01*
X141856337Y-132521931D01*
X141496788Y-132670493D01*
X141221460Y-132945341D01*
X141072270Y-133304630D01*
X141071931Y-133693663D01*
X138427862Y-133693663D01*
X138428069Y-133456337D01*
X138279507Y-133096788D01*
X138004659Y-132821460D01*
X137645370Y-132672270D01*
X137256337Y-132671931D01*
X136896788Y-132820493D01*
X136621460Y-133095341D01*
X136548010Y-133272229D01*
X136206337Y-133271931D01*
X135846788Y-133420493D01*
X135571460Y-133695341D01*
X135422270Y-134054630D01*
X135421931Y-134443663D01*
X135177731Y-134443663D01*
X135178069Y-134056337D01*
X135029507Y-133696788D01*
X134754659Y-133421460D01*
X134395370Y-133272270D01*
X134006337Y-133271931D01*
X133646788Y-133420493D01*
X133371460Y-133695341D01*
X133274947Y-133927771D01*
X133263497Y-133900060D01*
X133327730Y-133745370D01*
X133328069Y-133356337D01*
X133179507Y-132996788D01*
X132904659Y-132721460D01*
X132545370Y-132572270D01*
X132156337Y-132571931D01*
X131796788Y-132720493D01*
X131521460Y-132995341D01*
X131372270Y-133354630D01*
X131371931Y-133743663D01*
X128071772Y-133743663D01*
X127964555Y-133540500D01*
X126771400Y-133540500D01*
X126771400Y-133560500D01*
X126517400Y-133560500D01*
X126517400Y-133540500D01*
X125324245Y-133540500D01*
X125202924Y-133770390D01*
X125372755Y-134180424D01*
X125467749Y-134284660D01*
X125404659Y-134221460D01*
X125045370Y-134072270D01*
X124656337Y-134071931D01*
X124595709Y-134096982D01*
X124295370Y-133972270D01*
X123906337Y-133971931D01*
X123760292Y-134032275D01*
X123495370Y-133922270D01*
X123106337Y-133921931D01*
X122746788Y-134070493D01*
X122471460Y-134345341D01*
X122322270Y-134704630D01*
X122321931Y-135093663D01*
X122470493Y-135453212D01*
X122745341Y-135728540D01*
X123104630Y-135877730D01*
X123493663Y-135878069D01*
X123639708Y-135817725D01*
X123904630Y-135927730D01*
X124293663Y-135928069D01*
X124354291Y-135903018D01*
X124654630Y-136027730D01*
X125043663Y-136028069D01*
X125403212Y-135879507D01*
X125678540Y-135604659D01*
X125710787Y-135527000D01*
X129073000Y-135527000D01*
X129073000Y-138600000D01*
X129083006Y-138649410D01*
X129111447Y-138691035D01*
X129153841Y-138718315D01*
X129200000Y-138727000D01*
X130073000Y-138727000D01*
X130073000Y-140673000D01*
X128852606Y-140673000D01*
X128389803Y-140210197D01*
X128347789Y-140182334D01*
X128300000Y-140173000D01*
X118000000Y-140173000D01*
X117950590Y-140183006D01*
X117908965Y-140211447D01*
X117881685Y-140253841D01*
X117873000Y-140300000D01*
X117873000Y-145000000D01*
X117883006Y-145049410D01*
X117911447Y-145091035D01*
X117953841Y-145118315D01*
X118000000Y-145127000D01*
X118694152Y-145127000D01*
X118873000Y-145306160D01*
X118873000Y-149000000D01*
X118883006Y-149049410D01*
X118911447Y-149091035D01*
X118953841Y-149118315D01*
X119000000Y-149127000D01*
X127873076Y-149127000D01*
X127873435Y-149722684D01*
X127592846Y-150142615D01*
X127479807Y-150710900D01*
X127592846Y-151279185D01*
X127874625Y-151700898D01*
X127874962Y-152260398D01*
X127592846Y-152682615D01*
X127479807Y-153250900D01*
X127592846Y-153819185D01*
X127876155Y-154243189D01*
X127876224Y-154357064D01*
X126732030Y-154368506D01*
X126682722Y-154379006D01*
X126641384Y-154407861D01*
X126614530Y-154450526D01*
X126606302Y-154496126D01*
X126617435Y-156756091D01*
X126600000Y-156752560D01*
X123300000Y-156752560D01*
X123064683Y-156796838D01*
X122848559Y-156935910D01*
X122703569Y-157148110D01*
X122652560Y-157400000D01*
X122652560Y-160400000D01*
X122696838Y-160635317D01*
X122835910Y-160851441D01*
X123048110Y-160996431D01*
X123300000Y-161047440D01*
X126600000Y-161047440D01*
X126835317Y-161003162D01*
X127051441Y-160864090D01*
X127196431Y-160651890D01*
X127247440Y-160400000D01*
X127247440Y-157400000D01*
X127209920Y-157200600D01*
X127835801Y-157200600D01*
X127863719Y-157212164D01*
X127872389Y-167290000D01*
X100710000Y-167290000D01*
X100710000Y-162756890D01*
X102258524Y-162756890D01*
X102428355Y-163166924D01*
X102818642Y-163595183D01*
X103343108Y-163841486D01*
X103573000Y-163720819D01*
X103573000Y-162527000D01*
X103827000Y-162527000D01*
X103827000Y-163720819D01*
X104056892Y-163841486D01*
X104581358Y-163595183D01*
X104971645Y-163166924D01*
X104975446Y-163157745D01*
X108121861Y-163157745D01*
X108195995Y-163403864D01*
X108733223Y-163596965D01*
X109303454Y-163569778D01*
X109704005Y-163403864D01*
X109778139Y-163157745D01*
X108950000Y-162329605D01*
X108121861Y-163157745D01*
X104975446Y-163157745D01*
X105141476Y-162756890D01*
X105020155Y-162527000D01*
X103827000Y-162527000D01*
X103573000Y-162527000D01*
X102379845Y-162527000D01*
X102258524Y-162756890D01*
X100710000Y-162756890D01*
X100710000Y-157843663D01*
X101171931Y-157843663D01*
X101320493Y-158203212D01*
X101595341Y-158478540D01*
X101954630Y-158627730D01*
X102342423Y-158628068D01*
X102253569Y-158758110D01*
X102202560Y-159010000D01*
X102202560Y-160710000D01*
X102246838Y-160945317D01*
X102385910Y-161161441D01*
X102598110Y-161306431D01*
X102706107Y-161328301D01*
X102428355Y-161633076D01*
X102258524Y-162043110D01*
X102379845Y-162273000D01*
X103573000Y-162273000D01*
X103573000Y-162253000D01*
X103827000Y-162253000D01*
X103827000Y-162273000D01*
X105020155Y-162273000D01*
X105141476Y-162043110D01*
X104971645Y-161633076D01*
X104695499Y-161330063D01*
X104785317Y-161313162D01*
X105001441Y-161174090D01*
X105146431Y-160961890D01*
X105197440Y-160710000D01*
X105197440Y-159350000D01*
X107502560Y-159350000D01*
X107502560Y-160950000D01*
X107546838Y-161185317D01*
X107685910Y-161401441D01*
X107692548Y-161405977D01*
X107503035Y-161933223D01*
X107530222Y-162503454D01*
X107696136Y-162904005D01*
X107942255Y-162978139D01*
X108770395Y-162150000D01*
X108756252Y-162135858D01*
X108935858Y-161956253D01*
X108950000Y-161970395D01*
X108964143Y-161956253D01*
X109143748Y-162135858D01*
X109129605Y-162150000D01*
X109957745Y-162978139D01*
X110203864Y-162904005D01*
X110396965Y-162366777D01*
X110369778Y-161796546D01*
X110207616Y-161405053D01*
X110346431Y-161201890D01*
X110397440Y-160950000D01*
X110397440Y-159350000D01*
X110353162Y-159114683D01*
X110214090Y-158898559D01*
X110001890Y-158753569D01*
X109750000Y-158702560D01*
X108150000Y-158702560D01*
X107914683Y-158746838D01*
X107698559Y-158885910D01*
X107553569Y-159098110D01*
X107502560Y-159350000D01*
X105197440Y-159350000D01*
X105197440Y-159010000D01*
X105153162Y-158774683D01*
X105014090Y-158558559D01*
X104801890Y-158413569D01*
X104550000Y-158362560D01*
X102850000Y-158362560D01*
X102813479Y-158369432D01*
X102978540Y-158204659D01*
X103127730Y-157845370D01*
X103128069Y-157456337D01*
X103010755Y-157172413D01*
X103028540Y-157154659D01*
X103177730Y-156795370D01*
X103178069Y-156406337D01*
X103072076Y-156149813D01*
X103134283Y-156000000D01*
X108535907Y-156000000D01*
X108648946Y-156568285D01*
X108970853Y-157050054D01*
X109452622Y-157371961D01*
X110020907Y-157485000D01*
X110079093Y-157485000D01*
X110506416Y-157400000D01*
X113852560Y-157400000D01*
X113852560Y-160400000D01*
X113896838Y-160635317D01*
X114035910Y-160851441D01*
X114248110Y-160996431D01*
X114500000Y-161047440D01*
X117800000Y-161047440D01*
X118035317Y-161003162D01*
X118251441Y-160864090D01*
X118396431Y-160651890D01*
X118447440Y-160400000D01*
X118447440Y-157400000D01*
X118403162Y-157164683D01*
X118264090Y-156948559D01*
X118051890Y-156803569D01*
X117800000Y-156752560D01*
X114500000Y-156752560D01*
X114264683Y-156796838D01*
X114048559Y-156935910D01*
X113903569Y-157148110D01*
X113852560Y-157400000D01*
X110506416Y-157400000D01*
X110647378Y-157371961D01*
X111129147Y-157050054D01*
X111451054Y-156568285D01*
X111564093Y-156000000D01*
X111451054Y-155431715D01*
X111129147Y-154949946D01*
X111087548Y-154922150D01*
X111135317Y-154913162D01*
X111351441Y-154774090D01*
X111496431Y-154561890D01*
X111547440Y-154310000D01*
X111547440Y-152610000D01*
X111503162Y-152374683D01*
X111418812Y-152243599D01*
X116314699Y-152243599D01*
X116578281Y-152881515D01*
X117065918Y-153370004D01*
X117703373Y-153634699D01*
X118393599Y-153635301D01*
X119031515Y-153371719D01*
X119300040Y-153103662D01*
X119565918Y-153370004D01*
X120203373Y-153634699D01*
X120893599Y-153635301D01*
X121531515Y-153371719D01*
X121800040Y-153103662D01*
X122065918Y-153370004D01*
X122703373Y-153634699D01*
X123393599Y-153635301D01*
X124031515Y-153371719D01*
X124520004Y-152884082D01*
X124784699Y-152246627D01*
X124785301Y-151556401D01*
X124521719Y-150918485D01*
X124034082Y-150429996D01*
X123396627Y-150165301D01*
X122706401Y-150164699D01*
X122068485Y-150428281D01*
X121799960Y-150696338D01*
X121534082Y-150429996D01*
X120896627Y-150165301D01*
X120206401Y-150164699D01*
X119568485Y-150428281D01*
X119299960Y-150696338D01*
X119034082Y-150429996D01*
X118396627Y-150165301D01*
X117706401Y-150164699D01*
X117068485Y-150428281D01*
X116579996Y-150915918D01*
X116315301Y-151553373D01*
X116314699Y-152243599D01*
X111418812Y-152243599D01*
X111364090Y-152158559D01*
X111151890Y-152013569D01*
X110900000Y-151962560D01*
X109200000Y-151962560D01*
X108964683Y-152006838D01*
X108748559Y-152145910D01*
X108603569Y-152358110D01*
X108552560Y-152610000D01*
X108552560Y-154310000D01*
X108596838Y-154545317D01*
X108735910Y-154761441D01*
X108948110Y-154906431D01*
X109015541Y-154920086D01*
X108970853Y-154949946D01*
X108648946Y-155431715D01*
X108535907Y-156000000D01*
X103134283Y-156000000D01*
X103177730Y-155895370D01*
X103178069Y-155506337D01*
X103072076Y-155249813D01*
X103177730Y-154995370D01*
X103178069Y-154606337D01*
X103029507Y-154246788D01*
X102754659Y-153971460D01*
X102395370Y-153822270D01*
X102006337Y-153821931D01*
X101646788Y-153970493D01*
X101371460Y-154245341D01*
X101222270Y-154604630D01*
X101221931Y-154993663D01*
X101327924Y-155250187D01*
X101222270Y-155504630D01*
X101221931Y-155893663D01*
X101327924Y-156150187D01*
X101222270Y-156404630D01*
X101221931Y-156793663D01*
X101339245Y-157077587D01*
X101321460Y-157095341D01*
X101172270Y-157454630D01*
X101171931Y-157843663D01*
X100710000Y-157843663D01*
X100710000Y-151493663D01*
X102671931Y-151493663D01*
X102820493Y-151853212D01*
X103095341Y-152128540D01*
X103454630Y-152277730D01*
X103843663Y-152278069D01*
X104203212Y-152129507D01*
X104478540Y-151854659D01*
X104627730Y-151495370D01*
X104628069Y-151106337D01*
X104479507Y-150746788D01*
X104204659Y-150471460D01*
X103845370Y-150322270D01*
X103456337Y-150321931D01*
X103096788Y-150470493D01*
X102821460Y-150745341D01*
X102672270Y-151104630D01*
X102671931Y-151493663D01*
X100710000Y-151493663D01*
X100710000Y-144293663D01*
X101971931Y-144293663D01*
X102120493Y-144653212D01*
X102395341Y-144928540D01*
X102754630Y-145077730D01*
X103143663Y-145078069D01*
X103503212Y-144929507D01*
X103639293Y-144793663D01*
X109771931Y-144793663D01*
X109920493Y-145153212D01*
X110195341Y-145428540D01*
X110554630Y-145577730D01*
X110943663Y-145578069D01*
X111303212Y-145429507D01*
X111578540Y-145154659D01*
X111727730Y-144795370D01*
X111727818Y-144693663D01*
X113221931Y-144693663D01*
X113370493Y-145053212D01*
X113645341Y-145328540D01*
X114004630Y-145477730D01*
X114393663Y-145478069D01*
X114753212Y-145329507D01*
X115028540Y-145054659D01*
X115177730Y-144695370D01*
X115178069Y-144306337D01*
X115029507Y-143946788D01*
X114754659Y-143671460D01*
X114395370Y-143522270D01*
X114006337Y-143521931D01*
X113646788Y-143670493D01*
X113371460Y-143945341D01*
X113222270Y-144304630D01*
X113221931Y-144693663D01*
X111727818Y-144693663D01*
X111728069Y-144406337D01*
X111579507Y-144046788D01*
X111304659Y-143771460D01*
X110945370Y-143622270D01*
X110556337Y-143621931D01*
X110196788Y-143770493D01*
X109921460Y-144045341D01*
X109772270Y-144404630D01*
X109771931Y-144793663D01*
X103639293Y-144793663D01*
X103778540Y-144654659D01*
X103927730Y-144295370D01*
X103928069Y-143906337D01*
X103779507Y-143546788D01*
X103504659Y-143271460D01*
X103145370Y-143122270D01*
X102756337Y-143121931D01*
X102396788Y-143270493D01*
X102121460Y-143545341D01*
X101972270Y-143904630D01*
X101971931Y-144293663D01*
X100710000Y-144293663D01*
X100710000Y-139118963D01*
X103835031Y-139118963D01*
X103983593Y-139478512D01*
X104258441Y-139753840D01*
X104617730Y-139903030D01*
X105006763Y-139903369D01*
X105366312Y-139754807D01*
X105641640Y-139479959D01*
X105750637Y-139217465D01*
X105858780Y-139217559D01*
X106158632Y-139093663D01*
X111271931Y-139093663D01*
X111420493Y-139453212D01*
X111695341Y-139728540D01*
X112054630Y-139877730D01*
X112443663Y-139878069D01*
X112803212Y-139729507D01*
X113078540Y-139454659D01*
X113227730Y-139095370D01*
X113228069Y-138706337D01*
X113079507Y-138346788D01*
X112804659Y-138071460D01*
X112445370Y-137922270D01*
X112056337Y-137921931D01*
X111696788Y-138070493D01*
X111421460Y-138345341D01*
X111272270Y-138704630D01*
X111271931Y-139093663D01*
X106158632Y-139093663D01*
X106218329Y-139068997D01*
X106493657Y-138794149D01*
X106642847Y-138434860D01*
X106643186Y-138045827D01*
X106511992Y-137728313D01*
X106584435Y-137698380D01*
X106859763Y-137423532D01*
X107008953Y-137064243D01*
X107009292Y-136675210D01*
X106860730Y-136315661D01*
X106585882Y-136040333D01*
X106226593Y-135891143D01*
X105837560Y-135890804D01*
X105478011Y-136039366D01*
X105202683Y-136314214D01*
X105053493Y-136673503D01*
X105053154Y-137062536D01*
X105184348Y-137380050D01*
X105111905Y-137409983D01*
X104836577Y-137684831D01*
X104727580Y-137947325D01*
X104619437Y-137947231D01*
X104259888Y-138095793D01*
X103984560Y-138370641D01*
X103835370Y-138729930D01*
X103835031Y-139118963D01*
X100710000Y-139118963D01*
X100710000Y-133293663D01*
X113521931Y-133293663D01*
X113611441Y-133510295D01*
X113572270Y-133604630D01*
X113571931Y-133993663D01*
X113720493Y-134353212D01*
X113995341Y-134628540D01*
X114354630Y-134777730D01*
X114743663Y-134778069D01*
X114960295Y-134688559D01*
X115054630Y-134727730D01*
X115443663Y-134728069D01*
X115803212Y-134579507D01*
X116078540Y-134304659D01*
X116227730Y-133945370D01*
X116228069Y-133556337D01*
X116138559Y-133339705D01*
X116177730Y-133245370D01*
X116178069Y-132856337D01*
X116029507Y-132496788D01*
X115754659Y-132221460D01*
X115395370Y-132072270D01*
X115006337Y-132071931D01*
X114789705Y-132161441D01*
X114695370Y-132122270D01*
X114306337Y-132121931D01*
X113946788Y-132270493D01*
X113671460Y-132545341D01*
X113522270Y-132904630D01*
X113521931Y-133293663D01*
X100710000Y-133293663D01*
X100710000Y-127327000D01*
X109121989Y-127327000D01*
X109121931Y-127393663D01*
X109257090Y-127720774D01*
X109222270Y-127804630D01*
X109221931Y-128193663D01*
X109370493Y-128553212D01*
X109645341Y-128828540D01*
X110004630Y-128977730D01*
X110393663Y-128978069D01*
X110753212Y-128829507D01*
X111028540Y-128554659D01*
X111177730Y-128195370D01*
X111178069Y-127806337D01*
X111042910Y-127479226D01*
X111077730Y-127395370D01*
X111077790Y-127327000D01*
X125178652Y-127327000D01*
X125146960Y-127483500D01*
X125146960Y-129183500D01*
X125191238Y-129418817D01*
X125330310Y-129634941D01*
X125542510Y-129779931D01*
X125609941Y-129793586D01*
X125565253Y-129823446D01*
X125243346Y-130305215D01*
X125130307Y-130873500D01*
X125243346Y-131441785D01*
X125565253Y-131923554D01*
X125905953Y-132151202D01*
X125763042Y-132218317D01*
X125372755Y-132646576D01*
X125202924Y-133056610D01*
X125324245Y-133286500D01*
X126517400Y-133286500D01*
X126517400Y-133266500D01*
X126771400Y-133266500D01*
X126771400Y-133286500D01*
X127964555Y-133286500D01*
X128085876Y-133056610D01*
X127916045Y-132646576D01*
X127525758Y-132218317D01*
X127382847Y-132151202D01*
X127723547Y-131923554D01*
X128045454Y-131441785D01*
X128158493Y-130873500D01*
X128112776Y-130643663D01*
X129171931Y-130643663D01*
X129267569Y-130875125D01*
X129172270Y-131104630D01*
X129171931Y-131493663D01*
X129320493Y-131853212D01*
X129595341Y-132128540D01*
X129954630Y-132277730D01*
X130343663Y-132278069D01*
X130703212Y-132129507D01*
X130978540Y-131854659D01*
X131127730Y-131495370D01*
X131128069Y-131106337D01*
X131032431Y-130874875D01*
X131127730Y-130645370D01*
X131128069Y-130256337D01*
X131113373Y-130220771D01*
X131146886Y-130140063D01*
X134594431Y-130140063D01*
X134742993Y-130499612D01*
X134843590Y-130600385D01*
X134743960Y-130699841D01*
X134594770Y-131059130D01*
X134594431Y-131448163D01*
X134742993Y-131807712D01*
X135017841Y-132083040D01*
X135377130Y-132232230D01*
X135766163Y-132232569D01*
X136022371Y-132126706D01*
X136215330Y-132206830D01*
X136604363Y-132207169D01*
X136963912Y-132058607D01*
X137239240Y-131783759D01*
X137388430Y-131424470D01*
X137388769Y-131035437D01*
X137240207Y-130675888D01*
X137165010Y-130600560D01*
X137239240Y-130526459D01*
X137388430Y-130167170D01*
X137388769Y-129778137D01*
X137240207Y-129418588D01*
X136965359Y-129143260D01*
X136606070Y-128994070D01*
X136217037Y-128993731D01*
X136022150Y-129074256D01*
X135767870Y-128968670D01*
X135378837Y-128968331D01*
X135019288Y-129116893D01*
X134743960Y-129391741D01*
X134594770Y-129751030D01*
X134594431Y-130140063D01*
X131146886Y-130140063D01*
X131227730Y-129945370D01*
X131228069Y-129556337D01*
X131079507Y-129196788D01*
X130804659Y-128921460D01*
X130445370Y-128772270D01*
X130056337Y-128771931D01*
X129696788Y-128920493D01*
X129421460Y-129195341D01*
X129272270Y-129554630D01*
X129271931Y-129943663D01*
X129286627Y-129979229D01*
X129172270Y-130254630D01*
X129171931Y-130643663D01*
X128112776Y-130643663D01*
X128045454Y-130305215D01*
X127723547Y-129823446D01*
X127681948Y-129795650D01*
X127729717Y-129786662D01*
X127945841Y-129647590D01*
X128090831Y-129435390D01*
X128141840Y-129183500D01*
X128141840Y-127483500D01*
X128112392Y-127327000D01*
X128300000Y-127327000D01*
X128349410Y-127316994D01*
X128391035Y-127288553D01*
X128418315Y-127246159D01*
X128427000Y-127200000D01*
X128427000Y-126700000D01*
X128416994Y-126650590D01*
X128388553Y-126608965D01*
X128364774Y-126593663D01*
X135021931Y-126593663D01*
X135170493Y-126953212D01*
X135445341Y-127228540D01*
X135804630Y-127377730D01*
X136193663Y-127378069D01*
X136553212Y-127229507D01*
X136599840Y-127182960D01*
X136645341Y-127228540D01*
X137004630Y-127377730D01*
X137393663Y-127378069D01*
X137753212Y-127229507D01*
X138028540Y-126954659D01*
X138033105Y-126943663D01*
X138821931Y-126943663D01*
X138930645Y-127206773D01*
X138831600Y-127445300D01*
X138831261Y-127834333D01*
X138979823Y-128193882D01*
X139254671Y-128469210D01*
X139613960Y-128618400D01*
X140002993Y-128618739D01*
X140362542Y-128470177D01*
X140637870Y-128195329D01*
X140787060Y-127836040D01*
X140787399Y-127447007D01*
X140678685Y-127183897D01*
X140777730Y-126945370D01*
X140778069Y-126556337D01*
X140629507Y-126196788D01*
X140354659Y-125921460D01*
X139995370Y-125772270D01*
X139606337Y-125771931D01*
X139246788Y-125920493D01*
X138971460Y-126195341D01*
X138822270Y-126554630D01*
X138821931Y-126943663D01*
X138033105Y-126943663D01*
X138177730Y-126595370D01*
X138178069Y-126206337D01*
X138029507Y-125846788D01*
X137754659Y-125571460D01*
X137395370Y-125422270D01*
X137006337Y-125421931D01*
X136646788Y-125570493D01*
X136600160Y-125617040D01*
X136554659Y-125571460D01*
X136195370Y-125422270D01*
X135806337Y-125421931D01*
X135446788Y-125570493D01*
X135171460Y-125845341D01*
X135022270Y-126204630D01*
X135021931Y-126593663D01*
X128364774Y-126593663D01*
X128346159Y-126581685D01*
X128299941Y-126573000D01*
X114551318Y-126579390D01*
X114627730Y-126395370D01*
X114628069Y-126006337D01*
X114519535Y-125743663D01*
X124271931Y-125743663D01*
X124420493Y-126103212D01*
X124695341Y-126378540D01*
X125054630Y-126527730D01*
X125443663Y-126528069D01*
X125803212Y-126379507D01*
X126078540Y-126104659D01*
X126227730Y-125745370D01*
X126228069Y-125356337D01*
X126079507Y-124996788D01*
X126026475Y-124943663D01*
X126871931Y-124943663D01*
X127020493Y-125303212D01*
X127295341Y-125578540D01*
X127654630Y-125727730D01*
X128043663Y-125728069D01*
X128403212Y-125579507D01*
X128678540Y-125304659D01*
X128827730Y-124945370D01*
X128827862Y-124793663D01*
X132171931Y-124793663D01*
X132320493Y-125153212D01*
X132595341Y-125428540D01*
X132954630Y-125577730D01*
X133343663Y-125578069D01*
X133703212Y-125429507D01*
X133978540Y-125154659D01*
X134127730Y-124795370D01*
X134128069Y-124406337D01*
X133979507Y-124046788D01*
X133704659Y-123771460D01*
X133345370Y-123622270D01*
X132956337Y-123621931D01*
X132596788Y-123770493D01*
X132321460Y-124045341D01*
X132172270Y-124404630D01*
X132171931Y-124793663D01*
X128827862Y-124793663D01*
X128828069Y-124556337D01*
X128728318Y-124314921D01*
X128797812Y-124286207D01*
X129073140Y-124011359D01*
X129222330Y-123652070D01*
X129222669Y-123263037D01*
X129074107Y-122903488D01*
X128799259Y-122628160D01*
X128439970Y-122478970D01*
X128050937Y-122478631D01*
X127691388Y-122627193D01*
X127416060Y-122902041D01*
X127266870Y-123261330D01*
X127266531Y-123650363D01*
X127366282Y-123891779D01*
X127296788Y-123920493D01*
X127021460Y-124195341D01*
X126872270Y-124554630D01*
X126871931Y-124943663D01*
X126026475Y-124943663D01*
X125804659Y-124721460D01*
X125445370Y-124572270D01*
X125056337Y-124571931D01*
X124696788Y-124720493D01*
X124421460Y-124995341D01*
X124272270Y-125354630D01*
X124271931Y-125743663D01*
X114519535Y-125743663D01*
X114479507Y-125646788D01*
X114204659Y-125371460D01*
X113845370Y-125222270D01*
X113456337Y-125221931D01*
X113350184Y-125265792D01*
X113245370Y-125222270D01*
X112856337Y-125221931D01*
X112496788Y-125370493D01*
X112221460Y-125645341D01*
X112072270Y-126004630D01*
X112071931Y-126393663D01*
X112149133Y-126580507D01*
X111429800Y-126580841D01*
X111429800Y-125183900D01*
X111419794Y-125134490D01*
X111391353Y-125092865D01*
X111348959Y-125065585D01*
X111302800Y-125056900D01*
X100710000Y-125056900D01*
X100710000Y-121593663D01*
X107021931Y-121593663D01*
X107170493Y-121953212D01*
X107445341Y-122228540D01*
X107804630Y-122377730D01*
X108193663Y-122378069D01*
X108413834Y-122287096D01*
X108420493Y-122303212D01*
X108695341Y-122578540D01*
X109054630Y-122727730D01*
X109443663Y-122728069D01*
X109803212Y-122579507D01*
X110078540Y-122304659D01*
X110227730Y-121945370D01*
X110228036Y-121593663D01*
X122871931Y-121593663D01*
X123020493Y-121953212D01*
X123295341Y-122228540D01*
X123654630Y-122377730D01*
X124043663Y-122378069D01*
X124403212Y-122229507D01*
X124678540Y-121954659D01*
X124827730Y-121595370D01*
X124828069Y-121206337D01*
X124679507Y-120846788D01*
X124404659Y-120571460D01*
X124045370Y-120422270D01*
X123656337Y-120421931D01*
X123296788Y-120570493D01*
X123021460Y-120845341D01*
X122872270Y-121204630D01*
X122871931Y-121593663D01*
X110228036Y-121593663D01*
X110228069Y-121556337D01*
X110147014Y-121360168D01*
X110277730Y-121045370D01*
X110278069Y-120656337D01*
X110129507Y-120296788D01*
X109889402Y-120056263D01*
X127520531Y-120056263D01*
X127669093Y-120415812D01*
X127943941Y-120691140D01*
X127970349Y-120702105D01*
X128088193Y-120987312D01*
X128363041Y-121262640D01*
X128722330Y-121411830D01*
X129111363Y-121412169D01*
X129470912Y-121263607D01*
X129746240Y-120988759D01*
X129895430Y-120629470D01*
X129895769Y-120240437D01*
X129747207Y-119880888D01*
X129472359Y-119605560D01*
X129445951Y-119594595D01*
X129328107Y-119309388D01*
X129053259Y-119034060D01*
X128693970Y-118884870D01*
X128304937Y-118884531D01*
X127945388Y-119033093D01*
X127670060Y-119307941D01*
X127520870Y-119667230D01*
X127520531Y-120056263D01*
X109889402Y-120056263D01*
X109854659Y-120021460D01*
X109495370Y-119872270D01*
X109106337Y-119871931D01*
X108746788Y-120020493D01*
X108471460Y-120295341D01*
X108385903Y-120501386D01*
X108195370Y-120422270D01*
X107806337Y-120421931D01*
X107446788Y-120570493D01*
X107171460Y-120845341D01*
X107022270Y-121204630D01*
X107021931Y-121593663D01*
X100710000Y-121593663D01*
X100710000Y-118943663D01*
X122171931Y-118943663D01*
X122320493Y-119303212D01*
X122595341Y-119578540D01*
X122954630Y-119727730D01*
X123343663Y-119728069D01*
X123499940Y-119663497D01*
X123654630Y-119727730D01*
X124043663Y-119728069D01*
X124403212Y-119579507D01*
X124678540Y-119304659D01*
X124827730Y-118945370D01*
X124828069Y-118556337D01*
X124679507Y-118196788D01*
X124404659Y-117921460D01*
X124101707Y-117795663D01*
X129089129Y-117795663D01*
X129237691Y-118155212D01*
X129512539Y-118430540D01*
X129871828Y-118579730D01*
X130260861Y-118580069D01*
X130620410Y-118431507D01*
X130895738Y-118156659D01*
X131044928Y-117797370D01*
X131045267Y-117408337D01*
X130896705Y-117048788D01*
X130621857Y-116773460D01*
X130262568Y-116624270D01*
X129873535Y-116623931D01*
X129513986Y-116772493D01*
X129238658Y-117047341D01*
X129089468Y-117406630D01*
X129089129Y-117795663D01*
X124101707Y-117795663D01*
X124045370Y-117772270D01*
X123656337Y-117771931D01*
X123500060Y-117836503D01*
X123345370Y-117772270D01*
X122956337Y-117771931D01*
X122596788Y-117920493D01*
X122321460Y-118195341D01*
X122172270Y-118554630D01*
X122171931Y-118943663D01*
X100710000Y-118943663D01*
X100710000Y-114850051D01*
X129811727Y-114850051D01*
X129960289Y-115209600D01*
X130235137Y-115484928D01*
X130594426Y-115634118D01*
X130983459Y-115634457D01*
X131343008Y-115485895D01*
X131618336Y-115211047D01*
X131767526Y-114851758D01*
X131767850Y-114479410D01*
X132004630Y-114577730D01*
X132393663Y-114578069D01*
X132677833Y-114460653D01*
X132895341Y-114678540D01*
X133254630Y-114827730D01*
X133346621Y-114827810D01*
X133448742Y-115074963D01*
X133723590Y-115350291D01*
X134082879Y-115499481D01*
X134471912Y-115499820D01*
X134831461Y-115351258D01*
X135106789Y-115076410D01*
X135255979Y-114717121D01*
X135256318Y-114328088D01*
X135107756Y-113968539D01*
X134832908Y-113693211D01*
X134473619Y-113544021D01*
X134427731Y-113543981D01*
X134428063Y-113163079D01*
X134669329Y-113063390D01*
X134944657Y-112788542D01*
X135093847Y-112429253D01*
X135094186Y-112040220D01*
X134945624Y-111680671D01*
X134670776Y-111405343D01*
X134311487Y-111256153D01*
X133922454Y-111255814D01*
X133562905Y-111404376D01*
X133287577Y-111679224D01*
X133138387Y-112038513D01*
X133138054Y-112420804D01*
X132896788Y-112520493D01*
X132677484Y-112739414D01*
X132395370Y-112622270D01*
X132006337Y-112621931D01*
X131646788Y-112770493D01*
X131371460Y-113045341D01*
X131222270Y-113404630D01*
X131221946Y-113776978D01*
X130985166Y-113678658D01*
X130596133Y-113678319D01*
X130236584Y-113826881D01*
X129961256Y-114101729D01*
X129812066Y-114461018D01*
X129811727Y-114850051D01*
X100710000Y-114850051D01*
X100710000Y-112556890D01*
X104808524Y-112556890D01*
X104978355Y-112966924D01*
X105368642Y-113395183D01*
X105893108Y-113641486D01*
X106123000Y-113520819D01*
X106123000Y-112327000D01*
X106377000Y-112327000D01*
X106377000Y-113520819D01*
X106606892Y-113641486D01*
X106921659Y-113493663D01*
X120121931Y-113493663D01*
X120270493Y-113853212D01*
X120545341Y-114128540D01*
X120904630Y-114277730D01*
X121293663Y-114278069D01*
X121653212Y-114129507D01*
X121928540Y-113854659D01*
X122077730Y-113495370D01*
X122078069Y-113106337D01*
X121929507Y-112746788D01*
X121654659Y-112471460D01*
X121295370Y-112322270D01*
X120906337Y-112321931D01*
X120546788Y-112470493D01*
X120271460Y-112745341D01*
X120122270Y-113104630D01*
X120121931Y-113493663D01*
X106921659Y-113493663D01*
X107131358Y-113395183D01*
X107521645Y-112966924D01*
X107676245Y-112593663D01*
X116271931Y-112593663D01*
X116420493Y-112953212D01*
X116695341Y-113228540D01*
X117054630Y-113377730D01*
X117443663Y-113378069D01*
X117564646Y-113328080D01*
X117804630Y-113427730D01*
X118193663Y-113428069D01*
X118553212Y-113279507D01*
X118828540Y-113004659D01*
X118977730Y-112645370D01*
X118978069Y-112256337D01*
X118829507Y-111896788D01*
X118554659Y-111621460D01*
X118195370Y-111472270D01*
X117806337Y-111471931D01*
X117685354Y-111521920D01*
X117445370Y-111422270D01*
X117056337Y-111421931D01*
X116696788Y-111570493D01*
X116421460Y-111845341D01*
X116272270Y-112204630D01*
X116271931Y-112593663D01*
X107676245Y-112593663D01*
X107691476Y-112556890D01*
X107570155Y-112327000D01*
X106377000Y-112327000D01*
X106123000Y-112327000D01*
X104929845Y-112327000D01*
X104808524Y-112556890D01*
X100710000Y-112556890D01*
X100710000Y-107120000D01*
X104735907Y-107120000D01*
X104848946Y-107688285D01*
X105170853Y-108170054D01*
X105500026Y-108390000D01*
X105170853Y-108609946D01*
X104848946Y-109091715D01*
X104735907Y-109660000D01*
X104848946Y-110228285D01*
X105170853Y-110710054D01*
X105511553Y-110937702D01*
X105368642Y-111004817D01*
X104978355Y-111433076D01*
X104808524Y-111843110D01*
X104929845Y-112073000D01*
X106123000Y-112073000D01*
X106123000Y-112053000D01*
X106377000Y-112053000D01*
X106377000Y-112073000D01*
X107570155Y-112073000D01*
X107691476Y-111843110D01*
X107521645Y-111433076D01*
X107131358Y-111004817D01*
X106988447Y-110937702D01*
X107329147Y-110710054D01*
X107538396Y-110396890D01*
X126608524Y-110396890D01*
X126778355Y-110806924D01*
X127168642Y-111235183D01*
X127693108Y-111481486D01*
X127923000Y-111360819D01*
X127923000Y-110167000D01*
X128177000Y-110167000D01*
X128177000Y-111360819D01*
X128406892Y-111481486D01*
X128931358Y-111235183D01*
X129321645Y-110806924D01*
X129491476Y-110396890D01*
X129370155Y-110167000D01*
X128177000Y-110167000D01*
X127923000Y-110167000D01*
X126729845Y-110167000D01*
X126608524Y-110396890D01*
X107538396Y-110396890D01*
X107651054Y-110228285D01*
X107764093Y-109660000D01*
X107651054Y-109091715D01*
X107329147Y-108609946D01*
X106999974Y-108390000D01*
X107329147Y-108170054D01*
X107651054Y-107688285D01*
X107764093Y-107120000D01*
X107651054Y-106551715D01*
X107411812Y-106193663D01*
X111671931Y-106193663D01*
X111820493Y-106553212D01*
X112095341Y-106828540D01*
X112454630Y-106977730D01*
X112733339Y-106977973D01*
X112722270Y-107004630D01*
X112721931Y-107393663D01*
X112870493Y-107753212D01*
X113145341Y-108028540D01*
X113504630Y-108177730D01*
X113893663Y-108178069D01*
X114024878Y-108123852D01*
X114154630Y-108177730D01*
X114543663Y-108178069D01*
X114903212Y-108029507D01*
X115178540Y-107754659D01*
X115327505Y-107395910D01*
X116589840Y-107395910D01*
X116738402Y-107755459D01*
X117013250Y-108030787D01*
X117372539Y-108179977D01*
X117761572Y-108180316D01*
X118001563Y-108081154D01*
X118004630Y-108082428D01*
X118393663Y-108082767D01*
X118753212Y-107934205D01*
X119028540Y-107659357D01*
X119094710Y-107500000D01*
X126535907Y-107500000D01*
X126648946Y-108068285D01*
X126970853Y-108550054D01*
X127311553Y-108777702D01*
X127168642Y-108844817D01*
X126778355Y-109273076D01*
X126608524Y-109683110D01*
X126729845Y-109913000D01*
X127923000Y-109913000D01*
X127923000Y-109893000D01*
X128177000Y-109893000D01*
X128177000Y-109913000D01*
X129370155Y-109913000D01*
X129491476Y-109683110D01*
X129321645Y-109273076D01*
X128931358Y-108844817D01*
X128788447Y-108777702D01*
X129129147Y-108550054D01*
X129451054Y-108068285D01*
X129564093Y-107500000D01*
X129451054Y-106931715D01*
X129129147Y-106449946D01*
X129087548Y-106422150D01*
X129135317Y-106413162D01*
X129351441Y-106274090D01*
X129496431Y-106061890D01*
X129547440Y-105810000D01*
X129547440Y-104110000D01*
X129503162Y-103874683D01*
X129364090Y-103658559D01*
X129151890Y-103513569D01*
X128900000Y-103462560D01*
X127200000Y-103462560D01*
X126964683Y-103506838D01*
X126748559Y-103645910D01*
X126603569Y-103858110D01*
X126552560Y-104110000D01*
X126552560Y-105810000D01*
X126596838Y-106045317D01*
X126735910Y-106261441D01*
X126948110Y-106406431D01*
X127015541Y-106420086D01*
X126970853Y-106449946D01*
X126648946Y-106931715D01*
X126535907Y-107500000D01*
X119094710Y-107500000D01*
X119177730Y-107300068D01*
X119178011Y-106977794D01*
X119493663Y-106978069D01*
X119853212Y-106829507D01*
X120128540Y-106554659D01*
X120277730Y-106195370D01*
X120278069Y-105806337D01*
X120129507Y-105446788D01*
X119854659Y-105171460D01*
X119495370Y-105022270D01*
X119106337Y-105021931D01*
X118746788Y-105170493D01*
X118471460Y-105445341D01*
X118414723Y-105581978D01*
X118154659Y-105321460D01*
X117795370Y-105172270D01*
X117406337Y-105171931D01*
X117046788Y-105320493D01*
X116771460Y-105595341D01*
X116622270Y-105954630D01*
X116621931Y-106343663D01*
X116745132Y-106641835D01*
X116739369Y-106647588D01*
X116590179Y-107006877D01*
X116589840Y-107395910D01*
X115327505Y-107395910D01*
X115327730Y-107395370D01*
X115328069Y-107006337D01*
X115191010Y-106674628D01*
X115327730Y-106345370D01*
X115328069Y-105956337D01*
X115179507Y-105596788D01*
X114904659Y-105321460D01*
X114545370Y-105172270D01*
X114156337Y-105171931D01*
X113796788Y-105320493D01*
X113535214Y-105581611D01*
X113479507Y-105446788D01*
X113204659Y-105171460D01*
X112845370Y-105022270D01*
X112456337Y-105021931D01*
X112096788Y-105170493D01*
X111821460Y-105445341D01*
X111672270Y-105804630D01*
X111671931Y-106193663D01*
X107411812Y-106193663D01*
X107329147Y-106069946D01*
X107287548Y-106042150D01*
X107335317Y-106033162D01*
X107551441Y-105894090D01*
X107696431Y-105681890D01*
X107747440Y-105430000D01*
X107747440Y-103730000D01*
X107703162Y-103494683D01*
X107564090Y-103278559D01*
X107351890Y-103133569D01*
X107100000Y-103082560D01*
X105400000Y-103082560D01*
X105164683Y-103126838D01*
X104948559Y-103265910D01*
X104803569Y-103478110D01*
X104752560Y-103730000D01*
X104752560Y-105430000D01*
X104796838Y-105665317D01*
X104935910Y-105881441D01*
X105148110Y-106026431D01*
X105215541Y-106040086D01*
X105170853Y-106069946D01*
X104848946Y-106551715D01*
X104735907Y-107120000D01*
X100710000Y-107120000D01*
X100710000Y-100710000D01*
X151290000Y-100710000D01*
X151290000Y-167290000D01*
X151290000Y-167290000D01*
G37*
X151290000Y-167290000D02*
X128723873Y-167290000D01*
X128672519Y-157275900D01*
X128708150Y-157275900D01*
X128866900Y-157117150D01*
X128866900Y-155917900D01*
X129120900Y-155917900D01*
X129120900Y-157117150D01*
X129279650Y-157275900D01*
X129970209Y-157275900D01*
X130203598Y-157179227D01*
X130382227Y-157000599D01*
X130478900Y-156767210D01*
X130478900Y-156243663D01*
X130961931Y-156243663D01*
X131110493Y-156603212D01*
X131385341Y-156878540D01*
X131678126Y-157000115D01*
X131386788Y-157120493D01*
X131111460Y-157395341D01*
X130962270Y-157754630D01*
X130961931Y-158143663D01*
X131110493Y-158503212D01*
X131385341Y-158778540D01*
X131744630Y-158927730D01*
X132133663Y-158928069D01*
X132493212Y-158779507D01*
X132768540Y-158504659D01*
X132917730Y-158145370D01*
X132918069Y-157756337D01*
X132769507Y-157396788D01*
X132494659Y-157121460D01*
X132201874Y-156999885D01*
X132493212Y-156879507D01*
X132768540Y-156604659D01*
X132917730Y-156245370D01*
X132918069Y-155856337D01*
X132769507Y-155496788D01*
X132494659Y-155221460D01*
X132135370Y-155072270D01*
X131746337Y-155071931D01*
X131386788Y-155220493D01*
X131111460Y-155495341D01*
X130962270Y-155854630D01*
X130961931Y-156243663D01*
X130478900Y-156243663D01*
X130478900Y-156076650D01*
X130320150Y-155917900D01*
X129120900Y-155917900D01*
X128866900Y-155917900D01*
X128846900Y-155917900D01*
X128846900Y-155663900D01*
X128866900Y-155663900D01*
X128866900Y-155643900D01*
X129120900Y-155643900D01*
X129120900Y-155663900D01*
X130320150Y-155663900D01*
X130478900Y-155505150D01*
X130478900Y-154814590D01*
X130382227Y-154581201D01*
X130203598Y-154402573D01*
X130029123Y-154330303D01*
X130073047Y-154300954D01*
X130394954Y-153819185D01*
X130507993Y-153250900D01*
X130394954Y-152682615D01*
X130235292Y-152443663D01*
X133771931Y-152443663D01*
X133920493Y-152803212D01*
X134195341Y-153078540D01*
X134554630Y-153227730D01*
X134943663Y-153228069D01*
X135303212Y-153079507D01*
X135578540Y-152804659D01*
X135727730Y-152445370D01*
X135728069Y-152056337D01*
X135579507Y-151696788D01*
X135304659Y-151421460D01*
X134945370Y-151272270D01*
X134556337Y-151271931D01*
X134196788Y-151420493D01*
X133921460Y-151695341D01*
X133772270Y-152054630D01*
X133771931Y-152443663D01*
X130235292Y-152443663D01*
X130073047Y-152200846D01*
X129743874Y-151980900D01*
X130073047Y-151760954D01*
X130394954Y-151279185D01*
X130507993Y-150710900D01*
X130484674Y-150593663D01*
X144071931Y-150593663D01*
X144220493Y-150953212D01*
X144495341Y-151228540D01*
X144854630Y-151377730D01*
X145225408Y-151378053D01*
X145422830Y-151460030D01*
X145811863Y-151460369D01*
X146171412Y-151311807D01*
X146446740Y-151036959D01*
X146595930Y-150677670D01*
X146596269Y-150288637D01*
X146447707Y-149929088D01*
X146172859Y-149653760D01*
X145813570Y-149504570D01*
X145442792Y-149504247D01*
X145245370Y-149422270D01*
X144856337Y-149421931D01*
X144496788Y-149570493D01*
X144221460Y-149845341D01*
X144072270Y-150204630D01*
X144071931Y-150593663D01*
X130484674Y-150593663D01*
X130394954Y-150142615D01*
X130073047Y-149660846D01*
X129591278Y-149338939D01*
X129022993Y-149225900D01*
X128964807Y-149225900D01*
X128631577Y-149292184D01*
X128627739Y-148543663D01*
X133771931Y-148543663D01*
X133920493Y-148903212D01*
X134195341Y-149178540D01*
X134554630Y-149327730D01*
X134943663Y-149328069D01*
X135303212Y-149179507D01*
X135578540Y-148904659D01*
X135727730Y-148545370D01*
X135728069Y-148156337D01*
X135579507Y-147796788D01*
X135304659Y-147521460D01*
X134945370Y-147372270D01*
X134556337Y-147371931D01*
X134196788Y-147520493D01*
X133921460Y-147795341D01*
X133772270Y-148154630D01*
X133771931Y-148543663D01*
X128627739Y-148543663D01*
X128626998Y-148399349D01*
X128616739Y-148349991D01*
X128588085Y-148308512D01*
X128545552Y-148281450D01*
X128501411Y-148273008D01*
X119627000Y-148174403D01*
X119627000Y-147093663D01*
X129821931Y-147093663D01*
X129970493Y-147453212D01*
X130245341Y-147728540D01*
X130604630Y-147877730D01*
X130993663Y-147878069D01*
X131353212Y-147729507D01*
X131628540Y-147454659D01*
X131777730Y-147095370D01*
X131778069Y-146706337D01*
X131629507Y-146346788D01*
X131354659Y-146071460D01*
X130995370Y-145922270D01*
X130606337Y-145921931D01*
X130246788Y-146070493D01*
X129971460Y-146345341D01*
X129822270Y-146704630D01*
X129821931Y-147093663D01*
X119627000Y-147093663D01*
X119627000Y-145478054D01*
X119643663Y-145478069D01*
X119892249Y-145375356D01*
X119945341Y-145428540D01*
X120304630Y-145577730D01*
X120693663Y-145578069D01*
X121053212Y-145429507D01*
X121065387Y-145417353D01*
X143852731Y-145417353D01*
X144001293Y-145776902D01*
X144276141Y-146052230D01*
X144635430Y-146201420D01*
X145024463Y-146201759D01*
X145208503Y-146125716D01*
X145270430Y-146151430D01*
X145659463Y-146151769D01*
X146019012Y-146003207D01*
X146294340Y-145728359D01*
X146443530Y-145369070D01*
X146443869Y-144980037D01*
X146295307Y-144620488D01*
X146020459Y-144345160D01*
X145661170Y-144195970D01*
X145272137Y-144195631D01*
X145088097Y-144271674D01*
X145026170Y-144245960D01*
X144637137Y-144245621D01*
X144277588Y-144394183D01*
X144002260Y-144669031D01*
X143853070Y-145028320D01*
X143852731Y-145417353D01*
X121065387Y-145417353D01*
X121328540Y-145154659D01*
X121477730Y-144795370D01*
X121478069Y-144406337D01*
X121329507Y-144046788D01*
X121276475Y-143993663D01*
X129921931Y-143993663D01*
X130070493Y-144353212D01*
X130345341Y-144628540D01*
X130704630Y-144777730D01*
X131093663Y-144778069D01*
X131453212Y-144629507D01*
X131728540Y-144354659D01*
X131877730Y-143995370D01*
X131878069Y-143606337D01*
X131729507Y-143246788D01*
X131454659Y-142971460D01*
X131095370Y-142822270D01*
X130706337Y-142821931D01*
X130346788Y-142970493D01*
X130071460Y-143245341D01*
X129922270Y-143604630D01*
X129921931Y-143993663D01*
X121276475Y-143993663D01*
X121054659Y-143771460D01*
X121042693Y-143766491D01*
X121253212Y-143679507D01*
X121528540Y-143404659D01*
X121677730Y-143045370D01*
X121678069Y-142656337D01*
X121529507Y-142296788D01*
X121254659Y-142021460D01*
X120895370Y-141872270D01*
X120506337Y-141871931D01*
X120149566Y-142019345D01*
X119795370Y-141872270D01*
X119627000Y-141872123D01*
X119627000Y-140827000D01*
X126647394Y-140827000D01*
X128310197Y-142489803D01*
X128352211Y-142517666D01*
X128400000Y-142527000D01*
X131100000Y-142527000D01*
X131149410Y-142516994D01*
X131191035Y-142488553D01*
X131218315Y-142446159D01*
X131227000Y-142400000D01*
X131227000Y-134700000D01*
X131216994Y-134650590D01*
X131188553Y-134608965D01*
X131146159Y-134581685D01*
X131100000Y-134573000D01*
X127558277Y-134573000D01*
X127916045Y-134180424D01*
X128085876Y-133770390D01*
X128071772Y-133743663D01*
X131371931Y-133743663D01*
X131436503Y-133899940D01*
X131372270Y-134054630D01*
X131371931Y-134443663D01*
X131520493Y-134803212D01*
X131795341Y-135078540D01*
X132154630Y-135227730D01*
X132543663Y-135228069D01*
X132903212Y-135079507D01*
X133178540Y-134804659D01*
X133275053Y-134572229D01*
X133370493Y-134803212D01*
X133645341Y-135078540D01*
X134004630Y-135227730D01*
X134393663Y-135228069D01*
X134753212Y-135079507D01*
X135028540Y-134804659D01*
X135177730Y-134445370D01*
X135177731Y-134443663D01*
X135421931Y-134443663D01*
X135570493Y-134803212D01*
X135845341Y-135078540D01*
X136204630Y-135227730D01*
X136593663Y-135228069D01*
X136842311Y-135125330D01*
X136945341Y-135228540D01*
X137304630Y-135377730D01*
X137693663Y-135378069D01*
X138053212Y-135229507D01*
X138328540Y-134954659D01*
X138477730Y-134595370D01*
X138478069Y-134206337D01*
X138378203Y-133964643D01*
X138427730Y-133845370D01*
X138427862Y-133693663D01*
X141071931Y-133693663D01*
X141220493Y-134053212D01*
X141495341Y-134328540D01*
X141854630Y-134477730D01*
X142243663Y-134478069D01*
X142314523Y-134448790D01*
X142504630Y-134527730D01*
X142893663Y-134528069D01*
X143253212Y-134379507D01*
X143528540Y-134104659D01*
X143677730Y-133745370D01*
X143678069Y-133356337D01*
X143529507Y-132996788D01*
X143254659Y-132721460D01*
X142895370Y-132572270D01*
X142506337Y-132571931D01*
X142435477Y-132601210D01*
X142245370Y-132522270D01*
X141856337Y-132521931D01*
X141496788Y-132670493D01*
X141221460Y-132945341D01*
X141072270Y-133304630D01*
X141071931Y-133693663D01*
X138427862Y-133693663D01*
X138428069Y-133456337D01*
X138279507Y-133096788D01*
X138004659Y-132821460D01*
X137645370Y-132672270D01*
X137256337Y-132671931D01*
X136896788Y-132820493D01*
X136621460Y-133095341D01*
X136548010Y-133272229D01*
X136206337Y-133271931D01*
X135846788Y-133420493D01*
X135571460Y-133695341D01*
X135422270Y-134054630D01*
X135421931Y-134443663D01*
X135177731Y-134443663D01*
X135178069Y-134056337D01*
X135029507Y-133696788D01*
X134754659Y-133421460D01*
X134395370Y-133272270D01*
X134006337Y-133271931D01*
X133646788Y-133420493D01*
X133371460Y-133695341D01*
X133274947Y-133927771D01*
X133263497Y-133900060D01*
X133327730Y-133745370D01*
X133328069Y-133356337D01*
X133179507Y-132996788D01*
X132904659Y-132721460D01*
X132545370Y-132572270D01*
X132156337Y-132571931D01*
X131796788Y-132720493D01*
X131521460Y-132995341D01*
X131372270Y-133354630D01*
X131371931Y-133743663D01*
X128071772Y-133743663D01*
X127964555Y-133540500D01*
X126771400Y-133540500D01*
X126771400Y-133560500D01*
X126517400Y-133560500D01*
X126517400Y-133540500D01*
X125324245Y-133540500D01*
X125202924Y-133770390D01*
X125372755Y-134180424D01*
X125467749Y-134284660D01*
X125404659Y-134221460D01*
X125045370Y-134072270D01*
X124656337Y-134071931D01*
X124595709Y-134096982D01*
X124295370Y-133972270D01*
X123906337Y-133971931D01*
X123760292Y-134032275D01*
X123495370Y-133922270D01*
X123106337Y-133921931D01*
X122746788Y-134070493D01*
X122471460Y-134345341D01*
X122322270Y-134704630D01*
X122321931Y-135093663D01*
X122470493Y-135453212D01*
X122745341Y-135728540D01*
X123104630Y-135877730D01*
X123493663Y-135878069D01*
X123639708Y-135817725D01*
X123904630Y-135927730D01*
X124293663Y-135928069D01*
X124354291Y-135903018D01*
X124654630Y-136027730D01*
X125043663Y-136028069D01*
X125403212Y-135879507D01*
X125678540Y-135604659D01*
X125710787Y-135527000D01*
X129073000Y-135527000D01*
X129073000Y-138600000D01*
X129083006Y-138649410D01*
X129111447Y-138691035D01*
X129153841Y-138718315D01*
X129200000Y-138727000D01*
X130073000Y-138727000D01*
X130073000Y-140673000D01*
X128852606Y-140673000D01*
X128389803Y-140210197D01*
X128347789Y-140182334D01*
X128300000Y-140173000D01*
X118000000Y-140173000D01*
X117950590Y-140183006D01*
X117908965Y-140211447D01*
X117881685Y-140253841D01*
X117873000Y-140300000D01*
X117873000Y-145000000D01*
X117883006Y-145049410D01*
X117911447Y-145091035D01*
X117953841Y-145118315D01*
X118000000Y-145127000D01*
X118694152Y-145127000D01*
X118873000Y-145306160D01*
X118873000Y-149000000D01*
X118883006Y-149049410D01*
X118911447Y-149091035D01*
X118953841Y-149118315D01*
X119000000Y-149127000D01*
X127873076Y-149127000D01*
X127873435Y-149722684D01*
X127592846Y-150142615D01*
X127479807Y-150710900D01*
X127592846Y-151279185D01*
X127874625Y-151700898D01*
X127874962Y-152260398D01*
X127592846Y-152682615D01*
X127479807Y-153250900D01*
X127592846Y-153819185D01*
X127876155Y-154243189D01*
X127876224Y-154357064D01*
X126732030Y-154368506D01*
X126682722Y-154379006D01*
X126641384Y-154407861D01*
X126614530Y-154450526D01*
X126606302Y-154496126D01*
X126617435Y-156756091D01*
X126600000Y-156752560D01*
X123300000Y-156752560D01*
X123064683Y-156796838D01*
X122848559Y-156935910D01*
X122703569Y-157148110D01*
X122652560Y-157400000D01*
X122652560Y-160400000D01*
X122696838Y-160635317D01*
X122835910Y-160851441D01*
X123048110Y-160996431D01*
X123300000Y-161047440D01*
X126600000Y-161047440D01*
X126835317Y-161003162D01*
X127051441Y-160864090D01*
X127196431Y-160651890D01*
X127247440Y-160400000D01*
X127247440Y-157400000D01*
X127209920Y-157200600D01*
X127835801Y-157200600D01*
X127863719Y-157212164D01*
X127872389Y-167290000D01*
X100710000Y-167290000D01*
X100710000Y-162756890D01*
X102258524Y-162756890D01*
X102428355Y-163166924D01*
X102818642Y-163595183D01*
X103343108Y-163841486D01*
X103573000Y-163720819D01*
X103573000Y-162527000D01*
X103827000Y-162527000D01*
X103827000Y-163720819D01*
X104056892Y-163841486D01*
X104581358Y-163595183D01*
X104971645Y-163166924D01*
X104975446Y-163157745D01*
X108121861Y-163157745D01*
X108195995Y-163403864D01*
X108733223Y-163596965D01*
X109303454Y-163569778D01*
X109704005Y-163403864D01*
X109778139Y-163157745D01*
X108950000Y-162329605D01*
X108121861Y-163157745D01*
X104975446Y-163157745D01*
X105141476Y-162756890D01*
X105020155Y-162527000D01*
X103827000Y-162527000D01*
X103573000Y-162527000D01*
X102379845Y-162527000D01*
X102258524Y-162756890D01*
X100710000Y-162756890D01*
X100710000Y-157843663D01*
X101171931Y-157843663D01*
X101320493Y-158203212D01*
X101595341Y-158478540D01*
X101954630Y-158627730D01*
X102342423Y-158628068D01*
X102253569Y-158758110D01*
X102202560Y-159010000D01*
X102202560Y-160710000D01*
X102246838Y-160945317D01*
X102385910Y-161161441D01*
X102598110Y-161306431D01*
X102706107Y-161328301D01*
X102428355Y-161633076D01*
X102258524Y-162043110D01*
X102379845Y-162273000D01*
X103573000Y-162273000D01*
X103573000Y-162253000D01*
X103827000Y-162253000D01*
X103827000Y-162273000D01*
X105020155Y-162273000D01*
X105141476Y-162043110D01*
X104971645Y-161633076D01*
X104695499Y-161330063D01*
X104785317Y-161313162D01*
X105001441Y-161174090D01*
X105146431Y-160961890D01*
X105197440Y-160710000D01*
X105197440Y-159350000D01*
X107502560Y-159350000D01*
X107502560Y-160950000D01*
X107546838Y-161185317D01*
X107685910Y-161401441D01*
X107692548Y-161405977D01*
X107503035Y-161933223D01*
X107530222Y-162503454D01*
X107696136Y-162904005D01*
X107942255Y-162978139D01*
X108770395Y-162150000D01*
X108756252Y-162135858D01*
X108935858Y-161956253D01*
X108950000Y-161970395D01*
X108964143Y-161956253D01*
X109143748Y-162135858D01*
X109129605Y-162150000D01*
X109957745Y-162978139D01*
X110203864Y-162904005D01*
X110396965Y-162366777D01*
X110369778Y-161796546D01*
X110207616Y-161405053D01*
X110346431Y-161201890D01*
X110397440Y-160950000D01*
X110397440Y-159350000D01*
X110353162Y-159114683D01*
X110214090Y-158898559D01*
X110001890Y-158753569D01*
X109750000Y-158702560D01*
X108150000Y-158702560D01*
X107914683Y-158746838D01*
X107698559Y-158885910D01*
X107553569Y-159098110D01*
X107502560Y-159350000D01*
X105197440Y-159350000D01*
X105197440Y-159010000D01*
X105153162Y-158774683D01*
X105014090Y-158558559D01*
X104801890Y-158413569D01*
X104550000Y-158362560D01*
X102850000Y-158362560D01*
X102813479Y-158369432D01*
X102978540Y-158204659D01*
X103127730Y-157845370D01*
X103128069Y-157456337D01*
X103010755Y-157172413D01*
X103028540Y-157154659D01*
X103177730Y-156795370D01*
X103178069Y-156406337D01*
X103072076Y-156149813D01*
X103134283Y-156000000D01*
X108535907Y-156000000D01*
X108648946Y-156568285D01*
X108970853Y-157050054D01*
X109452622Y-157371961D01*
X110020907Y-157485000D01*
X110079093Y-157485000D01*
X110506416Y-157400000D01*
X113852560Y-157400000D01*
X113852560Y-160400000D01*
X113896838Y-160635317D01*
X114035910Y-160851441D01*
X114248110Y-160996431D01*
X114500000Y-161047440D01*
X117800000Y-161047440D01*
X118035317Y-161003162D01*
X118251441Y-160864090D01*
X118396431Y-160651890D01*
X118447440Y-160400000D01*
X118447440Y-157400000D01*
X118403162Y-157164683D01*
X118264090Y-156948559D01*
X118051890Y-156803569D01*
X117800000Y-156752560D01*
X114500000Y-156752560D01*
X114264683Y-156796838D01*
X114048559Y-156935910D01*
X113903569Y-157148110D01*
X113852560Y-157400000D01*
X110506416Y-157400000D01*
X110647378Y-157371961D01*
X111129147Y-157050054D01*
X111451054Y-156568285D01*
X111564093Y-156000000D01*
X111451054Y-155431715D01*
X111129147Y-154949946D01*
X111087548Y-154922150D01*
X111135317Y-154913162D01*
X111351441Y-154774090D01*
X111496431Y-154561890D01*
X111547440Y-154310000D01*
X111547440Y-152610000D01*
X111503162Y-152374683D01*
X111418812Y-152243599D01*
X116314699Y-152243599D01*
X116578281Y-152881515D01*
X117065918Y-153370004D01*
X117703373Y-153634699D01*
X118393599Y-153635301D01*
X119031515Y-153371719D01*
X119300040Y-153103662D01*
X119565918Y-153370004D01*
X120203373Y-153634699D01*
X120893599Y-153635301D01*
X121531515Y-153371719D01*
X121800040Y-153103662D01*
X122065918Y-153370004D01*
X122703373Y-153634699D01*
X123393599Y-153635301D01*
X124031515Y-153371719D01*
X124520004Y-152884082D01*
X124784699Y-152246627D01*
X124785301Y-151556401D01*
X124521719Y-150918485D01*
X124034082Y-150429996D01*
X123396627Y-150165301D01*
X122706401Y-150164699D01*
X122068485Y-150428281D01*
X121799960Y-150696338D01*
X121534082Y-150429996D01*
X120896627Y-150165301D01*
X120206401Y-150164699D01*
X119568485Y-150428281D01*
X119299960Y-150696338D01*
X119034082Y-150429996D01*
X118396627Y-150165301D01*
X117706401Y-150164699D01*
X117068485Y-150428281D01*
X116579996Y-150915918D01*
X116315301Y-151553373D01*
X116314699Y-152243599D01*
X111418812Y-152243599D01*
X111364090Y-152158559D01*
X111151890Y-152013569D01*
X110900000Y-151962560D01*
X109200000Y-151962560D01*
X108964683Y-152006838D01*
X108748559Y-152145910D01*
X108603569Y-152358110D01*
X108552560Y-152610000D01*
X108552560Y-154310000D01*
X108596838Y-154545317D01*
X108735910Y-154761441D01*
X108948110Y-154906431D01*
X109015541Y-154920086D01*
X108970853Y-154949946D01*
X108648946Y-155431715D01*
X108535907Y-156000000D01*
X103134283Y-156000000D01*
X103177730Y-155895370D01*
X103178069Y-155506337D01*
X103072076Y-155249813D01*
X103177730Y-154995370D01*
X103178069Y-154606337D01*
X103029507Y-154246788D01*
X102754659Y-153971460D01*
X102395370Y-153822270D01*
X102006337Y-153821931D01*
X101646788Y-153970493D01*
X101371460Y-154245341D01*
X101222270Y-154604630D01*
X101221931Y-154993663D01*
X101327924Y-155250187D01*
X101222270Y-155504630D01*
X101221931Y-155893663D01*
X101327924Y-156150187D01*
X101222270Y-156404630D01*
X101221931Y-156793663D01*
X101339245Y-157077587D01*
X101321460Y-157095341D01*
X101172270Y-157454630D01*
X101171931Y-157843663D01*
X100710000Y-157843663D01*
X100710000Y-151493663D01*
X102671931Y-151493663D01*
X102820493Y-151853212D01*
X103095341Y-152128540D01*
X103454630Y-152277730D01*
X103843663Y-152278069D01*
X104203212Y-152129507D01*
X104478540Y-151854659D01*
X104627730Y-151495370D01*
X104628069Y-151106337D01*
X104479507Y-150746788D01*
X104204659Y-150471460D01*
X103845370Y-150322270D01*
X103456337Y-150321931D01*
X103096788Y-150470493D01*
X102821460Y-150745341D01*
X102672270Y-151104630D01*
X102671931Y-151493663D01*
X100710000Y-151493663D01*
X100710000Y-144293663D01*
X101971931Y-144293663D01*
X102120493Y-144653212D01*
X102395341Y-144928540D01*
X102754630Y-145077730D01*
X103143663Y-145078069D01*
X103503212Y-144929507D01*
X103639293Y-144793663D01*
X109771931Y-144793663D01*
X109920493Y-145153212D01*
X110195341Y-145428540D01*
X110554630Y-145577730D01*
X110943663Y-145578069D01*
X111303212Y-145429507D01*
X111578540Y-145154659D01*
X111727730Y-144795370D01*
X111727818Y-144693663D01*
X113221931Y-144693663D01*
X113370493Y-145053212D01*
X113645341Y-145328540D01*
X114004630Y-145477730D01*
X114393663Y-145478069D01*
X114753212Y-145329507D01*
X115028540Y-145054659D01*
X115177730Y-144695370D01*
X115178069Y-144306337D01*
X115029507Y-143946788D01*
X114754659Y-143671460D01*
X114395370Y-143522270D01*
X114006337Y-143521931D01*
X113646788Y-143670493D01*
X113371460Y-143945341D01*
X113222270Y-144304630D01*
X113221931Y-144693663D01*
X111727818Y-144693663D01*
X111728069Y-144406337D01*
X111579507Y-144046788D01*
X111304659Y-143771460D01*
X110945370Y-143622270D01*
X110556337Y-143621931D01*
X110196788Y-143770493D01*
X109921460Y-144045341D01*
X109772270Y-144404630D01*
X109771931Y-144793663D01*
X103639293Y-144793663D01*
X103778540Y-144654659D01*
X103927730Y-144295370D01*
X103928069Y-143906337D01*
X103779507Y-143546788D01*
X103504659Y-143271460D01*
X103145370Y-143122270D01*
X102756337Y-143121931D01*
X102396788Y-143270493D01*
X102121460Y-143545341D01*
X101972270Y-143904630D01*
X101971931Y-144293663D01*
X100710000Y-144293663D01*
X100710000Y-139118963D01*
X103835031Y-139118963D01*
X103983593Y-139478512D01*
X104258441Y-139753840D01*
X104617730Y-139903030D01*
X105006763Y-139903369D01*
X105366312Y-139754807D01*
X105641640Y-139479959D01*
X105750637Y-139217465D01*
X105858780Y-139217559D01*
X106158632Y-139093663D01*
X111271931Y-139093663D01*
X111420493Y-139453212D01*
X111695341Y-139728540D01*
X112054630Y-139877730D01*
X112443663Y-139878069D01*
X112803212Y-139729507D01*
X113078540Y-139454659D01*
X113227730Y-139095370D01*
X113228069Y-138706337D01*
X113079507Y-138346788D01*
X112804659Y-138071460D01*
X112445370Y-137922270D01*
X112056337Y-137921931D01*
X111696788Y-138070493D01*
X111421460Y-138345341D01*
X111272270Y-138704630D01*
X111271931Y-139093663D01*
X106158632Y-139093663D01*
X106218329Y-139068997D01*
X106493657Y-138794149D01*
X106642847Y-138434860D01*
X106643186Y-138045827D01*
X106511992Y-137728313D01*
X106584435Y-137698380D01*
X106859763Y-137423532D01*
X107008953Y-137064243D01*
X107009292Y-136675210D01*
X106860730Y-136315661D01*
X106585882Y-136040333D01*
X106226593Y-135891143D01*
X105837560Y-135890804D01*
X105478011Y-136039366D01*
X105202683Y-136314214D01*
X105053493Y-136673503D01*
X105053154Y-137062536D01*
X105184348Y-137380050D01*
X105111905Y-137409983D01*
X104836577Y-137684831D01*
X104727580Y-137947325D01*
X104619437Y-137947231D01*
X104259888Y-138095793D01*
X103984560Y-138370641D01*
X103835370Y-138729930D01*
X103835031Y-139118963D01*
X100710000Y-139118963D01*
X100710000Y-133293663D01*
X113521931Y-133293663D01*
X113611441Y-133510295D01*
X113572270Y-133604630D01*
X113571931Y-133993663D01*
X113720493Y-134353212D01*
X113995341Y-134628540D01*
X114354630Y-134777730D01*
X114743663Y-134778069D01*
X114960295Y-134688559D01*
X115054630Y-134727730D01*
X115443663Y-134728069D01*
X115803212Y-134579507D01*
X116078540Y-134304659D01*
X116227730Y-133945370D01*
X116228069Y-133556337D01*
X116138559Y-133339705D01*
X116177730Y-133245370D01*
X116178069Y-132856337D01*
X116029507Y-132496788D01*
X115754659Y-132221460D01*
X115395370Y-132072270D01*
X115006337Y-132071931D01*
X114789705Y-132161441D01*
X114695370Y-132122270D01*
X114306337Y-132121931D01*
X113946788Y-132270493D01*
X113671460Y-132545341D01*
X113522270Y-132904630D01*
X113521931Y-133293663D01*
X100710000Y-133293663D01*
X100710000Y-127327000D01*
X109121989Y-127327000D01*
X109121931Y-127393663D01*
X109257090Y-127720774D01*
X109222270Y-127804630D01*
X109221931Y-128193663D01*
X109370493Y-128553212D01*
X109645341Y-128828540D01*
X110004630Y-128977730D01*
X110393663Y-128978069D01*
X110753212Y-128829507D01*
X111028540Y-128554659D01*
X111177730Y-128195370D01*
X111178069Y-127806337D01*
X111042910Y-127479226D01*
X111077730Y-127395370D01*
X111077790Y-127327000D01*
X125178652Y-127327000D01*
X125146960Y-127483500D01*
X125146960Y-129183500D01*
X125191238Y-129418817D01*
X125330310Y-129634941D01*
X125542510Y-129779931D01*
X125609941Y-129793586D01*
X125565253Y-129823446D01*
X125243346Y-130305215D01*
X125130307Y-130873500D01*
X125243346Y-131441785D01*
X125565253Y-131923554D01*
X125905953Y-132151202D01*
X125763042Y-132218317D01*
X125372755Y-132646576D01*
X125202924Y-133056610D01*
X125324245Y-133286500D01*
X126517400Y-133286500D01*
X126517400Y-133266500D01*
X126771400Y-133266500D01*
X126771400Y-133286500D01*
X127964555Y-133286500D01*
X128085876Y-133056610D01*
X127916045Y-132646576D01*
X127525758Y-132218317D01*
X127382847Y-132151202D01*
X127723547Y-131923554D01*
X128045454Y-131441785D01*
X128158493Y-130873500D01*
X128112776Y-130643663D01*
X129171931Y-130643663D01*
X129267569Y-130875125D01*
X129172270Y-131104630D01*
X129171931Y-131493663D01*
X129320493Y-131853212D01*
X129595341Y-132128540D01*
X129954630Y-132277730D01*
X130343663Y-132278069D01*
X130703212Y-132129507D01*
X130978540Y-131854659D01*
X131127730Y-131495370D01*
X131128069Y-131106337D01*
X131032431Y-130874875D01*
X131127730Y-130645370D01*
X131128069Y-130256337D01*
X131113373Y-130220771D01*
X131146886Y-130140063D01*
X134594431Y-130140063D01*
X134742993Y-130499612D01*
X134843590Y-130600385D01*
X134743960Y-130699841D01*
X134594770Y-131059130D01*
X134594431Y-131448163D01*
X134742993Y-131807712D01*
X135017841Y-132083040D01*
X135377130Y-132232230D01*
X135766163Y-132232569D01*
X136022371Y-132126706D01*
X136215330Y-132206830D01*
X136604363Y-132207169D01*
X136963912Y-132058607D01*
X137239240Y-131783759D01*
X137388430Y-131424470D01*
X137388769Y-131035437D01*
X137240207Y-130675888D01*
X137165010Y-130600560D01*
X137239240Y-130526459D01*
X137388430Y-130167170D01*
X137388769Y-129778137D01*
X137240207Y-129418588D01*
X136965359Y-129143260D01*
X136606070Y-128994070D01*
X136217037Y-128993731D01*
X136022150Y-129074256D01*
X135767870Y-128968670D01*
X135378837Y-128968331D01*
X135019288Y-129116893D01*
X134743960Y-129391741D01*
X134594770Y-129751030D01*
X134594431Y-130140063D01*
X131146886Y-130140063D01*
X131227730Y-129945370D01*
X131228069Y-129556337D01*
X131079507Y-129196788D01*
X130804659Y-128921460D01*
X130445370Y-128772270D01*
X130056337Y-128771931D01*
X129696788Y-128920493D01*
X129421460Y-129195341D01*
X129272270Y-129554630D01*
X129271931Y-129943663D01*
X129286627Y-129979229D01*
X129172270Y-130254630D01*
X129171931Y-130643663D01*
X128112776Y-130643663D01*
X128045454Y-130305215D01*
X127723547Y-129823446D01*
X127681948Y-129795650D01*
X127729717Y-129786662D01*
X127945841Y-129647590D01*
X128090831Y-129435390D01*
X128141840Y-129183500D01*
X128141840Y-127483500D01*
X128112392Y-127327000D01*
X128300000Y-127327000D01*
X128349410Y-127316994D01*
X128391035Y-127288553D01*
X128418315Y-127246159D01*
X128427000Y-127200000D01*
X128427000Y-126700000D01*
X128416994Y-126650590D01*
X128388553Y-126608965D01*
X128364774Y-126593663D01*
X135021931Y-126593663D01*
X135170493Y-126953212D01*
X135445341Y-127228540D01*
X135804630Y-127377730D01*
X136193663Y-127378069D01*
X136553212Y-127229507D01*
X136599840Y-127182960D01*
X136645341Y-127228540D01*
X137004630Y-127377730D01*
X137393663Y-127378069D01*
X137753212Y-127229507D01*
X138028540Y-126954659D01*
X138033105Y-126943663D01*
X138821931Y-126943663D01*
X138930645Y-127206773D01*
X138831600Y-127445300D01*
X138831261Y-127834333D01*
X138979823Y-128193882D01*
X139254671Y-128469210D01*
X139613960Y-128618400D01*
X140002993Y-128618739D01*
X140362542Y-128470177D01*
X140637870Y-128195329D01*
X140787060Y-127836040D01*
X140787399Y-127447007D01*
X140678685Y-127183897D01*
X140777730Y-126945370D01*
X140778069Y-126556337D01*
X140629507Y-126196788D01*
X140354659Y-125921460D01*
X139995370Y-125772270D01*
X139606337Y-125771931D01*
X139246788Y-125920493D01*
X138971460Y-126195341D01*
X138822270Y-126554630D01*
X138821931Y-126943663D01*
X138033105Y-126943663D01*
X138177730Y-126595370D01*
X138178069Y-126206337D01*
X138029507Y-125846788D01*
X137754659Y-125571460D01*
X137395370Y-125422270D01*
X137006337Y-125421931D01*
X136646788Y-125570493D01*
X136600160Y-125617040D01*
X136554659Y-125571460D01*
X136195370Y-125422270D01*
X135806337Y-125421931D01*
X135446788Y-125570493D01*
X135171460Y-125845341D01*
X135022270Y-126204630D01*
X135021931Y-126593663D01*
X128364774Y-126593663D01*
X128346159Y-126581685D01*
X128299941Y-126573000D01*
X114551318Y-126579390D01*
X114627730Y-126395370D01*
X114628069Y-126006337D01*
X114519535Y-125743663D01*
X124271931Y-125743663D01*
X124420493Y-126103212D01*
X124695341Y-126378540D01*
X125054630Y-126527730D01*
X125443663Y-126528069D01*
X125803212Y-126379507D01*
X126078540Y-126104659D01*
X126227730Y-125745370D01*
X126228069Y-125356337D01*
X126079507Y-124996788D01*
X126026475Y-124943663D01*
X126871931Y-124943663D01*
X127020493Y-125303212D01*
X127295341Y-125578540D01*
X127654630Y-125727730D01*
X128043663Y-125728069D01*
X128403212Y-125579507D01*
X128678540Y-125304659D01*
X128827730Y-124945370D01*
X128827862Y-124793663D01*
X132171931Y-124793663D01*
X132320493Y-125153212D01*
X132595341Y-125428540D01*
X132954630Y-125577730D01*
X133343663Y-125578069D01*
X133703212Y-125429507D01*
X133978540Y-125154659D01*
X134127730Y-124795370D01*
X134128069Y-124406337D01*
X133979507Y-124046788D01*
X133704659Y-123771460D01*
X133345370Y-123622270D01*
X132956337Y-123621931D01*
X132596788Y-123770493D01*
X132321460Y-124045341D01*
X132172270Y-124404630D01*
X132171931Y-124793663D01*
X128827862Y-124793663D01*
X128828069Y-124556337D01*
X128728318Y-124314921D01*
X128797812Y-124286207D01*
X129073140Y-124011359D01*
X129222330Y-123652070D01*
X129222669Y-123263037D01*
X129074107Y-122903488D01*
X128799259Y-122628160D01*
X128439970Y-122478970D01*
X128050937Y-122478631D01*
X127691388Y-122627193D01*
X127416060Y-122902041D01*
X127266870Y-123261330D01*
X127266531Y-123650363D01*
X127366282Y-123891779D01*
X127296788Y-123920493D01*
X127021460Y-124195341D01*
X126872270Y-124554630D01*
X126871931Y-124943663D01*
X126026475Y-124943663D01*
X125804659Y-124721460D01*
X125445370Y-124572270D01*
X125056337Y-124571931D01*
X124696788Y-124720493D01*
X124421460Y-124995341D01*
X124272270Y-125354630D01*
X124271931Y-125743663D01*
X114519535Y-125743663D01*
X114479507Y-125646788D01*
X114204659Y-125371460D01*
X113845370Y-125222270D01*
X113456337Y-125221931D01*
X113350184Y-125265792D01*
X113245370Y-125222270D01*
X112856337Y-125221931D01*
X112496788Y-125370493D01*
X112221460Y-125645341D01*
X112072270Y-126004630D01*
X112071931Y-126393663D01*
X112149133Y-126580507D01*
X111429800Y-126580841D01*
X111429800Y-125183900D01*
X111419794Y-125134490D01*
X111391353Y-125092865D01*
X111348959Y-125065585D01*
X111302800Y-125056900D01*
X100710000Y-125056900D01*
X100710000Y-121593663D01*
X107021931Y-121593663D01*
X107170493Y-121953212D01*
X107445341Y-122228540D01*
X107804630Y-122377730D01*
X108193663Y-122378069D01*
X108413834Y-122287096D01*
X108420493Y-122303212D01*
X108695341Y-122578540D01*
X109054630Y-122727730D01*
X109443663Y-122728069D01*
X109803212Y-122579507D01*
X110078540Y-122304659D01*
X110227730Y-121945370D01*
X110228036Y-121593663D01*
X122871931Y-121593663D01*
X123020493Y-121953212D01*
X123295341Y-122228540D01*
X123654630Y-122377730D01*
X124043663Y-122378069D01*
X124403212Y-122229507D01*
X124678540Y-121954659D01*
X124827730Y-121595370D01*
X124828069Y-121206337D01*
X124679507Y-120846788D01*
X124404659Y-120571460D01*
X124045370Y-120422270D01*
X123656337Y-120421931D01*
X123296788Y-120570493D01*
X123021460Y-120845341D01*
X122872270Y-121204630D01*
X122871931Y-121593663D01*
X110228036Y-121593663D01*
X110228069Y-121556337D01*
X110147014Y-121360168D01*
X110277730Y-121045370D01*
X110278069Y-120656337D01*
X110129507Y-120296788D01*
X109889402Y-120056263D01*
X127520531Y-120056263D01*
X127669093Y-120415812D01*
X127943941Y-120691140D01*
X127970349Y-120702105D01*
X128088193Y-120987312D01*
X128363041Y-121262640D01*
X128722330Y-121411830D01*
X129111363Y-121412169D01*
X129470912Y-121263607D01*
X129746240Y-120988759D01*
X129895430Y-120629470D01*
X129895769Y-120240437D01*
X129747207Y-119880888D01*
X129472359Y-119605560D01*
X129445951Y-119594595D01*
X129328107Y-119309388D01*
X129053259Y-119034060D01*
X128693970Y-118884870D01*
X128304937Y-118884531D01*
X127945388Y-119033093D01*
X127670060Y-119307941D01*
X127520870Y-119667230D01*
X127520531Y-120056263D01*
X109889402Y-120056263D01*
X109854659Y-120021460D01*
X109495370Y-119872270D01*
X109106337Y-119871931D01*
X108746788Y-120020493D01*
X108471460Y-120295341D01*
X108385903Y-120501386D01*
X108195370Y-120422270D01*
X107806337Y-120421931D01*
X107446788Y-120570493D01*
X107171460Y-120845341D01*
X107022270Y-121204630D01*
X107021931Y-121593663D01*
X100710000Y-121593663D01*
X100710000Y-118943663D01*
X122171931Y-118943663D01*
X122320493Y-119303212D01*
X122595341Y-119578540D01*
X122954630Y-119727730D01*
X123343663Y-119728069D01*
X123499940Y-119663497D01*
X123654630Y-119727730D01*
X124043663Y-119728069D01*
X124403212Y-119579507D01*
X124678540Y-119304659D01*
X124827730Y-118945370D01*
X124828069Y-118556337D01*
X124679507Y-118196788D01*
X124404659Y-117921460D01*
X124101707Y-117795663D01*
X129089129Y-117795663D01*
X129237691Y-118155212D01*
X129512539Y-118430540D01*
X129871828Y-118579730D01*
X130260861Y-118580069D01*
X130620410Y-118431507D01*
X130895738Y-118156659D01*
X131044928Y-117797370D01*
X131045267Y-117408337D01*
X130896705Y-117048788D01*
X130621857Y-116773460D01*
X130262568Y-116624270D01*
X129873535Y-116623931D01*
X129513986Y-116772493D01*
X129238658Y-117047341D01*
X129089468Y-117406630D01*
X129089129Y-117795663D01*
X124101707Y-117795663D01*
X124045370Y-117772270D01*
X123656337Y-117771931D01*
X123500060Y-117836503D01*
X123345370Y-117772270D01*
X122956337Y-117771931D01*
X122596788Y-117920493D01*
X122321460Y-118195341D01*
X122172270Y-118554630D01*
X122171931Y-118943663D01*
X100710000Y-118943663D01*
X100710000Y-114850051D01*
X129811727Y-114850051D01*
X129960289Y-115209600D01*
X130235137Y-115484928D01*
X130594426Y-115634118D01*
X130983459Y-115634457D01*
X131343008Y-115485895D01*
X131618336Y-115211047D01*
X131767526Y-114851758D01*
X131767850Y-114479410D01*
X132004630Y-114577730D01*
X132393663Y-114578069D01*
X132677833Y-114460653D01*
X132895341Y-114678540D01*
X133254630Y-114827730D01*
X133346621Y-114827810D01*
X133448742Y-115074963D01*
X133723590Y-115350291D01*
X134082879Y-115499481D01*
X134471912Y-115499820D01*
X134831461Y-115351258D01*
X135106789Y-115076410D01*
X135255979Y-114717121D01*
X135256318Y-114328088D01*
X135107756Y-113968539D01*
X134832908Y-113693211D01*
X134473619Y-113544021D01*
X134427731Y-113543981D01*
X134428063Y-113163079D01*
X134669329Y-113063390D01*
X134944657Y-112788542D01*
X135093847Y-112429253D01*
X135094186Y-112040220D01*
X134945624Y-111680671D01*
X134670776Y-111405343D01*
X134311487Y-111256153D01*
X133922454Y-111255814D01*
X133562905Y-111404376D01*
X133287577Y-111679224D01*
X133138387Y-112038513D01*
X133138054Y-112420804D01*
X132896788Y-112520493D01*
X132677484Y-112739414D01*
X132395370Y-112622270D01*
X132006337Y-112621931D01*
X131646788Y-112770493D01*
X131371460Y-113045341D01*
X131222270Y-113404630D01*
X131221946Y-113776978D01*
X130985166Y-113678658D01*
X130596133Y-113678319D01*
X130236584Y-113826881D01*
X129961256Y-114101729D01*
X129812066Y-114461018D01*
X129811727Y-114850051D01*
X100710000Y-114850051D01*
X100710000Y-112556890D01*
X104808524Y-112556890D01*
X104978355Y-112966924D01*
X105368642Y-113395183D01*
X105893108Y-113641486D01*
X106123000Y-113520819D01*
X106123000Y-112327000D01*
X106377000Y-112327000D01*
X106377000Y-113520819D01*
X106606892Y-113641486D01*
X106921659Y-113493663D01*
X120121931Y-113493663D01*
X120270493Y-113853212D01*
X120545341Y-114128540D01*
X120904630Y-114277730D01*
X121293663Y-114278069D01*
X121653212Y-114129507D01*
X121928540Y-113854659D01*
X122077730Y-113495370D01*
X122078069Y-113106337D01*
X121929507Y-112746788D01*
X121654659Y-112471460D01*
X121295370Y-112322270D01*
X120906337Y-112321931D01*
X120546788Y-112470493D01*
X120271460Y-112745341D01*
X120122270Y-113104630D01*
X120121931Y-113493663D01*
X106921659Y-113493663D01*
X107131358Y-113395183D01*
X107521645Y-112966924D01*
X107676245Y-112593663D01*
X116271931Y-112593663D01*
X116420493Y-112953212D01*
X116695341Y-113228540D01*
X117054630Y-113377730D01*
X117443663Y-113378069D01*
X117564646Y-113328080D01*
X117804630Y-113427730D01*
X118193663Y-113428069D01*
X118553212Y-113279507D01*
X118828540Y-113004659D01*
X118977730Y-112645370D01*
X118978069Y-112256337D01*
X118829507Y-111896788D01*
X118554659Y-111621460D01*
X118195370Y-111472270D01*
X117806337Y-111471931D01*
X117685354Y-111521920D01*
X117445370Y-111422270D01*
X117056337Y-111421931D01*
X116696788Y-111570493D01*
X116421460Y-111845341D01*
X116272270Y-112204630D01*
X116271931Y-112593663D01*
X107676245Y-112593663D01*
X107691476Y-112556890D01*
X107570155Y-112327000D01*
X106377000Y-112327000D01*
X106123000Y-112327000D01*
X104929845Y-112327000D01*
X104808524Y-112556890D01*
X100710000Y-112556890D01*
X100710000Y-107120000D01*
X104735907Y-107120000D01*
X104848946Y-107688285D01*
X105170853Y-108170054D01*
X105500026Y-108390000D01*
X105170853Y-108609946D01*
X104848946Y-109091715D01*
X104735907Y-109660000D01*
X104848946Y-110228285D01*
X105170853Y-110710054D01*
X105511553Y-110937702D01*
X105368642Y-111004817D01*
X104978355Y-111433076D01*
X104808524Y-111843110D01*
X104929845Y-112073000D01*
X106123000Y-112073000D01*
X106123000Y-112053000D01*
X106377000Y-112053000D01*
X106377000Y-112073000D01*
X107570155Y-112073000D01*
X107691476Y-111843110D01*
X107521645Y-111433076D01*
X107131358Y-111004817D01*
X106988447Y-110937702D01*
X107329147Y-110710054D01*
X107538396Y-110396890D01*
X126608524Y-110396890D01*
X126778355Y-110806924D01*
X127168642Y-111235183D01*
X127693108Y-111481486D01*
X127923000Y-111360819D01*
X127923000Y-110167000D01*
X128177000Y-110167000D01*
X128177000Y-111360819D01*
X128406892Y-111481486D01*
X128931358Y-111235183D01*
X129321645Y-110806924D01*
X129491476Y-110396890D01*
X129370155Y-110167000D01*
X128177000Y-110167000D01*
X127923000Y-110167000D01*
X126729845Y-110167000D01*
X126608524Y-110396890D01*
X107538396Y-110396890D01*
X107651054Y-110228285D01*
X107764093Y-109660000D01*
X107651054Y-109091715D01*
X107329147Y-108609946D01*
X106999974Y-108390000D01*
X107329147Y-108170054D01*
X107651054Y-107688285D01*
X107764093Y-107120000D01*
X107651054Y-106551715D01*
X107411812Y-106193663D01*
X111671931Y-106193663D01*
X111820493Y-106553212D01*
X112095341Y-106828540D01*
X112454630Y-106977730D01*
X112733339Y-106977973D01*
X112722270Y-107004630D01*
X112721931Y-107393663D01*
X112870493Y-107753212D01*
X113145341Y-108028540D01*
X113504630Y-108177730D01*
X113893663Y-108178069D01*
X114024878Y-108123852D01*
X114154630Y-108177730D01*
X114543663Y-108178069D01*
X114903212Y-108029507D01*
X115178540Y-107754659D01*
X115327505Y-107395910D01*
X116589840Y-107395910D01*
X116738402Y-107755459D01*
X117013250Y-108030787D01*
X117372539Y-108179977D01*
X117761572Y-108180316D01*
X118001563Y-108081154D01*
X118004630Y-108082428D01*
X118393663Y-108082767D01*
X118753212Y-107934205D01*
X119028540Y-107659357D01*
X119094710Y-107500000D01*
X126535907Y-107500000D01*
X126648946Y-108068285D01*
X126970853Y-108550054D01*
X127311553Y-108777702D01*
X127168642Y-108844817D01*
X126778355Y-109273076D01*
X126608524Y-109683110D01*
X126729845Y-109913000D01*
X127923000Y-109913000D01*
X127923000Y-109893000D01*
X128177000Y-109893000D01*
X128177000Y-109913000D01*
X129370155Y-109913000D01*
X129491476Y-109683110D01*
X129321645Y-109273076D01*
X128931358Y-108844817D01*
X128788447Y-108777702D01*
X129129147Y-108550054D01*
X129451054Y-108068285D01*
X129564093Y-107500000D01*
X129451054Y-106931715D01*
X129129147Y-106449946D01*
X129087548Y-106422150D01*
X129135317Y-106413162D01*
X129351441Y-106274090D01*
X129496431Y-106061890D01*
X129547440Y-105810000D01*
X129547440Y-104110000D01*
X129503162Y-103874683D01*
X129364090Y-103658559D01*
X129151890Y-103513569D01*
X128900000Y-103462560D01*
X127200000Y-103462560D01*
X126964683Y-103506838D01*
X126748559Y-103645910D01*
X126603569Y-103858110D01*
X126552560Y-104110000D01*
X126552560Y-105810000D01*
X126596838Y-106045317D01*
X126735910Y-106261441D01*
X126948110Y-106406431D01*
X127015541Y-106420086D01*
X126970853Y-106449946D01*
X126648946Y-106931715D01*
X126535907Y-107500000D01*
X119094710Y-107500000D01*
X119177730Y-107300068D01*
X119178011Y-106977794D01*
X119493663Y-106978069D01*
X119853212Y-106829507D01*
X120128540Y-106554659D01*
X120277730Y-106195370D01*
X120278069Y-105806337D01*
X120129507Y-105446788D01*
X119854659Y-105171460D01*
X119495370Y-105022270D01*
X119106337Y-105021931D01*
X118746788Y-105170493D01*
X118471460Y-105445341D01*
X118414723Y-105581978D01*
X118154659Y-105321460D01*
X117795370Y-105172270D01*
X117406337Y-105171931D01*
X117046788Y-105320493D01*
X116771460Y-105595341D01*
X116622270Y-105954630D01*
X116621931Y-106343663D01*
X116745132Y-106641835D01*
X116739369Y-106647588D01*
X116590179Y-107006877D01*
X116589840Y-107395910D01*
X115327505Y-107395910D01*
X115327730Y-107395370D01*
X115328069Y-107006337D01*
X115191010Y-106674628D01*
X115327730Y-106345370D01*
X115328069Y-105956337D01*
X115179507Y-105596788D01*
X114904659Y-105321460D01*
X114545370Y-105172270D01*
X114156337Y-105171931D01*
X113796788Y-105320493D01*
X113535214Y-105581611D01*
X113479507Y-105446788D01*
X113204659Y-105171460D01*
X112845370Y-105022270D01*
X112456337Y-105021931D01*
X112096788Y-105170493D01*
X111821460Y-105445341D01*
X111672270Y-105804630D01*
X111671931Y-106193663D01*
X107411812Y-106193663D01*
X107329147Y-106069946D01*
X107287548Y-106042150D01*
X107335317Y-106033162D01*
X107551441Y-105894090D01*
X107696431Y-105681890D01*
X107747440Y-105430000D01*
X107747440Y-103730000D01*
X107703162Y-103494683D01*
X107564090Y-103278559D01*
X107351890Y-103133569D01*
X107100000Y-103082560D01*
X105400000Y-103082560D01*
X105164683Y-103126838D01*
X104948559Y-103265910D01*
X104803569Y-103478110D01*
X104752560Y-103730000D01*
X104752560Y-105430000D01*
X104796838Y-105665317D01*
X104935910Y-105881441D01*
X105148110Y-106026431D01*
X105215541Y-106040086D01*
X105170853Y-106069946D01*
X104848946Y-106551715D01*
X104735907Y-107120000D01*
X100710000Y-107120000D01*
X100710000Y-100710000D01*
X151290000Y-100710000D01*
X151290000Y-167290000D01*
M02*
