M48
;DRILL file {KiCad 4.0.7} date Sun Apr 15 17:53:07 2018
;FORMAT={-:-/ absolute / inch / decimal}
FMAT,2
INCH,TZ
T1C0.013
T2C0.031
T3C0.039
%
G90
G05
M72
T1
X4.0217Y-6.2067
X4.0236Y-6.0945
X4.0236Y-6.1299
X4.0236Y-6.1654
X4.0252Y-5.4685
X4.0531Y-5.6732
X4.0591Y-4.9705
X4.0807Y-5.9567
X4.1043Y-4.7638
X4.1043Y-4.7992
X4.1043Y-4.9705
X4.1535Y-4.7165
X4.1535Y-4.7795
X4.1693Y-4.8465
X4.1735Y-5.4525
X4.179Y-5.396
X4.2172Y-5.4521
X4.2303Y-6.1122
X4.2323Y-6.1713
X4.2323Y-6.2047
X4.2343Y-6.1398
X4.252Y-4.7795
X4.2602Y-4.9705
X4.3012Y-4.7933
X4.3031Y-4.7579
X4.3265Y-5.2717
X4.3346Y-4.6004
X4.3346Y-5.0079
X4.3386Y-5.0394
X4.3602Y-4.3386
X4.3602Y-5.6929
X4.3873Y-5.4765
X4.4193Y-5.4685
X4.4277Y-5.677
X4.435Y-4.0748
X4.435Y-4.1732
X4.4508Y-4.9685
X4.4528Y-5.311
X4.4626Y-5.2283
X4.4744Y-4.9685
X4.4764Y-4.2205
X4.4803Y-4.0551
X4.4961Y-5.689
X4.502Y-4.1043
X4.502Y-4.1791
X4.502Y-4.2205
X4.5061Y-4.056
X4.5079Y-5.2402
X4.5098Y-5.2677
X4.5295Y-4.4291
X4.5354Y-5.2382
X4.5374Y-5.2657
X4.5512Y-5.315
X4.5571Y-4.4272
X4.5669Y-4.5925
X4.6161Y-4.4252
X4.6243Y-4.0608
X4.6287Y-4.2206
X4.6299Y-4.1043
X4.6299Y-4.1791
X4.6437Y-5.2465
X4.6437Y-5.2933
X4.6457Y-4.4272
X4.6476Y-4.6516
X4.6516Y-4.0591
X4.6535Y-4.2167
X4.6594Y-4.624
X4.6634Y-5.2717
X4.6713Y-5.6181
X4.6713Y-5.6594
X4.6752Y-4.6516
X4.6791Y-4.2736
X4.681Y-4.2491
X4.685Y-4.4114
X4.6969Y-4.0748
X4.6969Y-4.1732
X4.7008Y-4.4783
X4.7028Y-5.689
X4.7087Y-5.624
X4.7185Y-4.7638
X4.7303Y-4.7323
X4.7421Y-5.7559
X4.7441Y-5.6929
X4.752Y-5.624
X4.7677Y-4.4606
X4.7972Y-4.9606
X4.8228Y-5.6004
X4.8248Y-4.9614
X4.8268Y-5.624
X4.8445Y-4.4606
X4.8484Y-4.6752
X4.8504Y-4.3406
X4.8543Y-5.311
X4.876Y-4.6752
X4.876Y-4.7795
X4.8858Y-5.313
X4.9094Y-4.7067
X4.9094Y-4.7461
X4.9101Y-4.7742
X4.9154Y-5.3169
X4.9193Y-4.6752
X4.9311Y-4.9429
X4.9467Y-5.3701
X5.0335Y-4.9114
X5.049Y-4.8605
X5.059Y-4.719
X5.063Y-5.5
X5.0669Y-5.3858
X5.0669Y-5.4173
X5.0687Y-5.3561
X5.0701Y-5.2542
X5.0755Y-4.7415
X5.0807Y-4.4882
X5.1004Y-4.4035
X5.1024Y-5.4803
X5.1063Y-4.4528
X5.1071Y-5.3177
X5.1102Y-4.9744
X5.1102Y-5.5197
X5.1181Y-5.3917
X5.1181Y-5.4193
X5.1208Y-4.63
X5.124Y-5.1358
X5.124Y-5.1693
X5.128Y-5.1083
X5.1358Y-5.2854
X5.1476Y-5.9941
X5.1476Y-6.1791
X5.1483Y-4.3918
X5.1492Y-4.514
X5.1496Y-5.7835
X5.1535Y-5.6614
X5.1615Y-4.759
X5.1772Y-4.6988
X5.1791Y-4.6024
X5.1791Y-4.6358
X5.1791Y-5.4094
X5.182Y-4.7805
X5.1945Y-6.1437
X5.1945Y-6.2185
X5.1949Y-5.7953
X5.1969Y-6.3661
X5.2047Y-4.4724
X5.2087Y-6.2835
X5.2101Y-4.7068
X5.2106Y-4.6358
X5.2106Y-5.2579
X5.2106Y-5.2854
X5.2126Y-4.6024
X5.2303Y-5.4724
X5.2421Y-4.9055
X5.2465Y-5.1655
X5.2485Y-5.116
X5.2489Y-4.6773
X5.2539Y-4.4626
X5.2539Y-4.4823
X5.2681Y-4.5654
X5.2697Y-4.6575
X5.2697Y-5.4764
X5.2717Y-4.5827
X5.2717Y-5.0531
X5.2795Y-5.116
X5.2795Y-5.1665
X5.2802Y-4.4187
X5.2835Y-5.2854
X5.2865Y-4.5087
X5.3051Y-5.8406
X5.3051Y-5.9941
X5.3071Y-5.4764
X5.3366Y-4.5059
X5.3375Y-5.116
X5.3375Y-5.1675
X5.3394Y-4.4558
X5.3498Y-4.3491
X5.3543Y-4.9764
X5.3602Y-4.4075
X5.3701Y-5.2854
X5.3705Y-5.117
X5.3705Y-5.1665
X5.4016Y-4.9764
X5.4114Y-5.2618
X5.4134Y-5.2913
X5.4587Y-5.498
X5.4587Y-5.5236
X5.4638Y-6.4685
X5.4646Y-6.4331
X5.4646Y-6.5118
X5.4646Y-6.5512
X5.4851Y-5.2992
X5.4851Y-5.3268
X5.4902Y-6.063
X5.4902Y-6.0906
X5.493Y-5.0591
X5.493Y-5.0886
X5.4941Y-5.8248
X5.4961Y-5.7992
X5.4961Y-6.1791
X5.5Y-4.0039
X5.5Y-4.0827
X5.5Y-4.1181
X5.5Y-6.1496
X5.5012Y-4.0433
X5.5039Y-4.9902
X5.5043Y-5.0252
X5.5256Y-5.8091
X5.5315Y-4.878
X5.5374Y-6.1634
X5.5453Y-4.8996
X5.5455Y-4.8563
X5.5551Y-5.9823
X5.5571Y-5.7244
X5.5689Y-5.1319
X5.5807Y-5.9823
X5.5846Y-5.7244
X5.5925Y-5.2559
X5.5984Y-5.1299
X5.6083Y-5.5354
X5.6083Y-6.1634
X5.6102Y-5.5098
X5.6142Y-6.0059
X5.6161Y-5.7461
X5.6181Y-5.2579
X5.642Y-6.024
X5.6437Y-4.813
X5.6457Y-6.1437
X5.6476Y-6.1772
X5.6555Y-5.2598
X5.6772Y-4.813
X5.6811Y-6.4331
X5.6811Y-6.4724
X5.6811Y-6.5512
X5.6819Y-6.5118
X5.685Y-5.0906
X5.685Y-5.3012
X5.685Y-5.3287
X5.687Y-5.061
X5.6947Y-4.8583
X5.6949Y-4.9075
X5.702Y-5.7175
X5.7067Y-4.8819
X5.7106Y-5.9213
X5.7126Y-4.6339
X5.7146Y-5.4291
X5.7205Y-4.0039
X5.7205Y-4.0433
X5.7205Y-4.0827
X5.7205Y-4.1181
X5.7224Y-5.3681
X5.7244Y-5.3937
X5.727Y-5.7155
X5.733Y-5.9245
X5.7402Y-4.624
X5.7402Y-4.6516
X5.7579Y-5.4134
X5.7579Y-5.439
X5.7604Y-5.6959
X5.7874Y-5.752
X5.7913Y-5.6929
X5.8169Y-5.9803
X5.8169Y-6.0079
X5.8248Y-5.7421
X5.8268Y-5.7677
X5.8327Y-5.3209
X5.8529Y-5.6639
X5.8878Y-5.7185
X5.9075Y-5.6988
T2
X4.2894Y-6.3051
X4.2894Y-6.3839
T3
X4.0827Y-6.2937
X4.0827Y-6.3937
X4.1831Y-4.1173
X4.1831Y-4.2173
X4.1831Y-4.3173
X4.1831Y-4.4173
X4.3327Y-6.0417
X4.3327Y-6.1417
X4.6476Y-5.9803
X4.7461Y-5.9803
X4.8445Y-5.9803
X4.986Y-5.0525
X4.986Y-5.1525
X4.986Y-5.2525
X5.0413Y-4.1323
X5.0413Y-4.2323
X5.0413Y-4.3323
X5.0785Y-5.9335
X5.0785Y-6.0335
X5.0785Y-6.1335
T0
M30
