%FSLAX45Y45*%
G04 Gerber Fmt 4.5, Leading zero omitted, Abs format (unit mm)*
G04 Created by KiCad (PCBNEW 4.0.7) date Sat Apr 21 08:35:38 2018*
%MOMM*%
%LPD*%
G01*
G04 APERTURE LIST*
%ADD10C,0.127000*%
%ADD11C,0.150000*%
%ADD12C,0.200000*%
%ADD13C,0.300000*%
G04 APERTURE END LIST*
D10*
D11*
X10000000Y-16800000D02*
X10000000Y-10000000D01*
X15200000Y-16800000D02*
X10000000Y-16800000D01*
X15200000Y-10000000D02*
X15200000Y-16800000D01*
X10000000Y-10000000D02*
X15200000Y-10000000D01*
D12*
X10143490Y-10548490D02*
X10176510Y-10581510D01*
X10176510Y-10548490D02*
X10143490Y-10581510D01*
X10143490Y-11278490D02*
X10176510Y-11311510D01*
X10176510Y-11278490D02*
X10143490Y-11311510D01*
X10198490Y-15748490D02*
X10231510Y-15781510D01*
X10231510Y-15748490D02*
X10198490Y-15781510D01*
X10203490Y-15463490D02*
X10236510Y-15496510D01*
X10236510Y-15463490D02*
X10203490Y-15496510D01*
X10203490Y-15553490D02*
X10236510Y-15586510D01*
X10236510Y-15553490D02*
X10203490Y-15586510D01*
X10203490Y-15643490D02*
X10236510Y-15676510D01*
X10236510Y-15643490D02*
X10203490Y-15676510D01*
X10213490Y-11503490D02*
X10246510Y-11536510D01*
X10246510Y-11503490D02*
X10213490Y-11536510D01*
X10278490Y-14393490D02*
X10311510Y-14426510D01*
X10311510Y-14393490D02*
X10278490Y-14426510D01*
X10293490Y-12608490D02*
X10326510Y-12641510D01*
X10326510Y-12608490D02*
X10293490Y-12641510D01*
X10308490Y-10113490D02*
X10341510Y-10146510D01*
X10341510Y-10113490D02*
X10308490Y-10146510D01*
X10348490Y-15113490D02*
X10381510Y-15146510D01*
X10381510Y-15113490D02*
X10348490Y-15146510D01*
X10353490Y-10868490D02*
X10386510Y-10901510D01*
X10386510Y-10868490D02*
X10353490Y-10901510D01*
X10408490Y-12083490D02*
X10441510Y-12116510D01*
X10441510Y-12083490D02*
X10408490Y-12116510D01*
X10408490Y-12173490D02*
X10441510Y-12206510D01*
X10441510Y-12173490D02*
X10408490Y-12206510D01*
X10408490Y-12608490D02*
X10441510Y-12641510D01*
X10441510Y-12608490D02*
X10408490Y-12641510D01*
X10464800Y-13876020D02*
X10497820Y-13909040D01*
X10497820Y-13876020D02*
X10464800Y-13909040D01*
X10533490Y-11963490D02*
X10566510Y-11996510D01*
X10566510Y-11963490D02*
X10533490Y-11996510D01*
X10533490Y-12123490D02*
X10566510Y-12156510D01*
X10566510Y-12123490D02*
X10533490Y-12156510D01*
X10550002Y-13807439D02*
X10583022Y-13840459D01*
X10583022Y-13807439D02*
X10550002Y-13840459D01*
X10573490Y-12293490D02*
X10606510Y-12326510D01*
X10606510Y-12293490D02*
X10573490Y-12326510D01*
X10586612Y-13670377D02*
X10619632Y-13703397D01*
X10619632Y-13670377D02*
X10586612Y-13703397D01*
X10608490Y-11578490D02*
X10641510Y-11611510D01*
X10641510Y-11578490D02*
X10608490Y-11611510D01*
X10703413Y-13861395D02*
X10736433Y-13894415D01*
X10736433Y-13861395D02*
X10703413Y-13894415D01*
X10728490Y-15508490D02*
X10761510Y-15541510D01*
X10761510Y-15508490D02*
X10728490Y-15541510D01*
X10733490Y-15658490D02*
X10766510Y-15691510D01*
X10766510Y-15658490D02*
X10733490Y-15691510D01*
X10733490Y-15743490D02*
X10766510Y-15776510D01*
X10766510Y-15743490D02*
X10733490Y-15776510D01*
X10738490Y-15578490D02*
X10771510Y-15611510D01*
X10771510Y-15578490D02*
X10738490Y-15611510D01*
X10783490Y-12123490D02*
X10816510Y-12156510D01*
X10816510Y-12123490D02*
X10783490Y-12156510D01*
X10804490Y-12608490D02*
X10837510Y-12641510D01*
X10837510Y-12608490D02*
X10804490Y-12641510D01*
X10908490Y-11398490D02*
X10941510Y-11431510D01*
X10941510Y-11398490D02*
X10908490Y-11431510D01*
X10908490Y-12158490D02*
X10941510Y-12191510D01*
X10941510Y-12158490D02*
X10908490Y-12191510D01*
X10913490Y-12068490D02*
X10946510Y-12101510D01*
X10946510Y-12068490D02*
X10913490Y-12101510D01*
X10972799Y-13373490D02*
X11005819Y-13406510D01*
X11005819Y-13373490D02*
X10972799Y-13406510D01*
X10993490Y-11668490D02*
X11026510Y-11701510D01*
X11026510Y-11668490D02*
X10993490Y-11701510D01*
X10993490Y-12703490D02*
X11026510Y-12736510D01*
X11026510Y-12703490D02*
X10993490Y-12736510D01*
X11003490Y-12783490D02*
X11036510Y-12816510D01*
X11036510Y-12783490D02*
X11003490Y-12816510D01*
X11058490Y-11003490D02*
X11091510Y-11036510D01*
X11091510Y-11003490D02*
X11058490Y-11036510D01*
X11058490Y-14443490D02*
X11091510Y-14476510D01*
X11091510Y-14443490D02*
X11058490Y-14476510D01*
X11208490Y-13873490D02*
X11241510Y-13906510D01*
X11241510Y-13873490D02*
X11208490Y-13906510D01*
X11229909Y-14402954D02*
X11262929Y-14435974D01*
X11262929Y-14402954D02*
X11229909Y-14435974D01*
X11248490Y-10333490D02*
X11281510Y-10366510D01*
X11281510Y-10333490D02*
X11248490Y-10366510D01*
X11248490Y-10583490D02*
X11281510Y-10616510D01*
X11281510Y-10583490D02*
X11248490Y-10616510D01*
X11288490Y-12603490D02*
X11321510Y-12636510D01*
X11321510Y-12603490D02*
X11288490Y-12636510D01*
X11293490Y-13473490D02*
X11326510Y-13506510D01*
X11326510Y-13473490D02*
X11293490Y-13506510D01*
X11313490Y-13123490D02*
X11346510Y-13156510D01*
X11346510Y-13123490D02*
X11313490Y-13156510D01*
X11348490Y-12603490D02*
X11381510Y-12636510D01*
X11381510Y-12603490D02*
X11348490Y-12636510D01*
X11353490Y-10703490D02*
X11386510Y-10736510D01*
X11386510Y-10703490D02*
X11353490Y-10736510D01*
X11363490Y-10283490D02*
X11396510Y-10316510D01*
X11396510Y-10283490D02*
X11363490Y-10316510D01*
X11403490Y-14433490D02*
X11436510Y-14466510D01*
X11436510Y-14433490D02*
X11403490Y-14466510D01*
X11418490Y-10408490D02*
X11451510Y-10441510D01*
X11451510Y-10408490D02*
X11418490Y-10441510D01*
X11418490Y-10598490D02*
X11451510Y-10631510D01*
X11451510Y-10598490D02*
X11418490Y-10631510D01*
X11418490Y-10703490D02*
X11451510Y-10736510D01*
X11451510Y-10703490D02*
X11418490Y-10736510D01*
X11423490Y-10978490D02*
X11456510Y-11011510D01*
X11456510Y-10978490D02*
X11423490Y-11011510D01*
X11429082Y-10285626D02*
X11462102Y-10318646D01*
X11462102Y-10285626D02*
X11429082Y-10318646D01*
X11433490Y-13293490D02*
X11466510Y-13326510D01*
X11466510Y-13293490D02*
X11433490Y-13326510D01*
X11438490Y-13363490D02*
X11471510Y-13396510D01*
X11471510Y-13363490D02*
X11438490Y-13396510D01*
X11443490Y-11773490D02*
X11476510Y-11806510D01*
X11476510Y-11773490D02*
X11443490Y-11806510D01*
X11488490Y-11233490D02*
X11521510Y-11266510D01*
X11521510Y-11233490D02*
X11488490Y-11266510D01*
X11503490Y-13288490D02*
X11536510Y-13321510D01*
X11536510Y-13288490D02*
X11503490Y-13321510D01*
X11508490Y-13358490D02*
X11541510Y-13391510D01*
X11541510Y-13358490D02*
X11508490Y-13391510D01*
X11523490Y-12173490D02*
X11556510Y-12206510D01*
X11556510Y-12173490D02*
X11523490Y-12206510D01*
X11543490Y-13483490D02*
X11576510Y-13516510D01*
X11576510Y-13483490D02*
X11543490Y-13516510D01*
X11558490Y-11228490D02*
X11591510Y-11261510D01*
X11591510Y-11228490D02*
X11558490Y-11261510D01*
X11583490Y-11648490D02*
X11616510Y-11681510D01*
X11616510Y-11648490D02*
X11583490Y-11681510D01*
X11643490Y-11863490D02*
X11676510Y-11896510D01*
X11676510Y-11863490D02*
X11643490Y-11896510D01*
X11658490Y-10973261D02*
X11691510Y-11006281D01*
X11691510Y-10973261D02*
X11658490Y-11006281D01*
X11698490Y-10093490D02*
X11731510Y-10126510D01*
X11731510Y-10093490D02*
X11698490Y-10126510D01*
X11708490Y-11223490D02*
X11741510Y-11256510D01*
X11741510Y-11223490D02*
X11708490Y-11256510D01*
X11729262Y-10297956D02*
X11762282Y-10330976D01*
X11762282Y-10297956D02*
X11729262Y-10330976D01*
X11740281Y-10703715D02*
X11773301Y-10736735D01*
X11773301Y-10703715D02*
X11740281Y-10736735D01*
X11743490Y-10408490D02*
X11776510Y-10441510D01*
X11776510Y-10408490D02*
X11743490Y-10441510D01*
X11743490Y-10598490D02*
X11776510Y-10631510D01*
X11776510Y-10598490D02*
X11743490Y-10631510D01*
X11778490Y-13309690D02*
X11811510Y-13342710D01*
X11811510Y-13309690D02*
X11778490Y-13342710D01*
X11778490Y-13428490D02*
X11811510Y-13461510D01*
X11811510Y-13428490D02*
X11778490Y-13461510D01*
X11783490Y-11228490D02*
X11816510Y-11261510D01*
X11816510Y-11228490D02*
X11783490Y-11261510D01*
X11788490Y-11798490D02*
X11821510Y-11831510D01*
X11821510Y-11798490D02*
X11788490Y-11831510D01*
X11798490Y-10293490D02*
X11831510Y-10326510D01*
X11831510Y-10293490D02*
X11798490Y-10326510D01*
X11803490Y-10693960D02*
X11836510Y-10726980D01*
X11836510Y-10693960D02*
X11803490Y-10726980D01*
X11818490Y-11728490D02*
X11851510Y-11761510D01*
X11851510Y-11728490D02*
X11818490Y-11761510D01*
X11828490Y-13373490D02*
X11861510Y-13406510D01*
X11861510Y-13373490D02*
X11828490Y-13406510D01*
X11848490Y-14253490D02*
X11881510Y-14286510D01*
X11881510Y-14253490D02*
X11848490Y-14286510D01*
X11848490Y-14358490D02*
X11881510Y-14391510D01*
X11881510Y-14358490D02*
X11848490Y-14391510D01*
X11858490Y-11798490D02*
X11891510Y-11831510D01*
X11891510Y-11798490D02*
X11858490Y-11831510D01*
X11868490Y-10838490D02*
X11901510Y-10871510D01*
X11901510Y-10838490D02*
X11868490Y-10871510D01*
X11873162Y-10776244D02*
X11906182Y-10809264D01*
X11906182Y-10776244D02*
X11873162Y-10809264D01*
X11883490Y-11188490D02*
X11916510Y-11221510D01*
X11916510Y-11188490D02*
X11883490Y-11221510D01*
X11913490Y-10333490D02*
X11946510Y-10366510D01*
X11946510Y-10333490D02*
X11913490Y-10366510D01*
X11913490Y-10583490D02*
X11946510Y-10616510D01*
X11946510Y-10583490D02*
X11913490Y-10616510D01*
X11923490Y-11358490D02*
X11956510Y-11391510D01*
X11956510Y-11358490D02*
X11923490Y-11391510D01*
X11928490Y-14433490D02*
X11961510Y-14466510D01*
X11961510Y-14433490D02*
X11928490Y-14466510D01*
X11943490Y-10973490D02*
X11976510Y-11006510D01*
X11976510Y-10973490D02*
X11943490Y-11006510D01*
X11943490Y-14268490D02*
X11976510Y-14301510D01*
X11976510Y-14268490D02*
X11943490Y-14301510D01*
X11968490Y-12083490D02*
X12001510Y-12116510D01*
X12001510Y-12083490D02*
X11968490Y-12116510D01*
X11998490Y-12003490D02*
X12031510Y-12036510D01*
X12031510Y-12003490D02*
X11998490Y-12036510D01*
X12028490Y-14603490D02*
X12061510Y-14636510D01*
X12061510Y-14603490D02*
X12028490Y-14636510D01*
X12033490Y-14443490D02*
X12066510Y-14476510D01*
X12066510Y-14443490D02*
X12033490Y-14476510D01*
X12053490Y-14268490D02*
X12086510Y-14301510D01*
X12086510Y-14268490D02*
X12053490Y-14301510D01*
X12093490Y-11313490D02*
X12126510Y-11346510D01*
X12126510Y-11313490D02*
X12093490Y-11346510D01*
X12168490Y-12583490D02*
X12201510Y-12616510D01*
X12201510Y-12583490D02*
X12168490Y-12616510D01*
X12188490Y-10708490D02*
X12221510Y-10741510D01*
X12221510Y-10708490D02*
X12188490Y-10741510D01*
X12218490Y-10173490D02*
X12251510Y-10206510D01*
X12251510Y-10173490D02*
X12218490Y-10206510D01*
X12233490Y-14208490D02*
X12266510Y-14241510D01*
X12266510Y-14208490D02*
X12233490Y-14241510D01*
X12238490Y-12585520D02*
X12271510Y-12618540D01*
X12271510Y-12585520D02*
X12238490Y-12618540D01*
X12243490Y-14268490D02*
X12276510Y-14301510D01*
X12276510Y-14268490D02*
X12243490Y-14301510D01*
X12288490Y-11313490D02*
X12321510Y-11346510D01*
X12321510Y-11313490D02*
X12288490Y-11346510D01*
X12298490Y-11858490D02*
X12331510Y-11891510D01*
X12331510Y-11858490D02*
X12298490Y-11891510D01*
X12303490Y-11008490D02*
X12336510Y-11041510D01*
X12336510Y-11008490D02*
X12303490Y-11041510D01*
X12313490Y-13473490D02*
X12346510Y-13506510D01*
X12346510Y-13473490D02*
X12313490Y-13506510D01*
X12368490Y-11858490D02*
X12401510Y-11891510D01*
X12401510Y-11858490D02*
X12368490Y-11891510D01*
X12368490Y-12123490D02*
X12401510Y-12156510D01*
X12401510Y-12123490D02*
X12368490Y-12156510D01*
X12393490Y-13478490D02*
X12426510Y-13511510D01*
X12426510Y-13478490D02*
X12393490Y-13511510D01*
X12448490Y-10498490D02*
X12481510Y-10531510D01*
X12481510Y-10498490D02*
X12448490Y-10531510D01*
X12453490Y-11938490D02*
X12486510Y-11971510D01*
X12486510Y-11938490D02*
X12453490Y-11971510D01*
X12453490Y-12038490D02*
X12486510Y-12071510D01*
X12486510Y-12038490D02*
X12453490Y-12071510D01*
X12455088Y-12110077D02*
X12488108Y-12143097D01*
X12488108Y-12110077D02*
X12455088Y-12143097D01*
X12468490Y-13488490D02*
X12501510Y-13521510D01*
X12501510Y-13488490D02*
X12468490Y-13521510D01*
X12478490Y-11858490D02*
X12511510Y-11891510D01*
X12511510Y-11858490D02*
X12478490Y-11891510D01*
X12508490Y-12538490D02*
X12541510Y-12571510D01*
X12541510Y-12538490D02*
X12508490Y-12571510D01*
X12518490Y-10863490D02*
X12551510Y-10896510D01*
X12551510Y-10863490D02*
X12518490Y-10896510D01*
X12548020Y-13623490D02*
X12581040Y-13656510D01*
X12581040Y-13623490D02*
X12548020Y-13656510D01*
X12563490Y-11238490D02*
X12596510Y-11271510D01*
X12596510Y-11238490D02*
X12563490Y-11271510D01*
X12563490Y-11498490D02*
X12596510Y-11531510D01*
X12596510Y-11498490D02*
X12563490Y-11531510D01*
X12703490Y-11833490D02*
X12736510Y-11866510D01*
X12736510Y-11833490D02*
X12703490Y-11866510D01*
X12713490Y-12263490D02*
X12746510Y-12296510D01*
X12746510Y-12263490D02*
X12713490Y-12296510D01*
X12768490Y-12458490D02*
X12801510Y-12491510D01*
X12801510Y-12458490D02*
X12768490Y-12491510D01*
X12778490Y-10148490D02*
X12811510Y-10181510D01*
X12811510Y-10148490D02*
X12778490Y-10181510D01*
X12807950Y-12329160D02*
X12840970Y-12362180D01*
X12840970Y-12329160D02*
X12807950Y-12362180D01*
X12833350Y-11969750D02*
X12866370Y-12002770D01*
X12866370Y-11969750D02*
X12833350Y-12002770D01*
X12843490Y-13953490D02*
X12876510Y-13986510D01*
X12876510Y-13953490D02*
X12843490Y-13986510D01*
X12853490Y-13663490D02*
X12886510Y-13696510D01*
X12886510Y-13663490D02*
X12853490Y-13696510D01*
X12853490Y-13743490D02*
X12886510Y-13776510D01*
X12886510Y-13743490D02*
X12853490Y-13776510D01*
X12857954Y-13587954D02*
X12890974Y-13620974D01*
X12890974Y-13587954D02*
X12857954Y-13620974D01*
X12861537Y-13329183D02*
X12894557Y-13362203D01*
X12894557Y-13329183D02*
X12861537Y-13362203D01*
X12875260Y-12026900D02*
X12908280Y-12059920D01*
X12908280Y-12026900D02*
X12875260Y-12059920D01*
X12888490Y-11383490D02*
X12921510Y-11416510D01*
X12921510Y-11383490D02*
X12888490Y-11416510D01*
X12888490Y-11543490D02*
X12921510Y-11576510D01*
X12921510Y-11543490D02*
X12888490Y-11576510D01*
X12913490Y-16123490D02*
X12946510Y-16156510D01*
X12946510Y-16123490D02*
X12913490Y-16156510D01*
X12938490Y-11168490D02*
X12971510Y-11201510D01*
X12971510Y-11168490D02*
X12938490Y-11201510D01*
X12943490Y-13903490D02*
X12976510Y-13936510D01*
X12976510Y-13903490D02*
X12943490Y-13936510D01*
X12953490Y-11293490D02*
X12986510Y-11326510D01*
X12986510Y-11293490D02*
X12953490Y-11326510D01*
X12955454Y-13490454D02*
X12988474Y-13523474D01*
X12988474Y-13490454D02*
X12955454Y-13523474D01*
X12963490Y-12618490D02*
X12996510Y-12651510D01*
X12996510Y-12618490D02*
X12963490Y-12651510D01*
X12963490Y-14003490D02*
X12996510Y-14036510D01*
X12996510Y-14003490D02*
X12963490Y-14036510D01*
X12978490Y-16608490D02*
X13011510Y-16641510D01*
X13011510Y-16608490D02*
X12978490Y-16641510D01*
X12983490Y-13678490D02*
X13016510Y-13711510D01*
X13016510Y-13678490D02*
X12983490Y-13711510D01*
X12983490Y-13748490D02*
X13016510Y-13781510D01*
X13016510Y-13748490D02*
X12983490Y-13781510D01*
X12990210Y-11743690D02*
X13023230Y-11776710D01*
X13023230Y-11743690D02*
X12990210Y-11776710D01*
X12998490Y-13028490D02*
X13031510Y-13061510D01*
X13031510Y-13028490D02*
X12998490Y-13061510D01*
X12998490Y-13113490D02*
X13031510Y-13146510D01*
X13031510Y-13113490D02*
X12998490Y-13146510D01*
X13008490Y-12958490D02*
X13041510Y-12991510D01*
X13041510Y-12958490D02*
X13008490Y-12991510D01*
X13028490Y-13408490D02*
X13061510Y-13441510D01*
X13061510Y-13408490D02*
X13028490Y-13441510D01*
X13058490Y-15208490D02*
X13091510Y-15241510D01*
X13091510Y-15208490D02*
X13058490Y-15241510D01*
X13058490Y-15678490D02*
X13091510Y-15711510D01*
X13091510Y-15678490D02*
X13058490Y-15711510D01*
X13060096Y-11138702D02*
X13093116Y-11171722D01*
X13093116Y-11138702D02*
X13060096Y-11171722D01*
X13062470Y-11449129D02*
X13095490Y-11482149D01*
X13095490Y-11449129D02*
X13062470Y-11482149D01*
X13063490Y-14673490D02*
X13096510Y-14706510D01*
X13096510Y-14673490D02*
X13063490Y-14706510D01*
X13073490Y-14363490D02*
X13106510Y-14396510D01*
X13106510Y-14363490D02*
X13073490Y-14396510D01*
X13093700Y-12071350D02*
X13126720Y-12104370D01*
X13126720Y-12071350D02*
X13093700Y-12104370D01*
X13113490Y-10348490D02*
X13146510Y-10381510D01*
X13146510Y-10348490D02*
X13113490Y-10381510D01*
X13133490Y-11918490D02*
X13166510Y-11951510D01*
X13166510Y-11918490D02*
X13133490Y-11951510D01*
X13138490Y-11673490D02*
X13171510Y-11706510D01*
X13171510Y-11673490D02*
X13138490Y-11706510D01*
X13138490Y-11758490D02*
X13171510Y-11791510D01*
X13171510Y-11758490D02*
X13138490Y-11791510D01*
X13138490Y-13723490D02*
X13171510Y-13756510D01*
X13171510Y-13723490D02*
X13138490Y-13756510D01*
X13145770Y-12125960D02*
X13178790Y-12158980D01*
X13178790Y-12125960D02*
X13145770Y-12158980D01*
X13177490Y-15588490D02*
X13210510Y-15621510D01*
X13210510Y-15588490D02*
X13177490Y-15621510D01*
X13177490Y-15778490D02*
X13210510Y-15811510D01*
X13210510Y-15778490D02*
X13177490Y-15811510D01*
X13178490Y-10638490D02*
X13211510Y-10671510D01*
X13211510Y-10638490D02*
X13178490Y-10671510D01*
X13178490Y-14703490D02*
X13211510Y-14736510D01*
X13211510Y-14703490D02*
X13178490Y-14736510D01*
X13183490Y-16153490D02*
X13216510Y-16186510D01*
X13216510Y-16153490D02*
X13183490Y-16186510D01*
X13203490Y-11343490D02*
X13236510Y-11376510D01*
X13236510Y-11343490D02*
X13203490Y-11376510D01*
X13213490Y-15943490D02*
X13246510Y-15976510D01*
X13246510Y-15943490D02*
X13213490Y-15976510D01*
X13217228Y-11938751D02*
X13250248Y-11971771D01*
X13250248Y-11938751D02*
X13217228Y-11971771D01*
X13218490Y-11758490D02*
X13251510Y-11791510D01*
X13251510Y-11758490D02*
X13218490Y-11791510D01*
X13218490Y-13338490D02*
X13251510Y-13371510D01*
X13251510Y-13338490D02*
X13218490Y-13371510D01*
X13218490Y-13408490D02*
X13251510Y-13441510D01*
X13251510Y-13408490D02*
X13218490Y-13441510D01*
X13223490Y-11673490D02*
X13256510Y-11706510D01*
X13256510Y-11673490D02*
X13223490Y-11706510D01*
X13263490Y-16443490D02*
X13296510Y-16476510D01*
X13296510Y-16443490D02*
X13263490Y-16476510D01*
X13268490Y-13883490D02*
X13301510Y-13916510D01*
X13301510Y-13883490D02*
X13268490Y-13916510D01*
X13288490Y-10308490D02*
X13321510Y-10341510D01*
X13321510Y-10308490D02*
X13288490Y-10341510D01*
X13298490Y-12443490D02*
X13331510Y-12476510D01*
X13331510Y-12443490D02*
X13298490Y-12476510D01*
X13309600Y-13103860D02*
X13342620Y-13136880D01*
X13342620Y-13103860D02*
X13309600Y-13136880D01*
X13314680Y-12978130D02*
X13347700Y-13011150D01*
X13347700Y-12978130D02*
X13314680Y-13011150D01*
X13315769Y-11863720D02*
X13348789Y-11896740D01*
X13348789Y-11863720D02*
X13315769Y-11896740D01*
X13328490Y-11318490D02*
X13361510Y-11351510D01*
X13361510Y-11318490D02*
X13328490Y-11351510D01*
X13328490Y-11368490D02*
X13361510Y-11401510D01*
X13361510Y-11368490D02*
X13328490Y-11401510D01*
X13364484Y-11579484D02*
X13397504Y-11612504D01*
X13397504Y-11579484D02*
X13364484Y-11612504D01*
X13368490Y-11813490D02*
X13401510Y-11846510D01*
X13401510Y-11813490D02*
X13368490Y-11846510D01*
X13368490Y-13893490D02*
X13401510Y-13926510D01*
X13401510Y-13893490D02*
X13368490Y-13926510D01*
X13373490Y-11623490D02*
X13406510Y-11656510D01*
X13406510Y-11623490D02*
X13373490Y-11656510D01*
X13373490Y-12818490D02*
X13406510Y-12851510D01*
X13406510Y-12818490D02*
X13373490Y-12851510D01*
X13393420Y-12978130D02*
X13426440Y-13011150D01*
X13426440Y-12978130D02*
X13393420Y-13011150D01*
X13393420Y-13106400D02*
X13426440Y-13139420D01*
X13426440Y-13106400D02*
X13393420Y-13139420D01*
X13395102Y-11206878D02*
X13428122Y-11239898D01*
X13428122Y-11206878D02*
X13395102Y-11239898D01*
X13403490Y-13408490D02*
X13436510Y-13441510D01*
X13436510Y-13408490D02*
X13403490Y-13441510D01*
X13411315Y-11435665D02*
X13444335Y-11468685D01*
X13444335Y-11435665D02*
X13411315Y-11468685D01*
X13433490Y-14323490D02*
X13466510Y-14356510D01*
X13466510Y-14323490D02*
X13433490Y-14356510D01*
X13433490Y-14633490D02*
X13466510Y-14666510D01*
X13466510Y-14633490D02*
X13433490Y-14666510D01*
X13433490Y-15298490D02*
X13466510Y-15331510D01*
X13466510Y-15298490D02*
X13433490Y-15331510D01*
X13453490Y-15488490D02*
X13486510Y-15521510D01*
X13486510Y-15488490D02*
X13453490Y-15521510D01*
X13458490Y-14818490D02*
X13491510Y-14851510D01*
X13491510Y-14818490D02*
X13458490Y-14851510D01*
X13458490Y-15208490D02*
X13491510Y-15241510D01*
X13491510Y-15208490D02*
X13458490Y-15241510D01*
X13463490Y-13893490D02*
X13496510Y-13926510D01*
X13496510Y-13893490D02*
X13463490Y-13926510D01*
X13473490Y-15678490D02*
X13506510Y-15711510D01*
X13506510Y-15678490D02*
X13473490Y-15711510D01*
X13478490Y-10673490D02*
X13511510Y-10706510D01*
X13511510Y-10673490D02*
X13478490Y-10706510D01*
X13513490Y-16018490D02*
X13546510Y-16051510D01*
X13546510Y-16018490D02*
X13513490Y-16051510D01*
X13528490Y-16333490D02*
X13561510Y-16366510D01*
X13561510Y-16333490D02*
X13528490Y-16366510D01*
X13538490Y-11428490D02*
X13571510Y-11461510D01*
X13571510Y-11428490D02*
X13538490Y-11461510D01*
X13540740Y-12978130D02*
X13573760Y-13011150D01*
X13573760Y-12978130D02*
X13540740Y-13011150D01*
X13540740Y-13108940D02*
X13573760Y-13141960D01*
X13573760Y-13108940D02*
X13540740Y-13141960D01*
X13545665Y-11301315D02*
X13578685Y-11334335D01*
X13578685Y-11301315D02*
X13545665Y-11334335D01*
X13571878Y-11030102D02*
X13604898Y-11063122D01*
X13604898Y-11030102D02*
X13571878Y-11063122D01*
X13578490Y-16578490D02*
X13611510Y-16611510D01*
X13611510Y-16578490D02*
X13578490Y-16611510D01*
X13583490Y-12623490D02*
X13616510Y-12656510D01*
X13616510Y-12623490D02*
X13583490Y-12656510D01*
X13598490Y-11178490D02*
X13631510Y-11211510D01*
X13631510Y-11178490D02*
X13598490Y-11211510D01*
X13623490Y-12113490D02*
X13656510Y-12146510D01*
X13656510Y-12113490D02*
X13623490Y-12146510D01*
X13623490Y-13408490D02*
X13656510Y-13441510D01*
X13656510Y-13408490D02*
X13623490Y-13441510D01*
X13624560Y-12980670D02*
X13657580Y-13013690D01*
X13657580Y-12980670D02*
X13624560Y-13013690D01*
X13624560Y-13106400D02*
X13657580Y-13139420D01*
X13657580Y-13106400D02*
X13624560Y-13139420D01*
X13633490Y-11608490D02*
X13666510Y-11641510D01*
X13666510Y-11608490D02*
X13633490Y-11641510D01*
X13638490Y-11828490D02*
X13671510Y-11861510D01*
X13671510Y-11828490D02*
X13638490Y-11861510D01*
X13653490Y-10233490D02*
X13686510Y-10266510D01*
X13686510Y-10233490D02*
X13653490Y-10266510D01*
X13663490Y-14718490D02*
X13696510Y-14751510D01*
X13696510Y-14718490D02*
X13663490Y-14751510D01*
X13698490Y-10633490D02*
X13731510Y-10666510D01*
X13731510Y-10633490D02*
X13698490Y-10666510D01*
X13703490Y-12623490D02*
X13736510Y-12656510D01*
X13736510Y-12623490D02*
X13703490Y-12656510D01*
X13713490Y-14223490D02*
X13746510Y-14256510D01*
X13746510Y-14223490D02*
X13713490Y-14256510D01*
X13728490Y-13348490D02*
X13761510Y-13381510D01*
X13761510Y-13348490D02*
X13728490Y-13381510D01*
X13733490Y-13423490D02*
X13766510Y-13456510D01*
X13766510Y-13423490D02*
X13733490Y-13456510D01*
X13748490Y-14943490D02*
X13781510Y-14976510D01*
X13781510Y-14943490D02*
X13748490Y-14976510D01*
X13748490Y-16048490D02*
X13781510Y-16081510D01*
X13781510Y-16048490D02*
X13748490Y-16081510D01*
X13758490Y-11353490D02*
X13791510Y-11386510D01*
X13791510Y-11353490D02*
X13758490Y-11386510D01*
X13763490Y-12448490D02*
X13796510Y-12481510D01*
X13796510Y-12448490D02*
X13763490Y-12481510D01*
X13763490Y-13973490D02*
X13796510Y-14006510D01*
X13796510Y-13973490D02*
X13763490Y-14006510D01*
X13773490Y-15688490D02*
X13806510Y-15721510D01*
X13806510Y-15688490D02*
X13773490Y-15721510D01*
X13803490Y-14478490D02*
X13836510Y-14511510D01*
X13836510Y-14478490D02*
X13803490Y-14511510D01*
X13848490Y-13948490D02*
X13881510Y-13981510D01*
X13881510Y-13948490D02*
X13848490Y-13981510D01*
X13848490Y-14013490D02*
X13881510Y-14046510D01*
X13881510Y-14013490D02*
X13848490Y-14046510D01*
X13858490Y-10908490D02*
X13891510Y-10941510D01*
X13891510Y-10908490D02*
X13858490Y-10941510D01*
X13858490Y-11608490D02*
X13891510Y-11641510D01*
X13891510Y-11608490D02*
X13858490Y-11641510D01*
X13858490Y-11828490D02*
X13891510Y-11861510D01*
X13891510Y-11828490D02*
X13858490Y-11861510D01*
X13861490Y-16413490D02*
X13894510Y-16446510D01*
X13894510Y-16413490D02*
X13861490Y-16446510D01*
X13863490Y-16323490D02*
X13896510Y-16356510D01*
X13896510Y-16323490D02*
X13863490Y-16356510D01*
X13863490Y-16523490D02*
X13896510Y-16556510D01*
X13896510Y-16523490D02*
X13863490Y-16556510D01*
X13863490Y-16623490D02*
X13896510Y-16656510D01*
X13896510Y-16623490D02*
X13863490Y-16656510D01*
X13888490Y-13123490D02*
X13921510Y-13156510D01*
X13921510Y-13123490D02*
X13888490Y-13156510D01*
X13915762Y-13443490D02*
X13948782Y-13476510D01*
X13948782Y-13443490D02*
X13915762Y-13476510D01*
X13915762Y-13513490D02*
X13948782Y-13546510D01*
X13948782Y-13513490D02*
X13915762Y-13546510D01*
X13928490Y-15383490D02*
X13961510Y-15416510D01*
X13961510Y-15383490D02*
X13928490Y-15416510D01*
X13928490Y-15453490D02*
X13961510Y-15486510D01*
X13961510Y-15453490D02*
X13928490Y-15486510D01*
X13933490Y-15143490D02*
X13966510Y-15176510D01*
X13966510Y-15143490D02*
X13933490Y-15176510D01*
X13935762Y-12833490D02*
X13968782Y-12866510D01*
X13968782Y-12833490D02*
X13935762Y-12866510D01*
X13935762Y-12908490D02*
X13968782Y-12941510D01*
X13968782Y-12908490D02*
X13935762Y-12941510D01*
X13938490Y-14778490D02*
X13971510Y-14811510D01*
X13971510Y-14778490D02*
X13938490Y-14811510D01*
X13943490Y-14713490D02*
X13976510Y-14746510D01*
X13976510Y-14713490D02*
X13943490Y-14746510D01*
X13943490Y-15678490D02*
X13976510Y-15711510D01*
X13976510Y-15678490D02*
X13943490Y-15711510D01*
X13953490Y-10153490D02*
X13986510Y-10186510D01*
X13986510Y-10153490D02*
X13953490Y-10186510D01*
X13953490Y-10353490D02*
X13986510Y-10386510D01*
X13986510Y-10353490D02*
X13953490Y-10386510D01*
X13953490Y-10443490D02*
X13986510Y-10476510D01*
X13986510Y-10443490D02*
X13953490Y-10476510D01*
X13953490Y-15603490D02*
X13986510Y-15636510D01*
X13986510Y-15603490D02*
X13953490Y-15636510D01*
X13956490Y-10253490D02*
X13989510Y-10286510D01*
X13989510Y-10253490D02*
X13956490Y-10286510D01*
X13963490Y-12658490D02*
X13996510Y-12691510D01*
X13996510Y-12658490D02*
X13963490Y-12691510D01*
X13964423Y-12747557D02*
X13997443Y-12780577D01*
X13997443Y-12747557D02*
X13964423Y-12780577D01*
X14008490Y-12033490D02*
X14041510Y-12066510D01*
X14041510Y-12033490D02*
X14008490Y-12066510D01*
X14013490Y-14933490D02*
X14046510Y-14966510D01*
X14046510Y-14933490D02*
X14013490Y-14966510D01*
X14018490Y-14738490D02*
X14051510Y-14771510D01*
X14051510Y-14738490D02*
X14018490Y-14771510D01*
X14028490Y-15878490D02*
X14061510Y-15911510D01*
X14061510Y-15878490D02*
X14028490Y-15911510D01*
X14033490Y-12373490D02*
X14066510Y-12406510D01*
X14066510Y-12373490D02*
X14033490Y-12406510D01*
X14038490Y-16078490D02*
X14071510Y-16111510D01*
X14071510Y-16078490D02*
X14038490Y-16111510D01*
X14048490Y-15638490D02*
X14081510Y-15671510D01*
X14081510Y-15638490D02*
X14048490Y-15671510D01*
X14068490Y-12428490D02*
X14101510Y-12461510D01*
X14101510Y-12428490D02*
X14068490Y-12461510D01*
X14068960Y-12318490D02*
X14101980Y-12351510D01*
X14101980Y-12318490D02*
X14068960Y-12351510D01*
X14093490Y-15178490D02*
X14126510Y-15211510D01*
X14126510Y-15178490D02*
X14093490Y-15211510D01*
X14098490Y-14523490D02*
X14131510Y-14556510D01*
X14131510Y-14523490D02*
X14098490Y-14556510D01*
X14123490Y-10708490D02*
X14156510Y-10741510D01*
X14156510Y-10708490D02*
X14123490Y-10741510D01*
X14123490Y-11048490D02*
X14156510Y-11081510D01*
X14156510Y-11048490D02*
X14123490Y-11081510D01*
X14128490Y-13018490D02*
X14161510Y-13051510D01*
X14161510Y-13018490D02*
X14128490Y-13051510D01*
X14128490Y-13173490D02*
X14161510Y-13206510D01*
X14161510Y-13173490D02*
X14128490Y-13206510D01*
X14133490Y-11348490D02*
X14166510Y-11381510D01*
X14166510Y-11348490D02*
X14133490Y-11381510D01*
X14138490Y-11623490D02*
X14171510Y-11656510D01*
X14171510Y-11623490D02*
X14138490Y-11656510D01*
X14158490Y-11818490D02*
X14191510Y-11851510D01*
X14191510Y-11818490D02*
X14158490Y-11851510D01*
X14158490Y-15178490D02*
X14191510Y-15211510D01*
X14191510Y-15178490D02*
X14158490Y-15211510D01*
X14168490Y-14523490D02*
X14201510Y-14556510D01*
X14201510Y-14523490D02*
X14168490Y-14556510D01*
X14188490Y-13333490D02*
X14221510Y-13366510D01*
X14221510Y-13333490D02*
X14188490Y-13366510D01*
X14203490Y-13013490D02*
X14236510Y-13046510D01*
X14236510Y-13013490D02*
X14203490Y-13046510D01*
X14228490Y-14043490D02*
X14261510Y-14076510D01*
X14261510Y-14043490D02*
X14228490Y-14076510D01*
X14228490Y-15638490D02*
X14261510Y-15671510D01*
X14261510Y-15638490D02*
X14228490Y-15671510D01*
X14233490Y-13978490D02*
X14266510Y-14011510D01*
X14266510Y-13978490D02*
X14233490Y-14011510D01*
X14243490Y-15238490D02*
X14276510Y-15271510D01*
X14276510Y-15238490D02*
X14243490Y-15271510D01*
X14248490Y-14203490D02*
X14281510Y-14236510D01*
X14281510Y-14203490D02*
X14248490Y-14236510D01*
X14248490Y-14578490D02*
X14281510Y-14611510D01*
X14281510Y-14578490D02*
X14248490Y-14611510D01*
X14248490Y-15878490D02*
X14281510Y-15911510D01*
X14281510Y-15878490D02*
X14248490Y-15911510D01*
X14248490Y-16073490D02*
X14281510Y-16106510D01*
X14281510Y-16073490D02*
X14248490Y-16106510D01*
X14253490Y-13338490D02*
X14286510Y-13371510D01*
X14286510Y-13338490D02*
X14253490Y-13371510D01*
X14263490Y-15498490D02*
X14296510Y-15531510D01*
X14296510Y-15498490D02*
X14263490Y-15531510D01*
X14314170Y-15284450D02*
X14347190Y-15317470D01*
X14347190Y-15284450D02*
X14314170Y-15317470D01*
X14318490Y-12208490D02*
X14351510Y-12241510D01*
X14351510Y-12208490D02*
X14318490Y-12241510D01*
X14323490Y-15588490D02*
X14356510Y-15621510D01*
X14356510Y-15588490D02*
X14323490Y-15621510D01*
X14328490Y-11653490D02*
X14361510Y-11686510D01*
X14361510Y-11653490D02*
X14328490Y-11686510D01*
X14328490Y-15673490D02*
X14361510Y-15706510D01*
X14361510Y-15673490D02*
X14328490Y-15706510D01*
X14343490Y-10703490D02*
X14376510Y-10736510D01*
X14376510Y-10703490D02*
X14343490Y-10736510D01*
X14343490Y-11048490D02*
X14376510Y-11081510D01*
X14376510Y-11048490D02*
X14343490Y-11081510D01*
X14343490Y-11363490D02*
X14376510Y-11396510D01*
X14376510Y-11363490D02*
X14343490Y-11396510D01*
X14348490Y-13343490D02*
X14381510Y-13376510D01*
X14381510Y-13343490D02*
X14348490Y-13376510D01*
X14393490Y-15628490D02*
X14426510Y-15661510D01*
X14426510Y-15628490D02*
X14393490Y-15661510D01*
X14398490Y-13178490D02*
X14431510Y-13211510D01*
X14431510Y-13178490D02*
X14398490Y-13211510D01*
X14403490Y-12208490D02*
X14436510Y-12241510D01*
X14436510Y-12208490D02*
X14403490Y-12241510D01*
X14413490Y-16323490D02*
X14446510Y-16356510D01*
X14446510Y-16323490D02*
X14413490Y-16356510D01*
X14413490Y-16423490D02*
X14446510Y-16456510D01*
X14446510Y-16423490D02*
X14413490Y-16456510D01*
X14413490Y-16623490D02*
X14446510Y-16656510D01*
X14446510Y-16623490D02*
X14413490Y-16656510D01*
X14415490Y-16523490D02*
X14448510Y-16556510D01*
X14448510Y-16523490D02*
X14415490Y-16556510D01*
X14423490Y-12913490D02*
X14456510Y-12946510D01*
X14456510Y-12913490D02*
X14423490Y-12946510D01*
X14423490Y-13448490D02*
X14456510Y-13481510D01*
X14456510Y-13448490D02*
X14423490Y-13481510D01*
X14423490Y-13518490D02*
X14456510Y-13551510D01*
X14456510Y-13518490D02*
X14423490Y-13551510D01*
X14428490Y-12838490D02*
X14461510Y-12871510D01*
X14461510Y-12838490D02*
X14428490Y-12871510D01*
X14448020Y-12323490D02*
X14481040Y-12356510D01*
X14481040Y-12323490D02*
X14448020Y-12356510D01*
X14448490Y-12448490D02*
X14481510Y-12481510D01*
X14481510Y-12448490D02*
X14448490Y-12481510D01*
X14453490Y-15978490D02*
X14486510Y-16011510D01*
X14486510Y-15978490D02*
X14453490Y-16011510D01*
X14458490Y-14833490D02*
X14491510Y-14866510D01*
X14491510Y-14833490D02*
X14458490Y-14866510D01*
X14466570Y-14505859D02*
X14499590Y-14538879D01*
X14499590Y-14505859D02*
X14466570Y-14538879D01*
X14478490Y-12383490D02*
X14511510Y-12416510D01*
X14511510Y-12383490D02*
X14478490Y-12416510D01*
X14488490Y-15023490D02*
X14521510Y-15056510D01*
X14521510Y-15023490D02*
X14488490Y-15056510D01*
X14493490Y-11753490D02*
X14526510Y-11786510D01*
X14526510Y-11753490D02*
X14493490Y-11786510D01*
X14498490Y-13773490D02*
X14531510Y-13806510D01*
X14531510Y-13773490D02*
X14498490Y-13806510D01*
X14513490Y-10153490D02*
X14546510Y-10186510D01*
X14546510Y-10153490D02*
X14513490Y-10186510D01*
X14513490Y-10253490D02*
X14546510Y-10286510D01*
X14546510Y-10253490D02*
X14513490Y-10286510D01*
X14513490Y-10353490D02*
X14546510Y-10386510D01*
X14546510Y-10353490D02*
X14513490Y-10386510D01*
X14513490Y-10443490D02*
X14546510Y-10476510D01*
X14546510Y-10443490D02*
X14513490Y-10476510D01*
X14518490Y-13618490D02*
X14551510Y-13651510D01*
X14551510Y-13618490D02*
X14518490Y-13651510D01*
X14523490Y-13683490D02*
X14556510Y-13716510D01*
X14556510Y-13683490D02*
X14523490Y-13716510D01*
X14528490Y-13038490D02*
X14561510Y-13071510D01*
X14561510Y-13038490D02*
X14528490Y-13071510D01*
X14530070Y-14500860D02*
X14563090Y-14533880D01*
X14563090Y-14500860D02*
X14530070Y-14533880D01*
X14538490Y-12773490D02*
X14571510Y-12806510D01*
X14571510Y-12773490D02*
X14538490Y-12806510D01*
X14545310Y-15031720D02*
X14578330Y-15064740D01*
X14578330Y-15031720D02*
X14545310Y-15064740D01*
X14558490Y-15493490D02*
X14591510Y-15526510D01*
X14591510Y-15493490D02*
X14558490Y-15526510D01*
X14563490Y-11728490D02*
X14596510Y-11761510D01*
X14596510Y-11728490D02*
X14563490Y-11761510D01*
X14563490Y-11798490D02*
X14596510Y-11831510D01*
X14596510Y-11798490D02*
X14563490Y-11831510D01*
X14588490Y-11488490D02*
X14621510Y-11521510D01*
X14621510Y-11488490D02*
X14588490Y-11521510D01*
X14608490Y-13733490D02*
X14641510Y-13766510D01*
X14641510Y-13733490D02*
X14608490Y-13766510D01*
X14608490Y-13798490D02*
X14641510Y-13831510D01*
X14641510Y-13798490D02*
X14608490Y-13831510D01*
X14613490Y-11218490D02*
X14646510Y-11251510D01*
X14646510Y-11218490D02*
X14613490Y-11251510D01*
X14615028Y-14451121D02*
X14648048Y-14484141D01*
X14648048Y-14451121D02*
X14615028Y-14484141D01*
X14623490Y-16128490D02*
X14656510Y-16161510D01*
X14656510Y-16128490D02*
X14623490Y-16161510D01*
X14638490Y-10873490D02*
X14671510Y-10906510D01*
X14671510Y-10873490D02*
X14638490Y-10906510D01*
X14668490Y-12268490D02*
X14701510Y-12301510D01*
X14701510Y-12268490D02*
X14668490Y-12301510D01*
X14683490Y-14593490D02*
X14716510Y-14626510D01*
X14716510Y-14593490D02*
X14683490Y-14626510D01*
X14683490Y-15728490D02*
X14716510Y-15761510D01*
X14716510Y-15728490D02*
X14683490Y-15761510D01*
X14688490Y-16623490D02*
X14721510Y-16656510D01*
X14721510Y-16623490D02*
X14688490Y-16656510D01*
X14693490Y-14443490D02*
X14726510Y-14476510D01*
X14726510Y-14443490D02*
X14693490Y-14476510D01*
X14693490Y-14908490D02*
X14726510Y-14941510D01*
X14726510Y-14908490D02*
X14693490Y-14941510D01*
X14693490Y-15908490D02*
X14726510Y-15941510D01*
X14726510Y-15908490D02*
X14693490Y-15941510D01*
X14733490Y-16358490D02*
X14766510Y-16391510D01*
X14766510Y-16358490D02*
X14733490Y-16391510D01*
X14758490Y-15173490D02*
X14791510Y-15206510D01*
X14791510Y-15173490D02*
X14758490Y-15206510D01*
X14758490Y-15243490D02*
X14791510Y-15276510D01*
X14791510Y-15243490D02*
X14758490Y-15276510D01*
X14773490Y-10228490D02*
X14806510Y-10261510D01*
X14806510Y-10228490D02*
X14773490Y-10261510D01*
X14773490Y-13183490D02*
X14806510Y-13216510D01*
X14806510Y-13183490D02*
X14773490Y-13216510D01*
X14778490Y-14568490D02*
X14811510Y-14601510D01*
X14811510Y-14568490D02*
X14778490Y-14601510D01*
X14783490Y-14633490D02*
X14816510Y-14666510D01*
X14816510Y-14633490D02*
X14783490Y-14666510D01*
X14793490Y-10558490D02*
X14826510Y-10591510D01*
X14826510Y-10558490D02*
X14793490Y-10591510D01*
X14793490Y-13923490D02*
X14826510Y-13956510D01*
X14826510Y-13923490D02*
X14793490Y-13956510D01*
X14798490Y-13498490D02*
X14831510Y-13531510D01*
X14831510Y-13498490D02*
X14798490Y-13531510D01*
X14803490Y-11783490D02*
X14836510Y-11816510D01*
X14836510Y-11783490D02*
X14803490Y-11816510D01*
X14818490Y-12923490D02*
X14851510Y-12956510D01*
X14851510Y-12923490D02*
X14818490Y-12956510D01*
X14833490Y-12633490D02*
X14866510Y-12666510D01*
X14866510Y-12633490D02*
X14833490Y-12666510D01*
X14849911Y-14369911D02*
X14882931Y-14402931D01*
X14882931Y-14369911D02*
X14849911Y-14402931D01*
X14873490Y-11113490D02*
X14906510Y-11146510D01*
X14906510Y-11113490D02*
X14873490Y-11146510D01*
X14888490Y-15203490D02*
X14921510Y-15236510D01*
X14921510Y-15203490D02*
X14888490Y-15236510D01*
X14898490Y-16193490D02*
X14931510Y-16226510D01*
X14931510Y-16193490D02*
X14898490Y-16226510D01*
X14928490Y-15703490D02*
X14961510Y-15736510D01*
X14961510Y-15703490D02*
X14928490Y-15736510D01*
X14938490Y-14508490D02*
X14971510Y-14541510D01*
X14971510Y-14508490D02*
X14938490Y-14541510D01*
X14968490Y-16508490D02*
X15001510Y-16541510D01*
X15001510Y-16508490D02*
X14968490Y-16541510D01*
X14983490Y-14618490D02*
X15016510Y-14651510D01*
X15016510Y-14618490D02*
X14983490Y-14651510D01*
X14988490Y-14458490D02*
X15021510Y-14491510D01*
X15021510Y-14458490D02*
X14988490Y-14491510D01*
X15008490Y-14963490D02*
X15041510Y-14996510D01*
X15041510Y-14963490D02*
X15008490Y-14996510D01*
X15008490Y-15398490D02*
X15041510Y-15431510D01*
X15041510Y-15398490D02*
X15008490Y-15431510D01*
X15018490Y-15978490D02*
X15051510Y-16011510D01*
X15051510Y-15978490D02*
X15018490Y-16011510D01*
X15023490Y-10878490D02*
X15056510Y-10911510D01*
X15056510Y-10878490D02*
X15023490Y-10911510D01*
X15028490Y-11508490D02*
X15061510Y-11541510D01*
X15061510Y-11508490D02*
X15028490Y-11541510D01*
X15058490Y-12068490D02*
X15091510Y-12101510D01*
X15091510Y-12068490D02*
X15058490Y-12101510D01*
X10935000Y-16015000D02*
G75*
G03X10935000Y-16015000I-40000J0D01*
G01*
X10935000Y-16215000D02*
G75*
G03X10935000Y-16215000I-40000J0D01*
G01*
X10370000Y-15936000D02*
X10370000Y-16036000D01*
X10320000Y-15986000D02*
X10420000Y-15986000D01*
X10370000Y-16190000D02*
X10370000Y-16290000D01*
X10320000Y-16240000D02*
X10420000Y-16240000D01*
X10625000Y-10408000D02*
X10625000Y-10508000D01*
X10575000Y-10458000D02*
X10675000Y-10458000D01*
X10625000Y-10662000D02*
X10625000Y-10762000D01*
X10575000Y-10712000D02*
X10675000Y-10712000D01*
X10625000Y-10916000D02*
X10625000Y-11016000D01*
X10575000Y-10966000D02*
X10675000Y-10966000D01*
X10625000Y-11170000D02*
X10625000Y-11270000D01*
X10575000Y-11220000D02*
X10675000Y-11220000D01*
X11005000Y-15296000D02*
X11005000Y-15396000D01*
X10955000Y-15346000D02*
X11055000Y-15346000D01*
X11005000Y-15550000D02*
X11005000Y-15650000D01*
X10955000Y-15600000D02*
X11055000Y-15600000D01*
X11805000Y-15140000D02*
X11805000Y-15240000D01*
X11755000Y-15190000D02*
X11855000Y-15190000D01*
X12055000Y-15140000D02*
X12055000Y-15240000D01*
X12005000Y-15190000D02*
X12105000Y-15190000D01*
X12305000Y-15140000D02*
X12305000Y-15240000D01*
X12255000Y-15190000D02*
X12355000Y-15190000D01*
X12664440Y-12783350D02*
X12664440Y-12883350D01*
X12614440Y-12833350D02*
X12714440Y-12833350D01*
X12664440Y-13037350D02*
X12664440Y-13137350D01*
X12614440Y-13087350D02*
X12714440Y-13087350D01*
X12664440Y-13291350D02*
X12664440Y-13391350D01*
X12614440Y-13341350D02*
X12714440Y-13341350D01*
X12805000Y-10446000D02*
X12805000Y-10546000D01*
X12755000Y-10496000D02*
X12855000Y-10496000D01*
X12805000Y-10700000D02*
X12805000Y-10800000D01*
X12755000Y-10750000D02*
X12855000Y-10750000D01*
X12805000Y-10954000D02*
X12805000Y-11054000D01*
X12755000Y-11004000D02*
X12855000Y-11004000D01*
X12899390Y-15021090D02*
X12899390Y-15121090D01*
X12849390Y-15071090D02*
X12949390Y-15071090D01*
X12899390Y-15275090D02*
X12899390Y-15375090D01*
X12849390Y-15325090D02*
X12949390Y-15325090D01*
X12899390Y-15529090D02*
X12899390Y-15629090D01*
X12849390Y-15579090D02*
X12949390Y-15579090D01*
D13*
X10263929Y-17273214D02*
X10263929Y-16973214D01*
X10335357Y-16973214D01*
X10378214Y-16987500D01*
X10406786Y-17016072D01*
X10421071Y-17044643D01*
X10435357Y-17101786D01*
X10435357Y-17144643D01*
X10421071Y-17201786D01*
X10406786Y-17230357D01*
X10378214Y-17258929D01*
X10335357Y-17273214D01*
X10263929Y-17273214D01*
X10563929Y-17273214D02*
X10563929Y-17073214D01*
X10563929Y-17130357D02*
X10578214Y-17101786D01*
X10592500Y-17087500D01*
X10621071Y-17073214D01*
X10649643Y-17073214D01*
X10749643Y-17273214D02*
X10749643Y-17073214D01*
X10749643Y-16973214D02*
X10735357Y-16987500D01*
X10749643Y-17001786D01*
X10763929Y-16987500D01*
X10749643Y-16973214D01*
X10749643Y-17001786D01*
X10935357Y-17273214D02*
X10906786Y-17258929D01*
X10892500Y-17230357D01*
X10892500Y-16973214D01*
X11092500Y-17273214D02*
X11063929Y-17258929D01*
X11049643Y-17230357D01*
X11049643Y-16973214D01*
X11435357Y-17273214D02*
X11435357Y-16973214D01*
X11535357Y-17187500D01*
X11635357Y-16973214D01*
X11635357Y-17273214D01*
X11906786Y-17273214D02*
X11906786Y-17116072D01*
X11892500Y-17087500D01*
X11863928Y-17073214D01*
X11806786Y-17073214D01*
X11778214Y-17087500D01*
X11906786Y-17258929D02*
X11878214Y-17273214D01*
X11806786Y-17273214D01*
X11778214Y-17258929D01*
X11763928Y-17230357D01*
X11763928Y-17201786D01*
X11778214Y-17173214D01*
X11806786Y-17158929D01*
X11878214Y-17158929D01*
X11906786Y-17144643D01*
X12049643Y-17073214D02*
X12049643Y-17373214D01*
X12049643Y-17087500D02*
X12078214Y-17073214D01*
X12135357Y-17073214D01*
X12163928Y-17087500D01*
X12178214Y-17101786D01*
X12192500Y-17130357D01*
X12192500Y-17216072D01*
X12178214Y-17244643D01*
X12163928Y-17258929D01*
X12135357Y-17273214D01*
X12078214Y-17273214D01*
X12049643Y-17258929D01*
X12321071Y-17244643D02*
X12335357Y-17258929D01*
X12321071Y-17273214D01*
X12306786Y-17258929D01*
X12321071Y-17244643D01*
X12321071Y-17273214D01*
X12321071Y-17087500D02*
X12335357Y-17101786D01*
X12321071Y-17116072D01*
X12306786Y-17101786D01*
X12321071Y-17087500D01*
X12321071Y-17116072D01*
X9959480Y-17750990D02*
X9992500Y-17784010D01*
X9992500Y-17750990D02*
X9959480Y-17784010D01*
X10321071Y-17603214D02*
X10349643Y-17603214D01*
X10378214Y-17617500D01*
X10392500Y-17631786D01*
X10406786Y-17660357D01*
X10421071Y-17717500D01*
X10421071Y-17788929D01*
X10406786Y-17846072D01*
X10392500Y-17874643D01*
X10378214Y-17888929D01*
X10349643Y-17903214D01*
X10321071Y-17903214D01*
X10292500Y-17888929D01*
X10278214Y-17874643D01*
X10263929Y-17846072D01*
X10249643Y-17788929D01*
X10249643Y-17717500D01*
X10263929Y-17660357D01*
X10278214Y-17631786D01*
X10292500Y-17617500D01*
X10321071Y-17603214D01*
X10549643Y-17874643D02*
X10563929Y-17888929D01*
X10549643Y-17903214D01*
X10535357Y-17888929D01*
X10549643Y-17874643D01*
X10549643Y-17903214D01*
X10663928Y-17603214D02*
X10849643Y-17603214D01*
X10749643Y-17717500D01*
X10792500Y-17717500D01*
X10821071Y-17731786D01*
X10835357Y-17746072D01*
X10849643Y-17774643D01*
X10849643Y-17846072D01*
X10835357Y-17874643D01*
X10821071Y-17888929D01*
X10792500Y-17903214D01*
X10706786Y-17903214D01*
X10678214Y-17888929D01*
X10663928Y-17874643D01*
X10949643Y-17603214D02*
X11135357Y-17603214D01*
X11035357Y-17717500D01*
X11078214Y-17717500D01*
X11106786Y-17731786D01*
X11121071Y-17746072D01*
X11135357Y-17774643D01*
X11135357Y-17846072D01*
X11121071Y-17874643D01*
X11106786Y-17888929D01*
X11078214Y-17903214D01*
X10992500Y-17903214D01*
X10963929Y-17888929D01*
X10949643Y-17874643D01*
X11263928Y-17903214D02*
X11263928Y-17703214D01*
X11263928Y-17731786D02*
X11278214Y-17717500D01*
X11306786Y-17703214D01*
X11349643Y-17703214D01*
X11378214Y-17717500D01*
X11392500Y-17746072D01*
X11392500Y-17903214D01*
X11392500Y-17746072D02*
X11406786Y-17717500D01*
X11435357Y-17703214D01*
X11478214Y-17703214D01*
X11506786Y-17717500D01*
X11521071Y-17746072D01*
X11521071Y-17903214D01*
X11663928Y-17903214D02*
X11663928Y-17703214D01*
X11663928Y-17731786D02*
X11678214Y-17717500D01*
X11706786Y-17703214D01*
X11749643Y-17703214D01*
X11778214Y-17717500D01*
X11792500Y-17746072D01*
X11792500Y-17903214D01*
X11792500Y-17746072D02*
X11806786Y-17717500D01*
X11835357Y-17703214D01*
X11878214Y-17703214D01*
X11906786Y-17717500D01*
X11921071Y-17746072D01*
X11921071Y-17903214D01*
X12506786Y-17588929D02*
X12249643Y-17974643D01*
X12892500Y-17603214D02*
X12921071Y-17603214D01*
X12949643Y-17617500D01*
X12963928Y-17631786D01*
X12978214Y-17660357D01*
X12992500Y-17717500D01*
X12992500Y-17788929D01*
X12978214Y-17846072D01*
X12963928Y-17874643D01*
X12949643Y-17888929D01*
X12921071Y-17903214D01*
X12892500Y-17903214D01*
X12863928Y-17888929D01*
X12849643Y-17874643D01*
X12835357Y-17846072D01*
X12821071Y-17788929D01*
X12821071Y-17717500D01*
X12835357Y-17660357D01*
X12849643Y-17631786D01*
X12863928Y-17617500D01*
X12892500Y-17603214D01*
X13121071Y-17874643D02*
X13135357Y-17888929D01*
X13121071Y-17903214D01*
X13106786Y-17888929D01*
X13121071Y-17874643D01*
X13121071Y-17903214D01*
X13321071Y-17603214D02*
X13349643Y-17603214D01*
X13378214Y-17617500D01*
X13392500Y-17631786D01*
X13406785Y-17660357D01*
X13421071Y-17717500D01*
X13421071Y-17788929D01*
X13406785Y-17846072D01*
X13392500Y-17874643D01*
X13378214Y-17888929D01*
X13349643Y-17903214D01*
X13321071Y-17903214D01*
X13292500Y-17888929D01*
X13278214Y-17874643D01*
X13263928Y-17846072D01*
X13249643Y-17788929D01*
X13249643Y-17717500D01*
X13263928Y-17660357D01*
X13278214Y-17631786D01*
X13292500Y-17617500D01*
X13321071Y-17603214D01*
X13706785Y-17903214D02*
X13535357Y-17903214D01*
X13621071Y-17903214D02*
X13621071Y-17603214D01*
X13592500Y-17646072D01*
X13563928Y-17674643D01*
X13535357Y-17688929D01*
X13806785Y-17603214D02*
X13992500Y-17603214D01*
X13892500Y-17717500D01*
X13935357Y-17717500D01*
X13963928Y-17731786D01*
X13978214Y-17746072D01*
X13992500Y-17774643D01*
X13992500Y-17846072D01*
X13978214Y-17874643D01*
X13963928Y-17888929D01*
X13935357Y-17903214D01*
X13849643Y-17903214D01*
X13821071Y-17888929D01*
X13806785Y-17874643D01*
X14106786Y-17603214D02*
X14106786Y-17660357D01*
X14221071Y-17603214D02*
X14221071Y-17660357D01*
X14663928Y-18017500D02*
X14649643Y-18003214D01*
X14621071Y-17960357D01*
X14606785Y-17931786D01*
X14592500Y-17888929D01*
X14578214Y-17817500D01*
X14578214Y-17760357D01*
X14592500Y-17688929D01*
X14606785Y-17646072D01*
X14621071Y-17617500D01*
X14649643Y-17574643D01*
X14663928Y-17560357D01*
X14749643Y-17603214D02*
X14935357Y-17603214D01*
X14835357Y-17717500D01*
X14878214Y-17717500D01*
X14906785Y-17731786D01*
X14921071Y-17746072D01*
X14935357Y-17774643D01*
X14935357Y-17846072D01*
X14921071Y-17874643D01*
X14906785Y-17888929D01*
X14878214Y-17903214D01*
X14792500Y-17903214D01*
X14763928Y-17888929D01*
X14749643Y-17874643D01*
X15035357Y-17603214D02*
X15235357Y-17603214D01*
X15106785Y-17903214D01*
X15321071Y-17603214D02*
X15521071Y-17603214D01*
X15392500Y-17903214D01*
X15863928Y-17903214D02*
X15863928Y-17603214D01*
X15992500Y-17903214D02*
X15992500Y-17746072D01*
X15978214Y-17717500D01*
X15949643Y-17703214D01*
X15906785Y-17703214D01*
X15878214Y-17717500D01*
X15863928Y-17731786D01*
X16178214Y-17903214D02*
X16149643Y-17888929D01*
X16135357Y-17874643D01*
X16121071Y-17846072D01*
X16121071Y-17760357D01*
X16135357Y-17731786D01*
X16149643Y-17717500D01*
X16178214Y-17703214D01*
X16221071Y-17703214D01*
X16249643Y-17717500D01*
X16263928Y-17731786D01*
X16278214Y-17760357D01*
X16278214Y-17846072D01*
X16263928Y-17874643D01*
X16249643Y-17888929D01*
X16221071Y-17903214D01*
X16178214Y-17903214D01*
X16449643Y-17903214D02*
X16421071Y-17888929D01*
X16406786Y-17860357D01*
X16406786Y-17603214D01*
X16678214Y-17888929D02*
X16649643Y-17903214D01*
X16592500Y-17903214D01*
X16563928Y-17888929D01*
X16549643Y-17860357D01*
X16549643Y-17746072D01*
X16563928Y-17717500D01*
X16592500Y-17703214D01*
X16649643Y-17703214D01*
X16678214Y-17717500D01*
X16692500Y-17746072D01*
X16692500Y-17774643D01*
X16549643Y-17803214D01*
X16806786Y-17888929D02*
X16835357Y-17903214D01*
X16892500Y-17903214D01*
X16921071Y-17888929D01*
X16935357Y-17860357D01*
X16935357Y-17846072D01*
X16921071Y-17817500D01*
X16892500Y-17803214D01*
X16849643Y-17803214D01*
X16821071Y-17788929D01*
X16806786Y-17760357D01*
X16806786Y-17746072D01*
X16821071Y-17717500D01*
X16849643Y-17703214D01*
X16892500Y-17703214D01*
X16921071Y-17717500D01*
X17035357Y-18017500D02*
X17049643Y-18003214D01*
X17078214Y-17960357D01*
X17092500Y-17931786D01*
X17106786Y-17888929D01*
X17121071Y-17817500D01*
X17121071Y-17760357D01*
X17106786Y-17688929D01*
X17092500Y-17646072D01*
X17078214Y-17617500D01*
X17049643Y-17574643D01*
X17035357Y-17560357D01*
X9992500Y-18163500D02*
G75*
G03X9992500Y-18163500I-40000J0D01*
G01*
X10321071Y-17999214D02*
X10349643Y-17999214D01*
X10378214Y-18013500D01*
X10392500Y-18027786D01*
X10406786Y-18056357D01*
X10421071Y-18113500D01*
X10421071Y-18184929D01*
X10406786Y-18242072D01*
X10392500Y-18270643D01*
X10378214Y-18284929D01*
X10349643Y-18299214D01*
X10321071Y-18299214D01*
X10292500Y-18284929D01*
X10278214Y-18270643D01*
X10263929Y-18242072D01*
X10249643Y-18184929D01*
X10249643Y-18113500D01*
X10263929Y-18056357D01*
X10278214Y-18027786D01*
X10292500Y-18013500D01*
X10321071Y-17999214D01*
X10549643Y-18270643D02*
X10563929Y-18284929D01*
X10549643Y-18299214D01*
X10535357Y-18284929D01*
X10549643Y-18270643D01*
X10549643Y-18299214D01*
X10735357Y-18127786D02*
X10706786Y-18113500D01*
X10692500Y-18099214D01*
X10678214Y-18070643D01*
X10678214Y-18056357D01*
X10692500Y-18027786D01*
X10706786Y-18013500D01*
X10735357Y-17999214D01*
X10792500Y-17999214D01*
X10821071Y-18013500D01*
X10835357Y-18027786D01*
X10849643Y-18056357D01*
X10849643Y-18070643D01*
X10835357Y-18099214D01*
X10821071Y-18113500D01*
X10792500Y-18127786D01*
X10735357Y-18127786D01*
X10706786Y-18142072D01*
X10692500Y-18156357D01*
X10678214Y-18184929D01*
X10678214Y-18242072D01*
X10692500Y-18270643D01*
X10706786Y-18284929D01*
X10735357Y-18299214D01*
X10792500Y-18299214D01*
X10821071Y-18284929D01*
X10835357Y-18270643D01*
X10849643Y-18242072D01*
X10849643Y-18184929D01*
X10835357Y-18156357D01*
X10821071Y-18142072D01*
X10792500Y-18127786D01*
X11035357Y-17999214D02*
X11063929Y-17999214D01*
X11092500Y-18013500D01*
X11106786Y-18027786D01*
X11121071Y-18056357D01*
X11135357Y-18113500D01*
X11135357Y-18184929D01*
X11121071Y-18242072D01*
X11106786Y-18270643D01*
X11092500Y-18284929D01*
X11063929Y-18299214D01*
X11035357Y-18299214D01*
X11006786Y-18284929D01*
X10992500Y-18270643D01*
X10978214Y-18242072D01*
X10963929Y-18184929D01*
X10963929Y-18113500D01*
X10978214Y-18056357D01*
X10992500Y-18027786D01*
X11006786Y-18013500D01*
X11035357Y-17999214D01*
X11263928Y-18299214D02*
X11263928Y-18099214D01*
X11263928Y-18127786D02*
X11278214Y-18113500D01*
X11306786Y-18099214D01*
X11349643Y-18099214D01*
X11378214Y-18113500D01*
X11392500Y-18142072D01*
X11392500Y-18299214D01*
X11392500Y-18142072D02*
X11406786Y-18113500D01*
X11435357Y-18099214D01*
X11478214Y-18099214D01*
X11506786Y-18113500D01*
X11521071Y-18142072D01*
X11521071Y-18299214D01*
X11663928Y-18299214D02*
X11663928Y-18099214D01*
X11663928Y-18127786D02*
X11678214Y-18113500D01*
X11706786Y-18099214D01*
X11749643Y-18099214D01*
X11778214Y-18113500D01*
X11792500Y-18142072D01*
X11792500Y-18299214D01*
X11792500Y-18142072D02*
X11806786Y-18113500D01*
X11835357Y-18099214D01*
X11878214Y-18099214D01*
X11906786Y-18113500D01*
X11921071Y-18142072D01*
X11921071Y-18299214D01*
X12506786Y-17984929D02*
X12249643Y-18370643D01*
X12892500Y-17999214D02*
X12921071Y-17999214D01*
X12949643Y-18013500D01*
X12963928Y-18027786D01*
X12978214Y-18056357D01*
X12992500Y-18113500D01*
X12992500Y-18184929D01*
X12978214Y-18242072D01*
X12963928Y-18270643D01*
X12949643Y-18284929D01*
X12921071Y-18299214D01*
X12892500Y-18299214D01*
X12863928Y-18284929D01*
X12849643Y-18270643D01*
X12835357Y-18242072D01*
X12821071Y-18184929D01*
X12821071Y-18113500D01*
X12835357Y-18056357D01*
X12849643Y-18027786D01*
X12863928Y-18013500D01*
X12892500Y-17999214D01*
X13121071Y-18270643D02*
X13135357Y-18284929D01*
X13121071Y-18299214D01*
X13106786Y-18284929D01*
X13121071Y-18270643D01*
X13121071Y-18299214D01*
X13321071Y-17999214D02*
X13349643Y-17999214D01*
X13378214Y-18013500D01*
X13392500Y-18027786D01*
X13406785Y-18056357D01*
X13421071Y-18113500D01*
X13421071Y-18184929D01*
X13406785Y-18242072D01*
X13392500Y-18270643D01*
X13378214Y-18284929D01*
X13349643Y-18299214D01*
X13321071Y-18299214D01*
X13292500Y-18284929D01*
X13278214Y-18270643D01*
X13263928Y-18242072D01*
X13249643Y-18184929D01*
X13249643Y-18113500D01*
X13263928Y-18056357D01*
X13278214Y-18027786D01*
X13292500Y-18013500D01*
X13321071Y-17999214D01*
X13521071Y-17999214D02*
X13706785Y-17999214D01*
X13606785Y-18113500D01*
X13649643Y-18113500D01*
X13678214Y-18127786D01*
X13692500Y-18142072D01*
X13706785Y-18170643D01*
X13706785Y-18242072D01*
X13692500Y-18270643D01*
X13678214Y-18284929D01*
X13649643Y-18299214D01*
X13563928Y-18299214D01*
X13535357Y-18284929D01*
X13521071Y-18270643D01*
X13992500Y-18299214D02*
X13821071Y-18299214D01*
X13906785Y-18299214D02*
X13906785Y-17999214D01*
X13878214Y-18042072D01*
X13849643Y-18070643D01*
X13821071Y-18084929D01*
X14106786Y-17999214D02*
X14106786Y-18056357D01*
X14221071Y-17999214D02*
X14221071Y-18056357D01*
X14663928Y-18413500D02*
X14649643Y-18399214D01*
X14621071Y-18356357D01*
X14606785Y-18327786D01*
X14592500Y-18284929D01*
X14578214Y-18213500D01*
X14578214Y-18156357D01*
X14592500Y-18084929D01*
X14606785Y-18042072D01*
X14621071Y-18013500D01*
X14649643Y-17970643D01*
X14663928Y-17956357D01*
X14763928Y-18027786D02*
X14778214Y-18013500D01*
X14806785Y-17999214D01*
X14878214Y-17999214D01*
X14906785Y-18013500D01*
X14921071Y-18027786D01*
X14935357Y-18056357D01*
X14935357Y-18084929D01*
X14921071Y-18127786D01*
X14749643Y-18299214D01*
X14935357Y-18299214D01*
X15292500Y-18299214D02*
X15292500Y-17999214D01*
X15421071Y-18299214D02*
X15421071Y-18142072D01*
X15406785Y-18113500D01*
X15378214Y-18099214D01*
X15335357Y-18099214D01*
X15306785Y-18113500D01*
X15292500Y-18127786D01*
X15606785Y-18299214D02*
X15578214Y-18284929D01*
X15563928Y-18270643D01*
X15549643Y-18242072D01*
X15549643Y-18156357D01*
X15563928Y-18127786D01*
X15578214Y-18113500D01*
X15606785Y-18099214D01*
X15649643Y-18099214D01*
X15678214Y-18113500D01*
X15692500Y-18127786D01*
X15706785Y-18156357D01*
X15706785Y-18242072D01*
X15692500Y-18270643D01*
X15678214Y-18284929D01*
X15649643Y-18299214D01*
X15606785Y-18299214D01*
X15878214Y-18299214D02*
X15849643Y-18284929D01*
X15835357Y-18256357D01*
X15835357Y-17999214D01*
X16106786Y-18284929D02*
X16078214Y-18299214D01*
X16021071Y-18299214D01*
X15992500Y-18284929D01*
X15978214Y-18256357D01*
X15978214Y-18142072D01*
X15992500Y-18113500D01*
X16021071Y-18099214D01*
X16078214Y-18099214D01*
X16106786Y-18113500D01*
X16121071Y-18142072D01*
X16121071Y-18170643D01*
X15978214Y-18199214D01*
X16235357Y-18284929D02*
X16263928Y-18299214D01*
X16321071Y-18299214D01*
X16349643Y-18284929D01*
X16363928Y-18256357D01*
X16363928Y-18242072D01*
X16349643Y-18213500D01*
X16321071Y-18199214D01*
X16278214Y-18199214D01*
X16249643Y-18184929D01*
X16235357Y-18156357D01*
X16235357Y-18142072D01*
X16249643Y-18113500D01*
X16278214Y-18099214D01*
X16321071Y-18099214D01*
X16349643Y-18113500D01*
X16463928Y-18413500D02*
X16478214Y-18399214D01*
X16506786Y-18356357D01*
X16521071Y-18327786D01*
X16535357Y-18284929D01*
X16549643Y-18213500D01*
X16549643Y-18156357D01*
X16535357Y-18084929D01*
X16521071Y-18042072D01*
X16506786Y-18013500D01*
X16478214Y-17970643D01*
X16463928Y-17956357D01*
X9942500Y-18509500D02*
X9942500Y-18609500D01*
X9892500Y-18559500D02*
X9992500Y-18559500D01*
X10421071Y-18695214D02*
X10249643Y-18695214D01*
X10335357Y-18695214D02*
X10335357Y-18395214D01*
X10306786Y-18438072D01*
X10278214Y-18466643D01*
X10249643Y-18480929D01*
X10549643Y-18666643D02*
X10563929Y-18680929D01*
X10549643Y-18695214D01*
X10535357Y-18680929D01*
X10549643Y-18666643D01*
X10549643Y-18695214D01*
X10749643Y-18395214D02*
X10778214Y-18395214D01*
X10806786Y-18409500D01*
X10821071Y-18423786D01*
X10835357Y-18452357D01*
X10849643Y-18509500D01*
X10849643Y-18580929D01*
X10835357Y-18638072D01*
X10821071Y-18666643D01*
X10806786Y-18680929D01*
X10778214Y-18695214D01*
X10749643Y-18695214D01*
X10721071Y-18680929D01*
X10706786Y-18666643D01*
X10692500Y-18638072D01*
X10678214Y-18580929D01*
X10678214Y-18509500D01*
X10692500Y-18452357D01*
X10706786Y-18423786D01*
X10721071Y-18409500D01*
X10749643Y-18395214D01*
X11035357Y-18395214D02*
X11063929Y-18395214D01*
X11092500Y-18409500D01*
X11106786Y-18423786D01*
X11121071Y-18452357D01*
X11135357Y-18509500D01*
X11135357Y-18580929D01*
X11121071Y-18638072D01*
X11106786Y-18666643D01*
X11092500Y-18680929D01*
X11063929Y-18695214D01*
X11035357Y-18695214D01*
X11006786Y-18680929D01*
X10992500Y-18666643D01*
X10978214Y-18638072D01*
X10963929Y-18580929D01*
X10963929Y-18509500D01*
X10978214Y-18452357D01*
X10992500Y-18423786D01*
X11006786Y-18409500D01*
X11035357Y-18395214D01*
X11263928Y-18695214D02*
X11263928Y-18495214D01*
X11263928Y-18523786D02*
X11278214Y-18509500D01*
X11306786Y-18495214D01*
X11349643Y-18495214D01*
X11378214Y-18509500D01*
X11392500Y-18538072D01*
X11392500Y-18695214D01*
X11392500Y-18538072D02*
X11406786Y-18509500D01*
X11435357Y-18495214D01*
X11478214Y-18495214D01*
X11506786Y-18509500D01*
X11521071Y-18538072D01*
X11521071Y-18695214D01*
X11663928Y-18695214D02*
X11663928Y-18495214D01*
X11663928Y-18523786D02*
X11678214Y-18509500D01*
X11706786Y-18495214D01*
X11749643Y-18495214D01*
X11778214Y-18509500D01*
X11792500Y-18538072D01*
X11792500Y-18695214D01*
X11792500Y-18538072D02*
X11806786Y-18509500D01*
X11835357Y-18495214D01*
X11878214Y-18495214D01*
X11906786Y-18509500D01*
X11921071Y-18538072D01*
X11921071Y-18695214D01*
X12506786Y-18380929D02*
X12249643Y-18766643D01*
X12892500Y-18395214D02*
X12921071Y-18395214D01*
X12949643Y-18409500D01*
X12963928Y-18423786D01*
X12978214Y-18452357D01*
X12992500Y-18509500D01*
X12992500Y-18580929D01*
X12978214Y-18638072D01*
X12963928Y-18666643D01*
X12949643Y-18680929D01*
X12921071Y-18695214D01*
X12892500Y-18695214D01*
X12863928Y-18680929D01*
X12849643Y-18666643D01*
X12835357Y-18638072D01*
X12821071Y-18580929D01*
X12821071Y-18509500D01*
X12835357Y-18452357D01*
X12849643Y-18423786D01*
X12863928Y-18409500D01*
X12892500Y-18395214D01*
X13121071Y-18666643D02*
X13135357Y-18680929D01*
X13121071Y-18695214D01*
X13106786Y-18680929D01*
X13121071Y-18666643D01*
X13121071Y-18695214D01*
X13321071Y-18395214D02*
X13349643Y-18395214D01*
X13378214Y-18409500D01*
X13392500Y-18423786D01*
X13406785Y-18452357D01*
X13421071Y-18509500D01*
X13421071Y-18580929D01*
X13406785Y-18638072D01*
X13392500Y-18666643D01*
X13378214Y-18680929D01*
X13349643Y-18695214D01*
X13321071Y-18695214D01*
X13292500Y-18680929D01*
X13278214Y-18666643D01*
X13263928Y-18638072D01*
X13249643Y-18580929D01*
X13249643Y-18509500D01*
X13263928Y-18452357D01*
X13278214Y-18423786D01*
X13292500Y-18409500D01*
X13321071Y-18395214D01*
X13521071Y-18395214D02*
X13706785Y-18395214D01*
X13606785Y-18509500D01*
X13649643Y-18509500D01*
X13678214Y-18523786D01*
X13692500Y-18538072D01*
X13706785Y-18566643D01*
X13706785Y-18638072D01*
X13692500Y-18666643D01*
X13678214Y-18680929D01*
X13649643Y-18695214D01*
X13563928Y-18695214D01*
X13535357Y-18680929D01*
X13521071Y-18666643D01*
X13849643Y-18695214D02*
X13906785Y-18695214D01*
X13935357Y-18680929D01*
X13949643Y-18666643D01*
X13978214Y-18623786D01*
X13992500Y-18566643D01*
X13992500Y-18452357D01*
X13978214Y-18423786D01*
X13963928Y-18409500D01*
X13935357Y-18395214D01*
X13878214Y-18395214D01*
X13849643Y-18409500D01*
X13835357Y-18423786D01*
X13821071Y-18452357D01*
X13821071Y-18523786D01*
X13835357Y-18552357D01*
X13849643Y-18566643D01*
X13878214Y-18580929D01*
X13935357Y-18580929D01*
X13963928Y-18566643D01*
X13978214Y-18552357D01*
X13992500Y-18523786D01*
X14106786Y-18395214D02*
X14106786Y-18452357D01*
X14221071Y-18395214D02*
X14221071Y-18452357D01*
X14663928Y-18809500D02*
X14649643Y-18795214D01*
X14621071Y-18752357D01*
X14606785Y-18723786D01*
X14592500Y-18680929D01*
X14578214Y-18609500D01*
X14578214Y-18552357D01*
X14592500Y-18480929D01*
X14606785Y-18438072D01*
X14621071Y-18409500D01*
X14649643Y-18366643D01*
X14663928Y-18352357D01*
X14763928Y-18423786D02*
X14778214Y-18409500D01*
X14806785Y-18395214D01*
X14878214Y-18395214D01*
X14906785Y-18409500D01*
X14921071Y-18423786D01*
X14935357Y-18452357D01*
X14935357Y-18480929D01*
X14921071Y-18523786D01*
X14749643Y-18695214D01*
X14935357Y-18695214D01*
X15121071Y-18395214D02*
X15149643Y-18395214D01*
X15178214Y-18409500D01*
X15192500Y-18423786D01*
X15206785Y-18452357D01*
X15221071Y-18509500D01*
X15221071Y-18580929D01*
X15206785Y-18638072D01*
X15192500Y-18666643D01*
X15178214Y-18680929D01*
X15149643Y-18695214D01*
X15121071Y-18695214D01*
X15092500Y-18680929D01*
X15078214Y-18666643D01*
X15063928Y-18638072D01*
X15049643Y-18580929D01*
X15049643Y-18509500D01*
X15063928Y-18452357D01*
X15078214Y-18423786D01*
X15092500Y-18409500D01*
X15121071Y-18395214D01*
X15578214Y-18695214D02*
X15578214Y-18395214D01*
X15706785Y-18695214D02*
X15706785Y-18538072D01*
X15692500Y-18509500D01*
X15663928Y-18495214D01*
X15621071Y-18495214D01*
X15592500Y-18509500D01*
X15578214Y-18523786D01*
X15892500Y-18695214D02*
X15863928Y-18680929D01*
X15849643Y-18666643D01*
X15835357Y-18638072D01*
X15835357Y-18552357D01*
X15849643Y-18523786D01*
X15863928Y-18509500D01*
X15892500Y-18495214D01*
X15935357Y-18495214D01*
X15963928Y-18509500D01*
X15978214Y-18523786D01*
X15992500Y-18552357D01*
X15992500Y-18638072D01*
X15978214Y-18666643D01*
X15963928Y-18680929D01*
X15935357Y-18695214D01*
X15892500Y-18695214D01*
X16163928Y-18695214D02*
X16135357Y-18680929D01*
X16121071Y-18652357D01*
X16121071Y-18395214D01*
X16392500Y-18680929D02*
X16363928Y-18695214D01*
X16306786Y-18695214D01*
X16278214Y-18680929D01*
X16263928Y-18652357D01*
X16263928Y-18538072D01*
X16278214Y-18509500D01*
X16306786Y-18495214D01*
X16363928Y-18495214D01*
X16392500Y-18509500D01*
X16406786Y-18538072D01*
X16406786Y-18566643D01*
X16263928Y-18595214D01*
X16521071Y-18680929D02*
X16549643Y-18695214D01*
X16606786Y-18695214D01*
X16635357Y-18680929D01*
X16649643Y-18652357D01*
X16649643Y-18638072D01*
X16635357Y-18609500D01*
X16606786Y-18595214D01*
X16563928Y-18595214D01*
X16535357Y-18580929D01*
X16521071Y-18552357D01*
X16521071Y-18538072D01*
X16535357Y-18509500D01*
X16563928Y-18495214D01*
X16606786Y-18495214D01*
X16635357Y-18509500D01*
X16749643Y-18809500D02*
X16763928Y-18795214D01*
X16792500Y-18752357D01*
X16806786Y-18723786D01*
X16821071Y-18680929D01*
X16835357Y-18609500D01*
X16835357Y-18552357D01*
X16821071Y-18480929D01*
X16806786Y-18438072D01*
X16792500Y-18409500D01*
X16763928Y-18366643D01*
X16749643Y-18352357D01*
M02*
