G04 #@! TF.FileFunction,Copper,L4,Bot,Signal*
%FSLAX46Y46*%
G04 Gerber Fmt 4.6, Leading zero omitted, Abs format (unit mm)*
G04 Created by KiCad (PCBNEW 4.0.7) date Wed Apr 18 22:53:30 2018*
%MOMM*%
%LPD*%
G01*
G04 APERTURE LIST*
%ADD10C,0.100000*%
%ADD11R,2.500000X2.000000*%
%ADD12R,1.250000X1.500000*%
%ADD13R,0.750000X1.200000*%
%ADD14R,1.500000X1.250000*%
%ADD15R,1.200000X0.750000*%
%ADD16R,2.000000X2.500000*%
%ADD17R,1.600000X1.600000*%
%ADD18C,1.600000*%
%ADD19R,1.500000X3.950000*%
%ADD20R,1.700000X1.700000*%
%ADD21O,1.700000X1.700000*%
%ADD22R,0.500000X0.600000*%
%ADD23R,5.700000X1.600000*%
%ADD24R,0.400000X0.600000*%
%ADD25R,0.600000X0.400000*%
%ADD26R,0.900000X1.200000*%
%ADD27C,2.200000*%
%ADD28R,3.300000X3.000000*%
%ADD29R,1.560000X0.650000*%
%ADD30R,1.220000X0.600000*%
%ADD31R,2.500000X1.000000*%
%ADD32R,4.000000X2.000000*%
%ADD33R,0.500000X1.473000*%
%ADD34R,3.800000X2.000000*%
%ADD35R,1.500000X2.000000*%
%ADD36C,0.685800*%
%ADD37C,0.381000*%
%ADD38C,0.250000*%
%ADD39C,0.762000*%
%ADD40C,0.152400*%
%ADD41C,0.254000*%
G04 APERTURE END LIST*
D10*
D11*
X104950000Y-140300000D03*
X104950000Y-144300000D03*
D12*
X107650000Y-140700000D03*
X107650000Y-143200000D03*
D13*
X109350000Y-141000000D03*
X109350000Y-142900000D03*
X110950000Y-141000000D03*
X110950000Y-142900000D03*
X108050000Y-137100000D03*
X108050000Y-135200000D03*
X109550000Y-137100000D03*
X109550000Y-135200000D03*
D14*
X134500000Y-161700000D03*
X132000000Y-161700000D03*
D15*
X134200000Y-159600000D03*
X132300000Y-159600000D03*
D13*
X119400000Y-131050000D03*
X119400000Y-132950000D03*
D14*
X108000000Y-121400000D03*
X105500000Y-121400000D03*
D15*
X107800000Y-123100000D03*
X105900000Y-123100000D03*
D16*
X124000000Y-140300000D03*
X128000000Y-140300000D03*
X124150000Y-136850000D03*
X128150000Y-136850000D03*
D14*
X136000000Y-126400000D03*
X133500000Y-126400000D03*
D15*
X135800000Y-128350000D03*
X133900000Y-128350000D03*
D12*
X114400000Y-134100000D03*
X114400000Y-136600000D03*
D15*
X104000000Y-155400000D03*
X105900000Y-155400000D03*
D17*
X108950000Y-160150000D03*
D18*
X108950000Y-162150000D03*
D14*
X103650000Y-157100000D03*
X106150000Y-157100000D03*
D19*
X139730000Y-103150000D03*
X145270000Y-103150000D03*
D20*
X106250000Y-104580000D03*
D21*
X106250000Y-107120000D03*
X106250000Y-109660000D03*
X106250000Y-112200000D03*
D19*
X144320000Y-164850000D03*
X138780000Y-164850000D03*
D20*
X110050000Y-153460000D03*
D21*
X110050000Y-156000000D03*
D20*
X103700000Y-159860000D03*
D21*
X103700000Y-162400000D03*
D22*
X112250000Y-142550000D03*
X112250000Y-141450000D03*
D23*
X118950000Y-141000000D03*
X118950000Y-136300000D03*
D24*
X110850000Y-138700000D03*
X109950000Y-138700000D03*
X108750000Y-138700000D03*
X107850000Y-138700000D03*
D25*
X113300000Y-126900000D03*
X113300000Y-127800000D03*
D26*
X113300000Y-129200000D03*
X113300000Y-131400000D03*
D27*
X120550000Y-151900000D03*
X118050000Y-151900000D03*
X123050000Y-151900000D03*
D28*
X124950000Y-158900000D03*
X116150000Y-158900000D03*
D29*
X132050000Y-154150000D03*
X132050000Y-153200000D03*
X132050000Y-152250000D03*
X134750000Y-152250000D03*
X134750000Y-154150000D03*
X132050000Y-150250000D03*
X132050000Y-149300000D03*
X132050000Y-148350000D03*
X134750000Y-148350000D03*
X134750000Y-150250000D03*
D30*
X131940000Y-157000000D03*
X131940000Y-157950000D03*
X131940000Y-156050000D03*
X134560000Y-157950000D03*
X134560000Y-156050000D03*
D31*
X108210000Y-124750000D03*
X108210000Y-126250000D03*
X108210000Y-127750000D03*
D32*
X104250000Y-126250000D03*
D10*
G36*
X106975000Y-126750000D02*
X106225000Y-127250000D01*
X106225000Y-125250000D01*
X106975000Y-125750000D01*
X106975000Y-126750000D01*
X106975000Y-126750000D01*
G37*
D33*
X117000000Y-133262000D03*
X117000000Y-130900000D03*
X116050000Y-130900000D03*
X117950000Y-130900000D03*
X117950000Y-133262000D03*
X116050000Y-133262000D03*
D34*
X133700000Y-136900000D03*
D35*
X133700000Y-130600000D03*
X136000000Y-130600000D03*
X131400000Y-130600000D03*
D20*
X128050000Y-104960000D03*
D21*
X128050000Y-107500000D03*
X128050000Y-110040000D03*
D20*
X126644400Y-128333500D03*
D21*
X126644400Y-130873500D03*
X126644400Y-133413500D03*
D20*
X128993900Y-155790900D03*
D21*
X128993900Y-153250900D03*
X128993900Y-150710900D03*
D36*
X116600000Y-118800000D03*
X129300000Y-161400000D03*
X129950000Y-166250000D03*
X132800000Y-164600000D03*
X135950000Y-165950000D03*
X134500000Y-153150000D03*
X134700000Y-155050000D03*
X134900000Y-156950000D03*
X135300000Y-160350000D03*
X135450000Y-163500000D03*
X122050000Y-107250000D03*
X119600000Y-109900000D03*
X116750000Y-109897711D03*
X114400000Y-109950000D03*
X131300000Y-103650000D03*
X109250000Y-114150000D03*
X102300000Y-115200000D03*
X103250000Y-101300000D03*
X101600000Y-105650000D03*
X103700000Y-108850000D03*
X101600000Y-112950000D03*
X106250000Y-115950000D03*
X114600000Y-117900000D03*
X115400000Y-121900000D03*
X134950000Y-106900000D03*
X137750000Y-113700000D03*
X127300000Y-122800000D03*
X127200000Y-118500000D03*
X117150000Y-101100000D03*
X122350000Y-101900000D03*
X129050000Y-115600000D03*
X125800000Y-115150000D03*
X125800000Y-112550000D03*
X125350000Y-108800000D03*
X124650000Y-105150000D03*
X127950000Y-101650000D03*
X131950000Y-106550000D03*
X133050000Y-103250000D03*
X136700000Y-102500000D03*
X137150000Y-106500000D03*
X138750000Y-109250000D03*
X137900000Y-157050000D03*
X137650000Y-160650000D03*
X137800000Y-124650000D03*
X136400000Y-121300000D03*
X147900000Y-132000000D03*
X148350000Y-129400000D03*
X148500000Y-126500000D03*
X146850000Y-122850000D03*
X150750000Y-120850000D03*
X148200000Y-118000000D03*
X150450000Y-115250000D03*
X148900000Y-111300000D03*
X150400000Y-108950000D03*
X147900000Y-102450000D03*
X148100000Y-105750000D03*
X146550000Y-108900000D03*
X146300000Y-112350000D03*
X146050000Y-115050000D03*
X143450000Y-116700000D03*
X143600000Y-113800000D03*
X143600000Y-110650000D03*
X143600000Y-107200000D03*
X141400000Y-107250000D03*
X141400000Y-110650000D03*
X141500000Y-113650000D03*
X141550000Y-116400000D03*
X138750000Y-116250000D03*
X136500000Y-116250000D03*
X136550000Y-118450000D03*
X138750000Y-118450000D03*
X141750000Y-118350000D03*
X140250000Y-120500000D03*
X145550000Y-127900000D03*
X145450000Y-130550000D03*
X139050000Y-131400000D03*
X141450000Y-131900000D03*
X144150000Y-131950000D03*
X142650000Y-142200000D03*
X148100000Y-139400000D03*
X150000000Y-146350000D03*
X144750000Y-148500000D03*
X147100000Y-149250000D03*
X150250000Y-149800000D03*
X149050000Y-152200000D03*
X150250000Y-154150000D03*
X149450000Y-157200000D03*
X150350000Y-159950000D03*
X149150000Y-162100000D03*
X149850000Y-165250000D03*
X147050000Y-166400000D03*
X147500000Y-163750000D03*
X146400000Y-161450000D03*
X147100000Y-159250000D03*
X147000000Y-157450000D03*
X145750000Y-155100000D03*
X142800000Y-155150000D03*
X144100000Y-156450000D03*
X144700000Y-159950000D03*
X142650000Y-158950000D03*
X142650000Y-160900000D03*
X137800000Y-139900000D03*
X137300000Y-142400000D03*
X134500000Y-143400000D03*
X134500000Y-146500000D03*
X138200000Y-144950000D03*
X136800000Y-147350000D03*
X137650000Y-149600000D03*
X140300000Y-149500000D03*
X139500000Y-151600000D03*
X140450000Y-158950000D03*
X140550000Y-160950000D03*
X107199231Y-138779051D03*
X113300000Y-131400000D03*
X143306800Y-153009600D03*
X147750000Y-151900000D03*
X134099300Y-129946400D03*
X133261100Y-131203700D03*
X112464190Y-144194645D03*
X109893090Y-133900000D03*
X132337381Y-119552611D03*
X131500000Y-119350000D03*
X131622800Y-121424700D03*
X131102100Y-120878600D03*
X145300000Y-104600000D03*
X145300000Y-103700000D03*
X145300000Y-102700000D03*
X145300000Y-101700000D03*
X139700000Y-103700000D03*
X139700000Y-104600000D03*
X139700000Y-101700000D03*
X139730000Y-102700000D03*
X115600000Y-135000000D03*
X128780473Y-133456934D03*
X128744645Y-136044645D03*
X130450000Y-134250000D03*
X125645302Y-136400000D03*
X113100000Y-134900000D03*
X107550000Y-155950000D03*
X107450000Y-155250000D03*
X144300000Y-166400000D03*
X144300000Y-164400000D03*
X138800000Y-166400000D03*
X138800000Y-165400000D03*
X144300000Y-163400000D03*
X138800000Y-163400000D03*
X144320000Y-165400000D03*
X138780000Y-164300000D03*
X118650000Y-142700000D03*
X118650000Y-143750000D03*
X128600000Y-139700000D03*
X128700000Y-137600000D03*
X128700000Y-136800000D03*
X142650000Y-145950000D03*
X142600000Y-152550000D03*
X141750000Y-151950000D03*
X141100000Y-151950000D03*
X131950000Y-147200000D03*
X130750000Y-152250000D03*
X132300000Y-159600000D03*
X132000000Y-161700000D03*
X146250000Y-138150000D03*
X141850000Y-145400000D03*
X141150000Y-145400000D03*
X139550000Y-147950000D03*
X139600000Y-147300000D03*
X140350000Y-147550000D03*
X139322721Y-134600000D03*
X139322721Y-135300000D03*
X139522721Y-128500000D03*
X139522721Y-129250000D03*
X142450000Y-156550000D03*
X140650000Y-156550000D03*
X139450000Y-154700000D03*
X139450000Y-154000000D03*
X143450000Y-156900000D03*
X143400000Y-156050000D03*
X139600000Y-156950000D03*
X139700000Y-156200000D03*
X124715984Y-121265869D03*
X146315380Y-144676310D03*
X118750000Y-118150000D03*
X118896719Y-107927539D03*
X103100000Y-126250000D03*
X104250000Y-121900000D03*
X104250000Y-121000000D03*
X105500000Y-121400000D03*
X105900000Y-123100000D03*
X108210000Y-126250000D03*
X104250000Y-126250000D03*
X122500000Y-142250000D03*
X122600000Y-142850000D03*
X129719645Y-135069645D03*
X133900000Y-128350000D03*
X133311900Y-129946400D03*
X134099300Y-131229100D03*
X134800000Y-139100000D03*
X133850000Y-139100000D03*
X132850000Y-139000000D03*
X129800000Y-140200000D03*
X129600000Y-139200000D03*
X117950000Y-134450000D03*
X118450000Y-133900000D03*
X117950000Y-133262000D03*
X107500000Y-157600000D03*
X107500000Y-156750000D03*
X124950000Y-118750000D03*
X129050000Y-114000000D03*
X129550000Y-111850000D03*
X136150000Y-111950000D03*
X135550000Y-114450000D03*
X118050000Y-118150000D03*
X118350000Y-117450000D03*
X135621751Y-113178249D03*
X135883883Y-110466117D03*
X133809941Y-115959941D03*
X140500000Y-123900000D03*
X140850000Y-124450000D03*
X140854698Y-123350000D03*
X144650000Y-124650000D03*
X144950000Y-124000000D03*
X144645302Y-123400000D03*
X145800000Y-118150000D03*
X145800000Y-117450000D03*
X145100000Y-117700000D03*
X130000000Y-137650000D03*
X130000000Y-136950000D03*
X131550000Y-137400000D03*
X141450000Y-130350000D03*
X142200000Y-130300000D03*
X144400000Y-129300000D03*
X144450000Y-128550000D03*
X143650000Y-133600000D03*
X147000000Y-146100000D03*
X147750000Y-152600000D03*
X119400000Y-113750000D03*
X119000000Y-112050000D03*
X144200000Y-122250000D03*
X143350000Y-122250000D03*
X148000000Y-146500000D03*
X147950000Y-145850000D03*
X147100000Y-144600000D03*
X150050000Y-144750000D03*
X149550000Y-145250000D03*
X148664214Y-143864214D03*
X148150000Y-135150000D03*
X144400000Y-135350000D03*
X144400000Y-134650000D03*
X145400000Y-137000000D03*
X145350000Y-136350000D03*
X146250000Y-137500000D03*
X145150000Y-137900000D03*
X142450000Y-140600000D03*
X142500000Y-139950000D03*
X138650000Y-140300000D03*
X138650000Y-139650000D03*
X118850000Y-108550000D03*
X117457717Y-103144661D03*
X114455920Y-103021359D03*
X110750000Y-110200000D03*
X115750000Y-112450000D03*
X115050000Y-112500000D03*
X118150000Y-103100000D03*
X119300000Y-103500000D03*
X117600000Y-104250000D03*
X113800000Y-103000000D03*
X124700000Y-120550000D03*
X124700000Y-119550000D03*
X112650000Y-103500000D03*
X114350000Y-104250000D03*
X129700000Y-113100000D03*
X130766058Y-111552120D03*
X133322791Y-118802303D03*
X133850000Y-118300000D03*
X120450000Y-146200000D03*
X132350000Y-117750000D03*
X131550000Y-117750000D03*
X132400000Y-116900000D03*
X129800000Y-126350000D03*
X133900000Y-116400000D03*
X131550000Y-116900000D03*
X110100000Y-116850000D03*
X105500000Y-119800000D03*
X123200000Y-110250000D03*
X123050000Y-113300000D03*
X116000000Y-116650000D03*
X122550000Y-126020302D03*
X121850000Y-126000000D03*
X119850000Y-121000000D03*
X120150000Y-120200000D03*
X130750000Y-156950000D03*
X145618200Y-150482300D03*
X145050000Y-150400000D03*
X144830800Y-145223690D03*
X145465800Y-145173700D03*
X109300000Y-120850000D03*
X127850000Y-124750000D03*
X131940000Y-157950000D03*
X131940000Y-156050000D03*
X123150000Y-118750000D03*
X123850000Y-118750000D03*
X123850000Y-121400000D03*
X108000000Y-121400000D03*
X109250000Y-121750000D03*
X133150000Y-124600000D03*
X118000000Y-112450000D03*
X117250000Y-112400000D03*
X121100000Y-113300000D03*
X117567909Y-107202247D03*
X119300000Y-106000000D03*
X117600000Y-106150000D03*
X118200000Y-107104698D03*
X112650000Y-106000000D03*
X114350000Y-106150000D03*
X113700000Y-107200000D03*
X114350000Y-107200000D03*
X136410700Y-131229100D03*
X136410700Y-129971800D03*
X128917700Y-120434100D03*
X128498600Y-119862600D03*
X119450000Y-144500000D03*
X120500000Y-144600000D03*
X119600000Y-142850000D03*
X120700000Y-142850000D03*
X134200000Y-134250000D03*
X134278249Y-114521751D03*
X130789796Y-114656388D03*
X134116117Y-112233883D03*
X132200000Y-113600000D03*
X137200000Y-126400000D03*
X136000000Y-126400000D03*
X135572500Y-129946400D03*
X135572500Y-131254500D03*
X132350000Y-133550000D03*
X132350000Y-134250000D03*
X133450000Y-113850000D03*
X133450000Y-113350000D03*
X105665117Y-138239490D03*
X106031223Y-136868873D03*
X112250000Y-138900000D03*
X104813100Y-138925300D03*
X110200000Y-128000000D03*
X110100000Y-127200000D03*
X113650000Y-126200000D03*
X113050000Y-126200000D03*
X130150000Y-131300000D03*
X130150000Y-130450000D03*
X130250000Y-129750000D03*
X123300000Y-134900000D03*
X124100000Y-134950000D03*
X124850000Y-135050000D03*
X114200000Y-144500000D03*
X102200000Y-154800000D03*
X102200000Y-155700000D03*
X114550000Y-133800000D03*
X114500000Y-133100000D03*
X115250000Y-133750000D03*
X115200000Y-133050000D03*
X102150000Y-157650000D03*
X102200000Y-156600000D03*
X125250000Y-125550000D03*
X130067198Y-117602000D03*
X128244600Y-123456700D03*
X134750000Y-152250000D03*
X134750000Y-148350000D03*
X142700000Y-133550000D03*
X137500000Y-134400000D03*
X137450000Y-133650000D03*
X142050000Y-133500000D03*
X136400000Y-134250000D03*
X130800000Y-146900000D03*
X139809330Y-127640670D03*
X130900000Y-143800000D03*
X139800000Y-126750000D03*
X110750000Y-144600000D03*
X103650000Y-151300000D03*
X102950000Y-144100000D03*
D37*
X114600000Y-117900000D02*
X115700000Y-117900000D01*
X115700000Y-117900000D02*
X116600000Y-118800000D01*
X119600000Y-109900000D02*
X119600000Y-109700000D01*
X119600000Y-109700000D02*
X122050000Y-107250000D01*
X116697711Y-109950000D02*
X116750000Y-109897711D01*
X114400000Y-109950000D02*
X116697711Y-109950000D01*
X105950000Y-115650000D02*
X103250000Y-112950000D01*
X106250000Y-115950000D02*
X105950000Y-115650000D01*
X107750000Y-115650000D02*
X109250000Y-114150000D01*
X105950000Y-115650000D02*
X107750000Y-115650000D01*
X106250000Y-115950000D02*
X103050000Y-115950000D01*
X103050000Y-115950000D02*
X102300000Y-115200000D01*
X103700000Y-108850000D02*
X103700000Y-107750000D01*
X103700000Y-107750000D02*
X101600000Y-105650000D01*
X103250000Y-112950000D02*
X101600000Y-112950000D01*
X115400000Y-121900000D02*
X114600000Y-121100000D01*
X114600000Y-121100000D02*
X114600000Y-117900000D01*
X135883883Y-110466117D02*
X135883883Y-107833883D01*
X135883883Y-107833883D02*
X134950000Y-106900000D01*
X137750000Y-113700000D02*
X136143502Y-113700000D01*
X136143502Y-113700000D02*
X135621751Y-113178249D01*
X127200000Y-118500000D02*
X127200000Y-122700000D01*
X127200000Y-122700000D02*
X127300000Y-122800000D01*
X122350000Y-101900000D02*
X121550000Y-101100000D01*
X121550000Y-101100000D02*
X117150000Y-101100000D01*
X125800000Y-112550000D02*
X125800000Y-115150000D01*
X124650000Y-105150000D02*
X124650000Y-108100000D01*
X124650000Y-108100000D02*
X125350000Y-108800000D01*
X131950000Y-106550000D02*
X127950000Y-102550000D01*
X127950000Y-102550000D02*
X127950000Y-101650000D01*
X136700000Y-102500000D02*
X133800000Y-102500000D01*
X133800000Y-102500000D02*
X133050000Y-103250000D01*
X138750000Y-109250000D02*
X138750000Y-108100000D01*
X138750000Y-108100000D02*
X137150000Y-106500000D01*
X137650000Y-160650000D02*
X137650000Y-157300000D01*
X137650000Y-157300000D02*
X137900000Y-157050000D01*
X136400000Y-121300000D02*
X137800000Y-122700000D01*
X137800000Y-122700000D02*
X137800000Y-124650000D01*
X147900000Y-132000000D02*
X147900000Y-134900000D01*
X147900000Y-134900000D02*
X148150000Y-135150000D01*
X148500000Y-126500000D02*
X148500000Y-129250000D01*
X148500000Y-129250000D02*
X148350000Y-129400000D01*
X150750000Y-120850000D02*
X148850000Y-120850000D01*
X148850000Y-120850000D02*
X146850000Y-122850000D01*
X150450000Y-115250000D02*
X150450000Y-115750000D01*
X150450000Y-115750000D02*
X148200000Y-118000000D01*
X150400000Y-108950000D02*
X150400000Y-109800000D01*
X150400000Y-109800000D02*
X148900000Y-111300000D01*
X148100000Y-105750000D02*
X148100000Y-102650000D01*
X148100000Y-102650000D02*
X147900000Y-102450000D01*
X146300000Y-112350000D02*
X146300000Y-109150000D01*
X146300000Y-109150000D02*
X146550000Y-108900000D01*
X143450000Y-116700000D02*
X144400000Y-116700000D01*
X144400000Y-116700000D02*
X146050000Y-115050000D01*
X143550000Y-110650000D02*
X143550000Y-113750000D01*
X143550000Y-113750000D02*
X143600000Y-113800000D01*
X145300000Y-104600000D02*
X145300000Y-105500000D01*
X145300000Y-105500000D02*
X143600000Y-107200000D01*
X141400000Y-107250000D02*
X141400000Y-106300000D01*
X141400000Y-106300000D02*
X139700000Y-104600000D01*
X141500000Y-113650000D02*
X141500000Y-110700000D01*
X141500000Y-110700000D02*
X141550000Y-110650000D01*
X138750000Y-116400000D02*
X141550000Y-116400000D01*
X133900000Y-116400000D02*
X136450000Y-116400000D01*
X136450000Y-116400000D02*
X136500000Y-116350000D01*
X136550000Y-118350000D02*
X133900000Y-118350000D01*
X133900000Y-118350000D02*
X133850000Y-118300000D01*
X141750000Y-118350000D02*
X138800000Y-118350000D01*
X138800000Y-118350000D02*
X138750000Y-118300000D01*
X140854698Y-123350000D02*
X140854698Y-121104698D01*
X140854698Y-121104698D02*
X140250000Y-120500000D01*
X145550000Y-127900000D02*
X145550000Y-125550000D01*
X145550000Y-125550000D02*
X144650000Y-124650000D01*
X144150000Y-131950000D02*
X144150000Y-131850000D01*
X144150000Y-131850000D02*
X145450000Y-130550000D01*
X144150000Y-131950000D02*
X141500000Y-131950000D01*
X141500000Y-131950000D02*
X141450000Y-131900000D01*
X142650000Y-142200000D02*
X142650000Y-140800000D01*
X142650000Y-140800000D02*
X142450000Y-140600000D01*
X150000000Y-146350000D02*
X150000000Y-141300000D01*
X150000000Y-141300000D02*
X148100000Y-139400000D01*
X147100000Y-149250000D02*
X145500000Y-149250000D01*
X145500000Y-149250000D02*
X144750000Y-148500000D01*
X149050000Y-152200000D02*
X149050000Y-151000000D01*
X149050000Y-151000000D02*
X150250000Y-149800000D01*
X149450000Y-157200000D02*
X149450000Y-154950000D01*
X149450000Y-154950000D02*
X150250000Y-154150000D01*
X149150000Y-162100000D02*
X149150000Y-161150000D01*
X149150000Y-161150000D02*
X150350000Y-159950000D01*
X147050000Y-166400000D02*
X148700000Y-166400000D01*
X148700000Y-166400000D02*
X149850000Y-165250000D01*
X146400000Y-161450000D02*
X146400000Y-162650000D01*
X146400000Y-162650000D02*
X147500000Y-163750000D01*
X147000000Y-157450000D02*
X147000000Y-159150000D01*
X147000000Y-159150000D02*
X147100000Y-159250000D01*
X142800000Y-155150000D02*
X145700000Y-155150000D01*
X145700000Y-155150000D02*
X145750000Y-155100000D01*
X144700000Y-159950000D02*
X144700000Y-157050000D01*
X144700000Y-157050000D02*
X144100000Y-156450000D01*
X142600000Y-160900000D02*
X142600000Y-159100000D01*
X137300000Y-142400000D02*
X137300000Y-140400000D01*
X137300000Y-140400000D02*
X137800000Y-139900000D01*
X134500000Y-146500000D02*
X134500000Y-143400000D01*
X136800000Y-147350000D02*
X136800000Y-146350000D01*
X136800000Y-146350000D02*
X138200000Y-144950000D01*
X140300000Y-149500000D02*
X137750000Y-149500000D01*
X137750000Y-149500000D02*
X137650000Y-149600000D01*
X140550000Y-160950000D02*
X140550000Y-158950000D01*
D38*
X107278282Y-138700000D02*
X107199231Y-138779051D01*
X107850000Y-138700000D02*
X107278282Y-138700000D01*
D39*
X133900000Y-128350000D02*
X133900000Y-130400000D01*
X133900000Y-130400000D02*
X133700000Y-130600000D01*
D40*
X134099300Y-131229100D02*
X134099300Y-130999300D01*
X134099300Y-130999300D02*
X133700000Y-130600000D01*
X133700000Y-131600000D02*
X133700000Y-130600000D01*
D37*
X112019645Y-144194645D02*
X112464190Y-144194645D01*
X110950000Y-143125000D02*
X112019645Y-144194645D01*
X110950000Y-142900000D02*
X110950000Y-143125000D01*
D39*
X109550000Y-134243090D02*
X109550191Y-134242899D01*
X109550000Y-135200000D02*
X109550000Y-134243090D01*
X109550191Y-134242899D02*
X109893090Y-133900000D01*
X104250000Y-126250000D02*
X104250000Y-124750000D01*
X104250000Y-124750000D02*
X105900000Y-123100000D01*
X114400000Y-136600000D02*
X115558401Y-135441599D01*
X115558401Y-135441599D02*
X115558401Y-135041599D01*
X115558401Y-135041599D02*
X115600000Y-135000000D01*
X114400000Y-136600000D02*
X113100000Y-135300000D01*
X113100000Y-135300000D02*
X113100000Y-134900000D01*
X105900000Y-155400000D02*
X107000000Y-155400000D01*
X107000000Y-155400000D02*
X107550000Y-155950000D01*
X105900000Y-155400000D02*
X107300000Y-155400000D01*
X107300000Y-155400000D02*
X107450000Y-155250000D01*
D37*
X144320000Y-164850000D02*
X145150000Y-164850000D01*
X118650000Y-143750000D02*
X118650000Y-142700000D01*
D39*
X113950000Y-141150000D02*
X116550000Y-143750000D01*
X116550000Y-143750000D02*
X118650000Y-143750000D01*
X113950000Y-136235798D02*
X113950000Y-141150000D01*
D38*
X132050000Y-148350000D02*
X132050000Y-147300000D01*
X132050000Y-147300000D02*
X131950000Y-147200000D01*
X132050000Y-152250000D02*
X130750000Y-152250000D01*
X131940000Y-157000000D02*
X130800000Y-157000000D01*
X130800000Y-157000000D02*
X130750000Y-156950000D01*
D39*
X104250000Y-126250000D02*
X104250000Y-125750000D01*
D37*
X105500000Y-121400000D02*
X104650000Y-121400000D01*
X104650000Y-121400000D02*
X104250000Y-121000000D01*
X106600000Y-126250000D02*
X104250000Y-126250000D01*
X108210000Y-126250000D02*
X106600000Y-126250000D01*
D39*
X133500000Y-126400000D02*
X133500000Y-127950000D01*
X133500000Y-127950000D02*
X133900000Y-128350000D01*
X133700000Y-136900000D02*
X133700000Y-138000000D01*
X133700000Y-138000000D02*
X134800000Y-139100000D01*
X133700000Y-136900000D02*
X133700000Y-138950000D01*
X133700000Y-138950000D02*
X133850000Y-139100000D01*
X133700000Y-136900000D02*
X133700000Y-138150000D01*
X133700000Y-138150000D02*
X132850000Y-139000000D01*
X129600000Y-139200000D02*
X129600000Y-140000000D01*
X129600000Y-140000000D02*
X129800000Y-140200000D01*
X128000000Y-140300000D02*
X129700000Y-140300000D01*
X129700000Y-140300000D02*
X129800000Y-140200000D01*
X128000000Y-140300000D02*
X128500000Y-140300000D01*
X128500000Y-140300000D02*
X129600000Y-139200000D01*
D37*
X113300000Y-131400000D02*
X113300000Y-132750000D01*
X113300000Y-132750000D02*
X113350000Y-132800000D01*
D39*
X117950000Y-133262000D02*
X117950000Y-134450000D01*
X117950000Y-133262000D02*
X117950000Y-133400000D01*
X117950000Y-133400000D02*
X118450000Y-133900000D01*
X106150000Y-157100000D02*
X107000000Y-157100000D01*
X107000000Y-157100000D02*
X107500000Y-157600000D01*
X106150000Y-157100000D02*
X107150000Y-157100000D01*
X107150000Y-157100000D02*
X107500000Y-156750000D01*
X103700000Y-162400000D02*
X108700000Y-162400000D01*
X108700000Y-162400000D02*
X108950000Y-162150000D01*
D37*
X108050000Y-135200000D02*
X109550000Y-135200000D01*
D39*
X109350000Y-142900000D02*
X110950000Y-142900000D01*
X107650000Y-143200000D02*
X109050000Y-143200000D01*
X109050000Y-143200000D02*
X109350000Y-142900000D01*
X104950000Y-144300000D02*
X106550000Y-144300000D01*
X106550000Y-144300000D02*
X107650000Y-143200000D01*
D38*
X128000000Y-124600000D02*
X127850000Y-124750000D01*
X133150000Y-124600000D02*
X128000000Y-124600000D01*
D39*
X108000000Y-121400000D02*
X108750000Y-121400000D01*
X108750000Y-121400000D02*
X109300000Y-120850000D01*
X108000000Y-121400000D02*
X108900000Y-121400000D01*
X108900000Y-121400000D02*
X109250000Y-121750000D01*
X107800000Y-123100000D02*
X107800000Y-121600000D01*
X107800000Y-121600000D02*
X108000000Y-121400000D01*
X108210000Y-124750000D02*
X108210000Y-123510000D01*
X108210000Y-123510000D02*
X107800000Y-123100000D01*
X135800000Y-128350000D02*
X135800000Y-126600000D01*
X135800000Y-126600000D02*
X136000000Y-126400000D01*
X135800000Y-128350000D02*
X135800000Y-130400000D01*
X135800000Y-130400000D02*
X136000000Y-130600000D01*
D40*
X135572500Y-131254500D02*
X135572500Y-131027500D01*
X135572500Y-131027500D02*
X136000000Y-130600000D01*
D37*
X106262350Y-137100000D02*
X106031223Y-136868873D01*
X106804607Y-137100000D02*
X106008016Y-137896591D01*
X108050000Y-137100000D02*
X106804607Y-137100000D01*
X108050000Y-137100000D02*
X106262350Y-137100000D01*
X106008016Y-137896591D02*
X105665117Y-138239490D01*
X107950000Y-137200000D02*
X108050000Y-137100000D01*
X109550000Y-137100000D02*
X109550000Y-138300000D01*
X109550000Y-138300000D02*
X109950000Y-138700000D01*
X109950000Y-138700000D02*
X108750000Y-138700000D01*
X109550000Y-137100000D02*
X108050000Y-137100000D01*
X112250000Y-138900000D02*
X110450000Y-137100000D01*
X110450000Y-137100000D02*
X109550000Y-137100000D01*
X104813100Y-138925300D02*
X104813100Y-140163100D01*
X104813100Y-140163100D02*
X104950000Y-140300000D01*
D40*
X111050000Y-138716481D02*
X111093916Y-138760397D01*
X111050000Y-138700000D02*
X111050000Y-138716481D01*
D37*
X110950000Y-141000000D02*
X111800000Y-141000000D01*
X111800000Y-141000000D02*
X112250000Y-141450000D01*
X110850000Y-138700000D02*
X110850000Y-140900000D01*
X110850000Y-140900000D02*
X110950000Y-141000000D01*
D39*
X109350000Y-141000000D02*
X110950000Y-141000000D01*
X107650000Y-140700000D02*
X109050000Y-140700000D01*
X109050000Y-140700000D02*
X109350000Y-141000000D01*
X104950000Y-140300000D02*
X107250000Y-140300000D01*
X107250000Y-140300000D02*
X107650000Y-140700000D01*
D37*
X134750000Y-154150000D02*
X134295000Y-154150000D01*
X134295000Y-154150000D02*
X133589000Y-153444000D01*
X133589000Y-153444000D02*
X133589000Y-150956000D01*
X133589000Y-150956000D02*
X134295000Y-150250000D01*
X134295000Y-150250000D02*
X134750000Y-150250000D01*
X134560000Y-157950000D02*
X134870000Y-157950000D01*
X134870000Y-157950000D02*
X135911000Y-156909000D01*
X135911000Y-156909000D02*
X135911000Y-154856000D01*
X135911000Y-154856000D02*
X135205000Y-154150000D01*
X135205000Y-154150000D02*
X134750000Y-154150000D01*
D39*
X134200000Y-159600000D02*
X134200000Y-161400000D01*
X134200000Y-161400000D02*
X134500000Y-161700000D01*
X134560000Y-157950000D02*
X134560000Y-159240000D01*
X134560000Y-159240000D02*
X134200000Y-159600000D01*
X117950000Y-130900000D02*
X119250000Y-130900000D01*
X119250000Y-130900000D02*
X119400000Y-131050000D01*
X117000000Y-133262000D02*
X117000000Y-134793171D01*
X118014410Y-135364410D02*
X118950000Y-136300000D01*
X117000000Y-134793171D02*
X117571239Y-135364410D01*
X117571239Y-135364410D02*
X118014410Y-135364410D01*
X119400000Y-132950000D02*
X119400000Y-135850000D01*
X119400000Y-135850000D02*
X118950000Y-136300000D01*
X124000000Y-140300000D02*
X124000000Y-137000000D01*
X124000000Y-137000000D02*
X124150000Y-136850000D01*
D37*
X108210000Y-127750000D02*
X109950000Y-127750000D01*
X109950000Y-127750000D02*
X110200000Y-128000000D01*
X108210000Y-127750000D02*
X109550000Y-127750000D01*
X109550000Y-127750000D02*
X110100000Y-127200000D01*
X113300000Y-126900000D02*
X113300000Y-126550000D01*
X113300000Y-126550000D02*
X113650000Y-126200000D01*
X113300000Y-126900000D02*
X113300000Y-126450000D01*
X113300000Y-126450000D02*
X113050000Y-126200000D01*
X131400000Y-130600000D02*
X130850000Y-130600000D01*
X130850000Y-130600000D02*
X130150000Y-131300000D01*
X131400000Y-130600000D02*
X130300000Y-130600000D01*
X130300000Y-130600000D02*
X130150000Y-130450000D01*
X131400000Y-130600000D02*
X131100000Y-130600000D01*
X131100000Y-130600000D02*
X130250000Y-129750000D01*
X124150000Y-135750000D02*
X123300000Y-134900000D01*
X124150000Y-136850000D02*
X124150000Y-135000000D01*
X124150000Y-135000000D02*
X124100000Y-134950000D01*
X124150000Y-136850000D02*
X124150000Y-135750000D01*
X124150000Y-135750000D02*
X124850000Y-135050000D01*
X124150000Y-136850000D02*
X124150000Y-135900000D01*
D39*
X118950000Y-141000000D02*
X123300000Y-141000000D01*
X123300000Y-141000000D02*
X124000000Y-140300000D01*
X118950000Y-141000000D02*
X120000000Y-141000000D01*
X104000000Y-155400000D02*
X102800000Y-155400000D01*
X102800000Y-155400000D02*
X102200000Y-154800000D01*
X104000000Y-155400000D02*
X102500000Y-155400000D01*
X102500000Y-155400000D02*
X102200000Y-155700000D01*
X112250000Y-142550000D02*
X114200000Y-144500000D01*
D37*
X116050000Y-133262000D02*
X115088000Y-133262000D01*
X115088000Y-133262000D02*
X114550000Y-133800000D01*
X116050000Y-133262000D02*
X114662000Y-133262000D01*
X114662000Y-133262000D02*
X114500000Y-133100000D01*
X116050000Y-133262000D02*
X115738000Y-133262000D01*
X115738000Y-133262000D02*
X115250000Y-133750000D01*
X116050000Y-133262000D02*
X115412000Y-133262000D01*
X115412000Y-133262000D02*
X115200000Y-133050000D01*
D39*
X103700000Y-159860000D02*
X108660000Y-159860000D01*
X108660000Y-159860000D02*
X108950000Y-160150000D01*
X102700000Y-157100000D02*
X102150000Y-157650000D01*
X103650000Y-157100000D02*
X102700000Y-157100000D01*
X102700000Y-157100000D02*
X102200000Y-156600000D01*
X103700000Y-159860000D02*
X103700000Y-157150000D01*
X103700000Y-157150000D02*
X103650000Y-157100000D01*
D40*
X126450000Y-107562400D02*
X126450000Y-124350000D01*
X126450000Y-124350000D02*
X125250000Y-125550000D01*
X128050000Y-104960000D02*
X128050000Y-105962400D01*
X128050000Y-105962400D02*
X126450000Y-107562400D01*
D38*
X130067198Y-117602000D02*
X129724299Y-117944899D01*
X129724299Y-117944899D02*
X129724299Y-121977001D01*
X129724299Y-121977001D02*
X128587499Y-123113801D01*
X128587499Y-123113801D02*
X128244600Y-123456700D01*
X132050000Y-153200000D02*
X129010000Y-153200000D01*
X129010000Y-153200000D02*
X128650000Y-152840000D01*
X129650000Y-149300000D02*
X128650000Y-150300000D01*
X132050000Y-149300000D02*
X129650000Y-149300000D01*
D37*
X113300000Y-129200000D02*
X114350000Y-129200000D01*
X114350000Y-129200000D02*
X116050000Y-130900000D01*
X113300000Y-127800000D02*
X113300000Y-129200000D01*
D38*
X133111726Y-143150000D02*
X133100000Y-143150000D01*
X134167911Y-142093815D02*
X133111726Y-143150000D01*
X134167911Y-142082089D02*
X134167911Y-142093815D01*
X140152229Y-127983569D02*
X140152229Y-136097771D01*
X139809330Y-127640670D02*
X140152229Y-127983569D01*
X140152229Y-136097771D02*
X134167911Y-142082089D01*
D37*
X133100000Y-143150000D02*
X130800000Y-145450000D01*
X130800000Y-145450000D02*
X130800000Y-146900000D01*
X133700000Y-141900000D02*
X132983408Y-142616592D01*
X132983408Y-142616592D02*
X132879054Y-142616592D01*
X131695646Y-143800000D02*
X130900000Y-143800000D01*
X132879054Y-142616592D02*
X131695646Y-143800000D01*
D38*
X138300000Y-137300000D02*
X133700000Y-141900000D01*
X138300000Y-127250000D02*
X138300000Y-137300000D01*
X138800000Y-126750000D02*
X138300000Y-127250000D01*
X139800000Y-126750000D02*
X138800000Y-126750000D01*
D37*
X110750000Y-144600000D02*
X118050000Y-151900000D01*
X102950000Y-144100000D02*
X102950000Y-150600000D01*
X102950000Y-150600000D02*
X103650000Y-151300000D01*
D41*
G36*
X126791400Y-133540500D02*
X126771400Y-133540500D01*
X126771400Y-134734319D01*
X127001292Y-134854986D01*
X127525758Y-134608683D01*
X127873599Y-134227000D01*
X128973000Y-134227000D01*
X128973000Y-134965000D01*
X128435750Y-134965000D01*
X128277000Y-135123750D01*
X128277000Y-136723000D01*
X128297000Y-136723000D01*
X128297000Y-136977000D01*
X128277000Y-136977000D01*
X128277000Y-136997000D01*
X128023000Y-136997000D01*
X128023000Y-136977000D01*
X126673750Y-136977000D01*
X126515000Y-137135750D01*
X126515000Y-138226310D01*
X126611673Y-138459699D01*
X126656810Y-138504835D01*
X126640302Y-138511673D01*
X126461673Y-138690301D01*
X126365000Y-138923690D01*
X126365000Y-140014250D01*
X126523750Y-140173000D01*
X127873000Y-140173000D01*
X127873000Y-140153000D01*
X128127000Y-140153000D01*
X128127000Y-140173000D01*
X129476250Y-140173000D01*
X129635000Y-140014250D01*
X129635000Y-138923690D01*
X129538327Y-138690301D01*
X129493190Y-138645165D01*
X129509698Y-138638327D01*
X129521025Y-138627000D01*
X129773000Y-138627000D01*
X129773000Y-147873000D01*
X119952606Y-147873000D01*
X113228175Y-141148569D01*
X113303118Y-137776143D01*
X113415301Y-137888327D01*
X113648690Y-137985000D01*
X114114250Y-137985000D01*
X114273000Y-137826250D01*
X114273000Y-136727000D01*
X114253000Y-136727000D01*
X114253000Y-136473000D01*
X114273000Y-136473000D01*
X114273000Y-136453000D01*
X114527000Y-136453000D01*
X114527000Y-136473000D01*
X114547000Y-136473000D01*
X114547000Y-136727000D01*
X114527000Y-136727000D01*
X114527000Y-137826250D01*
X114685750Y-137985000D01*
X115151310Y-137985000D01*
X115384699Y-137888327D01*
X115563327Y-137709698D01*
X115631633Y-137544794D01*
X115635910Y-137551441D01*
X115848110Y-137696431D01*
X116100000Y-137747440D01*
X121800000Y-137747440D01*
X122035317Y-137703162D01*
X122251441Y-137564090D01*
X122396431Y-137351890D01*
X122447440Y-137100000D01*
X122447440Y-135500000D01*
X122411998Y-135311643D01*
X122470493Y-135453212D01*
X122521864Y-135504673D01*
X122502560Y-135600000D01*
X122502560Y-138100000D01*
X122546838Y-138335317D01*
X122661376Y-138513314D01*
X122548559Y-138585910D01*
X122403569Y-138798110D01*
X122352560Y-139050000D01*
X122352560Y-139886045D01*
X122264090Y-139748559D01*
X122051890Y-139603569D01*
X121800000Y-139552560D01*
X116100000Y-139552560D01*
X115864683Y-139596838D01*
X115648559Y-139735910D01*
X115503569Y-139948110D01*
X115452560Y-140200000D01*
X115452560Y-141800000D01*
X115496838Y-142035317D01*
X115635910Y-142251441D01*
X115848110Y-142396431D01*
X116100000Y-142447440D01*
X118708303Y-142447440D01*
X118622270Y-142654630D01*
X118621931Y-143043663D01*
X118770493Y-143403212D01*
X118996273Y-143629387D01*
X118896788Y-143670493D01*
X118621460Y-143945341D01*
X118472270Y-144304630D01*
X118471931Y-144693663D01*
X118620493Y-145053212D01*
X118895341Y-145328540D01*
X119254630Y-145477730D01*
X119643663Y-145478069D01*
X119892249Y-145375356D01*
X119945341Y-145428540D01*
X120293239Y-145573000D01*
X119700000Y-145573000D01*
X119653841Y-145581685D01*
X119611447Y-145608965D01*
X119583006Y-145650590D01*
X119573000Y-145700000D01*
X119573000Y-146700000D01*
X119581685Y-146746159D01*
X119608965Y-146788553D01*
X119650590Y-146816994D01*
X119700000Y-146827000D01*
X120900000Y-146827000D01*
X120946159Y-146818315D01*
X120988553Y-146791035D01*
X121016994Y-146749410D01*
X121027000Y-146700000D01*
X121027000Y-145700000D01*
X121018315Y-145653841D01*
X120991035Y-145611447D01*
X120949410Y-145583006D01*
X120900000Y-145573000D01*
X120705931Y-145573000D01*
X121053212Y-145429507D01*
X121328540Y-145154659D01*
X121477730Y-144795370D01*
X121478069Y-144406337D01*
X121329507Y-144046788D01*
X121054659Y-143771460D01*
X121042693Y-143766491D01*
X121253212Y-143679507D01*
X121528540Y-143404659D01*
X121677730Y-143045370D01*
X121678069Y-142656337D01*
X121591755Y-142447440D01*
X121800000Y-142447440D01*
X121873000Y-142433704D01*
X121873000Y-143300000D01*
X121881685Y-143346159D01*
X121908965Y-143388553D01*
X121950590Y-143416994D01*
X122000000Y-143427000D01*
X123000000Y-143427000D01*
X123046159Y-143418315D01*
X123088553Y-143391035D01*
X123116994Y-143349410D01*
X123127000Y-143300000D01*
X123127000Y-142197440D01*
X125000000Y-142197440D01*
X125235317Y-142153162D01*
X125451441Y-142014090D01*
X125596431Y-141801890D01*
X125647440Y-141550000D01*
X125647440Y-140585750D01*
X126365000Y-140585750D01*
X126365000Y-141676310D01*
X126461673Y-141909699D01*
X126640302Y-142088327D01*
X126873691Y-142185000D01*
X127714250Y-142185000D01*
X127873000Y-142026250D01*
X127873000Y-140427000D01*
X128127000Y-140427000D01*
X128127000Y-142026250D01*
X128285750Y-142185000D01*
X129126309Y-142185000D01*
X129359698Y-142088327D01*
X129538327Y-141909699D01*
X129635000Y-141676310D01*
X129635000Y-140585750D01*
X129476250Y-140427000D01*
X128127000Y-140427000D01*
X127873000Y-140427000D01*
X126523750Y-140427000D01*
X126365000Y-140585750D01*
X125647440Y-140585750D01*
X125647440Y-139050000D01*
X125603162Y-138814683D01*
X125488624Y-138636686D01*
X125601441Y-138564090D01*
X125746431Y-138351890D01*
X125797440Y-138100000D01*
X125797440Y-135600000D01*
X125773674Y-135473690D01*
X126515000Y-135473690D01*
X126515000Y-136564250D01*
X126673750Y-136723000D01*
X128023000Y-136723000D01*
X128023000Y-135123750D01*
X127864250Y-134965000D01*
X127023691Y-134965000D01*
X126790302Y-135061673D01*
X126611673Y-135240301D01*
X126515000Y-135473690D01*
X125773674Y-135473690D01*
X125760966Y-135406156D01*
X125827730Y-135245370D01*
X125828069Y-134856337D01*
X125694801Y-134533803D01*
X125763042Y-134608683D01*
X126287508Y-134854986D01*
X126517400Y-134734319D01*
X126517400Y-133540500D01*
X126497400Y-133540500D01*
X126497400Y-133427000D01*
X126791400Y-133427000D01*
X126791400Y-133540500D01*
X126791400Y-133540500D01*
G37*
X126791400Y-133540500D02*
X126771400Y-133540500D01*
X126771400Y-134734319D01*
X127001292Y-134854986D01*
X127525758Y-134608683D01*
X127873599Y-134227000D01*
X128973000Y-134227000D01*
X128973000Y-134965000D01*
X128435750Y-134965000D01*
X128277000Y-135123750D01*
X128277000Y-136723000D01*
X128297000Y-136723000D01*
X128297000Y-136977000D01*
X128277000Y-136977000D01*
X128277000Y-136997000D01*
X128023000Y-136997000D01*
X128023000Y-136977000D01*
X126673750Y-136977000D01*
X126515000Y-137135750D01*
X126515000Y-138226310D01*
X126611673Y-138459699D01*
X126656810Y-138504835D01*
X126640302Y-138511673D01*
X126461673Y-138690301D01*
X126365000Y-138923690D01*
X126365000Y-140014250D01*
X126523750Y-140173000D01*
X127873000Y-140173000D01*
X127873000Y-140153000D01*
X128127000Y-140153000D01*
X128127000Y-140173000D01*
X129476250Y-140173000D01*
X129635000Y-140014250D01*
X129635000Y-138923690D01*
X129538327Y-138690301D01*
X129493190Y-138645165D01*
X129509698Y-138638327D01*
X129521025Y-138627000D01*
X129773000Y-138627000D01*
X129773000Y-147873000D01*
X119952606Y-147873000D01*
X113228175Y-141148569D01*
X113303118Y-137776143D01*
X113415301Y-137888327D01*
X113648690Y-137985000D01*
X114114250Y-137985000D01*
X114273000Y-137826250D01*
X114273000Y-136727000D01*
X114253000Y-136727000D01*
X114253000Y-136473000D01*
X114273000Y-136473000D01*
X114273000Y-136453000D01*
X114527000Y-136453000D01*
X114527000Y-136473000D01*
X114547000Y-136473000D01*
X114547000Y-136727000D01*
X114527000Y-136727000D01*
X114527000Y-137826250D01*
X114685750Y-137985000D01*
X115151310Y-137985000D01*
X115384699Y-137888327D01*
X115563327Y-137709698D01*
X115631633Y-137544794D01*
X115635910Y-137551441D01*
X115848110Y-137696431D01*
X116100000Y-137747440D01*
X121800000Y-137747440D01*
X122035317Y-137703162D01*
X122251441Y-137564090D01*
X122396431Y-137351890D01*
X122447440Y-137100000D01*
X122447440Y-135500000D01*
X122411998Y-135311643D01*
X122470493Y-135453212D01*
X122521864Y-135504673D01*
X122502560Y-135600000D01*
X122502560Y-138100000D01*
X122546838Y-138335317D01*
X122661376Y-138513314D01*
X122548559Y-138585910D01*
X122403569Y-138798110D01*
X122352560Y-139050000D01*
X122352560Y-139886045D01*
X122264090Y-139748559D01*
X122051890Y-139603569D01*
X121800000Y-139552560D01*
X116100000Y-139552560D01*
X115864683Y-139596838D01*
X115648559Y-139735910D01*
X115503569Y-139948110D01*
X115452560Y-140200000D01*
X115452560Y-141800000D01*
X115496838Y-142035317D01*
X115635910Y-142251441D01*
X115848110Y-142396431D01*
X116100000Y-142447440D01*
X118708303Y-142447440D01*
X118622270Y-142654630D01*
X118621931Y-143043663D01*
X118770493Y-143403212D01*
X118996273Y-143629387D01*
X118896788Y-143670493D01*
X118621460Y-143945341D01*
X118472270Y-144304630D01*
X118471931Y-144693663D01*
X118620493Y-145053212D01*
X118895341Y-145328540D01*
X119254630Y-145477730D01*
X119643663Y-145478069D01*
X119892249Y-145375356D01*
X119945341Y-145428540D01*
X120293239Y-145573000D01*
X119700000Y-145573000D01*
X119653841Y-145581685D01*
X119611447Y-145608965D01*
X119583006Y-145650590D01*
X119573000Y-145700000D01*
X119573000Y-146700000D01*
X119581685Y-146746159D01*
X119608965Y-146788553D01*
X119650590Y-146816994D01*
X119700000Y-146827000D01*
X120900000Y-146827000D01*
X120946159Y-146818315D01*
X120988553Y-146791035D01*
X121016994Y-146749410D01*
X121027000Y-146700000D01*
X121027000Y-145700000D01*
X121018315Y-145653841D01*
X120991035Y-145611447D01*
X120949410Y-145583006D01*
X120900000Y-145573000D01*
X120705931Y-145573000D01*
X121053212Y-145429507D01*
X121328540Y-145154659D01*
X121477730Y-144795370D01*
X121478069Y-144406337D01*
X121329507Y-144046788D01*
X121054659Y-143771460D01*
X121042693Y-143766491D01*
X121253212Y-143679507D01*
X121528540Y-143404659D01*
X121677730Y-143045370D01*
X121678069Y-142656337D01*
X121591755Y-142447440D01*
X121800000Y-142447440D01*
X121873000Y-142433704D01*
X121873000Y-143300000D01*
X121881685Y-143346159D01*
X121908965Y-143388553D01*
X121950590Y-143416994D01*
X122000000Y-143427000D01*
X123000000Y-143427000D01*
X123046159Y-143418315D01*
X123088553Y-143391035D01*
X123116994Y-143349410D01*
X123127000Y-143300000D01*
X123127000Y-142197440D01*
X125000000Y-142197440D01*
X125235317Y-142153162D01*
X125451441Y-142014090D01*
X125596431Y-141801890D01*
X125647440Y-141550000D01*
X125647440Y-140585750D01*
X126365000Y-140585750D01*
X126365000Y-141676310D01*
X126461673Y-141909699D01*
X126640302Y-142088327D01*
X126873691Y-142185000D01*
X127714250Y-142185000D01*
X127873000Y-142026250D01*
X127873000Y-140427000D01*
X128127000Y-140427000D01*
X128127000Y-142026250D01*
X128285750Y-142185000D01*
X129126309Y-142185000D01*
X129359698Y-142088327D01*
X129538327Y-141909699D01*
X129635000Y-141676310D01*
X129635000Y-140585750D01*
X129476250Y-140427000D01*
X128127000Y-140427000D01*
X127873000Y-140427000D01*
X126523750Y-140427000D01*
X126365000Y-140585750D01*
X125647440Y-140585750D01*
X125647440Y-139050000D01*
X125603162Y-138814683D01*
X125488624Y-138636686D01*
X125601441Y-138564090D01*
X125746431Y-138351890D01*
X125797440Y-138100000D01*
X125797440Y-135600000D01*
X125773674Y-135473690D01*
X126515000Y-135473690D01*
X126515000Y-136564250D01*
X126673750Y-136723000D01*
X128023000Y-136723000D01*
X128023000Y-135123750D01*
X127864250Y-134965000D01*
X127023691Y-134965000D01*
X126790302Y-135061673D01*
X126611673Y-135240301D01*
X126515000Y-135473690D01*
X125773674Y-135473690D01*
X125760966Y-135406156D01*
X125827730Y-135245370D01*
X125828069Y-134856337D01*
X125694801Y-134533803D01*
X125763042Y-134608683D01*
X126287508Y-134854986D01*
X126517400Y-134734319D01*
X126517400Y-133540500D01*
X126497400Y-133540500D01*
X126497400Y-133427000D01*
X126791400Y-133427000D01*
X126791400Y-133540500D01*
G36*
X104665000Y-123551489D02*
X104665000Y-123601310D01*
X104761673Y-123834699D01*
X104940302Y-124013327D01*
X105173691Y-124110000D01*
X105614250Y-124110000D01*
X105773000Y-123951250D01*
X105773000Y-123553627D01*
X106027000Y-123554117D01*
X106027000Y-123951250D01*
X106185750Y-124110000D01*
X106340911Y-124110000D01*
X106312560Y-124250000D01*
X106312560Y-124615000D01*
X106281239Y-124615000D01*
X106242887Y-124602807D01*
X106172770Y-124615000D01*
X104535750Y-124615000D01*
X104377000Y-124773750D01*
X104377000Y-126123000D01*
X108083000Y-126123000D01*
X108083000Y-126103000D01*
X108337000Y-126103000D01*
X108337000Y-126123000D01*
X108357000Y-126123000D01*
X108357000Y-126377000D01*
X108337000Y-126377000D01*
X108337000Y-126397000D01*
X108083000Y-126397000D01*
X108083000Y-126377000D01*
X104377000Y-126377000D01*
X104377000Y-127726250D01*
X104535750Y-127885000D01*
X106260008Y-127885000D01*
X106312560Y-127885600D01*
X106312560Y-128250000D01*
X106356838Y-128485317D01*
X106495910Y-128701441D01*
X106708110Y-128846431D01*
X106960000Y-128897440D01*
X109460000Y-128897440D01*
X109695317Y-128853162D01*
X109698972Y-128850810D01*
X110004630Y-128977730D01*
X110393663Y-128978069D01*
X110753212Y-128829507D01*
X111028540Y-128554659D01*
X111177730Y-128195370D01*
X111178069Y-127806337D01*
X111042910Y-127479226D01*
X111077730Y-127395370D01*
X111078069Y-127006337D01*
X110929507Y-126646788D01*
X110654659Y-126371460D01*
X110295370Y-126222270D01*
X110095000Y-126222095D01*
X110095000Y-126122998D01*
X109936252Y-126122998D01*
X110095000Y-125964250D01*
X110095000Y-125623691D01*
X110049033Y-125512717D01*
X110056431Y-125501890D01*
X110107440Y-125250000D01*
X110107440Y-124250000D01*
X110063162Y-124014683D01*
X109924090Y-123798559D01*
X109711890Y-123653569D01*
X109460000Y-123602560D01*
X109226000Y-123602560D01*
X109226000Y-123560289D01*
X121233409Y-123583454D01*
X121173002Y-133299210D01*
X121182701Y-133348682D01*
X121210882Y-133390482D01*
X121253106Y-133418025D01*
X121300000Y-133427000D01*
X125159400Y-133427000D01*
X125159400Y-133540502D01*
X125324244Y-133540502D01*
X125202924Y-133770390D01*
X125372755Y-134180424D01*
X125467749Y-134284660D01*
X125404659Y-134221460D01*
X125045370Y-134072270D01*
X124656337Y-134071931D01*
X124595709Y-134096982D01*
X124295370Y-133972270D01*
X123906337Y-133971931D01*
X123760292Y-134032275D01*
X123495370Y-133922270D01*
X123106337Y-133921931D01*
X122746788Y-134070493D01*
X122471460Y-134345341D01*
X122322270Y-134704630D01*
X122321931Y-135093663D01*
X122373635Y-135218797D01*
X122264090Y-135048559D01*
X122051890Y-134903569D01*
X121800000Y-134852560D01*
X120416000Y-134852560D01*
X120416000Y-133581802D01*
X120422440Y-133550000D01*
X120422440Y-132350000D01*
X120378162Y-132114683D01*
X120304380Y-132000022D01*
X120371431Y-131901890D01*
X120422440Y-131650000D01*
X120422440Y-130450000D01*
X120378162Y-130214683D01*
X120239090Y-129998559D01*
X120026890Y-129853569D01*
X119775000Y-129802560D01*
X119025000Y-129802560D01*
X118789683Y-129846838D01*
X118762198Y-129864524D01*
X118664090Y-129712059D01*
X118451890Y-129567069D01*
X118200000Y-129516060D01*
X117700000Y-129516060D01*
X117466740Y-129559951D01*
X117250000Y-129516060D01*
X116750000Y-129516060D01*
X116516740Y-129559951D01*
X116300000Y-129516060D01*
X115833494Y-129516060D01*
X114933717Y-128616283D01*
X114665906Y-128437337D01*
X114355204Y-128375535D01*
X114353162Y-128364683D01*
X114216574Y-128152420D01*
X114247440Y-128000000D01*
X114247440Y-127600000D01*
X114203162Y-127364683D01*
X114195658Y-127353021D01*
X114196431Y-127351890D01*
X114247440Y-127100000D01*
X114247440Y-126985356D01*
X114478540Y-126754659D01*
X114627730Y-126395370D01*
X114628069Y-126006337D01*
X114479507Y-125646788D01*
X114204659Y-125371460D01*
X113845370Y-125222270D01*
X113456337Y-125221931D01*
X113350184Y-125265792D01*
X113245370Y-125222270D01*
X112856337Y-125221931D01*
X112496788Y-125370493D01*
X112221460Y-125645341D01*
X112072270Y-126004630D01*
X112071931Y-126393663D01*
X112220493Y-126753212D01*
X112352560Y-126885510D01*
X112352560Y-127100000D01*
X112396838Y-127335317D01*
X112404342Y-127346979D01*
X112403569Y-127348110D01*
X112352560Y-127600000D01*
X112352560Y-128000000D01*
X112382544Y-128159349D01*
X112253569Y-128348110D01*
X112202560Y-128600000D01*
X112202560Y-129800000D01*
X112246838Y-130035317D01*
X112385910Y-130251441D01*
X112454006Y-130297969D01*
X112311673Y-130440302D01*
X112215000Y-130673691D01*
X112215000Y-131114250D01*
X112373750Y-131273000D01*
X113173000Y-131273000D01*
X113173000Y-131253000D01*
X113427000Y-131253000D01*
X113427000Y-131273000D01*
X114226250Y-131273000D01*
X114385000Y-131114250D01*
X114385000Y-130673691D01*
X114288327Y-130440302D01*
X114147090Y-130299064D01*
X114201441Y-130264090D01*
X114219795Y-130237229D01*
X115152560Y-131169994D01*
X115152560Y-131636500D01*
X115196838Y-131871817D01*
X115325787Y-132072209D01*
X115006337Y-132071931D01*
X114789705Y-132161441D01*
X114695370Y-132122270D01*
X114385000Y-132122000D01*
X114385000Y-131685750D01*
X114226250Y-131527000D01*
X113427000Y-131527000D01*
X113427000Y-132476250D01*
X113585750Y-132635000D01*
X113634230Y-132635000D01*
X113591868Y-132737019D01*
X113539683Y-132746838D01*
X113323559Y-132885910D01*
X113178569Y-133098110D01*
X113127560Y-133350000D01*
X113127560Y-134850000D01*
X113171838Y-135085317D01*
X113310910Y-135301441D01*
X113379006Y-135347969D01*
X113236673Y-135490302D01*
X113140000Y-135723691D01*
X113140000Y-136314250D01*
X113298748Y-136472998D01*
X113152604Y-136472998D01*
X110227599Y-133547993D01*
X110248761Y-131685750D01*
X112215000Y-131685750D01*
X112215000Y-132126309D01*
X112311673Y-132359698D01*
X112490301Y-132538327D01*
X112723690Y-132635000D01*
X113014250Y-132635000D01*
X113173000Y-132476250D01*
X113173000Y-131527000D01*
X112373750Y-131527000D01*
X112215000Y-131685750D01*
X110248761Y-131685750D01*
X110276992Y-129201443D01*
X110267548Y-129151922D01*
X110239582Y-129109978D01*
X110197501Y-129082218D01*
X110149482Y-129073001D01*
X101652764Y-129107673D01*
X101676940Y-127525846D01*
X101711673Y-127609698D01*
X101890301Y-127788327D01*
X102123690Y-127885000D01*
X103964250Y-127885000D01*
X104123000Y-127726250D01*
X104123000Y-126377000D01*
X104103000Y-126377000D01*
X104103000Y-126123000D01*
X104123000Y-126123000D01*
X104123000Y-124773750D01*
X103964250Y-124615000D01*
X102123690Y-124615000D01*
X101890301Y-124711673D01*
X101717308Y-124884667D01*
X101737770Y-123545842D01*
X104665000Y-123551489D01*
X104665000Y-123551489D01*
G37*
X104665000Y-123551489D02*
X104665000Y-123601310D01*
X104761673Y-123834699D01*
X104940302Y-124013327D01*
X105173691Y-124110000D01*
X105614250Y-124110000D01*
X105773000Y-123951250D01*
X105773000Y-123553627D01*
X106027000Y-123554117D01*
X106027000Y-123951250D01*
X106185750Y-124110000D01*
X106340911Y-124110000D01*
X106312560Y-124250000D01*
X106312560Y-124615000D01*
X106281239Y-124615000D01*
X106242887Y-124602807D01*
X106172770Y-124615000D01*
X104535750Y-124615000D01*
X104377000Y-124773750D01*
X104377000Y-126123000D01*
X108083000Y-126123000D01*
X108083000Y-126103000D01*
X108337000Y-126103000D01*
X108337000Y-126123000D01*
X108357000Y-126123000D01*
X108357000Y-126377000D01*
X108337000Y-126377000D01*
X108337000Y-126397000D01*
X108083000Y-126397000D01*
X108083000Y-126377000D01*
X104377000Y-126377000D01*
X104377000Y-127726250D01*
X104535750Y-127885000D01*
X106260008Y-127885000D01*
X106312560Y-127885600D01*
X106312560Y-128250000D01*
X106356838Y-128485317D01*
X106495910Y-128701441D01*
X106708110Y-128846431D01*
X106960000Y-128897440D01*
X109460000Y-128897440D01*
X109695317Y-128853162D01*
X109698972Y-128850810D01*
X110004630Y-128977730D01*
X110393663Y-128978069D01*
X110753212Y-128829507D01*
X111028540Y-128554659D01*
X111177730Y-128195370D01*
X111178069Y-127806337D01*
X111042910Y-127479226D01*
X111077730Y-127395370D01*
X111078069Y-127006337D01*
X110929507Y-126646788D01*
X110654659Y-126371460D01*
X110295370Y-126222270D01*
X110095000Y-126222095D01*
X110095000Y-126122998D01*
X109936252Y-126122998D01*
X110095000Y-125964250D01*
X110095000Y-125623691D01*
X110049033Y-125512717D01*
X110056431Y-125501890D01*
X110107440Y-125250000D01*
X110107440Y-124250000D01*
X110063162Y-124014683D01*
X109924090Y-123798559D01*
X109711890Y-123653569D01*
X109460000Y-123602560D01*
X109226000Y-123602560D01*
X109226000Y-123560289D01*
X121233409Y-123583454D01*
X121173002Y-133299210D01*
X121182701Y-133348682D01*
X121210882Y-133390482D01*
X121253106Y-133418025D01*
X121300000Y-133427000D01*
X125159400Y-133427000D01*
X125159400Y-133540502D01*
X125324244Y-133540502D01*
X125202924Y-133770390D01*
X125372755Y-134180424D01*
X125467749Y-134284660D01*
X125404659Y-134221460D01*
X125045370Y-134072270D01*
X124656337Y-134071931D01*
X124595709Y-134096982D01*
X124295370Y-133972270D01*
X123906337Y-133971931D01*
X123760292Y-134032275D01*
X123495370Y-133922270D01*
X123106337Y-133921931D01*
X122746788Y-134070493D01*
X122471460Y-134345341D01*
X122322270Y-134704630D01*
X122321931Y-135093663D01*
X122373635Y-135218797D01*
X122264090Y-135048559D01*
X122051890Y-134903569D01*
X121800000Y-134852560D01*
X120416000Y-134852560D01*
X120416000Y-133581802D01*
X120422440Y-133550000D01*
X120422440Y-132350000D01*
X120378162Y-132114683D01*
X120304380Y-132000022D01*
X120371431Y-131901890D01*
X120422440Y-131650000D01*
X120422440Y-130450000D01*
X120378162Y-130214683D01*
X120239090Y-129998559D01*
X120026890Y-129853569D01*
X119775000Y-129802560D01*
X119025000Y-129802560D01*
X118789683Y-129846838D01*
X118762198Y-129864524D01*
X118664090Y-129712059D01*
X118451890Y-129567069D01*
X118200000Y-129516060D01*
X117700000Y-129516060D01*
X117466740Y-129559951D01*
X117250000Y-129516060D01*
X116750000Y-129516060D01*
X116516740Y-129559951D01*
X116300000Y-129516060D01*
X115833494Y-129516060D01*
X114933717Y-128616283D01*
X114665906Y-128437337D01*
X114355204Y-128375535D01*
X114353162Y-128364683D01*
X114216574Y-128152420D01*
X114247440Y-128000000D01*
X114247440Y-127600000D01*
X114203162Y-127364683D01*
X114195658Y-127353021D01*
X114196431Y-127351890D01*
X114247440Y-127100000D01*
X114247440Y-126985356D01*
X114478540Y-126754659D01*
X114627730Y-126395370D01*
X114628069Y-126006337D01*
X114479507Y-125646788D01*
X114204659Y-125371460D01*
X113845370Y-125222270D01*
X113456337Y-125221931D01*
X113350184Y-125265792D01*
X113245370Y-125222270D01*
X112856337Y-125221931D01*
X112496788Y-125370493D01*
X112221460Y-125645341D01*
X112072270Y-126004630D01*
X112071931Y-126393663D01*
X112220493Y-126753212D01*
X112352560Y-126885510D01*
X112352560Y-127100000D01*
X112396838Y-127335317D01*
X112404342Y-127346979D01*
X112403569Y-127348110D01*
X112352560Y-127600000D01*
X112352560Y-128000000D01*
X112382544Y-128159349D01*
X112253569Y-128348110D01*
X112202560Y-128600000D01*
X112202560Y-129800000D01*
X112246838Y-130035317D01*
X112385910Y-130251441D01*
X112454006Y-130297969D01*
X112311673Y-130440302D01*
X112215000Y-130673691D01*
X112215000Y-131114250D01*
X112373750Y-131273000D01*
X113173000Y-131273000D01*
X113173000Y-131253000D01*
X113427000Y-131253000D01*
X113427000Y-131273000D01*
X114226250Y-131273000D01*
X114385000Y-131114250D01*
X114385000Y-130673691D01*
X114288327Y-130440302D01*
X114147090Y-130299064D01*
X114201441Y-130264090D01*
X114219795Y-130237229D01*
X115152560Y-131169994D01*
X115152560Y-131636500D01*
X115196838Y-131871817D01*
X115325787Y-132072209D01*
X115006337Y-132071931D01*
X114789705Y-132161441D01*
X114695370Y-132122270D01*
X114385000Y-132122000D01*
X114385000Y-131685750D01*
X114226250Y-131527000D01*
X113427000Y-131527000D01*
X113427000Y-132476250D01*
X113585750Y-132635000D01*
X113634230Y-132635000D01*
X113591868Y-132737019D01*
X113539683Y-132746838D01*
X113323559Y-132885910D01*
X113178569Y-133098110D01*
X113127560Y-133350000D01*
X113127560Y-134850000D01*
X113171838Y-135085317D01*
X113310910Y-135301441D01*
X113379006Y-135347969D01*
X113236673Y-135490302D01*
X113140000Y-135723691D01*
X113140000Y-136314250D01*
X113298748Y-136472998D01*
X113152604Y-136472998D01*
X110227599Y-133547993D01*
X110248761Y-131685750D01*
X112215000Y-131685750D01*
X112215000Y-132126309D01*
X112311673Y-132359698D01*
X112490301Y-132538327D01*
X112723690Y-132635000D01*
X113014250Y-132635000D01*
X113173000Y-132476250D01*
X113173000Y-131527000D01*
X112373750Y-131527000D01*
X112215000Y-131685750D01*
X110248761Y-131685750D01*
X110276992Y-129201443D01*
X110267548Y-129151922D01*
X110239582Y-129109978D01*
X110197501Y-129082218D01*
X110149482Y-129073001D01*
X101652764Y-129107673D01*
X101676940Y-127525846D01*
X101711673Y-127609698D01*
X101890301Y-127788327D01*
X102123690Y-127885000D01*
X103964250Y-127885000D01*
X104123000Y-127726250D01*
X104123000Y-126377000D01*
X104103000Y-126377000D01*
X104103000Y-126123000D01*
X104123000Y-126123000D01*
X104123000Y-124773750D01*
X103964250Y-124615000D01*
X102123690Y-124615000D01*
X101890301Y-124711673D01*
X101717308Y-124884667D01*
X101737770Y-123545842D01*
X104665000Y-123551489D01*
G36*
X138441673Y-100815301D02*
X138345000Y-101048690D01*
X138345000Y-102864250D01*
X138503750Y-103023000D01*
X139603000Y-103023000D01*
X139603000Y-103003000D01*
X139857000Y-103003000D01*
X139857000Y-103023000D01*
X140956250Y-103023000D01*
X141115000Y-102864250D01*
X141115000Y-101048690D01*
X141018327Y-100815301D01*
X140913025Y-100710000D01*
X144086975Y-100710000D01*
X143981673Y-100815301D01*
X143885000Y-101048690D01*
X143885000Y-102864250D01*
X144043750Y-103023000D01*
X145143000Y-103023000D01*
X145143000Y-103003000D01*
X145397000Y-103003000D01*
X145397000Y-103023000D01*
X146496250Y-103023000D01*
X146655000Y-102864250D01*
X146655000Y-101048690D01*
X146558327Y-100815301D01*
X146453025Y-100710000D01*
X151290000Y-100710000D01*
X151290000Y-167290000D01*
X145503025Y-167290000D01*
X145608327Y-167184699D01*
X145705000Y-166951310D01*
X145705000Y-165135750D01*
X145546250Y-164977000D01*
X144447000Y-164977000D01*
X144447000Y-164997000D01*
X144193000Y-164997000D01*
X144193000Y-164977000D01*
X143093750Y-164977000D01*
X142935000Y-165135750D01*
X142935000Y-166951310D01*
X143031673Y-167184699D01*
X143136975Y-167290000D01*
X139963025Y-167290000D01*
X140068327Y-167184699D01*
X140165000Y-166951310D01*
X140165000Y-165135750D01*
X140006250Y-164977000D01*
X138907000Y-164977000D01*
X138907000Y-164997000D01*
X138653000Y-164997000D01*
X138653000Y-164977000D01*
X137553750Y-164977000D01*
X137395000Y-165135750D01*
X137395000Y-166951310D01*
X137491673Y-167184699D01*
X137596975Y-167290000D01*
X136177000Y-167290000D01*
X136177000Y-162748690D01*
X137395000Y-162748690D01*
X137395000Y-164564250D01*
X137553750Y-164723000D01*
X138653000Y-164723000D01*
X138653000Y-162398750D01*
X138907000Y-162398750D01*
X138907000Y-164723000D01*
X140006250Y-164723000D01*
X140165000Y-164564250D01*
X140165000Y-162748690D01*
X142935000Y-162748690D01*
X142935000Y-164564250D01*
X143093750Y-164723000D01*
X144193000Y-164723000D01*
X144193000Y-162398750D01*
X144447000Y-162398750D01*
X144447000Y-164723000D01*
X145546250Y-164723000D01*
X145705000Y-164564250D01*
X145705000Y-162748690D01*
X145608327Y-162515301D01*
X145429698Y-162336673D01*
X145196309Y-162240000D01*
X144605750Y-162240000D01*
X144447000Y-162398750D01*
X144193000Y-162398750D01*
X144034250Y-162240000D01*
X143443691Y-162240000D01*
X143210302Y-162336673D01*
X143031673Y-162515301D01*
X142935000Y-162748690D01*
X140165000Y-162748690D01*
X140068327Y-162515301D01*
X139889698Y-162336673D01*
X139656309Y-162240000D01*
X139065750Y-162240000D01*
X138907000Y-162398750D01*
X138653000Y-162398750D01*
X138494250Y-162240000D01*
X137903691Y-162240000D01*
X137670302Y-162336673D01*
X137491673Y-162515301D01*
X137395000Y-162748690D01*
X136177000Y-162748690D01*
X136177000Y-157810433D01*
X136494714Y-157492719D01*
X136494717Y-157492717D01*
X136633008Y-157285750D01*
X136673663Y-157224906D01*
X136736500Y-156909000D01*
X136736500Y-154856005D01*
X136736501Y-154856000D01*
X136673663Y-154540095D01*
X136656895Y-154515000D01*
X136494717Y-154272283D01*
X136494714Y-154272281D01*
X136177440Y-153955007D01*
X136177440Y-153825000D01*
X136177000Y-153822662D01*
X136177000Y-152577173D01*
X136177440Y-152575000D01*
X136177440Y-151925000D01*
X136177000Y-151922662D01*
X136177000Y-150593663D01*
X144071931Y-150593663D01*
X144220493Y-150953212D01*
X144495341Y-151228540D01*
X144854630Y-151377730D01*
X145225408Y-151378053D01*
X145422830Y-151460030D01*
X145811863Y-151460369D01*
X146171412Y-151311807D01*
X146446740Y-151036959D01*
X146595930Y-150677670D01*
X146596269Y-150288637D01*
X146447707Y-149929088D01*
X146172859Y-149653760D01*
X145813570Y-149504570D01*
X145442792Y-149504247D01*
X145245370Y-149422270D01*
X144856337Y-149421931D01*
X144496788Y-149570493D01*
X144221460Y-149845341D01*
X144072270Y-150204630D01*
X144071931Y-150593663D01*
X136177000Y-150593663D01*
X136177000Y-150577173D01*
X136177440Y-150575000D01*
X136177440Y-149925000D01*
X136177000Y-149922662D01*
X136177000Y-148677173D01*
X136177440Y-148675000D01*
X136177440Y-148025000D01*
X136177000Y-148022662D01*
X136177000Y-147600000D01*
X136166994Y-147550590D01*
X136138553Y-147508965D01*
X136096159Y-147481685D01*
X136050000Y-147473000D01*
X135846917Y-147473000D01*
X135781890Y-147428569D01*
X135530000Y-147377560D01*
X134958110Y-147377560D01*
X134945370Y-147372270D01*
X134556337Y-147371931D01*
X134542714Y-147377560D01*
X133970000Y-147377560D01*
X133734683Y-147421838D01*
X133655175Y-147473000D01*
X133156688Y-147473000D01*
X132956309Y-147390000D01*
X132335750Y-147390000D01*
X132252750Y-147473000D01*
X131847250Y-147473000D01*
X131764250Y-147390000D01*
X131655389Y-147390000D01*
X131777730Y-147095370D01*
X131778069Y-146706337D01*
X131629507Y-146346788D01*
X131625500Y-146342774D01*
X131625500Y-145791934D01*
X132000081Y-145417353D01*
X143852731Y-145417353D01*
X144001293Y-145776902D01*
X144276141Y-146052230D01*
X144635430Y-146201420D01*
X145024463Y-146201759D01*
X145208503Y-146125716D01*
X145270430Y-146151430D01*
X145659463Y-146151769D01*
X146019012Y-146003207D01*
X146294340Y-145728359D01*
X146443530Y-145369070D01*
X146443869Y-144980037D01*
X146295307Y-144620488D01*
X146020459Y-144345160D01*
X145661170Y-144195970D01*
X145272137Y-144195631D01*
X145088097Y-144271674D01*
X145026170Y-144245960D01*
X144637137Y-144245621D01*
X144277588Y-144394183D01*
X144002260Y-144669031D01*
X143853070Y-145028320D01*
X143852731Y-145417353D01*
X132000081Y-145417353D01*
X133683717Y-143733717D01*
X133846636Y-143489892D01*
X134705312Y-142631216D01*
X134728924Y-142595878D01*
X140689630Y-136635172D01*
X140854377Y-136388610D01*
X140912229Y-136097771D01*
X140912229Y-133693663D01*
X141071931Y-133693663D01*
X141220493Y-134053212D01*
X141495341Y-134328540D01*
X141854630Y-134477730D01*
X142243663Y-134478069D01*
X142314523Y-134448790D01*
X142504630Y-134527730D01*
X142893663Y-134528069D01*
X143253212Y-134379507D01*
X143528540Y-134104659D01*
X143677730Y-133745370D01*
X143678069Y-133356337D01*
X143529507Y-132996788D01*
X143254659Y-132721460D01*
X142895370Y-132572270D01*
X142506337Y-132571931D01*
X142435477Y-132601210D01*
X142245370Y-132522270D01*
X141856337Y-132521931D01*
X141496788Y-132670493D01*
X141221460Y-132945341D01*
X141072270Y-133304630D01*
X141071931Y-133693663D01*
X140912229Y-133693663D01*
X140912229Y-127983569D01*
X140854377Y-127692730D01*
X140854377Y-127692729D01*
X140787272Y-127592300D01*
X140787399Y-127447007D01*
X140678685Y-127183897D01*
X140777730Y-126945370D01*
X140778069Y-126556337D01*
X140629507Y-126196788D01*
X140354659Y-125921460D01*
X139995370Y-125772270D01*
X139606337Y-125771931D01*
X139246788Y-125920493D01*
X139177160Y-125990000D01*
X138800000Y-125990000D01*
X138509161Y-126047852D01*
X138262599Y-126212599D01*
X138177990Y-126297208D01*
X138178069Y-126206337D01*
X138029507Y-125846788D01*
X137754659Y-125571460D01*
X137395370Y-125422270D01*
X137277543Y-125422167D01*
X137214090Y-125323559D01*
X137001890Y-125178569D01*
X136750000Y-125127560D01*
X135250000Y-125127560D01*
X135014683Y-125171838D01*
X134798559Y-125310910D01*
X134752031Y-125379006D01*
X134609698Y-125236673D01*
X134376309Y-125140000D01*
X133984627Y-125140000D01*
X134127730Y-124795370D01*
X134128069Y-124406337D01*
X133979507Y-124046788D01*
X133704659Y-123771460D01*
X133345370Y-123622270D01*
X132956337Y-123621931D01*
X132596788Y-123770493D01*
X132527160Y-123840000D01*
X129144295Y-123840000D01*
X129222330Y-123652070D01*
X129222416Y-123553686D01*
X130261700Y-122514402D01*
X130426447Y-122267840D01*
X130484299Y-121977001D01*
X130484299Y-118487747D01*
X130620410Y-118431507D01*
X130895738Y-118156659D01*
X131044928Y-117797370D01*
X131045267Y-117408337D01*
X130896705Y-117048788D01*
X130621857Y-116773460D01*
X130262568Y-116624270D01*
X129873535Y-116623931D01*
X129513986Y-116772493D01*
X129238658Y-117047341D01*
X129089468Y-117406630D01*
X129089340Y-117553504D01*
X129022151Y-117654060D01*
X128964299Y-117944899D01*
X128964299Y-118997121D01*
X128693970Y-118884870D01*
X128304937Y-118884531D01*
X127945388Y-119033093D01*
X127670060Y-119307941D01*
X127520870Y-119667230D01*
X127520531Y-120056263D01*
X127669093Y-120415812D01*
X127943941Y-120691140D01*
X127970349Y-120702105D01*
X128088193Y-120987312D01*
X128363041Y-121262640D01*
X128722330Y-121411830D01*
X128964299Y-121412041D01*
X128964299Y-121662199D01*
X128147783Y-122478715D01*
X128050937Y-122478631D01*
X127691388Y-122627193D01*
X127416060Y-122902041D01*
X127266870Y-123261330D01*
X127266531Y-123650363D01*
X127366282Y-123891779D01*
X127296788Y-123920493D01*
X127161200Y-124055845D01*
X127161200Y-114850051D01*
X129811727Y-114850051D01*
X129960289Y-115209600D01*
X130235137Y-115484928D01*
X130594426Y-115634118D01*
X130983459Y-115634457D01*
X131343008Y-115485895D01*
X131618336Y-115211047D01*
X131767526Y-114851758D01*
X131767850Y-114479410D01*
X132004630Y-114577730D01*
X132393663Y-114578069D01*
X132677833Y-114460653D01*
X132895341Y-114678540D01*
X133254630Y-114827730D01*
X133346621Y-114827810D01*
X133448742Y-115074963D01*
X133723590Y-115350291D01*
X134082879Y-115499481D01*
X134471912Y-115499820D01*
X134831461Y-115351258D01*
X135106789Y-115076410D01*
X135255979Y-114717121D01*
X135256318Y-114328088D01*
X135107756Y-113968539D01*
X134832908Y-113693211D01*
X134473619Y-113544021D01*
X134427731Y-113543981D01*
X134428063Y-113163079D01*
X134669329Y-113063390D01*
X134944657Y-112788542D01*
X135093847Y-112429253D01*
X135094186Y-112040220D01*
X134945624Y-111680671D01*
X134670776Y-111405343D01*
X134311487Y-111256153D01*
X133922454Y-111255814D01*
X133562905Y-111404376D01*
X133287577Y-111679224D01*
X133138387Y-112038513D01*
X133138054Y-112420804D01*
X132896788Y-112520493D01*
X132677484Y-112739414D01*
X132395370Y-112622270D01*
X132006337Y-112621931D01*
X131646788Y-112770493D01*
X131371460Y-113045341D01*
X131222270Y-113404630D01*
X131221946Y-113776978D01*
X130985166Y-113678658D01*
X130596133Y-113678319D01*
X130236584Y-113826881D01*
X129961256Y-114101729D01*
X129812066Y-114461018D01*
X129811727Y-114850051D01*
X127161200Y-114850051D01*
X127161200Y-111227017D01*
X127168642Y-111235183D01*
X127693108Y-111481486D01*
X127923000Y-111360819D01*
X127923000Y-110167000D01*
X128177000Y-110167000D01*
X128177000Y-111360819D01*
X128406892Y-111481486D01*
X128931358Y-111235183D01*
X129321645Y-110806924D01*
X129491476Y-110396890D01*
X129370155Y-110167000D01*
X128177000Y-110167000D01*
X127923000Y-110167000D01*
X127903000Y-110167000D01*
X127903000Y-109913000D01*
X127923000Y-109913000D01*
X127923000Y-109893000D01*
X128177000Y-109893000D01*
X128177000Y-109913000D01*
X129370155Y-109913000D01*
X129491476Y-109683110D01*
X129321645Y-109273076D01*
X128931358Y-108844817D01*
X128788447Y-108777702D01*
X129129147Y-108550054D01*
X129451054Y-108068285D01*
X129564093Y-107500000D01*
X129451054Y-106931715D01*
X129129147Y-106449946D01*
X129087548Y-106422150D01*
X129135317Y-106413162D01*
X129351441Y-106274090D01*
X129496431Y-106061890D01*
X129547440Y-105810000D01*
X129547440Y-104110000D01*
X129503162Y-103874683D01*
X129364090Y-103658559D01*
X129151890Y-103513569D01*
X128900000Y-103462560D01*
X127200000Y-103462560D01*
X126964683Y-103506838D01*
X126748559Y-103645910D01*
X126603569Y-103858110D01*
X126552560Y-104110000D01*
X126552560Y-105810000D01*
X126596838Y-106045317D01*
X126735910Y-106261441D01*
X126741411Y-106265200D01*
X125947106Y-107059506D01*
X125792937Y-107290235D01*
X125751212Y-107500000D01*
X125738800Y-107562400D01*
X125738800Y-123509194D01*
X124839803Y-122610197D01*
X124797789Y-122582334D01*
X124750000Y-122573000D01*
X113802606Y-122573000D01*
X112823269Y-121593663D01*
X122871931Y-121593663D01*
X123020493Y-121953212D01*
X123295341Y-122228540D01*
X123654630Y-122377730D01*
X124043663Y-122378069D01*
X124403212Y-122229507D01*
X124678540Y-121954659D01*
X124827730Y-121595370D01*
X124828069Y-121206337D01*
X124679507Y-120846788D01*
X124404659Y-120571460D01*
X124045370Y-120422270D01*
X123656337Y-120421931D01*
X123296788Y-120570493D01*
X123021460Y-120845341D01*
X122872270Y-121204630D01*
X122871931Y-121593663D01*
X112823269Y-121593663D01*
X110173269Y-118943663D01*
X122171931Y-118943663D01*
X122320493Y-119303212D01*
X122595341Y-119578540D01*
X122954630Y-119727730D01*
X123343663Y-119728069D01*
X123499940Y-119663497D01*
X123654630Y-119727730D01*
X124043663Y-119728069D01*
X124403212Y-119579507D01*
X124678540Y-119304659D01*
X124827730Y-118945370D01*
X124828069Y-118556337D01*
X124679507Y-118196788D01*
X124404659Y-117921460D01*
X124045370Y-117772270D01*
X123656337Y-117771931D01*
X123500060Y-117836503D01*
X123345370Y-117772270D01*
X122956337Y-117771931D01*
X122596788Y-117920493D01*
X122321460Y-118195341D01*
X122172270Y-118554630D01*
X122171931Y-118943663D01*
X110173269Y-118943663D01*
X108889803Y-117660197D01*
X108847789Y-117632334D01*
X108800000Y-117623000D01*
X100710000Y-117623000D01*
X100710000Y-112556890D01*
X104808524Y-112556890D01*
X104978355Y-112966924D01*
X105368642Y-113395183D01*
X105893108Y-113641486D01*
X106123000Y-113520819D01*
X106123000Y-112327000D01*
X106377000Y-112327000D01*
X106377000Y-113520819D01*
X106606892Y-113641486D01*
X106921659Y-113493663D01*
X120121931Y-113493663D01*
X120270493Y-113853212D01*
X120545341Y-114128540D01*
X120904630Y-114277730D01*
X121293663Y-114278069D01*
X121653212Y-114129507D01*
X121928540Y-113854659D01*
X122077730Y-113495370D01*
X122078069Y-113106337D01*
X121929507Y-112746788D01*
X121654659Y-112471460D01*
X121295370Y-112322270D01*
X120906337Y-112321931D01*
X120546788Y-112470493D01*
X120271460Y-112745341D01*
X120122270Y-113104630D01*
X120121931Y-113493663D01*
X106921659Y-113493663D01*
X107131358Y-113395183D01*
X107521645Y-112966924D01*
X107676245Y-112593663D01*
X116271931Y-112593663D01*
X116420493Y-112953212D01*
X116695341Y-113228540D01*
X117054630Y-113377730D01*
X117443663Y-113378069D01*
X117564646Y-113328080D01*
X117804630Y-113427730D01*
X118193663Y-113428069D01*
X118553212Y-113279507D01*
X118828540Y-113004659D01*
X118977730Y-112645370D01*
X118978069Y-112256337D01*
X118829507Y-111896788D01*
X118554659Y-111621460D01*
X118195370Y-111472270D01*
X117806337Y-111471931D01*
X117685354Y-111521920D01*
X117445370Y-111422270D01*
X117056337Y-111421931D01*
X116696788Y-111570493D01*
X116421460Y-111845341D01*
X116272270Y-112204630D01*
X116271931Y-112593663D01*
X107676245Y-112593663D01*
X107691476Y-112556890D01*
X107570155Y-112327000D01*
X106377000Y-112327000D01*
X106123000Y-112327000D01*
X104929845Y-112327000D01*
X104808524Y-112556890D01*
X100710000Y-112556890D01*
X100710000Y-107120000D01*
X104735907Y-107120000D01*
X104848946Y-107688285D01*
X105170853Y-108170054D01*
X105500026Y-108390000D01*
X105170853Y-108609946D01*
X104848946Y-109091715D01*
X104735907Y-109660000D01*
X104848946Y-110228285D01*
X105170853Y-110710054D01*
X105511553Y-110937702D01*
X105368642Y-111004817D01*
X104978355Y-111433076D01*
X104808524Y-111843110D01*
X104929845Y-112073000D01*
X106123000Y-112073000D01*
X106123000Y-112053000D01*
X106377000Y-112053000D01*
X106377000Y-112073000D01*
X107570155Y-112073000D01*
X107691476Y-111843110D01*
X107521645Y-111433076D01*
X107131358Y-111004817D01*
X106988447Y-110937702D01*
X107329147Y-110710054D01*
X107651054Y-110228285D01*
X107764093Y-109660000D01*
X107651054Y-109091715D01*
X107329147Y-108609946D01*
X106999974Y-108390000D01*
X107329147Y-108170054D01*
X107651054Y-107688285D01*
X107764093Y-107120000D01*
X107651054Y-106551715D01*
X107411812Y-106193663D01*
X111671931Y-106193663D01*
X111820493Y-106553212D01*
X112095341Y-106828540D01*
X112454630Y-106977730D01*
X112733339Y-106977973D01*
X112722270Y-107004630D01*
X112721931Y-107393663D01*
X112870493Y-107753212D01*
X113145341Y-108028540D01*
X113504630Y-108177730D01*
X113893663Y-108178069D01*
X114024878Y-108123852D01*
X114154630Y-108177730D01*
X114543663Y-108178069D01*
X114903212Y-108029507D01*
X115178540Y-107754659D01*
X115327505Y-107395910D01*
X116589840Y-107395910D01*
X116738402Y-107755459D01*
X117013250Y-108030787D01*
X117372539Y-108179977D01*
X117761572Y-108180316D01*
X118001563Y-108081154D01*
X118004630Y-108082428D01*
X118393663Y-108082767D01*
X118753212Y-107934205D01*
X119028540Y-107659357D01*
X119177730Y-107300068D01*
X119178011Y-106977794D01*
X119493663Y-106978069D01*
X119853212Y-106829507D01*
X120128540Y-106554659D01*
X120277730Y-106195370D01*
X120278069Y-105806337D01*
X120129507Y-105446788D01*
X119854659Y-105171460D01*
X119495370Y-105022270D01*
X119106337Y-105021931D01*
X118746788Y-105170493D01*
X118471460Y-105445341D01*
X118414723Y-105581978D01*
X118154659Y-105321460D01*
X117795370Y-105172270D01*
X117406337Y-105171931D01*
X117046788Y-105320493D01*
X116771460Y-105595341D01*
X116622270Y-105954630D01*
X116621931Y-106343663D01*
X116745132Y-106641835D01*
X116739369Y-106647588D01*
X116590179Y-107006877D01*
X116589840Y-107395910D01*
X115327505Y-107395910D01*
X115327730Y-107395370D01*
X115328069Y-107006337D01*
X115191010Y-106674628D01*
X115327730Y-106345370D01*
X115328069Y-105956337D01*
X115179507Y-105596788D01*
X114904659Y-105321460D01*
X114545370Y-105172270D01*
X114156337Y-105171931D01*
X113796788Y-105320493D01*
X113535214Y-105581611D01*
X113479507Y-105446788D01*
X113204659Y-105171460D01*
X112845370Y-105022270D01*
X112456337Y-105021931D01*
X112096788Y-105170493D01*
X111821460Y-105445341D01*
X111672270Y-105804630D01*
X111671931Y-106193663D01*
X107411812Y-106193663D01*
X107329147Y-106069946D01*
X107287548Y-106042150D01*
X107335317Y-106033162D01*
X107551441Y-105894090D01*
X107696431Y-105681890D01*
X107747440Y-105430000D01*
X107747440Y-103730000D01*
X107703162Y-103494683D01*
X107665240Y-103435750D01*
X138345000Y-103435750D01*
X138345000Y-105251310D01*
X138441673Y-105484699D01*
X138620302Y-105663327D01*
X138853691Y-105760000D01*
X139444250Y-105760000D01*
X139603000Y-105601250D01*
X139603000Y-103277000D01*
X139857000Y-103277000D01*
X139857000Y-105601250D01*
X140015750Y-105760000D01*
X140606309Y-105760000D01*
X140839698Y-105663327D01*
X141018327Y-105484699D01*
X141115000Y-105251310D01*
X141115000Y-103435750D01*
X143885000Y-103435750D01*
X143885000Y-105251310D01*
X143981673Y-105484699D01*
X144160302Y-105663327D01*
X144393691Y-105760000D01*
X144984250Y-105760000D01*
X145143000Y-105601250D01*
X145143000Y-103277000D01*
X145397000Y-103277000D01*
X145397000Y-105601250D01*
X145555750Y-105760000D01*
X146146309Y-105760000D01*
X146379698Y-105663327D01*
X146558327Y-105484699D01*
X146655000Y-105251310D01*
X146655000Y-103435750D01*
X146496250Y-103277000D01*
X145397000Y-103277000D01*
X145143000Y-103277000D01*
X144043750Y-103277000D01*
X143885000Y-103435750D01*
X141115000Y-103435750D01*
X140956250Y-103277000D01*
X139857000Y-103277000D01*
X139603000Y-103277000D01*
X138503750Y-103277000D01*
X138345000Y-103435750D01*
X107665240Y-103435750D01*
X107564090Y-103278559D01*
X107351890Y-103133569D01*
X107100000Y-103082560D01*
X105400000Y-103082560D01*
X105164683Y-103126838D01*
X104948559Y-103265910D01*
X104803569Y-103478110D01*
X104752560Y-103730000D01*
X104752560Y-105430000D01*
X104796838Y-105665317D01*
X104935910Y-105881441D01*
X105148110Y-106026431D01*
X105215541Y-106040086D01*
X105170853Y-106069946D01*
X104848946Y-106551715D01*
X104735907Y-107120000D01*
X100710000Y-107120000D01*
X100710000Y-100710000D01*
X138546975Y-100710000D01*
X138441673Y-100815301D01*
X138441673Y-100815301D01*
G37*
X138441673Y-100815301D02*
X138345000Y-101048690D01*
X138345000Y-102864250D01*
X138503750Y-103023000D01*
X139603000Y-103023000D01*
X139603000Y-103003000D01*
X139857000Y-103003000D01*
X139857000Y-103023000D01*
X140956250Y-103023000D01*
X141115000Y-102864250D01*
X141115000Y-101048690D01*
X141018327Y-100815301D01*
X140913025Y-100710000D01*
X144086975Y-100710000D01*
X143981673Y-100815301D01*
X143885000Y-101048690D01*
X143885000Y-102864250D01*
X144043750Y-103023000D01*
X145143000Y-103023000D01*
X145143000Y-103003000D01*
X145397000Y-103003000D01*
X145397000Y-103023000D01*
X146496250Y-103023000D01*
X146655000Y-102864250D01*
X146655000Y-101048690D01*
X146558327Y-100815301D01*
X146453025Y-100710000D01*
X151290000Y-100710000D01*
X151290000Y-167290000D01*
X145503025Y-167290000D01*
X145608327Y-167184699D01*
X145705000Y-166951310D01*
X145705000Y-165135750D01*
X145546250Y-164977000D01*
X144447000Y-164977000D01*
X144447000Y-164997000D01*
X144193000Y-164997000D01*
X144193000Y-164977000D01*
X143093750Y-164977000D01*
X142935000Y-165135750D01*
X142935000Y-166951310D01*
X143031673Y-167184699D01*
X143136975Y-167290000D01*
X139963025Y-167290000D01*
X140068327Y-167184699D01*
X140165000Y-166951310D01*
X140165000Y-165135750D01*
X140006250Y-164977000D01*
X138907000Y-164977000D01*
X138907000Y-164997000D01*
X138653000Y-164997000D01*
X138653000Y-164977000D01*
X137553750Y-164977000D01*
X137395000Y-165135750D01*
X137395000Y-166951310D01*
X137491673Y-167184699D01*
X137596975Y-167290000D01*
X136177000Y-167290000D01*
X136177000Y-162748690D01*
X137395000Y-162748690D01*
X137395000Y-164564250D01*
X137553750Y-164723000D01*
X138653000Y-164723000D01*
X138653000Y-162398750D01*
X138907000Y-162398750D01*
X138907000Y-164723000D01*
X140006250Y-164723000D01*
X140165000Y-164564250D01*
X140165000Y-162748690D01*
X142935000Y-162748690D01*
X142935000Y-164564250D01*
X143093750Y-164723000D01*
X144193000Y-164723000D01*
X144193000Y-162398750D01*
X144447000Y-162398750D01*
X144447000Y-164723000D01*
X145546250Y-164723000D01*
X145705000Y-164564250D01*
X145705000Y-162748690D01*
X145608327Y-162515301D01*
X145429698Y-162336673D01*
X145196309Y-162240000D01*
X144605750Y-162240000D01*
X144447000Y-162398750D01*
X144193000Y-162398750D01*
X144034250Y-162240000D01*
X143443691Y-162240000D01*
X143210302Y-162336673D01*
X143031673Y-162515301D01*
X142935000Y-162748690D01*
X140165000Y-162748690D01*
X140068327Y-162515301D01*
X139889698Y-162336673D01*
X139656309Y-162240000D01*
X139065750Y-162240000D01*
X138907000Y-162398750D01*
X138653000Y-162398750D01*
X138494250Y-162240000D01*
X137903691Y-162240000D01*
X137670302Y-162336673D01*
X137491673Y-162515301D01*
X137395000Y-162748690D01*
X136177000Y-162748690D01*
X136177000Y-157810433D01*
X136494714Y-157492719D01*
X136494717Y-157492717D01*
X136633008Y-157285750D01*
X136673663Y-157224906D01*
X136736500Y-156909000D01*
X136736500Y-154856005D01*
X136736501Y-154856000D01*
X136673663Y-154540095D01*
X136656895Y-154515000D01*
X136494717Y-154272283D01*
X136494714Y-154272281D01*
X136177440Y-153955007D01*
X136177440Y-153825000D01*
X136177000Y-153822662D01*
X136177000Y-152577173D01*
X136177440Y-152575000D01*
X136177440Y-151925000D01*
X136177000Y-151922662D01*
X136177000Y-150593663D01*
X144071931Y-150593663D01*
X144220493Y-150953212D01*
X144495341Y-151228540D01*
X144854630Y-151377730D01*
X145225408Y-151378053D01*
X145422830Y-151460030D01*
X145811863Y-151460369D01*
X146171412Y-151311807D01*
X146446740Y-151036959D01*
X146595930Y-150677670D01*
X146596269Y-150288637D01*
X146447707Y-149929088D01*
X146172859Y-149653760D01*
X145813570Y-149504570D01*
X145442792Y-149504247D01*
X145245370Y-149422270D01*
X144856337Y-149421931D01*
X144496788Y-149570493D01*
X144221460Y-149845341D01*
X144072270Y-150204630D01*
X144071931Y-150593663D01*
X136177000Y-150593663D01*
X136177000Y-150577173D01*
X136177440Y-150575000D01*
X136177440Y-149925000D01*
X136177000Y-149922662D01*
X136177000Y-148677173D01*
X136177440Y-148675000D01*
X136177440Y-148025000D01*
X136177000Y-148022662D01*
X136177000Y-147600000D01*
X136166994Y-147550590D01*
X136138553Y-147508965D01*
X136096159Y-147481685D01*
X136050000Y-147473000D01*
X135846917Y-147473000D01*
X135781890Y-147428569D01*
X135530000Y-147377560D01*
X134958110Y-147377560D01*
X134945370Y-147372270D01*
X134556337Y-147371931D01*
X134542714Y-147377560D01*
X133970000Y-147377560D01*
X133734683Y-147421838D01*
X133655175Y-147473000D01*
X133156688Y-147473000D01*
X132956309Y-147390000D01*
X132335750Y-147390000D01*
X132252750Y-147473000D01*
X131847250Y-147473000D01*
X131764250Y-147390000D01*
X131655389Y-147390000D01*
X131777730Y-147095370D01*
X131778069Y-146706337D01*
X131629507Y-146346788D01*
X131625500Y-146342774D01*
X131625500Y-145791934D01*
X132000081Y-145417353D01*
X143852731Y-145417353D01*
X144001293Y-145776902D01*
X144276141Y-146052230D01*
X144635430Y-146201420D01*
X145024463Y-146201759D01*
X145208503Y-146125716D01*
X145270430Y-146151430D01*
X145659463Y-146151769D01*
X146019012Y-146003207D01*
X146294340Y-145728359D01*
X146443530Y-145369070D01*
X146443869Y-144980037D01*
X146295307Y-144620488D01*
X146020459Y-144345160D01*
X145661170Y-144195970D01*
X145272137Y-144195631D01*
X145088097Y-144271674D01*
X145026170Y-144245960D01*
X144637137Y-144245621D01*
X144277588Y-144394183D01*
X144002260Y-144669031D01*
X143853070Y-145028320D01*
X143852731Y-145417353D01*
X132000081Y-145417353D01*
X133683717Y-143733717D01*
X133846636Y-143489892D01*
X134705312Y-142631216D01*
X134728924Y-142595878D01*
X140689630Y-136635172D01*
X140854377Y-136388610D01*
X140912229Y-136097771D01*
X140912229Y-133693663D01*
X141071931Y-133693663D01*
X141220493Y-134053212D01*
X141495341Y-134328540D01*
X141854630Y-134477730D01*
X142243663Y-134478069D01*
X142314523Y-134448790D01*
X142504630Y-134527730D01*
X142893663Y-134528069D01*
X143253212Y-134379507D01*
X143528540Y-134104659D01*
X143677730Y-133745370D01*
X143678069Y-133356337D01*
X143529507Y-132996788D01*
X143254659Y-132721460D01*
X142895370Y-132572270D01*
X142506337Y-132571931D01*
X142435477Y-132601210D01*
X142245370Y-132522270D01*
X141856337Y-132521931D01*
X141496788Y-132670493D01*
X141221460Y-132945341D01*
X141072270Y-133304630D01*
X141071931Y-133693663D01*
X140912229Y-133693663D01*
X140912229Y-127983569D01*
X140854377Y-127692730D01*
X140854377Y-127692729D01*
X140787272Y-127592300D01*
X140787399Y-127447007D01*
X140678685Y-127183897D01*
X140777730Y-126945370D01*
X140778069Y-126556337D01*
X140629507Y-126196788D01*
X140354659Y-125921460D01*
X139995370Y-125772270D01*
X139606337Y-125771931D01*
X139246788Y-125920493D01*
X139177160Y-125990000D01*
X138800000Y-125990000D01*
X138509161Y-126047852D01*
X138262599Y-126212599D01*
X138177990Y-126297208D01*
X138178069Y-126206337D01*
X138029507Y-125846788D01*
X137754659Y-125571460D01*
X137395370Y-125422270D01*
X137277543Y-125422167D01*
X137214090Y-125323559D01*
X137001890Y-125178569D01*
X136750000Y-125127560D01*
X135250000Y-125127560D01*
X135014683Y-125171838D01*
X134798559Y-125310910D01*
X134752031Y-125379006D01*
X134609698Y-125236673D01*
X134376309Y-125140000D01*
X133984627Y-125140000D01*
X134127730Y-124795370D01*
X134128069Y-124406337D01*
X133979507Y-124046788D01*
X133704659Y-123771460D01*
X133345370Y-123622270D01*
X132956337Y-123621931D01*
X132596788Y-123770493D01*
X132527160Y-123840000D01*
X129144295Y-123840000D01*
X129222330Y-123652070D01*
X129222416Y-123553686D01*
X130261700Y-122514402D01*
X130426447Y-122267840D01*
X130484299Y-121977001D01*
X130484299Y-118487747D01*
X130620410Y-118431507D01*
X130895738Y-118156659D01*
X131044928Y-117797370D01*
X131045267Y-117408337D01*
X130896705Y-117048788D01*
X130621857Y-116773460D01*
X130262568Y-116624270D01*
X129873535Y-116623931D01*
X129513986Y-116772493D01*
X129238658Y-117047341D01*
X129089468Y-117406630D01*
X129089340Y-117553504D01*
X129022151Y-117654060D01*
X128964299Y-117944899D01*
X128964299Y-118997121D01*
X128693970Y-118884870D01*
X128304937Y-118884531D01*
X127945388Y-119033093D01*
X127670060Y-119307941D01*
X127520870Y-119667230D01*
X127520531Y-120056263D01*
X127669093Y-120415812D01*
X127943941Y-120691140D01*
X127970349Y-120702105D01*
X128088193Y-120987312D01*
X128363041Y-121262640D01*
X128722330Y-121411830D01*
X128964299Y-121412041D01*
X128964299Y-121662199D01*
X128147783Y-122478715D01*
X128050937Y-122478631D01*
X127691388Y-122627193D01*
X127416060Y-122902041D01*
X127266870Y-123261330D01*
X127266531Y-123650363D01*
X127366282Y-123891779D01*
X127296788Y-123920493D01*
X127161200Y-124055845D01*
X127161200Y-114850051D01*
X129811727Y-114850051D01*
X129960289Y-115209600D01*
X130235137Y-115484928D01*
X130594426Y-115634118D01*
X130983459Y-115634457D01*
X131343008Y-115485895D01*
X131618336Y-115211047D01*
X131767526Y-114851758D01*
X131767850Y-114479410D01*
X132004630Y-114577730D01*
X132393663Y-114578069D01*
X132677833Y-114460653D01*
X132895341Y-114678540D01*
X133254630Y-114827730D01*
X133346621Y-114827810D01*
X133448742Y-115074963D01*
X133723590Y-115350291D01*
X134082879Y-115499481D01*
X134471912Y-115499820D01*
X134831461Y-115351258D01*
X135106789Y-115076410D01*
X135255979Y-114717121D01*
X135256318Y-114328088D01*
X135107756Y-113968539D01*
X134832908Y-113693211D01*
X134473619Y-113544021D01*
X134427731Y-113543981D01*
X134428063Y-113163079D01*
X134669329Y-113063390D01*
X134944657Y-112788542D01*
X135093847Y-112429253D01*
X135094186Y-112040220D01*
X134945624Y-111680671D01*
X134670776Y-111405343D01*
X134311487Y-111256153D01*
X133922454Y-111255814D01*
X133562905Y-111404376D01*
X133287577Y-111679224D01*
X133138387Y-112038513D01*
X133138054Y-112420804D01*
X132896788Y-112520493D01*
X132677484Y-112739414D01*
X132395370Y-112622270D01*
X132006337Y-112621931D01*
X131646788Y-112770493D01*
X131371460Y-113045341D01*
X131222270Y-113404630D01*
X131221946Y-113776978D01*
X130985166Y-113678658D01*
X130596133Y-113678319D01*
X130236584Y-113826881D01*
X129961256Y-114101729D01*
X129812066Y-114461018D01*
X129811727Y-114850051D01*
X127161200Y-114850051D01*
X127161200Y-111227017D01*
X127168642Y-111235183D01*
X127693108Y-111481486D01*
X127923000Y-111360819D01*
X127923000Y-110167000D01*
X128177000Y-110167000D01*
X128177000Y-111360819D01*
X128406892Y-111481486D01*
X128931358Y-111235183D01*
X129321645Y-110806924D01*
X129491476Y-110396890D01*
X129370155Y-110167000D01*
X128177000Y-110167000D01*
X127923000Y-110167000D01*
X127903000Y-110167000D01*
X127903000Y-109913000D01*
X127923000Y-109913000D01*
X127923000Y-109893000D01*
X128177000Y-109893000D01*
X128177000Y-109913000D01*
X129370155Y-109913000D01*
X129491476Y-109683110D01*
X129321645Y-109273076D01*
X128931358Y-108844817D01*
X128788447Y-108777702D01*
X129129147Y-108550054D01*
X129451054Y-108068285D01*
X129564093Y-107500000D01*
X129451054Y-106931715D01*
X129129147Y-106449946D01*
X129087548Y-106422150D01*
X129135317Y-106413162D01*
X129351441Y-106274090D01*
X129496431Y-106061890D01*
X129547440Y-105810000D01*
X129547440Y-104110000D01*
X129503162Y-103874683D01*
X129364090Y-103658559D01*
X129151890Y-103513569D01*
X128900000Y-103462560D01*
X127200000Y-103462560D01*
X126964683Y-103506838D01*
X126748559Y-103645910D01*
X126603569Y-103858110D01*
X126552560Y-104110000D01*
X126552560Y-105810000D01*
X126596838Y-106045317D01*
X126735910Y-106261441D01*
X126741411Y-106265200D01*
X125947106Y-107059506D01*
X125792937Y-107290235D01*
X125751212Y-107500000D01*
X125738800Y-107562400D01*
X125738800Y-123509194D01*
X124839803Y-122610197D01*
X124797789Y-122582334D01*
X124750000Y-122573000D01*
X113802606Y-122573000D01*
X112823269Y-121593663D01*
X122871931Y-121593663D01*
X123020493Y-121953212D01*
X123295341Y-122228540D01*
X123654630Y-122377730D01*
X124043663Y-122378069D01*
X124403212Y-122229507D01*
X124678540Y-121954659D01*
X124827730Y-121595370D01*
X124828069Y-121206337D01*
X124679507Y-120846788D01*
X124404659Y-120571460D01*
X124045370Y-120422270D01*
X123656337Y-120421931D01*
X123296788Y-120570493D01*
X123021460Y-120845341D01*
X122872270Y-121204630D01*
X122871931Y-121593663D01*
X112823269Y-121593663D01*
X110173269Y-118943663D01*
X122171931Y-118943663D01*
X122320493Y-119303212D01*
X122595341Y-119578540D01*
X122954630Y-119727730D01*
X123343663Y-119728069D01*
X123499940Y-119663497D01*
X123654630Y-119727730D01*
X124043663Y-119728069D01*
X124403212Y-119579507D01*
X124678540Y-119304659D01*
X124827730Y-118945370D01*
X124828069Y-118556337D01*
X124679507Y-118196788D01*
X124404659Y-117921460D01*
X124045370Y-117772270D01*
X123656337Y-117771931D01*
X123500060Y-117836503D01*
X123345370Y-117772270D01*
X122956337Y-117771931D01*
X122596788Y-117920493D01*
X122321460Y-118195341D01*
X122172270Y-118554630D01*
X122171931Y-118943663D01*
X110173269Y-118943663D01*
X108889803Y-117660197D01*
X108847789Y-117632334D01*
X108800000Y-117623000D01*
X100710000Y-117623000D01*
X100710000Y-112556890D01*
X104808524Y-112556890D01*
X104978355Y-112966924D01*
X105368642Y-113395183D01*
X105893108Y-113641486D01*
X106123000Y-113520819D01*
X106123000Y-112327000D01*
X106377000Y-112327000D01*
X106377000Y-113520819D01*
X106606892Y-113641486D01*
X106921659Y-113493663D01*
X120121931Y-113493663D01*
X120270493Y-113853212D01*
X120545341Y-114128540D01*
X120904630Y-114277730D01*
X121293663Y-114278069D01*
X121653212Y-114129507D01*
X121928540Y-113854659D01*
X122077730Y-113495370D01*
X122078069Y-113106337D01*
X121929507Y-112746788D01*
X121654659Y-112471460D01*
X121295370Y-112322270D01*
X120906337Y-112321931D01*
X120546788Y-112470493D01*
X120271460Y-112745341D01*
X120122270Y-113104630D01*
X120121931Y-113493663D01*
X106921659Y-113493663D01*
X107131358Y-113395183D01*
X107521645Y-112966924D01*
X107676245Y-112593663D01*
X116271931Y-112593663D01*
X116420493Y-112953212D01*
X116695341Y-113228540D01*
X117054630Y-113377730D01*
X117443663Y-113378069D01*
X117564646Y-113328080D01*
X117804630Y-113427730D01*
X118193663Y-113428069D01*
X118553212Y-113279507D01*
X118828540Y-113004659D01*
X118977730Y-112645370D01*
X118978069Y-112256337D01*
X118829507Y-111896788D01*
X118554659Y-111621460D01*
X118195370Y-111472270D01*
X117806337Y-111471931D01*
X117685354Y-111521920D01*
X117445370Y-111422270D01*
X117056337Y-111421931D01*
X116696788Y-111570493D01*
X116421460Y-111845341D01*
X116272270Y-112204630D01*
X116271931Y-112593663D01*
X107676245Y-112593663D01*
X107691476Y-112556890D01*
X107570155Y-112327000D01*
X106377000Y-112327000D01*
X106123000Y-112327000D01*
X104929845Y-112327000D01*
X104808524Y-112556890D01*
X100710000Y-112556890D01*
X100710000Y-107120000D01*
X104735907Y-107120000D01*
X104848946Y-107688285D01*
X105170853Y-108170054D01*
X105500026Y-108390000D01*
X105170853Y-108609946D01*
X104848946Y-109091715D01*
X104735907Y-109660000D01*
X104848946Y-110228285D01*
X105170853Y-110710054D01*
X105511553Y-110937702D01*
X105368642Y-111004817D01*
X104978355Y-111433076D01*
X104808524Y-111843110D01*
X104929845Y-112073000D01*
X106123000Y-112073000D01*
X106123000Y-112053000D01*
X106377000Y-112053000D01*
X106377000Y-112073000D01*
X107570155Y-112073000D01*
X107691476Y-111843110D01*
X107521645Y-111433076D01*
X107131358Y-111004817D01*
X106988447Y-110937702D01*
X107329147Y-110710054D01*
X107651054Y-110228285D01*
X107764093Y-109660000D01*
X107651054Y-109091715D01*
X107329147Y-108609946D01*
X106999974Y-108390000D01*
X107329147Y-108170054D01*
X107651054Y-107688285D01*
X107764093Y-107120000D01*
X107651054Y-106551715D01*
X107411812Y-106193663D01*
X111671931Y-106193663D01*
X111820493Y-106553212D01*
X112095341Y-106828540D01*
X112454630Y-106977730D01*
X112733339Y-106977973D01*
X112722270Y-107004630D01*
X112721931Y-107393663D01*
X112870493Y-107753212D01*
X113145341Y-108028540D01*
X113504630Y-108177730D01*
X113893663Y-108178069D01*
X114024878Y-108123852D01*
X114154630Y-108177730D01*
X114543663Y-108178069D01*
X114903212Y-108029507D01*
X115178540Y-107754659D01*
X115327505Y-107395910D01*
X116589840Y-107395910D01*
X116738402Y-107755459D01*
X117013250Y-108030787D01*
X117372539Y-108179977D01*
X117761572Y-108180316D01*
X118001563Y-108081154D01*
X118004630Y-108082428D01*
X118393663Y-108082767D01*
X118753212Y-107934205D01*
X119028540Y-107659357D01*
X119177730Y-107300068D01*
X119178011Y-106977794D01*
X119493663Y-106978069D01*
X119853212Y-106829507D01*
X120128540Y-106554659D01*
X120277730Y-106195370D01*
X120278069Y-105806337D01*
X120129507Y-105446788D01*
X119854659Y-105171460D01*
X119495370Y-105022270D01*
X119106337Y-105021931D01*
X118746788Y-105170493D01*
X118471460Y-105445341D01*
X118414723Y-105581978D01*
X118154659Y-105321460D01*
X117795370Y-105172270D01*
X117406337Y-105171931D01*
X117046788Y-105320493D01*
X116771460Y-105595341D01*
X116622270Y-105954630D01*
X116621931Y-106343663D01*
X116745132Y-106641835D01*
X116739369Y-106647588D01*
X116590179Y-107006877D01*
X116589840Y-107395910D01*
X115327505Y-107395910D01*
X115327730Y-107395370D01*
X115328069Y-107006337D01*
X115191010Y-106674628D01*
X115327730Y-106345370D01*
X115328069Y-105956337D01*
X115179507Y-105596788D01*
X114904659Y-105321460D01*
X114545370Y-105172270D01*
X114156337Y-105171931D01*
X113796788Y-105320493D01*
X113535214Y-105581611D01*
X113479507Y-105446788D01*
X113204659Y-105171460D01*
X112845370Y-105022270D01*
X112456337Y-105021931D01*
X112096788Y-105170493D01*
X111821460Y-105445341D01*
X111672270Y-105804630D01*
X111671931Y-106193663D01*
X107411812Y-106193663D01*
X107329147Y-106069946D01*
X107287548Y-106042150D01*
X107335317Y-106033162D01*
X107551441Y-105894090D01*
X107696431Y-105681890D01*
X107747440Y-105430000D01*
X107747440Y-103730000D01*
X107703162Y-103494683D01*
X107665240Y-103435750D01*
X138345000Y-103435750D01*
X138345000Y-105251310D01*
X138441673Y-105484699D01*
X138620302Y-105663327D01*
X138853691Y-105760000D01*
X139444250Y-105760000D01*
X139603000Y-105601250D01*
X139603000Y-103277000D01*
X139857000Y-103277000D01*
X139857000Y-105601250D01*
X140015750Y-105760000D01*
X140606309Y-105760000D01*
X140839698Y-105663327D01*
X141018327Y-105484699D01*
X141115000Y-105251310D01*
X141115000Y-103435750D01*
X143885000Y-103435750D01*
X143885000Y-105251310D01*
X143981673Y-105484699D01*
X144160302Y-105663327D01*
X144393691Y-105760000D01*
X144984250Y-105760000D01*
X145143000Y-105601250D01*
X145143000Y-103277000D01*
X145397000Y-103277000D01*
X145397000Y-105601250D01*
X145555750Y-105760000D01*
X146146309Y-105760000D01*
X146379698Y-105663327D01*
X146558327Y-105484699D01*
X146655000Y-105251310D01*
X146655000Y-103435750D01*
X146496250Y-103277000D01*
X145397000Y-103277000D01*
X145143000Y-103277000D01*
X144043750Y-103277000D01*
X143885000Y-103435750D01*
X141115000Y-103435750D01*
X140956250Y-103277000D01*
X139857000Y-103277000D01*
X139603000Y-103277000D01*
X138503750Y-103277000D01*
X138345000Y-103435750D01*
X107665240Y-103435750D01*
X107564090Y-103278559D01*
X107351890Y-103133569D01*
X107100000Y-103082560D01*
X105400000Y-103082560D01*
X105164683Y-103126838D01*
X104948559Y-103265910D01*
X104803569Y-103478110D01*
X104752560Y-103730000D01*
X104752560Y-105430000D01*
X104796838Y-105665317D01*
X104935910Y-105881441D01*
X105148110Y-106026431D01*
X105215541Y-106040086D01*
X105170853Y-106069946D01*
X104848946Y-106551715D01*
X104735907Y-107120000D01*
X100710000Y-107120000D01*
X100710000Y-100710000D01*
X138546975Y-100710000D01*
X138441673Y-100815301D01*
G36*
X137540000Y-132672178D02*
X137256337Y-132671931D01*
X136896788Y-132820493D01*
X136621460Y-133095341D01*
X136548010Y-133272229D01*
X136206337Y-133271931D01*
X135846788Y-133420493D01*
X135571460Y-133695341D01*
X135422270Y-134054630D01*
X135421931Y-134443663D01*
X135570493Y-134803212D01*
X135845341Y-135078540D01*
X136204630Y-135227730D01*
X136593663Y-135228069D01*
X136842311Y-135125330D01*
X136945341Y-135228540D01*
X137304630Y-135377730D01*
X137540000Y-135377935D01*
X137540000Y-136985198D01*
X133388796Y-141136402D01*
X133384094Y-141137337D01*
X133116283Y-141316283D01*
X132582483Y-141850083D01*
X132573400Y-141851890D01*
X132563149Y-141853929D01*
X132295337Y-142032875D01*
X132295335Y-142032878D01*
X131385479Y-142942734D01*
X131227000Y-142876928D01*
X131227000Y-138175990D01*
X131261673Y-138259698D01*
X131440301Y-138438327D01*
X131673690Y-138535000D01*
X133414250Y-138535000D01*
X133573000Y-138376250D01*
X133573000Y-137027000D01*
X133827000Y-137027000D01*
X133827000Y-138376250D01*
X133985750Y-138535000D01*
X135726310Y-138535000D01*
X135959699Y-138438327D01*
X136138327Y-138259698D01*
X136235000Y-138026309D01*
X136235000Y-137185750D01*
X136076250Y-137027000D01*
X133827000Y-137027000D01*
X133573000Y-137027000D01*
X133553000Y-137027000D01*
X133553000Y-136773000D01*
X133573000Y-136773000D01*
X133573000Y-135423750D01*
X133827000Y-135423750D01*
X133827000Y-136773000D01*
X136076250Y-136773000D01*
X136235000Y-136614250D01*
X136235000Y-135773691D01*
X136138327Y-135540302D01*
X135959699Y-135361673D01*
X135726310Y-135265000D01*
X133985750Y-135265000D01*
X133827000Y-135423750D01*
X133573000Y-135423750D01*
X133414250Y-135265000D01*
X131673690Y-135265000D01*
X131440301Y-135361673D01*
X131261673Y-135540302D01*
X131227000Y-135624010D01*
X131227000Y-133743663D01*
X131371931Y-133743663D01*
X131436503Y-133899940D01*
X131372270Y-134054630D01*
X131371931Y-134443663D01*
X131520493Y-134803212D01*
X131795341Y-135078540D01*
X132154630Y-135227730D01*
X132543663Y-135228069D01*
X132903212Y-135079507D01*
X133178540Y-134804659D01*
X133275053Y-134572229D01*
X133370493Y-134803212D01*
X133645341Y-135078540D01*
X134004630Y-135227730D01*
X134393663Y-135228069D01*
X134753212Y-135079507D01*
X135028540Y-134804659D01*
X135177730Y-134445370D01*
X135178069Y-134056337D01*
X135029507Y-133696788D01*
X134754659Y-133421460D01*
X134395370Y-133272270D01*
X134006337Y-133271931D01*
X133646788Y-133420493D01*
X133371460Y-133695341D01*
X133274947Y-133927771D01*
X133263497Y-133900060D01*
X133327730Y-133745370D01*
X133328069Y-133356337D01*
X133179507Y-132996788D01*
X132904659Y-132721460D01*
X132545370Y-132572270D01*
X132156337Y-132571931D01*
X131796788Y-132720493D01*
X131521460Y-132995341D01*
X131372270Y-133354630D01*
X131371931Y-133743663D01*
X131227000Y-133743663D01*
X131227000Y-132247440D01*
X132150000Y-132247440D01*
X132385317Y-132203162D01*
X132549492Y-132097518D01*
X132590301Y-132138327D01*
X132823690Y-132235000D01*
X133414250Y-132235000D01*
X133573000Y-132076250D01*
X133573000Y-130727000D01*
X133553000Y-130727000D01*
X133553000Y-130473000D01*
X133573000Y-130473000D01*
X133573000Y-130453000D01*
X133827000Y-130453000D01*
X133827000Y-130473000D01*
X133847000Y-130473000D01*
X133847000Y-130727000D01*
X133827000Y-130727000D01*
X133827000Y-132076250D01*
X133985750Y-132235000D01*
X134576310Y-132235000D01*
X134809699Y-132138327D01*
X134851660Y-132096366D01*
X134998110Y-132196431D01*
X135250000Y-132247440D01*
X136750000Y-132247440D01*
X136985317Y-132203162D01*
X137201441Y-132064090D01*
X137346431Y-131851890D01*
X137397440Y-131600000D01*
X137397440Y-129600000D01*
X137353162Y-129364683D01*
X137214090Y-129148559D01*
X137001890Y-129003569D01*
X136981081Y-128999355D01*
X136996431Y-128976890D01*
X137047440Y-128725000D01*
X137047440Y-127975000D01*
X137003162Y-127739683D01*
X136937223Y-127637211D01*
X136985317Y-127628162D01*
X137201441Y-127489090D01*
X137277368Y-127377968D01*
X137393663Y-127378069D01*
X137540000Y-127317604D01*
X137540000Y-132672178D01*
X137540000Y-132672178D01*
G37*
X137540000Y-132672178D02*
X137256337Y-132671931D01*
X136896788Y-132820493D01*
X136621460Y-133095341D01*
X136548010Y-133272229D01*
X136206337Y-133271931D01*
X135846788Y-133420493D01*
X135571460Y-133695341D01*
X135422270Y-134054630D01*
X135421931Y-134443663D01*
X135570493Y-134803212D01*
X135845341Y-135078540D01*
X136204630Y-135227730D01*
X136593663Y-135228069D01*
X136842311Y-135125330D01*
X136945341Y-135228540D01*
X137304630Y-135377730D01*
X137540000Y-135377935D01*
X137540000Y-136985198D01*
X133388796Y-141136402D01*
X133384094Y-141137337D01*
X133116283Y-141316283D01*
X132582483Y-141850083D01*
X132573400Y-141851890D01*
X132563149Y-141853929D01*
X132295337Y-142032875D01*
X132295335Y-142032878D01*
X131385479Y-142942734D01*
X131227000Y-142876928D01*
X131227000Y-138175990D01*
X131261673Y-138259698D01*
X131440301Y-138438327D01*
X131673690Y-138535000D01*
X133414250Y-138535000D01*
X133573000Y-138376250D01*
X133573000Y-137027000D01*
X133827000Y-137027000D01*
X133827000Y-138376250D01*
X133985750Y-138535000D01*
X135726310Y-138535000D01*
X135959699Y-138438327D01*
X136138327Y-138259698D01*
X136235000Y-138026309D01*
X136235000Y-137185750D01*
X136076250Y-137027000D01*
X133827000Y-137027000D01*
X133573000Y-137027000D01*
X133553000Y-137027000D01*
X133553000Y-136773000D01*
X133573000Y-136773000D01*
X133573000Y-135423750D01*
X133827000Y-135423750D01*
X133827000Y-136773000D01*
X136076250Y-136773000D01*
X136235000Y-136614250D01*
X136235000Y-135773691D01*
X136138327Y-135540302D01*
X135959699Y-135361673D01*
X135726310Y-135265000D01*
X133985750Y-135265000D01*
X133827000Y-135423750D01*
X133573000Y-135423750D01*
X133414250Y-135265000D01*
X131673690Y-135265000D01*
X131440301Y-135361673D01*
X131261673Y-135540302D01*
X131227000Y-135624010D01*
X131227000Y-133743663D01*
X131371931Y-133743663D01*
X131436503Y-133899940D01*
X131372270Y-134054630D01*
X131371931Y-134443663D01*
X131520493Y-134803212D01*
X131795341Y-135078540D01*
X132154630Y-135227730D01*
X132543663Y-135228069D01*
X132903212Y-135079507D01*
X133178540Y-134804659D01*
X133275053Y-134572229D01*
X133370493Y-134803212D01*
X133645341Y-135078540D01*
X134004630Y-135227730D01*
X134393663Y-135228069D01*
X134753212Y-135079507D01*
X135028540Y-134804659D01*
X135177730Y-134445370D01*
X135178069Y-134056337D01*
X135029507Y-133696788D01*
X134754659Y-133421460D01*
X134395370Y-133272270D01*
X134006337Y-133271931D01*
X133646788Y-133420493D01*
X133371460Y-133695341D01*
X133274947Y-133927771D01*
X133263497Y-133900060D01*
X133327730Y-133745370D01*
X133328069Y-133356337D01*
X133179507Y-132996788D01*
X132904659Y-132721460D01*
X132545370Y-132572270D01*
X132156337Y-132571931D01*
X131796788Y-132720493D01*
X131521460Y-132995341D01*
X131372270Y-133354630D01*
X131371931Y-133743663D01*
X131227000Y-133743663D01*
X131227000Y-132247440D01*
X132150000Y-132247440D01*
X132385317Y-132203162D01*
X132549492Y-132097518D01*
X132590301Y-132138327D01*
X132823690Y-132235000D01*
X133414250Y-132235000D01*
X133573000Y-132076250D01*
X133573000Y-130727000D01*
X133553000Y-130727000D01*
X133553000Y-130473000D01*
X133573000Y-130473000D01*
X133573000Y-130453000D01*
X133827000Y-130453000D01*
X133827000Y-130473000D01*
X133847000Y-130473000D01*
X133847000Y-130727000D01*
X133827000Y-130727000D01*
X133827000Y-132076250D01*
X133985750Y-132235000D01*
X134576310Y-132235000D01*
X134809699Y-132138327D01*
X134851660Y-132096366D01*
X134998110Y-132196431D01*
X135250000Y-132247440D01*
X136750000Y-132247440D01*
X136985317Y-132203162D01*
X137201441Y-132064090D01*
X137346431Y-131851890D01*
X137397440Y-131600000D01*
X137397440Y-129600000D01*
X137353162Y-129364683D01*
X137214090Y-129148559D01*
X137001890Y-129003569D01*
X136981081Y-128999355D01*
X136996431Y-128976890D01*
X137047440Y-128725000D01*
X137047440Y-127975000D01*
X137003162Y-127739683D01*
X136937223Y-127637211D01*
X136985317Y-127628162D01*
X137201441Y-127489090D01*
X137277368Y-127377968D01*
X137393663Y-127378069D01*
X137540000Y-127317604D01*
X137540000Y-132672178D01*
G36*
X139254671Y-128469210D02*
X139392229Y-128526329D01*
X139392229Y-135782969D01*
X139060000Y-136115198D01*
X139060000Y-128274199D01*
X139254671Y-128469210D01*
X139254671Y-128469210D01*
G37*
X139254671Y-128469210D02*
X139392229Y-128526329D01*
X139392229Y-135782969D01*
X139060000Y-136115198D01*
X139060000Y-128274199D01*
X139254671Y-128469210D01*
G36*
X132211673Y-125415301D02*
X132115000Y-125648690D01*
X132115000Y-126114250D01*
X132273750Y-126273000D01*
X133373000Y-126273000D01*
X133373000Y-126253000D01*
X133627000Y-126253000D01*
X133627000Y-126273000D01*
X133647000Y-126273000D01*
X133647000Y-126527000D01*
X133627000Y-126527000D01*
X133627000Y-126547000D01*
X133373000Y-126547000D01*
X133373000Y-126527000D01*
X132273750Y-126527000D01*
X132115000Y-126685750D01*
X132115000Y-127151310D01*
X132211673Y-127384699D01*
X132390302Y-127563327D01*
X132623691Y-127660000D01*
X132743158Y-127660000D01*
X132665000Y-127848690D01*
X132665000Y-128064250D01*
X132823750Y-128223000D01*
X133773000Y-128223000D01*
X133773000Y-128203000D01*
X134027000Y-128203000D01*
X134027000Y-128223000D01*
X134047000Y-128223000D01*
X134047000Y-128477000D01*
X134027000Y-128477000D01*
X134027000Y-128497000D01*
X133773000Y-128497000D01*
X133773000Y-128477000D01*
X132823750Y-128477000D01*
X132665000Y-128635750D01*
X132665000Y-128851310D01*
X132728435Y-129004456D01*
X132590301Y-129061673D01*
X132548340Y-129103634D01*
X132401890Y-129003569D01*
X132150000Y-128952560D01*
X131182166Y-128952560D01*
X127957600Y-125727994D01*
X128043663Y-125728069D01*
X128403212Y-125579507D01*
X128623102Y-125360000D01*
X132266974Y-125360000D01*
X132211673Y-125415301D01*
X132211673Y-125415301D01*
G37*
X132211673Y-125415301D02*
X132115000Y-125648690D01*
X132115000Y-126114250D01*
X132273750Y-126273000D01*
X133373000Y-126273000D01*
X133373000Y-126253000D01*
X133627000Y-126253000D01*
X133627000Y-126273000D01*
X133647000Y-126273000D01*
X133647000Y-126527000D01*
X133627000Y-126527000D01*
X133627000Y-126547000D01*
X133373000Y-126547000D01*
X133373000Y-126527000D01*
X132273750Y-126527000D01*
X132115000Y-126685750D01*
X132115000Y-127151310D01*
X132211673Y-127384699D01*
X132390302Y-127563327D01*
X132623691Y-127660000D01*
X132743158Y-127660000D01*
X132665000Y-127848690D01*
X132665000Y-128064250D01*
X132823750Y-128223000D01*
X133773000Y-128223000D01*
X133773000Y-128203000D01*
X134027000Y-128203000D01*
X134027000Y-128223000D01*
X134047000Y-128223000D01*
X134047000Y-128477000D01*
X134027000Y-128477000D01*
X134027000Y-128497000D01*
X133773000Y-128497000D01*
X133773000Y-128477000D01*
X132823750Y-128477000D01*
X132665000Y-128635750D01*
X132665000Y-128851310D01*
X132728435Y-129004456D01*
X132590301Y-129061673D01*
X132548340Y-129103634D01*
X132401890Y-129003569D01*
X132150000Y-128952560D01*
X131182166Y-128952560D01*
X127957600Y-125727994D01*
X128043663Y-125728069D01*
X128403212Y-125579507D01*
X128623102Y-125360000D01*
X132266974Y-125360000D01*
X132211673Y-125415301D01*
M02*
