G04 #@! TF.FileFunction,Copper,L3,Inr,Plane*
%FSLAX46Y46*%
G04 Gerber Fmt 4.6, Leading zero omitted, Abs format (unit mm)*
G04 Created by KiCad (PCBNEW 4.0.7) date Sat Apr 14 15:40:47 2018*
%MOMM*%
%LPD*%
G01*
G04 APERTURE LIST*
%ADD10C,0.100000*%
%ADD11R,1.600000X1.600000*%
%ADD12C,1.600000*%
%ADD13R,1.700000X1.700000*%
%ADD14O,1.700000X1.700000*%
%ADD15C,2.200000*%
%ADD16R,3.300000X3.000000*%
%ADD17C,0.685800*%
%ADD18C,0.762000*%
%ADD19C,0.250000*%
%ADD20C,0.381000*%
%ADD21C,0.152400*%
%ADD22C,0.254000*%
G04 APERTURE END LIST*
D10*
D11*
X108950000Y-160150000D03*
D12*
X108950000Y-162150000D03*
D13*
X128050000Y-104960000D03*
D14*
X128050000Y-107500000D03*
D13*
X106250000Y-104580000D03*
D14*
X106250000Y-107120000D03*
X106250000Y-109660000D03*
X106250000Y-112200000D03*
D13*
X110050000Y-153460000D03*
D14*
X110050000Y-156000000D03*
D13*
X128650000Y-152840000D03*
D14*
X128650000Y-150300000D03*
D13*
X103700000Y-159860000D03*
D14*
X103700000Y-162400000D03*
D15*
X120550000Y-151900000D03*
X118050000Y-151900000D03*
X123050000Y-151900000D03*
D16*
X124950000Y-158900000D03*
X116150000Y-158900000D03*
D13*
X126800000Y-127950000D03*
X126800000Y-131600000D03*
D17*
X107117841Y-138482159D03*
X112464190Y-144194645D03*
X109893090Y-133900000D03*
X132337381Y-119552611D03*
X131500000Y-119350000D03*
X131622800Y-121424700D03*
X131102100Y-120878600D03*
X145300000Y-104600000D03*
X145300000Y-103700000D03*
X145300000Y-102700000D03*
X145300000Y-101700000D03*
X139700000Y-103700000D03*
X139700000Y-104600000D03*
X139700000Y-101700000D03*
X139730000Y-102700000D03*
X115600000Y-135000000D03*
X128780473Y-133456934D03*
X128744645Y-136044645D03*
X130450000Y-134250000D03*
X125645302Y-136400000D03*
X113100000Y-134900000D03*
X107550000Y-155950000D03*
X107450000Y-155250000D03*
X144300000Y-166400000D03*
X144300000Y-164400000D03*
X138800000Y-166400000D03*
X138800000Y-165400000D03*
X144300000Y-163400000D03*
X138800000Y-163400000D03*
X144320000Y-165400000D03*
X138780000Y-164300000D03*
X118650000Y-142700000D03*
X118650000Y-143750000D03*
X128600000Y-139700000D03*
X128700000Y-137600000D03*
X128700000Y-136800000D03*
X142650000Y-145950000D03*
X142600000Y-152550000D03*
X141750000Y-151950000D03*
X141100000Y-151950000D03*
X131950000Y-147200000D03*
X130750000Y-152250000D03*
X130750000Y-156950000D03*
X132300000Y-159600000D03*
X132000000Y-161700000D03*
X146250000Y-138150000D03*
X141850000Y-145400000D03*
X141150000Y-145400000D03*
X139550000Y-147950000D03*
X139600000Y-147300000D03*
X140350000Y-147550000D03*
X139322721Y-134600000D03*
X139322721Y-135300000D03*
X139522721Y-128500000D03*
X139522721Y-129250000D03*
X142450000Y-156550000D03*
X140650000Y-156550000D03*
X139450000Y-154700000D03*
X139450000Y-154000000D03*
X143450000Y-156900000D03*
X143400000Y-156050000D03*
X139600000Y-156950000D03*
X139700000Y-156200000D03*
X124715984Y-121265869D03*
X146315380Y-144676310D03*
X118750000Y-118150000D03*
X118896719Y-107927539D03*
X103100000Y-126250000D03*
X104250000Y-121900000D03*
X104250000Y-121000000D03*
X105500000Y-121400000D03*
X105900000Y-123100000D03*
X108210000Y-126250000D03*
X104250000Y-126250000D03*
X122500000Y-142250000D03*
X122600000Y-142850000D03*
X129719645Y-135069645D03*
X133900000Y-128350000D03*
X133700000Y-129600000D03*
X133700000Y-131600000D03*
X133700000Y-130600000D03*
X134800000Y-139100000D03*
X133850000Y-139100000D03*
X132850000Y-139000000D03*
X129800000Y-140200000D03*
X129600000Y-139200000D03*
X117950000Y-134450000D03*
X118450000Y-133900000D03*
X117950000Y-133262000D03*
X107500000Y-157600000D03*
X107500000Y-156750000D03*
X124950000Y-118750000D03*
X129050000Y-114000000D03*
X129550000Y-111850000D03*
X136150000Y-111950000D03*
X135550000Y-114450000D03*
X118050000Y-118150000D03*
X118350000Y-117450000D03*
X135621751Y-113178249D03*
X135883883Y-110466117D03*
X133809941Y-115959941D03*
X140500000Y-123900000D03*
X140850000Y-124450000D03*
X140854698Y-123350000D03*
X144650000Y-124650000D03*
X144950000Y-124000000D03*
X144645302Y-123400000D03*
X145800000Y-118150000D03*
X145800000Y-117450000D03*
X145100000Y-117700000D03*
X130000000Y-137650000D03*
X130000000Y-136950000D03*
X131550000Y-137400000D03*
X141450000Y-130350000D03*
X142200000Y-130300000D03*
X144400000Y-129300000D03*
X144450000Y-128550000D03*
X143650000Y-133600000D03*
X147000000Y-146100000D03*
X147750000Y-152600000D03*
X147750000Y-151900000D03*
X146750000Y-152300000D03*
X147150000Y-151350000D03*
X147150000Y-150650000D03*
X146350000Y-151100000D03*
X119400000Y-113750000D03*
X119000000Y-112050000D03*
X144200000Y-122250000D03*
X143350000Y-122250000D03*
X148000000Y-146500000D03*
X147950000Y-145850000D03*
X147100000Y-144600000D03*
X150050000Y-144750000D03*
X149550000Y-145250000D03*
X148664214Y-143864214D03*
X148150000Y-135150000D03*
X144400000Y-135350000D03*
X144400000Y-134650000D03*
X145400000Y-137000000D03*
X145350000Y-136350000D03*
X146250000Y-137500000D03*
X145150000Y-137900000D03*
X142450000Y-140600000D03*
X142500000Y-139950000D03*
X138650000Y-140300000D03*
X138650000Y-139650000D03*
X118850000Y-108550000D03*
X117457717Y-103144661D03*
X114455920Y-103021359D03*
X110750000Y-110200000D03*
X115750000Y-112450000D03*
X115050000Y-112500000D03*
X118150000Y-103100000D03*
X119300000Y-103500000D03*
X117600000Y-104250000D03*
X113800000Y-103000000D03*
X124700000Y-120550000D03*
X124700000Y-119550000D03*
X112650000Y-103500000D03*
X114350000Y-104250000D03*
X129700000Y-113100000D03*
X130766058Y-111552120D03*
X133322791Y-118802303D03*
X133850000Y-118300000D03*
X120450000Y-146200000D03*
X113350000Y-132800000D03*
X102240510Y-138900000D03*
X132350000Y-117750000D03*
X131550000Y-117750000D03*
X132400000Y-116900000D03*
X129800000Y-126350000D03*
X133900000Y-116400000D03*
X131550000Y-116900000D03*
X110100000Y-116850000D03*
X105500000Y-119800000D03*
X123200000Y-110250000D03*
X123050000Y-113300000D03*
X116000000Y-116650000D03*
X122550000Y-126020302D03*
X121850000Y-126000000D03*
X119850000Y-121000000D03*
X120150000Y-120200000D03*
X131940000Y-157950000D03*
X131940000Y-156050000D03*
X127850000Y-124750000D03*
X123150000Y-118750000D03*
X123850000Y-118750000D03*
X123850000Y-121400000D03*
X109300000Y-120850000D03*
X108000000Y-121400000D03*
X109250000Y-121750000D03*
X133150000Y-124600000D03*
X145650000Y-150400000D03*
X145050000Y-150400000D03*
X118000000Y-112450000D03*
X117250000Y-112400000D03*
X145600000Y-143800000D03*
X144950000Y-143800000D03*
X121100000Y-113300000D03*
X117567909Y-107202247D03*
X119300000Y-106000000D03*
X117600000Y-106150000D03*
X118200000Y-107104698D03*
X112650000Y-106000000D03*
X114350000Y-106150000D03*
X113700000Y-107200000D03*
X114350000Y-107200000D03*
X128917700Y-120434100D03*
X128498600Y-119862600D03*
X119450000Y-144500000D03*
X120500000Y-144600000D03*
X119600000Y-142850000D03*
X120700000Y-142850000D03*
X134200000Y-134250000D03*
X134278249Y-114521751D03*
X130789796Y-114656388D03*
X134116117Y-112233883D03*
X132200000Y-113600000D03*
X137200000Y-126400000D03*
X136000000Y-126400000D03*
X135800000Y-128350000D03*
X136000000Y-129400000D03*
X135950000Y-131700000D03*
X136000000Y-130600000D03*
X132350000Y-133550000D03*
X132350000Y-134250000D03*
X133450000Y-113850000D03*
X133450000Y-113350000D03*
X106006900Y-138493500D03*
X106146600Y-137058400D03*
X112250000Y-138900000D03*
X111436815Y-139103296D03*
X110200000Y-128000000D03*
X110100000Y-127200000D03*
X113650000Y-126200000D03*
X113050000Y-126200000D03*
X130150000Y-131300000D03*
X130150000Y-130450000D03*
X130250000Y-129750000D03*
X123300000Y-134900000D03*
X124100000Y-134950000D03*
X124850000Y-135050000D03*
X114200000Y-144500000D03*
X102200000Y-154800000D03*
X102200000Y-155700000D03*
X114550000Y-133800000D03*
X114500000Y-133100000D03*
X115250000Y-133750000D03*
X115200000Y-133050000D03*
X102150000Y-157650000D03*
X102200000Y-156600000D03*
X125250000Y-125550000D03*
X130067198Y-117602000D03*
X128244600Y-123456700D03*
X134750000Y-152250000D03*
X134750000Y-148350000D03*
X142700000Y-133550000D03*
X137500000Y-134400000D03*
X137450000Y-133650000D03*
X142050000Y-133500000D03*
X136400000Y-134250000D03*
X130800000Y-146900000D03*
X139809330Y-127640670D03*
X130900000Y-143800000D03*
X139800000Y-126750000D03*
X110750000Y-144600000D03*
X103650000Y-151300000D03*
X102950000Y-144100000D03*
D18*
X115950000Y-132300000D02*
X115950000Y-130949700D01*
X115950000Y-130949700D02*
X115950000Y-130450000D01*
X107187700Y-130949700D02*
X115950000Y-130949700D01*
X104250000Y-126250000D02*
X104250000Y-128012000D01*
X104250000Y-128012000D02*
X107187700Y-130949700D01*
X104250000Y-126250000D02*
X108210000Y-126250000D01*
X103100000Y-126250000D02*
X104250000Y-126250000D01*
X124650000Y-136300000D02*
X125545302Y-136300000D01*
X125545302Y-136300000D02*
X125645302Y-136400000D01*
X118650000Y-143750000D02*
X118650000Y-142700000D01*
X118650000Y-142700000D02*
X118650000Y-141800000D01*
X116700000Y-140650000D02*
X119800000Y-140650000D01*
X119800000Y-140650000D02*
X120300000Y-140650000D01*
X118650000Y-141800000D02*
X119800000Y-140650000D01*
X116500000Y-134800000D02*
X116500000Y-140450000D01*
X116500000Y-133700000D02*
X116500000Y-134800000D01*
X117950000Y-133262000D02*
X118962000Y-133262000D01*
X118962000Y-133262000D02*
X119350000Y-132874000D01*
X116912000Y-133262000D02*
X115950000Y-132300000D01*
X116938000Y-133262000D02*
X116912000Y-133262000D01*
X118450000Y-134700000D02*
X120050000Y-136300000D01*
X120050000Y-136300000D02*
X124650000Y-136300000D01*
X118450000Y-133900000D02*
X118450000Y-134700000D01*
X120300000Y-140650000D02*
X124650000Y-136300000D01*
X116500000Y-140450000D02*
X116700000Y-140650000D01*
X116938000Y-133262000D02*
X116500000Y-133700000D01*
X139750000Y-142850000D02*
X139903074Y-143003074D01*
X139903074Y-143003074D02*
X139903074Y-145700000D01*
X143200000Y-142850000D02*
X139750000Y-142850000D01*
X148500000Y-137550000D02*
X143200000Y-142850000D01*
X148500000Y-137200000D02*
X148500000Y-137550000D01*
X141250000Y-147150000D02*
X141250000Y-147046926D01*
X141250000Y-147046926D02*
X139903074Y-145700000D01*
X141250000Y-147150000D02*
X140950000Y-146850000D01*
X145200000Y-151100000D02*
X141250000Y-147150000D01*
X131940000Y-154988000D02*
X131940000Y-156050000D01*
X131940000Y-153663074D02*
X131940000Y-154988000D01*
X139903074Y-145700000D02*
X131940000Y-153663074D01*
X120350000Y-118350000D02*
X122150000Y-118350000D01*
X122150000Y-118350000D02*
X122750000Y-118350000D01*
X122150000Y-118350000D02*
X122150000Y-119700000D01*
X122150000Y-119700000D02*
X123850000Y-121400000D01*
X122300000Y-117200000D02*
X123850000Y-118750000D01*
X120350000Y-118350000D02*
X121500000Y-117200000D01*
X121500000Y-117200000D02*
X128600000Y-110100000D01*
X121500000Y-117200000D02*
X122300000Y-117200000D01*
X117500000Y-121200000D02*
X120350000Y-118350000D01*
X122750000Y-118350000D02*
X123150000Y-118750000D01*
X131940000Y-156050000D02*
X131940000Y-157950000D01*
X145250000Y-151100000D02*
X145200000Y-151100000D01*
X145050000Y-150400000D02*
X145050000Y-149800000D01*
X149350000Y-114000000D02*
X149350000Y-137200000D01*
X149350000Y-137200000D02*
X149350000Y-139700000D01*
X148500000Y-137200000D02*
X149350000Y-137200000D01*
X149350000Y-139700000D02*
X149350000Y-140800000D01*
X144950000Y-143800000D02*
X149050000Y-139700000D01*
X149050000Y-139700000D02*
X149350000Y-139700000D01*
X145600000Y-143800000D02*
X146350000Y-143800000D01*
X146350000Y-143800000D02*
X149350000Y-140800000D01*
X143550000Y-108200000D02*
X149350000Y-114000000D01*
X134050000Y-108200000D02*
X143550000Y-108200000D01*
X132150000Y-110100000D02*
X134050000Y-108200000D01*
X128600000Y-110100000D02*
X132150000Y-110100000D01*
X117500000Y-122300000D02*
X119550000Y-124350000D01*
X116050000Y-120850000D02*
X117500000Y-122300000D01*
X117500000Y-122300000D02*
X117500000Y-121200000D01*
X119254698Y-106050000D02*
X119254698Y-106045302D01*
X119254698Y-106045302D02*
X119300000Y-106000000D01*
X118200000Y-107104698D02*
X119254698Y-106050000D01*
X117567909Y-107202247D02*
X117567909Y-106182091D01*
X117567909Y-106182091D02*
X117600000Y-106150000D01*
X113700000Y-107050000D02*
X112650000Y-106000000D01*
X113700000Y-107200000D02*
X113700000Y-107050000D01*
X114350000Y-107200000D02*
X114350000Y-106150000D01*
X115600000Y-110750000D02*
X115600000Y-108450000D01*
X115600000Y-108450000D02*
X114350000Y-107200000D01*
X114350000Y-107200000D02*
X114184933Y-107200000D01*
X114184933Y-107200000D02*
X113700000Y-107200000D01*
X117250000Y-110750000D02*
X119034933Y-110750000D01*
X116300000Y-110750000D02*
X117250000Y-110750000D01*
X117250000Y-110750000D02*
X117600000Y-110400000D01*
X117600000Y-110400000D02*
X117600000Y-107704698D01*
X117600000Y-107704698D02*
X117857101Y-107447597D01*
X117857101Y-107447597D02*
X118200000Y-107104698D01*
X119034933Y-110750000D02*
X121100000Y-112815067D01*
X121100000Y-112815067D02*
X121100000Y-113300000D01*
X115600000Y-110750000D02*
X116300000Y-110750000D01*
X116300000Y-110750000D02*
X118000000Y-112450000D01*
X115150000Y-110750000D02*
X115600000Y-110750000D01*
X115600000Y-110750000D02*
X117250000Y-112400000D01*
X112400000Y-113500000D02*
X115150000Y-110750000D01*
X112400000Y-120850000D02*
X116050000Y-120850000D01*
X109300000Y-120850000D02*
X112400000Y-120850000D01*
X112400000Y-120850000D02*
X112400000Y-113500000D01*
D19*
X119550000Y-124350000D02*
X127450000Y-124350000D01*
X127450000Y-124350000D02*
X127850000Y-124750000D01*
D18*
X128917700Y-120434100D02*
X128917700Y-120281700D01*
X128917700Y-120281700D02*
X128498600Y-119862600D01*
X129350000Y-123100000D02*
X129350000Y-120866400D01*
X129350000Y-120866400D02*
X128917700Y-120434100D01*
X129573699Y-133829375D02*
X129573699Y-133976301D01*
X121039301Y-141373699D02*
X120700000Y-141713000D01*
X122176301Y-141373699D02*
X121039301Y-141373699D01*
X129573699Y-133976301D02*
X122176301Y-141373699D01*
X132200000Y-131203074D02*
X129573699Y-133829375D01*
X120700000Y-141713000D02*
X120700000Y-142850000D01*
X132200000Y-123100000D02*
X132200000Y-131203074D01*
X120500000Y-143450000D02*
X119450000Y-144500000D01*
X120700000Y-143450000D02*
X120700000Y-144400000D01*
X120700000Y-142850000D02*
X120700000Y-143450000D01*
X120700000Y-143450000D02*
X120500000Y-143450000D01*
X120700000Y-144400000D02*
X120500000Y-144600000D01*
X120700000Y-142850000D02*
X119600000Y-142850000D01*
X132200000Y-123100000D02*
X129350000Y-123100000D01*
X134087000Y-123100000D02*
X132200000Y-123100000D01*
X134100000Y-133550000D02*
X134100000Y-133862000D01*
X134100000Y-133862000D02*
X133712000Y-134250000D01*
X133712000Y-134250000D02*
X132350000Y-134250000D01*
X135950000Y-131700000D02*
X134100000Y-133550000D01*
X134100000Y-133550000D02*
X132350000Y-133550000D01*
X135950000Y-131700000D02*
X135950000Y-132500000D01*
X135950000Y-132500000D02*
X134200000Y-134250000D01*
X133450000Y-113350000D02*
X133792899Y-113692899D01*
X133792899Y-114192899D02*
X135200000Y-115600000D01*
X133792899Y-113692899D02*
X133792899Y-114192899D01*
X135200000Y-119350000D02*
X135200000Y-115600000D01*
X135200000Y-115600000D02*
X133450000Y-113850000D01*
X134087000Y-120463000D02*
X135200000Y-119350000D01*
X134087000Y-123100000D02*
X134087000Y-120463000D01*
X136000000Y-126400000D02*
X136000000Y-125013000D01*
X136000000Y-125013000D02*
X134087000Y-123100000D01*
X136000000Y-126400000D02*
X137200000Y-126400000D01*
X135800000Y-128350000D02*
X135800000Y-126600000D01*
X135800000Y-126600000D02*
X136000000Y-126400000D01*
X136000000Y-129400000D02*
X136000000Y-128550000D01*
X136000000Y-128550000D02*
X135800000Y-128350000D01*
X136000000Y-130600000D02*
X136000000Y-129400000D01*
X135950000Y-131700000D02*
X135950000Y-130650000D01*
X135950000Y-130650000D02*
X136000000Y-130600000D01*
X110100000Y-127200000D02*
X112050000Y-127200000D01*
X112050000Y-127200000D02*
X113050000Y-126200000D01*
D20*
X114134933Y-126200000D02*
X113650000Y-126200000D01*
X116123764Y-126200000D02*
X114134933Y-126200000D01*
X123300000Y-133376236D02*
X116123764Y-126200000D01*
X123300000Y-134900000D02*
X123300000Y-133376236D01*
X124850000Y-134565067D02*
X116484933Y-126200000D01*
X124850000Y-135050000D02*
X124850000Y-134565067D01*
X116484933Y-126200000D02*
X113534933Y-126200000D01*
X113534933Y-126200000D02*
X113050000Y-126200000D01*
X124850000Y-135050000D02*
X125667222Y-135050000D01*
X125667222Y-135050000D02*
X129417222Y-131300000D01*
X129417222Y-131300000D02*
X129665067Y-131300000D01*
X129665067Y-131300000D02*
X130150000Y-131300000D01*
X111400000Y-126800000D02*
X113050000Y-126800000D01*
X113050000Y-126800000D02*
X113650000Y-126200000D01*
X110200000Y-128000000D02*
X111400000Y-126800000D01*
D18*
X103700000Y-154357101D02*
X102642899Y-154357101D01*
X104342899Y-154357101D02*
X103700000Y-154357101D01*
X103700000Y-154357101D02*
X103542899Y-154357101D01*
X103542899Y-154357101D02*
X102200000Y-155700000D01*
X102642899Y-154357101D02*
X102200000Y-154800000D01*
D20*
X104500000Y-154200000D02*
X114200000Y-144500000D01*
X114200000Y-144500000D02*
X114550000Y-144150000D01*
X115250000Y-133750000D02*
X115250000Y-133100000D01*
X115250000Y-133100000D02*
X115200000Y-133050000D01*
X114550000Y-133800000D02*
X114550000Y-133150000D01*
X114550000Y-133150000D02*
X114500000Y-133100000D01*
X114807101Y-144992899D02*
X103250000Y-156550000D01*
X102200000Y-156600000D02*
X103200000Y-156600000D01*
X103250000Y-156550000D02*
X102150000Y-157650000D01*
X103200000Y-156600000D02*
X103250000Y-156550000D01*
X104342899Y-154357101D02*
X104500000Y-154200000D01*
X114550000Y-144150000D02*
X114550000Y-133800000D01*
X114907101Y-144992899D02*
X114807101Y-144992899D01*
X115250000Y-133750000D02*
X114907101Y-134092899D01*
X114907101Y-134092899D02*
X114907101Y-144992899D01*
D18*
X142050000Y-133500000D02*
X142650000Y-133500000D01*
X142650000Y-133500000D02*
X142700000Y-133550000D01*
X138307101Y-133307101D02*
X138500000Y-133500000D01*
X138500000Y-133500000D02*
X142050000Y-133500000D01*
X137450000Y-133650000D02*
X137792899Y-133307101D01*
X137792899Y-133307101D02*
X138307101Y-133307101D01*
D21*
X137300000Y-133500000D02*
X138500000Y-133500000D01*
D18*
X137500000Y-134400000D02*
X137842899Y-134057101D01*
X137842899Y-134057101D02*
X137942899Y-134057101D01*
X137942899Y-134057101D02*
X138500000Y-133500000D01*
X136400000Y-134250000D02*
X136850000Y-134250000D01*
X136850000Y-134250000D02*
X137450000Y-133650000D01*
D21*
X142700000Y-133550000D02*
X138350000Y-133550000D01*
X138350000Y-133550000D02*
X137500000Y-134400000D01*
X136400000Y-134250000D02*
X136550000Y-134250000D01*
X136550000Y-134250000D02*
X137300000Y-133500000D01*
D22*
G36*
X106073000Y-125800000D02*
X106083006Y-125849410D01*
X106111447Y-125891035D01*
X106153841Y-125918315D01*
X106200000Y-125927000D01*
X108673000Y-125927000D01*
X108673000Y-130000000D01*
X108683006Y-130049410D01*
X108711447Y-130091035D01*
X108753841Y-130118315D01*
X108800000Y-130127000D01*
X118883330Y-130127000D01*
X119873000Y-131116669D01*
X119873000Y-135400000D01*
X119883006Y-135449410D01*
X119911447Y-135491035D01*
X119953841Y-135518315D01*
X120000000Y-135527000D01*
X122544152Y-135527000D01*
X122745341Y-135728540D01*
X123104630Y-135877730D01*
X123493663Y-135878069D01*
X123639708Y-135817725D01*
X123904630Y-135927730D01*
X124293663Y-135928069D01*
X124354291Y-135903018D01*
X124654630Y-136027730D01*
X125043663Y-136028069D01*
X125403212Y-135879507D01*
X125407226Y-135875500D01*
X125667222Y-135875500D01*
X125673000Y-135874351D01*
X125673000Y-136440159D01*
X121755461Y-140357699D01*
X121039301Y-140357699D01*
X120715001Y-140422206D01*
X120650494Y-140435037D01*
X120320880Y-140655279D01*
X119981580Y-140994580D01*
X119761338Y-141324193D01*
X119761338Y-141324194D01*
X119727852Y-141492542D01*
X119333355Y-141887039D01*
X119211194Y-141911338D01*
X119049526Y-142019362D01*
X119046788Y-142020493D01*
X119044673Y-142022604D01*
X118881580Y-142131580D01*
X118773556Y-142293249D01*
X118771460Y-142295341D01*
X118770314Y-142298100D01*
X118661338Y-142461194D01*
X118623405Y-142651896D01*
X118622270Y-142654630D01*
X118622267Y-142657616D01*
X118584000Y-142850000D01*
X118621934Y-143040706D01*
X118621931Y-143043663D01*
X118623070Y-143046420D01*
X118661338Y-143238806D01*
X118769362Y-143400474D01*
X118770493Y-143403212D01*
X118772604Y-143405327D01*
X118869721Y-143550673D01*
X118147394Y-144273000D01*
X116127000Y-144273000D01*
X116127000Y-134187954D01*
X116227730Y-133945370D01*
X116228069Y-133556337D01*
X116138559Y-133339705D01*
X116177730Y-133245370D01*
X116178069Y-132856337D01*
X116127000Y-132732740D01*
X116127000Y-132400000D01*
X116116994Y-132350590D01*
X116089803Y-132310197D01*
X115689803Y-131910197D01*
X115647789Y-131882334D01*
X115600000Y-131873000D01*
X102027000Y-131873000D01*
X102027000Y-124827000D01*
X106073000Y-124827000D01*
X106073000Y-125800000D01*
X106073000Y-125800000D01*
G37*
X106073000Y-125800000D02*
X106083006Y-125849410D01*
X106111447Y-125891035D01*
X106153841Y-125918315D01*
X106200000Y-125927000D01*
X108673000Y-125927000D01*
X108673000Y-130000000D01*
X108683006Y-130049410D01*
X108711447Y-130091035D01*
X108753841Y-130118315D01*
X108800000Y-130127000D01*
X118883330Y-130127000D01*
X119873000Y-131116669D01*
X119873000Y-135400000D01*
X119883006Y-135449410D01*
X119911447Y-135491035D01*
X119953841Y-135518315D01*
X120000000Y-135527000D01*
X122544152Y-135527000D01*
X122745341Y-135728540D01*
X123104630Y-135877730D01*
X123493663Y-135878069D01*
X123639708Y-135817725D01*
X123904630Y-135927730D01*
X124293663Y-135928069D01*
X124354291Y-135903018D01*
X124654630Y-136027730D01*
X125043663Y-136028069D01*
X125403212Y-135879507D01*
X125407226Y-135875500D01*
X125667222Y-135875500D01*
X125673000Y-135874351D01*
X125673000Y-136440159D01*
X121755461Y-140357699D01*
X121039301Y-140357699D01*
X120715001Y-140422206D01*
X120650494Y-140435037D01*
X120320880Y-140655279D01*
X119981580Y-140994580D01*
X119761338Y-141324193D01*
X119761338Y-141324194D01*
X119727852Y-141492542D01*
X119333355Y-141887039D01*
X119211194Y-141911338D01*
X119049526Y-142019362D01*
X119046788Y-142020493D01*
X119044673Y-142022604D01*
X118881580Y-142131580D01*
X118773556Y-142293249D01*
X118771460Y-142295341D01*
X118770314Y-142298100D01*
X118661338Y-142461194D01*
X118623405Y-142651896D01*
X118622270Y-142654630D01*
X118622267Y-142657616D01*
X118584000Y-142850000D01*
X118621934Y-143040706D01*
X118621931Y-143043663D01*
X118623070Y-143046420D01*
X118661338Y-143238806D01*
X118769362Y-143400474D01*
X118770493Y-143403212D01*
X118772604Y-143405327D01*
X118869721Y-143550673D01*
X118147394Y-144273000D01*
X116127000Y-144273000D01*
X116127000Y-134187954D01*
X116227730Y-133945370D01*
X116228069Y-133556337D01*
X116138559Y-133339705D01*
X116177730Y-133245370D01*
X116178069Y-132856337D01*
X116127000Y-132732740D01*
X116127000Y-132400000D01*
X116116994Y-132350590D01*
X116089803Y-132310197D01*
X115689803Y-131910197D01*
X115647789Y-131882334D01*
X115600000Y-131873000D01*
X102027000Y-131873000D01*
X102027000Y-124827000D01*
X106073000Y-124827000D01*
X106073000Y-125800000D01*
G36*
X120871931Y-126193663D02*
X121020493Y-126553212D01*
X121295341Y-126828540D01*
X121654630Y-126977730D01*
X122043663Y-126978069D01*
X122175433Y-126923623D01*
X122354630Y-126998032D01*
X122743663Y-126998371D01*
X123103212Y-126849809D01*
X123378540Y-126574961D01*
X123527730Y-126215672D01*
X123527982Y-125927000D01*
X124347684Y-125927000D01*
X124420493Y-126103212D01*
X124695341Y-126378540D01*
X125054630Y-126527730D01*
X125443663Y-126528069D01*
X125803212Y-126379507D01*
X126078540Y-126104659D01*
X126152311Y-125927000D01*
X128916790Y-125927000D01*
X128822270Y-126154630D01*
X128821931Y-126543663D01*
X128970493Y-126903212D01*
X129245341Y-127178540D01*
X129604630Y-127327730D01*
X129873000Y-127327964D01*
X129873000Y-129400000D01*
X129883006Y-129449410D01*
X129911447Y-129491035D01*
X129953841Y-129518315D01*
X130000000Y-129527000D01*
X130073000Y-129527000D01*
X130073000Y-131473000D01*
X129600000Y-131473000D01*
X129550590Y-131483006D01*
X129510197Y-131510197D01*
X128509645Y-132510749D01*
X128264638Y-132611983D01*
X128297440Y-132450000D01*
X128297440Y-130750000D01*
X128253162Y-130514683D01*
X128114090Y-130298559D01*
X127901890Y-130153569D01*
X127650000Y-130102560D01*
X125950000Y-130102560D01*
X125714683Y-130146838D01*
X125498559Y-130285910D01*
X125353569Y-130498110D01*
X125302560Y-130750000D01*
X125302560Y-132450000D01*
X125346838Y-132685317D01*
X125485910Y-132901441D01*
X125698110Y-133046431D01*
X125950000Y-133097440D01*
X127650000Y-133097440D01*
X127885317Y-133053162D01*
X127890724Y-133049683D01*
X127833925Y-133186469D01*
X126347394Y-134673000D01*
X120727000Y-134673000D01*
X120727000Y-130600000D01*
X120716994Y-130550590D01*
X120689803Y-130510197D01*
X118489803Y-128310197D01*
X118447789Y-128282334D01*
X118400000Y-128273000D01*
X111400000Y-128273000D01*
X111350590Y-128283006D01*
X111310197Y-128310197D01*
X110547394Y-129073000D01*
X109527000Y-129073000D01*
X109527000Y-127100000D01*
X125302560Y-127100000D01*
X125302560Y-128800000D01*
X125346838Y-129035317D01*
X125485910Y-129251441D01*
X125698110Y-129396431D01*
X125950000Y-129447440D01*
X127650000Y-129447440D01*
X127885317Y-129403162D01*
X128101441Y-129264090D01*
X128246431Y-129051890D01*
X128297440Y-128800000D01*
X128297440Y-127100000D01*
X128253162Y-126864683D01*
X128114090Y-126648559D01*
X127901890Y-126503569D01*
X127650000Y-126452560D01*
X125950000Y-126452560D01*
X125714683Y-126496838D01*
X125498559Y-126635910D01*
X125353569Y-126848110D01*
X125302560Y-127100000D01*
X109527000Y-127100000D01*
X109527000Y-126652606D01*
X110252606Y-125927000D01*
X120872163Y-125927000D01*
X120871931Y-126193663D01*
X120871931Y-126193663D01*
G37*
X120871931Y-126193663D02*
X121020493Y-126553212D01*
X121295341Y-126828540D01*
X121654630Y-126977730D01*
X122043663Y-126978069D01*
X122175433Y-126923623D01*
X122354630Y-126998032D01*
X122743663Y-126998371D01*
X123103212Y-126849809D01*
X123378540Y-126574961D01*
X123527730Y-126215672D01*
X123527982Y-125927000D01*
X124347684Y-125927000D01*
X124420493Y-126103212D01*
X124695341Y-126378540D01*
X125054630Y-126527730D01*
X125443663Y-126528069D01*
X125803212Y-126379507D01*
X126078540Y-126104659D01*
X126152311Y-125927000D01*
X128916790Y-125927000D01*
X128822270Y-126154630D01*
X128821931Y-126543663D01*
X128970493Y-126903212D01*
X129245341Y-127178540D01*
X129604630Y-127327730D01*
X129873000Y-127327964D01*
X129873000Y-129400000D01*
X129883006Y-129449410D01*
X129911447Y-129491035D01*
X129953841Y-129518315D01*
X130000000Y-129527000D01*
X130073000Y-129527000D01*
X130073000Y-131473000D01*
X129600000Y-131473000D01*
X129550590Y-131483006D01*
X129510197Y-131510197D01*
X128509645Y-132510749D01*
X128264638Y-132611983D01*
X128297440Y-132450000D01*
X128297440Y-130750000D01*
X128253162Y-130514683D01*
X128114090Y-130298559D01*
X127901890Y-130153569D01*
X127650000Y-130102560D01*
X125950000Y-130102560D01*
X125714683Y-130146838D01*
X125498559Y-130285910D01*
X125353569Y-130498110D01*
X125302560Y-130750000D01*
X125302560Y-132450000D01*
X125346838Y-132685317D01*
X125485910Y-132901441D01*
X125698110Y-133046431D01*
X125950000Y-133097440D01*
X127650000Y-133097440D01*
X127885317Y-133053162D01*
X127890724Y-133049683D01*
X127833925Y-133186469D01*
X126347394Y-134673000D01*
X120727000Y-134673000D01*
X120727000Y-130600000D01*
X120716994Y-130550590D01*
X120689803Y-130510197D01*
X118489803Y-128310197D01*
X118447789Y-128282334D01*
X118400000Y-128273000D01*
X111400000Y-128273000D01*
X111350590Y-128283006D01*
X111310197Y-128310197D01*
X110547394Y-129073000D01*
X109527000Y-129073000D01*
X109527000Y-127100000D01*
X125302560Y-127100000D01*
X125302560Y-128800000D01*
X125346838Y-129035317D01*
X125485910Y-129251441D01*
X125698110Y-129396431D01*
X125950000Y-129447440D01*
X127650000Y-129447440D01*
X127885317Y-129403162D01*
X128101441Y-129264090D01*
X128246431Y-129051890D01*
X128297440Y-128800000D01*
X128297440Y-127100000D01*
X128253162Y-126864683D01*
X128114090Y-126648559D01*
X127901890Y-126503569D01*
X127650000Y-126452560D01*
X125950000Y-126452560D01*
X125714683Y-126496838D01*
X125498559Y-126635910D01*
X125353569Y-126848110D01*
X125302560Y-127100000D01*
X109527000Y-127100000D01*
X109527000Y-126652606D01*
X110252606Y-125927000D01*
X120872163Y-125927000D01*
X120871931Y-126193663D01*
G36*
X128585103Y-134434664D02*
X128971230Y-134435000D01*
X128891105Y-134514986D01*
X128741915Y-134874275D01*
X128741747Y-135066742D01*
X128550982Y-135066576D01*
X128191433Y-135215138D01*
X127916105Y-135489986D01*
X127766915Y-135849275D01*
X127766576Y-136238308D01*
X127820345Y-136368439D01*
X127722270Y-136604630D01*
X127721931Y-136993663D01*
X127807214Y-137200063D01*
X127722270Y-137404630D01*
X127721931Y-137793663D01*
X127870493Y-138153212D01*
X128145341Y-138428540D01*
X128504630Y-138577730D01*
X128673000Y-138577877D01*
X128673000Y-138722163D01*
X128406337Y-138721931D01*
X128046788Y-138870493D01*
X127771460Y-139145341D01*
X127622270Y-139504630D01*
X127621931Y-139893663D01*
X127770493Y-140253212D01*
X128045341Y-140528540D01*
X128297938Y-140633428D01*
X124338274Y-145673000D01*
X121290338Y-145673000D01*
X121279507Y-145646788D01*
X121004659Y-145371460D01*
X120645370Y-145222270D01*
X120256337Y-145221931D01*
X119896788Y-145370493D01*
X119621460Y-145645341D01*
X119609975Y-145673000D01*
X119127000Y-145673000D01*
X119127000Y-144652606D01*
X119195935Y-144583671D01*
X119200474Y-144580638D01*
X119203212Y-144579507D01*
X119205327Y-144577396D01*
X119368420Y-144468420D01*
X119476444Y-144306751D01*
X119478540Y-144304659D01*
X119479686Y-144301900D01*
X119483673Y-144295933D01*
X119689803Y-144089803D01*
X119717666Y-144047789D01*
X119727000Y-144000000D01*
X119727000Y-142652606D01*
X120652606Y-141727000D01*
X121658314Y-141727000D01*
X121522270Y-142054630D01*
X121521931Y-142443663D01*
X121622242Y-142686436D01*
X121621931Y-143043663D01*
X121770493Y-143403212D01*
X122045341Y-143678540D01*
X122404630Y-143827730D01*
X122793663Y-143828069D01*
X123153212Y-143679507D01*
X123428540Y-143404659D01*
X123577730Y-143045370D01*
X123578069Y-142656337D01*
X123477758Y-142413564D01*
X123478069Y-142056337D01*
X123329507Y-141696788D01*
X123054659Y-141421460D01*
X122695370Y-141272270D01*
X122507500Y-141272106D01*
X127289803Y-136489803D01*
X127317666Y-136447789D01*
X127327000Y-136400000D01*
X127327000Y-135652606D01*
X128556725Y-134422881D01*
X128585103Y-134434664D01*
X128585103Y-134434664D01*
G37*
X128585103Y-134434664D02*
X128971230Y-134435000D01*
X128891105Y-134514986D01*
X128741915Y-134874275D01*
X128741747Y-135066742D01*
X128550982Y-135066576D01*
X128191433Y-135215138D01*
X127916105Y-135489986D01*
X127766915Y-135849275D01*
X127766576Y-136238308D01*
X127820345Y-136368439D01*
X127722270Y-136604630D01*
X127721931Y-136993663D01*
X127807214Y-137200063D01*
X127722270Y-137404630D01*
X127721931Y-137793663D01*
X127870493Y-138153212D01*
X128145341Y-138428540D01*
X128504630Y-138577730D01*
X128673000Y-138577877D01*
X128673000Y-138722163D01*
X128406337Y-138721931D01*
X128046788Y-138870493D01*
X127771460Y-139145341D01*
X127622270Y-139504630D01*
X127621931Y-139893663D01*
X127770493Y-140253212D01*
X128045341Y-140528540D01*
X128297938Y-140633428D01*
X124338274Y-145673000D01*
X121290338Y-145673000D01*
X121279507Y-145646788D01*
X121004659Y-145371460D01*
X120645370Y-145222270D01*
X120256337Y-145221931D01*
X119896788Y-145370493D01*
X119621460Y-145645341D01*
X119609975Y-145673000D01*
X119127000Y-145673000D01*
X119127000Y-144652606D01*
X119195935Y-144583671D01*
X119200474Y-144580638D01*
X119203212Y-144579507D01*
X119205327Y-144577396D01*
X119368420Y-144468420D01*
X119476444Y-144306751D01*
X119478540Y-144304659D01*
X119479686Y-144301900D01*
X119483673Y-144295933D01*
X119689803Y-144089803D01*
X119717666Y-144047789D01*
X119727000Y-144000000D01*
X119727000Y-142652606D01*
X120652606Y-141727000D01*
X121658314Y-141727000D01*
X121522270Y-142054630D01*
X121521931Y-142443663D01*
X121622242Y-142686436D01*
X121621931Y-143043663D01*
X121770493Y-143403212D01*
X122045341Y-143678540D01*
X122404630Y-143827730D01*
X122793663Y-143828069D01*
X123153212Y-143679507D01*
X123428540Y-143404659D01*
X123577730Y-143045370D01*
X123578069Y-142656337D01*
X123477758Y-142413564D01*
X123478069Y-142056337D01*
X123329507Y-141696788D01*
X123054659Y-141421460D01*
X122695370Y-141272270D01*
X122507500Y-141272106D01*
X127289803Y-136489803D01*
X127317666Y-136447789D01*
X127327000Y-136400000D01*
X127327000Y-135652606D01*
X128556725Y-134422881D01*
X128585103Y-134434664D01*
G36*
X135177475Y-112157081D02*
X135229233Y-112282345D01*
X135068539Y-112348742D01*
X134793211Y-112623590D01*
X134644021Y-112982879D01*
X134643682Y-113371912D01*
X134792244Y-113731461D01*
X134838854Y-113778152D01*
X134721460Y-113895341D01*
X134572270Y-114254630D01*
X134571931Y-114643663D01*
X134720493Y-115003212D01*
X134995341Y-115278540D01*
X135354630Y-115427730D01*
X135743663Y-115428069D01*
X136103212Y-115279507D01*
X136378540Y-115004659D01*
X136527730Y-114645370D01*
X136528069Y-114256337D01*
X136379507Y-113896788D01*
X136332897Y-113850097D01*
X136450291Y-113732908D01*
X136539196Y-113518802D01*
X138273000Y-115252606D01*
X138273000Y-130947394D01*
X135703381Y-133517013D01*
X135681580Y-133531580D01*
X135667013Y-133553381D01*
X134947394Y-134273000D01*
X131427880Y-134273000D01*
X131428069Y-134056337D01*
X131279507Y-133696788D01*
X131004659Y-133421460D01*
X130645370Y-133272270D01*
X130256337Y-133271931D01*
X129896788Y-133420493D01*
X129758285Y-133558755D01*
X129758542Y-133263271D01*
X129746201Y-133233405D01*
X131689803Y-131289803D01*
X131717666Y-131247789D01*
X131727000Y-131200000D01*
X131727000Y-129793663D01*
X132721931Y-129793663D01*
X132848635Y-130100311D01*
X132722270Y-130404630D01*
X132721931Y-130793663D01*
X132848635Y-131100311D01*
X132722270Y-131404630D01*
X132721931Y-131793663D01*
X132870493Y-132153212D01*
X133145341Y-132428540D01*
X133504630Y-132577730D01*
X133893663Y-132578069D01*
X134253212Y-132429507D01*
X134528540Y-132154659D01*
X134677730Y-131795370D01*
X134678069Y-131406337D01*
X134551365Y-131099689D01*
X134677730Y-130795370D01*
X134678069Y-130406337D01*
X134551365Y-130099689D01*
X134677730Y-129795370D01*
X134678069Y-129406337D01*
X134546052Y-129086829D01*
X134728540Y-128904659D01*
X134877730Y-128545370D01*
X134878069Y-128156337D01*
X134729507Y-127796788D01*
X134454659Y-127521460D01*
X134095370Y-127372270D01*
X133706337Y-127371931D01*
X133346788Y-127520493D01*
X133071460Y-127795341D01*
X132922270Y-128154630D01*
X132921931Y-128543663D01*
X133053948Y-128863171D01*
X132871460Y-129045341D01*
X132722270Y-129404630D01*
X132721931Y-129793663D01*
X131727000Y-129793663D01*
X131727000Y-126000000D01*
X131716994Y-125950590D01*
X131689803Y-125910197D01*
X130573269Y-124793663D01*
X132171931Y-124793663D01*
X132320493Y-125153212D01*
X132595341Y-125428540D01*
X132954630Y-125577730D01*
X133343663Y-125578069D01*
X133703212Y-125429507D01*
X133978540Y-125154659D01*
X134127730Y-124795370D01*
X134128069Y-124406337D01*
X133979507Y-124046788D01*
X133704659Y-123771460D01*
X133345370Y-123622270D01*
X132956337Y-123621931D01*
X132596788Y-123770493D01*
X132321460Y-124045341D01*
X132172270Y-124404630D01*
X132171931Y-124793663D01*
X130573269Y-124793663D01*
X129222512Y-123442906D01*
X129222669Y-123263037D01*
X129074107Y-122903488D01*
X128799259Y-122628160D01*
X128439970Y-122478970D01*
X128258418Y-122478812D01*
X127727000Y-121947394D01*
X127727000Y-117795663D01*
X129089129Y-117795663D01*
X129237691Y-118155212D01*
X129512539Y-118430540D01*
X129871828Y-118579730D01*
X130260861Y-118580069D01*
X130620410Y-118431507D01*
X130734686Y-118317430D01*
X130942083Y-118525189D01*
X130671460Y-118795341D01*
X130522270Y-119154630D01*
X130521931Y-119543663D01*
X130670493Y-119903212D01*
X130738083Y-119970920D01*
X130548888Y-120049093D01*
X130273560Y-120323941D01*
X130124370Y-120683230D01*
X130124031Y-121072263D01*
X130272593Y-121431812D01*
X130547441Y-121707140D01*
X130709159Y-121774291D01*
X130793293Y-121977912D01*
X131068141Y-122253240D01*
X131427430Y-122402430D01*
X131816463Y-122402769D01*
X132176012Y-122254207D01*
X132451340Y-121979359D01*
X132600530Y-121620070D01*
X132600869Y-121231037D01*
X132452307Y-120871488D01*
X132177459Y-120596160D01*
X132015741Y-120529009D01*
X131990254Y-120467326D01*
X132142011Y-120530341D01*
X132531044Y-120530680D01*
X132890593Y-120382118D01*
X133165921Y-120107270D01*
X133301739Y-119780185D01*
X133516454Y-119780372D01*
X133876003Y-119631810D01*
X134151331Y-119356962D01*
X134213173Y-119208029D01*
X134403212Y-119129507D01*
X134678540Y-118854659D01*
X134827730Y-118495370D01*
X134828069Y-118106337D01*
X134679507Y-117746788D01*
X134404659Y-117471460D01*
X134136812Y-117360240D01*
X134453212Y-117229507D01*
X134728540Y-116954659D01*
X134877730Y-116595370D01*
X134878069Y-116206337D01*
X134787817Y-115987909D01*
X134788010Y-115766278D01*
X134639448Y-115406729D01*
X134364600Y-115131401D01*
X134005311Y-114982211D01*
X133616278Y-114981872D01*
X133256729Y-115130434D01*
X132981401Y-115405282D01*
X132832211Y-115764571D01*
X132831988Y-116020522D01*
X132595370Y-115922270D01*
X132206337Y-115921931D01*
X131974875Y-116017569D01*
X131745370Y-115922270D01*
X131356337Y-115921931D01*
X130996788Y-116070493D01*
X130721460Y-116345341D01*
X130572270Y-116704630D01*
X130572228Y-116752852D01*
X130262568Y-116624270D01*
X129873535Y-116623931D01*
X129513986Y-116772493D01*
X129238658Y-117047341D01*
X129089468Y-117406630D01*
X129089129Y-117795663D01*
X127727000Y-117795663D01*
X127727000Y-115852606D01*
X128676035Y-114903571D01*
X128854630Y-114977730D01*
X129243663Y-114978069D01*
X129603212Y-114829507D01*
X129878540Y-114554659D01*
X130027730Y-114195370D01*
X130027881Y-114022612D01*
X130253212Y-113929507D01*
X130528540Y-113654659D01*
X130677730Y-113295370D01*
X130678069Y-112906337D01*
X130676666Y-112902940D01*
X131112575Y-112467031D01*
X131319270Y-112381627D01*
X131594598Y-112106779D01*
X131681067Y-111898539D01*
X132052606Y-111527000D01*
X134547394Y-111527000D01*
X135177475Y-112157081D01*
X135177475Y-112157081D01*
G37*
X135177475Y-112157081D02*
X135229233Y-112282345D01*
X135068539Y-112348742D01*
X134793211Y-112623590D01*
X134644021Y-112982879D01*
X134643682Y-113371912D01*
X134792244Y-113731461D01*
X134838854Y-113778152D01*
X134721460Y-113895341D01*
X134572270Y-114254630D01*
X134571931Y-114643663D01*
X134720493Y-115003212D01*
X134995341Y-115278540D01*
X135354630Y-115427730D01*
X135743663Y-115428069D01*
X136103212Y-115279507D01*
X136378540Y-115004659D01*
X136527730Y-114645370D01*
X136528069Y-114256337D01*
X136379507Y-113896788D01*
X136332897Y-113850097D01*
X136450291Y-113732908D01*
X136539196Y-113518802D01*
X138273000Y-115252606D01*
X138273000Y-130947394D01*
X135703381Y-133517013D01*
X135681580Y-133531580D01*
X135667013Y-133553381D01*
X134947394Y-134273000D01*
X131427880Y-134273000D01*
X131428069Y-134056337D01*
X131279507Y-133696788D01*
X131004659Y-133421460D01*
X130645370Y-133272270D01*
X130256337Y-133271931D01*
X129896788Y-133420493D01*
X129758285Y-133558755D01*
X129758542Y-133263271D01*
X129746201Y-133233405D01*
X131689803Y-131289803D01*
X131717666Y-131247789D01*
X131727000Y-131200000D01*
X131727000Y-129793663D01*
X132721931Y-129793663D01*
X132848635Y-130100311D01*
X132722270Y-130404630D01*
X132721931Y-130793663D01*
X132848635Y-131100311D01*
X132722270Y-131404630D01*
X132721931Y-131793663D01*
X132870493Y-132153212D01*
X133145341Y-132428540D01*
X133504630Y-132577730D01*
X133893663Y-132578069D01*
X134253212Y-132429507D01*
X134528540Y-132154659D01*
X134677730Y-131795370D01*
X134678069Y-131406337D01*
X134551365Y-131099689D01*
X134677730Y-130795370D01*
X134678069Y-130406337D01*
X134551365Y-130099689D01*
X134677730Y-129795370D01*
X134678069Y-129406337D01*
X134546052Y-129086829D01*
X134728540Y-128904659D01*
X134877730Y-128545370D01*
X134878069Y-128156337D01*
X134729507Y-127796788D01*
X134454659Y-127521460D01*
X134095370Y-127372270D01*
X133706337Y-127371931D01*
X133346788Y-127520493D01*
X133071460Y-127795341D01*
X132922270Y-128154630D01*
X132921931Y-128543663D01*
X133053948Y-128863171D01*
X132871460Y-129045341D01*
X132722270Y-129404630D01*
X132721931Y-129793663D01*
X131727000Y-129793663D01*
X131727000Y-126000000D01*
X131716994Y-125950590D01*
X131689803Y-125910197D01*
X130573269Y-124793663D01*
X132171931Y-124793663D01*
X132320493Y-125153212D01*
X132595341Y-125428540D01*
X132954630Y-125577730D01*
X133343663Y-125578069D01*
X133703212Y-125429507D01*
X133978540Y-125154659D01*
X134127730Y-124795370D01*
X134128069Y-124406337D01*
X133979507Y-124046788D01*
X133704659Y-123771460D01*
X133345370Y-123622270D01*
X132956337Y-123621931D01*
X132596788Y-123770493D01*
X132321460Y-124045341D01*
X132172270Y-124404630D01*
X132171931Y-124793663D01*
X130573269Y-124793663D01*
X129222512Y-123442906D01*
X129222669Y-123263037D01*
X129074107Y-122903488D01*
X128799259Y-122628160D01*
X128439970Y-122478970D01*
X128258418Y-122478812D01*
X127727000Y-121947394D01*
X127727000Y-117795663D01*
X129089129Y-117795663D01*
X129237691Y-118155212D01*
X129512539Y-118430540D01*
X129871828Y-118579730D01*
X130260861Y-118580069D01*
X130620410Y-118431507D01*
X130734686Y-118317430D01*
X130942083Y-118525189D01*
X130671460Y-118795341D01*
X130522270Y-119154630D01*
X130521931Y-119543663D01*
X130670493Y-119903212D01*
X130738083Y-119970920D01*
X130548888Y-120049093D01*
X130273560Y-120323941D01*
X130124370Y-120683230D01*
X130124031Y-121072263D01*
X130272593Y-121431812D01*
X130547441Y-121707140D01*
X130709159Y-121774291D01*
X130793293Y-121977912D01*
X131068141Y-122253240D01*
X131427430Y-122402430D01*
X131816463Y-122402769D01*
X132176012Y-122254207D01*
X132451340Y-121979359D01*
X132600530Y-121620070D01*
X132600869Y-121231037D01*
X132452307Y-120871488D01*
X132177459Y-120596160D01*
X132015741Y-120529009D01*
X131990254Y-120467326D01*
X132142011Y-120530341D01*
X132531044Y-120530680D01*
X132890593Y-120382118D01*
X133165921Y-120107270D01*
X133301739Y-119780185D01*
X133516454Y-119780372D01*
X133876003Y-119631810D01*
X134151331Y-119356962D01*
X134213173Y-119208029D01*
X134403212Y-119129507D01*
X134678540Y-118854659D01*
X134827730Y-118495370D01*
X134828069Y-118106337D01*
X134679507Y-117746788D01*
X134404659Y-117471460D01*
X134136812Y-117360240D01*
X134453212Y-117229507D01*
X134728540Y-116954659D01*
X134877730Y-116595370D01*
X134878069Y-116206337D01*
X134787817Y-115987909D01*
X134788010Y-115766278D01*
X134639448Y-115406729D01*
X134364600Y-115131401D01*
X134005311Y-114982211D01*
X133616278Y-114981872D01*
X133256729Y-115130434D01*
X132981401Y-115405282D01*
X132832211Y-115764571D01*
X132831988Y-116020522D01*
X132595370Y-115922270D01*
X132206337Y-115921931D01*
X131974875Y-116017569D01*
X131745370Y-115922270D01*
X131356337Y-115921931D01*
X130996788Y-116070493D01*
X130721460Y-116345341D01*
X130572270Y-116704630D01*
X130572228Y-116752852D01*
X130262568Y-116624270D01*
X129873535Y-116623931D01*
X129513986Y-116772493D01*
X129238658Y-117047341D01*
X129089468Y-117406630D01*
X129089129Y-117795663D01*
X127727000Y-117795663D01*
X127727000Y-115852606D01*
X128676035Y-114903571D01*
X128854630Y-114977730D01*
X129243663Y-114978069D01*
X129603212Y-114829507D01*
X129878540Y-114554659D01*
X130027730Y-114195370D01*
X130027881Y-114022612D01*
X130253212Y-113929507D01*
X130528540Y-113654659D01*
X130677730Y-113295370D01*
X130678069Y-112906337D01*
X130676666Y-112902940D01*
X131112575Y-112467031D01*
X131319270Y-112381627D01*
X131594598Y-112106779D01*
X131681067Y-111898539D01*
X132052606Y-111527000D01*
X134547394Y-111527000D01*
X135177475Y-112157081D01*
G36*
X119873000Y-107729549D02*
X119726226Y-107374327D01*
X119451378Y-107098999D01*
X119092089Y-106949809D01*
X118703056Y-106949470D01*
X118343507Y-107098032D01*
X118068179Y-107372880D01*
X117918989Y-107732169D01*
X117918650Y-108121202D01*
X117943861Y-108182219D01*
X117872270Y-108354630D01*
X117871931Y-108743663D01*
X118020493Y-109103212D01*
X118295341Y-109378540D01*
X118654630Y-109527730D01*
X119043663Y-109528069D01*
X119403212Y-109379507D01*
X119678540Y-109104659D01*
X119827730Y-108745370D01*
X119828069Y-108356337D01*
X119802858Y-108295320D01*
X119873000Y-108126399D01*
X119873000Y-109400000D01*
X119883006Y-109449410D01*
X119911447Y-109491035D01*
X119953841Y-109518315D01*
X120000000Y-109527000D01*
X122540095Y-109527000D01*
X122371460Y-109695341D01*
X122222270Y-110054630D01*
X122221931Y-110443663D01*
X122370493Y-110803212D01*
X122645341Y-111078540D01*
X123004630Y-111227730D01*
X123393663Y-111228069D01*
X123753212Y-111079507D01*
X124028540Y-110804659D01*
X124177730Y-110445370D01*
X124178069Y-110056337D01*
X124029507Y-109696788D01*
X123860015Y-109527000D01*
X124800000Y-109527000D01*
X124849410Y-109516994D01*
X124889803Y-109489803D01*
X126592930Y-107786676D01*
X126648946Y-108068285D01*
X126970853Y-108550054D01*
X127452622Y-108871961D01*
X128020907Y-108985000D01*
X128079093Y-108985000D01*
X128647378Y-108871961D01*
X129129147Y-108550054D01*
X129451054Y-108068285D01*
X129564093Y-107500000D01*
X129451054Y-106931715D01*
X129447904Y-106927000D01*
X149873000Y-106927000D01*
X149873000Y-140947394D01*
X147198209Y-143622185D01*
X146906337Y-143621931D01*
X146615531Y-143742089D01*
X146510750Y-143698580D01*
X146121717Y-143698241D01*
X145762168Y-143846803D01*
X145486840Y-144121651D01*
X145337650Y-144480940D01*
X145337483Y-144673000D01*
X142800000Y-144673000D01*
X142750590Y-144683006D01*
X142708965Y-144711447D01*
X142681685Y-144753841D01*
X142673000Y-144800000D01*
X142673000Y-144840270D01*
X142404659Y-144571460D01*
X142045370Y-144422270D01*
X141656337Y-144421931D01*
X141500060Y-144486503D01*
X141345370Y-144422270D01*
X140956337Y-144421931D01*
X140596788Y-144570493D01*
X140321460Y-144845341D01*
X140172270Y-145204630D01*
X140171931Y-145593663D01*
X140320493Y-145953212D01*
X140595341Y-146228540D01*
X140954630Y-146377730D01*
X141343663Y-146378069D01*
X141499940Y-146313497D01*
X141654630Y-146377730D01*
X141768686Y-146377829D01*
X141820493Y-146503212D01*
X142095341Y-146778540D01*
X142454630Y-146927730D01*
X142748380Y-146927986D01*
X145673000Y-149852606D01*
X145673000Y-150394065D01*
X145521460Y-150545341D01*
X145372270Y-150904630D01*
X145371931Y-151293663D01*
X145520493Y-151653212D01*
X145673000Y-151805985D01*
X145673000Y-153073000D01*
X143441686Y-153073000D01*
X143577730Y-152745370D01*
X143578069Y-152356337D01*
X143429507Y-151996788D01*
X143154659Y-151721460D01*
X142795370Y-151572270D01*
X142651963Y-151572145D01*
X142579507Y-151396788D01*
X142304659Y-151121460D01*
X141945370Y-150972270D01*
X141556337Y-150971931D01*
X141425122Y-151026148D01*
X141295370Y-150972270D01*
X140906337Y-150971931D01*
X140546788Y-151120493D01*
X140271460Y-151395341D01*
X140122270Y-151754630D01*
X140121931Y-152143663D01*
X140270493Y-152503212D01*
X140545341Y-152778540D01*
X140904630Y-152927730D01*
X141293663Y-152928069D01*
X141424878Y-152873852D01*
X141554630Y-152927730D01*
X141698037Y-152927855D01*
X141758010Y-153073000D01*
X139767541Y-153073000D01*
X139645370Y-153022270D01*
X139256337Y-153021931D01*
X139132740Y-153073000D01*
X135309730Y-153073000D01*
X135578540Y-152804659D01*
X135727730Y-152445370D01*
X135728069Y-152056337D01*
X135579507Y-151696788D01*
X135304659Y-151421460D01*
X134945370Y-151272270D01*
X134556337Y-151271931D01*
X134196788Y-151420493D01*
X133921460Y-151695341D01*
X133772270Y-152054630D01*
X133771931Y-152443663D01*
X133920493Y-152803212D01*
X134189811Y-153073000D01*
X133800000Y-153073000D01*
X133750590Y-153083006D01*
X133710197Y-153110197D01*
X132710197Y-154110197D01*
X132682334Y-154152211D01*
X132673000Y-154200000D01*
X132673000Y-158273000D01*
X130127000Y-158273000D01*
X130127000Y-157710080D01*
X130195341Y-157778540D01*
X130554630Y-157927730D01*
X130943663Y-157928069D01*
X131303212Y-157779507D01*
X131578540Y-157504659D01*
X131727730Y-157145370D01*
X131728069Y-156756337D01*
X131579507Y-156396788D01*
X131304659Y-156121460D01*
X130945370Y-155972270D01*
X130556337Y-155971931D01*
X130196788Y-156120493D01*
X130127000Y-156190159D01*
X130127000Y-153790936D01*
X130147440Y-153690000D01*
X130147440Y-153232166D01*
X130270046Y-153109560D01*
X130554630Y-153227730D01*
X130943663Y-153228069D01*
X131303212Y-153079507D01*
X131578540Y-152804659D01*
X131727730Y-152445370D01*
X131728069Y-152056337D01*
X131609713Y-151769893D01*
X134199386Y-149180220D01*
X134554630Y-149327730D01*
X134943663Y-149328069D01*
X135303212Y-149179507D01*
X135578540Y-148904659D01*
X135727730Y-148545370D01*
X135728069Y-148156337D01*
X135722833Y-148143663D01*
X138571931Y-148143663D01*
X138720493Y-148503212D01*
X138995341Y-148778540D01*
X139354630Y-148927730D01*
X139743663Y-148928069D01*
X140103212Y-148779507D01*
X140355254Y-148527905D01*
X140543663Y-148528069D01*
X140903212Y-148379507D01*
X141178540Y-148104659D01*
X141327730Y-147745370D01*
X141328069Y-147356337D01*
X141179507Y-146996788D01*
X140904659Y-146721460D01*
X140545370Y-146572270D01*
X140255041Y-146572017D01*
X140154659Y-146471460D01*
X139795370Y-146322270D01*
X139406337Y-146321931D01*
X139046788Y-146470493D01*
X138771460Y-146745341D01*
X138622270Y-147104630D01*
X138621931Y-147493663D01*
X138651210Y-147564523D01*
X138572270Y-147754630D01*
X138571931Y-148143663D01*
X135722833Y-148143663D01*
X135580475Y-147799131D01*
X138289803Y-145089803D01*
X138317666Y-145047789D01*
X138327000Y-145000000D01*
X138327000Y-142127000D01*
X142800000Y-142127000D01*
X142849410Y-142116994D01*
X142892196Y-142087344D01*
X145797278Y-139020868D01*
X146054630Y-139127730D01*
X146443663Y-139128069D01*
X146803212Y-138979507D01*
X147078540Y-138704659D01*
X147227730Y-138345370D01*
X147228069Y-137956337D01*
X147173852Y-137825122D01*
X147227730Y-137695370D01*
X147228069Y-137306337D01*
X147079507Y-136946788D01*
X146804659Y-136671460D01*
X146527000Y-136556166D01*
X146527000Y-135343663D01*
X147171931Y-135343663D01*
X147320493Y-135703212D01*
X147595341Y-135978540D01*
X147954630Y-136127730D01*
X148343663Y-136128069D01*
X148703212Y-135979507D01*
X148978540Y-135704659D01*
X149127730Y-135345370D01*
X149128069Y-134956337D01*
X148979507Y-134596788D01*
X148704659Y-134321460D01*
X148345370Y-134172270D01*
X147956337Y-134171931D01*
X147596788Y-134320493D01*
X147321460Y-134595341D01*
X147172270Y-134954630D01*
X147171931Y-135343663D01*
X146527000Y-135343663D01*
X146527000Y-118806022D01*
X146628540Y-118704659D01*
X146777730Y-118345370D01*
X146778069Y-117956337D01*
X146713497Y-117800060D01*
X146777730Y-117645370D01*
X146778069Y-117256337D01*
X146629507Y-116896788D01*
X146527000Y-116794102D01*
X146527000Y-114200000D01*
X146516994Y-114150590D01*
X146488553Y-114108965D01*
X146446159Y-114081685D01*
X146403341Y-114073044D01*
X138853983Y-113874377D01*
X137126922Y-112147316D01*
X137127730Y-112145370D01*
X137128069Y-111756337D01*
X136979507Y-111396788D01*
X136704659Y-111121460D01*
X136638912Y-111094159D01*
X136712423Y-111020776D01*
X136861613Y-110661487D01*
X136861952Y-110272454D01*
X136713390Y-109912905D01*
X136438542Y-109637577D01*
X136079253Y-109488387D01*
X135690220Y-109488048D01*
X135330671Y-109636610D01*
X135055343Y-109911458D01*
X134906153Y-110270747D01*
X134906151Y-110273000D01*
X130400000Y-110273000D01*
X130350590Y-110283006D01*
X130310197Y-110310197D01*
X129747316Y-110873078D01*
X129745370Y-110872270D01*
X129356337Y-110871931D01*
X128996788Y-111020493D01*
X128721460Y-111295341D01*
X128572270Y-111654630D01*
X128571931Y-112043663D01*
X128573334Y-112047060D01*
X126510197Y-114110197D01*
X126482334Y-114152211D01*
X126473000Y-114200000D01*
X126473000Y-124600000D01*
X126483006Y-124649410D01*
X126511447Y-124691035D01*
X126553841Y-124718315D01*
X126600000Y-124727000D01*
X127873000Y-124727000D01*
X127873000Y-124873000D01*
X125955935Y-124873000D01*
X125804659Y-124721460D01*
X125445370Y-124572270D01*
X125056337Y-124571931D01*
X124696788Y-124720493D01*
X124544015Y-124873000D01*
X106927000Y-124873000D01*
X106927000Y-121193663D01*
X118871931Y-121193663D01*
X119020493Y-121553212D01*
X119295341Y-121828540D01*
X119654630Y-121977730D01*
X120043663Y-121978069D01*
X120403212Y-121829507D01*
X120678540Y-121554659D01*
X120827730Y-121195370D01*
X120827983Y-120904953D01*
X120978540Y-120754659D01*
X121127730Y-120395370D01*
X121128069Y-120006337D01*
X121019535Y-119743663D01*
X123721931Y-119743663D01*
X123848635Y-120050311D01*
X123722270Y-120354630D01*
X123721931Y-120743663D01*
X123797762Y-120927188D01*
X123738254Y-121070499D01*
X123737915Y-121459532D01*
X123886477Y-121819081D01*
X124161325Y-122094409D01*
X124520614Y-122243599D01*
X124909647Y-122243938D01*
X125269196Y-122095376D01*
X125544524Y-121820528D01*
X125693714Y-121461239D01*
X125694053Y-121072206D01*
X125618222Y-120888681D01*
X125677730Y-120745370D01*
X125678069Y-120356337D01*
X125551365Y-120049689D01*
X125677730Y-119745370D01*
X125678027Y-119404997D01*
X125778540Y-119304659D01*
X125927730Y-118945370D01*
X125928069Y-118556337D01*
X125779507Y-118196788D01*
X125504659Y-117921460D01*
X125145370Y-117772270D01*
X124756337Y-117771931D01*
X124396788Y-117920493D01*
X124121460Y-118195341D01*
X123972270Y-118554630D01*
X123971973Y-118895003D01*
X123871460Y-118995341D01*
X123722270Y-119354630D01*
X123721931Y-119743663D01*
X121019535Y-119743663D01*
X120979507Y-119646788D01*
X120704659Y-119371460D01*
X120345370Y-119222270D01*
X119956337Y-119221931D01*
X119596788Y-119370493D01*
X119321460Y-119645341D01*
X119172270Y-120004630D01*
X119172017Y-120295047D01*
X119021460Y-120445341D01*
X118872270Y-120804630D01*
X118871931Y-121193663D01*
X106927000Y-121193663D01*
X106927000Y-118343663D01*
X117071931Y-118343663D01*
X117220493Y-118703212D01*
X117495341Y-118978540D01*
X117854630Y-119127730D01*
X118243663Y-119128069D01*
X118399940Y-119063497D01*
X118554630Y-119127730D01*
X118943663Y-119128069D01*
X119303212Y-118979507D01*
X119578540Y-118704659D01*
X119727730Y-118345370D01*
X119728069Y-117956337D01*
X119579507Y-117596788D01*
X119327992Y-117344834D01*
X119328069Y-117256337D01*
X119179507Y-116896788D01*
X118904659Y-116621460D01*
X118545370Y-116472270D01*
X118156337Y-116471931D01*
X117796788Y-116620493D01*
X117521460Y-116895341D01*
X117372270Y-117254630D01*
X117372104Y-117444959D01*
X117221460Y-117595341D01*
X117072270Y-117954630D01*
X117071931Y-118343663D01*
X106927000Y-118343663D01*
X106927000Y-117452606D01*
X107335943Y-117043663D01*
X109121931Y-117043663D01*
X109270493Y-117403212D01*
X109545341Y-117678540D01*
X109904630Y-117827730D01*
X110293663Y-117828069D01*
X110653212Y-117679507D01*
X110928540Y-117404659D01*
X111077730Y-117045370D01*
X111077905Y-116843663D01*
X115021931Y-116843663D01*
X115170493Y-117203212D01*
X115445341Y-117478540D01*
X115804630Y-117627730D01*
X116193663Y-117628069D01*
X116553212Y-117479507D01*
X116828540Y-117204659D01*
X116977730Y-116845370D01*
X116978069Y-116456337D01*
X116829507Y-116096788D01*
X116554659Y-115821460D01*
X116195370Y-115672270D01*
X115806337Y-115671931D01*
X115446788Y-115820493D01*
X115171460Y-116095341D01*
X115022270Y-116454630D01*
X115021931Y-116843663D01*
X111077905Y-116843663D01*
X111078069Y-116656337D01*
X110929507Y-116296788D01*
X110654659Y-116021460D01*
X110295370Y-115872270D01*
X109906337Y-115871931D01*
X109546788Y-116020493D01*
X109271460Y-116295341D01*
X109122270Y-116654630D01*
X109121931Y-117043663D01*
X107335943Y-117043663D01*
X111685943Y-112693663D01*
X114071931Y-112693663D01*
X114220493Y-113053212D01*
X114495341Y-113328540D01*
X114854630Y-113477730D01*
X115243663Y-113478069D01*
X115460295Y-113388559D01*
X115554630Y-113427730D01*
X115943663Y-113428069D01*
X116303212Y-113279507D01*
X116578540Y-113004659D01*
X116727730Y-112645370D01*
X116728069Y-112256337D01*
X116722833Y-112243663D01*
X118021931Y-112243663D01*
X118170493Y-112603212D01*
X118445341Y-112878540D01*
X118758537Y-113008590D01*
X118571460Y-113195341D01*
X118422270Y-113554630D01*
X118421931Y-113943663D01*
X118570493Y-114303212D01*
X118845341Y-114578540D01*
X119204630Y-114727730D01*
X119593663Y-114728069D01*
X119953212Y-114579507D01*
X120228540Y-114304659D01*
X120377730Y-113945370D01*
X120378069Y-113556337D01*
X120352173Y-113493663D01*
X122071931Y-113493663D01*
X122220493Y-113853212D01*
X122495341Y-114128540D01*
X122854630Y-114277730D01*
X123243663Y-114278069D01*
X123603212Y-114129507D01*
X123878540Y-113854659D01*
X124027730Y-113495370D01*
X124028069Y-113106337D01*
X123879507Y-112746788D01*
X123604659Y-112471460D01*
X123245370Y-112322270D01*
X122856337Y-112321931D01*
X122496788Y-112470493D01*
X122221460Y-112745341D01*
X122072270Y-113104630D01*
X122071931Y-113493663D01*
X120352173Y-113493663D01*
X120229507Y-113196788D01*
X119954659Y-112921460D01*
X119641463Y-112791410D01*
X119828540Y-112604659D01*
X119977730Y-112245370D01*
X119978069Y-111856337D01*
X119829507Y-111496788D01*
X119554659Y-111221460D01*
X119195370Y-111072270D01*
X118806337Y-111071931D01*
X118446788Y-111220493D01*
X118171460Y-111495341D01*
X118022270Y-111854630D01*
X118021931Y-112243663D01*
X116722833Y-112243663D01*
X116579507Y-111896788D01*
X116304659Y-111621460D01*
X115945370Y-111472270D01*
X115556337Y-111471931D01*
X115339705Y-111561441D01*
X115245370Y-111522270D01*
X114856337Y-111521931D01*
X114496788Y-111670493D01*
X114221460Y-111945341D01*
X114072270Y-112304630D01*
X114071931Y-112693663D01*
X111685943Y-112693663D01*
X112089803Y-112289803D01*
X112117666Y-112247789D01*
X112127000Y-112200000D01*
X112127000Y-105327000D01*
X119873000Y-105327000D01*
X119873000Y-107729549D01*
X119873000Y-107729549D01*
G37*
X119873000Y-107729549D02*
X119726226Y-107374327D01*
X119451378Y-107098999D01*
X119092089Y-106949809D01*
X118703056Y-106949470D01*
X118343507Y-107098032D01*
X118068179Y-107372880D01*
X117918989Y-107732169D01*
X117918650Y-108121202D01*
X117943861Y-108182219D01*
X117872270Y-108354630D01*
X117871931Y-108743663D01*
X118020493Y-109103212D01*
X118295341Y-109378540D01*
X118654630Y-109527730D01*
X119043663Y-109528069D01*
X119403212Y-109379507D01*
X119678540Y-109104659D01*
X119827730Y-108745370D01*
X119828069Y-108356337D01*
X119802858Y-108295320D01*
X119873000Y-108126399D01*
X119873000Y-109400000D01*
X119883006Y-109449410D01*
X119911447Y-109491035D01*
X119953841Y-109518315D01*
X120000000Y-109527000D01*
X122540095Y-109527000D01*
X122371460Y-109695341D01*
X122222270Y-110054630D01*
X122221931Y-110443663D01*
X122370493Y-110803212D01*
X122645341Y-111078540D01*
X123004630Y-111227730D01*
X123393663Y-111228069D01*
X123753212Y-111079507D01*
X124028540Y-110804659D01*
X124177730Y-110445370D01*
X124178069Y-110056337D01*
X124029507Y-109696788D01*
X123860015Y-109527000D01*
X124800000Y-109527000D01*
X124849410Y-109516994D01*
X124889803Y-109489803D01*
X126592930Y-107786676D01*
X126648946Y-108068285D01*
X126970853Y-108550054D01*
X127452622Y-108871961D01*
X128020907Y-108985000D01*
X128079093Y-108985000D01*
X128647378Y-108871961D01*
X129129147Y-108550054D01*
X129451054Y-108068285D01*
X129564093Y-107500000D01*
X129451054Y-106931715D01*
X129447904Y-106927000D01*
X149873000Y-106927000D01*
X149873000Y-140947394D01*
X147198209Y-143622185D01*
X146906337Y-143621931D01*
X146615531Y-143742089D01*
X146510750Y-143698580D01*
X146121717Y-143698241D01*
X145762168Y-143846803D01*
X145486840Y-144121651D01*
X145337650Y-144480940D01*
X145337483Y-144673000D01*
X142800000Y-144673000D01*
X142750590Y-144683006D01*
X142708965Y-144711447D01*
X142681685Y-144753841D01*
X142673000Y-144800000D01*
X142673000Y-144840270D01*
X142404659Y-144571460D01*
X142045370Y-144422270D01*
X141656337Y-144421931D01*
X141500060Y-144486503D01*
X141345370Y-144422270D01*
X140956337Y-144421931D01*
X140596788Y-144570493D01*
X140321460Y-144845341D01*
X140172270Y-145204630D01*
X140171931Y-145593663D01*
X140320493Y-145953212D01*
X140595341Y-146228540D01*
X140954630Y-146377730D01*
X141343663Y-146378069D01*
X141499940Y-146313497D01*
X141654630Y-146377730D01*
X141768686Y-146377829D01*
X141820493Y-146503212D01*
X142095341Y-146778540D01*
X142454630Y-146927730D01*
X142748380Y-146927986D01*
X145673000Y-149852606D01*
X145673000Y-150394065D01*
X145521460Y-150545341D01*
X145372270Y-150904630D01*
X145371931Y-151293663D01*
X145520493Y-151653212D01*
X145673000Y-151805985D01*
X145673000Y-153073000D01*
X143441686Y-153073000D01*
X143577730Y-152745370D01*
X143578069Y-152356337D01*
X143429507Y-151996788D01*
X143154659Y-151721460D01*
X142795370Y-151572270D01*
X142651963Y-151572145D01*
X142579507Y-151396788D01*
X142304659Y-151121460D01*
X141945370Y-150972270D01*
X141556337Y-150971931D01*
X141425122Y-151026148D01*
X141295370Y-150972270D01*
X140906337Y-150971931D01*
X140546788Y-151120493D01*
X140271460Y-151395341D01*
X140122270Y-151754630D01*
X140121931Y-152143663D01*
X140270493Y-152503212D01*
X140545341Y-152778540D01*
X140904630Y-152927730D01*
X141293663Y-152928069D01*
X141424878Y-152873852D01*
X141554630Y-152927730D01*
X141698037Y-152927855D01*
X141758010Y-153073000D01*
X139767541Y-153073000D01*
X139645370Y-153022270D01*
X139256337Y-153021931D01*
X139132740Y-153073000D01*
X135309730Y-153073000D01*
X135578540Y-152804659D01*
X135727730Y-152445370D01*
X135728069Y-152056337D01*
X135579507Y-151696788D01*
X135304659Y-151421460D01*
X134945370Y-151272270D01*
X134556337Y-151271931D01*
X134196788Y-151420493D01*
X133921460Y-151695341D01*
X133772270Y-152054630D01*
X133771931Y-152443663D01*
X133920493Y-152803212D01*
X134189811Y-153073000D01*
X133800000Y-153073000D01*
X133750590Y-153083006D01*
X133710197Y-153110197D01*
X132710197Y-154110197D01*
X132682334Y-154152211D01*
X132673000Y-154200000D01*
X132673000Y-158273000D01*
X130127000Y-158273000D01*
X130127000Y-157710080D01*
X130195341Y-157778540D01*
X130554630Y-157927730D01*
X130943663Y-157928069D01*
X131303212Y-157779507D01*
X131578540Y-157504659D01*
X131727730Y-157145370D01*
X131728069Y-156756337D01*
X131579507Y-156396788D01*
X131304659Y-156121460D01*
X130945370Y-155972270D01*
X130556337Y-155971931D01*
X130196788Y-156120493D01*
X130127000Y-156190159D01*
X130127000Y-153790936D01*
X130147440Y-153690000D01*
X130147440Y-153232166D01*
X130270046Y-153109560D01*
X130554630Y-153227730D01*
X130943663Y-153228069D01*
X131303212Y-153079507D01*
X131578540Y-152804659D01*
X131727730Y-152445370D01*
X131728069Y-152056337D01*
X131609713Y-151769893D01*
X134199386Y-149180220D01*
X134554630Y-149327730D01*
X134943663Y-149328069D01*
X135303212Y-149179507D01*
X135578540Y-148904659D01*
X135727730Y-148545370D01*
X135728069Y-148156337D01*
X135722833Y-148143663D01*
X138571931Y-148143663D01*
X138720493Y-148503212D01*
X138995341Y-148778540D01*
X139354630Y-148927730D01*
X139743663Y-148928069D01*
X140103212Y-148779507D01*
X140355254Y-148527905D01*
X140543663Y-148528069D01*
X140903212Y-148379507D01*
X141178540Y-148104659D01*
X141327730Y-147745370D01*
X141328069Y-147356337D01*
X141179507Y-146996788D01*
X140904659Y-146721460D01*
X140545370Y-146572270D01*
X140255041Y-146572017D01*
X140154659Y-146471460D01*
X139795370Y-146322270D01*
X139406337Y-146321931D01*
X139046788Y-146470493D01*
X138771460Y-146745341D01*
X138622270Y-147104630D01*
X138621931Y-147493663D01*
X138651210Y-147564523D01*
X138572270Y-147754630D01*
X138571931Y-148143663D01*
X135722833Y-148143663D01*
X135580475Y-147799131D01*
X138289803Y-145089803D01*
X138317666Y-145047789D01*
X138327000Y-145000000D01*
X138327000Y-142127000D01*
X142800000Y-142127000D01*
X142849410Y-142116994D01*
X142892196Y-142087344D01*
X145797278Y-139020868D01*
X146054630Y-139127730D01*
X146443663Y-139128069D01*
X146803212Y-138979507D01*
X147078540Y-138704659D01*
X147227730Y-138345370D01*
X147228069Y-137956337D01*
X147173852Y-137825122D01*
X147227730Y-137695370D01*
X147228069Y-137306337D01*
X147079507Y-136946788D01*
X146804659Y-136671460D01*
X146527000Y-136556166D01*
X146527000Y-135343663D01*
X147171931Y-135343663D01*
X147320493Y-135703212D01*
X147595341Y-135978540D01*
X147954630Y-136127730D01*
X148343663Y-136128069D01*
X148703212Y-135979507D01*
X148978540Y-135704659D01*
X149127730Y-135345370D01*
X149128069Y-134956337D01*
X148979507Y-134596788D01*
X148704659Y-134321460D01*
X148345370Y-134172270D01*
X147956337Y-134171931D01*
X147596788Y-134320493D01*
X147321460Y-134595341D01*
X147172270Y-134954630D01*
X147171931Y-135343663D01*
X146527000Y-135343663D01*
X146527000Y-118806022D01*
X146628540Y-118704659D01*
X146777730Y-118345370D01*
X146778069Y-117956337D01*
X146713497Y-117800060D01*
X146777730Y-117645370D01*
X146778069Y-117256337D01*
X146629507Y-116896788D01*
X146527000Y-116794102D01*
X146527000Y-114200000D01*
X146516994Y-114150590D01*
X146488553Y-114108965D01*
X146446159Y-114081685D01*
X146403341Y-114073044D01*
X138853983Y-113874377D01*
X137126922Y-112147316D01*
X137127730Y-112145370D01*
X137128069Y-111756337D01*
X136979507Y-111396788D01*
X136704659Y-111121460D01*
X136638912Y-111094159D01*
X136712423Y-111020776D01*
X136861613Y-110661487D01*
X136861952Y-110272454D01*
X136713390Y-109912905D01*
X136438542Y-109637577D01*
X136079253Y-109488387D01*
X135690220Y-109488048D01*
X135330671Y-109636610D01*
X135055343Y-109911458D01*
X134906153Y-110270747D01*
X134906151Y-110273000D01*
X130400000Y-110273000D01*
X130350590Y-110283006D01*
X130310197Y-110310197D01*
X129747316Y-110873078D01*
X129745370Y-110872270D01*
X129356337Y-110871931D01*
X128996788Y-111020493D01*
X128721460Y-111295341D01*
X128572270Y-111654630D01*
X128571931Y-112043663D01*
X128573334Y-112047060D01*
X126510197Y-114110197D01*
X126482334Y-114152211D01*
X126473000Y-114200000D01*
X126473000Y-124600000D01*
X126483006Y-124649410D01*
X126511447Y-124691035D01*
X126553841Y-124718315D01*
X126600000Y-124727000D01*
X127873000Y-124727000D01*
X127873000Y-124873000D01*
X125955935Y-124873000D01*
X125804659Y-124721460D01*
X125445370Y-124572270D01*
X125056337Y-124571931D01*
X124696788Y-124720493D01*
X124544015Y-124873000D01*
X106927000Y-124873000D01*
X106927000Y-121193663D01*
X118871931Y-121193663D01*
X119020493Y-121553212D01*
X119295341Y-121828540D01*
X119654630Y-121977730D01*
X120043663Y-121978069D01*
X120403212Y-121829507D01*
X120678540Y-121554659D01*
X120827730Y-121195370D01*
X120827983Y-120904953D01*
X120978540Y-120754659D01*
X121127730Y-120395370D01*
X121128069Y-120006337D01*
X121019535Y-119743663D01*
X123721931Y-119743663D01*
X123848635Y-120050311D01*
X123722270Y-120354630D01*
X123721931Y-120743663D01*
X123797762Y-120927188D01*
X123738254Y-121070499D01*
X123737915Y-121459532D01*
X123886477Y-121819081D01*
X124161325Y-122094409D01*
X124520614Y-122243599D01*
X124909647Y-122243938D01*
X125269196Y-122095376D01*
X125544524Y-121820528D01*
X125693714Y-121461239D01*
X125694053Y-121072206D01*
X125618222Y-120888681D01*
X125677730Y-120745370D01*
X125678069Y-120356337D01*
X125551365Y-120049689D01*
X125677730Y-119745370D01*
X125678027Y-119404997D01*
X125778540Y-119304659D01*
X125927730Y-118945370D01*
X125928069Y-118556337D01*
X125779507Y-118196788D01*
X125504659Y-117921460D01*
X125145370Y-117772270D01*
X124756337Y-117771931D01*
X124396788Y-117920493D01*
X124121460Y-118195341D01*
X123972270Y-118554630D01*
X123971973Y-118895003D01*
X123871460Y-118995341D01*
X123722270Y-119354630D01*
X123721931Y-119743663D01*
X121019535Y-119743663D01*
X120979507Y-119646788D01*
X120704659Y-119371460D01*
X120345370Y-119222270D01*
X119956337Y-119221931D01*
X119596788Y-119370493D01*
X119321460Y-119645341D01*
X119172270Y-120004630D01*
X119172017Y-120295047D01*
X119021460Y-120445341D01*
X118872270Y-120804630D01*
X118871931Y-121193663D01*
X106927000Y-121193663D01*
X106927000Y-118343663D01*
X117071931Y-118343663D01*
X117220493Y-118703212D01*
X117495341Y-118978540D01*
X117854630Y-119127730D01*
X118243663Y-119128069D01*
X118399940Y-119063497D01*
X118554630Y-119127730D01*
X118943663Y-119128069D01*
X119303212Y-118979507D01*
X119578540Y-118704659D01*
X119727730Y-118345370D01*
X119728069Y-117956337D01*
X119579507Y-117596788D01*
X119327992Y-117344834D01*
X119328069Y-117256337D01*
X119179507Y-116896788D01*
X118904659Y-116621460D01*
X118545370Y-116472270D01*
X118156337Y-116471931D01*
X117796788Y-116620493D01*
X117521460Y-116895341D01*
X117372270Y-117254630D01*
X117372104Y-117444959D01*
X117221460Y-117595341D01*
X117072270Y-117954630D01*
X117071931Y-118343663D01*
X106927000Y-118343663D01*
X106927000Y-117452606D01*
X107335943Y-117043663D01*
X109121931Y-117043663D01*
X109270493Y-117403212D01*
X109545341Y-117678540D01*
X109904630Y-117827730D01*
X110293663Y-117828069D01*
X110653212Y-117679507D01*
X110928540Y-117404659D01*
X111077730Y-117045370D01*
X111077905Y-116843663D01*
X115021931Y-116843663D01*
X115170493Y-117203212D01*
X115445341Y-117478540D01*
X115804630Y-117627730D01*
X116193663Y-117628069D01*
X116553212Y-117479507D01*
X116828540Y-117204659D01*
X116977730Y-116845370D01*
X116978069Y-116456337D01*
X116829507Y-116096788D01*
X116554659Y-115821460D01*
X116195370Y-115672270D01*
X115806337Y-115671931D01*
X115446788Y-115820493D01*
X115171460Y-116095341D01*
X115022270Y-116454630D01*
X115021931Y-116843663D01*
X111077905Y-116843663D01*
X111078069Y-116656337D01*
X110929507Y-116296788D01*
X110654659Y-116021460D01*
X110295370Y-115872270D01*
X109906337Y-115871931D01*
X109546788Y-116020493D01*
X109271460Y-116295341D01*
X109122270Y-116654630D01*
X109121931Y-117043663D01*
X107335943Y-117043663D01*
X111685943Y-112693663D01*
X114071931Y-112693663D01*
X114220493Y-113053212D01*
X114495341Y-113328540D01*
X114854630Y-113477730D01*
X115243663Y-113478069D01*
X115460295Y-113388559D01*
X115554630Y-113427730D01*
X115943663Y-113428069D01*
X116303212Y-113279507D01*
X116578540Y-113004659D01*
X116727730Y-112645370D01*
X116728069Y-112256337D01*
X116722833Y-112243663D01*
X118021931Y-112243663D01*
X118170493Y-112603212D01*
X118445341Y-112878540D01*
X118758537Y-113008590D01*
X118571460Y-113195341D01*
X118422270Y-113554630D01*
X118421931Y-113943663D01*
X118570493Y-114303212D01*
X118845341Y-114578540D01*
X119204630Y-114727730D01*
X119593663Y-114728069D01*
X119953212Y-114579507D01*
X120228540Y-114304659D01*
X120377730Y-113945370D01*
X120378069Y-113556337D01*
X120352173Y-113493663D01*
X122071931Y-113493663D01*
X122220493Y-113853212D01*
X122495341Y-114128540D01*
X122854630Y-114277730D01*
X123243663Y-114278069D01*
X123603212Y-114129507D01*
X123878540Y-113854659D01*
X124027730Y-113495370D01*
X124028069Y-113106337D01*
X123879507Y-112746788D01*
X123604659Y-112471460D01*
X123245370Y-112322270D01*
X122856337Y-112321931D01*
X122496788Y-112470493D01*
X122221460Y-112745341D01*
X122072270Y-113104630D01*
X122071931Y-113493663D01*
X120352173Y-113493663D01*
X120229507Y-113196788D01*
X119954659Y-112921460D01*
X119641463Y-112791410D01*
X119828540Y-112604659D01*
X119977730Y-112245370D01*
X119978069Y-111856337D01*
X119829507Y-111496788D01*
X119554659Y-111221460D01*
X119195370Y-111072270D01*
X118806337Y-111071931D01*
X118446788Y-111220493D01*
X118171460Y-111495341D01*
X118022270Y-111854630D01*
X118021931Y-112243663D01*
X116722833Y-112243663D01*
X116579507Y-111896788D01*
X116304659Y-111621460D01*
X115945370Y-111472270D01*
X115556337Y-111471931D01*
X115339705Y-111561441D01*
X115245370Y-111522270D01*
X114856337Y-111521931D01*
X114496788Y-111670493D01*
X114221460Y-111945341D01*
X114072270Y-112304630D01*
X114071931Y-112693663D01*
X111685943Y-112693663D01*
X112089803Y-112289803D01*
X112117666Y-112247789D01*
X112127000Y-112200000D01*
X112127000Y-105327000D01*
X119873000Y-105327000D01*
X119873000Y-107729549D01*
G36*
X143073000Y-132794240D02*
X142821460Y-133045341D01*
X142672270Y-133404630D01*
X142671931Y-133793663D01*
X142704712Y-133873000D01*
X139978743Y-133873000D01*
X139877380Y-133771460D01*
X139518091Y-133622270D01*
X139129058Y-133621931D01*
X138769509Y-133770493D01*
X138494181Y-134045341D01*
X138344991Y-134404630D01*
X138344931Y-134473000D01*
X136927000Y-134473000D01*
X136927000Y-134052606D01*
X138852606Y-132127000D01*
X143073000Y-132127000D01*
X143073000Y-132794240D01*
X143073000Y-132794240D01*
G37*
X143073000Y-132794240D02*
X142821460Y-133045341D01*
X142672270Y-133404630D01*
X142671931Y-133793663D01*
X142704712Y-133873000D01*
X139978743Y-133873000D01*
X139877380Y-133771460D01*
X139518091Y-133622270D01*
X139129058Y-133621931D01*
X138769509Y-133770493D01*
X138494181Y-134045341D01*
X138344991Y-134404630D01*
X138344931Y-134473000D01*
X136927000Y-134473000D01*
X136927000Y-134052606D01*
X138852606Y-132127000D01*
X143073000Y-132127000D01*
X143073000Y-132794240D01*
G36*
X114873000Y-134343978D02*
X114771460Y-134445341D01*
X114622270Y-134804630D01*
X114621931Y-135193663D01*
X114770493Y-135553212D01*
X114873000Y-135655898D01*
X114873000Y-145147394D01*
X113910197Y-146110197D01*
X113882334Y-146152211D01*
X113873000Y-146200000D01*
X113873000Y-157147394D01*
X110385000Y-160635394D01*
X110385000Y-160435750D01*
X110226250Y-160277000D01*
X109077000Y-160277000D01*
X109077000Y-160297000D01*
X108823000Y-160297000D01*
X108823000Y-160277000D01*
X107673750Y-160277000D01*
X107515000Y-160435750D01*
X107515000Y-160873000D01*
X105169802Y-160873000D01*
X105185000Y-160836310D01*
X105185000Y-160145750D01*
X105026250Y-159987000D01*
X103827000Y-159987000D01*
X103827000Y-160007000D01*
X103573000Y-160007000D01*
X103573000Y-159987000D01*
X102373750Y-159987000D01*
X102215000Y-160145750D01*
X102215000Y-160836310D01*
X102230198Y-160873000D01*
X102127000Y-160873000D01*
X102127000Y-158883690D01*
X102215000Y-158883690D01*
X102215000Y-159574250D01*
X102373750Y-159733000D01*
X103573000Y-159733000D01*
X103573000Y-158533750D01*
X103827000Y-158533750D01*
X103827000Y-159733000D01*
X105026250Y-159733000D01*
X105185000Y-159574250D01*
X105185000Y-159223691D01*
X107515000Y-159223691D01*
X107515000Y-159864250D01*
X107673750Y-160023000D01*
X108823000Y-160023000D01*
X108823000Y-158873750D01*
X109077000Y-158873750D01*
X109077000Y-160023000D01*
X110226250Y-160023000D01*
X110385000Y-159864250D01*
X110385000Y-159223691D01*
X110288327Y-158990302D01*
X110109699Y-158811673D01*
X109876310Y-158715000D01*
X109235750Y-158715000D01*
X109077000Y-158873750D01*
X108823000Y-158873750D01*
X108664250Y-158715000D01*
X108023690Y-158715000D01*
X107790301Y-158811673D01*
X107611673Y-158990302D01*
X107515000Y-159223691D01*
X105185000Y-159223691D01*
X105185000Y-158883690D01*
X105088327Y-158650301D01*
X104909698Y-158471673D01*
X104676309Y-158375000D01*
X103985750Y-158375000D01*
X103827000Y-158533750D01*
X103573000Y-158533750D01*
X103414250Y-158375000D01*
X102723691Y-158375000D01*
X102490302Y-158471673D01*
X102311673Y-158650301D01*
X102215000Y-158883690D01*
X102127000Y-158883690D01*
X102127000Y-155443663D01*
X106471931Y-155443663D01*
X106586379Y-155720651D01*
X106572270Y-155754630D01*
X106571931Y-156143663D01*
X106632275Y-156289708D01*
X106522270Y-156554630D01*
X106521931Y-156943663D01*
X106617569Y-157175125D01*
X106522270Y-157404630D01*
X106521931Y-157793663D01*
X106670493Y-158153212D01*
X106945341Y-158428540D01*
X107304630Y-158577730D01*
X107693663Y-158578069D01*
X108053212Y-158429507D01*
X108328540Y-158154659D01*
X108477730Y-157795370D01*
X108478069Y-157406337D01*
X108382431Y-157174875D01*
X108477730Y-156945370D01*
X108478069Y-156556337D01*
X108417725Y-156410292D01*
X108527730Y-156145370D01*
X108527856Y-156000000D01*
X108535907Y-156000000D01*
X108648946Y-156568285D01*
X108970853Y-157050054D01*
X109452622Y-157371961D01*
X110020907Y-157485000D01*
X110079093Y-157485000D01*
X110647378Y-157371961D01*
X111129147Y-157050054D01*
X111451054Y-156568285D01*
X111564093Y-156000000D01*
X111451054Y-155431715D01*
X111129147Y-154949946D01*
X111087548Y-154922150D01*
X111135317Y-154913162D01*
X111351441Y-154774090D01*
X111496431Y-154561890D01*
X111547440Y-154310000D01*
X111547440Y-152610000D01*
X111503162Y-152374683D01*
X111364090Y-152158559D01*
X111151890Y-152013569D01*
X110900000Y-151962560D01*
X109200000Y-151962560D01*
X108964683Y-152006838D01*
X108748559Y-152145910D01*
X108603569Y-152358110D01*
X108552560Y-152610000D01*
X108552560Y-154310000D01*
X108596838Y-154545317D01*
X108735910Y-154761441D01*
X108948110Y-154906431D01*
X109015541Y-154920086D01*
X108970853Y-154949946D01*
X108648946Y-155431715D01*
X108535907Y-156000000D01*
X108527856Y-156000000D01*
X108528069Y-155756337D01*
X108413621Y-155479349D01*
X108427730Y-155445370D01*
X108428069Y-155056337D01*
X108279507Y-154696788D01*
X108004659Y-154421460D01*
X107645370Y-154272270D01*
X107256337Y-154271931D01*
X106896788Y-154420493D01*
X106621460Y-154695341D01*
X106472270Y-155054630D01*
X106471931Y-155443663D01*
X102127000Y-155443663D01*
X102127000Y-152850708D01*
X102950704Y-151983651D01*
X103095341Y-152128540D01*
X103454630Y-152277730D01*
X103843663Y-152278069D01*
X104203212Y-152129507D01*
X104478540Y-151854659D01*
X104627730Y-151495370D01*
X104628069Y-151106337D01*
X104479507Y-150746788D01*
X104298234Y-150565198D01*
X109692075Y-144887471D01*
X109718852Y-144844757D01*
X109727000Y-144800000D01*
X109727000Y-144793663D01*
X109771931Y-144793663D01*
X109920493Y-145153212D01*
X110195341Y-145428540D01*
X110554630Y-145577730D01*
X110943663Y-145578069D01*
X111303212Y-145429507D01*
X111578540Y-145154659D01*
X111714329Y-144827642D01*
X111909531Y-145023185D01*
X112268820Y-145172375D01*
X112657853Y-145172714D01*
X113017402Y-145024152D01*
X113292730Y-144749304D01*
X113441920Y-144390015D01*
X113442259Y-144000982D01*
X113293697Y-143641433D01*
X113018849Y-143366105D01*
X112659560Y-143216915D01*
X112270527Y-143216576D01*
X111910978Y-143365138D01*
X111635650Y-143639986D01*
X111499861Y-143967003D01*
X111304659Y-143771460D01*
X110945370Y-143622270D01*
X110556337Y-143621931D01*
X110196788Y-143770493D01*
X109921460Y-144045341D01*
X109772270Y-144404630D01*
X109771931Y-144793663D01*
X109727000Y-144793663D01*
X109727000Y-139296959D01*
X110458746Y-139296959D01*
X110607308Y-139656508D01*
X110882156Y-139931836D01*
X111241445Y-140081026D01*
X111630478Y-140081365D01*
X111990027Y-139932803D01*
X112047968Y-139874963D01*
X112054630Y-139877730D01*
X112443663Y-139878069D01*
X112803212Y-139729507D01*
X113078540Y-139454659D01*
X113227730Y-139095370D01*
X113228069Y-138706337D01*
X113079507Y-138346788D01*
X112804659Y-138071460D01*
X112445370Y-137922270D01*
X112056337Y-137921931D01*
X111696788Y-138070493D01*
X111638847Y-138128333D01*
X111632185Y-138125566D01*
X111243152Y-138125227D01*
X110883603Y-138273789D01*
X110608275Y-138548637D01*
X110459085Y-138907926D01*
X110458746Y-139296959D01*
X109727000Y-139296959D01*
X109727000Y-135652606D01*
X110285943Y-135093663D01*
X112121931Y-135093663D01*
X112270493Y-135453212D01*
X112545341Y-135728540D01*
X112904630Y-135877730D01*
X113293663Y-135878069D01*
X113653212Y-135729507D01*
X113928540Y-135454659D01*
X114077730Y-135095370D01*
X114078069Y-134706337D01*
X113929507Y-134346788D01*
X113654659Y-134071460D01*
X113295370Y-133922270D01*
X112906337Y-133921931D01*
X112546788Y-134070493D01*
X112271460Y-134345341D01*
X112122270Y-134704630D01*
X112121931Y-135093663D01*
X110285943Y-135093663D01*
X112376028Y-133003578D01*
X112520493Y-133353212D01*
X112795341Y-133628540D01*
X113154630Y-133777730D01*
X113543663Y-133778069D01*
X113903212Y-133629507D01*
X114178540Y-133354659D01*
X114327730Y-132995370D01*
X114327964Y-132727000D01*
X114873000Y-132727000D01*
X114873000Y-134343978D01*
X114873000Y-134343978D01*
G37*
X114873000Y-134343978D02*
X114771460Y-134445341D01*
X114622270Y-134804630D01*
X114621931Y-135193663D01*
X114770493Y-135553212D01*
X114873000Y-135655898D01*
X114873000Y-145147394D01*
X113910197Y-146110197D01*
X113882334Y-146152211D01*
X113873000Y-146200000D01*
X113873000Y-157147394D01*
X110385000Y-160635394D01*
X110385000Y-160435750D01*
X110226250Y-160277000D01*
X109077000Y-160277000D01*
X109077000Y-160297000D01*
X108823000Y-160297000D01*
X108823000Y-160277000D01*
X107673750Y-160277000D01*
X107515000Y-160435750D01*
X107515000Y-160873000D01*
X105169802Y-160873000D01*
X105185000Y-160836310D01*
X105185000Y-160145750D01*
X105026250Y-159987000D01*
X103827000Y-159987000D01*
X103827000Y-160007000D01*
X103573000Y-160007000D01*
X103573000Y-159987000D01*
X102373750Y-159987000D01*
X102215000Y-160145750D01*
X102215000Y-160836310D01*
X102230198Y-160873000D01*
X102127000Y-160873000D01*
X102127000Y-158883690D01*
X102215000Y-158883690D01*
X102215000Y-159574250D01*
X102373750Y-159733000D01*
X103573000Y-159733000D01*
X103573000Y-158533750D01*
X103827000Y-158533750D01*
X103827000Y-159733000D01*
X105026250Y-159733000D01*
X105185000Y-159574250D01*
X105185000Y-159223691D01*
X107515000Y-159223691D01*
X107515000Y-159864250D01*
X107673750Y-160023000D01*
X108823000Y-160023000D01*
X108823000Y-158873750D01*
X109077000Y-158873750D01*
X109077000Y-160023000D01*
X110226250Y-160023000D01*
X110385000Y-159864250D01*
X110385000Y-159223691D01*
X110288327Y-158990302D01*
X110109699Y-158811673D01*
X109876310Y-158715000D01*
X109235750Y-158715000D01*
X109077000Y-158873750D01*
X108823000Y-158873750D01*
X108664250Y-158715000D01*
X108023690Y-158715000D01*
X107790301Y-158811673D01*
X107611673Y-158990302D01*
X107515000Y-159223691D01*
X105185000Y-159223691D01*
X105185000Y-158883690D01*
X105088327Y-158650301D01*
X104909698Y-158471673D01*
X104676309Y-158375000D01*
X103985750Y-158375000D01*
X103827000Y-158533750D01*
X103573000Y-158533750D01*
X103414250Y-158375000D01*
X102723691Y-158375000D01*
X102490302Y-158471673D01*
X102311673Y-158650301D01*
X102215000Y-158883690D01*
X102127000Y-158883690D01*
X102127000Y-155443663D01*
X106471931Y-155443663D01*
X106586379Y-155720651D01*
X106572270Y-155754630D01*
X106571931Y-156143663D01*
X106632275Y-156289708D01*
X106522270Y-156554630D01*
X106521931Y-156943663D01*
X106617569Y-157175125D01*
X106522270Y-157404630D01*
X106521931Y-157793663D01*
X106670493Y-158153212D01*
X106945341Y-158428540D01*
X107304630Y-158577730D01*
X107693663Y-158578069D01*
X108053212Y-158429507D01*
X108328540Y-158154659D01*
X108477730Y-157795370D01*
X108478069Y-157406337D01*
X108382431Y-157174875D01*
X108477730Y-156945370D01*
X108478069Y-156556337D01*
X108417725Y-156410292D01*
X108527730Y-156145370D01*
X108527856Y-156000000D01*
X108535907Y-156000000D01*
X108648946Y-156568285D01*
X108970853Y-157050054D01*
X109452622Y-157371961D01*
X110020907Y-157485000D01*
X110079093Y-157485000D01*
X110647378Y-157371961D01*
X111129147Y-157050054D01*
X111451054Y-156568285D01*
X111564093Y-156000000D01*
X111451054Y-155431715D01*
X111129147Y-154949946D01*
X111087548Y-154922150D01*
X111135317Y-154913162D01*
X111351441Y-154774090D01*
X111496431Y-154561890D01*
X111547440Y-154310000D01*
X111547440Y-152610000D01*
X111503162Y-152374683D01*
X111364090Y-152158559D01*
X111151890Y-152013569D01*
X110900000Y-151962560D01*
X109200000Y-151962560D01*
X108964683Y-152006838D01*
X108748559Y-152145910D01*
X108603569Y-152358110D01*
X108552560Y-152610000D01*
X108552560Y-154310000D01*
X108596838Y-154545317D01*
X108735910Y-154761441D01*
X108948110Y-154906431D01*
X109015541Y-154920086D01*
X108970853Y-154949946D01*
X108648946Y-155431715D01*
X108535907Y-156000000D01*
X108527856Y-156000000D01*
X108528069Y-155756337D01*
X108413621Y-155479349D01*
X108427730Y-155445370D01*
X108428069Y-155056337D01*
X108279507Y-154696788D01*
X108004659Y-154421460D01*
X107645370Y-154272270D01*
X107256337Y-154271931D01*
X106896788Y-154420493D01*
X106621460Y-154695341D01*
X106472270Y-155054630D01*
X106471931Y-155443663D01*
X102127000Y-155443663D01*
X102127000Y-152850708D01*
X102950704Y-151983651D01*
X103095341Y-152128540D01*
X103454630Y-152277730D01*
X103843663Y-152278069D01*
X104203212Y-152129507D01*
X104478540Y-151854659D01*
X104627730Y-151495370D01*
X104628069Y-151106337D01*
X104479507Y-150746788D01*
X104298234Y-150565198D01*
X109692075Y-144887471D01*
X109718852Y-144844757D01*
X109727000Y-144800000D01*
X109727000Y-144793663D01*
X109771931Y-144793663D01*
X109920493Y-145153212D01*
X110195341Y-145428540D01*
X110554630Y-145577730D01*
X110943663Y-145578069D01*
X111303212Y-145429507D01*
X111578540Y-145154659D01*
X111714329Y-144827642D01*
X111909531Y-145023185D01*
X112268820Y-145172375D01*
X112657853Y-145172714D01*
X113017402Y-145024152D01*
X113292730Y-144749304D01*
X113441920Y-144390015D01*
X113442259Y-144000982D01*
X113293697Y-143641433D01*
X113018849Y-143366105D01*
X112659560Y-143216915D01*
X112270527Y-143216576D01*
X111910978Y-143365138D01*
X111635650Y-143639986D01*
X111499861Y-143967003D01*
X111304659Y-143771460D01*
X110945370Y-143622270D01*
X110556337Y-143621931D01*
X110196788Y-143770493D01*
X109921460Y-144045341D01*
X109772270Y-144404630D01*
X109771931Y-144793663D01*
X109727000Y-144793663D01*
X109727000Y-139296959D01*
X110458746Y-139296959D01*
X110607308Y-139656508D01*
X110882156Y-139931836D01*
X111241445Y-140081026D01*
X111630478Y-140081365D01*
X111990027Y-139932803D01*
X112047968Y-139874963D01*
X112054630Y-139877730D01*
X112443663Y-139878069D01*
X112803212Y-139729507D01*
X113078540Y-139454659D01*
X113227730Y-139095370D01*
X113228069Y-138706337D01*
X113079507Y-138346788D01*
X112804659Y-138071460D01*
X112445370Y-137922270D01*
X112056337Y-137921931D01*
X111696788Y-138070493D01*
X111638847Y-138128333D01*
X111632185Y-138125566D01*
X111243152Y-138125227D01*
X110883603Y-138273789D01*
X110608275Y-138548637D01*
X110459085Y-138907926D01*
X110458746Y-139296959D01*
X109727000Y-139296959D01*
X109727000Y-135652606D01*
X110285943Y-135093663D01*
X112121931Y-135093663D01*
X112270493Y-135453212D01*
X112545341Y-135728540D01*
X112904630Y-135877730D01*
X113293663Y-135878069D01*
X113653212Y-135729507D01*
X113928540Y-135454659D01*
X114077730Y-135095370D01*
X114078069Y-134706337D01*
X113929507Y-134346788D01*
X113654659Y-134071460D01*
X113295370Y-133922270D01*
X112906337Y-133921931D01*
X112546788Y-134070493D01*
X112271460Y-134345341D01*
X112122270Y-134704630D01*
X112121931Y-135093663D01*
X110285943Y-135093663D01*
X112376028Y-133003578D01*
X112520493Y-133353212D01*
X112795341Y-133628540D01*
X113154630Y-133777730D01*
X113543663Y-133778069D01*
X113903212Y-133629507D01*
X114178540Y-133354659D01*
X114327730Y-132995370D01*
X114327964Y-132727000D01*
X114873000Y-132727000D01*
X114873000Y-134343978D01*
M02*
