G04 #@! TF.FileFunction,Copper,L4,Bot,Signal*
%FSLAX46Y46*%
G04 Gerber Fmt 4.6, Leading zero omitted, Abs format (unit mm)*
G04 Created by KiCad (PCBNEW 4.0.7) date Sun Apr 15 17:53:05 2018*
%MOMM*%
%LPD*%
G01*
G04 APERTURE LIST*
%ADD10C,0.100000*%
%ADD11R,2.500000X2.000000*%
%ADD12R,1.250000X1.500000*%
%ADD13R,0.750000X1.200000*%
%ADD14R,1.500000X1.250000*%
%ADD15R,1.200000X0.750000*%
%ADD16R,2.000000X2.500000*%
%ADD17R,1.600000X1.600000*%
%ADD18C,1.600000*%
%ADD19R,1.500000X3.950000*%
%ADD20R,1.700000X1.700000*%
%ADD21O,1.700000X1.700000*%
%ADD22R,0.500000X0.600000*%
%ADD23R,5.700000X1.600000*%
%ADD24R,0.400000X0.600000*%
%ADD25R,0.600000X0.400000*%
%ADD26R,0.900000X1.200000*%
%ADD27C,2.200000*%
%ADD28R,3.300000X3.000000*%
%ADD29R,1.560000X0.650000*%
%ADD30R,1.220000X0.600000*%
%ADD31R,2.500000X1.000000*%
%ADD32R,4.000000X2.000000*%
%ADD33R,0.500000X1.473000*%
%ADD34R,3.800000X2.000000*%
%ADD35R,1.500000X2.000000*%
%ADD36C,0.685800*%
%ADD37C,0.762000*%
%ADD38C,0.152400*%
%ADD39C,0.250000*%
%ADD40C,0.381000*%
%ADD41C,0.254000*%
G04 APERTURE END LIST*
D10*
D11*
X104950000Y-140300000D03*
X104950000Y-144300000D03*
D12*
X107650000Y-140700000D03*
X107650000Y-143200000D03*
D13*
X109350000Y-141000000D03*
X109350000Y-142900000D03*
X110950000Y-141000000D03*
X110950000Y-142900000D03*
X108050000Y-137100000D03*
X108050000Y-135200000D03*
X109550000Y-137100000D03*
X109550000Y-135200000D03*
D14*
X134500000Y-161700000D03*
X132000000Y-161700000D03*
D15*
X134200000Y-159600000D03*
X132300000Y-159600000D03*
D13*
X119400000Y-131050000D03*
X119400000Y-132950000D03*
D14*
X108000000Y-121400000D03*
X105500000Y-121400000D03*
D15*
X107800000Y-123100000D03*
X105900000Y-123100000D03*
D16*
X124000000Y-140300000D03*
X128000000Y-140300000D03*
X124150000Y-136850000D03*
X128150000Y-136850000D03*
D14*
X136000000Y-126400000D03*
X133500000Y-126400000D03*
D15*
X135800000Y-128350000D03*
X133900000Y-128350000D03*
D12*
X114400000Y-134100000D03*
X114400000Y-136600000D03*
D15*
X104000000Y-155400000D03*
X105900000Y-155400000D03*
D17*
X108950000Y-160150000D03*
D18*
X108950000Y-162150000D03*
D14*
X103650000Y-157100000D03*
X106150000Y-157100000D03*
D19*
X139730000Y-103150000D03*
X145270000Y-103150000D03*
D20*
X106250000Y-104580000D03*
D21*
X106250000Y-107120000D03*
X106250000Y-109660000D03*
X106250000Y-112200000D03*
D19*
X144320000Y-164850000D03*
X138780000Y-164850000D03*
D20*
X110050000Y-153460000D03*
D21*
X110050000Y-156000000D03*
D20*
X103700000Y-159860000D03*
D21*
X103700000Y-162400000D03*
D22*
X112250000Y-142550000D03*
X112250000Y-141450000D03*
D23*
X118950000Y-141000000D03*
X118950000Y-136300000D03*
D24*
X110850000Y-138700000D03*
X109950000Y-138700000D03*
X108750000Y-138700000D03*
X107850000Y-138700000D03*
D25*
X113300000Y-126900000D03*
X113300000Y-127800000D03*
D26*
X113300000Y-129200000D03*
X113300000Y-131400000D03*
D27*
X120550000Y-151900000D03*
X118050000Y-151900000D03*
X123050000Y-151900000D03*
D28*
X124950000Y-158900000D03*
X116150000Y-158900000D03*
D29*
X132050000Y-154150000D03*
X132050000Y-153200000D03*
X132050000Y-152250000D03*
X134750000Y-152250000D03*
X134750000Y-154150000D03*
X132050000Y-150250000D03*
X132050000Y-149300000D03*
X132050000Y-148350000D03*
X134750000Y-148350000D03*
X134750000Y-150250000D03*
D30*
X131940000Y-157000000D03*
X131940000Y-157950000D03*
X131940000Y-156050000D03*
X134560000Y-157950000D03*
X134560000Y-156050000D03*
D31*
X108210000Y-124750000D03*
X108210000Y-126250000D03*
X108210000Y-127750000D03*
D32*
X104250000Y-126250000D03*
D10*
G36*
X106975000Y-126750000D02*
X106225000Y-127250000D01*
X106225000Y-125250000D01*
X106975000Y-125750000D01*
X106975000Y-126750000D01*
X106975000Y-126750000D01*
G37*
D33*
X117000000Y-133262000D03*
X117000000Y-130900000D03*
X116050000Y-130900000D03*
X117950000Y-130900000D03*
X117950000Y-133262000D03*
X116050000Y-133262000D03*
D34*
X133700000Y-136900000D03*
D35*
X133700000Y-130600000D03*
X136000000Y-130600000D03*
X131400000Y-130600000D03*
D20*
X128050000Y-104960000D03*
D21*
X128050000Y-107500000D03*
X128050000Y-110040000D03*
D20*
X126644400Y-128333500D03*
D21*
X126644400Y-130873500D03*
X126644400Y-133413500D03*
D20*
X128993900Y-155790900D03*
D21*
X128993900Y-153250900D03*
X128993900Y-150710900D03*
D36*
X143306800Y-153009600D03*
X147750000Y-151900000D03*
X134099300Y-129946400D03*
X133261100Y-131203700D03*
X107117841Y-138482159D03*
X112464190Y-144194645D03*
X109893090Y-133900000D03*
X132337381Y-119552611D03*
X131500000Y-119350000D03*
X131622800Y-121424700D03*
X131102100Y-120878600D03*
X145300000Y-104600000D03*
X145300000Y-103700000D03*
X145300000Y-102700000D03*
X145300000Y-101700000D03*
X139700000Y-103700000D03*
X139700000Y-104600000D03*
X139700000Y-101700000D03*
X139730000Y-102700000D03*
X115600000Y-135000000D03*
X128780473Y-133456934D03*
X128744645Y-136044645D03*
X130450000Y-134250000D03*
X125645302Y-136400000D03*
X113100000Y-134900000D03*
X107550000Y-155950000D03*
X107450000Y-155250000D03*
X144300000Y-166400000D03*
X144300000Y-164400000D03*
X138800000Y-166400000D03*
X138800000Y-165400000D03*
X144300000Y-163400000D03*
X138800000Y-163400000D03*
X144320000Y-165400000D03*
X138780000Y-164300000D03*
X118650000Y-142700000D03*
X118650000Y-143750000D03*
X128600000Y-139700000D03*
X128700000Y-137600000D03*
X128700000Y-136800000D03*
X142650000Y-145950000D03*
X142600000Y-152550000D03*
X141750000Y-151950000D03*
X141100000Y-151950000D03*
X131950000Y-147200000D03*
X130750000Y-152250000D03*
X132300000Y-159600000D03*
X132000000Y-161700000D03*
X146250000Y-138150000D03*
X141850000Y-145400000D03*
X141150000Y-145400000D03*
X139550000Y-147950000D03*
X139600000Y-147300000D03*
X140350000Y-147550000D03*
X139322721Y-134600000D03*
X139322721Y-135300000D03*
X139522721Y-128500000D03*
X139522721Y-129250000D03*
X142450000Y-156550000D03*
X140650000Y-156550000D03*
X139450000Y-154700000D03*
X139450000Y-154000000D03*
X143450000Y-156900000D03*
X143400000Y-156050000D03*
X139600000Y-156950000D03*
X139700000Y-156200000D03*
X124715984Y-121265869D03*
X146315380Y-144676310D03*
X118750000Y-118150000D03*
X118896719Y-107927539D03*
X103100000Y-126250000D03*
X104250000Y-121900000D03*
X104250000Y-121000000D03*
X105500000Y-121400000D03*
X105900000Y-123100000D03*
X108210000Y-126250000D03*
X104250000Y-126250000D03*
X122500000Y-142250000D03*
X122600000Y-142850000D03*
X129719645Y-135069645D03*
X133900000Y-128350000D03*
X133311900Y-129946400D03*
X134099300Y-131229100D03*
X134800000Y-139100000D03*
X133850000Y-139100000D03*
X132850000Y-139000000D03*
X129800000Y-140200000D03*
X129600000Y-139200000D03*
X117950000Y-134450000D03*
X118450000Y-133900000D03*
X117950000Y-133262000D03*
X107500000Y-157600000D03*
X107500000Y-156750000D03*
X124950000Y-118750000D03*
X129050000Y-114000000D03*
X129550000Y-111850000D03*
X136150000Y-111950000D03*
X135550000Y-114450000D03*
X118050000Y-118150000D03*
X118350000Y-117450000D03*
X135621751Y-113178249D03*
X135883883Y-110466117D03*
X133809941Y-115959941D03*
X140500000Y-123900000D03*
X140850000Y-124450000D03*
X140854698Y-123350000D03*
X144650000Y-124650000D03*
X144950000Y-124000000D03*
X144645302Y-123400000D03*
X145800000Y-118150000D03*
X145800000Y-117450000D03*
X145100000Y-117700000D03*
X130000000Y-137650000D03*
X130000000Y-136950000D03*
X131550000Y-137400000D03*
X141450000Y-130350000D03*
X142200000Y-130300000D03*
X144400000Y-129300000D03*
X144450000Y-128550000D03*
X143650000Y-133600000D03*
X147000000Y-146100000D03*
X147750000Y-152600000D03*
X119400000Y-113750000D03*
X119000000Y-112050000D03*
X144200000Y-122250000D03*
X143350000Y-122250000D03*
X148000000Y-146500000D03*
X147950000Y-145850000D03*
X147100000Y-144600000D03*
X150050000Y-144750000D03*
X149550000Y-145250000D03*
X148664214Y-143864214D03*
X148150000Y-135150000D03*
X144400000Y-135350000D03*
X144400000Y-134650000D03*
X145400000Y-137000000D03*
X145350000Y-136350000D03*
X146250000Y-137500000D03*
X145150000Y-137900000D03*
X142450000Y-140600000D03*
X142500000Y-139950000D03*
X138650000Y-140300000D03*
X138650000Y-139650000D03*
X118850000Y-108550000D03*
X117457717Y-103144661D03*
X114455920Y-103021359D03*
X110750000Y-110200000D03*
X115750000Y-112450000D03*
X115050000Y-112500000D03*
X118150000Y-103100000D03*
X119300000Y-103500000D03*
X117600000Y-104250000D03*
X113800000Y-103000000D03*
X124700000Y-120550000D03*
X124700000Y-119550000D03*
X112650000Y-103500000D03*
X114350000Y-104250000D03*
X129700000Y-113100000D03*
X130766058Y-111552120D03*
X133322791Y-118802303D03*
X133850000Y-118300000D03*
X120450000Y-146200000D03*
X113350000Y-132800000D03*
X102240510Y-138900000D03*
X132350000Y-117750000D03*
X131550000Y-117750000D03*
X132400000Y-116900000D03*
X129800000Y-126350000D03*
X133900000Y-116400000D03*
X131550000Y-116900000D03*
X110100000Y-116850000D03*
X105500000Y-119800000D03*
X123200000Y-110250000D03*
X123050000Y-113300000D03*
X116000000Y-116650000D03*
X122550000Y-126020302D03*
X121850000Y-126000000D03*
X119850000Y-121000000D03*
X120150000Y-120200000D03*
X130750000Y-156950000D03*
X145618200Y-150482300D03*
X145050000Y-150400000D03*
X144830800Y-145223690D03*
X145465800Y-145173700D03*
X109300000Y-120850000D03*
X127850000Y-124750000D03*
X131940000Y-157950000D03*
X131940000Y-156050000D03*
X123150000Y-118750000D03*
X123850000Y-118750000D03*
X123850000Y-121400000D03*
X108000000Y-121400000D03*
X109250000Y-121750000D03*
X133150000Y-124600000D03*
X118000000Y-112450000D03*
X117250000Y-112400000D03*
X121100000Y-113300000D03*
X117567909Y-107202247D03*
X119300000Y-106000000D03*
X117600000Y-106150000D03*
X118200000Y-107104698D03*
X112650000Y-106000000D03*
X114350000Y-106150000D03*
X113700000Y-107200000D03*
X114350000Y-107200000D03*
X136410700Y-131229100D03*
X136410700Y-129971800D03*
X128917700Y-120434100D03*
X128498600Y-119862600D03*
X119450000Y-144500000D03*
X120500000Y-144600000D03*
X119600000Y-142850000D03*
X120700000Y-142850000D03*
X134200000Y-134250000D03*
X134278249Y-114521751D03*
X130789796Y-114656388D03*
X134116117Y-112233883D03*
X132200000Y-113600000D03*
X137200000Y-126400000D03*
X136000000Y-126400000D03*
X135572500Y-129946400D03*
X135572500Y-131254500D03*
X132350000Y-133550000D03*
X132350000Y-134250000D03*
X133450000Y-113850000D03*
X133450000Y-113350000D03*
X106006900Y-138493500D03*
X106146600Y-137058400D03*
X112250000Y-138900000D03*
X111436815Y-139103296D03*
X110200000Y-128000000D03*
X110100000Y-127200000D03*
X113650000Y-126200000D03*
X113050000Y-126200000D03*
X130150000Y-131300000D03*
X130150000Y-130450000D03*
X130250000Y-129750000D03*
X123300000Y-134900000D03*
X124100000Y-134950000D03*
X124850000Y-135050000D03*
X114200000Y-144500000D03*
X102200000Y-154800000D03*
X102200000Y-155700000D03*
X114550000Y-133800000D03*
X114500000Y-133100000D03*
X115250000Y-133750000D03*
X115200000Y-133050000D03*
X102150000Y-157650000D03*
X102200000Y-156600000D03*
X125250000Y-125550000D03*
X130067198Y-117602000D03*
X128244600Y-123456700D03*
X134750000Y-152250000D03*
X134750000Y-148350000D03*
X142700000Y-133550000D03*
X137500000Y-134400000D03*
X137450000Y-133650000D03*
X142050000Y-133500000D03*
X136400000Y-134250000D03*
X130800000Y-146900000D03*
X139809330Y-127640670D03*
X130900000Y-143800000D03*
X139800000Y-126750000D03*
X110750000Y-144600000D03*
X103650000Y-151300000D03*
X102950000Y-144100000D03*
D37*
X133900000Y-128350000D02*
X133900000Y-130400000D01*
X133900000Y-130400000D02*
X133700000Y-130600000D01*
D38*
X134099300Y-131229100D02*
X134099300Y-130999300D01*
X134099300Y-130999300D02*
X133700000Y-130600000D01*
X133700000Y-131600000D02*
X133700000Y-130600000D01*
D39*
X107850000Y-138700000D02*
X107335682Y-138700000D01*
X107335682Y-138700000D02*
X107117841Y-138482159D01*
D40*
X112019645Y-144194645D02*
X112464190Y-144194645D01*
X110950000Y-143125000D02*
X112019645Y-144194645D01*
X110950000Y-142900000D02*
X110950000Y-143125000D01*
D37*
X109550000Y-134243090D02*
X109550191Y-134242899D01*
X109550000Y-135200000D02*
X109550000Y-134243090D01*
X109550191Y-134242899D02*
X109893090Y-133900000D01*
X104250000Y-126250000D02*
X104250000Y-124750000D01*
X104250000Y-124750000D02*
X105900000Y-123100000D01*
X114400000Y-136600000D02*
X115558401Y-135441599D01*
X115558401Y-135441599D02*
X115558401Y-135041599D01*
X115558401Y-135041599D02*
X115600000Y-135000000D01*
X114400000Y-136600000D02*
X113100000Y-135300000D01*
X113100000Y-135300000D02*
X113100000Y-134900000D01*
X105900000Y-155400000D02*
X107000000Y-155400000D01*
X107000000Y-155400000D02*
X107550000Y-155950000D01*
X105900000Y-155400000D02*
X107300000Y-155400000D01*
X107300000Y-155400000D02*
X107450000Y-155250000D01*
D40*
X144320000Y-164850000D02*
X145150000Y-164850000D01*
X118650000Y-143750000D02*
X118650000Y-142700000D01*
D37*
X113950000Y-141150000D02*
X116550000Y-143750000D01*
X116550000Y-143750000D02*
X118650000Y-143750000D01*
X113950000Y-136235798D02*
X113950000Y-141150000D01*
D39*
X132050000Y-148350000D02*
X132050000Y-147300000D01*
X132050000Y-147300000D02*
X131950000Y-147200000D01*
X132050000Y-152250000D02*
X130750000Y-152250000D01*
X131940000Y-157000000D02*
X130800000Y-157000000D01*
X130800000Y-157000000D02*
X130750000Y-156950000D01*
D37*
X104250000Y-126250000D02*
X104250000Y-125750000D01*
D40*
X105500000Y-121400000D02*
X104650000Y-121400000D01*
X104650000Y-121400000D02*
X104250000Y-121000000D01*
X106600000Y-126250000D02*
X104250000Y-126250000D01*
X108210000Y-126250000D02*
X106600000Y-126250000D01*
D37*
X133500000Y-126400000D02*
X133500000Y-127950000D01*
X133500000Y-127950000D02*
X133900000Y-128350000D01*
X133700000Y-136900000D02*
X133700000Y-138000000D01*
X133700000Y-138000000D02*
X134800000Y-139100000D01*
X133700000Y-136900000D02*
X133700000Y-138950000D01*
X133700000Y-138950000D02*
X133850000Y-139100000D01*
X133700000Y-136900000D02*
X133700000Y-138150000D01*
X133700000Y-138150000D02*
X132850000Y-139000000D01*
X129600000Y-139200000D02*
X129600000Y-140000000D01*
X129600000Y-140000000D02*
X129800000Y-140200000D01*
X128000000Y-140300000D02*
X129700000Y-140300000D01*
X129700000Y-140300000D02*
X129800000Y-140200000D01*
X128000000Y-140300000D02*
X128500000Y-140300000D01*
X128500000Y-140300000D02*
X129600000Y-139200000D01*
D40*
X113300000Y-131400000D02*
X113300000Y-132750000D01*
X113300000Y-132750000D02*
X113350000Y-132800000D01*
D37*
X117950000Y-133262000D02*
X117950000Y-134450000D01*
X117950000Y-133262000D02*
X117950000Y-133400000D01*
X117950000Y-133400000D02*
X118450000Y-133900000D01*
X106150000Y-157100000D02*
X107000000Y-157100000D01*
X107000000Y-157100000D02*
X107500000Y-157600000D01*
X106150000Y-157100000D02*
X107150000Y-157100000D01*
X107150000Y-157100000D02*
X107500000Y-156750000D01*
X103700000Y-162400000D02*
X108700000Y-162400000D01*
X108700000Y-162400000D02*
X108950000Y-162150000D01*
D40*
X108050000Y-135200000D02*
X109550000Y-135200000D01*
D37*
X109350000Y-142900000D02*
X110950000Y-142900000D01*
X107650000Y-143200000D02*
X109050000Y-143200000D01*
X109050000Y-143200000D02*
X109350000Y-142900000D01*
X104950000Y-144300000D02*
X106550000Y-144300000D01*
X106550000Y-144300000D02*
X107650000Y-143200000D01*
D39*
X128000000Y-124600000D02*
X127850000Y-124750000D01*
X133150000Y-124600000D02*
X128000000Y-124600000D01*
D37*
X108000000Y-121400000D02*
X108750000Y-121400000D01*
X108750000Y-121400000D02*
X109300000Y-120850000D01*
X108000000Y-121400000D02*
X108900000Y-121400000D01*
X108900000Y-121400000D02*
X109250000Y-121750000D01*
X107800000Y-123100000D02*
X107800000Y-121600000D01*
X107800000Y-121600000D02*
X108000000Y-121400000D01*
X108210000Y-124750000D02*
X108210000Y-123510000D01*
X108210000Y-123510000D02*
X107800000Y-123100000D01*
X135800000Y-128350000D02*
X135800000Y-126600000D01*
X135800000Y-126600000D02*
X136000000Y-126400000D01*
X135800000Y-128350000D02*
X135800000Y-130400000D01*
X135800000Y-130400000D02*
X136000000Y-130600000D01*
D38*
X135572500Y-131254500D02*
X135572500Y-131027500D01*
X135572500Y-131027500D02*
X136000000Y-130600000D01*
D40*
X106006900Y-138493500D02*
X107400400Y-137100000D01*
X107400400Y-137100000D02*
X108050000Y-137100000D01*
X106146600Y-137058400D02*
X108008400Y-137058400D01*
X108008400Y-137058400D02*
X108050000Y-137100000D01*
X107950000Y-137200000D02*
X108050000Y-137100000D01*
X109550000Y-137100000D02*
X109550000Y-138300000D01*
X109550000Y-138300000D02*
X109950000Y-138700000D01*
X109950000Y-138700000D02*
X108750000Y-138700000D01*
X109550000Y-137100000D02*
X108050000Y-137100000D01*
X112250000Y-138900000D02*
X110450000Y-137100000D01*
X110450000Y-137100000D02*
X109550000Y-137100000D01*
D38*
X111050000Y-138716481D02*
X111093916Y-138760397D01*
X111050000Y-138700000D02*
X111050000Y-138716481D01*
X111093916Y-138760397D02*
X111436815Y-139103296D01*
D40*
X110850000Y-138700000D02*
X111050000Y-138700000D01*
X110950000Y-141000000D02*
X111800000Y-141000000D01*
X111800000Y-141000000D02*
X112250000Y-141450000D01*
X110850000Y-138700000D02*
X110850000Y-140900000D01*
X110850000Y-140900000D02*
X110950000Y-141000000D01*
D37*
X109350000Y-141000000D02*
X110950000Y-141000000D01*
X107650000Y-140700000D02*
X109050000Y-140700000D01*
X109050000Y-140700000D02*
X109350000Y-141000000D01*
X104950000Y-140300000D02*
X107250000Y-140300000D01*
X107250000Y-140300000D02*
X107650000Y-140700000D01*
D40*
X134750000Y-154150000D02*
X134295000Y-154150000D01*
X134295000Y-154150000D02*
X133589000Y-153444000D01*
X133589000Y-153444000D02*
X133589000Y-150956000D01*
X133589000Y-150956000D02*
X134295000Y-150250000D01*
X134295000Y-150250000D02*
X134750000Y-150250000D01*
X134560000Y-157950000D02*
X134870000Y-157950000D01*
X134870000Y-157950000D02*
X135911000Y-156909000D01*
X135911000Y-156909000D02*
X135911000Y-154856000D01*
X135911000Y-154856000D02*
X135205000Y-154150000D01*
X135205000Y-154150000D02*
X134750000Y-154150000D01*
D37*
X134200000Y-159600000D02*
X134200000Y-161400000D01*
X134200000Y-161400000D02*
X134500000Y-161700000D01*
X134560000Y-157950000D02*
X134560000Y-159240000D01*
X134560000Y-159240000D02*
X134200000Y-159600000D01*
X117950000Y-130900000D02*
X119250000Y-130900000D01*
X119250000Y-130900000D02*
X119400000Y-131050000D01*
X117000000Y-133262000D02*
X117000000Y-134793171D01*
X118014410Y-135364410D02*
X118950000Y-136300000D01*
X117000000Y-134793171D02*
X117571239Y-135364410D01*
X117571239Y-135364410D02*
X118014410Y-135364410D01*
X119400000Y-132950000D02*
X119400000Y-135850000D01*
X119400000Y-135850000D02*
X118950000Y-136300000D01*
X124000000Y-140300000D02*
X124000000Y-137000000D01*
X124000000Y-137000000D02*
X124150000Y-136850000D01*
D40*
X108210000Y-127750000D02*
X109950000Y-127750000D01*
X109950000Y-127750000D02*
X110200000Y-128000000D01*
X108210000Y-127750000D02*
X109550000Y-127750000D01*
X109550000Y-127750000D02*
X110100000Y-127200000D01*
X113300000Y-126900000D02*
X113300000Y-126550000D01*
X113300000Y-126550000D02*
X113650000Y-126200000D01*
X113300000Y-126900000D02*
X113300000Y-126450000D01*
X113300000Y-126450000D02*
X113050000Y-126200000D01*
X131400000Y-130600000D02*
X130850000Y-130600000D01*
X130850000Y-130600000D02*
X130150000Y-131300000D01*
X131400000Y-130600000D02*
X130300000Y-130600000D01*
X130300000Y-130600000D02*
X130150000Y-130450000D01*
X131400000Y-130600000D02*
X131100000Y-130600000D01*
X131100000Y-130600000D02*
X130250000Y-129750000D01*
X124150000Y-135750000D02*
X123300000Y-134900000D01*
X124150000Y-136850000D02*
X124150000Y-135000000D01*
X124150000Y-135000000D02*
X124100000Y-134950000D01*
X124150000Y-136850000D02*
X124150000Y-135750000D01*
X124150000Y-135750000D02*
X124850000Y-135050000D01*
X124150000Y-136850000D02*
X124150000Y-135900000D01*
D37*
X118950000Y-141000000D02*
X123300000Y-141000000D01*
X123300000Y-141000000D02*
X124000000Y-140300000D01*
X118950000Y-141000000D02*
X120000000Y-141000000D01*
X104000000Y-155400000D02*
X102800000Y-155400000D01*
X102800000Y-155400000D02*
X102200000Y-154800000D01*
X104000000Y-155400000D02*
X102500000Y-155400000D01*
X102500000Y-155400000D02*
X102200000Y-155700000D01*
X112250000Y-142550000D02*
X114200000Y-144500000D01*
D40*
X116050000Y-133262000D02*
X115088000Y-133262000D01*
X115088000Y-133262000D02*
X114550000Y-133800000D01*
X116050000Y-133262000D02*
X114662000Y-133262000D01*
X114662000Y-133262000D02*
X114500000Y-133100000D01*
X116050000Y-133262000D02*
X115738000Y-133262000D01*
X115738000Y-133262000D02*
X115250000Y-133750000D01*
X116050000Y-133262000D02*
X115412000Y-133262000D01*
X115412000Y-133262000D02*
X115200000Y-133050000D01*
D37*
X103700000Y-159860000D02*
X108660000Y-159860000D01*
X108660000Y-159860000D02*
X108950000Y-160150000D01*
X102700000Y-157100000D02*
X102150000Y-157650000D01*
X103650000Y-157100000D02*
X102700000Y-157100000D01*
X102700000Y-157100000D02*
X102200000Y-156600000D01*
X103700000Y-159860000D02*
X103700000Y-157150000D01*
X103700000Y-157150000D02*
X103650000Y-157100000D01*
D38*
X126450000Y-107562400D02*
X126450000Y-124350000D01*
X126450000Y-124350000D02*
X125250000Y-125550000D01*
X128050000Y-104960000D02*
X128050000Y-105962400D01*
X128050000Y-105962400D02*
X126450000Y-107562400D01*
D39*
X130067198Y-117602000D02*
X129724299Y-117944899D01*
X129724299Y-117944899D02*
X129724299Y-121977001D01*
X129724299Y-121977001D02*
X128587499Y-123113801D01*
X128587499Y-123113801D02*
X128244600Y-123456700D01*
X132050000Y-153200000D02*
X129010000Y-153200000D01*
X129010000Y-153200000D02*
X128650000Y-152840000D01*
X129650000Y-149300000D02*
X128650000Y-150300000D01*
X132050000Y-149300000D02*
X129650000Y-149300000D01*
D40*
X113300000Y-129200000D02*
X114350000Y-129200000D01*
X114350000Y-129200000D02*
X116050000Y-130900000D01*
X113300000Y-127800000D02*
X113300000Y-129200000D01*
D39*
X133111726Y-143150000D02*
X133100000Y-143150000D01*
X134167911Y-142093815D02*
X133111726Y-143150000D01*
X134167911Y-142082089D02*
X134167911Y-142093815D01*
X140152229Y-127983569D02*
X140152229Y-136097771D01*
X139809330Y-127640670D02*
X140152229Y-127983569D01*
X140152229Y-136097771D02*
X134167911Y-142082089D01*
D40*
X133100000Y-143150000D02*
X130800000Y-145450000D01*
X130800000Y-145450000D02*
X130800000Y-146900000D01*
X133700000Y-141900000D02*
X132983408Y-142616592D01*
X132983408Y-142616592D02*
X132879054Y-142616592D01*
X131695646Y-143800000D02*
X130900000Y-143800000D01*
X132879054Y-142616592D02*
X131695646Y-143800000D01*
D39*
X138300000Y-137300000D02*
X133700000Y-141900000D01*
X138300000Y-127250000D02*
X138300000Y-137300000D01*
X138800000Y-126750000D02*
X138300000Y-127250000D01*
X139800000Y-126750000D02*
X138800000Y-126750000D01*
D40*
X110750000Y-144600000D02*
X118050000Y-151900000D01*
X102950000Y-144100000D02*
X102950000Y-150600000D01*
X102950000Y-150600000D02*
X103650000Y-151300000D01*
D41*
G36*
X126791400Y-133540500D02*
X126771400Y-133540500D01*
X126771400Y-134734319D01*
X127001292Y-134854986D01*
X127525758Y-134608683D01*
X127873599Y-134227000D01*
X128973000Y-134227000D01*
X128973000Y-134965000D01*
X128435750Y-134965000D01*
X128277000Y-135123750D01*
X128277000Y-136723000D01*
X128297000Y-136723000D01*
X128297000Y-136977000D01*
X128277000Y-136977000D01*
X128277000Y-136997000D01*
X128023000Y-136997000D01*
X128023000Y-136977000D01*
X126673750Y-136977000D01*
X126515000Y-137135750D01*
X126515000Y-138226310D01*
X126611673Y-138459699D01*
X126656810Y-138504835D01*
X126640302Y-138511673D01*
X126461673Y-138690301D01*
X126365000Y-138923690D01*
X126365000Y-140014250D01*
X126523750Y-140173000D01*
X127873000Y-140173000D01*
X127873000Y-140153000D01*
X128127000Y-140153000D01*
X128127000Y-140173000D01*
X129476250Y-140173000D01*
X129635000Y-140014250D01*
X129635000Y-138923690D01*
X129538327Y-138690301D01*
X129493190Y-138645165D01*
X129509698Y-138638327D01*
X129521025Y-138627000D01*
X129773000Y-138627000D01*
X129773000Y-147873000D01*
X119952606Y-147873000D01*
X113228175Y-141148569D01*
X113303118Y-137776143D01*
X113415301Y-137888327D01*
X113648690Y-137985000D01*
X114114250Y-137985000D01*
X114273000Y-137826250D01*
X114273000Y-136727000D01*
X114253000Y-136727000D01*
X114253000Y-136473000D01*
X114273000Y-136473000D01*
X114273000Y-136453000D01*
X114527000Y-136453000D01*
X114527000Y-136473000D01*
X114547000Y-136473000D01*
X114547000Y-136727000D01*
X114527000Y-136727000D01*
X114527000Y-137826250D01*
X114685750Y-137985000D01*
X115151310Y-137985000D01*
X115384699Y-137888327D01*
X115563327Y-137709698D01*
X115631633Y-137544794D01*
X115635910Y-137551441D01*
X115848110Y-137696431D01*
X116100000Y-137747440D01*
X121800000Y-137747440D01*
X122035317Y-137703162D01*
X122251441Y-137564090D01*
X122396431Y-137351890D01*
X122447440Y-137100000D01*
X122447440Y-135500000D01*
X122411998Y-135311643D01*
X122470493Y-135453212D01*
X122521864Y-135504673D01*
X122502560Y-135600000D01*
X122502560Y-138100000D01*
X122546838Y-138335317D01*
X122661376Y-138513314D01*
X122548559Y-138585910D01*
X122403569Y-138798110D01*
X122352560Y-139050000D01*
X122352560Y-139886045D01*
X122264090Y-139748559D01*
X122051890Y-139603569D01*
X121800000Y-139552560D01*
X116100000Y-139552560D01*
X115864683Y-139596838D01*
X115648559Y-139735910D01*
X115503569Y-139948110D01*
X115452560Y-140200000D01*
X115452560Y-141800000D01*
X115496838Y-142035317D01*
X115635910Y-142251441D01*
X115848110Y-142396431D01*
X116100000Y-142447440D01*
X118708303Y-142447440D01*
X118622270Y-142654630D01*
X118621931Y-143043663D01*
X118770493Y-143403212D01*
X118996273Y-143629387D01*
X118896788Y-143670493D01*
X118621460Y-143945341D01*
X118472270Y-144304630D01*
X118471931Y-144693663D01*
X118620493Y-145053212D01*
X118895341Y-145328540D01*
X119254630Y-145477730D01*
X119643663Y-145478069D01*
X119892249Y-145375356D01*
X119945341Y-145428540D01*
X120293239Y-145573000D01*
X119700000Y-145573000D01*
X119653841Y-145581685D01*
X119611447Y-145608965D01*
X119583006Y-145650590D01*
X119573000Y-145700000D01*
X119573000Y-146700000D01*
X119581685Y-146746159D01*
X119608965Y-146788553D01*
X119650590Y-146816994D01*
X119700000Y-146827000D01*
X120900000Y-146827000D01*
X120946159Y-146818315D01*
X120988553Y-146791035D01*
X121016994Y-146749410D01*
X121027000Y-146700000D01*
X121027000Y-145700000D01*
X121018315Y-145653841D01*
X120991035Y-145611447D01*
X120949410Y-145583006D01*
X120900000Y-145573000D01*
X120705931Y-145573000D01*
X121053212Y-145429507D01*
X121328540Y-145154659D01*
X121477730Y-144795370D01*
X121478069Y-144406337D01*
X121329507Y-144046788D01*
X121054659Y-143771460D01*
X121042693Y-143766491D01*
X121253212Y-143679507D01*
X121528540Y-143404659D01*
X121677730Y-143045370D01*
X121678069Y-142656337D01*
X121591755Y-142447440D01*
X121800000Y-142447440D01*
X121873000Y-142433704D01*
X121873000Y-143300000D01*
X121881685Y-143346159D01*
X121908965Y-143388553D01*
X121950590Y-143416994D01*
X122000000Y-143427000D01*
X123000000Y-143427000D01*
X123046159Y-143418315D01*
X123088553Y-143391035D01*
X123116994Y-143349410D01*
X123127000Y-143300000D01*
X123127000Y-142197440D01*
X125000000Y-142197440D01*
X125235317Y-142153162D01*
X125451441Y-142014090D01*
X125596431Y-141801890D01*
X125647440Y-141550000D01*
X125647440Y-140585750D01*
X126365000Y-140585750D01*
X126365000Y-141676310D01*
X126461673Y-141909699D01*
X126640302Y-142088327D01*
X126873691Y-142185000D01*
X127714250Y-142185000D01*
X127873000Y-142026250D01*
X127873000Y-140427000D01*
X128127000Y-140427000D01*
X128127000Y-142026250D01*
X128285750Y-142185000D01*
X129126309Y-142185000D01*
X129359698Y-142088327D01*
X129538327Y-141909699D01*
X129635000Y-141676310D01*
X129635000Y-140585750D01*
X129476250Y-140427000D01*
X128127000Y-140427000D01*
X127873000Y-140427000D01*
X126523750Y-140427000D01*
X126365000Y-140585750D01*
X125647440Y-140585750D01*
X125647440Y-139050000D01*
X125603162Y-138814683D01*
X125488624Y-138636686D01*
X125601441Y-138564090D01*
X125746431Y-138351890D01*
X125797440Y-138100000D01*
X125797440Y-135600000D01*
X125773674Y-135473690D01*
X126515000Y-135473690D01*
X126515000Y-136564250D01*
X126673750Y-136723000D01*
X128023000Y-136723000D01*
X128023000Y-135123750D01*
X127864250Y-134965000D01*
X127023691Y-134965000D01*
X126790302Y-135061673D01*
X126611673Y-135240301D01*
X126515000Y-135473690D01*
X125773674Y-135473690D01*
X125760966Y-135406156D01*
X125827730Y-135245370D01*
X125828069Y-134856337D01*
X125694801Y-134533803D01*
X125763042Y-134608683D01*
X126287508Y-134854986D01*
X126517400Y-134734319D01*
X126517400Y-133540500D01*
X126497400Y-133540500D01*
X126497400Y-133427000D01*
X126791400Y-133427000D01*
X126791400Y-133540500D01*
X126791400Y-133540500D01*
G37*
X126791400Y-133540500D02*
X126771400Y-133540500D01*
X126771400Y-134734319D01*
X127001292Y-134854986D01*
X127525758Y-134608683D01*
X127873599Y-134227000D01*
X128973000Y-134227000D01*
X128973000Y-134965000D01*
X128435750Y-134965000D01*
X128277000Y-135123750D01*
X128277000Y-136723000D01*
X128297000Y-136723000D01*
X128297000Y-136977000D01*
X128277000Y-136977000D01*
X128277000Y-136997000D01*
X128023000Y-136997000D01*
X128023000Y-136977000D01*
X126673750Y-136977000D01*
X126515000Y-137135750D01*
X126515000Y-138226310D01*
X126611673Y-138459699D01*
X126656810Y-138504835D01*
X126640302Y-138511673D01*
X126461673Y-138690301D01*
X126365000Y-138923690D01*
X126365000Y-140014250D01*
X126523750Y-140173000D01*
X127873000Y-140173000D01*
X127873000Y-140153000D01*
X128127000Y-140153000D01*
X128127000Y-140173000D01*
X129476250Y-140173000D01*
X129635000Y-140014250D01*
X129635000Y-138923690D01*
X129538327Y-138690301D01*
X129493190Y-138645165D01*
X129509698Y-138638327D01*
X129521025Y-138627000D01*
X129773000Y-138627000D01*
X129773000Y-147873000D01*
X119952606Y-147873000D01*
X113228175Y-141148569D01*
X113303118Y-137776143D01*
X113415301Y-137888327D01*
X113648690Y-137985000D01*
X114114250Y-137985000D01*
X114273000Y-137826250D01*
X114273000Y-136727000D01*
X114253000Y-136727000D01*
X114253000Y-136473000D01*
X114273000Y-136473000D01*
X114273000Y-136453000D01*
X114527000Y-136453000D01*
X114527000Y-136473000D01*
X114547000Y-136473000D01*
X114547000Y-136727000D01*
X114527000Y-136727000D01*
X114527000Y-137826250D01*
X114685750Y-137985000D01*
X115151310Y-137985000D01*
X115384699Y-137888327D01*
X115563327Y-137709698D01*
X115631633Y-137544794D01*
X115635910Y-137551441D01*
X115848110Y-137696431D01*
X116100000Y-137747440D01*
X121800000Y-137747440D01*
X122035317Y-137703162D01*
X122251441Y-137564090D01*
X122396431Y-137351890D01*
X122447440Y-137100000D01*
X122447440Y-135500000D01*
X122411998Y-135311643D01*
X122470493Y-135453212D01*
X122521864Y-135504673D01*
X122502560Y-135600000D01*
X122502560Y-138100000D01*
X122546838Y-138335317D01*
X122661376Y-138513314D01*
X122548559Y-138585910D01*
X122403569Y-138798110D01*
X122352560Y-139050000D01*
X122352560Y-139886045D01*
X122264090Y-139748559D01*
X122051890Y-139603569D01*
X121800000Y-139552560D01*
X116100000Y-139552560D01*
X115864683Y-139596838D01*
X115648559Y-139735910D01*
X115503569Y-139948110D01*
X115452560Y-140200000D01*
X115452560Y-141800000D01*
X115496838Y-142035317D01*
X115635910Y-142251441D01*
X115848110Y-142396431D01*
X116100000Y-142447440D01*
X118708303Y-142447440D01*
X118622270Y-142654630D01*
X118621931Y-143043663D01*
X118770493Y-143403212D01*
X118996273Y-143629387D01*
X118896788Y-143670493D01*
X118621460Y-143945341D01*
X118472270Y-144304630D01*
X118471931Y-144693663D01*
X118620493Y-145053212D01*
X118895341Y-145328540D01*
X119254630Y-145477730D01*
X119643663Y-145478069D01*
X119892249Y-145375356D01*
X119945341Y-145428540D01*
X120293239Y-145573000D01*
X119700000Y-145573000D01*
X119653841Y-145581685D01*
X119611447Y-145608965D01*
X119583006Y-145650590D01*
X119573000Y-145700000D01*
X119573000Y-146700000D01*
X119581685Y-146746159D01*
X119608965Y-146788553D01*
X119650590Y-146816994D01*
X119700000Y-146827000D01*
X120900000Y-146827000D01*
X120946159Y-146818315D01*
X120988553Y-146791035D01*
X121016994Y-146749410D01*
X121027000Y-146700000D01*
X121027000Y-145700000D01*
X121018315Y-145653841D01*
X120991035Y-145611447D01*
X120949410Y-145583006D01*
X120900000Y-145573000D01*
X120705931Y-145573000D01*
X121053212Y-145429507D01*
X121328540Y-145154659D01*
X121477730Y-144795370D01*
X121478069Y-144406337D01*
X121329507Y-144046788D01*
X121054659Y-143771460D01*
X121042693Y-143766491D01*
X121253212Y-143679507D01*
X121528540Y-143404659D01*
X121677730Y-143045370D01*
X121678069Y-142656337D01*
X121591755Y-142447440D01*
X121800000Y-142447440D01*
X121873000Y-142433704D01*
X121873000Y-143300000D01*
X121881685Y-143346159D01*
X121908965Y-143388553D01*
X121950590Y-143416994D01*
X122000000Y-143427000D01*
X123000000Y-143427000D01*
X123046159Y-143418315D01*
X123088553Y-143391035D01*
X123116994Y-143349410D01*
X123127000Y-143300000D01*
X123127000Y-142197440D01*
X125000000Y-142197440D01*
X125235317Y-142153162D01*
X125451441Y-142014090D01*
X125596431Y-141801890D01*
X125647440Y-141550000D01*
X125647440Y-140585750D01*
X126365000Y-140585750D01*
X126365000Y-141676310D01*
X126461673Y-141909699D01*
X126640302Y-142088327D01*
X126873691Y-142185000D01*
X127714250Y-142185000D01*
X127873000Y-142026250D01*
X127873000Y-140427000D01*
X128127000Y-140427000D01*
X128127000Y-142026250D01*
X128285750Y-142185000D01*
X129126309Y-142185000D01*
X129359698Y-142088327D01*
X129538327Y-141909699D01*
X129635000Y-141676310D01*
X129635000Y-140585750D01*
X129476250Y-140427000D01*
X128127000Y-140427000D01*
X127873000Y-140427000D01*
X126523750Y-140427000D01*
X126365000Y-140585750D01*
X125647440Y-140585750D01*
X125647440Y-139050000D01*
X125603162Y-138814683D01*
X125488624Y-138636686D01*
X125601441Y-138564090D01*
X125746431Y-138351890D01*
X125797440Y-138100000D01*
X125797440Y-135600000D01*
X125773674Y-135473690D01*
X126515000Y-135473690D01*
X126515000Y-136564250D01*
X126673750Y-136723000D01*
X128023000Y-136723000D01*
X128023000Y-135123750D01*
X127864250Y-134965000D01*
X127023691Y-134965000D01*
X126790302Y-135061673D01*
X126611673Y-135240301D01*
X126515000Y-135473690D01*
X125773674Y-135473690D01*
X125760966Y-135406156D01*
X125827730Y-135245370D01*
X125828069Y-134856337D01*
X125694801Y-134533803D01*
X125763042Y-134608683D01*
X126287508Y-134854986D01*
X126517400Y-134734319D01*
X126517400Y-133540500D01*
X126497400Y-133540500D01*
X126497400Y-133427000D01*
X126791400Y-133427000D01*
X126791400Y-133540500D01*
G36*
X104665000Y-123551489D02*
X104665000Y-123601310D01*
X104761673Y-123834699D01*
X104940302Y-124013327D01*
X105173691Y-124110000D01*
X105614250Y-124110000D01*
X105773000Y-123951250D01*
X105773000Y-123553627D01*
X106027000Y-123554117D01*
X106027000Y-123951250D01*
X106185750Y-124110000D01*
X106340911Y-124110000D01*
X106312560Y-124250000D01*
X106312560Y-124615000D01*
X106281239Y-124615000D01*
X106242887Y-124602807D01*
X106172770Y-124615000D01*
X104535750Y-124615000D01*
X104377000Y-124773750D01*
X104377000Y-126123000D01*
X108083000Y-126123000D01*
X108083000Y-126103000D01*
X108337000Y-126103000D01*
X108337000Y-126123000D01*
X108357000Y-126123000D01*
X108357000Y-126377000D01*
X108337000Y-126377000D01*
X108337000Y-126397000D01*
X108083000Y-126397000D01*
X108083000Y-126377000D01*
X104377000Y-126377000D01*
X104377000Y-127726250D01*
X104535750Y-127885000D01*
X106260008Y-127885000D01*
X106312560Y-127885600D01*
X106312560Y-128250000D01*
X106356838Y-128485317D01*
X106495910Y-128701441D01*
X106708110Y-128846431D01*
X106960000Y-128897440D01*
X109460000Y-128897440D01*
X109695317Y-128853162D01*
X109698972Y-128850810D01*
X110004630Y-128977730D01*
X110393663Y-128978069D01*
X110753212Y-128829507D01*
X111028540Y-128554659D01*
X111177730Y-128195370D01*
X111178069Y-127806337D01*
X111042910Y-127479226D01*
X111077730Y-127395370D01*
X111078069Y-127006337D01*
X110929507Y-126646788D01*
X110654659Y-126371460D01*
X110295370Y-126222270D01*
X110095000Y-126222095D01*
X110095000Y-126122998D01*
X109936252Y-126122998D01*
X110095000Y-125964250D01*
X110095000Y-125623691D01*
X110049033Y-125512717D01*
X110056431Y-125501890D01*
X110107440Y-125250000D01*
X110107440Y-124250000D01*
X110063162Y-124014683D01*
X109924090Y-123798559D01*
X109711890Y-123653569D01*
X109460000Y-123602560D01*
X109226000Y-123602560D01*
X109226000Y-123560289D01*
X121233409Y-123583454D01*
X121173002Y-133299210D01*
X121182701Y-133348682D01*
X121210882Y-133390482D01*
X121253106Y-133418025D01*
X121300000Y-133427000D01*
X125159400Y-133427000D01*
X125159400Y-133540502D01*
X125324244Y-133540502D01*
X125202924Y-133770390D01*
X125372755Y-134180424D01*
X125467749Y-134284660D01*
X125404659Y-134221460D01*
X125045370Y-134072270D01*
X124656337Y-134071931D01*
X124595709Y-134096982D01*
X124295370Y-133972270D01*
X123906337Y-133971931D01*
X123760292Y-134032275D01*
X123495370Y-133922270D01*
X123106337Y-133921931D01*
X122746788Y-134070493D01*
X122471460Y-134345341D01*
X122322270Y-134704630D01*
X122321931Y-135093663D01*
X122373635Y-135218797D01*
X122264090Y-135048559D01*
X122051890Y-134903569D01*
X121800000Y-134852560D01*
X120416000Y-134852560D01*
X120416000Y-133581802D01*
X120422440Y-133550000D01*
X120422440Y-132350000D01*
X120378162Y-132114683D01*
X120304380Y-132000022D01*
X120371431Y-131901890D01*
X120422440Y-131650000D01*
X120422440Y-130450000D01*
X120378162Y-130214683D01*
X120239090Y-129998559D01*
X120026890Y-129853569D01*
X119775000Y-129802560D01*
X119025000Y-129802560D01*
X118789683Y-129846838D01*
X118762198Y-129864524D01*
X118664090Y-129712059D01*
X118451890Y-129567069D01*
X118200000Y-129516060D01*
X117700000Y-129516060D01*
X117466740Y-129559951D01*
X117250000Y-129516060D01*
X116750000Y-129516060D01*
X116516740Y-129559951D01*
X116300000Y-129516060D01*
X115833494Y-129516060D01*
X114933717Y-128616283D01*
X114665906Y-128437337D01*
X114355204Y-128375535D01*
X114353162Y-128364683D01*
X114216574Y-128152420D01*
X114247440Y-128000000D01*
X114247440Y-127600000D01*
X114203162Y-127364683D01*
X114195658Y-127353021D01*
X114196431Y-127351890D01*
X114247440Y-127100000D01*
X114247440Y-126985356D01*
X114478540Y-126754659D01*
X114627730Y-126395370D01*
X114628069Y-126006337D01*
X114479507Y-125646788D01*
X114204659Y-125371460D01*
X113845370Y-125222270D01*
X113456337Y-125221931D01*
X113350184Y-125265792D01*
X113245370Y-125222270D01*
X112856337Y-125221931D01*
X112496788Y-125370493D01*
X112221460Y-125645341D01*
X112072270Y-126004630D01*
X112071931Y-126393663D01*
X112220493Y-126753212D01*
X112352560Y-126885510D01*
X112352560Y-127100000D01*
X112396838Y-127335317D01*
X112404342Y-127346979D01*
X112403569Y-127348110D01*
X112352560Y-127600000D01*
X112352560Y-128000000D01*
X112382544Y-128159349D01*
X112253569Y-128348110D01*
X112202560Y-128600000D01*
X112202560Y-129800000D01*
X112246838Y-130035317D01*
X112385910Y-130251441D01*
X112454006Y-130297969D01*
X112311673Y-130440302D01*
X112215000Y-130673691D01*
X112215000Y-131114250D01*
X112373750Y-131273000D01*
X113173000Y-131273000D01*
X113173000Y-131253000D01*
X113427000Y-131253000D01*
X113427000Y-131273000D01*
X114226250Y-131273000D01*
X114385000Y-131114250D01*
X114385000Y-130673691D01*
X114288327Y-130440302D01*
X114147090Y-130299064D01*
X114201441Y-130264090D01*
X114219795Y-130237229D01*
X115152560Y-131169994D01*
X115152560Y-131636500D01*
X115196838Y-131871817D01*
X115325787Y-132072209D01*
X115006337Y-132071931D01*
X114789705Y-132161441D01*
X114695370Y-132122270D01*
X114385000Y-132122000D01*
X114385000Y-131685750D01*
X114226250Y-131527000D01*
X113427000Y-131527000D01*
X113427000Y-132476250D01*
X113585750Y-132635000D01*
X113634230Y-132635000D01*
X113591868Y-132737019D01*
X113539683Y-132746838D01*
X113323559Y-132885910D01*
X113178569Y-133098110D01*
X113127560Y-133350000D01*
X113127560Y-134850000D01*
X113171838Y-135085317D01*
X113310910Y-135301441D01*
X113379006Y-135347969D01*
X113236673Y-135490302D01*
X113140000Y-135723691D01*
X113140000Y-136314250D01*
X113298748Y-136472998D01*
X113152604Y-136472998D01*
X110227599Y-133547993D01*
X110248761Y-131685750D01*
X112215000Y-131685750D01*
X112215000Y-132126309D01*
X112311673Y-132359698D01*
X112490301Y-132538327D01*
X112723690Y-132635000D01*
X113014250Y-132635000D01*
X113173000Y-132476250D01*
X113173000Y-131527000D01*
X112373750Y-131527000D01*
X112215000Y-131685750D01*
X110248761Y-131685750D01*
X110276992Y-129201443D01*
X110267548Y-129151922D01*
X110239582Y-129109978D01*
X110197501Y-129082218D01*
X110149482Y-129073001D01*
X101652764Y-129107673D01*
X101676940Y-127525846D01*
X101711673Y-127609698D01*
X101890301Y-127788327D01*
X102123690Y-127885000D01*
X103964250Y-127885000D01*
X104123000Y-127726250D01*
X104123000Y-126377000D01*
X104103000Y-126377000D01*
X104103000Y-126123000D01*
X104123000Y-126123000D01*
X104123000Y-124773750D01*
X103964250Y-124615000D01*
X102123690Y-124615000D01*
X101890301Y-124711673D01*
X101717308Y-124884667D01*
X101737770Y-123545842D01*
X104665000Y-123551489D01*
X104665000Y-123551489D01*
G37*
X104665000Y-123551489D02*
X104665000Y-123601310D01*
X104761673Y-123834699D01*
X104940302Y-124013327D01*
X105173691Y-124110000D01*
X105614250Y-124110000D01*
X105773000Y-123951250D01*
X105773000Y-123553627D01*
X106027000Y-123554117D01*
X106027000Y-123951250D01*
X106185750Y-124110000D01*
X106340911Y-124110000D01*
X106312560Y-124250000D01*
X106312560Y-124615000D01*
X106281239Y-124615000D01*
X106242887Y-124602807D01*
X106172770Y-124615000D01*
X104535750Y-124615000D01*
X104377000Y-124773750D01*
X104377000Y-126123000D01*
X108083000Y-126123000D01*
X108083000Y-126103000D01*
X108337000Y-126103000D01*
X108337000Y-126123000D01*
X108357000Y-126123000D01*
X108357000Y-126377000D01*
X108337000Y-126377000D01*
X108337000Y-126397000D01*
X108083000Y-126397000D01*
X108083000Y-126377000D01*
X104377000Y-126377000D01*
X104377000Y-127726250D01*
X104535750Y-127885000D01*
X106260008Y-127885000D01*
X106312560Y-127885600D01*
X106312560Y-128250000D01*
X106356838Y-128485317D01*
X106495910Y-128701441D01*
X106708110Y-128846431D01*
X106960000Y-128897440D01*
X109460000Y-128897440D01*
X109695317Y-128853162D01*
X109698972Y-128850810D01*
X110004630Y-128977730D01*
X110393663Y-128978069D01*
X110753212Y-128829507D01*
X111028540Y-128554659D01*
X111177730Y-128195370D01*
X111178069Y-127806337D01*
X111042910Y-127479226D01*
X111077730Y-127395370D01*
X111078069Y-127006337D01*
X110929507Y-126646788D01*
X110654659Y-126371460D01*
X110295370Y-126222270D01*
X110095000Y-126222095D01*
X110095000Y-126122998D01*
X109936252Y-126122998D01*
X110095000Y-125964250D01*
X110095000Y-125623691D01*
X110049033Y-125512717D01*
X110056431Y-125501890D01*
X110107440Y-125250000D01*
X110107440Y-124250000D01*
X110063162Y-124014683D01*
X109924090Y-123798559D01*
X109711890Y-123653569D01*
X109460000Y-123602560D01*
X109226000Y-123602560D01*
X109226000Y-123560289D01*
X121233409Y-123583454D01*
X121173002Y-133299210D01*
X121182701Y-133348682D01*
X121210882Y-133390482D01*
X121253106Y-133418025D01*
X121300000Y-133427000D01*
X125159400Y-133427000D01*
X125159400Y-133540502D01*
X125324244Y-133540502D01*
X125202924Y-133770390D01*
X125372755Y-134180424D01*
X125467749Y-134284660D01*
X125404659Y-134221460D01*
X125045370Y-134072270D01*
X124656337Y-134071931D01*
X124595709Y-134096982D01*
X124295370Y-133972270D01*
X123906337Y-133971931D01*
X123760292Y-134032275D01*
X123495370Y-133922270D01*
X123106337Y-133921931D01*
X122746788Y-134070493D01*
X122471460Y-134345341D01*
X122322270Y-134704630D01*
X122321931Y-135093663D01*
X122373635Y-135218797D01*
X122264090Y-135048559D01*
X122051890Y-134903569D01*
X121800000Y-134852560D01*
X120416000Y-134852560D01*
X120416000Y-133581802D01*
X120422440Y-133550000D01*
X120422440Y-132350000D01*
X120378162Y-132114683D01*
X120304380Y-132000022D01*
X120371431Y-131901890D01*
X120422440Y-131650000D01*
X120422440Y-130450000D01*
X120378162Y-130214683D01*
X120239090Y-129998559D01*
X120026890Y-129853569D01*
X119775000Y-129802560D01*
X119025000Y-129802560D01*
X118789683Y-129846838D01*
X118762198Y-129864524D01*
X118664090Y-129712059D01*
X118451890Y-129567069D01*
X118200000Y-129516060D01*
X117700000Y-129516060D01*
X117466740Y-129559951D01*
X117250000Y-129516060D01*
X116750000Y-129516060D01*
X116516740Y-129559951D01*
X116300000Y-129516060D01*
X115833494Y-129516060D01*
X114933717Y-128616283D01*
X114665906Y-128437337D01*
X114355204Y-128375535D01*
X114353162Y-128364683D01*
X114216574Y-128152420D01*
X114247440Y-128000000D01*
X114247440Y-127600000D01*
X114203162Y-127364683D01*
X114195658Y-127353021D01*
X114196431Y-127351890D01*
X114247440Y-127100000D01*
X114247440Y-126985356D01*
X114478540Y-126754659D01*
X114627730Y-126395370D01*
X114628069Y-126006337D01*
X114479507Y-125646788D01*
X114204659Y-125371460D01*
X113845370Y-125222270D01*
X113456337Y-125221931D01*
X113350184Y-125265792D01*
X113245370Y-125222270D01*
X112856337Y-125221931D01*
X112496788Y-125370493D01*
X112221460Y-125645341D01*
X112072270Y-126004630D01*
X112071931Y-126393663D01*
X112220493Y-126753212D01*
X112352560Y-126885510D01*
X112352560Y-127100000D01*
X112396838Y-127335317D01*
X112404342Y-127346979D01*
X112403569Y-127348110D01*
X112352560Y-127600000D01*
X112352560Y-128000000D01*
X112382544Y-128159349D01*
X112253569Y-128348110D01*
X112202560Y-128600000D01*
X112202560Y-129800000D01*
X112246838Y-130035317D01*
X112385910Y-130251441D01*
X112454006Y-130297969D01*
X112311673Y-130440302D01*
X112215000Y-130673691D01*
X112215000Y-131114250D01*
X112373750Y-131273000D01*
X113173000Y-131273000D01*
X113173000Y-131253000D01*
X113427000Y-131253000D01*
X113427000Y-131273000D01*
X114226250Y-131273000D01*
X114385000Y-131114250D01*
X114385000Y-130673691D01*
X114288327Y-130440302D01*
X114147090Y-130299064D01*
X114201441Y-130264090D01*
X114219795Y-130237229D01*
X115152560Y-131169994D01*
X115152560Y-131636500D01*
X115196838Y-131871817D01*
X115325787Y-132072209D01*
X115006337Y-132071931D01*
X114789705Y-132161441D01*
X114695370Y-132122270D01*
X114385000Y-132122000D01*
X114385000Y-131685750D01*
X114226250Y-131527000D01*
X113427000Y-131527000D01*
X113427000Y-132476250D01*
X113585750Y-132635000D01*
X113634230Y-132635000D01*
X113591868Y-132737019D01*
X113539683Y-132746838D01*
X113323559Y-132885910D01*
X113178569Y-133098110D01*
X113127560Y-133350000D01*
X113127560Y-134850000D01*
X113171838Y-135085317D01*
X113310910Y-135301441D01*
X113379006Y-135347969D01*
X113236673Y-135490302D01*
X113140000Y-135723691D01*
X113140000Y-136314250D01*
X113298748Y-136472998D01*
X113152604Y-136472998D01*
X110227599Y-133547993D01*
X110248761Y-131685750D01*
X112215000Y-131685750D01*
X112215000Y-132126309D01*
X112311673Y-132359698D01*
X112490301Y-132538327D01*
X112723690Y-132635000D01*
X113014250Y-132635000D01*
X113173000Y-132476250D01*
X113173000Y-131527000D01*
X112373750Y-131527000D01*
X112215000Y-131685750D01*
X110248761Y-131685750D01*
X110276992Y-129201443D01*
X110267548Y-129151922D01*
X110239582Y-129109978D01*
X110197501Y-129082218D01*
X110149482Y-129073001D01*
X101652764Y-129107673D01*
X101676940Y-127525846D01*
X101711673Y-127609698D01*
X101890301Y-127788327D01*
X102123690Y-127885000D01*
X103964250Y-127885000D01*
X104123000Y-127726250D01*
X104123000Y-126377000D01*
X104103000Y-126377000D01*
X104103000Y-126123000D01*
X104123000Y-126123000D01*
X104123000Y-124773750D01*
X103964250Y-124615000D01*
X102123690Y-124615000D01*
X101890301Y-124711673D01*
X101717308Y-124884667D01*
X101737770Y-123545842D01*
X104665000Y-123551489D01*
M02*
