G04 #@! TF.FileFunction,Legend,Top*
%FSLAX46Y46*%
G04 Gerber Fmt 4.6, Leading zero omitted, Abs format (unit mm)*
G04 Created by KiCad (PCBNEW 4.0.7) date Wed Apr 18 22:53:30 2018*
%MOMM*%
%LPD*%
G01*
G04 APERTURE LIST*
%ADD10C,0.100000*%
%ADD11C,0.120000*%
%ADD12C,0.150000*%
G04 APERTURE END LIST*
D10*
D11*
X109705700Y-130866400D02*
X109705700Y-131566400D01*
X108505700Y-131566400D02*
X108505700Y-130866400D01*
X112450000Y-138630000D02*
X112950000Y-138630000D01*
X112950000Y-137570000D02*
X112450000Y-137570000D01*
X124400000Y-120080000D02*
X123900000Y-120080000D01*
X123900000Y-121020000D02*
X124400000Y-121020000D01*
X124400000Y-119080000D02*
X123900000Y-119080000D01*
X123900000Y-120020000D02*
X124400000Y-120020000D01*
X121600000Y-127550000D02*
X120900000Y-127550000D01*
X120900000Y-126350000D02*
X121600000Y-126350000D01*
X117000000Y-105550000D02*
X117000000Y-104850000D01*
X118200000Y-104850000D02*
X118200000Y-105550000D01*
X118450000Y-104250000D02*
X118450000Y-105250000D01*
X120150000Y-105250000D02*
X120150000Y-104250000D01*
X113750000Y-105550000D02*
X113750000Y-104850000D01*
X114950000Y-104850000D02*
X114950000Y-105550000D01*
X111800000Y-104250000D02*
X111800000Y-105250000D01*
X113500000Y-105250000D02*
X113500000Y-104250000D01*
X112350000Y-117650000D02*
X111650000Y-117650000D01*
X111650000Y-116450000D02*
X112350000Y-116450000D01*
X122750000Y-112830000D02*
X122250000Y-112830000D01*
X122250000Y-113770000D02*
X122750000Y-113770000D01*
X107150000Y-123650000D02*
X106450000Y-123650000D01*
X106450000Y-122450000D02*
X107150000Y-122450000D01*
X106250000Y-120650000D02*
X107250000Y-120650000D01*
X107250000Y-118950000D02*
X106250000Y-118950000D01*
X117720000Y-116350000D02*
X117720000Y-115850000D01*
X116780000Y-115850000D02*
X116780000Y-116350000D01*
X116470000Y-116350000D02*
X116470000Y-115850000D01*
X115530000Y-115850000D02*
X115530000Y-116350000D01*
X130068121Y-114549945D02*
X129573147Y-114054971D01*
X130421675Y-113206443D02*
X130916649Y-113701417D01*
X130528435Y-112823547D02*
X131235542Y-113530654D01*
X132437623Y-112328573D02*
X131730516Y-111621466D01*
X134752513Y-110395406D02*
X134045406Y-111102513D01*
X135247487Y-112304594D02*
X135954594Y-111597487D01*
X134278249Y-113673223D02*
X134773223Y-113178249D01*
X135621751Y-114026777D02*
X135126777Y-114521751D01*
X131408994Y-120046913D02*
X130701887Y-119339806D01*
X129499806Y-120541887D02*
X130206913Y-121248994D01*
X131750000Y-134850000D02*
X131050000Y-134850000D01*
X131050000Y-133650000D02*
X131750000Y-133650000D01*
X121250000Y-146620000D02*
X121750000Y-146620000D01*
X121750000Y-145680000D02*
X121250000Y-145680000D01*
X121300000Y-142250000D02*
X122000000Y-142250000D01*
X122000000Y-143450000D02*
X121300000Y-143450000D01*
X144150000Y-136180000D02*
X143650000Y-136180000D01*
X143650000Y-137120000D02*
X144150000Y-137120000D01*
X122050000Y-140450000D02*
X121350000Y-140450000D01*
X121350000Y-139250000D02*
X122050000Y-139250000D01*
X140750000Y-136700000D02*
X140750000Y-137200000D01*
X139950000Y-137200000D02*
X139950000Y-136700000D01*
X122050000Y-138450000D02*
X121350000Y-138450000D01*
X121350000Y-137250000D02*
X122050000Y-137250000D01*
X141550000Y-136700000D02*
X141550000Y-137200000D01*
X140750000Y-137200000D02*
X140750000Y-136700000D01*
X142620000Y-126700000D02*
X142620000Y-126200000D01*
X141680000Y-126200000D02*
X141680000Y-126700000D01*
X143870000Y-126700000D02*
X143870000Y-126200000D01*
X142930000Y-126200000D02*
X142930000Y-126700000D01*
X143850000Y-137300000D02*
X144550000Y-137300000D01*
X144550000Y-138500000D02*
X143850000Y-138500000D01*
X146185100Y-151685700D02*
X146885100Y-151685700D01*
X146885100Y-152885700D02*
X146185100Y-152885700D01*
X143348900Y-152616000D02*
X143848900Y-152616000D01*
X143848900Y-151676000D02*
X143348900Y-151676000D01*
X146081000Y-145653200D02*
X146781000Y-145653200D01*
X146781000Y-146853200D02*
X146081000Y-146853200D01*
X143256100Y-146240600D02*
X143756100Y-146240600D01*
X143756100Y-145300600D02*
X143256100Y-145300600D01*
X113109300Y-147135100D02*
X113109300Y-147835100D01*
X111909300Y-147835100D02*
X111909300Y-147135100D01*
X110182100Y-147850300D02*
X110182100Y-147150300D01*
X111382100Y-147150300D02*
X111382100Y-147850300D01*
X109978900Y-131556200D02*
X109978900Y-130856200D01*
X111178900Y-130856200D02*
X111178900Y-131556200D01*
X104300000Y-152000000D02*
X105000000Y-152000000D01*
X105000000Y-153200000D02*
X104300000Y-153200000D01*
X115800000Y-138500000D02*
X115800000Y-139200000D01*
X114600000Y-139200000D02*
X114600000Y-138500000D01*
X104250000Y-153900000D02*
X104950000Y-153900000D01*
X104950000Y-155100000D02*
X104250000Y-155100000D01*
D12*
X141650000Y-156850000D02*
G75*
G03X141650000Y-156850000I-100000J0D01*
G01*
X140950000Y-157550000D02*
X140950000Y-157350000D01*
X141250000Y-157550000D02*
X140950000Y-157550000D01*
X142150000Y-157550000D02*
X141850000Y-157550000D01*
X142150000Y-157350000D02*
X142150000Y-157550000D01*
X142150000Y-155550000D02*
X142150000Y-155750000D01*
X141850000Y-155550000D02*
X142150000Y-155550000D01*
X140950000Y-155550000D02*
X141250000Y-155550000D01*
X140950000Y-155750000D02*
X140950000Y-155550000D01*
D11*
X104920000Y-105850000D02*
X104920000Y-113530000D01*
X104920000Y-113530000D02*
X107580000Y-113530000D01*
X107580000Y-113530000D02*
X107580000Y-105850000D01*
X107580000Y-105850000D02*
X104920000Y-105850000D01*
X104920000Y-104580000D02*
X104920000Y-103250000D01*
X104920000Y-103250000D02*
X106250000Y-103250000D01*
X108720000Y-157330000D02*
X111380000Y-157330000D01*
X108720000Y-154730000D02*
X108720000Y-157330000D01*
X111380000Y-154730000D02*
X111380000Y-157330000D01*
X108720000Y-154730000D02*
X111380000Y-154730000D01*
X108720000Y-153460000D02*
X108720000Y-152130000D01*
X108720000Y-152130000D02*
X110050000Y-152130000D01*
X102370000Y-161130000D02*
X102370000Y-163730000D01*
X102370000Y-163730000D02*
X105030000Y-163730000D01*
X105030000Y-163730000D02*
X105030000Y-161130000D01*
X105030000Y-161130000D02*
X102370000Y-161130000D01*
X102370000Y-159860000D02*
X102370000Y-158530000D01*
X102370000Y-158530000D02*
X103700000Y-158530000D01*
X141000000Y-138550000D02*
X140500000Y-138550000D01*
X140500000Y-137750000D02*
X141000000Y-137750000D01*
X137750000Y-137320000D02*
X138250000Y-137320000D01*
X138250000Y-136380000D02*
X137750000Y-136380000D01*
X143909117Y-139494437D02*
X143555563Y-139140883D01*
X142890883Y-139805563D02*
X143244437Y-140159117D01*
X143300000Y-145070000D02*
X143800000Y-145070000D01*
X143800000Y-144130000D02*
X143300000Y-144130000D01*
X143350000Y-151570000D02*
X143850000Y-151570000D01*
X143850000Y-150630000D02*
X143350000Y-150630000D01*
X140980000Y-149100000D02*
X140980000Y-149600000D01*
X141920000Y-149600000D02*
X141920000Y-149100000D01*
X140980000Y-142550000D02*
X140980000Y-143050000D01*
X141920000Y-143050000D02*
X141920000Y-142550000D01*
X140650000Y-148020000D02*
X141150000Y-148020000D01*
X141150000Y-147080000D02*
X140650000Y-147080000D01*
X140650000Y-154570000D02*
X141150000Y-154570000D01*
X141150000Y-153630000D02*
X140650000Y-153630000D01*
X118000000Y-140320000D02*
X118500000Y-140320000D01*
X118500000Y-139380000D02*
X118000000Y-139380000D01*
X118050000Y-138320000D02*
X118550000Y-138320000D01*
X118550000Y-137380000D02*
X118050000Y-137380000D01*
X144900000Y-117170000D02*
X144400000Y-117170000D01*
X144400000Y-118230000D02*
X144900000Y-118230000D01*
X143380000Y-119600000D02*
X143380000Y-119100000D01*
X142320000Y-119100000D02*
X142320000Y-119600000D01*
X142630000Y-122000000D02*
X142630000Y-121500000D01*
X141570000Y-121500000D02*
X141570000Y-122000000D01*
X143880000Y-122050000D02*
X143880000Y-121550000D01*
X142820000Y-121550000D02*
X142820000Y-122050000D01*
X121750000Y-129230000D02*
X120750000Y-129230000D01*
X120750000Y-127870000D02*
X121750000Y-127870000D01*
X111400000Y-122370000D02*
X112400000Y-122370000D01*
X112400000Y-123730000D02*
X111400000Y-123730000D01*
X120870000Y-118400000D02*
X120870000Y-118900000D01*
X121930000Y-118900000D02*
X121930000Y-118400000D01*
X123050000Y-116070000D02*
X122550000Y-116070000D01*
X122550000Y-117130000D02*
X123050000Y-117130000D01*
X111500000Y-118920000D02*
X112700000Y-118920000D01*
X112700000Y-120680000D02*
X111500000Y-120680000D01*
X119800000Y-117020000D02*
X120300000Y-117020000D01*
X120300000Y-116080000D02*
X119800000Y-116080000D01*
X118880000Y-117250000D02*
X118880000Y-116750000D01*
X117820000Y-116750000D02*
X117820000Y-117250000D01*
X111430000Y-110800000D02*
X111430000Y-111800000D01*
X110070000Y-111800000D02*
X110070000Y-110800000D01*
X131550000Y-123920000D02*
X132550000Y-123920000D01*
X132550000Y-125280000D02*
X131550000Y-125280000D01*
X131550000Y-125670000D02*
X132550000Y-125670000D01*
X132550000Y-127030000D02*
X131550000Y-127030000D01*
X122100000Y-145280000D02*
X121100000Y-145280000D01*
X121100000Y-143920000D02*
X122100000Y-143920000D01*
X135800000Y-134930000D02*
X134800000Y-134930000D01*
X134800000Y-133570000D02*
X135800000Y-133570000D01*
X128200000Y-145670000D02*
X126200000Y-145670000D01*
X126200000Y-143530000D02*
X128200000Y-143530000D01*
X128200000Y-148420000D02*
X126200000Y-148420000D01*
X126200000Y-146280000D02*
X128200000Y-146280000D01*
X128200000Y-142920000D02*
X126200000Y-142920000D01*
X126200000Y-140780000D02*
X128200000Y-140780000D01*
X147550000Y-135830000D02*
X146550000Y-135830000D01*
X146550000Y-134470000D02*
X147550000Y-134470000D01*
X132550000Y-136330000D02*
X134550000Y-136330000D01*
X134550000Y-138470000D02*
X132550000Y-138470000D01*
X147200503Y-143913711D02*
X145786289Y-142499497D01*
X147299497Y-140986289D02*
X148713711Y-142400503D01*
X112950000Y-139320000D02*
X112450000Y-139320000D01*
X112450000Y-140380000D02*
X112950000Y-140380000D01*
X112450000Y-142930000D02*
X112950000Y-142930000D01*
X112950000Y-141870000D02*
X112450000Y-141870000D01*
X112950000Y-135820000D02*
X112450000Y-135820000D01*
X112450000Y-136880000D02*
X112950000Y-136880000D01*
D12*
X141350000Y-140950000D02*
G75*
G03X141350000Y-140950000I-100000J0D01*
G01*
X140950000Y-140950000D02*
X139950000Y-140950000D01*
X141150000Y-138950000D02*
X139950000Y-138950000D01*
X140650000Y-140650000D02*
G75*
G03X140650000Y-140650000I-100000J0D01*
G01*
X142150000Y-122900000D02*
G75*
G03X142150000Y-122900000I-100000J0D01*
G01*
X142350000Y-122900000D02*
X143350000Y-122900000D01*
X142150000Y-124900000D02*
X143350000Y-124900000D01*
X142850000Y-123200000D02*
G75*
G03X142850000Y-123200000I-100000J0D01*
G01*
X142747470Y-117246428D02*
X142676759Y-117317139D01*
X142393916Y-117599982D02*
X142606048Y-117812114D01*
X142747470Y-117246428D02*
X142959602Y-117458560D01*
X120925000Y-123700000D02*
G75*
G03X120925000Y-123700000I-200000J0D01*
G01*
X123325000Y-121100000D02*
X123025000Y-121100000D01*
X123325000Y-124300000D02*
X123325000Y-121100000D01*
X123025000Y-124300000D02*
X123325000Y-124300000D01*
X120125000Y-124300000D02*
X120425000Y-124300000D01*
X120125000Y-121100000D02*
X120125000Y-124300000D01*
X120425000Y-121100000D02*
X120125000Y-121100000D01*
X123211803Y-111500000D02*
G75*
G03X123211803Y-111500000I-111803J0D01*
G01*
X121800000Y-110650000D02*
X121800000Y-111650000D01*
X122700000Y-110150000D02*
X122500000Y-110150000D01*
X123400000Y-111650000D02*
X123400000Y-110650000D01*
X122500000Y-112150000D02*
X122700000Y-112150000D01*
X113183114Y-113450000D02*
G75*
G03X113183114Y-113450000I-158114J0D01*
G01*
X118525000Y-108750000D02*
X118525000Y-113250000D01*
X113425000Y-113250000D02*
X113425000Y-108750000D01*
X133465000Y-115850000D02*
X132965000Y-115850000D01*
X133465000Y-116350000D02*
X133465000Y-115850000D01*
X133465000Y-118850000D02*
X133465000Y-118350000D01*
X132965000Y-118850000D02*
X133465000Y-118850000D01*
X130465000Y-118850000D02*
X130965000Y-118850000D01*
X130465000Y-118350000D02*
X130465000Y-118850000D01*
X130965000Y-115850000D02*
X130465000Y-116350000D01*
X139095911Y-134275000D02*
X139220911Y-134275000D01*
X139095911Y-129625000D02*
X139320911Y-129625000D01*
X144345911Y-129625000D02*
X144120911Y-129625000D01*
X144345911Y-134275000D02*
X144120911Y-134275000D01*
X139095911Y-134275000D02*
X139095911Y-129625000D01*
X144345911Y-134275000D02*
X144345911Y-129625000D01*
X139220911Y-134275000D02*
X139220911Y-135625000D01*
X103925000Y-136275000D02*
X103925000Y-136400000D01*
X108575000Y-136275000D02*
X108575000Y-136500000D01*
X108575000Y-141525000D02*
X108575000Y-141300000D01*
X103925000Y-141525000D02*
X103925000Y-141300000D01*
X103925000Y-136275000D02*
X108575000Y-136275000D01*
X103925000Y-141525000D02*
X108575000Y-141525000D01*
X103925000Y-136400000D02*
X102575000Y-136400000D01*
D11*
X104566000Y-146947000D02*
X104566000Y-147947000D01*
X103206000Y-147947000D02*
X103206000Y-146947000D01*
X105837800Y-146942400D02*
X105337800Y-146942400D01*
X105337800Y-148002400D02*
X105837800Y-148002400D01*
X108109300Y-147002700D02*
X108109300Y-148002700D01*
X106749300Y-148002700D02*
X106749300Y-147002700D01*
X109836500Y-146997800D02*
X109836500Y-147997800D01*
X108476500Y-147997800D02*
X108476500Y-146997800D01*
X108249000Y-130741800D02*
X108249000Y-131741800D01*
X106889000Y-131741800D02*
X106889000Y-130741800D01*
X106674200Y-130797500D02*
X106674200Y-131797500D01*
X105314200Y-131797500D02*
X105314200Y-130797500D01*
X104118600Y-131848000D02*
X104618600Y-131848000D01*
X104618600Y-130788000D02*
X104118600Y-130788000D01*
X101974100Y-131830700D02*
X101974100Y-130830700D01*
X103334100Y-130830700D02*
X103334100Y-131830700D01*
X126720000Y-106230000D02*
X126720000Y-111370000D01*
X126720000Y-111370000D02*
X129380000Y-111370000D01*
X129380000Y-111370000D02*
X129380000Y-106230000D01*
X129380000Y-106230000D02*
X126720000Y-106230000D01*
X126720000Y-104960000D02*
X126720000Y-103630000D01*
X126720000Y-103630000D02*
X128050000Y-103630000D01*
X125314400Y-129603500D02*
X125314400Y-134743500D01*
X125314400Y-134743500D02*
X127974400Y-134743500D01*
X127974400Y-134743500D02*
X127974400Y-129603500D01*
X127974400Y-129603500D02*
X125314400Y-129603500D01*
X125314400Y-128333500D02*
X125314400Y-127003500D01*
X125314400Y-127003500D02*
X126644400Y-127003500D01*
X130323900Y-154520900D02*
X130323900Y-149380900D01*
X130323900Y-149380900D02*
X127663900Y-149380900D01*
X127663900Y-149380900D02*
X127663900Y-154520900D01*
X127663900Y-154520900D02*
X130323900Y-154520900D01*
X130323900Y-155790900D02*
X130323900Y-157120900D01*
X130323900Y-157120900D02*
X128993900Y-157120900D01*
D12*
X109348543Y-128233347D02*
X109396162Y-128280966D01*
X109443781Y-128423823D01*
X109443781Y-128519061D01*
X109396162Y-128661919D01*
X109300924Y-128757157D01*
X109205686Y-128804776D01*
X109015210Y-128852395D01*
X108872352Y-128852395D01*
X108681876Y-128804776D01*
X108586638Y-128757157D01*
X108491400Y-128661919D01*
X108443781Y-128519061D01*
X108443781Y-128423823D01*
X108491400Y-128280966D01*
X108539019Y-128233347D01*
X108443781Y-127376204D02*
X108443781Y-127566681D01*
X108491400Y-127661919D01*
X108539019Y-127709538D01*
X108681876Y-127804776D01*
X108872352Y-127852395D01*
X109253305Y-127852395D01*
X109348543Y-127804776D01*
X109396162Y-127757157D01*
X109443781Y-127661919D01*
X109443781Y-127471442D01*
X109396162Y-127376204D01*
X109348543Y-127328585D01*
X109253305Y-127280966D01*
X109015210Y-127280966D01*
X108919971Y-127328585D01*
X108872352Y-127376204D01*
X108824733Y-127471442D01*
X108824733Y-127661919D01*
X108872352Y-127757157D01*
X108919971Y-127804776D01*
X109015210Y-127852395D01*
X108443781Y-126661919D02*
X108443781Y-126566680D01*
X108491400Y-126471442D01*
X108539019Y-126423823D01*
X108634257Y-126376204D01*
X108824733Y-126328585D01*
X109062829Y-126328585D01*
X109253305Y-126376204D01*
X109348543Y-126423823D01*
X109396162Y-126471442D01*
X109443781Y-126566680D01*
X109443781Y-126661919D01*
X109396162Y-126757157D01*
X109348543Y-126804776D01*
X109253305Y-126852395D01*
X109062829Y-126900014D01*
X108824733Y-126900014D01*
X108634257Y-126852395D01*
X108539019Y-126804776D01*
X108491400Y-126757157D01*
X108443781Y-126661919D01*
X108443781Y-125995252D02*
X108443781Y-125328585D01*
X109443781Y-125757157D01*
X111640881Y-138977547D02*
X111164690Y-139310881D01*
X111640881Y-139548976D02*
X110640881Y-139548976D01*
X110640881Y-139168023D01*
X110688500Y-139072785D01*
X110736119Y-139025166D01*
X110831357Y-138977547D01*
X110974214Y-138977547D01*
X111069452Y-139025166D01*
X111117071Y-139072785D01*
X111164690Y-139168023D01*
X111164690Y-139548976D01*
X110640881Y-138120404D02*
X110640881Y-138310881D01*
X110688500Y-138406119D01*
X110736119Y-138453738D01*
X110878976Y-138548976D01*
X111069452Y-138596595D01*
X111450405Y-138596595D01*
X111545643Y-138548976D01*
X111593262Y-138501357D01*
X111640881Y-138406119D01*
X111640881Y-138215642D01*
X111593262Y-138120404D01*
X111545643Y-138072785D01*
X111450405Y-138025166D01*
X111212310Y-138025166D01*
X111117071Y-138072785D01*
X111069452Y-138120404D01*
X111021833Y-138215642D01*
X111021833Y-138406119D01*
X111069452Y-138501357D01*
X111117071Y-138548976D01*
X111212310Y-138596595D01*
X110640881Y-137406119D02*
X110640881Y-137310880D01*
X110688500Y-137215642D01*
X110736119Y-137168023D01*
X110831357Y-137120404D01*
X111021833Y-137072785D01*
X111259929Y-137072785D01*
X111450405Y-137120404D01*
X111545643Y-137168023D01*
X111593262Y-137215642D01*
X111640881Y-137310880D01*
X111640881Y-137406119D01*
X111593262Y-137501357D01*
X111545643Y-137548976D01*
X111450405Y-137596595D01*
X111259929Y-137644214D01*
X111021833Y-137644214D01*
X110831357Y-137596595D01*
X110736119Y-137548976D01*
X110688500Y-137501357D01*
X110640881Y-137406119D01*
X111069452Y-136501357D02*
X111021833Y-136596595D01*
X110974214Y-136644214D01*
X110878976Y-136691833D01*
X110831357Y-136691833D01*
X110736119Y-136644214D01*
X110688500Y-136596595D01*
X110640881Y-136501357D01*
X110640881Y-136310880D01*
X110688500Y-136215642D01*
X110736119Y-136168023D01*
X110831357Y-136120404D01*
X110878976Y-136120404D01*
X110974214Y-136168023D01*
X111021833Y-136215642D01*
X111069452Y-136310880D01*
X111069452Y-136501357D01*
X111117071Y-136596595D01*
X111164690Y-136644214D01*
X111259929Y-136691833D01*
X111450405Y-136691833D01*
X111545643Y-136644214D01*
X111593262Y-136596595D01*
X111640881Y-136501357D01*
X111640881Y-136310880D01*
X111593262Y-136215642D01*
X111545643Y-136168023D01*
X111450405Y-136120404D01*
X111259929Y-136120404D01*
X111164690Y-136168023D01*
X111117071Y-136215642D01*
X111069452Y-136310880D01*
X126007953Y-121527843D02*
X125960334Y-121575462D01*
X125817477Y-121623081D01*
X125722239Y-121623081D01*
X125579381Y-121575462D01*
X125484143Y-121480224D01*
X125436524Y-121384986D01*
X125388905Y-121194510D01*
X125388905Y-121051652D01*
X125436524Y-120861176D01*
X125484143Y-120765938D01*
X125579381Y-120670700D01*
X125722239Y-120623081D01*
X125817477Y-120623081D01*
X125960334Y-120670700D01*
X126007953Y-120718319D01*
X126388905Y-120718319D02*
X126436524Y-120670700D01*
X126531762Y-120623081D01*
X126769858Y-120623081D01*
X126865096Y-120670700D01*
X126912715Y-120718319D01*
X126960334Y-120813557D01*
X126960334Y-120908795D01*
X126912715Y-121051652D01*
X126341286Y-121623081D01*
X126960334Y-121623081D01*
X127579381Y-120623081D02*
X127674620Y-120623081D01*
X127769858Y-120670700D01*
X127817477Y-120718319D01*
X127865096Y-120813557D01*
X127912715Y-121004033D01*
X127912715Y-121242129D01*
X127865096Y-121432605D01*
X127817477Y-121527843D01*
X127769858Y-121575462D01*
X127674620Y-121623081D01*
X127579381Y-121623081D01*
X127484143Y-121575462D01*
X127436524Y-121527843D01*
X127388905Y-121432605D01*
X127341286Y-121242129D01*
X127341286Y-121004033D01*
X127388905Y-120813557D01*
X127436524Y-120718319D01*
X127484143Y-120670700D01*
X127579381Y-120623081D01*
X128865096Y-121623081D02*
X128293667Y-121623081D01*
X128579381Y-121623081D02*
X128579381Y-120623081D01*
X128484143Y-120765938D01*
X128388905Y-120861176D01*
X128293667Y-120908795D01*
X123467953Y-118390943D02*
X123420334Y-118438562D01*
X123277477Y-118486181D01*
X123182239Y-118486181D01*
X123039381Y-118438562D01*
X122944143Y-118343324D01*
X122896524Y-118248086D01*
X122848905Y-118057610D01*
X122848905Y-117914752D01*
X122896524Y-117724276D01*
X122944143Y-117629038D01*
X123039381Y-117533800D01*
X123182239Y-117486181D01*
X123277477Y-117486181D01*
X123420334Y-117533800D01*
X123467953Y-117581419D01*
X123848905Y-117581419D02*
X123896524Y-117533800D01*
X123991762Y-117486181D01*
X124229858Y-117486181D01*
X124325096Y-117533800D01*
X124372715Y-117581419D01*
X124420334Y-117676657D01*
X124420334Y-117771895D01*
X124372715Y-117914752D01*
X123801286Y-118486181D01*
X124420334Y-118486181D01*
X125039381Y-117486181D02*
X125134620Y-117486181D01*
X125229858Y-117533800D01*
X125277477Y-117581419D01*
X125325096Y-117676657D01*
X125372715Y-117867133D01*
X125372715Y-118105229D01*
X125325096Y-118295705D01*
X125277477Y-118390943D01*
X125229858Y-118438562D01*
X125134620Y-118486181D01*
X125039381Y-118486181D01*
X124944143Y-118438562D01*
X124896524Y-118390943D01*
X124848905Y-118295705D01*
X124801286Y-118105229D01*
X124801286Y-117867133D01*
X124848905Y-117676657D01*
X124896524Y-117581419D01*
X124944143Y-117533800D01*
X125039381Y-117486181D01*
X125753667Y-117581419D02*
X125801286Y-117533800D01*
X125896524Y-117486181D01*
X126134620Y-117486181D01*
X126229858Y-117533800D01*
X126277477Y-117581419D01*
X126325096Y-117676657D01*
X126325096Y-117771895D01*
X126277477Y-117914752D01*
X125706048Y-118486181D01*
X126325096Y-118486181D01*
X116178153Y-127357143D02*
X116130534Y-127404762D01*
X115987677Y-127452381D01*
X115892439Y-127452381D01*
X115749581Y-127404762D01*
X115654343Y-127309524D01*
X115606724Y-127214286D01*
X115559105Y-127023810D01*
X115559105Y-126880952D01*
X115606724Y-126690476D01*
X115654343Y-126595238D01*
X115749581Y-126500000D01*
X115892439Y-126452381D01*
X115987677Y-126452381D01*
X116130534Y-126500000D01*
X116178153Y-126547619D01*
X116559105Y-126547619D02*
X116606724Y-126500000D01*
X116701962Y-126452381D01*
X116940058Y-126452381D01*
X117035296Y-126500000D01*
X117082915Y-126547619D01*
X117130534Y-126642857D01*
X117130534Y-126738095D01*
X117082915Y-126880952D01*
X116511486Y-127452381D01*
X117130534Y-127452381D01*
X117749581Y-126452381D02*
X117844820Y-126452381D01*
X117940058Y-126500000D01*
X117987677Y-126547619D01*
X118035296Y-126642857D01*
X118082915Y-126833333D01*
X118082915Y-127071429D01*
X118035296Y-127261905D01*
X117987677Y-127357143D01*
X117940058Y-127404762D01*
X117844820Y-127452381D01*
X117749581Y-127452381D01*
X117654343Y-127404762D01*
X117606724Y-127357143D01*
X117559105Y-127261905D01*
X117511486Y-127071429D01*
X117511486Y-126833333D01*
X117559105Y-126642857D01*
X117606724Y-126547619D01*
X117654343Y-126500000D01*
X117749581Y-126452381D01*
X118416248Y-126452381D02*
X119035296Y-126452381D01*
X118701962Y-126833333D01*
X118844820Y-126833333D01*
X118940058Y-126880952D01*
X118987677Y-126928571D01*
X119035296Y-127023810D01*
X119035296Y-127261905D01*
X118987677Y-127357143D01*
X118940058Y-127404762D01*
X118844820Y-127452381D01*
X118559105Y-127452381D01*
X118463867Y-127404762D01*
X118416248Y-127357143D01*
X121235743Y-106313147D02*
X121283362Y-106360766D01*
X121330981Y-106503623D01*
X121330981Y-106598861D01*
X121283362Y-106741719D01*
X121188124Y-106836957D01*
X121092886Y-106884576D01*
X120902410Y-106932195D01*
X120759552Y-106932195D01*
X120569076Y-106884576D01*
X120473838Y-106836957D01*
X120378600Y-106741719D01*
X120330981Y-106598861D01*
X120330981Y-106503623D01*
X120378600Y-106360766D01*
X120426219Y-106313147D01*
X120426219Y-105932195D02*
X120378600Y-105884576D01*
X120330981Y-105789338D01*
X120330981Y-105551242D01*
X120378600Y-105456004D01*
X120426219Y-105408385D01*
X120521457Y-105360766D01*
X120616695Y-105360766D01*
X120759552Y-105408385D01*
X121330981Y-105979814D01*
X121330981Y-105360766D01*
X120330981Y-104741719D02*
X120330981Y-104646480D01*
X120378600Y-104551242D01*
X120426219Y-104503623D01*
X120521457Y-104456004D01*
X120711933Y-104408385D01*
X120950029Y-104408385D01*
X121140505Y-104456004D01*
X121235743Y-104503623D01*
X121283362Y-104551242D01*
X121330981Y-104646480D01*
X121330981Y-104741719D01*
X121283362Y-104836957D01*
X121235743Y-104884576D01*
X121140505Y-104932195D01*
X120950029Y-104979814D01*
X120711933Y-104979814D01*
X120521457Y-104932195D01*
X120426219Y-104884576D01*
X120378600Y-104836957D01*
X120330981Y-104741719D01*
X120664314Y-103551242D02*
X121330981Y-103551242D01*
X120283362Y-103789338D02*
X120997648Y-104027433D01*
X120997648Y-103408385D01*
X122696243Y-105805147D02*
X122743862Y-105852766D01*
X122791481Y-105995623D01*
X122791481Y-106090861D01*
X122743862Y-106233719D01*
X122648624Y-106328957D01*
X122553386Y-106376576D01*
X122362910Y-106424195D01*
X122220052Y-106424195D01*
X122029576Y-106376576D01*
X121934338Y-106328957D01*
X121839100Y-106233719D01*
X121791481Y-106090861D01*
X121791481Y-105995623D01*
X121839100Y-105852766D01*
X121886719Y-105805147D01*
X121886719Y-105424195D02*
X121839100Y-105376576D01*
X121791481Y-105281338D01*
X121791481Y-105043242D01*
X121839100Y-104948004D01*
X121886719Y-104900385D01*
X121981957Y-104852766D01*
X122077195Y-104852766D01*
X122220052Y-104900385D01*
X122791481Y-105471814D01*
X122791481Y-104852766D01*
X121791481Y-104233719D02*
X121791481Y-104138480D01*
X121839100Y-104043242D01*
X121886719Y-103995623D01*
X121981957Y-103948004D01*
X122172433Y-103900385D01*
X122410529Y-103900385D01*
X122601005Y-103948004D01*
X122696243Y-103995623D01*
X122743862Y-104043242D01*
X122791481Y-104138480D01*
X122791481Y-104233719D01*
X122743862Y-104328957D01*
X122696243Y-104376576D01*
X122601005Y-104424195D01*
X122410529Y-104471814D01*
X122172433Y-104471814D01*
X121981957Y-104424195D01*
X121886719Y-104376576D01*
X121839100Y-104328957D01*
X121791481Y-104233719D01*
X121791481Y-102995623D02*
X121791481Y-103471814D01*
X122267671Y-103519433D01*
X122220052Y-103471814D01*
X122172433Y-103376576D01*
X122172433Y-103138480D01*
X122220052Y-103043242D01*
X122267671Y-102995623D01*
X122362910Y-102948004D01*
X122601005Y-102948004D01*
X122696243Y-102995623D01*
X122743862Y-103043242D01*
X122791481Y-103138480D01*
X122791481Y-103376576D01*
X122743862Y-103471814D01*
X122696243Y-103519433D01*
X111367843Y-106351247D02*
X111415462Y-106398866D01*
X111463081Y-106541723D01*
X111463081Y-106636961D01*
X111415462Y-106779819D01*
X111320224Y-106875057D01*
X111224986Y-106922676D01*
X111034510Y-106970295D01*
X110891652Y-106970295D01*
X110701176Y-106922676D01*
X110605938Y-106875057D01*
X110510700Y-106779819D01*
X110463081Y-106636961D01*
X110463081Y-106541723D01*
X110510700Y-106398866D01*
X110558319Y-106351247D01*
X110558319Y-105970295D02*
X110510700Y-105922676D01*
X110463081Y-105827438D01*
X110463081Y-105589342D01*
X110510700Y-105494104D01*
X110558319Y-105446485D01*
X110653557Y-105398866D01*
X110748795Y-105398866D01*
X110891652Y-105446485D01*
X111463081Y-106017914D01*
X111463081Y-105398866D01*
X110463081Y-104779819D02*
X110463081Y-104684580D01*
X110510700Y-104589342D01*
X110558319Y-104541723D01*
X110653557Y-104494104D01*
X110844033Y-104446485D01*
X111082129Y-104446485D01*
X111272605Y-104494104D01*
X111367843Y-104541723D01*
X111415462Y-104589342D01*
X111463081Y-104684580D01*
X111463081Y-104779819D01*
X111415462Y-104875057D01*
X111367843Y-104922676D01*
X111272605Y-104970295D01*
X111082129Y-105017914D01*
X110844033Y-105017914D01*
X110653557Y-104970295D01*
X110558319Y-104922676D01*
X110510700Y-104875057D01*
X110463081Y-104779819D01*
X110463081Y-103589342D02*
X110463081Y-103779819D01*
X110510700Y-103875057D01*
X110558319Y-103922676D01*
X110701176Y-104017914D01*
X110891652Y-104065533D01*
X111272605Y-104065533D01*
X111367843Y-104017914D01*
X111415462Y-103970295D01*
X111463081Y-103875057D01*
X111463081Y-103684580D01*
X111415462Y-103589342D01*
X111367843Y-103541723D01*
X111272605Y-103494104D01*
X111034510Y-103494104D01*
X110939271Y-103541723D01*
X110891652Y-103589342D01*
X110844033Y-103684580D01*
X110844033Y-103875057D01*
X110891652Y-103970295D01*
X110939271Y-104017914D01*
X111034510Y-104065533D01*
X110047043Y-105881347D02*
X110094662Y-105928966D01*
X110142281Y-106071823D01*
X110142281Y-106167061D01*
X110094662Y-106309919D01*
X109999424Y-106405157D01*
X109904186Y-106452776D01*
X109713710Y-106500395D01*
X109570852Y-106500395D01*
X109380376Y-106452776D01*
X109285138Y-106405157D01*
X109189900Y-106309919D01*
X109142281Y-106167061D01*
X109142281Y-106071823D01*
X109189900Y-105928966D01*
X109237519Y-105881347D01*
X109237519Y-105500395D02*
X109189900Y-105452776D01*
X109142281Y-105357538D01*
X109142281Y-105119442D01*
X109189900Y-105024204D01*
X109237519Y-104976585D01*
X109332757Y-104928966D01*
X109427995Y-104928966D01*
X109570852Y-104976585D01*
X110142281Y-105548014D01*
X110142281Y-104928966D01*
X109142281Y-104309919D02*
X109142281Y-104214680D01*
X109189900Y-104119442D01*
X109237519Y-104071823D01*
X109332757Y-104024204D01*
X109523233Y-103976585D01*
X109761329Y-103976585D01*
X109951805Y-104024204D01*
X110047043Y-104071823D01*
X110094662Y-104119442D01*
X110142281Y-104214680D01*
X110142281Y-104309919D01*
X110094662Y-104405157D01*
X110047043Y-104452776D01*
X109951805Y-104500395D01*
X109761329Y-104548014D01*
X109523233Y-104548014D01*
X109332757Y-104500395D01*
X109237519Y-104452776D01*
X109189900Y-104405157D01*
X109142281Y-104309919D01*
X109142281Y-103643252D02*
X109142281Y-102976585D01*
X110142281Y-103405157D01*
X110880953Y-118657143D02*
X110833334Y-118704762D01*
X110690477Y-118752381D01*
X110595239Y-118752381D01*
X110452381Y-118704762D01*
X110357143Y-118609524D01*
X110309524Y-118514286D01*
X110261905Y-118323810D01*
X110261905Y-118180952D01*
X110309524Y-117990476D01*
X110357143Y-117895238D01*
X110452381Y-117800000D01*
X110595239Y-117752381D01*
X110690477Y-117752381D01*
X110833334Y-117800000D01*
X110880953Y-117847619D01*
X111261905Y-117847619D02*
X111309524Y-117800000D01*
X111404762Y-117752381D01*
X111642858Y-117752381D01*
X111738096Y-117800000D01*
X111785715Y-117847619D01*
X111833334Y-117942857D01*
X111833334Y-118038095D01*
X111785715Y-118180952D01*
X111214286Y-118752381D01*
X111833334Y-118752381D01*
X112452381Y-117752381D02*
X112547620Y-117752381D01*
X112642858Y-117800000D01*
X112690477Y-117847619D01*
X112738096Y-117942857D01*
X112785715Y-118133333D01*
X112785715Y-118371429D01*
X112738096Y-118561905D01*
X112690477Y-118657143D01*
X112642858Y-118704762D01*
X112547620Y-118752381D01*
X112452381Y-118752381D01*
X112357143Y-118704762D01*
X112309524Y-118657143D01*
X112261905Y-118561905D01*
X112214286Y-118371429D01*
X112214286Y-118133333D01*
X112261905Y-117942857D01*
X112309524Y-117847619D01*
X112357143Y-117800000D01*
X112452381Y-117752381D01*
X113357143Y-118180952D02*
X113261905Y-118133333D01*
X113214286Y-118085714D01*
X113166667Y-117990476D01*
X113166667Y-117942857D01*
X113214286Y-117847619D01*
X113261905Y-117800000D01*
X113357143Y-117752381D01*
X113547620Y-117752381D01*
X113642858Y-117800000D01*
X113690477Y-117847619D01*
X113738096Y-117942857D01*
X113738096Y-117990476D01*
X113690477Y-118085714D01*
X113642858Y-118133333D01*
X113547620Y-118180952D01*
X113357143Y-118180952D01*
X113261905Y-118228571D01*
X113214286Y-118276190D01*
X113166667Y-118371429D01*
X113166667Y-118561905D01*
X113214286Y-118657143D01*
X113261905Y-118704762D01*
X113357143Y-118752381D01*
X113547620Y-118752381D01*
X113642858Y-118704762D01*
X113690477Y-118657143D01*
X113738096Y-118561905D01*
X113738096Y-118371429D01*
X113690477Y-118276190D01*
X113642858Y-118228571D01*
X113547620Y-118180952D01*
X124344253Y-114072943D02*
X124296634Y-114120562D01*
X124153777Y-114168181D01*
X124058539Y-114168181D01*
X123915681Y-114120562D01*
X123820443Y-114025324D01*
X123772824Y-113930086D01*
X123725205Y-113739610D01*
X123725205Y-113596752D01*
X123772824Y-113406276D01*
X123820443Y-113311038D01*
X123915681Y-113215800D01*
X124058539Y-113168181D01*
X124153777Y-113168181D01*
X124296634Y-113215800D01*
X124344253Y-113263419D01*
X124725205Y-113263419D02*
X124772824Y-113215800D01*
X124868062Y-113168181D01*
X125106158Y-113168181D01*
X125201396Y-113215800D01*
X125249015Y-113263419D01*
X125296634Y-113358657D01*
X125296634Y-113453895D01*
X125249015Y-113596752D01*
X124677586Y-114168181D01*
X125296634Y-114168181D01*
X125915681Y-113168181D02*
X126010920Y-113168181D01*
X126106158Y-113215800D01*
X126153777Y-113263419D01*
X126201396Y-113358657D01*
X126249015Y-113549133D01*
X126249015Y-113787229D01*
X126201396Y-113977705D01*
X126153777Y-114072943D01*
X126106158Y-114120562D01*
X126010920Y-114168181D01*
X125915681Y-114168181D01*
X125820443Y-114120562D01*
X125772824Y-114072943D01*
X125725205Y-113977705D01*
X125677586Y-113787229D01*
X125677586Y-113549133D01*
X125725205Y-113358657D01*
X125772824Y-113263419D01*
X125820443Y-113215800D01*
X125915681Y-113168181D01*
X126725205Y-114168181D02*
X126915681Y-114168181D01*
X127010920Y-114120562D01*
X127058539Y-114072943D01*
X127153777Y-113930086D01*
X127201396Y-113739610D01*
X127201396Y-113358657D01*
X127153777Y-113263419D01*
X127106158Y-113215800D01*
X127010920Y-113168181D01*
X126820443Y-113168181D01*
X126725205Y-113215800D01*
X126677586Y-113263419D01*
X126629967Y-113358657D01*
X126629967Y-113596752D01*
X126677586Y-113691990D01*
X126725205Y-113739610D01*
X126820443Y-113787229D01*
X127010920Y-113787229D01*
X127106158Y-113739610D01*
X127153777Y-113691990D01*
X127201396Y-113596752D01*
X105680953Y-124657143D02*
X105633334Y-124704762D01*
X105490477Y-124752381D01*
X105395239Y-124752381D01*
X105252381Y-124704762D01*
X105157143Y-124609524D01*
X105109524Y-124514286D01*
X105061905Y-124323810D01*
X105061905Y-124180952D01*
X105109524Y-123990476D01*
X105157143Y-123895238D01*
X105252381Y-123800000D01*
X105395239Y-123752381D01*
X105490477Y-123752381D01*
X105633334Y-123800000D01*
X105680953Y-123847619D01*
X106061905Y-123847619D02*
X106109524Y-123800000D01*
X106204762Y-123752381D01*
X106442858Y-123752381D01*
X106538096Y-123800000D01*
X106585715Y-123847619D01*
X106633334Y-123942857D01*
X106633334Y-124038095D01*
X106585715Y-124180952D01*
X106014286Y-124752381D01*
X106633334Y-124752381D01*
X107585715Y-124752381D02*
X107014286Y-124752381D01*
X107300000Y-124752381D02*
X107300000Y-123752381D01*
X107204762Y-123895238D01*
X107109524Y-123990476D01*
X107014286Y-124038095D01*
X108204762Y-123752381D02*
X108300001Y-123752381D01*
X108395239Y-123800000D01*
X108442858Y-123847619D01*
X108490477Y-123942857D01*
X108538096Y-124133333D01*
X108538096Y-124371429D01*
X108490477Y-124561905D01*
X108442858Y-124657143D01*
X108395239Y-124704762D01*
X108300001Y-124752381D01*
X108204762Y-124752381D01*
X108109524Y-124704762D01*
X108061905Y-124657143D01*
X108014286Y-124561905D01*
X107966667Y-124371429D01*
X107966667Y-124133333D01*
X108014286Y-123942857D01*
X108061905Y-123847619D01*
X108109524Y-123800000D01*
X108204762Y-123752381D01*
X105630953Y-121907143D02*
X105583334Y-121954762D01*
X105440477Y-122002381D01*
X105345239Y-122002381D01*
X105202381Y-121954762D01*
X105107143Y-121859524D01*
X105059524Y-121764286D01*
X105011905Y-121573810D01*
X105011905Y-121430952D01*
X105059524Y-121240476D01*
X105107143Y-121145238D01*
X105202381Y-121050000D01*
X105345239Y-121002381D01*
X105440477Y-121002381D01*
X105583334Y-121050000D01*
X105630953Y-121097619D01*
X106011905Y-121097619D02*
X106059524Y-121050000D01*
X106154762Y-121002381D01*
X106392858Y-121002381D01*
X106488096Y-121050000D01*
X106535715Y-121097619D01*
X106583334Y-121192857D01*
X106583334Y-121288095D01*
X106535715Y-121430952D01*
X105964286Y-122002381D01*
X106583334Y-122002381D01*
X107535715Y-122002381D02*
X106964286Y-122002381D01*
X107250000Y-122002381D02*
X107250000Y-121002381D01*
X107154762Y-121145238D01*
X107059524Y-121240476D01*
X106964286Y-121288095D01*
X108488096Y-122002381D02*
X107916667Y-122002381D01*
X108202381Y-122002381D02*
X108202381Y-121002381D01*
X108107143Y-121145238D01*
X108011905Y-121240476D01*
X107916667Y-121288095D01*
X117628943Y-120372047D02*
X117676562Y-120419666D01*
X117724181Y-120562523D01*
X117724181Y-120657761D01*
X117676562Y-120800619D01*
X117581324Y-120895857D01*
X117486086Y-120943476D01*
X117295610Y-120991095D01*
X117152752Y-120991095D01*
X116962276Y-120943476D01*
X116867038Y-120895857D01*
X116771800Y-120800619D01*
X116724181Y-120657761D01*
X116724181Y-120562523D01*
X116771800Y-120419666D01*
X116819419Y-120372047D01*
X116819419Y-119991095D02*
X116771800Y-119943476D01*
X116724181Y-119848238D01*
X116724181Y-119610142D01*
X116771800Y-119514904D01*
X116819419Y-119467285D01*
X116914657Y-119419666D01*
X117009895Y-119419666D01*
X117152752Y-119467285D01*
X117724181Y-120038714D01*
X117724181Y-119419666D01*
X117724181Y-118467285D02*
X117724181Y-119038714D01*
X117724181Y-118753000D02*
X116724181Y-118753000D01*
X116867038Y-118848238D01*
X116962276Y-118943476D01*
X117009895Y-119038714D01*
X116819419Y-118086333D02*
X116771800Y-118038714D01*
X116724181Y-117943476D01*
X116724181Y-117705380D01*
X116771800Y-117610142D01*
X116819419Y-117562523D01*
X116914657Y-117514904D01*
X117009895Y-117514904D01*
X117152752Y-117562523D01*
X117724181Y-118133952D01*
X117724181Y-117514904D01*
X116346243Y-120448247D02*
X116393862Y-120495866D01*
X116441481Y-120638723D01*
X116441481Y-120733961D01*
X116393862Y-120876819D01*
X116298624Y-120972057D01*
X116203386Y-121019676D01*
X116012910Y-121067295D01*
X115870052Y-121067295D01*
X115679576Y-121019676D01*
X115584338Y-120972057D01*
X115489100Y-120876819D01*
X115441481Y-120733961D01*
X115441481Y-120638723D01*
X115489100Y-120495866D01*
X115536719Y-120448247D01*
X115536719Y-120067295D02*
X115489100Y-120019676D01*
X115441481Y-119924438D01*
X115441481Y-119686342D01*
X115489100Y-119591104D01*
X115536719Y-119543485D01*
X115631957Y-119495866D01*
X115727195Y-119495866D01*
X115870052Y-119543485D01*
X116441481Y-120114914D01*
X116441481Y-119495866D01*
X116441481Y-118543485D02*
X116441481Y-119114914D01*
X116441481Y-118829200D02*
X115441481Y-118829200D01*
X115584338Y-118924438D01*
X115679576Y-119019676D01*
X115727195Y-119114914D01*
X115441481Y-118210152D02*
X115441481Y-117591104D01*
X115822433Y-117924438D01*
X115822433Y-117781580D01*
X115870052Y-117686342D01*
X115917671Y-117638723D01*
X116012910Y-117591104D01*
X116251005Y-117591104D01*
X116346243Y-117638723D01*
X116393862Y-117686342D01*
X116441481Y-117781580D01*
X116441481Y-118067295D01*
X116393862Y-118162533D01*
X116346243Y-118210152D01*
X126476876Y-110675154D02*
X126409533Y-110675154D01*
X126274846Y-110607810D01*
X126207502Y-110540467D01*
X126140158Y-110405779D01*
X126140158Y-110271092D01*
X126173830Y-110170077D01*
X126274845Y-110001718D01*
X126375861Y-109900703D01*
X126544219Y-109799687D01*
X126645235Y-109766016D01*
X126779922Y-109766016D01*
X126914609Y-109833360D01*
X126981953Y-109900703D01*
X127049296Y-110035390D01*
X127049296Y-110102734D01*
X127352341Y-110271092D02*
X127790074Y-110708825D01*
X127284998Y-110742496D01*
X127386014Y-110843512D01*
X127419686Y-110944527D01*
X127419686Y-111011871D01*
X127386013Y-111112887D01*
X127217655Y-111281245D01*
X127116639Y-111314917D01*
X127049296Y-111314917D01*
X126948281Y-111281245D01*
X126746250Y-111079214D01*
X126712578Y-110978199D01*
X126712578Y-110910856D01*
X128227807Y-111146558D02*
X128295151Y-111213902D01*
X128328823Y-111314917D01*
X128328823Y-111382260D01*
X128295151Y-111483275D01*
X128194136Y-111651634D01*
X128025776Y-111819993D01*
X127857418Y-111921008D01*
X127756403Y-111954680D01*
X127689059Y-111954680D01*
X127588044Y-111921008D01*
X127520700Y-111853664D01*
X127487028Y-111752649D01*
X127487028Y-111685306D01*
X127520700Y-111584291D01*
X127621715Y-111415932D01*
X127790074Y-111247573D01*
X127958433Y-111146558D01*
X128059448Y-111112886D01*
X128126792Y-111112886D01*
X128227807Y-111146558D01*
X128429838Y-112762802D02*
X128025776Y-112358741D01*
X128227807Y-112560771D02*
X128934914Y-111853664D01*
X128766555Y-111887336D01*
X128631868Y-111887336D01*
X128530853Y-111853664D01*
X130172576Y-109113053D02*
X130105233Y-109113053D01*
X129970546Y-109045709D01*
X129903202Y-108978366D01*
X129835858Y-108843678D01*
X129835858Y-108708991D01*
X129869530Y-108607976D01*
X129970545Y-108439617D01*
X130071561Y-108338602D01*
X130239919Y-108237586D01*
X130340935Y-108203915D01*
X130475622Y-108203915D01*
X130610309Y-108271259D01*
X130677653Y-108338602D01*
X130744996Y-108473289D01*
X130744996Y-108540633D01*
X131048041Y-108708991D02*
X131485774Y-109146724D01*
X130980698Y-109180395D01*
X131081714Y-109281411D01*
X131115386Y-109382426D01*
X131115386Y-109449770D01*
X131081713Y-109550786D01*
X130913355Y-109719144D01*
X130812339Y-109752816D01*
X130744996Y-109752816D01*
X130643981Y-109719144D01*
X130441950Y-109517113D01*
X130408278Y-109416098D01*
X130408278Y-109348755D01*
X131923507Y-109584457D02*
X131990851Y-109651801D01*
X132024523Y-109752816D01*
X132024523Y-109820159D01*
X131990851Y-109921174D01*
X131889836Y-110089533D01*
X131721476Y-110257892D01*
X131553118Y-110358907D01*
X131452103Y-110392579D01*
X131384759Y-110392579D01*
X131283744Y-110358907D01*
X131216400Y-110291563D01*
X131182728Y-110190548D01*
X131182728Y-110123205D01*
X131216400Y-110022190D01*
X131317415Y-109853831D01*
X131485774Y-109685472D01*
X131654133Y-109584457D01*
X131755148Y-109550785D01*
X131822492Y-109550785D01*
X131923507Y-109584457D01*
X132361240Y-110156876D02*
X132428583Y-110156876D01*
X132529598Y-110190548D01*
X132697958Y-110358907D01*
X132731629Y-110459923D01*
X132731629Y-110527266D01*
X132697958Y-110628281D01*
X132630614Y-110695625D01*
X132495927Y-110762968D01*
X131687805Y-110762968D01*
X132125538Y-111200701D01*
X137624553Y-109197024D02*
X137624553Y-109264367D01*
X137557209Y-109399054D01*
X137489866Y-109466398D01*
X137355178Y-109533742D01*
X137220491Y-109533742D01*
X137119476Y-109500070D01*
X136951117Y-109399055D01*
X136850102Y-109298039D01*
X136749086Y-109129681D01*
X136715415Y-109028665D01*
X136715415Y-108893978D01*
X136782759Y-108759291D01*
X136850102Y-108691947D01*
X136984789Y-108624604D01*
X137052133Y-108624604D01*
X137220491Y-108321559D02*
X137658224Y-107883826D01*
X137691895Y-108388902D01*
X137792911Y-108287886D01*
X137893926Y-108254214D01*
X137961270Y-108254214D01*
X138062286Y-108287887D01*
X138230644Y-108456245D01*
X138264316Y-108557261D01*
X138264316Y-108624604D01*
X138230644Y-108725619D01*
X138028613Y-108927650D01*
X137927598Y-108961322D01*
X137860255Y-108961322D01*
X138095957Y-107446093D02*
X138163301Y-107378749D01*
X138264316Y-107345077D01*
X138331659Y-107345077D01*
X138432674Y-107378749D01*
X138601033Y-107479764D01*
X138769392Y-107648124D01*
X138870407Y-107816482D01*
X138904079Y-107917497D01*
X138904079Y-107984841D01*
X138870407Y-108085856D01*
X138803063Y-108153200D01*
X138702048Y-108186872D01*
X138634705Y-108186872D01*
X138533690Y-108153200D01*
X138365331Y-108052185D01*
X138196972Y-107883826D01*
X138095957Y-107715467D01*
X138062285Y-107614452D01*
X138062285Y-107547108D01*
X138095957Y-107446093D01*
X138567361Y-106974688D02*
X139005094Y-106536955D01*
X139038765Y-107042032D01*
X139139781Y-106941016D01*
X139240796Y-106907344D01*
X139308140Y-106907344D01*
X139409156Y-106941017D01*
X139577514Y-107109375D01*
X139611186Y-107210390D01*
X139611186Y-107277734D01*
X139577514Y-107378749D01*
X139375483Y-107580780D01*
X139274468Y-107614452D01*
X139207125Y-107614452D01*
X137624553Y-112460924D02*
X137624553Y-112528267D01*
X137557209Y-112662954D01*
X137489866Y-112730298D01*
X137355178Y-112797642D01*
X137220491Y-112797642D01*
X137119476Y-112763970D01*
X136951117Y-112662955D01*
X136850102Y-112561939D01*
X136749086Y-112393581D01*
X136715415Y-112292565D01*
X136715415Y-112157878D01*
X136782759Y-112023191D01*
X136850102Y-111955847D01*
X136984789Y-111888504D01*
X137052133Y-111888504D01*
X137220491Y-111585459D02*
X137658224Y-111147726D01*
X137691895Y-111652802D01*
X137792911Y-111551786D01*
X137893926Y-111518114D01*
X137961270Y-111518114D01*
X138062286Y-111551787D01*
X138230644Y-111720145D01*
X138264316Y-111821161D01*
X138264316Y-111888504D01*
X138230644Y-111989519D01*
X138028613Y-112191550D01*
X137927598Y-112225222D01*
X137860255Y-112225222D01*
X138095957Y-110709993D02*
X138163301Y-110642649D01*
X138264316Y-110608977D01*
X138331659Y-110608977D01*
X138432674Y-110642649D01*
X138601033Y-110743664D01*
X138769392Y-110912024D01*
X138870407Y-111080382D01*
X138904079Y-111181397D01*
X138904079Y-111248741D01*
X138870407Y-111349756D01*
X138803063Y-111417100D01*
X138702048Y-111450772D01*
X138634705Y-111450772D01*
X138533690Y-111417100D01*
X138365331Y-111316085D01*
X138196972Y-111147726D01*
X138095957Y-110979367D01*
X138062285Y-110878352D01*
X138062285Y-110811008D01*
X138095957Y-110709993D01*
X139173453Y-110103901D02*
X139644858Y-110575306D01*
X138735720Y-110002886D02*
X139072438Y-110676322D01*
X139510171Y-110238588D01*
X133004676Y-121940054D02*
X132937333Y-121940054D01*
X132802646Y-121872710D01*
X132735302Y-121805367D01*
X132667958Y-121670679D01*
X132667958Y-121535992D01*
X132701630Y-121434977D01*
X132802645Y-121266618D01*
X132903661Y-121165603D01*
X133072019Y-121064587D01*
X133173035Y-121030916D01*
X133307722Y-121030916D01*
X133442409Y-121098260D01*
X133509753Y-121165603D01*
X133577096Y-121300290D01*
X133577096Y-121367634D01*
X133880141Y-121535992D02*
X134317874Y-121973725D01*
X133812798Y-122007396D01*
X133913814Y-122108412D01*
X133947486Y-122209427D01*
X133947486Y-122276771D01*
X133913813Y-122377787D01*
X133745455Y-122546145D01*
X133644439Y-122579817D01*
X133577096Y-122579817D01*
X133476081Y-122546145D01*
X133274050Y-122344114D01*
X133240378Y-122243099D01*
X133240378Y-122175756D01*
X134755607Y-122411458D02*
X134822951Y-122478802D01*
X134856623Y-122579817D01*
X134856623Y-122647160D01*
X134822951Y-122748175D01*
X134721936Y-122916534D01*
X134553576Y-123084893D01*
X134385218Y-123185908D01*
X134284203Y-123219580D01*
X134216859Y-123219580D01*
X134115844Y-123185908D01*
X134048500Y-123118564D01*
X134014828Y-123017549D01*
X134014828Y-122950206D01*
X134048500Y-122849191D01*
X134149515Y-122680832D01*
X134317874Y-122512473D01*
X134486233Y-122411458D01*
X134587248Y-122377786D01*
X134654592Y-122377786D01*
X134755607Y-122411458D01*
X135631073Y-123286924D02*
X135294355Y-122950206D01*
X134923966Y-123253251D01*
X134991310Y-123253251D01*
X135092325Y-123286923D01*
X135260684Y-123455282D01*
X135294356Y-123556297D01*
X135294356Y-123623641D01*
X135260683Y-123724657D01*
X135092325Y-123893015D01*
X134991310Y-123926687D01*
X134923966Y-123926687D01*
X134822951Y-123893015D01*
X134654592Y-123724656D01*
X134620920Y-123623641D01*
X134620920Y-123556297D01*
X130389453Y-133059443D02*
X130341834Y-133107062D01*
X130198977Y-133154681D01*
X130103739Y-133154681D01*
X129960881Y-133107062D01*
X129865643Y-133011824D01*
X129818024Y-132916586D01*
X129770405Y-132726110D01*
X129770405Y-132583252D01*
X129818024Y-132392776D01*
X129865643Y-132297538D01*
X129960881Y-132202300D01*
X130103739Y-132154681D01*
X130198977Y-132154681D01*
X130341834Y-132202300D01*
X130389453Y-132249919D01*
X131246596Y-132488014D02*
X131246596Y-133154681D01*
X131008500Y-132107062D02*
X130770405Y-132821348D01*
X131389453Y-132821348D01*
X131960881Y-132154681D02*
X132056120Y-132154681D01*
X132151358Y-132202300D01*
X132198977Y-132249919D01*
X132246596Y-132345157D01*
X132294215Y-132535633D01*
X132294215Y-132773729D01*
X132246596Y-132964205D01*
X132198977Y-133059443D01*
X132151358Y-133107062D01*
X132056120Y-133154681D01*
X131960881Y-133154681D01*
X131865643Y-133107062D01*
X131818024Y-133059443D01*
X131770405Y-132964205D01*
X131722786Y-132773729D01*
X131722786Y-132535633D01*
X131770405Y-132345157D01*
X131818024Y-132249919D01*
X131865643Y-132202300D01*
X131960881Y-132154681D01*
X133246596Y-133154681D02*
X132675167Y-133154681D01*
X132960881Y-133154681D02*
X132960881Y-132154681D01*
X132865643Y-132297538D01*
X132770405Y-132392776D01*
X132675167Y-132440395D01*
X120380953Y-147777143D02*
X120333334Y-147824762D01*
X120190477Y-147872381D01*
X120095239Y-147872381D01*
X119952381Y-147824762D01*
X119857143Y-147729524D01*
X119809524Y-147634286D01*
X119761905Y-147443810D01*
X119761905Y-147300952D01*
X119809524Y-147110476D01*
X119857143Y-147015238D01*
X119952381Y-146920000D01*
X120095239Y-146872381D01*
X120190477Y-146872381D01*
X120333334Y-146920000D01*
X120380953Y-146967619D01*
X121238096Y-147205714D02*
X121238096Y-147872381D01*
X121000000Y-146824762D02*
X120761905Y-147539048D01*
X121380953Y-147539048D01*
X121952381Y-146872381D02*
X122047620Y-146872381D01*
X122142858Y-146920000D01*
X122190477Y-146967619D01*
X122238096Y-147062857D01*
X122285715Y-147253333D01*
X122285715Y-147491429D01*
X122238096Y-147681905D01*
X122190477Y-147777143D01*
X122142858Y-147824762D01*
X122047620Y-147872381D01*
X121952381Y-147872381D01*
X121857143Y-147824762D01*
X121809524Y-147777143D01*
X121761905Y-147681905D01*
X121714286Y-147491429D01*
X121714286Y-147253333D01*
X121761905Y-147062857D01*
X121809524Y-146967619D01*
X121857143Y-146920000D01*
X121952381Y-146872381D01*
X122666667Y-146967619D02*
X122714286Y-146920000D01*
X122809524Y-146872381D01*
X123047620Y-146872381D01*
X123142858Y-146920000D01*
X123190477Y-146967619D01*
X123238096Y-147062857D01*
X123238096Y-147158095D01*
X123190477Y-147300952D01*
X122619048Y-147872381D01*
X123238096Y-147872381D01*
X115263753Y-142965443D02*
X115216134Y-143013062D01*
X115073277Y-143060681D01*
X114978039Y-143060681D01*
X114835181Y-143013062D01*
X114739943Y-142917824D01*
X114692324Y-142822586D01*
X114644705Y-142632110D01*
X114644705Y-142489252D01*
X114692324Y-142298776D01*
X114739943Y-142203538D01*
X114835181Y-142108300D01*
X114978039Y-142060681D01*
X115073277Y-142060681D01*
X115216134Y-142108300D01*
X115263753Y-142155919D01*
X116120896Y-142394014D02*
X116120896Y-143060681D01*
X115882800Y-142013062D02*
X115644705Y-142727348D01*
X116263753Y-142727348D01*
X116835181Y-142060681D02*
X116930420Y-142060681D01*
X117025658Y-142108300D01*
X117073277Y-142155919D01*
X117120896Y-142251157D01*
X117168515Y-142441633D01*
X117168515Y-142679729D01*
X117120896Y-142870205D01*
X117073277Y-142965443D01*
X117025658Y-143013062D01*
X116930420Y-143060681D01*
X116835181Y-143060681D01*
X116739943Y-143013062D01*
X116692324Y-142965443D01*
X116644705Y-142870205D01*
X116597086Y-142679729D01*
X116597086Y-142441633D01*
X116644705Y-142251157D01*
X116692324Y-142155919D01*
X116739943Y-142108300D01*
X116835181Y-142060681D01*
X117501848Y-142060681D02*
X118120896Y-142060681D01*
X117787562Y-142441633D01*
X117930420Y-142441633D01*
X118025658Y-142489252D01*
X118073277Y-142536871D01*
X118120896Y-142632110D01*
X118120896Y-142870205D01*
X118073277Y-142965443D01*
X118025658Y-143013062D01*
X117930420Y-143060681D01*
X117644705Y-143060681D01*
X117549467Y-143013062D01*
X117501848Y-142965443D01*
X145845353Y-136996443D02*
X145797734Y-137044062D01*
X145654877Y-137091681D01*
X145559639Y-137091681D01*
X145416781Y-137044062D01*
X145321543Y-136948824D01*
X145273924Y-136853586D01*
X145226305Y-136663110D01*
X145226305Y-136520252D01*
X145273924Y-136329776D01*
X145321543Y-136234538D01*
X145416781Y-136139300D01*
X145559639Y-136091681D01*
X145654877Y-136091681D01*
X145797734Y-136139300D01*
X145845353Y-136186919D01*
X146702496Y-136425014D02*
X146702496Y-137091681D01*
X146464400Y-136044062D02*
X146226305Y-136758348D01*
X146845353Y-136758348D01*
X147416781Y-136091681D02*
X147512020Y-136091681D01*
X147607258Y-136139300D01*
X147654877Y-136186919D01*
X147702496Y-136282157D01*
X147750115Y-136472633D01*
X147750115Y-136710729D01*
X147702496Y-136901205D01*
X147654877Y-136996443D01*
X147607258Y-137044062D01*
X147512020Y-137091681D01*
X147416781Y-137091681D01*
X147321543Y-137044062D01*
X147273924Y-136996443D01*
X147226305Y-136901205D01*
X147178686Y-136710729D01*
X147178686Y-136472633D01*
X147226305Y-136282157D01*
X147273924Y-136186919D01*
X147321543Y-136139300D01*
X147416781Y-136091681D01*
X148607258Y-136425014D02*
X148607258Y-137091681D01*
X148369162Y-136044062D02*
X148131067Y-136758348D01*
X148750115Y-136758348D01*
X120580953Y-141457143D02*
X120533334Y-141504762D01*
X120390477Y-141552381D01*
X120295239Y-141552381D01*
X120152381Y-141504762D01*
X120057143Y-141409524D01*
X120009524Y-141314286D01*
X119961905Y-141123810D01*
X119961905Y-140980952D01*
X120009524Y-140790476D01*
X120057143Y-140695238D01*
X120152381Y-140600000D01*
X120295239Y-140552381D01*
X120390477Y-140552381D01*
X120533334Y-140600000D01*
X120580953Y-140647619D01*
X121438096Y-140885714D02*
X121438096Y-141552381D01*
X121200000Y-140504762D02*
X120961905Y-141219048D01*
X121580953Y-141219048D01*
X122152381Y-140552381D02*
X122247620Y-140552381D01*
X122342858Y-140600000D01*
X122390477Y-140647619D01*
X122438096Y-140742857D01*
X122485715Y-140933333D01*
X122485715Y-141171429D01*
X122438096Y-141361905D01*
X122390477Y-141457143D01*
X122342858Y-141504762D01*
X122247620Y-141552381D01*
X122152381Y-141552381D01*
X122057143Y-141504762D01*
X122009524Y-141457143D01*
X121961905Y-141361905D01*
X121914286Y-141171429D01*
X121914286Y-140933333D01*
X121961905Y-140742857D01*
X122009524Y-140647619D01*
X122057143Y-140600000D01*
X122152381Y-140552381D01*
X123390477Y-140552381D02*
X122914286Y-140552381D01*
X122866667Y-141028571D01*
X122914286Y-140980952D01*
X123009524Y-140933333D01*
X123247620Y-140933333D01*
X123342858Y-140980952D01*
X123390477Y-141028571D01*
X123438096Y-141123810D01*
X123438096Y-141361905D01*
X123390477Y-141457143D01*
X123342858Y-141504762D01*
X123247620Y-141552381D01*
X123009524Y-141552381D01*
X122914286Y-141504762D01*
X122866667Y-141457143D01*
X133503943Y-143892447D02*
X133551562Y-143940066D01*
X133599181Y-144082923D01*
X133599181Y-144178161D01*
X133551562Y-144321019D01*
X133456324Y-144416257D01*
X133361086Y-144463876D01*
X133170610Y-144511495D01*
X133027752Y-144511495D01*
X132837276Y-144463876D01*
X132742038Y-144416257D01*
X132646800Y-144321019D01*
X132599181Y-144178161D01*
X132599181Y-144082923D01*
X132646800Y-143940066D01*
X132694419Y-143892447D01*
X132932514Y-143035304D02*
X133599181Y-143035304D01*
X132551562Y-143273400D02*
X133265848Y-143511495D01*
X133265848Y-142892447D01*
X132599181Y-142321019D02*
X132599181Y-142225780D01*
X132646800Y-142130542D01*
X132694419Y-142082923D01*
X132789657Y-142035304D01*
X132980133Y-141987685D01*
X133218229Y-141987685D01*
X133408705Y-142035304D01*
X133503943Y-142082923D01*
X133551562Y-142130542D01*
X133599181Y-142225780D01*
X133599181Y-142321019D01*
X133551562Y-142416257D01*
X133503943Y-142463876D01*
X133408705Y-142511495D01*
X133218229Y-142559114D01*
X132980133Y-142559114D01*
X132789657Y-142511495D01*
X132694419Y-142463876D01*
X132646800Y-142416257D01*
X132599181Y-142321019D01*
X132599181Y-141130542D02*
X132599181Y-141321019D01*
X132646800Y-141416257D01*
X132694419Y-141463876D01*
X132837276Y-141559114D01*
X133027752Y-141606733D01*
X133408705Y-141606733D01*
X133503943Y-141559114D01*
X133551562Y-141511495D01*
X133599181Y-141416257D01*
X133599181Y-141225780D01*
X133551562Y-141130542D01*
X133503943Y-141082923D01*
X133408705Y-141035304D01*
X133170610Y-141035304D01*
X133075371Y-141082923D01*
X133027752Y-141130542D01*
X132980133Y-141225780D01*
X132980133Y-141416257D01*
X133027752Y-141511495D01*
X133075371Y-141559114D01*
X133170610Y-141606733D01*
X121537553Y-136793243D02*
X121489934Y-136840862D01*
X121347077Y-136888481D01*
X121251839Y-136888481D01*
X121108981Y-136840862D01*
X121013743Y-136745624D01*
X120966124Y-136650386D01*
X120918505Y-136459910D01*
X120918505Y-136317052D01*
X120966124Y-136126576D01*
X121013743Y-136031338D01*
X121108981Y-135936100D01*
X121251839Y-135888481D01*
X121347077Y-135888481D01*
X121489934Y-135936100D01*
X121537553Y-135983719D01*
X122394696Y-136221814D02*
X122394696Y-136888481D01*
X122156600Y-135840862D02*
X121918505Y-136555148D01*
X122537553Y-136555148D01*
X123108981Y-135888481D02*
X123204220Y-135888481D01*
X123299458Y-135936100D01*
X123347077Y-135983719D01*
X123394696Y-136078957D01*
X123442315Y-136269433D01*
X123442315Y-136507529D01*
X123394696Y-136698005D01*
X123347077Y-136793243D01*
X123299458Y-136840862D01*
X123204220Y-136888481D01*
X123108981Y-136888481D01*
X123013743Y-136840862D01*
X122966124Y-136793243D01*
X122918505Y-136698005D01*
X122870886Y-136507529D01*
X122870886Y-136269433D01*
X122918505Y-136078957D01*
X122966124Y-135983719D01*
X123013743Y-135936100D01*
X123108981Y-135888481D01*
X123775648Y-135888481D02*
X124442315Y-135888481D01*
X124013743Y-136888481D01*
X136183643Y-143955947D02*
X136231262Y-144003566D01*
X136278881Y-144146423D01*
X136278881Y-144241661D01*
X136231262Y-144384519D01*
X136136024Y-144479757D01*
X136040786Y-144527376D01*
X135850310Y-144574995D01*
X135707452Y-144574995D01*
X135516976Y-144527376D01*
X135421738Y-144479757D01*
X135326500Y-144384519D01*
X135278881Y-144241661D01*
X135278881Y-144146423D01*
X135326500Y-144003566D01*
X135374119Y-143955947D01*
X135612214Y-143098804D02*
X136278881Y-143098804D01*
X135231262Y-143336900D02*
X135945548Y-143574995D01*
X135945548Y-142955947D01*
X135278881Y-142384519D02*
X135278881Y-142289280D01*
X135326500Y-142194042D01*
X135374119Y-142146423D01*
X135469357Y-142098804D01*
X135659833Y-142051185D01*
X135897929Y-142051185D01*
X136088405Y-142098804D01*
X136183643Y-142146423D01*
X136231262Y-142194042D01*
X136278881Y-142289280D01*
X136278881Y-142384519D01*
X136231262Y-142479757D01*
X136183643Y-142527376D01*
X136088405Y-142574995D01*
X135897929Y-142622614D01*
X135659833Y-142622614D01*
X135469357Y-142574995D01*
X135374119Y-142527376D01*
X135326500Y-142479757D01*
X135278881Y-142384519D01*
X135707452Y-141479757D02*
X135659833Y-141574995D01*
X135612214Y-141622614D01*
X135516976Y-141670233D01*
X135469357Y-141670233D01*
X135374119Y-141622614D01*
X135326500Y-141574995D01*
X135278881Y-141479757D01*
X135278881Y-141289280D01*
X135326500Y-141194042D01*
X135374119Y-141146423D01*
X135469357Y-141098804D01*
X135516976Y-141098804D01*
X135612214Y-141146423D01*
X135659833Y-141194042D01*
X135707452Y-141289280D01*
X135707452Y-141479757D01*
X135755071Y-141574995D01*
X135802690Y-141622614D01*
X135897929Y-141670233D01*
X136088405Y-141670233D01*
X136183643Y-141622614D01*
X136231262Y-141574995D01*
X136278881Y-141479757D01*
X136278881Y-141289280D01*
X136231262Y-141194042D01*
X136183643Y-141146423D01*
X136088405Y-141098804D01*
X135897929Y-141098804D01*
X135802690Y-141146423D01*
X135755071Y-141194042D01*
X135707452Y-141289280D01*
X138441253Y-126137943D02*
X138393634Y-126185562D01*
X138250777Y-126233181D01*
X138155539Y-126233181D01*
X138012681Y-126185562D01*
X137917443Y-126090324D01*
X137869824Y-125995086D01*
X137822205Y-125804610D01*
X137822205Y-125661752D01*
X137869824Y-125471276D01*
X137917443Y-125376038D01*
X138012681Y-125280800D01*
X138155539Y-125233181D01*
X138250777Y-125233181D01*
X138393634Y-125280800D01*
X138441253Y-125328419D01*
X139298396Y-125566514D02*
X139298396Y-126233181D01*
X139060300Y-125185562D02*
X138822205Y-125899848D01*
X139441253Y-125899848D01*
X140012681Y-125233181D02*
X140107920Y-125233181D01*
X140203158Y-125280800D01*
X140250777Y-125328419D01*
X140298396Y-125423657D01*
X140346015Y-125614133D01*
X140346015Y-125852229D01*
X140298396Y-126042705D01*
X140250777Y-126137943D01*
X140203158Y-126185562D01*
X140107920Y-126233181D01*
X140012681Y-126233181D01*
X139917443Y-126185562D01*
X139869824Y-126137943D01*
X139822205Y-126042705D01*
X139774586Y-125852229D01*
X139774586Y-125614133D01*
X139822205Y-125423657D01*
X139869824Y-125328419D01*
X139917443Y-125280800D01*
X140012681Y-125233181D01*
X140822205Y-126233181D02*
X141012681Y-126233181D01*
X141107920Y-126185562D01*
X141155539Y-126137943D01*
X141250777Y-125995086D01*
X141298396Y-125804610D01*
X141298396Y-125423657D01*
X141250777Y-125328419D01*
X141203158Y-125280800D01*
X141107920Y-125233181D01*
X140917443Y-125233181D01*
X140822205Y-125280800D01*
X140774586Y-125328419D01*
X140726967Y-125423657D01*
X140726967Y-125661752D01*
X140774586Y-125756990D01*
X140822205Y-125804610D01*
X140917443Y-125852229D01*
X141107920Y-125852229D01*
X141203158Y-125804610D01*
X141250777Y-125756990D01*
X141298396Y-125661752D01*
X144727753Y-126582443D02*
X144680134Y-126630062D01*
X144537277Y-126677681D01*
X144442039Y-126677681D01*
X144299181Y-126630062D01*
X144203943Y-126534824D01*
X144156324Y-126439586D01*
X144108705Y-126249110D01*
X144108705Y-126106252D01*
X144156324Y-125915776D01*
X144203943Y-125820538D01*
X144299181Y-125725300D01*
X144442039Y-125677681D01*
X144537277Y-125677681D01*
X144680134Y-125725300D01*
X144727753Y-125772919D01*
X145584896Y-126011014D02*
X145584896Y-126677681D01*
X145346800Y-125630062D02*
X145108705Y-126344348D01*
X145727753Y-126344348D01*
X146632515Y-126677681D02*
X146061086Y-126677681D01*
X146346800Y-126677681D02*
X146346800Y-125677681D01*
X146251562Y-125820538D01*
X146156324Y-125915776D01*
X146061086Y-125963395D01*
X147251562Y-125677681D02*
X147346801Y-125677681D01*
X147442039Y-125725300D01*
X147489658Y-125772919D01*
X147537277Y-125868157D01*
X147584896Y-126058633D01*
X147584896Y-126296729D01*
X147537277Y-126487205D01*
X147489658Y-126582443D01*
X147442039Y-126630062D01*
X147346801Y-126677681D01*
X147251562Y-126677681D01*
X147156324Y-126630062D01*
X147108705Y-126582443D01*
X147061086Y-126487205D01*
X147013467Y-126296729D01*
X147013467Y-126058633D01*
X147061086Y-125868157D01*
X147108705Y-125772919D01*
X147156324Y-125725300D01*
X147251562Y-125677681D01*
X147509053Y-138253743D02*
X147461434Y-138301362D01*
X147318577Y-138348981D01*
X147223339Y-138348981D01*
X147080481Y-138301362D01*
X146985243Y-138206124D01*
X146937624Y-138110886D01*
X146890005Y-137920410D01*
X146890005Y-137777552D01*
X146937624Y-137587076D01*
X146985243Y-137491838D01*
X147080481Y-137396600D01*
X147223339Y-137348981D01*
X147318577Y-137348981D01*
X147461434Y-137396600D01*
X147509053Y-137444219D01*
X148366196Y-137682314D02*
X148366196Y-138348981D01*
X148128100Y-137301362D02*
X147890005Y-138015648D01*
X148509053Y-138015648D01*
X149413815Y-138348981D02*
X148842386Y-138348981D01*
X149128100Y-138348981D02*
X149128100Y-137348981D01*
X149032862Y-137491838D01*
X148937624Y-137587076D01*
X148842386Y-137634695D01*
X150366196Y-138348981D02*
X149794767Y-138348981D01*
X150080481Y-138348981D02*
X150080481Y-137348981D01*
X149985243Y-137491838D01*
X149890005Y-137587076D01*
X149794767Y-137634695D01*
X147013753Y-151169643D02*
X146966134Y-151217262D01*
X146823277Y-151264881D01*
X146728039Y-151264881D01*
X146585181Y-151217262D01*
X146489943Y-151122024D01*
X146442324Y-151026786D01*
X146394705Y-150836310D01*
X146394705Y-150693452D01*
X146442324Y-150502976D01*
X146489943Y-150407738D01*
X146585181Y-150312500D01*
X146728039Y-150264881D01*
X146823277Y-150264881D01*
X146966134Y-150312500D01*
X147013753Y-150360119D01*
X147918515Y-150264881D02*
X147442324Y-150264881D01*
X147394705Y-150741071D01*
X147442324Y-150693452D01*
X147537562Y-150645833D01*
X147775658Y-150645833D01*
X147870896Y-150693452D01*
X147918515Y-150741071D01*
X147966134Y-150836310D01*
X147966134Y-151074405D01*
X147918515Y-151169643D01*
X147870896Y-151217262D01*
X147775658Y-151264881D01*
X147537562Y-151264881D01*
X147442324Y-151217262D01*
X147394705Y-151169643D01*
X148585181Y-150264881D02*
X148680420Y-150264881D01*
X148775658Y-150312500D01*
X148823277Y-150360119D01*
X148870896Y-150455357D01*
X148918515Y-150645833D01*
X148918515Y-150883929D01*
X148870896Y-151074405D01*
X148823277Y-151169643D01*
X148775658Y-151217262D01*
X148680420Y-151264881D01*
X148585181Y-151264881D01*
X148489943Y-151217262D01*
X148442324Y-151169643D01*
X148394705Y-151074405D01*
X148347086Y-150883929D01*
X148347086Y-150645833D01*
X148394705Y-150455357D01*
X148442324Y-150360119D01*
X148489943Y-150312500D01*
X148585181Y-150264881D01*
X149870896Y-151264881D02*
X149299467Y-151264881D01*
X149585181Y-151264881D02*
X149585181Y-150264881D01*
X149489943Y-150407738D01*
X149394705Y-150502976D01*
X149299467Y-150550595D01*
X142924353Y-154344643D02*
X142876734Y-154392262D01*
X142733877Y-154439881D01*
X142638639Y-154439881D01*
X142495781Y-154392262D01*
X142400543Y-154297024D01*
X142352924Y-154201786D01*
X142305305Y-154011310D01*
X142305305Y-153868452D01*
X142352924Y-153677976D01*
X142400543Y-153582738D01*
X142495781Y-153487500D01*
X142638639Y-153439881D01*
X142733877Y-153439881D01*
X142876734Y-153487500D01*
X142924353Y-153535119D01*
X143829115Y-153439881D02*
X143352924Y-153439881D01*
X143305305Y-153916071D01*
X143352924Y-153868452D01*
X143448162Y-153820833D01*
X143686258Y-153820833D01*
X143781496Y-153868452D01*
X143829115Y-153916071D01*
X143876734Y-154011310D01*
X143876734Y-154249405D01*
X143829115Y-154344643D01*
X143781496Y-154392262D01*
X143686258Y-154439881D01*
X143448162Y-154439881D01*
X143352924Y-154392262D01*
X143305305Y-154344643D01*
X144495781Y-153439881D02*
X144591020Y-153439881D01*
X144686258Y-153487500D01*
X144733877Y-153535119D01*
X144781496Y-153630357D01*
X144829115Y-153820833D01*
X144829115Y-154058929D01*
X144781496Y-154249405D01*
X144733877Y-154344643D01*
X144686258Y-154392262D01*
X144591020Y-154439881D01*
X144495781Y-154439881D01*
X144400543Y-154392262D01*
X144352924Y-154344643D01*
X144305305Y-154249405D01*
X144257686Y-154058929D01*
X144257686Y-153820833D01*
X144305305Y-153630357D01*
X144352924Y-153535119D01*
X144400543Y-153487500D01*
X144495781Y-153439881D01*
X145210067Y-153535119D02*
X145257686Y-153487500D01*
X145352924Y-153439881D01*
X145591020Y-153439881D01*
X145686258Y-153487500D01*
X145733877Y-153535119D01*
X145781496Y-153630357D01*
X145781496Y-153725595D01*
X145733877Y-153868452D01*
X145162448Y-154439881D01*
X145781496Y-154439881D01*
X147013753Y-148147043D02*
X146966134Y-148194662D01*
X146823277Y-148242281D01*
X146728039Y-148242281D01*
X146585181Y-148194662D01*
X146489943Y-148099424D01*
X146442324Y-148004186D01*
X146394705Y-147813710D01*
X146394705Y-147670852D01*
X146442324Y-147480376D01*
X146489943Y-147385138D01*
X146585181Y-147289900D01*
X146728039Y-147242281D01*
X146823277Y-147242281D01*
X146966134Y-147289900D01*
X147013753Y-147337519D01*
X147918515Y-147242281D02*
X147442324Y-147242281D01*
X147394705Y-147718471D01*
X147442324Y-147670852D01*
X147537562Y-147623233D01*
X147775658Y-147623233D01*
X147870896Y-147670852D01*
X147918515Y-147718471D01*
X147966134Y-147813710D01*
X147966134Y-148051805D01*
X147918515Y-148147043D01*
X147870896Y-148194662D01*
X147775658Y-148242281D01*
X147537562Y-148242281D01*
X147442324Y-148194662D01*
X147394705Y-148147043D01*
X148585181Y-147242281D02*
X148680420Y-147242281D01*
X148775658Y-147289900D01*
X148823277Y-147337519D01*
X148870896Y-147432757D01*
X148918515Y-147623233D01*
X148918515Y-147861329D01*
X148870896Y-148051805D01*
X148823277Y-148147043D01*
X148775658Y-148194662D01*
X148680420Y-148242281D01*
X148585181Y-148242281D01*
X148489943Y-148194662D01*
X148442324Y-148147043D01*
X148394705Y-148051805D01*
X148347086Y-147861329D01*
X148347086Y-147623233D01*
X148394705Y-147432757D01*
X148442324Y-147337519D01*
X148489943Y-147289900D01*
X148585181Y-147242281D01*
X149251848Y-147242281D02*
X149870896Y-147242281D01*
X149537562Y-147623233D01*
X149680420Y-147623233D01*
X149775658Y-147670852D01*
X149823277Y-147718471D01*
X149870896Y-147813710D01*
X149870896Y-148051805D01*
X149823277Y-148147043D01*
X149775658Y-148194662D01*
X149680420Y-148242281D01*
X149394705Y-148242281D01*
X149299467Y-148194662D01*
X149251848Y-148147043D01*
X143102153Y-148058143D02*
X143054534Y-148105762D01*
X142911677Y-148153381D01*
X142816439Y-148153381D01*
X142673581Y-148105762D01*
X142578343Y-148010524D01*
X142530724Y-147915286D01*
X142483105Y-147724810D01*
X142483105Y-147581952D01*
X142530724Y-147391476D01*
X142578343Y-147296238D01*
X142673581Y-147201000D01*
X142816439Y-147153381D01*
X142911677Y-147153381D01*
X143054534Y-147201000D01*
X143102153Y-147248619D01*
X144006915Y-147153381D02*
X143530724Y-147153381D01*
X143483105Y-147629571D01*
X143530724Y-147581952D01*
X143625962Y-147534333D01*
X143864058Y-147534333D01*
X143959296Y-147581952D01*
X144006915Y-147629571D01*
X144054534Y-147724810D01*
X144054534Y-147962905D01*
X144006915Y-148058143D01*
X143959296Y-148105762D01*
X143864058Y-148153381D01*
X143625962Y-148153381D01*
X143530724Y-148105762D01*
X143483105Y-148058143D01*
X144673581Y-147153381D02*
X144768820Y-147153381D01*
X144864058Y-147201000D01*
X144911677Y-147248619D01*
X144959296Y-147343857D01*
X145006915Y-147534333D01*
X145006915Y-147772429D01*
X144959296Y-147962905D01*
X144911677Y-148058143D01*
X144864058Y-148105762D01*
X144768820Y-148153381D01*
X144673581Y-148153381D01*
X144578343Y-148105762D01*
X144530724Y-148058143D01*
X144483105Y-147962905D01*
X144435486Y-147772429D01*
X144435486Y-147534333D01*
X144483105Y-147343857D01*
X144530724Y-147248619D01*
X144578343Y-147201000D01*
X144673581Y-147153381D01*
X145864058Y-147486714D02*
X145864058Y-148153381D01*
X145625962Y-147105762D02*
X145387867Y-147820048D01*
X146006915Y-147820048D01*
X114314243Y-148426347D02*
X114361862Y-148473966D01*
X114409481Y-148616823D01*
X114409481Y-148712061D01*
X114361862Y-148854919D01*
X114266624Y-148950157D01*
X114171386Y-148997776D01*
X113980910Y-149045395D01*
X113838052Y-149045395D01*
X113647576Y-148997776D01*
X113552338Y-148950157D01*
X113457100Y-148854919D01*
X113409481Y-148712061D01*
X113409481Y-148616823D01*
X113457100Y-148473966D01*
X113504719Y-148426347D01*
X113409481Y-147569204D02*
X113409481Y-147759681D01*
X113457100Y-147854919D01*
X113504719Y-147902538D01*
X113647576Y-147997776D01*
X113838052Y-148045395D01*
X114219005Y-148045395D01*
X114314243Y-147997776D01*
X114361862Y-147950157D01*
X114409481Y-147854919D01*
X114409481Y-147664442D01*
X114361862Y-147569204D01*
X114314243Y-147521585D01*
X114219005Y-147473966D01*
X113980910Y-147473966D01*
X113885671Y-147521585D01*
X113838052Y-147569204D01*
X113790433Y-147664442D01*
X113790433Y-147854919D01*
X113838052Y-147950157D01*
X113885671Y-147997776D01*
X113980910Y-148045395D01*
X113409481Y-146854919D02*
X113409481Y-146759680D01*
X113457100Y-146664442D01*
X113504719Y-146616823D01*
X113599957Y-146569204D01*
X113790433Y-146521585D01*
X114028529Y-146521585D01*
X114219005Y-146569204D01*
X114314243Y-146616823D01*
X114361862Y-146664442D01*
X114409481Y-146759680D01*
X114409481Y-146854919D01*
X114361862Y-146950157D01*
X114314243Y-146997776D01*
X114219005Y-147045395D01*
X114028529Y-147093014D01*
X113790433Y-147093014D01*
X113599957Y-147045395D01*
X113504719Y-146997776D01*
X113457100Y-146950157D01*
X113409481Y-146854919D01*
X114409481Y-145569204D02*
X114409481Y-146140633D01*
X114409481Y-145854919D02*
X113409481Y-145854919D01*
X113552338Y-145950157D01*
X113647576Y-146045395D01*
X113695195Y-146140633D01*
X109421753Y-150636243D02*
X109374134Y-150683862D01*
X109231277Y-150731481D01*
X109136039Y-150731481D01*
X108993181Y-150683862D01*
X108897943Y-150588624D01*
X108850324Y-150493386D01*
X108802705Y-150302910D01*
X108802705Y-150160052D01*
X108850324Y-149969576D01*
X108897943Y-149874338D01*
X108993181Y-149779100D01*
X109136039Y-149731481D01*
X109231277Y-149731481D01*
X109374134Y-149779100D01*
X109421753Y-149826719D01*
X110278896Y-149731481D02*
X110088419Y-149731481D01*
X109993181Y-149779100D01*
X109945562Y-149826719D01*
X109850324Y-149969576D01*
X109802705Y-150160052D01*
X109802705Y-150541005D01*
X109850324Y-150636243D01*
X109897943Y-150683862D01*
X109993181Y-150731481D01*
X110183658Y-150731481D01*
X110278896Y-150683862D01*
X110326515Y-150636243D01*
X110374134Y-150541005D01*
X110374134Y-150302910D01*
X110326515Y-150207671D01*
X110278896Y-150160052D01*
X110183658Y-150112433D01*
X109993181Y-150112433D01*
X109897943Y-150160052D01*
X109850324Y-150207671D01*
X109802705Y-150302910D01*
X110993181Y-149731481D02*
X111088420Y-149731481D01*
X111183658Y-149779100D01*
X111231277Y-149826719D01*
X111278896Y-149921957D01*
X111326515Y-150112433D01*
X111326515Y-150350529D01*
X111278896Y-150541005D01*
X111231277Y-150636243D01*
X111183658Y-150683862D01*
X111088420Y-150731481D01*
X110993181Y-150731481D01*
X110897943Y-150683862D01*
X110850324Y-150636243D01*
X110802705Y-150541005D01*
X110755086Y-150350529D01*
X110755086Y-150112433D01*
X110802705Y-149921957D01*
X110850324Y-149826719D01*
X110897943Y-149779100D01*
X110993181Y-149731481D01*
X111707467Y-149826719D02*
X111755086Y-149779100D01*
X111850324Y-149731481D01*
X112088420Y-149731481D01*
X112183658Y-149779100D01*
X112231277Y-149826719D01*
X112278896Y-149921957D01*
X112278896Y-150017195D01*
X112231277Y-150160052D01*
X111659848Y-150731481D01*
X112278896Y-150731481D01*
X112434643Y-132119547D02*
X112482262Y-132167166D01*
X112529881Y-132310023D01*
X112529881Y-132405261D01*
X112482262Y-132548119D01*
X112387024Y-132643357D01*
X112291786Y-132690976D01*
X112101310Y-132738595D01*
X111958452Y-132738595D01*
X111767976Y-132690976D01*
X111672738Y-132643357D01*
X111577500Y-132548119D01*
X111529881Y-132405261D01*
X111529881Y-132310023D01*
X111577500Y-132167166D01*
X111625119Y-132119547D01*
X111529881Y-131262404D02*
X111529881Y-131452881D01*
X111577500Y-131548119D01*
X111625119Y-131595738D01*
X111767976Y-131690976D01*
X111958452Y-131738595D01*
X112339405Y-131738595D01*
X112434643Y-131690976D01*
X112482262Y-131643357D01*
X112529881Y-131548119D01*
X112529881Y-131357642D01*
X112482262Y-131262404D01*
X112434643Y-131214785D01*
X112339405Y-131167166D01*
X112101310Y-131167166D01*
X112006071Y-131214785D01*
X111958452Y-131262404D01*
X111910833Y-131357642D01*
X111910833Y-131548119D01*
X111958452Y-131643357D01*
X112006071Y-131690976D01*
X112101310Y-131738595D01*
X111529881Y-130548119D02*
X111529881Y-130452880D01*
X111577500Y-130357642D01*
X111625119Y-130310023D01*
X111720357Y-130262404D01*
X111910833Y-130214785D01*
X112148929Y-130214785D01*
X112339405Y-130262404D01*
X112434643Y-130310023D01*
X112482262Y-130357642D01*
X112529881Y-130452880D01*
X112529881Y-130548119D01*
X112482262Y-130643357D01*
X112434643Y-130690976D01*
X112339405Y-130738595D01*
X112148929Y-130786214D01*
X111910833Y-130786214D01*
X111720357Y-130738595D01*
X111625119Y-130690976D01*
X111577500Y-130643357D01*
X111529881Y-130548119D01*
X111529881Y-129881452D02*
X111529881Y-129262404D01*
X111910833Y-129595738D01*
X111910833Y-129452880D01*
X111958452Y-129357642D01*
X112006071Y-129310023D01*
X112101310Y-129262404D01*
X112339405Y-129262404D01*
X112434643Y-129310023D01*
X112482262Y-129357642D01*
X112529881Y-129452880D01*
X112529881Y-129738595D01*
X112482262Y-129833833D01*
X112434643Y-129881452D01*
X102528643Y-152452247D02*
X102576262Y-152499866D01*
X102623881Y-152642723D01*
X102623881Y-152737961D01*
X102576262Y-152880819D01*
X102481024Y-152976057D01*
X102385786Y-153023676D01*
X102195310Y-153071295D01*
X102052452Y-153071295D01*
X101861976Y-153023676D01*
X101766738Y-152976057D01*
X101671500Y-152880819D01*
X101623881Y-152737961D01*
X101623881Y-152642723D01*
X101671500Y-152499866D01*
X101719119Y-152452247D01*
X101623881Y-151595104D02*
X101623881Y-151785581D01*
X101671500Y-151880819D01*
X101719119Y-151928438D01*
X101861976Y-152023676D01*
X102052452Y-152071295D01*
X102433405Y-152071295D01*
X102528643Y-152023676D01*
X102576262Y-151976057D01*
X102623881Y-151880819D01*
X102623881Y-151690342D01*
X102576262Y-151595104D01*
X102528643Y-151547485D01*
X102433405Y-151499866D01*
X102195310Y-151499866D01*
X102100071Y-151547485D01*
X102052452Y-151595104D01*
X102004833Y-151690342D01*
X102004833Y-151880819D01*
X102052452Y-151976057D01*
X102100071Y-152023676D01*
X102195310Y-152071295D01*
X101623881Y-150880819D02*
X101623881Y-150785580D01*
X101671500Y-150690342D01*
X101719119Y-150642723D01*
X101814357Y-150595104D01*
X102004833Y-150547485D01*
X102242929Y-150547485D01*
X102433405Y-150595104D01*
X102528643Y-150642723D01*
X102576262Y-150690342D01*
X102623881Y-150785580D01*
X102623881Y-150880819D01*
X102576262Y-150976057D01*
X102528643Y-151023676D01*
X102433405Y-151071295D01*
X102242929Y-151118914D01*
X102004833Y-151118914D01*
X101814357Y-151071295D01*
X101719119Y-151023676D01*
X101671500Y-150976057D01*
X101623881Y-150880819D01*
X101957214Y-149690342D02*
X102623881Y-149690342D01*
X101576262Y-149928438D02*
X102290548Y-150166533D01*
X102290548Y-149547485D01*
X114108053Y-136717043D02*
X114060434Y-136764662D01*
X113917577Y-136812281D01*
X113822339Y-136812281D01*
X113679481Y-136764662D01*
X113584243Y-136669424D01*
X113536624Y-136574186D01*
X113489005Y-136383710D01*
X113489005Y-136240852D01*
X113536624Y-136050376D01*
X113584243Y-135955138D01*
X113679481Y-135859900D01*
X113822339Y-135812281D01*
X113917577Y-135812281D01*
X114060434Y-135859900D01*
X114108053Y-135907519D01*
X114965196Y-135812281D02*
X114774719Y-135812281D01*
X114679481Y-135859900D01*
X114631862Y-135907519D01*
X114536624Y-136050376D01*
X114489005Y-136240852D01*
X114489005Y-136621805D01*
X114536624Y-136717043D01*
X114584243Y-136764662D01*
X114679481Y-136812281D01*
X114869958Y-136812281D01*
X114965196Y-136764662D01*
X115012815Y-136717043D01*
X115060434Y-136621805D01*
X115060434Y-136383710D01*
X115012815Y-136288471D01*
X114965196Y-136240852D01*
X114869958Y-136193233D01*
X114679481Y-136193233D01*
X114584243Y-136240852D01*
X114536624Y-136288471D01*
X114489005Y-136383710D01*
X115679481Y-135812281D02*
X115774720Y-135812281D01*
X115869958Y-135859900D01*
X115917577Y-135907519D01*
X115965196Y-136002757D01*
X116012815Y-136193233D01*
X116012815Y-136431329D01*
X115965196Y-136621805D01*
X115917577Y-136717043D01*
X115869958Y-136764662D01*
X115774720Y-136812281D01*
X115679481Y-136812281D01*
X115584243Y-136764662D01*
X115536624Y-136717043D01*
X115489005Y-136621805D01*
X115441386Y-136431329D01*
X115441386Y-136193233D01*
X115489005Y-136002757D01*
X115536624Y-135907519D01*
X115584243Y-135859900D01*
X115679481Y-135812281D01*
X116917577Y-135812281D02*
X116441386Y-135812281D01*
X116393767Y-136288471D01*
X116441386Y-136240852D01*
X116536624Y-136193233D01*
X116774720Y-136193233D01*
X116869958Y-136240852D01*
X116917577Y-136288471D01*
X116965196Y-136383710D01*
X116965196Y-136621805D01*
X116917577Y-136717043D01*
X116869958Y-136764662D01*
X116774720Y-136812281D01*
X116536624Y-136812281D01*
X116441386Y-136764662D01*
X116393767Y-136717043D01*
X103846453Y-156160743D02*
X103798834Y-156208362D01*
X103655977Y-156255981D01*
X103560739Y-156255981D01*
X103417881Y-156208362D01*
X103322643Y-156113124D01*
X103275024Y-156017886D01*
X103227405Y-155827410D01*
X103227405Y-155684552D01*
X103275024Y-155494076D01*
X103322643Y-155398838D01*
X103417881Y-155303600D01*
X103560739Y-155255981D01*
X103655977Y-155255981D01*
X103798834Y-155303600D01*
X103846453Y-155351219D01*
X104703596Y-155255981D02*
X104513119Y-155255981D01*
X104417881Y-155303600D01*
X104370262Y-155351219D01*
X104275024Y-155494076D01*
X104227405Y-155684552D01*
X104227405Y-156065505D01*
X104275024Y-156160743D01*
X104322643Y-156208362D01*
X104417881Y-156255981D01*
X104608358Y-156255981D01*
X104703596Y-156208362D01*
X104751215Y-156160743D01*
X104798834Y-156065505D01*
X104798834Y-155827410D01*
X104751215Y-155732171D01*
X104703596Y-155684552D01*
X104608358Y-155636933D01*
X104417881Y-155636933D01*
X104322643Y-155684552D01*
X104275024Y-155732171D01*
X104227405Y-155827410D01*
X105417881Y-155255981D02*
X105513120Y-155255981D01*
X105608358Y-155303600D01*
X105655977Y-155351219D01*
X105703596Y-155446457D01*
X105751215Y-155636933D01*
X105751215Y-155875029D01*
X105703596Y-156065505D01*
X105655977Y-156160743D01*
X105608358Y-156208362D01*
X105513120Y-156255981D01*
X105417881Y-156255981D01*
X105322643Y-156208362D01*
X105275024Y-156160743D01*
X105227405Y-156065505D01*
X105179786Y-155875029D01*
X105179786Y-155636933D01*
X105227405Y-155446457D01*
X105275024Y-155351219D01*
X105322643Y-155303600D01*
X105417881Y-155255981D01*
X106608358Y-155255981D02*
X106417881Y-155255981D01*
X106322643Y-155303600D01*
X106275024Y-155351219D01*
X106179786Y-155494076D01*
X106132167Y-155684552D01*
X106132167Y-156065505D01*
X106179786Y-156160743D01*
X106227405Y-156208362D01*
X106322643Y-156255981D01*
X106513120Y-156255981D01*
X106608358Y-156208362D01*
X106655977Y-156160743D01*
X106703596Y-156065505D01*
X106703596Y-155827410D01*
X106655977Y-155732171D01*
X106608358Y-155684552D01*
X106513120Y-155636933D01*
X106322643Y-155636933D01*
X106227405Y-155684552D01*
X106179786Y-155732171D01*
X106132167Y-155827410D01*
X142757686Y-158094371D02*
X142424352Y-158094371D01*
X142424352Y-158618181D02*
X142424352Y-157618181D01*
X142900543Y-157618181D01*
X143757686Y-157618181D02*
X143281495Y-157618181D01*
X143233876Y-158094371D01*
X143281495Y-158046752D01*
X143376733Y-157999133D01*
X143614829Y-157999133D01*
X143710067Y-158046752D01*
X143757686Y-158094371D01*
X143805305Y-158189610D01*
X143805305Y-158427705D01*
X143757686Y-158522943D01*
X143710067Y-158570562D01*
X143614829Y-158618181D01*
X143376733Y-158618181D01*
X143281495Y-158570562D01*
X143233876Y-158522943D01*
X144424352Y-157618181D02*
X144519591Y-157618181D01*
X144614829Y-157665800D01*
X144662448Y-157713419D01*
X144710067Y-157808657D01*
X144757686Y-157999133D01*
X144757686Y-158237229D01*
X144710067Y-158427705D01*
X144662448Y-158522943D01*
X144614829Y-158570562D01*
X144519591Y-158618181D01*
X144424352Y-158618181D01*
X144329114Y-158570562D01*
X144281495Y-158522943D01*
X144233876Y-158427705D01*
X144186257Y-158237229D01*
X144186257Y-157999133D01*
X144233876Y-157808657D01*
X144281495Y-157713419D01*
X144329114Y-157665800D01*
X144424352Y-157618181D01*
X145710067Y-158618181D02*
X145138638Y-158618181D01*
X145424352Y-158618181D02*
X145424352Y-157618181D01*
X145329114Y-157761038D01*
X145233876Y-157856276D01*
X145138638Y-157903895D01*
X143786386Y-106005381D02*
X143786386Y-106719667D01*
X143738766Y-106862524D01*
X143643528Y-106957762D01*
X143500671Y-107005381D01*
X143405433Y-107005381D01*
X144786386Y-107005381D02*
X144214957Y-107005381D01*
X144500671Y-107005381D02*
X144500671Y-106005381D01*
X144405433Y-106148238D01*
X144310195Y-106243476D01*
X144214957Y-106291095D01*
X145405433Y-106005381D02*
X145500672Y-106005381D01*
X145595910Y-106053000D01*
X145643529Y-106100619D01*
X145691148Y-106195857D01*
X145738767Y-106386333D01*
X145738767Y-106624429D01*
X145691148Y-106814905D01*
X145643529Y-106910143D01*
X145595910Y-106957762D01*
X145500672Y-107005381D01*
X145405433Y-107005381D01*
X145310195Y-106957762D01*
X145262576Y-106910143D01*
X145214957Y-106814905D01*
X145167338Y-106624429D01*
X145167338Y-106386333D01*
X145214957Y-106195857D01*
X145262576Y-106100619D01*
X145310195Y-106053000D01*
X145405433Y-106005381D01*
X146119719Y-106100619D02*
X146167338Y-106053000D01*
X146262576Y-106005381D01*
X146500672Y-106005381D01*
X146595910Y-106053000D01*
X146643529Y-106100619D01*
X146691148Y-106195857D01*
X146691148Y-106291095D01*
X146643529Y-106433952D01*
X146072100Y-107005381D01*
X146691148Y-107005381D01*
X104964286Y-101702381D02*
X104964286Y-102416667D01*
X104916666Y-102559524D01*
X104821428Y-102654762D01*
X104678571Y-102702381D01*
X104583333Y-102702381D01*
X105964286Y-102702381D02*
X105392857Y-102702381D01*
X105678571Y-102702381D02*
X105678571Y-101702381D01*
X105583333Y-101845238D01*
X105488095Y-101940476D01*
X105392857Y-101988095D01*
X106583333Y-101702381D02*
X106678572Y-101702381D01*
X106773810Y-101750000D01*
X106821429Y-101797619D01*
X106869048Y-101892857D01*
X106916667Y-102083333D01*
X106916667Y-102321429D01*
X106869048Y-102511905D01*
X106821429Y-102607143D01*
X106773810Y-102654762D01*
X106678572Y-102702381D01*
X106583333Y-102702381D01*
X106488095Y-102654762D01*
X106440476Y-102607143D01*
X106392857Y-102511905D01*
X106345238Y-102321429D01*
X106345238Y-102083333D01*
X106392857Y-101892857D01*
X106440476Y-101797619D01*
X106488095Y-101750000D01*
X106583333Y-101702381D01*
X107250000Y-101702381D02*
X107869048Y-101702381D01*
X107535714Y-102083333D01*
X107678572Y-102083333D01*
X107773810Y-102130952D01*
X107821429Y-102178571D01*
X107869048Y-102273810D01*
X107869048Y-102511905D01*
X107821429Y-102607143D01*
X107773810Y-102654762D01*
X107678572Y-102702381D01*
X107392857Y-102702381D01*
X107297619Y-102654762D01*
X107250000Y-102607143D01*
X140264286Y-159302381D02*
X140264286Y-160016667D01*
X140216666Y-160159524D01*
X140121428Y-160254762D01*
X139978571Y-160302381D01*
X139883333Y-160302381D01*
X141264286Y-160302381D02*
X140692857Y-160302381D01*
X140978571Y-160302381D02*
X140978571Y-159302381D01*
X140883333Y-159445238D01*
X140788095Y-159540476D01*
X140692857Y-159588095D01*
X141883333Y-159302381D02*
X141978572Y-159302381D01*
X142073810Y-159350000D01*
X142121429Y-159397619D01*
X142169048Y-159492857D01*
X142216667Y-159683333D01*
X142216667Y-159921429D01*
X142169048Y-160111905D01*
X142121429Y-160207143D01*
X142073810Y-160254762D01*
X141978572Y-160302381D01*
X141883333Y-160302381D01*
X141788095Y-160254762D01*
X141740476Y-160207143D01*
X141692857Y-160111905D01*
X141645238Y-159921429D01*
X141645238Y-159683333D01*
X141692857Y-159492857D01*
X141740476Y-159397619D01*
X141788095Y-159350000D01*
X141883333Y-159302381D01*
X143073810Y-159302381D02*
X142883333Y-159302381D01*
X142788095Y-159350000D01*
X142740476Y-159397619D01*
X142645238Y-159540476D01*
X142597619Y-159730952D01*
X142597619Y-160111905D01*
X142645238Y-160207143D01*
X142692857Y-160254762D01*
X142788095Y-160302381D01*
X142978572Y-160302381D01*
X143073810Y-160254762D01*
X143121429Y-160207143D01*
X143169048Y-160111905D01*
X143169048Y-159873810D01*
X143121429Y-159778571D01*
X143073810Y-159730952D01*
X142978572Y-159683333D01*
X142788095Y-159683333D01*
X142692857Y-159730952D01*
X142645238Y-159778571D01*
X142597619Y-159873810D01*
X111682281Y-156047914D02*
X112396567Y-156047914D01*
X112539424Y-156095534D01*
X112634662Y-156190772D01*
X112682281Y-156333629D01*
X112682281Y-156428867D01*
X112682281Y-155047914D02*
X112682281Y-155619343D01*
X112682281Y-155333629D02*
X111682281Y-155333629D01*
X111825138Y-155428867D01*
X111920376Y-155524105D01*
X111967995Y-155619343D01*
X111682281Y-154428867D02*
X111682281Y-154333628D01*
X111729900Y-154238390D01*
X111777519Y-154190771D01*
X111872757Y-154143152D01*
X112063233Y-154095533D01*
X112301329Y-154095533D01*
X112491805Y-154143152D01*
X112587043Y-154190771D01*
X112634662Y-154238390D01*
X112682281Y-154333628D01*
X112682281Y-154428867D01*
X112634662Y-154524105D01*
X112587043Y-154571724D01*
X112491805Y-154619343D01*
X112301329Y-154666962D01*
X112063233Y-154666962D01*
X111872757Y-154619343D01*
X111777519Y-154571724D01*
X111729900Y-154524105D01*
X111682281Y-154428867D01*
X111682281Y-153762200D02*
X111682281Y-153095533D01*
X112682281Y-153524105D01*
X105306881Y-162410614D02*
X106021167Y-162410614D01*
X106164024Y-162458234D01*
X106259262Y-162553472D01*
X106306881Y-162696329D01*
X106306881Y-162791567D01*
X105735452Y-161791567D02*
X105687833Y-161886805D01*
X105640214Y-161934424D01*
X105544976Y-161982043D01*
X105497357Y-161982043D01*
X105402119Y-161934424D01*
X105354500Y-161886805D01*
X105306881Y-161791567D01*
X105306881Y-161601090D01*
X105354500Y-161505852D01*
X105402119Y-161458233D01*
X105497357Y-161410614D01*
X105544976Y-161410614D01*
X105640214Y-161458233D01*
X105687833Y-161505852D01*
X105735452Y-161601090D01*
X105735452Y-161791567D01*
X105783071Y-161886805D01*
X105830690Y-161934424D01*
X105925929Y-161982043D01*
X106116405Y-161982043D01*
X106211643Y-161934424D01*
X106259262Y-161886805D01*
X106306881Y-161791567D01*
X106306881Y-161601090D01*
X106259262Y-161505852D01*
X106211643Y-161458233D01*
X106116405Y-161410614D01*
X105925929Y-161410614D01*
X105830690Y-161458233D01*
X105783071Y-161505852D01*
X105735452Y-161601090D01*
X105306881Y-160791567D02*
X105306881Y-160696328D01*
X105354500Y-160601090D01*
X105402119Y-160553471D01*
X105497357Y-160505852D01*
X105687833Y-160458233D01*
X105925929Y-160458233D01*
X106116405Y-160505852D01*
X106211643Y-160553471D01*
X106259262Y-160601090D01*
X106306881Y-160696328D01*
X106306881Y-160791567D01*
X106259262Y-160886805D01*
X106211643Y-160934424D01*
X106116405Y-160982043D01*
X105925929Y-161029662D01*
X105687833Y-161029662D01*
X105497357Y-160982043D01*
X105402119Y-160934424D01*
X105354500Y-160886805D01*
X105306881Y-160791567D01*
X106306881Y-159505852D02*
X106306881Y-160077281D01*
X106306881Y-159791567D02*
X105306881Y-159791567D01*
X105449738Y-159886805D01*
X105544976Y-159982043D01*
X105592595Y-160077281D01*
X133488253Y-146032481D02*
X133012062Y-146032481D01*
X133012062Y-145032481D01*
X134250158Y-145365814D02*
X134250158Y-146032481D01*
X134012062Y-144984862D02*
X133773967Y-145699148D01*
X134393015Y-145699148D01*
X134964443Y-145032481D02*
X135059682Y-145032481D01*
X135154920Y-145080100D01*
X135202539Y-145127719D01*
X135250158Y-145222957D01*
X135297777Y-145413433D01*
X135297777Y-145651529D01*
X135250158Y-145842005D01*
X135202539Y-145937243D01*
X135154920Y-145984862D01*
X135059682Y-146032481D01*
X134964443Y-146032481D01*
X134869205Y-145984862D01*
X134821586Y-145937243D01*
X134773967Y-145842005D01*
X134726348Y-145651529D01*
X134726348Y-145413433D01*
X134773967Y-145222957D01*
X134821586Y-145127719D01*
X134869205Y-145080100D01*
X134964443Y-145032481D01*
X136250158Y-146032481D02*
X135678729Y-146032481D01*
X135964443Y-146032481D02*
X135964443Y-145032481D01*
X135869205Y-145175338D01*
X135773967Y-145270576D01*
X135678729Y-145318195D01*
X136104453Y-136164581D02*
X135628262Y-136164581D01*
X135628262Y-135164581D01*
X136866358Y-135497914D02*
X136866358Y-136164581D01*
X136628262Y-135116962D02*
X136390167Y-135831248D01*
X137009215Y-135831248D01*
X137580643Y-135164581D02*
X137675882Y-135164581D01*
X137771120Y-135212200D01*
X137818739Y-135259819D01*
X137866358Y-135355057D01*
X137913977Y-135545533D01*
X137913977Y-135783629D01*
X137866358Y-135974105D01*
X137818739Y-136069343D01*
X137771120Y-136116962D01*
X137675882Y-136164581D01*
X137580643Y-136164581D01*
X137485405Y-136116962D01*
X137437786Y-136069343D01*
X137390167Y-135974105D01*
X137342548Y-135783629D01*
X137342548Y-135545533D01*
X137390167Y-135355057D01*
X137437786Y-135259819D01*
X137485405Y-135212200D01*
X137580643Y-135164581D01*
X138294929Y-135259819D02*
X138342548Y-135212200D01*
X138437786Y-135164581D01*
X138675882Y-135164581D01*
X138771120Y-135212200D01*
X138818739Y-135259819D01*
X138866358Y-135355057D01*
X138866358Y-135450295D01*
X138818739Y-135593152D01*
X138247310Y-136164581D01*
X138866358Y-136164581D01*
X142690933Y-141285996D02*
X142354215Y-140949278D01*
X143061322Y-140242171D01*
X143701086Y-141353339D02*
X143229681Y-141824744D01*
X143802100Y-140915606D02*
X143128665Y-141252324D01*
X143566398Y-141690057D01*
X144441863Y-141622713D02*
X144509207Y-141690057D01*
X144542879Y-141791072D01*
X144542879Y-141858416D01*
X144509207Y-141959431D01*
X144408192Y-142127790D01*
X144239833Y-142296149D01*
X144071474Y-142397164D01*
X143970459Y-142430836D01*
X143903116Y-142430836D01*
X143802101Y-142397164D01*
X143734757Y-142329820D01*
X143701085Y-142228805D01*
X143701085Y-142161461D01*
X143734757Y-142060446D01*
X143835772Y-141892088D01*
X144004131Y-141723728D01*
X144172490Y-141622713D01*
X144273505Y-141589041D01*
X144340848Y-141589041D01*
X144441863Y-141622713D01*
X144913268Y-142094118D02*
X145351001Y-142531851D01*
X144845925Y-142565522D01*
X144946941Y-142666538D01*
X144980612Y-142767553D01*
X144980612Y-142834896D01*
X144946940Y-142935912D01*
X144778581Y-143104271D01*
X144677566Y-143137943D01*
X144610223Y-143137943D01*
X144509207Y-143104271D01*
X144307176Y-142902240D01*
X144273505Y-142801225D01*
X144273505Y-142733881D01*
X142759253Y-143822681D02*
X142283062Y-143822681D01*
X142283062Y-142822681D01*
X143568777Y-142822681D02*
X143092586Y-142822681D01*
X143044967Y-143298871D01*
X143092586Y-143251252D01*
X143187824Y-143203633D01*
X143425920Y-143203633D01*
X143521158Y-143251252D01*
X143568777Y-143298871D01*
X143616396Y-143394110D01*
X143616396Y-143632205D01*
X143568777Y-143727443D01*
X143521158Y-143775062D01*
X143425920Y-143822681D01*
X143187824Y-143822681D01*
X143092586Y-143775062D01*
X143044967Y-143727443D01*
X144235443Y-142822681D02*
X144330682Y-142822681D01*
X144425920Y-142870300D01*
X144473539Y-142917919D01*
X144521158Y-143013157D01*
X144568777Y-143203633D01*
X144568777Y-143441729D01*
X144521158Y-143632205D01*
X144473539Y-143727443D01*
X144425920Y-143775062D01*
X144330682Y-143822681D01*
X144235443Y-143822681D01*
X144140205Y-143775062D01*
X144092586Y-143727443D01*
X144044967Y-143632205D01*
X143997348Y-143441729D01*
X143997348Y-143203633D01*
X144044967Y-143013157D01*
X144092586Y-142917919D01*
X144140205Y-142870300D01*
X144235443Y-142822681D01*
X145521158Y-143822681D02*
X144949729Y-143822681D01*
X145235443Y-143822681D02*
X145235443Y-142822681D01*
X145140205Y-142965538D01*
X145044967Y-143060776D01*
X144949729Y-143108395D01*
X142822753Y-149956781D02*
X142346562Y-149956781D01*
X142346562Y-148956781D01*
X143632277Y-148956781D02*
X143156086Y-148956781D01*
X143108467Y-149432971D01*
X143156086Y-149385352D01*
X143251324Y-149337733D01*
X143489420Y-149337733D01*
X143584658Y-149385352D01*
X143632277Y-149432971D01*
X143679896Y-149528210D01*
X143679896Y-149766305D01*
X143632277Y-149861543D01*
X143584658Y-149909162D01*
X143489420Y-149956781D01*
X143251324Y-149956781D01*
X143156086Y-149909162D01*
X143108467Y-149861543D01*
X144298943Y-148956781D02*
X144394182Y-148956781D01*
X144489420Y-149004400D01*
X144537039Y-149052019D01*
X144584658Y-149147257D01*
X144632277Y-149337733D01*
X144632277Y-149575829D01*
X144584658Y-149766305D01*
X144537039Y-149861543D01*
X144489420Y-149909162D01*
X144394182Y-149956781D01*
X144298943Y-149956781D01*
X144203705Y-149909162D01*
X144156086Y-149861543D01*
X144108467Y-149766305D01*
X144060848Y-149575829D01*
X144060848Y-149337733D01*
X144108467Y-149147257D01*
X144156086Y-149052019D01*
X144203705Y-149004400D01*
X144298943Y-148956781D01*
X145013229Y-149052019D02*
X145060848Y-149004400D01*
X145156086Y-148956781D01*
X145394182Y-148956781D01*
X145489420Y-149004400D01*
X145537039Y-149052019D01*
X145584658Y-149147257D01*
X145584658Y-149242495D01*
X145537039Y-149385352D01*
X144965610Y-149956781D01*
X145584658Y-149956781D01*
X137933253Y-149893281D02*
X137457062Y-149893281D01*
X137457062Y-148893281D01*
X138742777Y-148893281D02*
X138266586Y-148893281D01*
X138218967Y-149369471D01*
X138266586Y-149321852D01*
X138361824Y-149274233D01*
X138599920Y-149274233D01*
X138695158Y-149321852D01*
X138742777Y-149369471D01*
X138790396Y-149464710D01*
X138790396Y-149702805D01*
X138742777Y-149798043D01*
X138695158Y-149845662D01*
X138599920Y-149893281D01*
X138361824Y-149893281D01*
X138266586Y-149845662D01*
X138218967Y-149798043D01*
X139409443Y-148893281D02*
X139504682Y-148893281D01*
X139599920Y-148940900D01*
X139647539Y-148988519D01*
X139695158Y-149083757D01*
X139742777Y-149274233D01*
X139742777Y-149512329D01*
X139695158Y-149702805D01*
X139647539Y-149798043D01*
X139599920Y-149845662D01*
X139504682Y-149893281D01*
X139409443Y-149893281D01*
X139314205Y-149845662D01*
X139266586Y-149798043D01*
X139218967Y-149702805D01*
X139171348Y-149512329D01*
X139171348Y-149274233D01*
X139218967Y-149083757D01*
X139266586Y-148988519D01*
X139314205Y-148940900D01*
X139409443Y-148893281D01*
X140076110Y-148893281D02*
X140695158Y-148893281D01*
X140361824Y-149274233D01*
X140504682Y-149274233D01*
X140599920Y-149321852D01*
X140647539Y-149369471D01*
X140695158Y-149464710D01*
X140695158Y-149702805D01*
X140647539Y-149798043D01*
X140599920Y-149845662D01*
X140504682Y-149893281D01*
X140218967Y-149893281D01*
X140123729Y-149845662D01*
X140076110Y-149798043D01*
X140632381Y-143919047D02*
X140632381Y-144395238D01*
X139632381Y-144395238D01*
X139632381Y-143109523D02*
X139632381Y-143585714D01*
X140108571Y-143633333D01*
X140060952Y-143585714D01*
X140013333Y-143490476D01*
X140013333Y-143252380D01*
X140060952Y-143157142D01*
X140108571Y-143109523D01*
X140203810Y-143061904D01*
X140441905Y-143061904D01*
X140537143Y-143109523D01*
X140584762Y-143157142D01*
X140632381Y-143252380D01*
X140632381Y-143490476D01*
X140584762Y-143585714D01*
X140537143Y-143633333D01*
X139632381Y-142442857D02*
X139632381Y-142347618D01*
X139680000Y-142252380D01*
X139727619Y-142204761D01*
X139822857Y-142157142D01*
X140013333Y-142109523D01*
X140251429Y-142109523D01*
X140441905Y-142157142D01*
X140537143Y-142204761D01*
X140584762Y-142252380D01*
X140632381Y-142347618D01*
X140632381Y-142442857D01*
X140584762Y-142538095D01*
X140537143Y-142585714D01*
X140441905Y-142633333D01*
X140251429Y-142680952D01*
X140013333Y-142680952D01*
X139822857Y-142633333D01*
X139727619Y-142585714D01*
X139680000Y-142538095D01*
X139632381Y-142442857D01*
X139965714Y-141252380D02*
X140632381Y-141252380D01*
X139584762Y-141490476D02*
X140299048Y-141728571D01*
X140299048Y-141109523D01*
X136142553Y-148051781D02*
X135666362Y-148051781D01*
X135666362Y-147051781D01*
X136952077Y-147051781D02*
X136475886Y-147051781D01*
X136428267Y-147527971D01*
X136475886Y-147480352D01*
X136571124Y-147432733D01*
X136809220Y-147432733D01*
X136904458Y-147480352D01*
X136952077Y-147527971D01*
X136999696Y-147623210D01*
X136999696Y-147861305D01*
X136952077Y-147956543D01*
X136904458Y-148004162D01*
X136809220Y-148051781D01*
X136571124Y-148051781D01*
X136475886Y-148004162D01*
X136428267Y-147956543D01*
X137618743Y-147051781D02*
X137713982Y-147051781D01*
X137809220Y-147099400D01*
X137856839Y-147147019D01*
X137904458Y-147242257D01*
X137952077Y-147432733D01*
X137952077Y-147670829D01*
X137904458Y-147861305D01*
X137856839Y-147956543D01*
X137809220Y-148004162D01*
X137713982Y-148051781D01*
X137618743Y-148051781D01*
X137523505Y-148004162D01*
X137475886Y-147956543D01*
X137428267Y-147861305D01*
X137380648Y-147670829D01*
X137380648Y-147432733D01*
X137428267Y-147242257D01*
X137475886Y-147147019D01*
X137523505Y-147099400D01*
X137618743Y-147051781D01*
X138856839Y-147051781D02*
X138380648Y-147051781D01*
X138333029Y-147527971D01*
X138380648Y-147480352D01*
X138475886Y-147432733D01*
X138713982Y-147432733D01*
X138809220Y-147480352D01*
X138856839Y-147527971D01*
X138904458Y-147623210D01*
X138904458Y-147861305D01*
X138856839Y-147956543D01*
X138809220Y-148004162D01*
X138713982Y-148051781D01*
X138475886Y-148051781D01*
X138380648Y-148004162D01*
X138333029Y-147956543D01*
X136167953Y-154782781D02*
X135691762Y-154782781D01*
X135691762Y-153782781D01*
X136977477Y-153782781D02*
X136501286Y-153782781D01*
X136453667Y-154258971D01*
X136501286Y-154211352D01*
X136596524Y-154163733D01*
X136834620Y-154163733D01*
X136929858Y-154211352D01*
X136977477Y-154258971D01*
X137025096Y-154354210D01*
X137025096Y-154592305D01*
X136977477Y-154687543D01*
X136929858Y-154735162D01*
X136834620Y-154782781D01*
X136596524Y-154782781D01*
X136501286Y-154735162D01*
X136453667Y-154687543D01*
X137644143Y-153782781D02*
X137739382Y-153782781D01*
X137834620Y-153830400D01*
X137882239Y-153878019D01*
X137929858Y-153973257D01*
X137977477Y-154163733D01*
X137977477Y-154401829D01*
X137929858Y-154592305D01*
X137882239Y-154687543D01*
X137834620Y-154735162D01*
X137739382Y-154782781D01*
X137644143Y-154782781D01*
X137548905Y-154735162D01*
X137501286Y-154687543D01*
X137453667Y-154592305D01*
X137406048Y-154401829D01*
X137406048Y-154163733D01*
X137453667Y-153973257D01*
X137501286Y-153878019D01*
X137548905Y-153830400D01*
X137644143Y-153782781D01*
X138834620Y-153782781D02*
X138644143Y-153782781D01*
X138548905Y-153830400D01*
X138501286Y-153878019D01*
X138406048Y-154020876D01*
X138358429Y-154211352D01*
X138358429Y-154592305D01*
X138406048Y-154687543D01*
X138453667Y-154735162D01*
X138548905Y-154782781D01*
X138739382Y-154782781D01*
X138834620Y-154735162D01*
X138882239Y-154687543D01*
X138929858Y-154592305D01*
X138929858Y-154354210D01*
X138882239Y-154258971D01*
X138834620Y-154211352D01*
X138739382Y-154163733D01*
X138548905Y-154163733D01*
X138453667Y-154211352D01*
X138406048Y-154258971D01*
X138358429Y-154354210D01*
X116686153Y-141574781D02*
X116209962Y-141574781D01*
X116209962Y-140574781D01*
X117448058Y-140574781D02*
X117257581Y-140574781D01*
X117162343Y-140622400D01*
X117114724Y-140670019D01*
X117019486Y-140812876D01*
X116971867Y-141003352D01*
X116971867Y-141384305D01*
X117019486Y-141479543D01*
X117067105Y-141527162D01*
X117162343Y-141574781D01*
X117352820Y-141574781D01*
X117448058Y-141527162D01*
X117495677Y-141479543D01*
X117543296Y-141384305D01*
X117543296Y-141146210D01*
X117495677Y-141050971D01*
X117448058Y-141003352D01*
X117352820Y-140955733D01*
X117162343Y-140955733D01*
X117067105Y-141003352D01*
X117019486Y-141050971D01*
X116971867Y-141146210D01*
X118162343Y-140574781D02*
X118257582Y-140574781D01*
X118352820Y-140622400D01*
X118400439Y-140670019D01*
X118448058Y-140765257D01*
X118495677Y-140955733D01*
X118495677Y-141193829D01*
X118448058Y-141384305D01*
X118400439Y-141479543D01*
X118352820Y-141527162D01*
X118257582Y-141574781D01*
X118162343Y-141574781D01*
X118067105Y-141527162D01*
X118019486Y-141479543D01*
X117971867Y-141384305D01*
X117924248Y-141193829D01*
X117924248Y-140955733D01*
X117971867Y-140765257D01*
X118019486Y-140670019D01*
X118067105Y-140622400D01*
X118162343Y-140574781D01*
X119448058Y-141574781D02*
X118876629Y-141574781D01*
X119162343Y-141574781D02*
X119162343Y-140574781D01*
X119067105Y-140717638D01*
X118971867Y-140812876D01*
X118876629Y-140860495D01*
X117689453Y-136850381D02*
X117213262Y-136850381D01*
X117213262Y-135850381D01*
X118451358Y-135850381D02*
X118260881Y-135850381D01*
X118165643Y-135898000D01*
X118118024Y-135945619D01*
X118022786Y-136088476D01*
X117975167Y-136278952D01*
X117975167Y-136659905D01*
X118022786Y-136755143D01*
X118070405Y-136802762D01*
X118165643Y-136850381D01*
X118356120Y-136850381D01*
X118451358Y-136802762D01*
X118498977Y-136755143D01*
X118546596Y-136659905D01*
X118546596Y-136421810D01*
X118498977Y-136326571D01*
X118451358Y-136278952D01*
X118356120Y-136231333D01*
X118165643Y-136231333D01*
X118070405Y-136278952D01*
X118022786Y-136326571D01*
X117975167Y-136421810D01*
X119165643Y-135850381D02*
X119260882Y-135850381D01*
X119356120Y-135898000D01*
X119403739Y-135945619D01*
X119451358Y-136040857D01*
X119498977Y-136231333D01*
X119498977Y-136469429D01*
X119451358Y-136659905D01*
X119403739Y-136755143D01*
X119356120Y-136802762D01*
X119260882Y-136850381D01*
X119165643Y-136850381D01*
X119070405Y-136802762D01*
X119022786Y-136755143D01*
X118975167Y-136659905D01*
X118927548Y-136469429D01*
X118927548Y-136231333D01*
X118975167Y-136040857D01*
X119022786Y-135945619D01*
X119070405Y-135898000D01*
X119165643Y-135850381D01*
X119879929Y-135945619D02*
X119927548Y-135898000D01*
X120022786Y-135850381D01*
X120260882Y-135850381D01*
X120356120Y-135898000D01*
X120403739Y-135945619D01*
X120451358Y-136040857D01*
X120451358Y-136136095D01*
X120403739Y-136278952D01*
X119832310Y-136850381D01*
X120451358Y-136850381D01*
X144537253Y-116898681D02*
X144203919Y-116422490D01*
X143965824Y-116898681D02*
X143965824Y-115898681D01*
X144346777Y-115898681D01*
X144442015Y-115946300D01*
X144489634Y-115993919D01*
X144537253Y-116089157D01*
X144537253Y-116232014D01*
X144489634Y-116327252D01*
X144442015Y-116374871D01*
X144346777Y-116422490D01*
X143965824Y-116422490D01*
X145489634Y-116898681D02*
X144918205Y-116898681D01*
X145203919Y-116898681D02*
X145203919Y-115898681D01*
X145108681Y-116041538D01*
X145013443Y-116136776D01*
X144918205Y-116184395D01*
X146108681Y-115898681D02*
X146203920Y-115898681D01*
X146299158Y-115946300D01*
X146346777Y-115993919D01*
X146394396Y-116089157D01*
X146442015Y-116279633D01*
X146442015Y-116517729D01*
X146394396Y-116708205D01*
X146346777Y-116803443D01*
X146299158Y-116851062D01*
X146203920Y-116898681D01*
X146108681Y-116898681D01*
X146013443Y-116851062D01*
X145965824Y-116803443D01*
X145918205Y-116708205D01*
X145870586Y-116517729D01*
X145870586Y-116279633D01*
X145918205Y-116089157D01*
X145965824Y-115993919D01*
X146013443Y-115946300D01*
X146108681Y-115898681D01*
X147394396Y-116898681D02*
X146822967Y-116898681D01*
X147108681Y-116898681D02*
X147108681Y-115898681D01*
X147013443Y-116041538D01*
X146918205Y-116136776D01*
X146822967Y-116184395D01*
X139076253Y-119743481D02*
X138742919Y-119267290D01*
X138504824Y-119743481D02*
X138504824Y-118743481D01*
X138885777Y-118743481D01*
X138981015Y-118791100D01*
X139028634Y-118838719D01*
X139076253Y-118933957D01*
X139076253Y-119076814D01*
X139028634Y-119172052D01*
X138981015Y-119219671D01*
X138885777Y-119267290D01*
X138504824Y-119267290D01*
X140028634Y-119743481D02*
X139457205Y-119743481D01*
X139742919Y-119743481D02*
X139742919Y-118743481D01*
X139647681Y-118886338D01*
X139552443Y-118981576D01*
X139457205Y-119029195D01*
X140647681Y-118743481D02*
X140742920Y-118743481D01*
X140838158Y-118791100D01*
X140885777Y-118838719D01*
X140933396Y-118933957D01*
X140981015Y-119124433D01*
X140981015Y-119362529D01*
X140933396Y-119553005D01*
X140885777Y-119648243D01*
X140838158Y-119695862D01*
X140742920Y-119743481D01*
X140647681Y-119743481D01*
X140552443Y-119695862D01*
X140504824Y-119648243D01*
X140457205Y-119553005D01*
X140409586Y-119362529D01*
X140409586Y-119124433D01*
X140457205Y-118933957D01*
X140504824Y-118838719D01*
X140552443Y-118791100D01*
X140647681Y-118743481D01*
X141361967Y-118838719D02*
X141409586Y-118791100D01*
X141504824Y-118743481D01*
X141742920Y-118743481D01*
X141838158Y-118791100D01*
X141885777Y-118838719D01*
X141933396Y-118933957D01*
X141933396Y-119029195D01*
X141885777Y-119172052D01*
X141314348Y-119743481D01*
X141933396Y-119743481D01*
X138301553Y-122258081D02*
X137968219Y-121781890D01*
X137730124Y-122258081D02*
X137730124Y-121258081D01*
X138111077Y-121258081D01*
X138206315Y-121305700D01*
X138253934Y-121353319D01*
X138301553Y-121448557D01*
X138301553Y-121591414D01*
X138253934Y-121686652D01*
X138206315Y-121734271D01*
X138111077Y-121781890D01*
X137730124Y-121781890D01*
X139253934Y-122258081D02*
X138682505Y-122258081D01*
X138968219Y-122258081D02*
X138968219Y-121258081D01*
X138872981Y-121400938D01*
X138777743Y-121496176D01*
X138682505Y-121543795D01*
X139872981Y-121258081D02*
X139968220Y-121258081D01*
X140063458Y-121305700D01*
X140111077Y-121353319D01*
X140158696Y-121448557D01*
X140206315Y-121639033D01*
X140206315Y-121877129D01*
X140158696Y-122067605D01*
X140111077Y-122162843D01*
X140063458Y-122210462D01*
X139968220Y-122258081D01*
X139872981Y-122258081D01*
X139777743Y-122210462D01*
X139730124Y-122162843D01*
X139682505Y-122067605D01*
X139634886Y-121877129D01*
X139634886Y-121639033D01*
X139682505Y-121448557D01*
X139730124Y-121353319D01*
X139777743Y-121305700D01*
X139872981Y-121258081D01*
X140539648Y-121258081D02*
X141158696Y-121258081D01*
X140825362Y-121639033D01*
X140968220Y-121639033D01*
X141063458Y-121686652D01*
X141111077Y-121734271D01*
X141158696Y-121829510D01*
X141158696Y-122067605D01*
X141111077Y-122162843D01*
X141063458Y-122210462D01*
X140968220Y-122258081D01*
X140682505Y-122258081D01*
X140587267Y-122210462D01*
X140539648Y-122162843D01*
X144727753Y-121724681D02*
X144394419Y-121248490D01*
X144156324Y-121724681D02*
X144156324Y-120724681D01*
X144537277Y-120724681D01*
X144632515Y-120772300D01*
X144680134Y-120819919D01*
X144727753Y-120915157D01*
X144727753Y-121058014D01*
X144680134Y-121153252D01*
X144632515Y-121200871D01*
X144537277Y-121248490D01*
X144156324Y-121248490D01*
X145680134Y-121724681D02*
X145108705Y-121724681D01*
X145394419Y-121724681D02*
X145394419Y-120724681D01*
X145299181Y-120867538D01*
X145203943Y-120962776D01*
X145108705Y-121010395D01*
X146299181Y-120724681D02*
X146394420Y-120724681D01*
X146489658Y-120772300D01*
X146537277Y-120819919D01*
X146584896Y-120915157D01*
X146632515Y-121105633D01*
X146632515Y-121343729D01*
X146584896Y-121534205D01*
X146537277Y-121629443D01*
X146489658Y-121677062D01*
X146394420Y-121724681D01*
X146299181Y-121724681D01*
X146203943Y-121677062D01*
X146156324Y-121629443D01*
X146108705Y-121534205D01*
X146061086Y-121343729D01*
X146061086Y-121105633D01*
X146108705Y-120915157D01*
X146156324Y-120819919D01*
X146203943Y-120772300D01*
X146299181Y-120724681D01*
X147489658Y-121058014D02*
X147489658Y-121724681D01*
X147251562Y-120677062D02*
X147013467Y-121391348D01*
X147632515Y-121391348D01*
X116228953Y-128874781D02*
X115895619Y-128398590D01*
X115657524Y-128874781D02*
X115657524Y-127874781D01*
X116038477Y-127874781D01*
X116133715Y-127922400D01*
X116181334Y-127970019D01*
X116228953Y-128065257D01*
X116228953Y-128208114D01*
X116181334Y-128303352D01*
X116133715Y-128350971D01*
X116038477Y-128398590D01*
X115657524Y-128398590D01*
X116609905Y-127970019D02*
X116657524Y-127922400D01*
X116752762Y-127874781D01*
X116990858Y-127874781D01*
X117086096Y-127922400D01*
X117133715Y-127970019D01*
X117181334Y-128065257D01*
X117181334Y-128160495D01*
X117133715Y-128303352D01*
X116562286Y-128874781D01*
X117181334Y-128874781D01*
X117800381Y-127874781D02*
X117895620Y-127874781D01*
X117990858Y-127922400D01*
X118038477Y-127970019D01*
X118086096Y-128065257D01*
X118133715Y-128255733D01*
X118133715Y-128493829D01*
X118086096Y-128684305D01*
X118038477Y-128779543D01*
X117990858Y-128827162D01*
X117895620Y-128874781D01*
X117800381Y-128874781D01*
X117705143Y-128827162D01*
X117657524Y-128779543D01*
X117609905Y-128684305D01*
X117562286Y-128493829D01*
X117562286Y-128255733D01*
X117609905Y-128065257D01*
X117657524Y-127970019D01*
X117705143Y-127922400D01*
X117800381Y-127874781D01*
X119086096Y-128874781D02*
X118514667Y-128874781D01*
X118800381Y-128874781D02*
X118800381Y-127874781D01*
X118705143Y-128017638D01*
X118609905Y-128112876D01*
X118514667Y-128160495D01*
X110780953Y-124952381D02*
X110447619Y-124476190D01*
X110209524Y-124952381D02*
X110209524Y-123952381D01*
X110590477Y-123952381D01*
X110685715Y-124000000D01*
X110733334Y-124047619D01*
X110780953Y-124142857D01*
X110780953Y-124285714D01*
X110733334Y-124380952D01*
X110685715Y-124428571D01*
X110590477Y-124476190D01*
X110209524Y-124476190D01*
X111161905Y-124047619D02*
X111209524Y-124000000D01*
X111304762Y-123952381D01*
X111542858Y-123952381D01*
X111638096Y-124000000D01*
X111685715Y-124047619D01*
X111733334Y-124142857D01*
X111733334Y-124238095D01*
X111685715Y-124380952D01*
X111114286Y-124952381D01*
X111733334Y-124952381D01*
X112352381Y-123952381D02*
X112447620Y-123952381D01*
X112542858Y-124000000D01*
X112590477Y-124047619D01*
X112638096Y-124142857D01*
X112685715Y-124333333D01*
X112685715Y-124571429D01*
X112638096Y-124761905D01*
X112590477Y-124857143D01*
X112542858Y-124904762D01*
X112447620Y-124952381D01*
X112352381Y-124952381D01*
X112257143Y-124904762D01*
X112209524Y-124857143D01*
X112161905Y-124761905D01*
X112114286Y-124571429D01*
X112114286Y-124333333D01*
X112161905Y-124142857D01*
X112209524Y-124047619D01*
X112257143Y-124000000D01*
X112352381Y-123952381D01*
X113066667Y-124047619D02*
X113114286Y-124000000D01*
X113209524Y-123952381D01*
X113447620Y-123952381D01*
X113542858Y-124000000D01*
X113590477Y-124047619D01*
X113638096Y-124142857D01*
X113638096Y-124238095D01*
X113590477Y-124380952D01*
X113019048Y-124952381D01*
X113638096Y-124952381D01*
X120251481Y-120143447D02*
X119775290Y-120476781D01*
X120251481Y-120714876D02*
X119251481Y-120714876D01*
X119251481Y-120333923D01*
X119299100Y-120238685D01*
X119346719Y-120191066D01*
X119441957Y-120143447D01*
X119584814Y-120143447D01*
X119680052Y-120191066D01*
X119727671Y-120238685D01*
X119775290Y-120333923D01*
X119775290Y-120714876D01*
X119346719Y-119762495D02*
X119299100Y-119714876D01*
X119251481Y-119619638D01*
X119251481Y-119381542D01*
X119299100Y-119286304D01*
X119346719Y-119238685D01*
X119441957Y-119191066D01*
X119537195Y-119191066D01*
X119680052Y-119238685D01*
X120251481Y-119810114D01*
X120251481Y-119191066D01*
X119251481Y-118572019D02*
X119251481Y-118476780D01*
X119299100Y-118381542D01*
X119346719Y-118333923D01*
X119441957Y-118286304D01*
X119632433Y-118238685D01*
X119870529Y-118238685D01*
X120061005Y-118286304D01*
X120156243Y-118333923D01*
X120203862Y-118381542D01*
X120251481Y-118476780D01*
X120251481Y-118572019D01*
X120203862Y-118667257D01*
X120156243Y-118714876D01*
X120061005Y-118762495D01*
X119870529Y-118810114D01*
X119632433Y-118810114D01*
X119441957Y-118762495D01*
X119346719Y-118714876D01*
X119299100Y-118667257D01*
X119251481Y-118572019D01*
X119251481Y-117905352D02*
X119251481Y-117286304D01*
X119632433Y-117619638D01*
X119632433Y-117476780D01*
X119680052Y-117381542D01*
X119727671Y-117333923D01*
X119822910Y-117286304D01*
X120061005Y-117286304D01*
X120156243Y-117333923D01*
X120203862Y-117381542D01*
X120251481Y-117476780D01*
X120251481Y-117762495D01*
X120203862Y-117857733D01*
X120156243Y-117905352D01*
X122667853Y-115692181D02*
X122334519Y-115215990D01*
X122096424Y-115692181D02*
X122096424Y-114692181D01*
X122477377Y-114692181D01*
X122572615Y-114739800D01*
X122620234Y-114787419D01*
X122667853Y-114882657D01*
X122667853Y-115025514D01*
X122620234Y-115120752D01*
X122572615Y-115168371D01*
X122477377Y-115215990D01*
X122096424Y-115215990D01*
X123048805Y-114787419D02*
X123096424Y-114739800D01*
X123191662Y-114692181D01*
X123429758Y-114692181D01*
X123524996Y-114739800D01*
X123572615Y-114787419D01*
X123620234Y-114882657D01*
X123620234Y-114977895D01*
X123572615Y-115120752D01*
X123001186Y-115692181D01*
X123620234Y-115692181D01*
X124239281Y-114692181D02*
X124334520Y-114692181D01*
X124429758Y-114739800D01*
X124477377Y-114787419D01*
X124524996Y-114882657D01*
X124572615Y-115073133D01*
X124572615Y-115311229D01*
X124524996Y-115501705D01*
X124477377Y-115596943D01*
X124429758Y-115644562D01*
X124334520Y-115692181D01*
X124239281Y-115692181D01*
X124144043Y-115644562D01*
X124096424Y-115596943D01*
X124048805Y-115501705D01*
X124001186Y-115311229D01*
X124001186Y-115073133D01*
X124048805Y-114882657D01*
X124096424Y-114787419D01*
X124144043Y-114739800D01*
X124239281Y-114692181D01*
X125429758Y-115025514D02*
X125429758Y-115692181D01*
X125191662Y-114644562D02*
X124953567Y-115358848D01*
X125572615Y-115358848D01*
X110980953Y-121952381D02*
X110647619Y-121476190D01*
X110409524Y-121952381D02*
X110409524Y-120952381D01*
X110790477Y-120952381D01*
X110885715Y-121000000D01*
X110933334Y-121047619D01*
X110980953Y-121142857D01*
X110980953Y-121285714D01*
X110933334Y-121380952D01*
X110885715Y-121428571D01*
X110790477Y-121476190D01*
X110409524Y-121476190D01*
X111361905Y-121047619D02*
X111409524Y-121000000D01*
X111504762Y-120952381D01*
X111742858Y-120952381D01*
X111838096Y-121000000D01*
X111885715Y-121047619D01*
X111933334Y-121142857D01*
X111933334Y-121238095D01*
X111885715Y-121380952D01*
X111314286Y-121952381D01*
X111933334Y-121952381D01*
X112552381Y-120952381D02*
X112647620Y-120952381D01*
X112742858Y-121000000D01*
X112790477Y-121047619D01*
X112838096Y-121142857D01*
X112885715Y-121333333D01*
X112885715Y-121571429D01*
X112838096Y-121761905D01*
X112790477Y-121857143D01*
X112742858Y-121904762D01*
X112647620Y-121952381D01*
X112552381Y-121952381D01*
X112457143Y-121904762D01*
X112409524Y-121857143D01*
X112361905Y-121761905D01*
X112314286Y-121571429D01*
X112314286Y-121333333D01*
X112361905Y-121142857D01*
X112409524Y-121047619D01*
X112457143Y-121000000D01*
X112552381Y-120952381D01*
X113790477Y-120952381D02*
X113314286Y-120952381D01*
X113266667Y-121428571D01*
X113314286Y-121380952D01*
X113409524Y-121333333D01*
X113647620Y-121333333D01*
X113742858Y-121380952D01*
X113790477Y-121428571D01*
X113838096Y-121523810D01*
X113838096Y-121761905D01*
X113790477Y-121857143D01*
X113742858Y-121904762D01*
X113647620Y-121952381D01*
X113409524Y-121952381D01*
X113314286Y-121904762D01*
X113266667Y-121857143D01*
X118730853Y-115768381D02*
X118397519Y-115292190D01*
X118159424Y-115768381D02*
X118159424Y-114768381D01*
X118540377Y-114768381D01*
X118635615Y-114816000D01*
X118683234Y-114863619D01*
X118730853Y-114958857D01*
X118730853Y-115101714D01*
X118683234Y-115196952D01*
X118635615Y-115244571D01*
X118540377Y-115292190D01*
X118159424Y-115292190D01*
X119111805Y-114863619D02*
X119159424Y-114816000D01*
X119254662Y-114768381D01*
X119492758Y-114768381D01*
X119587996Y-114816000D01*
X119635615Y-114863619D01*
X119683234Y-114958857D01*
X119683234Y-115054095D01*
X119635615Y-115196952D01*
X119064186Y-115768381D01*
X119683234Y-115768381D01*
X120302281Y-114768381D02*
X120397520Y-114768381D01*
X120492758Y-114816000D01*
X120540377Y-114863619D01*
X120587996Y-114958857D01*
X120635615Y-115149333D01*
X120635615Y-115387429D01*
X120587996Y-115577905D01*
X120540377Y-115673143D01*
X120492758Y-115720762D01*
X120397520Y-115768381D01*
X120302281Y-115768381D01*
X120207043Y-115720762D01*
X120159424Y-115673143D01*
X120111805Y-115577905D01*
X120064186Y-115387429D01*
X120064186Y-115149333D01*
X120111805Y-114958857D01*
X120159424Y-114863619D01*
X120207043Y-114816000D01*
X120302281Y-114768381D01*
X121492758Y-114768381D02*
X121302281Y-114768381D01*
X121207043Y-114816000D01*
X121159424Y-114863619D01*
X121064186Y-115006476D01*
X121016567Y-115196952D01*
X121016567Y-115577905D01*
X121064186Y-115673143D01*
X121111805Y-115720762D01*
X121207043Y-115768381D01*
X121397520Y-115768381D01*
X121492758Y-115720762D01*
X121540377Y-115673143D01*
X121587996Y-115577905D01*
X121587996Y-115339810D01*
X121540377Y-115244571D01*
X121492758Y-115196952D01*
X121397520Y-115149333D01*
X121207043Y-115149333D01*
X121111805Y-115196952D01*
X121064186Y-115244571D01*
X121016567Y-115339810D01*
X118892581Y-121654747D02*
X118416390Y-121988081D01*
X118892581Y-122226176D02*
X117892581Y-122226176D01*
X117892581Y-121845223D01*
X117940200Y-121749985D01*
X117987819Y-121702366D01*
X118083057Y-121654747D01*
X118225914Y-121654747D01*
X118321152Y-121702366D01*
X118368771Y-121749985D01*
X118416390Y-121845223D01*
X118416390Y-122226176D01*
X117987819Y-121273795D02*
X117940200Y-121226176D01*
X117892581Y-121130938D01*
X117892581Y-120892842D01*
X117940200Y-120797604D01*
X117987819Y-120749985D01*
X118083057Y-120702366D01*
X118178295Y-120702366D01*
X118321152Y-120749985D01*
X118892581Y-121321414D01*
X118892581Y-120702366D01*
X117892581Y-120083319D02*
X117892581Y-119988080D01*
X117940200Y-119892842D01*
X117987819Y-119845223D01*
X118083057Y-119797604D01*
X118273533Y-119749985D01*
X118511629Y-119749985D01*
X118702105Y-119797604D01*
X118797343Y-119845223D01*
X118844962Y-119892842D01*
X118892581Y-119988080D01*
X118892581Y-120083319D01*
X118844962Y-120178557D01*
X118797343Y-120226176D01*
X118702105Y-120273795D01*
X118511629Y-120321414D01*
X118273533Y-120321414D01*
X118083057Y-120273795D01*
X117987819Y-120226176D01*
X117940200Y-120178557D01*
X117892581Y-120083319D01*
X117892581Y-119416652D02*
X117892581Y-118749985D01*
X118892581Y-119178557D01*
X109752381Y-112419047D02*
X109276190Y-112752381D01*
X109752381Y-112990476D02*
X108752381Y-112990476D01*
X108752381Y-112609523D01*
X108800000Y-112514285D01*
X108847619Y-112466666D01*
X108942857Y-112419047D01*
X109085714Y-112419047D01*
X109180952Y-112466666D01*
X109228571Y-112514285D01*
X109276190Y-112609523D01*
X109276190Y-112990476D01*
X108847619Y-112038095D02*
X108800000Y-111990476D01*
X108752381Y-111895238D01*
X108752381Y-111657142D01*
X108800000Y-111561904D01*
X108847619Y-111514285D01*
X108942857Y-111466666D01*
X109038095Y-111466666D01*
X109180952Y-111514285D01*
X109752381Y-112085714D01*
X109752381Y-111466666D01*
X108752381Y-110847619D02*
X108752381Y-110752380D01*
X108800000Y-110657142D01*
X108847619Y-110609523D01*
X108942857Y-110561904D01*
X109133333Y-110514285D01*
X109371429Y-110514285D01*
X109561905Y-110561904D01*
X109657143Y-110609523D01*
X109704762Y-110657142D01*
X109752381Y-110752380D01*
X109752381Y-110847619D01*
X109704762Y-110942857D01*
X109657143Y-110990476D01*
X109561905Y-111038095D01*
X109371429Y-111085714D01*
X109133333Y-111085714D01*
X108942857Y-111038095D01*
X108847619Y-110990476D01*
X108800000Y-110942857D01*
X108752381Y-110847619D01*
X109180952Y-109942857D02*
X109133333Y-110038095D01*
X109085714Y-110085714D01*
X108990476Y-110133333D01*
X108942857Y-110133333D01*
X108847619Y-110085714D01*
X108800000Y-110038095D01*
X108752381Y-109942857D01*
X108752381Y-109752380D01*
X108800000Y-109657142D01*
X108847619Y-109609523D01*
X108942857Y-109561904D01*
X108990476Y-109561904D01*
X109085714Y-109609523D01*
X109133333Y-109657142D01*
X109180952Y-109752380D01*
X109180952Y-109942857D01*
X109228571Y-110038095D01*
X109276190Y-110085714D01*
X109371429Y-110133333D01*
X109561905Y-110133333D01*
X109657143Y-110085714D01*
X109704762Y-110038095D01*
X109752381Y-109942857D01*
X109752381Y-109752380D01*
X109704762Y-109657142D01*
X109657143Y-109609523D01*
X109561905Y-109561904D01*
X109371429Y-109561904D01*
X109276190Y-109609523D01*
X109228571Y-109657142D01*
X109180952Y-109752380D01*
X130275153Y-123680481D02*
X129941819Y-123204290D01*
X129703724Y-123680481D02*
X129703724Y-122680481D01*
X130084677Y-122680481D01*
X130179915Y-122728100D01*
X130227534Y-122775719D01*
X130275153Y-122870957D01*
X130275153Y-123013814D01*
X130227534Y-123109052D01*
X130179915Y-123156671D01*
X130084677Y-123204290D01*
X129703724Y-123204290D01*
X130608486Y-122680481D02*
X131227534Y-122680481D01*
X130894200Y-123061433D01*
X131037058Y-123061433D01*
X131132296Y-123109052D01*
X131179915Y-123156671D01*
X131227534Y-123251910D01*
X131227534Y-123490005D01*
X131179915Y-123585243D01*
X131132296Y-123632862D01*
X131037058Y-123680481D01*
X130751343Y-123680481D01*
X130656105Y-123632862D01*
X130608486Y-123585243D01*
X131846581Y-122680481D02*
X131941820Y-122680481D01*
X132037058Y-122728100D01*
X132084677Y-122775719D01*
X132132296Y-122870957D01*
X132179915Y-123061433D01*
X132179915Y-123299529D01*
X132132296Y-123490005D01*
X132084677Y-123585243D01*
X132037058Y-123632862D01*
X131941820Y-123680481D01*
X131846581Y-123680481D01*
X131751343Y-123632862D01*
X131703724Y-123585243D01*
X131656105Y-123490005D01*
X131608486Y-123299529D01*
X131608486Y-123061433D01*
X131656105Y-122870957D01*
X131703724Y-122775719D01*
X131751343Y-122728100D01*
X131846581Y-122680481D01*
X133132296Y-123680481D02*
X132560867Y-123680481D01*
X132846581Y-123680481D02*
X132846581Y-122680481D01*
X132751343Y-122823338D01*
X132656105Y-122918576D01*
X132560867Y-122966195D01*
X130930953Y-128252381D02*
X130597619Y-127776190D01*
X130359524Y-128252381D02*
X130359524Y-127252381D01*
X130740477Y-127252381D01*
X130835715Y-127300000D01*
X130883334Y-127347619D01*
X130930953Y-127442857D01*
X130930953Y-127585714D01*
X130883334Y-127680952D01*
X130835715Y-127728571D01*
X130740477Y-127776190D01*
X130359524Y-127776190D01*
X131264286Y-127252381D02*
X131883334Y-127252381D01*
X131550000Y-127633333D01*
X131692858Y-127633333D01*
X131788096Y-127680952D01*
X131835715Y-127728571D01*
X131883334Y-127823810D01*
X131883334Y-128061905D01*
X131835715Y-128157143D01*
X131788096Y-128204762D01*
X131692858Y-128252381D01*
X131407143Y-128252381D01*
X131311905Y-128204762D01*
X131264286Y-128157143D01*
X132502381Y-127252381D02*
X132597620Y-127252381D01*
X132692858Y-127300000D01*
X132740477Y-127347619D01*
X132788096Y-127442857D01*
X132835715Y-127633333D01*
X132835715Y-127871429D01*
X132788096Y-128061905D01*
X132740477Y-128157143D01*
X132692858Y-128204762D01*
X132597620Y-128252381D01*
X132502381Y-128252381D01*
X132407143Y-128204762D01*
X132359524Y-128157143D01*
X132311905Y-128061905D01*
X132264286Y-127871429D01*
X132264286Y-127633333D01*
X132311905Y-127442857D01*
X132359524Y-127347619D01*
X132407143Y-127300000D01*
X132502381Y-127252381D01*
X133216667Y-127347619D02*
X133264286Y-127300000D01*
X133359524Y-127252381D01*
X133597620Y-127252381D01*
X133692858Y-127300000D01*
X133740477Y-127347619D01*
X133788096Y-127442857D01*
X133788096Y-127538095D01*
X133740477Y-127680952D01*
X133169048Y-128252381D01*
X133788096Y-128252381D01*
X116609953Y-146070581D02*
X116276619Y-145594390D01*
X116038524Y-146070581D02*
X116038524Y-145070581D01*
X116419477Y-145070581D01*
X116514715Y-145118200D01*
X116562334Y-145165819D01*
X116609953Y-145261057D01*
X116609953Y-145403914D01*
X116562334Y-145499152D01*
X116514715Y-145546771D01*
X116419477Y-145594390D01*
X116038524Y-145594390D01*
X117467096Y-145403914D02*
X117467096Y-146070581D01*
X117229000Y-145022962D02*
X116990905Y-145737248D01*
X117609953Y-145737248D01*
X118181381Y-145070581D02*
X118276620Y-145070581D01*
X118371858Y-145118200D01*
X118419477Y-145165819D01*
X118467096Y-145261057D01*
X118514715Y-145451533D01*
X118514715Y-145689629D01*
X118467096Y-145880105D01*
X118419477Y-145975343D01*
X118371858Y-146022962D01*
X118276620Y-146070581D01*
X118181381Y-146070581D01*
X118086143Y-146022962D01*
X118038524Y-145975343D01*
X117990905Y-145880105D01*
X117943286Y-145689629D01*
X117943286Y-145451533D01*
X117990905Y-145261057D01*
X118038524Y-145165819D01*
X118086143Y-145118200D01*
X118181381Y-145070581D01*
X119467096Y-146070581D02*
X118895667Y-146070581D01*
X119181381Y-146070581D02*
X119181381Y-145070581D01*
X119086143Y-145213438D01*
X118990905Y-145308676D01*
X118895667Y-145356295D01*
X134180953Y-133252381D02*
X133847619Y-132776190D01*
X133609524Y-133252381D02*
X133609524Y-132252381D01*
X133990477Y-132252381D01*
X134085715Y-132300000D01*
X134133334Y-132347619D01*
X134180953Y-132442857D01*
X134180953Y-132585714D01*
X134133334Y-132680952D01*
X134085715Y-132728571D01*
X133990477Y-132776190D01*
X133609524Y-132776190D01*
X135038096Y-132585714D02*
X135038096Y-133252381D01*
X134800000Y-132204762D02*
X134561905Y-132919048D01*
X135180953Y-132919048D01*
X135752381Y-132252381D02*
X135847620Y-132252381D01*
X135942858Y-132300000D01*
X135990477Y-132347619D01*
X136038096Y-132442857D01*
X136085715Y-132633333D01*
X136085715Y-132871429D01*
X136038096Y-133061905D01*
X135990477Y-133157143D01*
X135942858Y-133204762D01*
X135847620Y-133252381D01*
X135752381Y-133252381D01*
X135657143Y-133204762D01*
X135609524Y-133157143D01*
X135561905Y-133061905D01*
X135514286Y-132871429D01*
X135514286Y-132633333D01*
X135561905Y-132442857D01*
X135609524Y-132347619D01*
X135657143Y-132300000D01*
X135752381Y-132252381D01*
X136466667Y-132347619D02*
X136514286Y-132300000D01*
X136609524Y-132252381D01*
X136847620Y-132252381D01*
X136942858Y-132300000D01*
X136990477Y-132347619D01*
X137038096Y-132442857D01*
X137038096Y-132538095D01*
X136990477Y-132680952D01*
X136419048Y-133252381D01*
X137038096Y-133252381D01*
X132265681Y-145746647D02*
X131789490Y-146079981D01*
X132265681Y-146318076D02*
X131265681Y-146318076D01*
X131265681Y-145937123D01*
X131313300Y-145841885D01*
X131360919Y-145794266D01*
X131456157Y-145746647D01*
X131599014Y-145746647D01*
X131694252Y-145794266D01*
X131741871Y-145841885D01*
X131789490Y-145937123D01*
X131789490Y-146318076D01*
X131599014Y-144889504D02*
X132265681Y-144889504D01*
X131218062Y-145127600D02*
X131932348Y-145365695D01*
X131932348Y-144746647D01*
X131265681Y-144175219D02*
X131265681Y-144079980D01*
X131313300Y-143984742D01*
X131360919Y-143937123D01*
X131456157Y-143889504D01*
X131646633Y-143841885D01*
X131884729Y-143841885D01*
X132075205Y-143889504D01*
X132170443Y-143937123D01*
X132218062Y-143984742D01*
X132265681Y-144079980D01*
X132265681Y-144175219D01*
X132218062Y-144270457D01*
X132170443Y-144318076D01*
X132075205Y-144365695D01*
X131884729Y-144413314D01*
X131646633Y-144413314D01*
X131456157Y-144365695D01*
X131360919Y-144318076D01*
X131313300Y-144270457D01*
X131265681Y-144175219D01*
X131265681Y-143508552D02*
X131265681Y-142889504D01*
X131646633Y-143222838D01*
X131646633Y-143079980D01*
X131694252Y-142984742D01*
X131741871Y-142937123D01*
X131837110Y-142889504D01*
X132075205Y-142889504D01*
X132170443Y-142937123D01*
X132218062Y-142984742D01*
X132265681Y-143079980D01*
X132265681Y-143365695D01*
X132218062Y-143460933D01*
X132170443Y-143508552D01*
X124268053Y-149715481D02*
X123934719Y-149239290D01*
X123696624Y-149715481D02*
X123696624Y-148715481D01*
X124077577Y-148715481D01*
X124172815Y-148763100D01*
X124220434Y-148810719D01*
X124268053Y-148905957D01*
X124268053Y-149048814D01*
X124220434Y-149144052D01*
X124172815Y-149191671D01*
X124077577Y-149239290D01*
X123696624Y-149239290D01*
X125125196Y-149048814D02*
X125125196Y-149715481D01*
X124887100Y-148667862D02*
X124649005Y-149382148D01*
X125268053Y-149382148D01*
X125839481Y-148715481D02*
X125934720Y-148715481D01*
X126029958Y-148763100D01*
X126077577Y-148810719D01*
X126125196Y-148905957D01*
X126172815Y-149096433D01*
X126172815Y-149334529D01*
X126125196Y-149525005D01*
X126077577Y-149620243D01*
X126029958Y-149667862D01*
X125934720Y-149715481D01*
X125839481Y-149715481D01*
X125744243Y-149667862D01*
X125696624Y-149620243D01*
X125649005Y-149525005D01*
X125601386Y-149334529D01*
X125601386Y-149096433D01*
X125649005Y-148905957D01*
X125696624Y-148810719D01*
X125744243Y-148763100D01*
X125839481Y-148715481D01*
X127029958Y-149048814D02*
X127029958Y-149715481D01*
X126791862Y-148667862D02*
X126553767Y-149382148D01*
X127172815Y-149382148D01*
X125258653Y-140380981D02*
X124925319Y-139904790D01*
X124687224Y-140380981D02*
X124687224Y-139380981D01*
X125068177Y-139380981D01*
X125163415Y-139428600D01*
X125211034Y-139476219D01*
X125258653Y-139571457D01*
X125258653Y-139714314D01*
X125211034Y-139809552D01*
X125163415Y-139857171D01*
X125068177Y-139904790D01*
X124687224Y-139904790D01*
X126115796Y-139714314D02*
X126115796Y-140380981D01*
X125877700Y-139333362D02*
X125639605Y-140047648D01*
X126258653Y-140047648D01*
X126830081Y-139380981D02*
X126925320Y-139380981D01*
X127020558Y-139428600D01*
X127068177Y-139476219D01*
X127115796Y-139571457D01*
X127163415Y-139761933D01*
X127163415Y-140000029D01*
X127115796Y-140190505D01*
X127068177Y-140285743D01*
X127020558Y-140333362D01*
X126925320Y-140380981D01*
X126830081Y-140380981D01*
X126734843Y-140333362D01*
X126687224Y-140285743D01*
X126639605Y-140190505D01*
X126591986Y-140000029D01*
X126591986Y-139761933D01*
X126639605Y-139571457D01*
X126687224Y-139476219D01*
X126734843Y-139428600D01*
X126830081Y-139380981D01*
X128068177Y-139380981D02*
X127591986Y-139380981D01*
X127544367Y-139857171D01*
X127591986Y-139809552D01*
X127687224Y-139761933D01*
X127925320Y-139761933D01*
X128020558Y-139809552D01*
X128068177Y-139857171D01*
X128115796Y-139952410D01*
X128115796Y-140190505D01*
X128068177Y-140285743D01*
X128020558Y-140333362D01*
X127925320Y-140380981D01*
X127687224Y-140380981D01*
X127591986Y-140333362D01*
X127544367Y-140285743D01*
X145930953Y-134152381D02*
X145597619Y-133676190D01*
X145359524Y-134152381D02*
X145359524Y-133152381D01*
X145740477Y-133152381D01*
X145835715Y-133200000D01*
X145883334Y-133247619D01*
X145930953Y-133342857D01*
X145930953Y-133485714D01*
X145883334Y-133580952D01*
X145835715Y-133628571D01*
X145740477Y-133676190D01*
X145359524Y-133676190D01*
X146788096Y-133485714D02*
X146788096Y-134152381D01*
X146550000Y-133104762D02*
X146311905Y-133819048D01*
X146930953Y-133819048D01*
X147502381Y-133152381D02*
X147597620Y-133152381D01*
X147692858Y-133200000D01*
X147740477Y-133247619D01*
X147788096Y-133342857D01*
X147835715Y-133533333D01*
X147835715Y-133771429D01*
X147788096Y-133961905D01*
X147740477Y-134057143D01*
X147692858Y-134104762D01*
X147597620Y-134152381D01*
X147502381Y-134152381D01*
X147407143Y-134104762D01*
X147359524Y-134057143D01*
X147311905Y-133961905D01*
X147264286Y-133771429D01*
X147264286Y-133533333D01*
X147311905Y-133342857D01*
X147359524Y-133247619D01*
X147407143Y-133200000D01*
X147502381Y-133152381D01*
X148692858Y-133152381D02*
X148502381Y-133152381D01*
X148407143Y-133200000D01*
X148359524Y-133247619D01*
X148264286Y-133390476D01*
X148216667Y-133580952D01*
X148216667Y-133961905D01*
X148264286Y-134057143D01*
X148311905Y-134104762D01*
X148407143Y-134152381D01*
X148597620Y-134152381D01*
X148692858Y-134104762D01*
X148740477Y-134057143D01*
X148788096Y-133961905D01*
X148788096Y-133723810D01*
X148740477Y-133628571D01*
X148692858Y-133580952D01*
X148597620Y-133533333D01*
X148407143Y-133533333D01*
X148311905Y-133580952D01*
X148264286Y-133628571D01*
X148216667Y-133723810D01*
X132459553Y-140495281D02*
X132126219Y-140019090D01*
X131888124Y-140495281D02*
X131888124Y-139495281D01*
X132269077Y-139495281D01*
X132364315Y-139542900D01*
X132411934Y-139590519D01*
X132459553Y-139685757D01*
X132459553Y-139828614D01*
X132411934Y-139923852D01*
X132364315Y-139971471D01*
X132269077Y-140019090D01*
X131888124Y-140019090D01*
X133316696Y-139828614D02*
X133316696Y-140495281D01*
X133078600Y-139447662D02*
X132840505Y-140161948D01*
X133459553Y-140161948D01*
X134030981Y-139495281D02*
X134126220Y-139495281D01*
X134221458Y-139542900D01*
X134269077Y-139590519D01*
X134316696Y-139685757D01*
X134364315Y-139876233D01*
X134364315Y-140114329D01*
X134316696Y-140304805D01*
X134269077Y-140400043D01*
X134221458Y-140447662D01*
X134126220Y-140495281D01*
X134030981Y-140495281D01*
X133935743Y-140447662D01*
X133888124Y-140400043D01*
X133840505Y-140304805D01*
X133792886Y-140114329D01*
X133792886Y-139876233D01*
X133840505Y-139685757D01*
X133888124Y-139590519D01*
X133935743Y-139542900D01*
X134030981Y-139495281D01*
X134697648Y-139495281D02*
X135364315Y-139495281D01*
X134935743Y-140495281D01*
X147446981Y-140670448D02*
X147547996Y-140098027D01*
X147042919Y-140266387D02*
X147750026Y-139559280D01*
X148019401Y-139828654D01*
X148053072Y-139929669D01*
X148053072Y-139997013D01*
X148019401Y-140098028D01*
X147918385Y-140199043D01*
X147817370Y-140232715D01*
X147750027Y-140232715D01*
X147649012Y-140199043D01*
X147379637Y-139929669D01*
X148524477Y-140805135D02*
X148053072Y-141276540D01*
X148625491Y-140367402D02*
X147952056Y-140704120D01*
X148389789Y-141141853D01*
X149265255Y-141074509D02*
X149332599Y-141141853D01*
X149366271Y-141242868D01*
X149366271Y-141310211D01*
X149332599Y-141411226D01*
X149231584Y-141579585D01*
X149063224Y-141747944D01*
X148894866Y-141848959D01*
X148793851Y-141882631D01*
X148726507Y-141882631D01*
X148625492Y-141848959D01*
X148558148Y-141781615D01*
X148524476Y-141680600D01*
X148524476Y-141613257D01*
X148558148Y-141512242D01*
X148659163Y-141343883D01*
X148827522Y-141175524D01*
X148995881Y-141074509D01*
X149096896Y-141040837D01*
X149164240Y-141040837D01*
X149265255Y-141074509D01*
X149601973Y-142017317D02*
X149568301Y-141916302D01*
X149568301Y-141848959D01*
X149601973Y-141747944D01*
X149635644Y-141714272D01*
X149736660Y-141680600D01*
X149804003Y-141680600D01*
X149905018Y-141714272D01*
X150039706Y-141848959D01*
X150073377Y-141949975D01*
X150073377Y-142017318D01*
X150039706Y-142118333D01*
X150006034Y-142152005D01*
X149905019Y-142185677D01*
X149837675Y-142185677D01*
X149736660Y-142152005D01*
X149601973Y-142017317D01*
X149500958Y-141983646D01*
X149433614Y-141983646D01*
X149332598Y-142017318D01*
X149197911Y-142152005D01*
X149164240Y-142253020D01*
X149164240Y-142320364D01*
X149197911Y-142421379D01*
X149332599Y-142556066D01*
X149433614Y-142589738D01*
X149500958Y-142589738D01*
X149601973Y-142556066D01*
X149736660Y-142421379D01*
X149770332Y-142320364D01*
X149770332Y-142253020D01*
X149736660Y-142152005D01*
X111453753Y-141422381D02*
X111120419Y-140946190D01*
X110882324Y-141422381D02*
X110882324Y-140422381D01*
X111263277Y-140422381D01*
X111358515Y-140470000D01*
X111406134Y-140517619D01*
X111453753Y-140612857D01*
X111453753Y-140755714D01*
X111406134Y-140850952D01*
X111358515Y-140898571D01*
X111263277Y-140946190D01*
X110882324Y-140946190D01*
X112310896Y-140422381D02*
X112120419Y-140422381D01*
X112025181Y-140470000D01*
X111977562Y-140517619D01*
X111882324Y-140660476D01*
X111834705Y-140850952D01*
X111834705Y-141231905D01*
X111882324Y-141327143D01*
X111929943Y-141374762D01*
X112025181Y-141422381D01*
X112215658Y-141422381D01*
X112310896Y-141374762D01*
X112358515Y-141327143D01*
X112406134Y-141231905D01*
X112406134Y-140993810D01*
X112358515Y-140898571D01*
X112310896Y-140850952D01*
X112215658Y-140803333D01*
X112025181Y-140803333D01*
X111929943Y-140850952D01*
X111882324Y-140898571D01*
X111834705Y-140993810D01*
X113025181Y-140422381D02*
X113120420Y-140422381D01*
X113215658Y-140470000D01*
X113263277Y-140517619D01*
X113310896Y-140612857D01*
X113358515Y-140803333D01*
X113358515Y-141041429D01*
X113310896Y-141231905D01*
X113263277Y-141327143D01*
X113215658Y-141374762D01*
X113120420Y-141422381D01*
X113025181Y-141422381D01*
X112929943Y-141374762D01*
X112882324Y-141327143D01*
X112834705Y-141231905D01*
X112787086Y-141041429D01*
X112787086Y-140803333D01*
X112834705Y-140612857D01*
X112882324Y-140517619D01*
X112929943Y-140470000D01*
X113025181Y-140422381D01*
X113739467Y-140517619D02*
X113787086Y-140470000D01*
X113882324Y-140422381D01*
X114120420Y-140422381D01*
X114215658Y-140470000D01*
X114263277Y-140517619D01*
X114310896Y-140612857D01*
X114310896Y-140708095D01*
X114263277Y-140850952D01*
X113691848Y-141422381D01*
X114310896Y-141422381D01*
X111568053Y-144063981D02*
X111234719Y-143587790D01*
X110996624Y-144063981D02*
X110996624Y-143063981D01*
X111377577Y-143063981D01*
X111472815Y-143111600D01*
X111520434Y-143159219D01*
X111568053Y-143254457D01*
X111568053Y-143397314D01*
X111520434Y-143492552D01*
X111472815Y-143540171D01*
X111377577Y-143587790D01*
X110996624Y-143587790D01*
X112425196Y-143063981D02*
X112234719Y-143063981D01*
X112139481Y-143111600D01*
X112091862Y-143159219D01*
X111996624Y-143302076D01*
X111949005Y-143492552D01*
X111949005Y-143873505D01*
X111996624Y-143968743D01*
X112044243Y-144016362D01*
X112139481Y-144063981D01*
X112329958Y-144063981D01*
X112425196Y-144016362D01*
X112472815Y-143968743D01*
X112520434Y-143873505D01*
X112520434Y-143635410D01*
X112472815Y-143540171D01*
X112425196Y-143492552D01*
X112329958Y-143444933D01*
X112139481Y-143444933D01*
X112044243Y-143492552D01*
X111996624Y-143540171D01*
X111949005Y-143635410D01*
X113139481Y-143063981D02*
X113234720Y-143063981D01*
X113329958Y-143111600D01*
X113377577Y-143159219D01*
X113425196Y-143254457D01*
X113472815Y-143444933D01*
X113472815Y-143683029D01*
X113425196Y-143873505D01*
X113377577Y-143968743D01*
X113329958Y-144016362D01*
X113234720Y-144063981D01*
X113139481Y-144063981D01*
X113044243Y-144016362D01*
X112996624Y-143968743D01*
X112949005Y-143873505D01*
X112901386Y-143683029D01*
X112901386Y-143444933D01*
X112949005Y-143254457D01*
X112996624Y-143159219D01*
X113044243Y-143111600D01*
X113139481Y-143063981D01*
X114329958Y-143397314D02*
X114329958Y-144063981D01*
X114091862Y-143016362D02*
X113853767Y-143730648D01*
X114472815Y-143730648D01*
X111580953Y-135452381D02*
X111247619Y-134976190D01*
X111009524Y-135452381D02*
X111009524Y-134452381D01*
X111390477Y-134452381D01*
X111485715Y-134500000D01*
X111533334Y-134547619D01*
X111580953Y-134642857D01*
X111580953Y-134785714D01*
X111533334Y-134880952D01*
X111485715Y-134928571D01*
X111390477Y-134976190D01*
X111009524Y-134976190D01*
X112438096Y-134452381D02*
X112247619Y-134452381D01*
X112152381Y-134500000D01*
X112104762Y-134547619D01*
X112009524Y-134690476D01*
X111961905Y-134880952D01*
X111961905Y-135261905D01*
X112009524Y-135357143D01*
X112057143Y-135404762D01*
X112152381Y-135452381D01*
X112342858Y-135452381D01*
X112438096Y-135404762D01*
X112485715Y-135357143D01*
X112533334Y-135261905D01*
X112533334Y-135023810D01*
X112485715Y-134928571D01*
X112438096Y-134880952D01*
X112342858Y-134833333D01*
X112152381Y-134833333D01*
X112057143Y-134880952D01*
X112009524Y-134928571D01*
X111961905Y-135023810D01*
X113152381Y-134452381D02*
X113247620Y-134452381D01*
X113342858Y-134500000D01*
X113390477Y-134547619D01*
X113438096Y-134642857D01*
X113485715Y-134833333D01*
X113485715Y-135071429D01*
X113438096Y-135261905D01*
X113390477Y-135357143D01*
X113342858Y-135404762D01*
X113247620Y-135452381D01*
X113152381Y-135452381D01*
X113057143Y-135404762D01*
X113009524Y-135357143D01*
X112961905Y-135261905D01*
X112914286Y-135071429D01*
X112914286Y-134833333D01*
X112961905Y-134642857D01*
X113009524Y-134547619D01*
X113057143Y-134500000D01*
X113152381Y-134452381D01*
X114390477Y-134452381D02*
X113914286Y-134452381D01*
X113866667Y-134928571D01*
X113914286Y-134880952D01*
X114009524Y-134833333D01*
X114247620Y-134833333D01*
X114342858Y-134880952D01*
X114390477Y-134928571D01*
X114438096Y-135023810D01*
X114438096Y-135261905D01*
X114390477Y-135357143D01*
X114342858Y-135404762D01*
X114247620Y-135452381D01*
X114009524Y-135452381D01*
X113914286Y-135404762D01*
X113866667Y-135357143D01*
X138034781Y-144538486D02*
X138034781Y-143967057D01*
X139034781Y-144252772D02*
X138034781Y-144252772D01*
X138368114Y-143205152D02*
X139034781Y-143205152D01*
X137987162Y-143443248D02*
X138701448Y-143681343D01*
X138701448Y-143062295D01*
X138034781Y-142490867D02*
X138034781Y-142395628D01*
X138082400Y-142300390D01*
X138130019Y-142252771D01*
X138225257Y-142205152D01*
X138415733Y-142157533D01*
X138653829Y-142157533D01*
X138844305Y-142205152D01*
X138939543Y-142252771D01*
X138987162Y-142300390D01*
X139034781Y-142395628D01*
X139034781Y-142490867D01*
X138987162Y-142586105D01*
X138939543Y-142633724D01*
X138844305Y-142681343D01*
X138653829Y-142728962D01*
X138415733Y-142728962D01*
X138225257Y-142681343D01*
X138130019Y-142633724D01*
X138082400Y-142586105D01*
X138034781Y-142490867D01*
X139034781Y-141205152D02*
X139034781Y-141776581D01*
X139034781Y-141490867D02*
X138034781Y-141490867D01*
X138177638Y-141586105D01*
X138272876Y-141681343D01*
X138320495Y-141776581D01*
X136626814Y-123124981D02*
X137198243Y-123124981D01*
X136912528Y-124124981D02*
X136912528Y-123124981D01*
X137960148Y-123458314D02*
X137960148Y-124124981D01*
X137722052Y-123077362D02*
X137483957Y-123791648D01*
X138103005Y-123791648D01*
X138674433Y-123124981D02*
X138769672Y-123124981D01*
X138864910Y-123172600D01*
X138912529Y-123220219D01*
X138960148Y-123315457D01*
X139007767Y-123505933D01*
X139007767Y-123744029D01*
X138960148Y-123934505D01*
X138912529Y-124029743D01*
X138864910Y-124077362D01*
X138769672Y-124124981D01*
X138674433Y-124124981D01*
X138579195Y-124077362D01*
X138531576Y-124029743D01*
X138483957Y-123934505D01*
X138436338Y-123744029D01*
X138436338Y-123505933D01*
X138483957Y-123315457D01*
X138531576Y-123220219D01*
X138579195Y-123172600D01*
X138674433Y-123124981D01*
X139388719Y-123220219D02*
X139436338Y-123172600D01*
X139531576Y-123124981D01*
X139769672Y-123124981D01*
X139864910Y-123172600D01*
X139912529Y-123220219D01*
X139960148Y-123315457D01*
X139960148Y-123410695D01*
X139912529Y-123553552D01*
X139341100Y-124124981D01*
X139960148Y-124124981D01*
X139433842Y-113348292D02*
X138861422Y-113920712D01*
X138827750Y-114021727D01*
X138827750Y-114089070D01*
X138861422Y-114190085D01*
X138996110Y-114324773D01*
X139097125Y-114358445D01*
X139164468Y-114358445D01*
X139265483Y-114324773D01*
X139837903Y-113752353D01*
X139837903Y-115166567D02*
X139433842Y-114762505D01*
X139635872Y-114964536D02*
X140342979Y-114257429D01*
X140174620Y-114291100D01*
X140039933Y-114291100D01*
X139938918Y-114257429D01*
X140982742Y-114897192D02*
X141050086Y-114964536D01*
X141083758Y-115065551D01*
X141083758Y-115132895D01*
X141050086Y-115233910D01*
X140949071Y-115402269D01*
X140780712Y-115570628D01*
X140612353Y-115671643D01*
X140511338Y-115705315D01*
X140443995Y-115705315D01*
X140342980Y-115671643D01*
X140275636Y-115604299D01*
X140241964Y-115503284D01*
X140241964Y-115435940D01*
X140275636Y-115334925D01*
X140376651Y-115166567D01*
X140545010Y-114998207D01*
X140713369Y-114897192D01*
X140814384Y-114863520D01*
X140881727Y-114863520D01*
X140982742Y-114897192D01*
X141184773Y-116513437D02*
X140780712Y-116109375D01*
X140982742Y-116311406D02*
X141689849Y-115604299D01*
X141521490Y-115637971D01*
X141386804Y-115637971D01*
X141285788Y-115604299D01*
X123556781Y-125285286D02*
X124366305Y-125285286D01*
X124461543Y-125237667D01*
X124509162Y-125190048D01*
X124556781Y-125094810D01*
X124556781Y-124904333D01*
X124509162Y-124809095D01*
X124461543Y-124761476D01*
X124366305Y-124713857D01*
X123556781Y-124713857D01*
X123652019Y-124285286D02*
X123604400Y-124237667D01*
X123556781Y-124142429D01*
X123556781Y-123904333D01*
X123604400Y-123809095D01*
X123652019Y-123761476D01*
X123747257Y-123713857D01*
X123842495Y-123713857D01*
X123985352Y-123761476D01*
X124556781Y-124332905D01*
X124556781Y-123713857D01*
X123556781Y-123094810D02*
X123556781Y-122999571D01*
X123604400Y-122904333D01*
X123652019Y-122856714D01*
X123747257Y-122809095D01*
X123937733Y-122761476D01*
X124175829Y-122761476D01*
X124366305Y-122809095D01*
X124461543Y-122856714D01*
X124509162Y-122904333D01*
X124556781Y-122999571D01*
X124556781Y-123094810D01*
X124509162Y-123190048D01*
X124461543Y-123237667D01*
X124366305Y-123285286D01*
X124175829Y-123332905D01*
X123937733Y-123332905D01*
X123747257Y-123285286D01*
X123652019Y-123237667D01*
X123604400Y-123190048D01*
X123556781Y-123094810D01*
X124556781Y-121809095D02*
X124556781Y-122380524D01*
X124556781Y-122094810D02*
X123556781Y-122094810D01*
X123699638Y-122190048D01*
X123794876Y-122285286D01*
X123842495Y-122380524D01*
X123952381Y-112864286D02*
X124761905Y-112864286D01*
X124857143Y-112816667D01*
X124904762Y-112769048D01*
X124952381Y-112673810D01*
X124952381Y-112483333D01*
X124904762Y-112388095D01*
X124857143Y-112340476D01*
X124761905Y-112292857D01*
X123952381Y-112292857D01*
X124047619Y-111864286D02*
X124000000Y-111816667D01*
X123952381Y-111721429D01*
X123952381Y-111483333D01*
X124000000Y-111388095D01*
X124047619Y-111340476D01*
X124142857Y-111292857D01*
X124238095Y-111292857D01*
X124380952Y-111340476D01*
X124952381Y-111911905D01*
X124952381Y-111292857D01*
X123952381Y-110673810D02*
X123952381Y-110578571D01*
X124000000Y-110483333D01*
X124047619Y-110435714D01*
X124142857Y-110388095D01*
X124333333Y-110340476D01*
X124571429Y-110340476D01*
X124761905Y-110388095D01*
X124857143Y-110435714D01*
X124904762Y-110483333D01*
X124952381Y-110578571D01*
X124952381Y-110673810D01*
X124904762Y-110769048D01*
X124857143Y-110816667D01*
X124761905Y-110864286D01*
X124571429Y-110911905D01*
X124333333Y-110911905D01*
X124142857Y-110864286D01*
X124047619Y-110816667D01*
X124000000Y-110769048D01*
X123952381Y-110673810D01*
X124047619Y-109959524D02*
X124000000Y-109911905D01*
X123952381Y-109816667D01*
X123952381Y-109578571D01*
X124000000Y-109483333D01*
X124047619Y-109435714D01*
X124142857Y-109388095D01*
X124238095Y-109388095D01*
X124380952Y-109435714D01*
X124952381Y-110007143D01*
X124952381Y-109388095D01*
X111977381Y-112714286D02*
X112786905Y-112714286D01*
X112882143Y-112666667D01*
X112929762Y-112619048D01*
X112977381Y-112523810D01*
X112977381Y-112333333D01*
X112929762Y-112238095D01*
X112882143Y-112190476D01*
X112786905Y-112142857D01*
X111977381Y-112142857D01*
X112072619Y-111714286D02*
X112025000Y-111666667D01*
X111977381Y-111571429D01*
X111977381Y-111333333D01*
X112025000Y-111238095D01*
X112072619Y-111190476D01*
X112167857Y-111142857D01*
X112263095Y-111142857D01*
X112405952Y-111190476D01*
X112977381Y-111761905D01*
X112977381Y-111142857D01*
X111977381Y-110523810D02*
X111977381Y-110428571D01*
X112025000Y-110333333D01*
X112072619Y-110285714D01*
X112167857Y-110238095D01*
X112358333Y-110190476D01*
X112596429Y-110190476D01*
X112786905Y-110238095D01*
X112882143Y-110285714D01*
X112929762Y-110333333D01*
X112977381Y-110428571D01*
X112977381Y-110523810D01*
X112929762Y-110619048D01*
X112882143Y-110666667D01*
X112786905Y-110714286D01*
X112596429Y-110761905D01*
X112358333Y-110761905D01*
X112167857Y-110714286D01*
X112072619Y-110666667D01*
X112025000Y-110619048D01*
X111977381Y-110523810D01*
X111977381Y-109857143D02*
X111977381Y-109238095D01*
X112358333Y-109571429D01*
X112358333Y-109428571D01*
X112405952Y-109333333D01*
X112453571Y-109285714D01*
X112548810Y-109238095D01*
X112786905Y-109238095D01*
X112882143Y-109285714D01*
X112929762Y-109333333D01*
X112977381Y-109428571D01*
X112977381Y-109714286D01*
X112929762Y-109809524D01*
X112882143Y-109857143D01*
X132092914Y-119187981D02*
X132092914Y-119997505D01*
X132140533Y-120092743D01*
X132188152Y-120140362D01*
X132283390Y-120187981D01*
X132473867Y-120187981D01*
X132569105Y-120140362D01*
X132616724Y-120092743D01*
X132664343Y-119997505D01*
X132664343Y-119187981D01*
X133045295Y-119187981D02*
X133664343Y-119187981D01*
X133331009Y-119568933D01*
X133473867Y-119568933D01*
X133569105Y-119616552D01*
X133616724Y-119664171D01*
X133664343Y-119759410D01*
X133664343Y-119997505D01*
X133616724Y-120092743D01*
X133569105Y-120140362D01*
X133473867Y-120187981D01*
X133188152Y-120187981D01*
X133092914Y-120140362D01*
X133045295Y-120092743D01*
X134283390Y-119187981D02*
X134378629Y-119187981D01*
X134473867Y-119235600D01*
X134521486Y-119283219D01*
X134569105Y-119378457D01*
X134616724Y-119568933D01*
X134616724Y-119807029D01*
X134569105Y-119997505D01*
X134521486Y-120092743D01*
X134473867Y-120140362D01*
X134378629Y-120187981D01*
X134283390Y-120187981D01*
X134188152Y-120140362D01*
X134140533Y-120092743D01*
X134092914Y-119997505D01*
X134045295Y-119807029D01*
X134045295Y-119568933D01*
X134092914Y-119378457D01*
X134140533Y-119283219D01*
X134188152Y-119235600D01*
X134283390Y-119187981D01*
X135569105Y-120187981D02*
X134997676Y-120187981D01*
X135283390Y-120187981D02*
X135283390Y-119187981D01*
X135188152Y-119330838D01*
X135092914Y-119426076D01*
X134997676Y-119473695D01*
X137623292Y-133664286D02*
X138432816Y-133664286D01*
X138528054Y-133616667D01*
X138575673Y-133569048D01*
X138623292Y-133473810D01*
X138623292Y-133283333D01*
X138575673Y-133188095D01*
X138528054Y-133140476D01*
X138432816Y-133092857D01*
X137623292Y-133092857D01*
X137956625Y-132188095D02*
X138623292Y-132188095D01*
X137575673Y-132426191D02*
X138289959Y-132664286D01*
X138289959Y-132045238D01*
X137623292Y-131473810D02*
X137623292Y-131378571D01*
X137670911Y-131283333D01*
X137718530Y-131235714D01*
X137813768Y-131188095D01*
X138004244Y-131140476D01*
X138242340Y-131140476D01*
X138432816Y-131188095D01*
X138528054Y-131235714D01*
X138575673Y-131283333D01*
X138623292Y-131378571D01*
X138623292Y-131473810D01*
X138575673Y-131569048D01*
X138528054Y-131616667D01*
X138432816Y-131664286D01*
X138242340Y-131711905D01*
X138004244Y-131711905D01*
X137813768Y-131664286D01*
X137718530Y-131616667D01*
X137670911Y-131569048D01*
X137623292Y-131473810D01*
X138623292Y-130188095D02*
X138623292Y-130759524D01*
X138623292Y-130473810D02*
X137623292Y-130473810D01*
X137766149Y-130569048D01*
X137861387Y-130664286D01*
X137909006Y-130759524D01*
X137007814Y-151407881D02*
X137007814Y-152217405D01*
X137055433Y-152312643D01*
X137103052Y-152360262D01*
X137198290Y-152407881D01*
X137388767Y-152407881D01*
X137484005Y-152360262D01*
X137531624Y-152312643D01*
X137579243Y-152217405D01*
X137579243Y-151407881D01*
X138531624Y-151407881D02*
X138055433Y-151407881D01*
X138007814Y-151884071D01*
X138055433Y-151836452D01*
X138150671Y-151788833D01*
X138388767Y-151788833D01*
X138484005Y-151836452D01*
X138531624Y-151884071D01*
X138579243Y-151979310D01*
X138579243Y-152217405D01*
X138531624Y-152312643D01*
X138484005Y-152360262D01*
X138388767Y-152407881D01*
X138150671Y-152407881D01*
X138055433Y-152360262D01*
X138007814Y-152312643D01*
X139198290Y-151407881D02*
X139293529Y-151407881D01*
X139388767Y-151455500D01*
X139436386Y-151503119D01*
X139484005Y-151598357D01*
X139531624Y-151788833D01*
X139531624Y-152026929D01*
X139484005Y-152217405D01*
X139436386Y-152312643D01*
X139388767Y-152360262D01*
X139293529Y-152407881D01*
X139198290Y-152407881D01*
X139103052Y-152360262D01*
X139055433Y-152312643D01*
X139007814Y-152217405D01*
X138960195Y-152026929D01*
X138960195Y-151788833D01*
X139007814Y-151598357D01*
X139055433Y-151503119D01*
X139103052Y-151455500D01*
X139198290Y-151407881D01*
X140484005Y-152407881D02*
X139912576Y-152407881D01*
X140198290Y-152407881D02*
X140198290Y-151407881D01*
X140103052Y-151550738D01*
X140007814Y-151645976D01*
X139912576Y-151693595D01*
X136944314Y-145032481D02*
X136944314Y-145842005D01*
X136991933Y-145937243D01*
X137039552Y-145984862D01*
X137134790Y-146032481D01*
X137325267Y-146032481D01*
X137420505Y-145984862D01*
X137468124Y-145937243D01*
X137515743Y-145842005D01*
X137515743Y-145032481D01*
X138468124Y-145032481D02*
X137991933Y-145032481D01*
X137944314Y-145508671D01*
X137991933Y-145461052D01*
X138087171Y-145413433D01*
X138325267Y-145413433D01*
X138420505Y-145461052D01*
X138468124Y-145508671D01*
X138515743Y-145603910D01*
X138515743Y-145842005D01*
X138468124Y-145937243D01*
X138420505Y-145984862D01*
X138325267Y-146032481D01*
X138087171Y-146032481D01*
X137991933Y-145984862D01*
X137944314Y-145937243D01*
X139134790Y-145032481D02*
X139230029Y-145032481D01*
X139325267Y-145080100D01*
X139372886Y-145127719D01*
X139420505Y-145222957D01*
X139468124Y-145413433D01*
X139468124Y-145651529D01*
X139420505Y-145842005D01*
X139372886Y-145937243D01*
X139325267Y-145984862D01*
X139230029Y-146032481D01*
X139134790Y-146032481D01*
X139039552Y-145984862D01*
X138991933Y-145937243D01*
X138944314Y-145842005D01*
X138896695Y-145651529D01*
X138896695Y-145413433D01*
X138944314Y-145222957D01*
X138991933Y-145127719D01*
X139039552Y-145080100D01*
X139134790Y-145032481D01*
X139849076Y-145127719D02*
X139896695Y-145080100D01*
X139991933Y-145032481D01*
X140230029Y-145032481D01*
X140325267Y-145080100D01*
X140372886Y-145127719D01*
X140420505Y-145222957D01*
X140420505Y-145318195D01*
X140372886Y-145461052D01*
X139801457Y-146032481D01*
X140420505Y-146032481D01*
X104535714Y-134802381D02*
X104535714Y-135611905D01*
X104583333Y-135707143D01*
X104630952Y-135754762D01*
X104726190Y-135802381D01*
X104916667Y-135802381D01*
X105011905Y-135754762D01*
X105059524Y-135707143D01*
X105107143Y-135611905D01*
X105107143Y-134802381D01*
X106011905Y-134802381D02*
X105821428Y-134802381D01*
X105726190Y-134850000D01*
X105678571Y-134897619D01*
X105583333Y-135040476D01*
X105535714Y-135230952D01*
X105535714Y-135611905D01*
X105583333Y-135707143D01*
X105630952Y-135754762D01*
X105726190Y-135802381D01*
X105916667Y-135802381D01*
X106011905Y-135754762D01*
X106059524Y-135707143D01*
X106107143Y-135611905D01*
X106107143Y-135373810D01*
X106059524Y-135278571D01*
X106011905Y-135230952D01*
X105916667Y-135183333D01*
X105726190Y-135183333D01*
X105630952Y-135230952D01*
X105583333Y-135278571D01*
X105535714Y-135373810D01*
X106726190Y-134802381D02*
X106821429Y-134802381D01*
X106916667Y-134850000D01*
X106964286Y-134897619D01*
X107011905Y-134992857D01*
X107059524Y-135183333D01*
X107059524Y-135421429D01*
X107011905Y-135611905D01*
X106964286Y-135707143D01*
X106916667Y-135754762D01*
X106821429Y-135802381D01*
X106726190Y-135802381D01*
X106630952Y-135754762D01*
X106583333Y-135707143D01*
X106535714Y-135611905D01*
X106488095Y-135421429D01*
X106488095Y-135183333D01*
X106535714Y-134992857D01*
X106583333Y-134897619D01*
X106630952Y-134850000D01*
X106726190Y-134802381D01*
X108011905Y-135802381D02*
X107440476Y-135802381D01*
X107726190Y-135802381D02*
X107726190Y-134802381D01*
X107630952Y-134945238D01*
X107535714Y-135040476D01*
X107440476Y-135088095D01*
X102888381Y-148566047D02*
X102412190Y-148899381D01*
X102888381Y-149137476D02*
X101888381Y-149137476D01*
X101888381Y-148756523D01*
X101936000Y-148661285D01*
X101983619Y-148613666D01*
X102078857Y-148566047D01*
X102221714Y-148566047D01*
X102316952Y-148613666D01*
X102364571Y-148661285D01*
X102412190Y-148756523D01*
X102412190Y-149137476D01*
X101888381Y-147708904D02*
X101888381Y-147899381D01*
X101936000Y-147994619D01*
X101983619Y-148042238D01*
X102126476Y-148137476D01*
X102316952Y-148185095D01*
X102697905Y-148185095D01*
X102793143Y-148137476D01*
X102840762Y-148089857D01*
X102888381Y-147994619D01*
X102888381Y-147804142D01*
X102840762Y-147708904D01*
X102793143Y-147661285D01*
X102697905Y-147613666D01*
X102459810Y-147613666D01*
X102364571Y-147661285D01*
X102316952Y-147708904D01*
X102269333Y-147804142D01*
X102269333Y-147994619D01*
X102316952Y-148089857D01*
X102364571Y-148137476D01*
X102459810Y-148185095D01*
X101888381Y-146994619D02*
X101888381Y-146899380D01*
X101936000Y-146804142D01*
X101983619Y-146756523D01*
X102078857Y-146708904D01*
X102269333Y-146661285D01*
X102507429Y-146661285D01*
X102697905Y-146708904D01*
X102793143Y-146756523D01*
X102840762Y-146804142D01*
X102888381Y-146899380D01*
X102888381Y-146994619D01*
X102840762Y-147089857D01*
X102793143Y-147137476D01*
X102697905Y-147185095D01*
X102507429Y-147232714D01*
X102269333Y-147232714D01*
X102078857Y-147185095D01*
X101983619Y-147137476D01*
X101936000Y-147089857D01*
X101888381Y-146994619D01*
X102888381Y-145708904D02*
X102888381Y-146280333D01*
X102888381Y-145994619D02*
X101888381Y-145994619D01*
X102031238Y-146089857D01*
X102126476Y-146185095D01*
X102174095Y-146280333D01*
X106002081Y-146064147D02*
X105525890Y-146397481D01*
X106002081Y-146635576D02*
X105002081Y-146635576D01*
X105002081Y-146254623D01*
X105049700Y-146159385D01*
X105097319Y-146111766D01*
X105192557Y-146064147D01*
X105335414Y-146064147D01*
X105430652Y-146111766D01*
X105478271Y-146159385D01*
X105525890Y-146254623D01*
X105525890Y-146635576D01*
X105002081Y-145207004D02*
X105002081Y-145397481D01*
X105049700Y-145492719D01*
X105097319Y-145540338D01*
X105240176Y-145635576D01*
X105430652Y-145683195D01*
X105811605Y-145683195D01*
X105906843Y-145635576D01*
X105954462Y-145587957D01*
X106002081Y-145492719D01*
X106002081Y-145302242D01*
X105954462Y-145207004D01*
X105906843Y-145159385D01*
X105811605Y-145111766D01*
X105573510Y-145111766D01*
X105478271Y-145159385D01*
X105430652Y-145207004D01*
X105383033Y-145302242D01*
X105383033Y-145492719D01*
X105430652Y-145587957D01*
X105478271Y-145635576D01*
X105573510Y-145683195D01*
X105002081Y-144492719D02*
X105002081Y-144397480D01*
X105049700Y-144302242D01*
X105097319Y-144254623D01*
X105192557Y-144207004D01*
X105383033Y-144159385D01*
X105621129Y-144159385D01*
X105811605Y-144207004D01*
X105906843Y-144254623D01*
X105954462Y-144302242D01*
X106002081Y-144397480D01*
X106002081Y-144492719D01*
X105954462Y-144587957D01*
X105906843Y-144635576D01*
X105811605Y-144683195D01*
X105621129Y-144730814D01*
X105383033Y-144730814D01*
X105192557Y-144683195D01*
X105097319Y-144635576D01*
X105049700Y-144587957D01*
X105002081Y-144492719D01*
X105002081Y-143826052D02*
X105002081Y-143207004D01*
X105383033Y-143540338D01*
X105383033Y-143397480D01*
X105430652Y-143302242D01*
X105478271Y-143254623D01*
X105573510Y-143207004D01*
X105811605Y-143207004D01*
X105906843Y-143254623D01*
X105954462Y-143302242D01*
X106002081Y-143397480D01*
X106002081Y-143683195D01*
X105954462Y-143778433D01*
X105906843Y-143826052D01*
X107856281Y-152566547D02*
X107380090Y-152899881D01*
X107856281Y-153137976D02*
X106856281Y-153137976D01*
X106856281Y-152757023D01*
X106903900Y-152661785D01*
X106951519Y-152614166D01*
X107046757Y-152566547D01*
X107189614Y-152566547D01*
X107284852Y-152614166D01*
X107332471Y-152661785D01*
X107380090Y-152757023D01*
X107380090Y-153137976D01*
X106856281Y-151709404D02*
X106856281Y-151899881D01*
X106903900Y-151995119D01*
X106951519Y-152042738D01*
X107094376Y-152137976D01*
X107284852Y-152185595D01*
X107665805Y-152185595D01*
X107761043Y-152137976D01*
X107808662Y-152090357D01*
X107856281Y-151995119D01*
X107856281Y-151804642D01*
X107808662Y-151709404D01*
X107761043Y-151661785D01*
X107665805Y-151614166D01*
X107427710Y-151614166D01*
X107332471Y-151661785D01*
X107284852Y-151709404D01*
X107237233Y-151804642D01*
X107237233Y-151995119D01*
X107284852Y-152090357D01*
X107332471Y-152137976D01*
X107427710Y-152185595D01*
X106856281Y-150995119D02*
X106856281Y-150899880D01*
X106903900Y-150804642D01*
X106951519Y-150757023D01*
X107046757Y-150709404D01*
X107237233Y-150661785D01*
X107475329Y-150661785D01*
X107665805Y-150709404D01*
X107761043Y-150757023D01*
X107808662Y-150804642D01*
X107856281Y-150899880D01*
X107856281Y-150995119D01*
X107808662Y-151090357D01*
X107761043Y-151137976D01*
X107665805Y-151185595D01*
X107475329Y-151233214D01*
X107237233Y-151233214D01*
X107046757Y-151185595D01*
X106951519Y-151137976D01*
X106903900Y-151090357D01*
X106856281Y-150995119D01*
X106856281Y-149804642D02*
X106856281Y-149995119D01*
X106903900Y-150090357D01*
X106951519Y-150137976D01*
X107094376Y-150233214D01*
X107284852Y-150280833D01*
X107665805Y-150280833D01*
X107761043Y-150233214D01*
X107808662Y-150185595D01*
X107856281Y-150090357D01*
X107856281Y-149899880D01*
X107808662Y-149804642D01*
X107761043Y-149757023D01*
X107665805Y-149709404D01*
X107427710Y-149709404D01*
X107332471Y-149757023D01*
X107284852Y-149804642D01*
X107237233Y-149899880D01*
X107237233Y-150090357D01*
X107284852Y-150185595D01*
X107332471Y-150233214D01*
X107427710Y-150280833D01*
X109685081Y-144870347D02*
X109208890Y-145203681D01*
X109685081Y-145441776D02*
X108685081Y-145441776D01*
X108685081Y-145060823D01*
X108732700Y-144965585D01*
X108780319Y-144917966D01*
X108875557Y-144870347D01*
X109018414Y-144870347D01*
X109113652Y-144917966D01*
X109161271Y-144965585D01*
X109208890Y-145060823D01*
X109208890Y-145441776D01*
X108685081Y-144013204D02*
X108685081Y-144203681D01*
X108732700Y-144298919D01*
X108780319Y-144346538D01*
X108923176Y-144441776D01*
X109113652Y-144489395D01*
X109494605Y-144489395D01*
X109589843Y-144441776D01*
X109637462Y-144394157D01*
X109685081Y-144298919D01*
X109685081Y-144108442D01*
X109637462Y-144013204D01*
X109589843Y-143965585D01*
X109494605Y-143917966D01*
X109256510Y-143917966D01*
X109161271Y-143965585D01*
X109113652Y-144013204D01*
X109066033Y-144108442D01*
X109066033Y-144298919D01*
X109113652Y-144394157D01*
X109161271Y-144441776D01*
X109256510Y-144489395D01*
X108685081Y-143298919D02*
X108685081Y-143203680D01*
X108732700Y-143108442D01*
X108780319Y-143060823D01*
X108875557Y-143013204D01*
X109066033Y-142965585D01*
X109304129Y-142965585D01*
X109494605Y-143013204D01*
X109589843Y-143060823D01*
X109637462Y-143108442D01*
X109685081Y-143203680D01*
X109685081Y-143298919D01*
X109637462Y-143394157D01*
X109589843Y-143441776D01*
X109494605Y-143489395D01*
X109304129Y-143537014D01*
X109066033Y-143537014D01*
X108875557Y-143489395D01*
X108780319Y-143441776D01*
X108732700Y-143394157D01*
X108685081Y-143298919D01*
X108685081Y-142632252D02*
X108685081Y-141965585D01*
X109685081Y-142394157D01*
X107843581Y-128398447D02*
X107367390Y-128731781D01*
X107843581Y-128969876D02*
X106843581Y-128969876D01*
X106843581Y-128588923D01*
X106891200Y-128493685D01*
X106938819Y-128446066D01*
X107034057Y-128398447D01*
X107176914Y-128398447D01*
X107272152Y-128446066D01*
X107319771Y-128493685D01*
X107367390Y-128588923D01*
X107367390Y-128969876D01*
X106843581Y-127541304D02*
X106843581Y-127731781D01*
X106891200Y-127827019D01*
X106938819Y-127874638D01*
X107081676Y-127969876D01*
X107272152Y-128017495D01*
X107653105Y-128017495D01*
X107748343Y-127969876D01*
X107795962Y-127922257D01*
X107843581Y-127827019D01*
X107843581Y-127636542D01*
X107795962Y-127541304D01*
X107748343Y-127493685D01*
X107653105Y-127446066D01*
X107415010Y-127446066D01*
X107319771Y-127493685D01*
X107272152Y-127541304D01*
X107224533Y-127636542D01*
X107224533Y-127827019D01*
X107272152Y-127922257D01*
X107319771Y-127969876D01*
X107415010Y-128017495D01*
X107843581Y-126493685D02*
X107843581Y-127065114D01*
X107843581Y-126779400D02*
X106843581Y-126779400D01*
X106986438Y-126874638D01*
X107081676Y-126969876D01*
X107129295Y-127065114D01*
X107843581Y-125541304D02*
X107843581Y-126112733D01*
X107843581Y-125827019D02*
X106843581Y-125827019D01*
X106986438Y-125922257D01*
X107081676Y-126017495D01*
X107129295Y-126112733D01*
X106357681Y-128347647D02*
X105881490Y-128680981D01*
X106357681Y-128919076D02*
X105357681Y-128919076D01*
X105357681Y-128538123D01*
X105405300Y-128442885D01*
X105452919Y-128395266D01*
X105548157Y-128347647D01*
X105691014Y-128347647D01*
X105786252Y-128395266D01*
X105833871Y-128442885D01*
X105881490Y-128538123D01*
X105881490Y-128919076D01*
X105357681Y-127490504D02*
X105357681Y-127680981D01*
X105405300Y-127776219D01*
X105452919Y-127823838D01*
X105595776Y-127919076D01*
X105786252Y-127966695D01*
X106167205Y-127966695D01*
X106262443Y-127919076D01*
X106310062Y-127871457D01*
X106357681Y-127776219D01*
X106357681Y-127585742D01*
X106310062Y-127490504D01*
X106262443Y-127442885D01*
X106167205Y-127395266D01*
X105929110Y-127395266D01*
X105833871Y-127442885D01*
X105786252Y-127490504D01*
X105738633Y-127585742D01*
X105738633Y-127776219D01*
X105786252Y-127871457D01*
X105833871Y-127919076D01*
X105929110Y-127966695D01*
X106357681Y-126442885D02*
X106357681Y-127014314D01*
X106357681Y-126728600D02*
X105357681Y-126728600D01*
X105500538Y-126823838D01*
X105595776Y-126919076D01*
X105643395Y-127014314D01*
X105452919Y-126061933D02*
X105405300Y-126014314D01*
X105357681Y-125919076D01*
X105357681Y-125680980D01*
X105405300Y-125585742D01*
X105452919Y-125538123D01*
X105548157Y-125490504D01*
X105643395Y-125490504D01*
X105786252Y-125538123D01*
X106357681Y-126109552D01*
X106357681Y-125490504D01*
X104757481Y-129998647D02*
X104281290Y-130331981D01*
X104757481Y-130570076D02*
X103757481Y-130570076D01*
X103757481Y-130189123D01*
X103805100Y-130093885D01*
X103852719Y-130046266D01*
X103947957Y-129998647D01*
X104090814Y-129998647D01*
X104186052Y-130046266D01*
X104233671Y-130093885D01*
X104281290Y-130189123D01*
X104281290Y-130570076D01*
X103757481Y-129141504D02*
X103757481Y-129331981D01*
X103805100Y-129427219D01*
X103852719Y-129474838D01*
X103995576Y-129570076D01*
X104186052Y-129617695D01*
X104567005Y-129617695D01*
X104662243Y-129570076D01*
X104709862Y-129522457D01*
X104757481Y-129427219D01*
X104757481Y-129236742D01*
X104709862Y-129141504D01*
X104662243Y-129093885D01*
X104567005Y-129046266D01*
X104328910Y-129046266D01*
X104233671Y-129093885D01*
X104186052Y-129141504D01*
X104138433Y-129236742D01*
X104138433Y-129427219D01*
X104186052Y-129522457D01*
X104233671Y-129570076D01*
X104328910Y-129617695D01*
X104757481Y-128093885D02*
X104757481Y-128665314D01*
X104757481Y-128379600D02*
X103757481Y-128379600D01*
X103900338Y-128474838D01*
X103995576Y-128570076D01*
X104043195Y-128665314D01*
X103757481Y-127760552D02*
X103757481Y-127141504D01*
X104138433Y-127474838D01*
X104138433Y-127331980D01*
X104186052Y-127236742D01*
X104233671Y-127189123D01*
X104328910Y-127141504D01*
X104567005Y-127141504D01*
X104662243Y-127189123D01*
X104709862Y-127236742D01*
X104757481Y-127331980D01*
X104757481Y-127617695D01*
X104709862Y-127712933D01*
X104662243Y-127760552D01*
X102827081Y-128347647D02*
X102350890Y-128680981D01*
X102827081Y-128919076D02*
X101827081Y-128919076D01*
X101827081Y-128538123D01*
X101874700Y-128442885D01*
X101922319Y-128395266D01*
X102017557Y-128347647D01*
X102160414Y-128347647D01*
X102255652Y-128395266D01*
X102303271Y-128442885D01*
X102350890Y-128538123D01*
X102350890Y-128919076D01*
X101827081Y-127490504D02*
X101827081Y-127680981D01*
X101874700Y-127776219D01*
X101922319Y-127823838D01*
X102065176Y-127919076D01*
X102255652Y-127966695D01*
X102636605Y-127966695D01*
X102731843Y-127919076D01*
X102779462Y-127871457D01*
X102827081Y-127776219D01*
X102827081Y-127585742D01*
X102779462Y-127490504D01*
X102731843Y-127442885D01*
X102636605Y-127395266D01*
X102398510Y-127395266D01*
X102303271Y-127442885D01*
X102255652Y-127490504D01*
X102208033Y-127585742D01*
X102208033Y-127776219D01*
X102255652Y-127871457D01*
X102303271Y-127919076D01*
X102398510Y-127966695D01*
X102827081Y-126442885D02*
X102827081Y-127014314D01*
X102827081Y-126728600D02*
X101827081Y-126728600D01*
X101969938Y-126823838D01*
X102065176Y-126919076D01*
X102112795Y-127014314D01*
X102160414Y-125585742D02*
X102827081Y-125585742D01*
X101779462Y-125823838D02*
X102493748Y-126061933D01*
X102493748Y-125442885D01*
X126764286Y-102082381D02*
X126764286Y-102796667D01*
X126716666Y-102939524D01*
X126621428Y-103034762D01*
X126478571Y-103082381D01*
X126383333Y-103082381D01*
X127764286Y-103082381D02*
X127192857Y-103082381D01*
X127478571Y-103082381D02*
X127478571Y-102082381D01*
X127383333Y-102225238D01*
X127288095Y-102320476D01*
X127192857Y-102368095D01*
X128383333Y-102082381D02*
X128478572Y-102082381D01*
X128573810Y-102130000D01*
X128621429Y-102177619D01*
X128669048Y-102272857D01*
X128716667Y-102463333D01*
X128716667Y-102701429D01*
X128669048Y-102891905D01*
X128621429Y-102987143D01*
X128573810Y-103034762D01*
X128478572Y-103082381D01*
X128383333Y-103082381D01*
X128288095Y-103034762D01*
X128240476Y-102987143D01*
X128192857Y-102891905D01*
X128145238Y-102701429D01*
X128145238Y-102463333D01*
X128192857Y-102272857D01*
X128240476Y-102177619D01*
X128288095Y-102130000D01*
X128383333Y-102082381D01*
X129669048Y-103082381D02*
X129097619Y-103082381D01*
X129383333Y-103082381D02*
X129383333Y-102082381D01*
X129288095Y-102225238D01*
X129192857Y-102320476D01*
X129097619Y-102368095D01*
X125358686Y-125455881D02*
X125358686Y-126170167D01*
X125311066Y-126313024D01*
X125215828Y-126408262D01*
X125072971Y-126455881D01*
X124977733Y-126455881D01*
X126358686Y-126455881D02*
X125787257Y-126455881D01*
X126072971Y-126455881D02*
X126072971Y-125455881D01*
X125977733Y-125598738D01*
X125882495Y-125693976D01*
X125787257Y-125741595D01*
X126977733Y-125455881D02*
X127072972Y-125455881D01*
X127168210Y-125503500D01*
X127215829Y-125551119D01*
X127263448Y-125646357D01*
X127311067Y-125836833D01*
X127311067Y-126074929D01*
X127263448Y-126265405D01*
X127215829Y-126360643D01*
X127168210Y-126408262D01*
X127072972Y-126455881D01*
X126977733Y-126455881D01*
X126882495Y-126408262D01*
X126834876Y-126360643D01*
X126787257Y-126265405D01*
X126739638Y-126074929D01*
X126739638Y-125836833D01*
X126787257Y-125646357D01*
X126834876Y-125551119D01*
X126882495Y-125503500D01*
X126977733Y-125455881D01*
X128168210Y-125789214D02*
X128168210Y-126455881D01*
X127930114Y-125408262D02*
X127692019Y-126122548D01*
X128311067Y-126122548D01*
X127708186Y-157573281D02*
X127708186Y-158287567D01*
X127660566Y-158430424D01*
X127565328Y-158525662D01*
X127422471Y-158573281D01*
X127327233Y-158573281D01*
X128708186Y-158573281D02*
X128136757Y-158573281D01*
X128422471Y-158573281D02*
X128422471Y-157573281D01*
X128327233Y-157716138D01*
X128231995Y-157811376D01*
X128136757Y-157858995D01*
X129327233Y-157573281D02*
X129422472Y-157573281D01*
X129517710Y-157620900D01*
X129565329Y-157668519D01*
X129612948Y-157763757D01*
X129660567Y-157954233D01*
X129660567Y-158192329D01*
X129612948Y-158382805D01*
X129565329Y-158478043D01*
X129517710Y-158525662D01*
X129422472Y-158573281D01*
X129327233Y-158573281D01*
X129231995Y-158525662D01*
X129184376Y-158478043D01*
X129136757Y-158382805D01*
X129089138Y-158192329D01*
X129089138Y-157954233D01*
X129136757Y-157763757D01*
X129184376Y-157668519D01*
X129231995Y-157620900D01*
X129327233Y-157573281D01*
X130565329Y-157573281D02*
X130089138Y-157573281D01*
X130041519Y-158049471D01*
X130089138Y-158001852D01*
X130184376Y-157954233D01*
X130422472Y-157954233D01*
X130517710Y-158001852D01*
X130565329Y-158049471D01*
X130612948Y-158144710D01*
X130612948Y-158382805D01*
X130565329Y-158478043D01*
X130517710Y-158525662D01*
X130422472Y-158573281D01*
X130184376Y-158573281D01*
X130089138Y-158525662D01*
X130041519Y-158478043D01*
M02*
