G04 #@! TF.FileFunction,Legend,Bot*
%FSLAX46Y46*%
G04 Gerber Fmt 4.6, Leading zero omitted, Abs format (unit mm)*
G04 Created by KiCad (PCBNEW 4.0.7) date Wed Apr 18 22:23:55 2018*
%MOMM*%
%LPD*%
G01*
G04 APERTURE LIST*
%ADD10C,0.100000*%
%ADD11C,0.120000*%
%ADD12C,0.150000*%
G04 APERTURE END LIST*
D10*
D11*
X103470000Y-143300000D02*
X103470000Y-141300000D01*
X106430000Y-141300000D02*
X106430000Y-143300000D01*
X106800000Y-142450000D02*
X106800000Y-141450000D01*
X108500000Y-141450000D02*
X108500000Y-142450000D01*
X108750000Y-141600000D02*
X108750000Y-142300000D01*
X109950000Y-142300000D02*
X109950000Y-141600000D01*
X110350000Y-141600000D02*
X110350000Y-142300000D01*
X111550000Y-142300000D02*
X111550000Y-141600000D01*
X108650000Y-136500000D02*
X108650000Y-135800000D01*
X107450000Y-135800000D02*
X107450000Y-136500000D01*
X110150000Y-136500000D02*
X110150000Y-135800000D01*
X108950000Y-135800000D02*
X108950000Y-136500000D01*
X132750000Y-160850000D02*
X133750000Y-160850000D01*
X133750000Y-162550000D02*
X132750000Y-162550000D01*
X133600000Y-159000000D02*
X132900000Y-159000000D01*
X132900000Y-160200000D02*
X133600000Y-160200000D01*
X118800000Y-131650000D02*
X118800000Y-132350000D01*
X120000000Y-132350000D02*
X120000000Y-131650000D01*
X106250000Y-120550000D02*
X107250000Y-120550000D01*
X107250000Y-122250000D02*
X106250000Y-122250000D01*
X107200000Y-122500000D02*
X106500000Y-122500000D01*
X106500000Y-123700000D02*
X107200000Y-123700000D01*
X127000000Y-141780000D02*
X125000000Y-141780000D01*
X125000000Y-138820000D02*
X127000000Y-138820000D01*
X127150000Y-138330000D02*
X125150000Y-138330000D01*
X125150000Y-135370000D02*
X127150000Y-135370000D01*
X134250000Y-125550000D02*
X135250000Y-125550000D01*
X135250000Y-127250000D02*
X134250000Y-127250000D01*
X135200000Y-127750000D02*
X134500000Y-127750000D01*
X134500000Y-128950000D02*
X135200000Y-128950000D01*
X113550000Y-135850000D02*
X113550000Y-134850000D01*
X115250000Y-134850000D02*
X115250000Y-135850000D01*
X104600000Y-156000000D02*
X105300000Y-156000000D01*
X105300000Y-154800000D02*
X104600000Y-154800000D01*
X107770277Y-163455722D02*
G75*
G02X107770000Y-158844420I1179723J2305722D01*
G01*
X110129723Y-163455722D02*
G75*
G03X110130000Y-158844420I-1179723J2305722D01*
G01*
X110129723Y-163455722D02*
G75*
G02X107770000Y-163455580I-1179723J2305722D01*
G01*
X106400000Y-161150000D02*
X111500000Y-161150000D01*
X106400000Y-161190000D02*
X107970000Y-161190000D01*
X109930000Y-161190000D02*
X111500000Y-161190000D01*
X106401000Y-161230000D02*
X107970000Y-161230000D01*
X109930000Y-161230000D02*
X111499000Y-161230000D01*
X106402000Y-161270000D02*
X107970000Y-161270000D01*
X109930000Y-161270000D02*
X111498000Y-161270000D01*
X106404000Y-161310000D02*
X107970000Y-161310000D01*
X109930000Y-161310000D02*
X111496000Y-161310000D01*
X106407000Y-161350000D02*
X107970000Y-161350000D01*
X109930000Y-161350000D02*
X111493000Y-161350000D01*
X106411000Y-161390000D02*
X107970000Y-161390000D01*
X109930000Y-161390000D02*
X111489000Y-161390000D01*
X106415000Y-161430000D02*
X107970000Y-161430000D01*
X109930000Y-161430000D02*
X111485000Y-161430000D01*
X106419000Y-161470000D02*
X107970000Y-161470000D01*
X109930000Y-161470000D02*
X111481000Y-161470000D01*
X106425000Y-161510000D02*
X107970000Y-161510000D01*
X109930000Y-161510000D02*
X111475000Y-161510000D01*
X106431000Y-161550000D02*
X107970000Y-161550000D01*
X109930000Y-161550000D02*
X111469000Y-161550000D01*
X106437000Y-161590000D02*
X107970000Y-161590000D01*
X109930000Y-161590000D02*
X111463000Y-161590000D01*
X106444000Y-161630000D02*
X107970000Y-161630000D01*
X109930000Y-161630000D02*
X111456000Y-161630000D01*
X106452000Y-161670000D02*
X107970000Y-161670000D01*
X109930000Y-161670000D02*
X111448000Y-161670000D01*
X106461000Y-161710000D02*
X107970000Y-161710000D01*
X109930000Y-161710000D02*
X111439000Y-161710000D01*
X106470000Y-161750000D02*
X107970000Y-161750000D01*
X109930000Y-161750000D02*
X111430000Y-161750000D01*
X106480000Y-161790000D02*
X107970000Y-161790000D01*
X109930000Y-161790000D02*
X111420000Y-161790000D01*
X106490000Y-161830000D02*
X107970000Y-161830000D01*
X109930000Y-161830000D02*
X111410000Y-161830000D01*
X106502000Y-161871000D02*
X107970000Y-161871000D01*
X109930000Y-161871000D02*
X111398000Y-161871000D01*
X106514000Y-161911000D02*
X107970000Y-161911000D01*
X109930000Y-161911000D02*
X111386000Y-161911000D01*
X106526000Y-161951000D02*
X107970000Y-161951000D01*
X109930000Y-161951000D02*
X111374000Y-161951000D01*
X106540000Y-161991000D02*
X107970000Y-161991000D01*
X109930000Y-161991000D02*
X111360000Y-161991000D01*
X106554000Y-162031000D02*
X107970000Y-162031000D01*
X109930000Y-162031000D02*
X111346000Y-162031000D01*
X106568000Y-162071000D02*
X107970000Y-162071000D01*
X109930000Y-162071000D02*
X111332000Y-162071000D01*
X106584000Y-162111000D02*
X107970000Y-162111000D01*
X109930000Y-162111000D02*
X111316000Y-162111000D01*
X106600000Y-162151000D02*
X107970000Y-162151000D01*
X109930000Y-162151000D02*
X111300000Y-162151000D01*
X106617000Y-162191000D02*
X107970000Y-162191000D01*
X109930000Y-162191000D02*
X111283000Y-162191000D01*
X106635000Y-162231000D02*
X107970000Y-162231000D01*
X109930000Y-162231000D02*
X111265000Y-162231000D01*
X106654000Y-162271000D02*
X107970000Y-162271000D01*
X109930000Y-162271000D02*
X111246000Y-162271000D01*
X106674000Y-162311000D02*
X107970000Y-162311000D01*
X109930000Y-162311000D02*
X111226000Y-162311000D01*
X106694000Y-162351000D02*
X107970000Y-162351000D01*
X109930000Y-162351000D02*
X111206000Y-162351000D01*
X106716000Y-162391000D02*
X107970000Y-162391000D01*
X109930000Y-162391000D02*
X111184000Y-162391000D01*
X106738000Y-162431000D02*
X107970000Y-162431000D01*
X109930000Y-162431000D02*
X111162000Y-162431000D01*
X106761000Y-162471000D02*
X107970000Y-162471000D01*
X109930000Y-162471000D02*
X111139000Y-162471000D01*
X106785000Y-162511000D02*
X107970000Y-162511000D01*
X109930000Y-162511000D02*
X111115000Y-162511000D01*
X106810000Y-162551000D02*
X107970000Y-162551000D01*
X109930000Y-162551000D02*
X111090000Y-162551000D01*
X106837000Y-162591000D02*
X107970000Y-162591000D01*
X109930000Y-162591000D02*
X111063000Y-162591000D01*
X106864000Y-162631000D02*
X107970000Y-162631000D01*
X109930000Y-162631000D02*
X111036000Y-162631000D01*
X106892000Y-162671000D02*
X107970000Y-162671000D01*
X109930000Y-162671000D02*
X111008000Y-162671000D01*
X106922000Y-162711000D02*
X107970000Y-162711000D01*
X109930000Y-162711000D02*
X110978000Y-162711000D01*
X106953000Y-162751000D02*
X107970000Y-162751000D01*
X109930000Y-162751000D02*
X110947000Y-162751000D01*
X106985000Y-162791000D02*
X107970000Y-162791000D01*
X109930000Y-162791000D02*
X110915000Y-162791000D01*
X107018000Y-162831000D02*
X107970000Y-162831000D01*
X109930000Y-162831000D02*
X110882000Y-162831000D01*
X107053000Y-162871000D02*
X107970000Y-162871000D01*
X109930000Y-162871000D02*
X110847000Y-162871000D01*
X107089000Y-162911000D02*
X107970000Y-162911000D01*
X109930000Y-162911000D02*
X110811000Y-162911000D01*
X107127000Y-162951000D02*
X107970000Y-162951000D01*
X109930000Y-162951000D02*
X110773000Y-162951000D01*
X107167000Y-162991000D02*
X107970000Y-162991000D01*
X109930000Y-162991000D02*
X110733000Y-162991000D01*
X107208000Y-163031000D02*
X107970000Y-163031000D01*
X109930000Y-163031000D02*
X110692000Y-163031000D01*
X107251000Y-163071000D02*
X107970000Y-163071000D01*
X109930000Y-163071000D02*
X110649000Y-163071000D01*
X107296000Y-163111000D02*
X107970000Y-163111000D01*
X109930000Y-163111000D02*
X110604000Y-163111000D01*
X107344000Y-163151000D02*
X110556000Y-163151000D01*
X107394000Y-163191000D02*
X110506000Y-163191000D01*
X107446000Y-163231000D02*
X110454000Y-163231000D01*
X107502000Y-163271000D02*
X110398000Y-163271000D01*
X107560000Y-163311000D02*
X110340000Y-163311000D01*
X107623000Y-163351000D02*
X110277000Y-163351000D01*
X107689000Y-163391000D02*
X110211000Y-163391000D01*
X107761000Y-163431000D02*
X110139000Y-163431000D01*
X107838000Y-163471000D02*
X110062000Y-163471000D01*
X107922000Y-163511000D02*
X109978000Y-163511000D01*
X108016000Y-163551000D02*
X109884000Y-163551000D01*
X108121000Y-163591000D02*
X109779000Y-163591000D01*
X108243000Y-163631000D02*
X109657000Y-163631000D01*
X108391000Y-163671000D02*
X109509000Y-163671000D01*
X108596000Y-163711000D02*
X109304000Y-163711000D01*
X108950000Y-157950000D02*
X108950000Y-159150000D01*
X108300000Y-158550000D02*
X109600000Y-158550000D01*
X105400000Y-157950000D02*
X104400000Y-157950000D01*
X104400000Y-156250000D02*
X105400000Y-156250000D01*
X112720000Y-141750000D02*
X112720000Y-142250000D01*
X111780000Y-142250000D02*
X111780000Y-141750000D01*
D12*
X121750000Y-140150000D02*
X121750000Y-137150000D01*
X116150000Y-137150000D02*
X116150000Y-140150000D01*
D11*
X110150000Y-138170000D02*
X110650000Y-138170000D01*
X110650000Y-139230000D02*
X110150000Y-139230000D01*
X108050000Y-138170000D02*
X108550000Y-138170000D01*
X108550000Y-139230000D02*
X108050000Y-139230000D01*
X112770000Y-127600000D02*
X112770000Y-127100000D01*
X113830000Y-127100000D02*
X113830000Y-127600000D01*
X113980000Y-130800000D02*
X113980000Y-129800000D01*
X112620000Y-129800000D02*
X112620000Y-130800000D01*
D12*
X115650000Y-153400000D02*
X115650000Y-157300000D01*
X125450000Y-153400000D02*
X115650000Y-153400000D01*
X125450000Y-157300000D02*
X125450000Y-153400000D01*
X125450000Y-164400000D02*
X125450000Y-160500000D01*
X115650000Y-164400000D02*
X125450000Y-164400000D01*
X115650000Y-160500000D02*
X115650000Y-164400000D01*
D11*
X132500000Y-151590000D02*
X134300000Y-151590000D01*
X134300000Y-154810000D02*
X131850000Y-154810000D01*
X132500000Y-147690000D02*
X134300000Y-147690000D01*
X134300000Y-150910000D02*
X131850000Y-150910000D01*
D12*
X134050000Y-157600000D02*
X134050000Y-156400000D01*
X132450000Y-155500000D02*
X132450000Y-155700000D01*
X134050000Y-155500000D02*
X132450000Y-155500000D01*
X134050000Y-155700000D02*
X134050000Y-155500000D01*
X132450000Y-158500000D02*
X132450000Y-158300000D01*
X134050000Y-158500000D02*
X132450000Y-158500000D01*
X134050000Y-158300000D02*
X134050000Y-158500000D01*
D11*
X104450000Y-127450000D02*
X104450000Y-128650000D01*
X104450000Y-128650000D02*
X107150000Y-128650000D01*
X108450000Y-123850000D02*
X104450000Y-123850000D01*
X104450000Y-123850000D02*
X104450000Y-125050000D01*
D12*
X118841421Y-133081000D02*
G75*
G03X118841421Y-133081000I-141421J0D01*
G01*
X115500000Y-132881000D02*
X115700000Y-132881000D01*
X115500000Y-131281000D02*
X115500000Y-132881000D01*
X115700000Y-131281000D02*
X115500000Y-131281000D01*
X118300000Y-131281000D02*
X118500000Y-131281000D01*
X118500000Y-132881000D02*
X118300000Y-132881000D01*
X118500000Y-131281000D02*
X118500000Y-132881000D01*
D11*
X137110000Y-135660000D02*
X135850000Y-135660000D01*
X130290000Y-135660000D02*
X131550000Y-135660000D01*
X137110000Y-131900000D02*
X137110000Y-135660000D01*
X130290000Y-129650000D02*
X130290000Y-135660000D01*
D12*
X103057143Y-141180953D02*
X103104762Y-141133334D01*
X103152381Y-140990477D01*
X103152381Y-140895239D01*
X103104762Y-140752381D01*
X103009524Y-140657143D01*
X102914286Y-140609524D01*
X102723810Y-140561905D01*
X102580952Y-140561905D01*
X102390476Y-140609524D01*
X102295238Y-140657143D01*
X102200000Y-140752381D01*
X102152381Y-140895239D01*
X102152381Y-140990477D01*
X102200000Y-141133334D01*
X102247619Y-141180953D01*
X102152381Y-142038096D02*
X102152381Y-141847619D01*
X102200000Y-141752381D01*
X102247619Y-141704762D01*
X102390476Y-141609524D01*
X102580952Y-141561905D01*
X102961905Y-141561905D01*
X103057143Y-141609524D01*
X103104762Y-141657143D01*
X103152381Y-141752381D01*
X103152381Y-141942858D01*
X103104762Y-142038096D01*
X103057143Y-142085715D01*
X102961905Y-142133334D01*
X102723810Y-142133334D01*
X102628571Y-142085715D01*
X102580952Y-142038096D01*
X102533333Y-141942858D01*
X102533333Y-141752381D01*
X102580952Y-141657143D01*
X102628571Y-141609524D01*
X102723810Y-141561905D01*
X103152381Y-143085715D02*
X103152381Y-142514286D01*
X103152381Y-142800000D02*
X102152381Y-142800000D01*
X102295238Y-142704762D01*
X102390476Y-142609524D01*
X102438095Y-142514286D01*
X102152381Y-143704762D02*
X102152381Y-143800001D01*
X102200000Y-143895239D01*
X102247619Y-143942858D01*
X102342857Y-143990477D01*
X102533333Y-144038096D01*
X102771429Y-144038096D01*
X102961905Y-143990477D01*
X103057143Y-143942858D01*
X103104762Y-143895239D01*
X103152381Y-143800001D01*
X103152381Y-143704762D01*
X103104762Y-143609524D01*
X103057143Y-143561905D01*
X102961905Y-143514286D01*
X102771429Y-143466667D01*
X102533333Y-143466667D01*
X102342857Y-143514286D01*
X102247619Y-143561905D01*
X102200000Y-143609524D01*
X102152381Y-143704762D01*
X108065843Y-145096053D02*
X108113462Y-145048434D01*
X108161081Y-144905577D01*
X108161081Y-144810339D01*
X108113462Y-144667481D01*
X108018224Y-144572243D01*
X107922986Y-144524624D01*
X107732510Y-144477005D01*
X107589652Y-144477005D01*
X107399176Y-144524624D01*
X107303938Y-144572243D01*
X107208700Y-144667481D01*
X107161081Y-144810339D01*
X107161081Y-144905577D01*
X107208700Y-145048434D01*
X107256319Y-145096053D01*
X107161081Y-145953196D02*
X107161081Y-145762719D01*
X107208700Y-145667481D01*
X107256319Y-145619862D01*
X107399176Y-145524624D01*
X107589652Y-145477005D01*
X107970605Y-145477005D01*
X108065843Y-145524624D01*
X108113462Y-145572243D01*
X108161081Y-145667481D01*
X108161081Y-145857958D01*
X108113462Y-145953196D01*
X108065843Y-146000815D01*
X107970605Y-146048434D01*
X107732510Y-146048434D01*
X107637271Y-146000815D01*
X107589652Y-145953196D01*
X107542033Y-145857958D01*
X107542033Y-145667481D01*
X107589652Y-145572243D01*
X107637271Y-145524624D01*
X107732510Y-145477005D01*
X108161081Y-147000815D02*
X108161081Y-146429386D01*
X108161081Y-146715100D02*
X107161081Y-146715100D01*
X107303938Y-146619862D01*
X107399176Y-146524624D01*
X107446795Y-146429386D01*
X108161081Y-147953196D02*
X108161081Y-147381767D01*
X108161081Y-147667481D02*
X107161081Y-147667481D01*
X107303938Y-147572243D01*
X107399176Y-147477005D01*
X107446795Y-147381767D01*
X110402643Y-144664253D02*
X110450262Y-144616634D01*
X110497881Y-144473777D01*
X110497881Y-144378539D01*
X110450262Y-144235681D01*
X110355024Y-144140443D01*
X110259786Y-144092824D01*
X110069310Y-144045205D01*
X109926452Y-144045205D01*
X109735976Y-144092824D01*
X109640738Y-144140443D01*
X109545500Y-144235681D01*
X109497881Y-144378539D01*
X109497881Y-144473777D01*
X109545500Y-144616634D01*
X109593119Y-144664253D01*
X109497881Y-145521396D02*
X109497881Y-145330919D01*
X109545500Y-145235681D01*
X109593119Y-145188062D01*
X109735976Y-145092824D01*
X109926452Y-145045205D01*
X110307405Y-145045205D01*
X110402643Y-145092824D01*
X110450262Y-145140443D01*
X110497881Y-145235681D01*
X110497881Y-145426158D01*
X110450262Y-145521396D01*
X110402643Y-145569015D01*
X110307405Y-145616634D01*
X110069310Y-145616634D01*
X109974071Y-145569015D01*
X109926452Y-145521396D01*
X109878833Y-145426158D01*
X109878833Y-145235681D01*
X109926452Y-145140443D01*
X109974071Y-145092824D01*
X110069310Y-145045205D01*
X110497881Y-146569015D02*
X110497881Y-145997586D01*
X110497881Y-146283300D02*
X109497881Y-146283300D01*
X109640738Y-146188062D01*
X109735976Y-146092824D01*
X109783595Y-145997586D01*
X109593119Y-146949967D02*
X109545500Y-146997586D01*
X109497881Y-147092824D01*
X109497881Y-147330920D01*
X109545500Y-147426158D01*
X109593119Y-147473777D01*
X109688357Y-147521396D01*
X109783595Y-147521396D01*
X109926452Y-147473777D01*
X110497881Y-146902348D01*
X110497881Y-147521396D01*
X111812343Y-144753153D02*
X111859962Y-144705534D01*
X111907581Y-144562677D01*
X111907581Y-144467439D01*
X111859962Y-144324581D01*
X111764724Y-144229343D01*
X111669486Y-144181724D01*
X111479010Y-144134105D01*
X111336152Y-144134105D01*
X111145676Y-144181724D01*
X111050438Y-144229343D01*
X110955200Y-144324581D01*
X110907581Y-144467439D01*
X110907581Y-144562677D01*
X110955200Y-144705534D01*
X111002819Y-144753153D01*
X110907581Y-145610296D02*
X110907581Y-145419819D01*
X110955200Y-145324581D01*
X111002819Y-145276962D01*
X111145676Y-145181724D01*
X111336152Y-145134105D01*
X111717105Y-145134105D01*
X111812343Y-145181724D01*
X111859962Y-145229343D01*
X111907581Y-145324581D01*
X111907581Y-145515058D01*
X111859962Y-145610296D01*
X111812343Y-145657915D01*
X111717105Y-145705534D01*
X111479010Y-145705534D01*
X111383771Y-145657915D01*
X111336152Y-145610296D01*
X111288533Y-145515058D01*
X111288533Y-145324581D01*
X111336152Y-145229343D01*
X111383771Y-145181724D01*
X111479010Y-145134105D01*
X111907581Y-146657915D02*
X111907581Y-146086486D01*
X111907581Y-146372200D02*
X110907581Y-146372200D01*
X111050438Y-146276962D01*
X111145676Y-146181724D01*
X111193295Y-146086486D01*
X110907581Y-146991248D02*
X110907581Y-147610296D01*
X111288533Y-147276962D01*
X111288533Y-147419820D01*
X111336152Y-147515058D01*
X111383771Y-147562677D01*
X111479010Y-147610296D01*
X111717105Y-147610296D01*
X111812343Y-147562677D01*
X111859962Y-147515058D01*
X111907581Y-147419820D01*
X111907581Y-147134105D01*
X111859962Y-147038867D01*
X111812343Y-146991248D01*
X108294443Y-131189553D02*
X108342062Y-131141934D01*
X108389681Y-130999077D01*
X108389681Y-130903839D01*
X108342062Y-130760981D01*
X108246824Y-130665743D01*
X108151586Y-130618124D01*
X107961110Y-130570505D01*
X107818252Y-130570505D01*
X107627776Y-130618124D01*
X107532538Y-130665743D01*
X107437300Y-130760981D01*
X107389681Y-130903839D01*
X107389681Y-130999077D01*
X107437300Y-131141934D01*
X107484919Y-131189553D01*
X107389681Y-132046696D02*
X107389681Y-131856219D01*
X107437300Y-131760981D01*
X107484919Y-131713362D01*
X107627776Y-131618124D01*
X107818252Y-131570505D01*
X108199205Y-131570505D01*
X108294443Y-131618124D01*
X108342062Y-131665743D01*
X108389681Y-131760981D01*
X108389681Y-131951458D01*
X108342062Y-132046696D01*
X108294443Y-132094315D01*
X108199205Y-132141934D01*
X107961110Y-132141934D01*
X107865871Y-132094315D01*
X107818252Y-132046696D01*
X107770633Y-131951458D01*
X107770633Y-131760981D01*
X107818252Y-131665743D01*
X107865871Y-131618124D01*
X107961110Y-131570505D01*
X108389681Y-133094315D02*
X108389681Y-132522886D01*
X108389681Y-132808600D02*
X107389681Y-132808600D01*
X107532538Y-132713362D01*
X107627776Y-132618124D01*
X107675395Y-132522886D01*
X107723014Y-133951458D02*
X108389681Y-133951458D01*
X107342062Y-133713362D02*
X108056348Y-133475267D01*
X108056348Y-134094315D01*
X109640643Y-131164153D02*
X109688262Y-131116534D01*
X109735881Y-130973677D01*
X109735881Y-130878439D01*
X109688262Y-130735581D01*
X109593024Y-130640343D01*
X109497786Y-130592724D01*
X109307310Y-130545105D01*
X109164452Y-130545105D01*
X108973976Y-130592724D01*
X108878738Y-130640343D01*
X108783500Y-130735581D01*
X108735881Y-130878439D01*
X108735881Y-130973677D01*
X108783500Y-131116534D01*
X108831119Y-131164153D01*
X108735881Y-132021296D02*
X108735881Y-131830819D01*
X108783500Y-131735581D01*
X108831119Y-131687962D01*
X108973976Y-131592724D01*
X109164452Y-131545105D01*
X109545405Y-131545105D01*
X109640643Y-131592724D01*
X109688262Y-131640343D01*
X109735881Y-131735581D01*
X109735881Y-131926058D01*
X109688262Y-132021296D01*
X109640643Y-132068915D01*
X109545405Y-132116534D01*
X109307310Y-132116534D01*
X109212071Y-132068915D01*
X109164452Y-132021296D01*
X109116833Y-131926058D01*
X109116833Y-131735581D01*
X109164452Y-131640343D01*
X109212071Y-131592724D01*
X109307310Y-131545105D01*
X109735881Y-133068915D02*
X109735881Y-132497486D01*
X109735881Y-132783200D02*
X108735881Y-132783200D01*
X108878738Y-132687962D01*
X108973976Y-132592724D01*
X109021595Y-132497486D01*
X108735881Y-133973677D02*
X108735881Y-133497486D01*
X109212071Y-133449867D01*
X109164452Y-133497486D01*
X109116833Y-133592724D01*
X109116833Y-133830820D01*
X109164452Y-133926058D01*
X109212071Y-133973677D01*
X109307310Y-134021296D01*
X109545405Y-134021296D01*
X109640643Y-133973677D01*
X109688262Y-133926058D01*
X109735881Y-133830820D01*
X109735881Y-133592724D01*
X109688262Y-133497486D01*
X109640643Y-133449867D01*
X138621947Y-162015443D02*
X138669566Y-162063062D01*
X138812423Y-162110681D01*
X138907661Y-162110681D01*
X139050519Y-162063062D01*
X139145757Y-161967824D01*
X139193376Y-161872586D01*
X139240995Y-161682110D01*
X139240995Y-161539252D01*
X139193376Y-161348776D01*
X139145757Y-161253538D01*
X139050519Y-161158300D01*
X138907661Y-161110681D01*
X138812423Y-161110681D01*
X138669566Y-161158300D01*
X138621947Y-161205919D01*
X138050519Y-161539252D02*
X138145757Y-161491633D01*
X138193376Y-161444014D01*
X138240995Y-161348776D01*
X138240995Y-161301157D01*
X138193376Y-161205919D01*
X138145757Y-161158300D01*
X138050519Y-161110681D01*
X137860042Y-161110681D01*
X137764804Y-161158300D01*
X137717185Y-161205919D01*
X137669566Y-161301157D01*
X137669566Y-161348776D01*
X137717185Y-161444014D01*
X137764804Y-161491633D01*
X137860042Y-161539252D01*
X138050519Y-161539252D01*
X138145757Y-161586871D01*
X138193376Y-161634490D01*
X138240995Y-161729729D01*
X138240995Y-161920205D01*
X138193376Y-162015443D01*
X138145757Y-162063062D01*
X138050519Y-162110681D01*
X137860042Y-162110681D01*
X137764804Y-162063062D01*
X137717185Y-162015443D01*
X137669566Y-161920205D01*
X137669566Y-161729729D01*
X137717185Y-161634490D01*
X137764804Y-161586871D01*
X137860042Y-161539252D01*
X137050519Y-161110681D02*
X136955280Y-161110681D01*
X136860042Y-161158300D01*
X136812423Y-161205919D01*
X136764804Y-161301157D01*
X136717185Y-161491633D01*
X136717185Y-161729729D01*
X136764804Y-161920205D01*
X136812423Y-162015443D01*
X136860042Y-162063062D01*
X136955280Y-162110681D01*
X137050519Y-162110681D01*
X137145757Y-162063062D01*
X137193376Y-162015443D01*
X137240995Y-161920205D01*
X137288614Y-161729729D01*
X137288614Y-161491633D01*
X137240995Y-161301157D01*
X137193376Y-161205919D01*
X137145757Y-161158300D01*
X137050519Y-161110681D01*
X135764804Y-162110681D02*
X136336233Y-162110681D01*
X136050519Y-162110681D02*
X136050519Y-161110681D01*
X136145757Y-161253538D01*
X136240995Y-161348776D01*
X136336233Y-161396395D01*
X138672747Y-160034243D02*
X138720366Y-160081862D01*
X138863223Y-160129481D01*
X138958461Y-160129481D01*
X139101319Y-160081862D01*
X139196557Y-159986624D01*
X139244176Y-159891386D01*
X139291795Y-159700910D01*
X139291795Y-159558052D01*
X139244176Y-159367576D01*
X139196557Y-159272338D01*
X139101319Y-159177100D01*
X138958461Y-159129481D01*
X138863223Y-159129481D01*
X138720366Y-159177100D01*
X138672747Y-159224719D01*
X138101319Y-159558052D02*
X138196557Y-159510433D01*
X138244176Y-159462814D01*
X138291795Y-159367576D01*
X138291795Y-159319957D01*
X138244176Y-159224719D01*
X138196557Y-159177100D01*
X138101319Y-159129481D01*
X137910842Y-159129481D01*
X137815604Y-159177100D01*
X137767985Y-159224719D01*
X137720366Y-159319957D01*
X137720366Y-159367576D01*
X137767985Y-159462814D01*
X137815604Y-159510433D01*
X137910842Y-159558052D01*
X138101319Y-159558052D01*
X138196557Y-159605671D01*
X138244176Y-159653290D01*
X138291795Y-159748529D01*
X138291795Y-159939005D01*
X138244176Y-160034243D01*
X138196557Y-160081862D01*
X138101319Y-160129481D01*
X137910842Y-160129481D01*
X137815604Y-160081862D01*
X137767985Y-160034243D01*
X137720366Y-159939005D01*
X137720366Y-159748529D01*
X137767985Y-159653290D01*
X137815604Y-159605671D01*
X137910842Y-159558052D01*
X137101319Y-159129481D02*
X137006080Y-159129481D01*
X136910842Y-159177100D01*
X136863223Y-159224719D01*
X136815604Y-159319957D01*
X136767985Y-159510433D01*
X136767985Y-159748529D01*
X136815604Y-159939005D01*
X136863223Y-160034243D01*
X136910842Y-160081862D01*
X137006080Y-160129481D01*
X137101319Y-160129481D01*
X137196557Y-160081862D01*
X137244176Y-160034243D01*
X137291795Y-159939005D01*
X137339414Y-159748529D01*
X137339414Y-159510433D01*
X137291795Y-159319957D01*
X137244176Y-159224719D01*
X137196557Y-159177100D01*
X137101319Y-159129481D01*
X136387033Y-159224719D02*
X136339414Y-159177100D01*
X136244176Y-159129481D01*
X136006080Y-159129481D01*
X135910842Y-159177100D01*
X135863223Y-159224719D01*
X135815604Y-159319957D01*
X135815604Y-159415195D01*
X135863223Y-159558052D01*
X136434652Y-160129481D01*
X135815604Y-160129481D01*
X121311943Y-130872053D02*
X121359562Y-130824434D01*
X121407181Y-130681577D01*
X121407181Y-130586339D01*
X121359562Y-130443481D01*
X121264324Y-130348243D01*
X121169086Y-130300624D01*
X120978610Y-130253005D01*
X120835752Y-130253005D01*
X120645276Y-130300624D01*
X120550038Y-130348243D01*
X120454800Y-130443481D01*
X120407181Y-130586339D01*
X120407181Y-130681577D01*
X120454800Y-130824434D01*
X120502419Y-130872053D01*
X120835752Y-131443481D02*
X120788133Y-131348243D01*
X120740514Y-131300624D01*
X120645276Y-131253005D01*
X120597657Y-131253005D01*
X120502419Y-131300624D01*
X120454800Y-131348243D01*
X120407181Y-131443481D01*
X120407181Y-131633958D01*
X120454800Y-131729196D01*
X120502419Y-131776815D01*
X120597657Y-131824434D01*
X120645276Y-131824434D01*
X120740514Y-131776815D01*
X120788133Y-131729196D01*
X120835752Y-131633958D01*
X120835752Y-131443481D01*
X120883371Y-131348243D01*
X120930990Y-131300624D01*
X121026229Y-131253005D01*
X121216705Y-131253005D01*
X121311943Y-131300624D01*
X121359562Y-131348243D01*
X121407181Y-131443481D01*
X121407181Y-131633958D01*
X121359562Y-131729196D01*
X121311943Y-131776815D01*
X121216705Y-131824434D01*
X121026229Y-131824434D01*
X120930990Y-131776815D01*
X120883371Y-131729196D01*
X120835752Y-131633958D01*
X120407181Y-132443481D02*
X120407181Y-132538720D01*
X120454800Y-132633958D01*
X120502419Y-132681577D01*
X120597657Y-132729196D01*
X120788133Y-132776815D01*
X121026229Y-132776815D01*
X121216705Y-132729196D01*
X121311943Y-132681577D01*
X121359562Y-132633958D01*
X121407181Y-132538720D01*
X121407181Y-132443481D01*
X121359562Y-132348243D01*
X121311943Y-132300624D01*
X121216705Y-132253005D01*
X121026229Y-132205386D01*
X120788133Y-132205386D01*
X120597657Y-132253005D01*
X120502419Y-132300624D01*
X120454800Y-132348243D01*
X120407181Y-132443481D01*
X120407181Y-133110148D02*
X120407181Y-133729196D01*
X120788133Y-133395862D01*
X120788133Y-133538720D01*
X120835752Y-133633958D01*
X120883371Y-133681577D01*
X120978610Y-133729196D01*
X121216705Y-133729196D01*
X121311943Y-133681577D01*
X121359562Y-133633958D01*
X121407181Y-133538720D01*
X121407181Y-133253005D01*
X121359562Y-133157767D01*
X121311943Y-133110148D01*
X112612347Y-121756443D02*
X112659966Y-121804062D01*
X112802823Y-121851681D01*
X112898061Y-121851681D01*
X113040919Y-121804062D01*
X113136157Y-121708824D01*
X113183776Y-121613586D01*
X113231395Y-121423110D01*
X113231395Y-121280252D01*
X113183776Y-121089776D01*
X113136157Y-120994538D01*
X113040919Y-120899300D01*
X112898061Y-120851681D01*
X112802823Y-120851681D01*
X112659966Y-120899300D01*
X112612347Y-120946919D01*
X112040919Y-121280252D02*
X112136157Y-121232633D01*
X112183776Y-121185014D01*
X112231395Y-121089776D01*
X112231395Y-121042157D01*
X112183776Y-120946919D01*
X112136157Y-120899300D01*
X112040919Y-120851681D01*
X111850442Y-120851681D01*
X111755204Y-120899300D01*
X111707585Y-120946919D01*
X111659966Y-121042157D01*
X111659966Y-121089776D01*
X111707585Y-121185014D01*
X111755204Y-121232633D01*
X111850442Y-121280252D01*
X112040919Y-121280252D01*
X112136157Y-121327871D01*
X112183776Y-121375490D01*
X112231395Y-121470729D01*
X112231395Y-121661205D01*
X112183776Y-121756443D01*
X112136157Y-121804062D01*
X112040919Y-121851681D01*
X111850442Y-121851681D01*
X111755204Y-121804062D01*
X111707585Y-121756443D01*
X111659966Y-121661205D01*
X111659966Y-121470729D01*
X111707585Y-121375490D01*
X111755204Y-121327871D01*
X111850442Y-121280252D01*
X111040919Y-120851681D02*
X110945680Y-120851681D01*
X110850442Y-120899300D01*
X110802823Y-120946919D01*
X110755204Y-121042157D01*
X110707585Y-121232633D01*
X110707585Y-121470729D01*
X110755204Y-121661205D01*
X110802823Y-121756443D01*
X110850442Y-121804062D01*
X110945680Y-121851681D01*
X111040919Y-121851681D01*
X111136157Y-121804062D01*
X111183776Y-121756443D01*
X111231395Y-121661205D01*
X111279014Y-121470729D01*
X111279014Y-121232633D01*
X111231395Y-121042157D01*
X111183776Y-120946919D01*
X111136157Y-120899300D01*
X111040919Y-120851681D01*
X109850442Y-121185014D02*
X109850442Y-121851681D01*
X110088538Y-120804062D02*
X110326633Y-121518348D01*
X109707585Y-121518348D01*
X112053547Y-123445543D02*
X112101166Y-123493162D01*
X112244023Y-123540781D01*
X112339261Y-123540781D01*
X112482119Y-123493162D01*
X112577357Y-123397924D01*
X112624976Y-123302686D01*
X112672595Y-123112210D01*
X112672595Y-122969352D01*
X112624976Y-122778876D01*
X112577357Y-122683638D01*
X112482119Y-122588400D01*
X112339261Y-122540781D01*
X112244023Y-122540781D01*
X112101166Y-122588400D01*
X112053547Y-122636019D01*
X111482119Y-122969352D02*
X111577357Y-122921733D01*
X111624976Y-122874114D01*
X111672595Y-122778876D01*
X111672595Y-122731257D01*
X111624976Y-122636019D01*
X111577357Y-122588400D01*
X111482119Y-122540781D01*
X111291642Y-122540781D01*
X111196404Y-122588400D01*
X111148785Y-122636019D01*
X111101166Y-122731257D01*
X111101166Y-122778876D01*
X111148785Y-122874114D01*
X111196404Y-122921733D01*
X111291642Y-122969352D01*
X111482119Y-122969352D01*
X111577357Y-123016971D01*
X111624976Y-123064590D01*
X111672595Y-123159829D01*
X111672595Y-123350305D01*
X111624976Y-123445543D01*
X111577357Y-123493162D01*
X111482119Y-123540781D01*
X111291642Y-123540781D01*
X111196404Y-123493162D01*
X111148785Y-123445543D01*
X111101166Y-123350305D01*
X111101166Y-123159829D01*
X111148785Y-123064590D01*
X111196404Y-123016971D01*
X111291642Y-122969352D01*
X110482119Y-122540781D02*
X110386880Y-122540781D01*
X110291642Y-122588400D01*
X110244023Y-122636019D01*
X110196404Y-122731257D01*
X110148785Y-122921733D01*
X110148785Y-123159829D01*
X110196404Y-123350305D01*
X110244023Y-123445543D01*
X110291642Y-123493162D01*
X110386880Y-123540781D01*
X110482119Y-123540781D01*
X110577357Y-123493162D01*
X110624976Y-123445543D01*
X110672595Y-123350305D01*
X110720214Y-123159829D01*
X110720214Y-122921733D01*
X110672595Y-122731257D01*
X110624976Y-122636019D01*
X110577357Y-122588400D01*
X110482119Y-122540781D01*
X109244023Y-122540781D02*
X109720214Y-122540781D01*
X109767833Y-123016971D01*
X109720214Y-122969352D01*
X109624976Y-122921733D01*
X109386880Y-122921733D01*
X109291642Y-122969352D01*
X109244023Y-123016971D01*
X109196404Y-123112210D01*
X109196404Y-123350305D01*
X109244023Y-123445543D01*
X109291642Y-123493162D01*
X109386880Y-123540781D01*
X109624976Y-123540781D01*
X109720214Y-123493162D01*
X109767833Y-123445543D01*
X127119047Y-142907143D02*
X127166666Y-142954762D01*
X127309523Y-143002381D01*
X127404761Y-143002381D01*
X127547619Y-142954762D01*
X127642857Y-142859524D01*
X127690476Y-142764286D01*
X127738095Y-142573810D01*
X127738095Y-142430952D01*
X127690476Y-142240476D01*
X127642857Y-142145238D01*
X127547619Y-142050000D01*
X127404761Y-142002381D01*
X127309523Y-142002381D01*
X127166666Y-142050000D01*
X127119047Y-142097619D01*
X126547619Y-142430952D02*
X126642857Y-142383333D01*
X126690476Y-142335714D01*
X126738095Y-142240476D01*
X126738095Y-142192857D01*
X126690476Y-142097619D01*
X126642857Y-142050000D01*
X126547619Y-142002381D01*
X126357142Y-142002381D01*
X126261904Y-142050000D01*
X126214285Y-142097619D01*
X126166666Y-142192857D01*
X126166666Y-142240476D01*
X126214285Y-142335714D01*
X126261904Y-142383333D01*
X126357142Y-142430952D01*
X126547619Y-142430952D01*
X126642857Y-142478571D01*
X126690476Y-142526190D01*
X126738095Y-142621429D01*
X126738095Y-142811905D01*
X126690476Y-142907143D01*
X126642857Y-142954762D01*
X126547619Y-143002381D01*
X126357142Y-143002381D01*
X126261904Y-142954762D01*
X126214285Y-142907143D01*
X126166666Y-142811905D01*
X126166666Y-142621429D01*
X126214285Y-142526190D01*
X126261904Y-142478571D01*
X126357142Y-142430952D01*
X125547619Y-142002381D02*
X125452380Y-142002381D01*
X125357142Y-142050000D01*
X125309523Y-142097619D01*
X125261904Y-142192857D01*
X125214285Y-142383333D01*
X125214285Y-142621429D01*
X125261904Y-142811905D01*
X125309523Y-142907143D01*
X125357142Y-142954762D01*
X125452380Y-143002381D01*
X125547619Y-143002381D01*
X125642857Y-142954762D01*
X125690476Y-142907143D01*
X125738095Y-142811905D01*
X125785714Y-142621429D01*
X125785714Y-142383333D01*
X125738095Y-142192857D01*
X125690476Y-142097619D01*
X125642857Y-142050000D01*
X125547619Y-142002381D01*
X124357142Y-142002381D02*
X124547619Y-142002381D01*
X124642857Y-142050000D01*
X124690476Y-142097619D01*
X124785714Y-142240476D01*
X124833333Y-142430952D01*
X124833333Y-142811905D01*
X124785714Y-142907143D01*
X124738095Y-142954762D01*
X124642857Y-143002381D01*
X124452380Y-143002381D01*
X124357142Y-142954762D01*
X124309523Y-142907143D01*
X124261904Y-142811905D01*
X124261904Y-142573810D01*
X124309523Y-142478571D01*
X124357142Y-142430952D01*
X124452380Y-142383333D01*
X124642857Y-142383333D01*
X124738095Y-142430952D01*
X124785714Y-142478571D01*
X124833333Y-142573810D01*
X127242747Y-134342143D02*
X127290366Y-134389762D01*
X127433223Y-134437381D01*
X127528461Y-134437381D01*
X127671319Y-134389762D01*
X127766557Y-134294524D01*
X127814176Y-134199286D01*
X127861795Y-134008810D01*
X127861795Y-133865952D01*
X127814176Y-133675476D01*
X127766557Y-133580238D01*
X127671319Y-133485000D01*
X127528461Y-133437381D01*
X127433223Y-133437381D01*
X127290366Y-133485000D01*
X127242747Y-133532619D01*
X126671319Y-133865952D02*
X126766557Y-133818333D01*
X126814176Y-133770714D01*
X126861795Y-133675476D01*
X126861795Y-133627857D01*
X126814176Y-133532619D01*
X126766557Y-133485000D01*
X126671319Y-133437381D01*
X126480842Y-133437381D01*
X126385604Y-133485000D01*
X126337985Y-133532619D01*
X126290366Y-133627857D01*
X126290366Y-133675476D01*
X126337985Y-133770714D01*
X126385604Y-133818333D01*
X126480842Y-133865952D01*
X126671319Y-133865952D01*
X126766557Y-133913571D01*
X126814176Y-133961190D01*
X126861795Y-134056429D01*
X126861795Y-134246905D01*
X126814176Y-134342143D01*
X126766557Y-134389762D01*
X126671319Y-134437381D01*
X126480842Y-134437381D01*
X126385604Y-134389762D01*
X126337985Y-134342143D01*
X126290366Y-134246905D01*
X126290366Y-134056429D01*
X126337985Y-133961190D01*
X126385604Y-133913571D01*
X126480842Y-133865952D01*
X125671319Y-133437381D02*
X125576080Y-133437381D01*
X125480842Y-133485000D01*
X125433223Y-133532619D01*
X125385604Y-133627857D01*
X125337985Y-133818333D01*
X125337985Y-134056429D01*
X125385604Y-134246905D01*
X125433223Y-134342143D01*
X125480842Y-134389762D01*
X125576080Y-134437381D01*
X125671319Y-134437381D01*
X125766557Y-134389762D01*
X125814176Y-134342143D01*
X125861795Y-134246905D01*
X125909414Y-134056429D01*
X125909414Y-133818333D01*
X125861795Y-133627857D01*
X125814176Y-133532619D01*
X125766557Y-133485000D01*
X125671319Y-133437381D01*
X125004652Y-133437381D02*
X124337985Y-133437381D01*
X124766557Y-134437381D01*
X135869047Y-125007143D02*
X135916666Y-125054762D01*
X136059523Y-125102381D01*
X136154761Y-125102381D01*
X136297619Y-125054762D01*
X136392857Y-124959524D01*
X136440476Y-124864286D01*
X136488095Y-124673810D01*
X136488095Y-124530952D01*
X136440476Y-124340476D01*
X136392857Y-124245238D01*
X136297619Y-124150000D01*
X136154761Y-124102381D01*
X136059523Y-124102381D01*
X135916666Y-124150000D01*
X135869047Y-124197619D01*
X135297619Y-124530952D02*
X135392857Y-124483333D01*
X135440476Y-124435714D01*
X135488095Y-124340476D01*
X135488095Y-124292857D01*
X135440476Y-124197619D01*
X135392857Y-124150000D01*
X135297619Y-124102381D01*
X135107142Y-124102381D01*
X135011904Y-124150000D01*
X134964285Y-124197619D01*
X134916666Y-124292857D01*
X134916666Y-124340476D01*
X134964285Y-124435714D01*
X135011904Y-124483333D01*
X135107142Y-124530952D01*
X135297619Y-124530952D01*
X135392857Y-124578571D01*
X135440476Y-124626190D01*
X135488095Y-124721429D01*
X135488095Y-124911905D01*
X135440476Y-125007143D01*
X135392857Y-125054762D01*
X135297619Y-125102381D01*
X135107142Y-125102381D01*
X135011904Y-125054762D01*
X134964285Y-125007143D01*
X134916666Y-124911905D01*
X134916666Y-124721429D01*
X134964285Y-124626190D01*
X135011904Y-124578571D01*
X135107142Y-124530952D01*
X134297619Y-124102381D02*
X134202380Y-124102381D01*
X134107142Y-124150000D01*
X134059523Y-124197619D01*
X134011904Y-124292857D01*
X133964285Y-124483333D01*
X133964285Y-124721429D01*
X134011904Y-124911905D01*
X134059523Y-125007143D01*
X134107142Y-125054762D01*
X134202380Y-125102381D01*
X134297619Y-125102381D01*
X134392857Y-125054762D01*
X134440476Y-125007143D01*
X134488095Y-124911905D01*
X134535714Y-124721429D01*
X134535714Y-124483333D01*
X134488095Y-124292857D01*
X134440476Y-124197619D01*
X134392857Y-124150000D01*
X134297619Y-124102381D01*
X133392857Y-124530952D02*
X133488095Y-124483333D01*
X133535714Y-124435714D01*
X133583333Y-124340476D01*
X133583333Y-124292857D01*
X133535714Y-124197619D01*
X133488095Y-124150000D01*
X133392857Y-124102381D01*
X133202380Y-124102381D01*
X133107142Y-124150000D01*
X133059523Y-124197619D01*
X133011904Y-124292857D01*
X133011904Y-124340476D01*
X133059523Y-124435714D01*
X133107142Y-124483333D01*
X133202380Y-124530952D01*
X133392857Y-124530952D01*
X133488095Y-124578571D01*
X133535714Y-124626190D01*
X133583333Y-124721429D01*
X133583333Y-124911905D01*
X133535714Y-125007143D01*
X133488095Y-125054762D01*
X133392857Y-125102381D01*
X133202380Y-125102381D01*
X133107142Y-125054762D01*
X133059523Y-125007143D01*
X133011904Y-124911905D01*
X133011904Y-124721429D01*
X133059523Y-124626190D01*
X133107142Y-124578571D01*
X133202380Y-124530952D01*
X132068747Y-128690643D02*
X132116366Y-128738262D01*
X132259223Y-128785881D01*
X132354461Y-128785881D01*
X132497319Y-128738262D01*
X132592557Y-128643024D01*
X132640176Y-128547786D01*
X132687795Y-128357310D01*
X132687795Y-128214452D01*
X132640176Y-128023976D01*
X132592557Y-127928738D01*
X132497319Y-127833500D01*
X132354461Y-127785881D01*
X132259223Y-127785881D01*
X132116366Y-127833500D01*
X132068747Y-127881119D01*
X131497319Y-128214452D02*
X131592557Y-128166833D01*
X131640176Y-128119214D01*
X131687795Y-128023976D01*
X131687795Y-127976357D01*
X131640176Y-127881119D01*
X131592557Y-127833500D01*
X131497319Y-127785881D01*
X131306842Y-127785881D01*
X131211604Y-127833500D01*
X131163985Y-127881119D01*
X131116366Y-127976357D01*
X131116366Y-128023976D01*
X131163985Y-128119214D01*
X131211604Y-128166833D01*
X131306842Y-128214452D01*
X131497319Y-128214452D01*
X131592557Y-128262071D01*
X131640176Y-128309690D01*
X131687795Y-128404929D01*
X131687795Y-128595405D01*
X131640176Y-128690643D01*
X131592557Y-128738262D01*
X131497319Y-128785881D01*
X131306842Y-128785881D01*
X131211604Y-128738262D01*
X131163985Y-128690643D01*
X131116366Y-128595405D01*
X131116366Y-128404929D01*
X131163985Y-128309690D01*
X131211604Y-128262071D01*
X131306842Y-128214452D01*
X130497319Y-127785881D02*
X130402080Y-127785881D01*
X130306842Y-127833500D01*
X130259223Y-127881119D01*
X130211604Y-127976357D01*
X130163985Y-128166833D01*
X130163985Y-128404929D01*
X130211604Y-128595405D01*
X130259223Y-128690643D01*
X130306842Y-128738262D01*
X130402080Y-128785881D01*
X130497319Y-128785881D01*
X130592557Y-128738262D01*
X130640176Y-128690643D01*
X130687795Y-128595405D01*
X130735414Y-128404929D01*
X130735414Y-128166833D01*
X130687795Y-127976357D01*
X130640176Y-127881119D01*
X130592557Y-127833500D01*
X130497319Y-127785881D01*
X129687795Y-128785881D02*
X129497319Y-128785881D01*
X129402080Y-128738262D01*
X129354461Y-128690643D01*
X129259223Y-128547786D01*
X129211604Y-128357310D01*
X129211604Y-127976357D01*
X129259223Y-127881119D01*
X129306842Y-127833500D01*
X129402080Y-127785881D01*
X129592557Y-127785881D01*
X129687795Y-127833500D01*
X129735414Y-127881119D01*
X129783033Y-127976357D01*
X129783033Y-128214452D01*
X129735414Y-128309690D01*
X129687795Y-128357310D01*
X129592557Y-128404929D01*
X129402080Y-128404929D01*
X129306842Y-128357310D01*
X129259223Y-128309690D01*
X129211604Y-128214452D01*
X113007143Y-134230953D02*
X113054762Y-134183334D01*
X113102381Y-134040477D01*
X113102381Y-133945239D01*
X113054762Y-133802381D01*
X112959524Y-133707143D01*
X112864286Y-133659524D01*
X112673810Y-133611905D01*
X112530952Y-133611905D01*
X112340476Y-133659524D01*
X112245238Y-133707143D01*
X112150000Y-133802381D01*
X112102381Y-133945239D01*
X112102381Y-134040477D01*
X112150000Y-134183334D01*
X112197619Y-134230953D01*
X112530952Y-134802381D02*
X112483333Y-134707143D01*
X112435714Y-134659524D01*
X112340476Y-134611905D01*
X112292857Y-134611905D01*
X112197619Y-134659524D01*
X112150000Y-134707143D01*
X112102381Y-134802381D01*
X112102381Y-134992858D01*
X112150000Y-135088096D01*
X112197619Y-135135715D01*
X112292857Y-135183334D01*
X112340476Y-135183334D01*
X112435714Y-135135715D01*
X112483333Y-135088096D01*
X112530952Y-134992858D01*
X112530952Y-134802381D01*
X112578571Y-134707143D01*
X112626190Y-134659524D01*
X112721429Y-134611905D01*
X112911905Y-134611905D01*
X113007143Y-134659524D01*
X113054762Y-134707143D01*
X113102381Y-134802381D01*
X113102381Y-134992858D01*
X113054762Y-135088096D01*
X113007143Y-135135715D01*
X112911905Y-135183334D01*
X112721429Y-135183334D01*
X112626190Y-135135715D01*
X112578571Y-135088096D01*
X112530952Y-134992858D01*
X113102381Y-136135715D02*
X113102381Y-135564286D01*
X113102381Y-135850000D02*
X112102381Y-135850000D01*
X112245238Y-135754762D01*
X112340476Y-135659524D01*
X112388095Y-135564286D01*
X112102381Y-136754762D02*
X112102381Y-136850001D01*
X112150000Y-136945239D01*
X112197619Y-136992858D01*
X112292857Y-137040477D01*
X112483333Y-137088096D01*
X112721429Y-137088096D01*
X112911905Y-137040477D01*
X113007143Y-136992858D01*
X113054762Y-136945239D01*
X113102381Y-136850001D01*
X113102381Y-136754762D01*
X113054762Y-136659524D01*
X113007143Y-136611905D01*
X112911905Y-136564286D01*
X112721429Y-136516667D01*
X112483333Y-136516667D01*
X112292857Y-136564286D01*
X112197619Y-136611905D01*
X112150000Y-136659524D01*
X112102381Y-136754762D01*
X106071847Y-153061943D02*
X106119466Y-153109562D01*
X106262323Y-153157181D01*
X106357561Y-153157181D01*
X106500419Y-153109562D01*
X106595657Y-153014324D01*
X106643276Y-152919086D01*
X106690895Y-152728610D01*
X106690895Y-152585752D01*
X106643276Y-152395276D01*
X106595657Y-152300038D01*
X106500419Y-152204800D01*
X106357561Y-152157181D01*
X106262323Y-152157181D01*
X106119466Y-152204800D01*
X106071847Y-152252419D01*
X105500419Y-152585752D02*
X105595657Y-152538133D01*
X105643276Y-152490514D01*
X105690895Y-152395276D01*
X105690895Y-152347657D01*
X105643276Y-152252419D01*
X105595657Y-152204800D01*
X105500419Y-152157181D01*
X105309942Y-152157181D01*
X105214704Y-152204800D01*
X105167085Y-152252419D01*
X105119466Y-152347657D01*
X105119466Y-152395276D01*
X105167085Y-152490514D01*
X105214704Y-152538133D01*
X105309942Y-152585752D01*
X105500419Y-152585752D01*
X105595657Y-152633371D01*
X105643276Y-152680990D01*
X105690895Y-152776229D01*
X105690895Y-152966705D01*
X105643276Y-153061943D01*
X105595657Y-153109562D01*
X105500419Y-153157181D01*
X105309942Y-153157181D01*
X105214704Y-153109562D01*
X105167085Y-153061943D01*
X105119466Y-152966705D01*
X105119466Y-152776229D01*
X105167085Y-152680990D01*
X105214704Y-152633371D01*
X105309942Y-152585752D01*
X104167085Y-153157181D02*
X104738514Y-153157181D01*
X104452800Y-153157181D02*
X104452800Y-152157181D01*
X104548038Y-152300038D01*
X104643276Y-152395276D01*
X104738514Y-152442895D01*
X103214704Y-153157181D02*
X103786133Y-153157181D01*
X103500419Y-153157181D02*
X103500419Y-152157181D01*
X103595657Y-152300038D01*
X103690895Y-152395276D01*
X103786133Y-152442895D01*
X112929943Y-159408953D02*
X112977562Y-159361334D01*
X113025181Y-159218477D01*
X113025181Y-159123239D01*
X112977562Y-158980381D01*
X112882324Y-158885143D01*
X112787086Y-158837524D01*
X112596610Y-158789905D01*
X112453752Y-158789905D01*
X112263276Y-158837524D01*
X112168038Y-158885143D01*
X112072800Y-158980381D01*
X112025181Y-159123239D01*
X112025181Y-159218477D01*
X112072800Y-159361334D01*
X112120419Y-159408953D01*
X112453752Y-159980381D02*
X112406133Y-159885143D01*
X112358514Y-159837524D01*
X112263276Y-159789905D01*
X112215657Y-159789905D01*
X112120419Y-159837524D01*
X112072800Y-159885143D01*
X112025181Y-159980381D01*
X112025181Y-160170858D01*
X112072800Y-160266096D01*
X112120419Y-160313715D01*
X112215657Y-160361334D01*
X112263276Y-160361334D01*
X112358514Y-160313715D01*
X112406133Y-160266096D01*
X112453752Y-160170858D01*
X112453752Y-159980381D01*
X112501371Y-159885143D01*
X112548990Y-159837524D01*
X112644229Y-159789905D01*
X112834705Y-159789905D01*
X112929943Y-159837524D01*
X112977562Y-159885143D01*
X113025181Y-159980381D01*
X113025181Y-160170858D01*
X112977562Y-160266096D01*
X112929943Y-160313715D01*
X112834705Y-160361334D01*
X112644229Y-160361334D01*
X112548990Y-160313715D01*
X112501371Y-160266096D01*
X112453752Y-160170858D01*
X113025181Y-161313715D02*
X113025181Y-160742286D01*
X113025181Y-161028000D02*
X112025181Y-161028000D01*
X112168038Y-160932762D01*
X112263276Y-160837524D01*
X112310895Y-160742286D01*
X112120419Y-161694667D02*
X112072800Y-161742286D01*
X112025181Y-161837524D01*
X112025181Y-162075620D01*
X112072800Y-162170858D01*
X112120419Y-162218477D01*
X112215657Y-162266096D01*
X112310895Y-162266096D01*
X112453752Y-162218477D01*
X113025181Y-161647048D01*
X113025181Y-162266096D01*
X106008347Y-154395443D02*
X106055966Y-154443062D01*
X106198823Y-154490681D01*
X106294061Y-154490681D01*
X106436919Y-154443062D01*
X106532157Y-154347824D01*
X106579776Y-154252586D01*
X106627395Y-154062110D01*
X106627395Y-153919252D01*
X106579776Y-153728776D01*
X106532157Y-153633538D01*
X106436919Y-153538300D01*
X106294061Y-153490681D01*
X106198823Y-153490681D01*
X106055966Y-153538300D01*
X106008347Y-153585919D01*
X105436919Y-153919252D02*
X105532157Y-153871633D01*
X105579776Y-153824014D01*
X105627395Y-153728776D01*
X105627395Y-153681157D01*
X105579776Y-153585919D01*
X105532157Y-153538300D01*
X105436919Y-153490681D01*
X105246442Y-153490681D01*
X105151204Y-153538300D01*
X105103585Y-153585919D01*
X105055966Y-153681157D01*
X105055966Y-153728776D01*
X105103585Y-153824014D01*
X105151204Y-153871633D01*
X105246442Y-153919252D01*
X105436919Y-153919252D01*
X105532157Y-153966871D01*
X105579776Y-154014490D01*
X105627395Y-154109729D01*
X105627395Y-154300205D01*
X105579776Y-154395443D01*
X105532157Y-154443062D01*
X105436919Y-154490681D01*
X105246442Y-154490681D01*
X105151204Y-154443062D01*
X105103585Y-154395443D01*
X105055966Y-154300205D01*
X105055966Y-154109729D01*
X105103585Y-154014490D01*
X105151204Y-153966871D01*
X105246442Y-153919252D01*
X104103585Y-154490681D02*
X104675014Y-154490681D01*
X104389300Y-154490681D02*
X104389300Y-153490681D01*
X104484538Y-153633538D01*
X104579776Y-153728776D01*
X104675014Y-153776395D01*
X103770252Y-153490681D02*
X103151204Y-153490681D01*
X103484538Y-153871633D01*
X103341680Y-153871633D01*
X103246442Y-153919252D01*
X103198823Y-153966871D01*
X103151204Y-154062110D01*
X103151204Y-154300205D01*
X103198823Y-154395443D01*
X103246442Y-154443062D01*
X103341680Y-154490681D01*
X103627395Y-154490681D01*
X103722633Y-154443062D01*
X103770252Y-154395443D01*
X113972381Y-140880953D02*
X113972381Y-140404762D01*
X112972381Y-140404762D01*
X112972381Y-141642858D02*
X112972381Y-141452381D01*
X113020000Y-141357143D01*
X113067619Y-141309524D01*
X113210476Y-141214286D01*
X113400952Y-141166667D01*
X113781905Y-141166667D01*
X113877143Y-141214286D01*
X113924762Y-141261905D01*
X113972381Y-141357143D01*
X113972381Y-141547620D01*
X113924762Y-141642858D01*
X113877143Y-141690477D01*
X113781905Y-141738096D01*
X113543810Y-141738096D01*
X113448571Y-141690477D01*
X113400952Y-141642858D01*
X113353333Y-141547620D01*
X113353333Y-141357143D01*
X113400952Y-141261905D01*
X113448571Y-141214286D01*
X113543810Y-141166667D01*
X112972381Y-142357143D02*
X112972381Y-142452382D01*
X113020000Y-142547620D01*
X113067619Y-142595239D01*
X113162857Y-142642858D01*
X113353333Y-142690477D01*
X113591429Y-142690477D01*
X113781905Y-142642858D01*
X113877143Y-142595239D01*
X113924762Y-142547620D01*
X113972381Y-142452382D01*
X113972381Y-142357143D01*
X113924762Y-142261905D01*
X113877143Y-142214286D01*
X113781905Y-142166667D01*
X113591429Y-142119048D01*
X113353333Y-142119048D01*
X113162857Y-142166667D01*
X113067619Y-142214286D01*
X113020000Y-142261905D01*
X112972381Y-142357143D01*
X112972381Y-143023810D02*
X112972381Y-143642858D01*
X113353333Y-143309524D01*
X113353333Y-143452382D01*
X113400952Y-143547620D01*
X113448571Y-143595239D01*
X113543810Y-143642858D01*
X113781905Y-143642858D01*
X113877143Y-143595239D01*
X113924762Y-143547620D01*
X113972381Y-143452382D01*
X113972381Y-143166667D01*
X113924762Y-143071429D01*
X113877143Y-143023810D01*
X115476281Y-138288853D02*
X115476281Y-137812662D01*
X114476281Y-137812662D01*
X114904852Y-138765043D02*
X114857233Y-138669805D01*
X114809614Y-138622186D01*
X114714376Y-138574567D01*
X114666757Y-138574567D01*
X114571519Y-138622186D01*
X114523900Y-138669805D01*
X114476281Y-138765043D01*
X114476281Y-138955520D01*
X114523900Y-139050758D01*
X114571519Y-139098377D01*
X114666757Y-139145996D01*
X114714376Y-139145996D01*
X114809614Y-139098377D01*
X114857233Y-139050758D01*
X114904852Y-138955520D01*
X114904852Y-138765043D01*
X114952471Y-138669805D01*
X115000090Y-138622186D01*
X115095329Y-138574567D01*
X115285805Y-138574567D01*
X115381043Y-138622186D01*
X115428662Y-138669805D01*
X115476281Y-138765043D01*
X115476281Y-138955520D01*
X115428662Y-139050758D01*
X115381043Y-139098377D01*
X115285805Y-139145996D01*
X115095329Y-139145996D01*
X115000090Y-139098377D01*
X114952471Y-139050758D01*
X114904852Y-138955520D01*
X114476281Y-139765043D02*
X114476281Y-139860282D01*
X114523900Y-139955520D01*
X114571519Y-140003139D01*
X114666757Y-140050758D01*
X114857233Y-140098377D01*
X115095329Y-140098377D01*
X115285805Y-140050758D01*
X115381043Y-140003139D01*
X115428662Y-139955520D01*
X115476281Y-139860282D01*
X115476281Y-139765043D01*
X115428662Y-139669805D01*
X115381043Y-139622186D01*
X115285805Y-139574567D01*
X115095329Y-139526948D01*
X114857233Y-139526948D01*
X114666757Y-139574567D01*
X114571519Y-139622186D01*
X114523900Y-139669805D01*
X114476281Y-139765043D01*
X115476281Y-141050758D02*
X115476281Y-140479329D01*
X115476281Y-140765043D02*
X114476281Y-140765043D01*
X114619138Y-140669805D01*
X114714376Y-140574567D01*
X114761995Y-140479329D01*
X111386881Y-135126553D02*
X110910690Y-134793219D01*
X111386881Y-134555124D02*
X110386881Y-134555124D01*
X110386881Y-134936077D01*
X110434500Y-135031315D01*
X110482119Y-135078934D01*
X110577357Y-135126553D01*
X110720214Y-135126553D01*
X110815452Y-135078934D01*
X110863071Y-135031315D01*
X110910690Y-134936077D01*
X110910690Y-134555124D01*
X110386881Y-135983696D02*
X110386881Y-135793219D01*
X110434500Y-135697981D01*
X110482119Y-135650362D01*
X110624976Y-135555124D01*
X110815452Y-135507505D01*
X111196405Y-135507505D01*
X111291643Y-135555124D01*
X111339262Y-135602743D01*
X111386881Y-135697981D01*
X111386881Y-135888458D01*
X111339262Y-135983696D01*
X111291643Y-136031315D01*
X111196405Y-136078934D01*
X110958310Y-136078934D01*
X110863071Y-136031315D01*
X110815452Y-135983696D01*
X110767833Y-135888458D01*
X110767833Y-135697981D01*
X110815452Y-135602743D01*
X110863071Y-135555124D01*
X110958310Y-135507505D01*
X110386881Y-136697981D02*
X110386881Y-136793220D01*
X110434500Y-136888458D01*
X110482119Y-136936077D01*
X110577357Y-136983696D01*
X110767833Y-137031315D01*
X111005929Y-137031315D01*
X111196405Y-136983696D01*
X111291643Y-136936077D01*
X111339262Y-136888458D01*
X111386881Y-136793220D01*
X111386881Y-136697981D01*
X111339262Y-136602743D01*
X111291643Y-136555124D01*
X111196405Y-136507505D01*
X111005929Y-136459886D01*
X110767833Y-136459886D01*
X110577357Y-136507505D01*
X110482119Y-136555124D01*
X110434500Y-136602743D01*
X110386881Y-136697981D01*
X111386881Y-137507505D02*
X111386881Y-137697981D01*
X111339262Y-137793220D01*
X111291643Y-137840839D01*
X111148786Y-137936077D01*
X110958310Y-137983696D01*
X110577357Y-137983696D01*
X110482119Y-137936077D01*
X110434500Y-137888458D01*
X110386881Y-137793220D01*
X110386881Y-137602743D01*
X110434500Y-137507505D01*
X110482119Y-137459886D01*
X110577357Y-137412267D01*
X110815452Y-137412267D01*
X110910690Y-137459886D01*
X110958310Y-137507505D01*
X111005929Y-137602743D01*
X111005929Y-137793220D01*
X110958310Y-137888458D01*
X110910690Y-137936077D01*
X110815452Y-137983696D01*
X105957547Y-138945881D02*
X106290881Y-138469690D01*
X106528976Y-138945881D02*
X106528976Y-137945881D01*
X106148023Y-137945881D01*
X106052785Y-137993500D01*
X106005166Y-138041119D01*
X105957547Y-138136357D01*
X105957547Y-138279214D01*
X106005166Y-138374452D01*
X106052785Y-138422071D01*
X106148023Y-138469690D01*
X106528976Y-138469690D01*
X105100404Y-137945881D02*
X105290881Y-137945881D01*
X105386119Y-137993500D01*
X105433738Y-138041119D01*
X105528976Y-138183976D01*
X105576595Y-138374452D01*
X105576595Y-138755405D01*
X105528976Y-138850643D01*
X105481357Y-138898262D01*
X105386119Y-138945881D01*
X105195642Y-138945881D01*
X105100404Y-138898262D01*
X105052785Y-138850643D01*
X105005166Y-138755405D01*
X105005166Y-138517310D01*
X105052785Y-138422071D01*
X105100404Y-138374452D01*
X105195642Y-138326833D01*
X105386119Y-138326833D01*
X105481357Y-138374452D01*
X105528976Y-138422071D01*
X105576595Y-138517310D01*
X104052785Y-138945881D02*
X104624214Y-138945881D01*
X104338500Y-138945881D02*
X104338500Y-137945881D01*
X104433738Y-138088738D01*
X104528976Y-138183976D01*
X104624214Y-138231595D01*
X103433738Y-137945881D02*
X103338499Y-137945881D01*
X103243261Y-137993500D01*
X103195642Y-138041119D01*
X103148023Y-138136357D01*
X103100404Y-138326833D01*
X103100404Y-138564929D01*
X103148023Y-138755405D01*
X103195642Y-138850643D01*
X103243261Y-138898262D01*
X103338499Y-138945881D01*
X103433738Y-138945881D01*
X103528976Y-138898262D01*
X103576595Y-138850643D01*
X103624214Y-138755405D01*
X103671833Y-138564929D01*
X103671833Y-138326833D01*
X103624214Y-138136357D01*
X103576595Y-138041119D01*
X103528976Y-137993500D01*
X103433738Y-137945881D01*
X115247681Y-125741253D02*
X114771490Y-125407919D01*
X115247681Y-125169824D02*
X114247681Y-125169824D01*
X114247681Y-125550777D01*
X114295300Y-125646015D01*
X114342919Y-125693634D01*
X114438157Y-125741253D01*
X114581014Y-125741253D01*
X114676252Y-125693634D01*
X114723871Y-125646015D01*
X114771490Y-125550777D01*
X114771490Y-125169824D01*
X114676252Y-126312681D02*
X114628633Y-126217443D01*
X114581014Y-126169824D01*
X114485776Y-126122205D01*
X114438157Y-126122205D01*
X114342919Y-126169824D01*
X114295300Y-126217443D01*
X114247681Y-126312681D01*
X114247681Y-126503158D01*
X114295300Y-126598396D01*
X114342919Y-126646015D01*
X114438157Y-126693634D01*
X114485776Y-126693634D01*
X114581014Y-126646015D01*
X114628633Y-126598396D01*
X114676252Y-126503158D01*
X114676252Y-126312681D01*
X114723871Y-126217443D01*
X114771490Y-126169824D01*
X114866729Y-126122205D01*
X115057205Y-126122205D01*
X115152443Y-126169824D01*
X115200062Y-126217443D01*
X115247681Y-126312681D01*
X115247681Y-126503158D01*
X115200062Y-126598396D01*
X115152443Y-126646015D01*
X115057205Y-126693634D01*
X114866729Y-126693634D01*
X114771490Y-126646015D01*
X114723871Y-126598396D01*
X114676252Y-126503158D01*
X114247681Y-127312681D02*
X114247681Y-127407920D01*
X114295300Y-127503158D01*
X114342919Y-127550777D01*
X114438157Y-127598396D01*
X114628633Y-127646015D01*
X114866729Y-127646015D01*
X115057205Y-127598396D01*
X115152443Y-127550777D01*
X115200062Y-127503158D01*
X115247681Y-127407920D01*
X115247681Y-127312681D01*
X115200062Y-127217443D01*
X115152443Y-127169824D01*
X115057205Y-127122205D01*
X114866729Y-127074586D01*
X114628633Y-127074586D01*
X114438157Y-127122205D01*
X114342919Y-127169824D01*
X114295300Y-127217443D01*
X114247681Y-127312681D01*
X114342919Y-128026967D02*
X114295300Y-128074586D01*
X114247681Y-128169824D01*
X114247681Y-128407920D01*
X114295300Y-128503158D01*
X114342919Y-128550777D01*
X114438157Y-128598396D01*
X114533395Y-128598396D01*
X114676252Y-128550777D01*
X115247681Y-127979348D01*
X115247681Y-128598396D01*
X112302381Y-129180953D02*
X111826190Y-128847619D01*
X112302381Y-128609524D02*
X111302381Y-128609524D01*
X111302381Y-128990477D01*
X111350000Y-129085715D01*
X111397619Y-129133334D01*
X111492857Y-129180953D01*
X111635714Y-129180953D01*
X111730952Y-129133334D01*
X111778571Y-129085715D01*
X111826190Y-128990477D01*
X111826190Y-128609524D01*
X111730952Y-129752381D02*
X111683333Y-129657143D01*
X111635714Y-129609524D01*
X111540476Y-129561905D01*
X111492857Y-129561905D01*
X111397619Y-129609524D01*
X111350000Y-129657143D01*
X111302381Y-129752381D01*
X111302381Y-129942858D01*
X111350000Y-130038096D01*
X111397619Y-130085715D01*
X111492857Y-130133334D01*
X111540476Y-130133334D01*
X111635714Y-130085715D01*
X111683333Y-130038096D01*
X111730952Y-129942858D01*
X111730952Y-129752381D01*
X111778571Y-129657143D01*
X111826190Y-129609524D01*
X111921429Y-129561905D01*
X112111905Y-129561905D01*
X112207143Y-129609524D01*
X112254762Y-129657143D01*
X112302381Y-129752381D01*
X112302381Y-129942858D01*
X112254762Y-130038096D01*
X112207143Y-130085715D01*
X112111905Y-130133334D01*
X111921429Y-130133334D01*
X111826190Y-130085715D01*
X111778571Y-130038096D01*
X111730952Y-129942858D01*
X111302381Y-130752381D02*
X111302381Y-130847620D01*
X111350000Y-130942858D01*
X111397619Y-130990477D01*
X111492857Y-131038096D01*
X111683333Y-131085715D01*
X111921429Y-131085715D01*
X112111905Y-131038096D01*
X112207143Y-130990477D01*
X112254762Y-130942858D01*
X112302381Y-130847620D01*
X112302381Y-130752381D01*
X112254762Y-130657143D01*
X112207143Y-130609524D01*
X112111905Y-130561905D01*
X111921429Y-130514286D01*
X111683333Y-130514286D01*
X111492857Y-130561905D01*
X111397619Y-130609524D01*
X111350000Y-130657143D01*
X111302381Y-130752381D01*
X111302381Y-131419048D02*
X111302381Y-132038096D01*
X111683333Y-131704762D01*
X111683333Y-131847620D01*
X111730952Y-131942858D01*
X111778571Y-131990477D01*
X111873810Y-132038096D01*
X112111905Y-132038096D01*
X112207143Y-131990477D01*
X112254762Y-131942858D01*
X112302381Y-131847620D01*
X112302381Y-131561905D01*
X112254762Y-131466667D01*
X112207143Y-131419048D01*
X122147619Y-149402381D02*
X122480953Y-148926190D01*
X122719048Y-149402381D02*
X122719048Y-148402381D01*
X122338095Y-148402381D01*
X122242857Y-148450000D01*
X122195238Y-148497619D01*
X122147619Y-148592857D01*
X122147619Y-148735714D01*
X122195238Y-148830952D01*
X122242857Y-148878571D01*
X122338095Y-148926190D01*
X122719048Y-148926190D01*
X121861905Y-148402381D02*
X121528572Y-149402381D01*
X121195238Y-148402381D01*
X120433333Y-148402381D02*
X120623810Y-148402381D01*
X120719048Y-148450000D01*
X120766667Y-148497619D01*
X120861905Y-148640476D01*
X120909524Y-148830952D01*
X120909524Y-149211905D01*
X120861905Y-149307143D01*
X120814286Y-149354762D01*
X120719048Y-149402381D01*
X120528571Y-149402381D01*
X120433333Y-149354762D01*
X120385714Y-149307143D01*
X120338095Y-149211905D01*
X120338095Y-148973810D01*
X120385714Y-148878571D01*
X120433333Y-148830952D01*
X120528571Y-148783333D01*
X120719048Y-148783333D01*
X120814286Y-148830952D01*
X120861905Y-148878571D01*
X120909524Y-148973810D01*
X119719048Y-148402381D02*
X119623809Y-148402381D01*
X119528571Y-148450000D01*
X119480952Y-148497619D01*
X119433333Y-148592857D01*
X119385714Y-148783333D01*
X119385714Y-149021429D01*
X119433333Y-149211905D01*
X119480952Y-149307143D01*
X119528571Y-149354762D01*
X119623809Y-149402381D01*
X119719048Y-149402381D01*
X119814286Y-149354762D01*
X119861905Y-149307143D01*
X119909524Y-149211905D01*
X119957143Y-149021429D01*
X119957143Y-148783333D01*
X119909524Y-148592857D01*
X119861905Y-148497619D01*
X119814286Y-148450000D01*
X119719048Y-148402381D01*
X118433333Y-149402381D02*
X119004762Y-149402381D01*
X118719048Y-149402381D02*
X118719048Y-148402381D01*
X118814286Y-148545238D01*
X118909524Y-148640476D01*
X119004762Y-148688095D01*
X136231381Y-151574714D02*
X137040905Y-151574714D01*
X137136143Y-151622333D01*
X137183762Y-151669952D01*
X137231381Y-151765190D01*
X137231381Y-151955667D01*
X137183762Y-152050905D01*
X137136143Y-152098524D01*
X137040905Y-152146143D01*
X136231381Y-152146143D01*
X136231381Y-152527095D02*
X136231381Y-153193762D01*
X137231381Y-152765190D01*
X136231381Y-153765190D02*
X136231381Y-153860429D01*
X136279000Y-153955667D01*
X136326619Y-154003286D01*
X136421857Y-154050905D01*
X136612333Y-154098524D01*
X136850429Y-154098524D01*
X137040905Y-154050905D01*
X137136143Y-154003286D01*
X137183762Y-153955667D01*
X137231381Y-153860429D01*
X137231381Y-153765190D01*
X137183762Y-153669952D01*
X137136143Y-153622333D01*
X137040905Y-153574714D01*
X136850429Y-153527095D01*
X136612333Y-153527095D01*
X136421857Y-153574714D01*
X136326619Y-153622333D01*
X136279000Y-153669952D01*
X136231381Y-153765190D01*
X137231381Y-155050905D02*
X137231381Y-154479476D01*
X137231381Y-154765190D02*
X136231381Y-154765190D01*
X136374238Y-154669952D01*
X136469476Y-154574714D01*
X136517095Y-154479476D01*
X136078981Y-147625014D02*
X136888505Y-147625014D01*
X136983743Y-147672633D01*
X137031362Y-147720252D01*
X137078981Y-147815490D01*
X137078981Y-148005967D01*
X137031362Y-148101205D01*
X136983743Y-148148824D01*
X136888505Y-148196443D01*
X136078981Y-148196443D01*
X136078981Y-148577395D02*
X136078981Y-149244062D01*
X137078981Y-148815490D01*
X136078981Y-149815490D02*
X136078981Y-149910729D01*
X136126600Y-150005967D01*
X136174219Y-150053586D01*
X136269457Y-150101205D01*
X136459933Y-150148824D01*
X136698029Y-150148824D01*
X136888505Y-150101205D01*
X136983743Y-150053586D01*
X137031362Y-150005967D01*
X137078981Y-149910729D01*
X137078981Y-149815490D01*
X137031362Y-149720252D01*
X136983743Y-149672633D01*
X136888505Y-149625014D01*
X136698029Y-149577395D01*
X136459933Y-149577395D01*
X136269457Y-149625014D01*
X136174219Y-149672633D01*
X136126600Y-149720252D01*
X136078981Y-149815490D01*
X136174219Y-150529776D02*
X136126600Y-150577395D01*
X136078981Y-150672633D01*
X136078981Y-150910729D01*
X136126600Y-151005967D01*
X136174219Y-151053586D01*
X136269457Y-151101205D01*
X136364695Y-151101205D01*
X136507552Y-151053586D01*
X137078981Y-150482157D01*
X137078981Y-151101205D01*
X135402381Y-155285714D02*
X136211905Y-155285714D01*
X136307143Y-155333333D01*
X136354762Y-155380952D01*
X136402381Y-155476190D01*
X136402381Y-155666667D01*
X136354762Y-155761905D01*
X136307143Y-155809524D01*
X136211905Y-155857143D01*
X135402381Y-155857143D01*
X135830952Y-156476190D02*
X135783333Y-156380952D01*
X135735714Y-156333333D01*
X135640476Y-156285714D01*
X135592857Y-156285714D01*
X135497619Y-156333333D01*
X135450000Y-156380952D01*
X135402381Y-156476190D01*
X135402381Y-156666667D01*
X135450000Y-156761905D01*
X135497619Y-156809524D01*
X135592857Y-156857143D01*
X135640476Y-156857143D01*
X135735714Y-156809524D01*
X135783333Y-156761905D01*
X135830952Y-156666667D01*
X135830952Y-156476190D01*
X135878571Y-156380952D01*
X135926190Y-156333333D01*
X136021429Y-156285714D01*
X136211905Y-156285714D01*
X136307143Y-156333333D01*
X136354762Y-156380952D01*
X136402381Y-156476190D01*
X136402381Y-156666667D01*
X136354762Y-156761905D01*
X136307143Y-156809524D01*
X136211905Y-156857143D01*
X136021429Y-156857143D01*
X135926190Y-156809524D01*
X135878571Y-156761905D01*
X135830952Y-156666667D01*
X135402381Y-157476190D02*
X135402381Y-157571429D01*
X135450000Y-157666667D01*
X135497619Y-157714286D01*
X135592857Y-157761905D01*
X135783333Y-157809524D01*
X136021429Y-157809524D01*
X136211905Y-157761905D01*
X136307143Y-157714286D01*
X136354762Y-157666667D01*
X136402381Y-157571429D01*
X136402381Y-157476190D01*
X136354762Y-157380952D01*
X136307143Y-157333333D01*
X136211905Y-157285714D01*
X136021429Y-157238095D01*
X135783333Y-157238095D01*
X135592857Y-157285714D01*
X135497619Y-157333333D01*
X135450000Y-157380952D01*
X135402381Y-157476190D01*
X136402381Y-158761905D02*
X136402381Y-158190476D01*
X136402381Y-158476190D02*
X135402381Y-158476190D01*
X135545238Y-158380952D01*
X135640476Y-158285714D01*
X135688095Y-158190476D01*
X107810086Y-129233681D02*
X107810086Y-130043205D01*
X107762467Y-130138443D01*
X107714848Y-130186062D01*
X107619610Y-130233681D01*
X107429133Y-130233681D01*
X107333895Y-130186062D01*
X107286276Y-130138443D01*
X107238657Y-130043205D01*
X107238657Y-129233681D01*
X106619610Y-129662252D02*
X106714848Y-129614633D01*
X106762467Y-129567014D01*
X106810086Y-129471776D01*
X106810086Y-129424157D01*
X106762467Y-129328919D01*
X106714848Y-129281300D01*
X106619610Y-129233681D01*
X106429133Y-129233681D01*
X106333895Y-129281300D01*
X106286276Y-129328919D01*
X106238657Y-129424157D01*
X106238657Y-129471776D01*
X106286276Y-129567014D01*
X106333895Y-129614633D01*
X106429133Y-129662252D01*
X106619610Y-129662252D01*
X106714848Y-129709871D01*
X106762467Y-129757490D01*
X106810086Y-129852729D01*
X106810086Y-130043205D01*
X106762467Y-130138443D01*
X106714848Y-130186062D01*
X106619610Y-130233681D01*
X106429133Y-130233681D01*
X106333895Y-130186062D01*
X106286276Y-130138443D01*
X106238657Y-130043205D01*
X106238657Y-129852729D01*
X106286276Y-129757490D01*
X106333895Y-129709871D01*
X106429133Y-129662252D01*
X105619610Y-129233681D02*
X105524371Y-129233681D01*
X105429133Y-129281300D01*
X105381514Y-129328919D01*
X105333895Y-129424157D01*
X105286276Y-129614633D01*
X105286276Y-129852729D01*
X105333895Y-130043205D01*
X105381514Y-130138443D01*
X105429133Y-130186062D01*
X105524371Y-130233681D01*
X105619610Y-130233681D01*
X105714848Y-130186062D01*
X105762467Y-130138443D01*
X105810086Y-130043205D01*
X105857705Y-129852729D01*
X105857705Y-129614633D01*
X105810086Y-129424157D01*
X105762467Y-129328919D01*
X105714848Y-129281300D01*
X105619610Y-129233681D01*
X104952943Y-129233681D02*
X104333895Y-129233681D01*
X104667229Y-129614633D01*
X104524371Y-129614633D01*
X104429133Y-129662252D01*
X104381514Y-129709871D01*
X104333895Y-129805110D01*
X104333895Y-130043205D01*
X104381514Y-130138443D01*
X104429133Y-130186062D01*
X104524371Y-130233681D01*
X104810086Y-130233681D01*
X104905324Y-130186062D01*
X104952943Y-130138443D01*
X118732086Y-128662181D02*
X118732086Y-129471705D01*
X118684467Y-129566943D01*
X118636848Y-129614562D01*
X118541610Y-129662181D01*
X118351133Y-129662181D01*
X118255895Y-129614562D01*
X118208276Y-129566943D01*
X118160657Y-129471705D01*
X118160657Y-128662181D01*
X117541610Y-129090752D02*
X117636848Y-129043133D01*
X117684467Y-128995514D01*
X117732086Y-128900276D01*
X117732086Y-128852657D01*
X117684467Y-128757419D01*
X117636848Y-128709800D01*
X117541610Y-128662181D01*
X117351133Y-128662181D01*
X117255895Y-128709800D01*
X117208276Y-128757419D01*
X117160657Y-128852657D01*
X117160657Y-128900276D01*
X117208276Y-128995514D01*
X117255895Y-129043133D01*
X117351133Y-129090752D01*
X117541610Y-129090752D01*
X117636848Y-129138371D01*
X117684467Y-129185990D01*
X117732086Y-129281229D01*
X117732086Y-129471705D01*
X117684467Y-129566943D01*
X117636848Y-129614562D01*
X117541610Y-129662181D01*
X117351133Y-129662181D01*
X117255895Y-129614562D01*
X117208276Y-129566943D01*
X117160657Y-129471705D01*
X117160657Y-129281229D01*
X117208276Y-129185990D01*
X117255895Y-129138371D01*
X117351133Y-129090752D01*
X116541610Y-128662181D02*
X116446371Y-128662181D01*
X116351133Y-128709800D01*
X116303514Y-128757419D01*
X116255895Y-128852657D01*
X116208276Y-129043133D01*
X116208276Y-129281229D01*
X116255895Y-129471705D01*
X116303514Y-129566943D01*
X116351133Y-129614562D01*
X116446371Y-129662181D01*
X116541610Y-129662181D01*
X116636848Y-129614562D01*
X116684467Y-129566943D01*
X116732086Y-129471705D01*
X116779705Y-129281229D01*
X116779705Y-129043133D01*
X116732086Y-128852657D01*
X116684467Y-128757419D01*
X116636848Y-128709800D01*
X116541610Y-128662181D01*
X115351133Y-128995514D02*
X115351133Y-129662181D01*
X115589229Y-128614562D02*
X115827324Y-129328848D01*
X115208276Y-129328848D01*
X128652381Y-132035714D02*
X129461905Y-132035714D01*
X129557143Y-132083333D01*
X129604762Y-132130952D01*
X129652381Y-132226190D01*
X129652381Y-132416667D01*
X129604762Y-132511905D01*
X129557143Y-132559524D01*
X129461905Y-132607143D01*
X128652381Y-132607143D01*
X129080952Y-133226190D02*
X129033333Y-133130952D01*
X128985714Y-133083333D01*
X128890476Y-133035714D01*
X128842857Y-133035714D01*
X128747619Y-133083333D01*
X128700000Y-133130952D01*
X128652381Y-133226190D01*
X128652381Y-133416667D01*
X128700000Y-133511905D01*
X128747619Y-133559524D01*
X128842857Y-133607143D01*
X128890476Y-133607143D01*
X128985714Y-133559524D01*
X129033333Y-133511905D01*
X129080952Y-133416667D01*
X129080952Y-133226190D01*
X129128571Y-133130952D01*
X129176190Y-133083333D01*
X129271429Y-133035714D01*
X129461905Y-133035714D01*
X129557143Y-133083333D01*
X129604762Y-133130952D01*
X129652381Y-133226190D01*
X129652381Y-133416667D01*
X129604762Y-133511905D01*
X129557143Y-133559524D01*
X129461905Y-133607143D01*
X129271429Y-133607143D01*
X129176190Y-133559524D01*
X129128571Y-133511905D01*
X129080952Y-133416667D01*
X128652381Y-134226190D02*
X128652381Y-134321429D01*
X128700000Y-134416667D01*
X128747619Y-134464286D01*
X128842857Y-134511905D01*
X129033333Y-134559524D01*
X129271429Y-134559524D01*
X129461905Y-134511905D01*
X129557143Y-134464286D01*
X129604762Y-134416667D01*
X129652381Y-134321429D01*
X129652381Y-134226190D01*
X129604762Y-134130952D01*
X129557143Y-134083333D01*
X129461905Y-134035714D01*
X129271429Y-133988095D01*
X129033333Y-133988095D01*
X128842857Y-134035714D01*
X128747619Y-134083333D01*
X128700000Y-134130952D01*
X128652381Y-134226190D01*
X128747619Y-134940476D02*
X128700000Y-134988095D01*
X128652381Y-135083333D01*
X128652381Y-135321429D01*
X128700000Y-135416667D01*
X128747619Y-135464286D01*
X128842857Y-135511905D01*
X128938095Y-135511905D01*
X129080952Y-135464286D01*
X129652381Y-134892857D01*
X129652381Y-135511905D01*
M02*
